G04 EAGLE Gerber RS-274X export*
G75*
%MOMM*%
%FSLAX34Y34*%
%LPD*%
%INBottom Copper*%
%IPPOS*%
%AMOC8*
5,1,8,0,0,1.08239X$1,22.5*%
G01*
G04 Define Apertures*
%ADD10P,3.4091X8X112.5*%
%ADD11C,3.149600*%
%ADD12R,1.500000X0.900000*%
%ADD13R,0.900000X1.500000*%
%ADD14C,1.676400*%
%ADD15C,2.000000*%
%ADD16C,1.507100*%
%ADD17C,1.508000*%
%ADD18R,1.320800X1.320800*%
%ADD19C,1.320800*%
%ADD20C,1.778000*%
%ADD21C,1.524000*%
%ADD22C,1.524000*%
%ADD23C,0.152400*%
%ADD24C,0.756400*%
%ADD25C,2.850000*%
G36*
X-214728Y347387D02*
X-215223Y347286D01*
X-248998Y347286D01*
X-249446Y347368D01*
X-249874Y347637D01*
X-250164Y348051D01*
X-250268Y348546D01*
X-250171Y349042D01*
X-249694Y350195D01*
X-249694Y352370D01*
X-249764Y352707D01*
X-249671Y353204D01*
X-249392Y353625D01*
X-124875Y478142D01*
X-124482Y478409D01*
X-123987Y478514D01*
X-123628Y478444D01*
X-121445Y478444D01*
X-119494Y479252D01*
X-118002Y480744D01*
X-117194Y482695D01*
X-117194Y484806D01*
X-118002Y486756D01*
X-119494Y488248D01*
X-121445Y489056D01*
X-123556Y489056D01*
X-125506Y488248D01*
X-126520Y487234D01*
X-126909Y486969D01*
X-127403Y486862D01*
X-127899Y486957D01*
X-128320Y487238D01*
X-128597Y487660D01*
X-132580Y497620D01*
X-134514Y498449D01*
X-135491Y498058D01*
X-130092Y484558D01*
X-140806Y480272D01*
X-139301Y476510D01*
X-137367Y475681D01*
X-137170Y475760D01*
X-136759Y475849D01*
X-136259Y475772D01*
X-135829Y475507D01*
X-135537Y475095D01*
X-135429Y474601D01*
X-135521Y474104D01*
X-135800Y473683D01*
X-252625Y356858D01*
X-253018Y356591D01*
X-253513Y356486D01*
X-253872Y356556D01*
X-256056Y356556D01*
X-258006Y355748D01*
X-259498Y354256D01*
X-259950Y353166D01*
X-260197Y352783D01*
X-260609Y352491D01*
X-261103Y352382D01*
X-261600Y352475D01*
X-262021Y352754D01*
X-295303Y386036D01*
X-308587Y386036D01*
X-309026Y386114D01*
X-309456Y386380D01*
X-309748Y386792D01*
X-309857Y387286D01*
X-309764Y387783D01*
X-309485Y388204D01*
X-305634Y392055D01*
X-305634Y394159D01*
X-308499Y397024D01*
X-320046Y385477D01*
X-320605Y386036D01*
X-349777Y386036D01*
X-350254Y386129D01*
X-350675Y386408D01*
X-365447Y401179D01*
X-365710Y401564D01*
X-365818Y402057D01*
X-365726Y402554D01*
X-365447Y402976D01*
X-364633Y403789D01*
X-364633Y405052D01*
X-376132Y416551D01*
X-376422Y416551D01*
X-376910Y416648D01*
X-377328Y416931D01*
X-377604Y417355D01*
X-377692Y417853D01*
X-377579Y418345D01*
X-377283Y418755D01*
X-365121Y429964D01*
X-365042Y430031D01*
X-363087Y431559D01*
X-362819Y431720D01*
X-362325Y431828D01*
X-361828Y431735D01*
X-361407Y431456D01*
X-349818Y419867D01*
X-348555Y419867D01*
X-341298Y427124D01*
X-341298Y427694D01*
X-341213Y428152D01*
X-340941Y428578D01*
X-340524Y428863D01*
X-340028Y428964D01*
X-264852Y428964D01*
X-264154Y428755D01*
X-263796Y428399D01*
X-259079Y421326D01*
X-257841Y421078D01*
X-249303Y426772D01*
X-249055Y428010D01*
X-258079Y441540D01*
X-259317Y441788D01*
X-267855Y436093D01*
X-268162Y434557D01*
X-268495Y433922D01*
X-268912Y433637D01*
X-269407Y433536D01*
X-292266Y433536D01*
X-292705Y433614D01*
X-293135Y433880D01*
X-293427Y434292D01*
X-293536Y434786D01*
X-293443Y435283D01*
X-293164Y435704D01*
X-292040Y436828D01*
X-290661Y440158D01*
X-290661Y443762D01*
X-292040Y447092D01*
X-294588Y449640D01*
X-297918Y451020D01*
X-301522Y451020D01*
X-304852Y449640D01*
X-307400Y447092D01*
X-308780Y443762D01*
X-308780Y440158D01*
X-307400Y436828D01*
X-306276Y435704D01*
X-306021Y435338D01*
X-305905Y434846D01*
X-305990Y434348D01*
X-306262Y433922D01*
X-306679Y433637D01*
X-307174Y433536D01*
X-317666Y433536D01*
X-318105Y433614D01*
X-318535Y433880D01*
X-318827Y434292D01*
X-318936Y434786D01*
X-318843Y435283D01*
X-318564Y435704D01*
X-317440Y436828D01*
X-316061Y440158D01*
X-316061Y443762D01*
X-317440Y447092D01*
X-319988Y449640D01*
X-323318Y451020D01*
X-326922Y451020D01*
X-330252Y449640D01*
X-332800Y447092D01*
X-334180Y443762D01*
X-334180Y440158D01*
X-332800Y436828D01*
X-331676Y435704D01*
X-331421Y435338D01*
X-331305Y434846D01*
X-331390Y434348D01*
X-331662Y433922D01*
X-332079Y433637D01*
X-332574Y433536D01*
X-345922Y433536D01*
X-346399Y433629D01*
X-346820Y433908D01*
X-351621Y438709D01*
X-351938Y439238D01*
X-351986Y439741D01*
X-351833Y440223D01*
X-351505Y440608D01*
X-328921Y458251D01*
X-328837Y458311D01*
X-290539Y483497D01*
X-290451Y483551D01*
X-269778Y494851D01*
X-269465Y494972D01*
X-268960Y494990D01*
X-268488Y494809D01*
X-268124Y494458D01*
X-268011Y494195D01*
X-258812Y480401D01*
X-257574Y480154D01*
X-254429Y482252D01*
X-253744Y482465D01*
X-253247Y482372D01*
X-252826Y482093D01*
X-243447Y472714D01*
X-173091Y472714D01*
X-172609Y472619D01*
X-172189Y472338D01*
X-171911Y471916D01*
X-169756Y466528D01*
X-169666Y466096D01*
X-169751Y465598D01*
X-170023Y465172D01*
X-170440Y464887D01*
X-170936Y464786D01*
X-274777Y464786D01*
X-275254Y464879D01*
X-275675Y465158D01*
X-276334Y465817D01*
X-276675Y466438D01*
X-276685Y466944D01*
X-276533Y467322D01*
X-276243Y468776D01*
X-285266Y482306D01*
X-286504Y482553D01*
X-295042Y476859D01*
X-295289Y475621D01*
X-286266Y462091D01*
X-285028Y461844D01*
X-282174Y463747D01*
X-281490Y463961D01*
X-280993Y463868D01*
X-280572Y463589D01*
X-277197Y460214D01*
X-237712Y460214D01*
X-237048Y460027D01*
X-236678Y459682D01*
X-236472Y459220D01*
X-236462Y458715D01*
X-236651Y458246D01*
X-237007Y457887D01*
X-241314Y455015D01*
X-241726Y452952D01*
X-239478Y449580D01*
X-227764Y457393D01*
X-228329Y458239D01*
X-228541Y458904D01*
X-228457Y459402D01*
X-228184Y459828D01*
X-227767Y460113D01*
X-227272Y460214D01*
X-171163Y460214D01*
X-170695Y460125D01*
X-170272Y459849D01*
X-169989Y459430D01*
X-169498Y458244D01*
X-168006Y456752D01*
X-166056Y455944D01*
X-163945Y455944D01*
X-161994Y456752D01*
X-160502Y458244D01*
X-159694Y460195D01*
X-159694Y461547D01*
X-159601Y462024D01*
X-159322Y462445D01*
X-153964Y467803D01*
X-153964Y487197D01*
X-155303Y488536D01*
X-195356Y488536D01*
X-195795Y488614D01*
X-196225Y488880D01*
X-196517Y489292D01*
X-196626Y489786D01*
X-196533Y490283D01*
X-196254Y490704D01*
X-195520Y491438D01*
X-194141Y494768D01*
X-194141Y498372D01*
X-195062Y500597D01*
X-195158Y501062D01*
X-195066Y501559D01*
X-194787Y501981D01*
X-190675Y506092D01*
X-190272Y506363D01*
X-189777Y506464D01*
X-122413Y506464D01*
X-121945Y506375D01*
X-121522Y506099D01*
X-121239Y505680D01*
X-120748Y504494D01*
X-119256Y503002D01*
X-117306Y502194D01*
X-115130Y502194D01*
X-114793Y502264D01*
X-114296Y502171D01*
X-113875Y501892D01*
X-110947Y498964D01*
X-78796Y498964D01*
X-78338Y498879D01*
X-77913Y498606D01*
X-77627Y498189D01*
X-77526Y497694D01*
X-77526Y492416D01*
X-76633Y491523D01*
X-66371Y491523D01*
X-65478Y492416D01*
X-65478Y508679D01*
X-66371Y509571D01*
X-76633Y509571D01*
X-77526Y508679D01*
X-77526Y504806D01*
X-77612Y504348D01*
X-77884Y503922D01*
X-78301Y503637D01*
X-78796Y503536D01*
X-108527Y503536D01*
X-109004Y503629D01*
X-109425Y503908D01*
X-110642Y505125D01*
X-110909Y505518D01*
X-111014Y506013D01*
X-110944Y506372D01*
X-110944Y508556D01*
X-111752Y510506D01*
X-113244Y511998D01*
X-114334Y512450D01*
X-114717Y512697D01*
X-115010Y513109D01*
X-115118Y513603D01*
X-115025Y514100D01*
X-114746Y514521D01*
X-105403Y523865D01*
X-105019Y524128D01*
X-104525Y524236D01*
X-104028Y524144D01*
X-103607Y523865D01*
X-102922Y523180D01*
X-99592Y521801D01*
X-95988Y521801D01*
X-92658Y523180D01*
X-90110Y525728D01*
X-89094Y528180D01*
X-88833Y528578D01*
X-88416Y528863D01*
X-87921Y528964D01*
X3447Y528964D01*
X7986Y533503D01*
X8379Y533771D01*
X8874Y533875D01*
X9370Y533778D01*
X10898Y533146D01*
X14502Y533146D01*
X16631Y534027D01*
X17097Y534124D01*
X17594Y534031D01*
X18015Y533752D01*
X34053Y517714D01*
X88998Y517714D01*
X89446Y517632D01*
X89874Y517363D01*
X90164Y516949D01*
X90268Y516454D01*
X90171Y515958D01*
X89694Y514805D01*
X89694Y512695D01*
X90502Y510744D01*
X91994Y509252D01*
X93945Y508444D01*
X96056Y508444D01*
X98006Y509252D01*
X99544Y510790D01*
X99733Y511078D01*
X100150Y511363D01*
X100645Y511464D01*
X111027Y511464D01*
X111504Y511371D01*
X111925Y511092D01*
X134706Y488311D01*
X134954Y487962D01*
X135077Y487472D01*
X134999Y486972D01*
X132430Y480026D01*
X132958Y478879D01*
X142583Y475319D01*
X143730Y475846D01*
X149372Y491099D01*
X148844Y492246D01*
X139219Y495806D01*
X138072Y495279D01*
X137715Y494314D01*
X137450Y493886D01*
X137038Y493593D01*
X136544Y493485D01*
X136048Y493578D01*
X135626Y493857D01*
X113937Y515546D01*
X113682Y515912D01*
X113566Y516404D01*
X113650Y516902D01*
X113923Y517328D01*
X114340Y517613D01*
X114835Y517714D01*
X117197Y517714D01*
X121830Y522347D01*
X122223Y522614D01*
X122718Y522719D01*
X123214Y522622D01*
X125198Y521801D01*
X128802Y521801D01*
X132132Y523180D01*
X134680Y525728D01*
X136060Y529058D01*
X136060Y532662D01*
X134680Y535992D01*
X133876Y536796D01*
X133621Y537162D01*
X133505Y537654D01*
X133590Y538152D01*
X133862Y538578D01*
X134279Y538863D01*
X134774Y538964D01*
X147277Y538964D01*
X147754Y538871D01*
X148175Y538592D01*
X151921Y534847D01*
X152168Y534498D01*
X152291Y534007D01*
X152214Y533508D01*
X149430Y525983D01*
X149957Y524836D01*
X159583Y521275D01*
X160730Y521803D01*
X166549Y537535D01*
X166774Y537918D01*
X167172Y538230D01*
X167660Y538362D01*
X168160Y538293D01*
X185823Y532098D01*
X186228Y531865D01*
X186539Y531466D01*
X186670Y530978D01*
X186601Y530478D01*
X186342Y530044D01*
X186034Y529819D01*
X180380Y514534D01*
X180908Y513387D01*
X186885Y511176D01*
X187328Y510897D01*
X187613Y510480D01*
X187714Y509985D01*
X187714Y494053D01*
X231665Y450102D01*
X231857Y449856D01*
X232025Y449379D01*
X231994Y448874D01*
X231768Y448422D01*
X228324Y444014D01*
X228478Y442761D01*
X236565Y436443D01*
X237818Y436597D01*
X247830Y449412D01*
X247676Y450665D01*
X239589Y456983D01*
X238336Y456829D01*
X236179Y454069D01*
X235692Y453689D01*
X235199Y453581D01*
X234702Y453673D01*
X234281Y453952D01*
X204605Y483628D01*
X204355Y483984D01*
X204234Y484475D01*
X204315Y484974D01*
X204584Y485402D01*
X204999Y485691D01*
X205493Y485796D01*
X205989Y485699D01*
X207748Y484971D01*
X211352Y484971D01*
X214682Y486350D01*
X217230Y488898D01*
X218610Y492228D01*
X218610Y495832D01*
X217230Y499162D01*
X214682Y501710D01*
X211352Y503090D01*
X207748Y503090D01*
X204418Y501710D01*
X201870Y499162D01*
X200491Y495832D01*
X200491Y492228D01*
X201219Y490469D01*
X201314Y490044D01*
X201237Y489544D01*
X200972Y489114D01*
X200560Y488822D01*
X200066Y488713D01*
X199569Y488806D01*
X199148Y489085D01*
X192658Y495575D01*
X192387Y495978D01*
X192286Y496473D01*
X192286Y511765D01*
X192365Y512206D01*
X197322Y525606D01*
X197225Y525818D01*
X197114Y526227D01*
X197167Y526730D01*
X197412Y527172D01*
X197810Y527484D01*
X198298Y527616D01*
X198799Y527547D01*
X208165Y524261D01*
X208262Y524223D01*
X250138Y505583D01*
X250230Y505537D01*
X267249Y496234D01*
X267730Y495771D01*
X267898Y495294D01*
X267867Y494790D01*
X267641Y494337D01*
X258491Y482627D01*
X258645Y481374D01*
X266732Y475055D01*
X267985Y475209D01*
X270313Y478189D01*
X270800Y478568D01*
X271294Y478677D01*
X271791Y478584D01*
X272212Y478305D01*
X274053Y476464D01*
X292950Y476464D01*
X293241Y476430D01*
X293700Y476219D01*
X294040Y475846D01*
X294208Y475369D01*
X294177Y474864D01*
X293951Y474412D01*
X284496Y462310D01*
X284650Y461057D01*
X288476Y458067D01*
X288863Y457562D01*
X288964Y457067D01*
X288964Y455645D01*
X288875Y455178D01*
X288599Y454754D01*
X288296Y454550D01*
X286752Y453006D01*
X285944Y451056D01*
X285944Y448945D01*
X286752Y446994D01*
X288244Y445502D01*
X289334Y445050D01*
X289717Y444803D01*
X290010Y444391D01*
X290118Y443897D01*
X290025Y443400D01*
X289746Y442979D01*
X276809Y430042D01*
X276580Y429861D01*
X276106Y429685D01*
X275601Y429709D01*
X275145Y429927D01*
X274811Y430306D01*
X274651Y430785D01*
X274638Y430890D01*
X273809Y431537D01*
X264857Y420080D01*
X255763Y427184D01*
X253269Y423991D01*
X253525Y421903D01*
X256528Y419557D01*
X256899Y419088D01*
X257015Y418596D01*
X256931Y418098D01*
X256658Y417672D01*
X256241Y417387D01*
X255746Y417286D01*
X-144697Y417286D01*
X-158767Y403216D01*
X-159170Y402945D01*
X-159665Y402844D01*
X-174539Y402844D01*
X-177900Y401452D01*
X-180472Y398880D01*
X-181864Y395519D01*
X-181864Y391881D01*
X-180472Y388520D01*
X-177865Y385914D01*
X-177602Y385530D01*
X-177493Y385036D01*
X-177586Y384539D01*
X-177865Y384118D01*
X-214325Y347658D01*
X-214728Y347387D01*
G37*
%LPC*%
G36*
X8945Y494694D02*
X11056Y494694D01*
X13006Y495502D01*
X14544Y497040D01*
X14733Y497328D01*
X15150Y497613D01*
X15645Y497714D01*
X27040Y497714D01*
X27289Y497689D01*
X37834Y495582D01*
X38885Y496283D01*
X42071Y512230D01*
X41371Y513280D01*
X31307Y515291D01*
X30257Y514591D01*
X28002Y503307D01*
X27669Y502672D01*
X27252Y502387D01*
X26757Y502286D01*
X15645Y502286D01*
X15178Y502375D01*
X14754Y502651D01*
X14550Y502954D01*
X13006Y504498D01*
X11056Y505306D01*
X8945Y505306D01*
X6994Y504498D01*
X5502Y503006D01*
X4694Y501056D01*
X4694Y498945D01*
X5502Y496994D01*
X6994Y495502D01*
X8945Y494694D01*
G37*
G36*
X-45542Y505047D02*
X-43002Y505047D01*
X-43002Y510587D01*
X-44054Y510587D01*
X-45542Y509100D01*
X-45542Y505047D01*
G37*
G36*
X-34002Y505047D02*
X-31462Y505047D01*
X-31462Y509100D01*
X-32950Y510587D01*
X-34002Y510587D01*
X-34002Y505047D01*
G37*
G36*
X60909Y504763D02*
X63400Y504265D01*
X64486Y509698D01*
X63454Y509904D01*
X61703Y508736D01*
X60909Y504763D01*
G37*
G36*
X72226Y502502D02*
X74716Y502004D01*
X75510Y505977D01*
X74343Y507728D01*
X73311Y507934D01*
X72226Y502502D01*
G37*
G36*
X233148Y484971D02*
X236752Y484971D01*
X240082Y486350D01*
X242630Y488898D01*
X244010Y492228D01*
X244010Y495832D01*
X242630Y499162D01*
X240082Y501710D01*
X236752Y503090D01*
X233148Y503090D01*
X229818Y501710D01*
X227270Y499162D01*
X225891Y495832D01*
X225891Y492228D01*
X227270Y488898D01*
X229818Y486350D01*
X233148Y484971D01*
G37*
G36*
X-44054Y490507D02*
X-43002Y490507D01*
X-43002Y496047D01*
X-45542Y496047D01*
X-45542Y491995D01*
X-44054Y490507D01*
G37*
G36*
X-34002Y490507D02*
X-32950Y490507D01*
X-31462Y491995D01*
X-31462Y496047D01*
X-34002Y496047D01*
X-34002Y490507D01*
G37*
G36*
X59519Y490213D02*
X60551Y490007D01*
X61637Y495440D01*
X59146Y495937D01*
X58352Y491964D01*
X59519Y490213D01*
G37*
G36*
X-145653Y492391D02*
X-144149Y488628D01*
X-141790Y489572D01*
X-143848Y494716D01*
X-144824Y494325D01*
X-145653Y492391D01*
G37*
G36*
X69377Y488243D02*
X70408Y488037D01*
X72159Y489205D01*
X72953Y493178D01*
X70462Y493676D01*
X69377Y488243D01*
G37*
G36*
X166810Y480776D02*
X169192Y479895D01*
X171114Y485091D01*
X170127Y485456D01*
X168216Y484577D01*
X166810Y480776D01*
G37*
G36*
X177633Y476773D02*
X180015Y475892D01*
X181421Y479692D01*
X180542Y481604D01*
X179555Y481969D01*
X177633Y476773D01*
G37*
G36*
X163161Y466623D02*
X164147Y466258D01*
X166069Y471454D01*
X163687Y472335D01*
X162281Y468535D01*
X163161Y466623D01*
G37*
G36*
X172588Y463136D02*
X173575Y462771D01*
X175487Y463650D01*
X176893Y467451D01*
X174510Y468332D01*
X172588Y463136D01*
G37*
G36*
X-224884Y448496D02*
X-221810Y443887D01*
X-220934Y444471D01*
X-220522Y446534D01*
X-222770Y449905D01*
X-224884Y448496D01*
G37*
G36*
X-232236Y438722D02*
X-230173Y438309D01*
X-229297Y438893D01*
X-232371Y443502D01*
X-234484Y442093D01*
X-232236Y438722D01*
G37*
G36*
X261304Y434276D02*
X263306Y432713D01*
X266717Y437078D01*
X265888Y437726D01*
X263799Y437470D01*
X261304Y434276D01*
G37*
G36*
X-320577Y405509D02*
X-316659Y401592D01*
X-314863Y403388D01*
X-317729Y406253D01*
X-319833Y406253D01*
X-320577Y405509D01*
G37*
G36*
X-327685Y396297D02*
X-324819Y393432D01*
X-323023Y395228D01*
X-326941Y399145D01*
X-327685Y398401D01*
X-327685Y396297D01*
G37*
%LPD*%
G36*
X325272Y164887D02*
X324777Y164786D01*
X233585Y164786D01*
X233146Y164864D01*
X232716Y165130D01*
X232424Y165542D01*
X232315Y166036D01*
X232408Y166533D01*
X232687Y166954D01*
X391796Y326063D01*
X392162Y326318D01*
X392654Y326434D01*
X393152Y326350D01*
X393578Y326077D01*
X393863Y325660D01*
X393964Y325165D01*
X393964Y317376D01*
X393776Y316712D01*
X393432Y316342D01*
X387075Y311808D01*
X386866Y310563D01*
X392826Y302208D01*
X394071Y302000D01*
X407310Y311443D01*
X407519Y312689D01*
X401559Y321043D01*
X400144Y321280D01*
X399846Y321180D01*
X399348Y321265D01*
X398922Y321537D01*
X398637Y321954D01*
X398536Y322449D01*
X398536Y335605D01*
X398625Y336072D01*
X398901Y336496D01*
X399204Y336701D01*
X400748Y338244D01*
X401556Y340195D01*
X401556Y342306D01*
X400748Y344256D01*
X399256Y345748D01*
X397306Y346556D01*
X395792Y346556D01*
X395371Y346629D01*
X394042Y346079D01*
X393596Y345983D01*
X393098Y346067D01*
X392672Y346340D01*
X392387Y346757D01*
X392286Y347252D01*
X392286Y347811D01*
X392371Y348268D01*
X392644Y348694D01*
X393061Y348980D01*
X393556Y349081D01*
X394905Y349081D01*
X395325Y349007D01*
X398832Y350460D01*
X401380Y353008D01*
X402760Y356338D01*
X402760Y359942D01*
X401380Y363272D01*
X398832Y365820D01*
X395502Y367200D01*
X391898Y367200D01*
X388568Y365820D01*
X386020Y363272D01*
X384641Y359942D01*
X384641Y356338D01*
X386020Y353008D01*
X387342Y351686D01*
X387613Y351283D01*
X387714Y350788D01*
X387714Y328973D01*
X387621Y328496D01*
X387342Y328075D01*
X239404Y180137D01*
X239038Y179882D01*
X238546Y179766D01*
X238048Y179850D01*
X237622Y180123D01*
X237337Y180540D01*
X237236Y181035D01*
X237236Y197399D01*
X235844Y200760D01*
X233272Y203332D01*
X229911Y204724D01*
X226273Y204724D01*
X222912Y203332D01*
X220340Y200760D01*
X218948Y197399D01*
X218948Y178521D01*
X220340Y175160D01*
X222912Y172588D01*
X226273Y171196D01*
X227397Y171196D01*
X227836Y171118D01*
X228266Y170852D01*
X228558Y170440D01*
X228667Y169946D01*
X228574Y169449D01*
X228295Y169028D01*
X228175Y168908D01*
X227772Y168637D01*
X227277Y168536D01*
X147511Y168536D01*
X147072Y168614D01*
X146642Y168880D01*
X146350Y169292D01*
X146241Y169786D01*
X146334Y170283D01*
X146613Y170704D01*
X148098Y172189D01*
X149606Y175830D01*
X149606Y179770D01*
X148098Y183411D01*
X145311Y186198D01*
X141670Y187706D01*
X139005Y187706D01*
X138566Y187784D01*
X138136Y188050D01*
X137844Y188462D01*
X137735Y188956D01*
X137828Y189453D01*
X138107Y189874D01*
X196036Y247803D01*
X196036Y320743D01*
X196118Y321191D01*
X196387Y321619D01*
X196596Y321765D01*
X196596Y337381D01*
X196422Y337492D01*
X196137Y337909D01*
X196036Y338404D01*
X196036Y345576D01*
X196121Y346033D01*
X196394Y346459D01*
X196811Y346745D01*
X197306Y346846D01*
X210435Y346846D01*
X211328Y347738D01*
X211328Y362209D01*
X210435Y363102D01*
X197306Y363102D01*
X196848Y363187D01*
X196422Y363459D01*
X196137Y363876D01*
X196036Y364372D01*
X196036Y407694D01*
X196121Y408152D01*
X196394Y408578D01*
X196811Y408863D01*
X197306Y408964D01*
X283447Y408964D01*
X290479Y415996D01*
X290854Y416255D01*
X291347Y416368D01*
X291844Y416279D01*
X292268Y416003D01*
X292550Y415584D01*
X293002Y414494D01*
X294494Y413002D01*
X296445Y412194D01*
X298620Y412194D01*
X298957Y412264D01*
X299454Y412171D01*
X299875Y411892D01*
X320522Y391245D01*
X320804Y390816D01*
X320894Y390319D01*
X320782Y389826D01*
X320487Y389415D01*
X317334Y386495D01*
X317285Y385234D01*
X324258Y377704D01*
X325519Y377655D01*
X337452Y388705D01*
X337500Y389966D01*
X330527Y397496D01*
X329266Y397545D01*
X325709Y394251D01*
X325360Y394022D01*
X324866Y393913D01*
X324369Y394006D01*
X323948Y394285D01*
X303108Y415125D01*
X302841Y415518D01*
X302736Y416013D01*
X302806Y416372D01*
X302806Y418556D01*
X301998Y420506D01*
X300506Y421998D01*
X299416Y422450D01*
X299033Y422697D01*
X298741Y423109D01*
X298632Y423603D01*
X298725Y424100D01*
X299004Y424521D01*
X302125Y427642D01*
X302518Y427909D01*
X303013Y428014D01*
X303509Y427917D01*
X306808Y426551D01*
X310412Y426551D01*
X313742Y427930D01*
X316290Y430478D01*
X317670Y433808D01*
X317670Y437412D01*
X316290Y440742D01*
X313742Y443290D01*
X310412Y444670D01*
X306808Y444670D01*
X303478Y443290D01*
X300930Y440742D01*
X299551Y437412D01*
X299551Y433808D01*
X299892Y432984D01*
X299988Y432518D01*
X299896Y432021D01*
X299617Y431600D01*
X281925Y413908D01*
X281522Y413637D01*
X281027Y413536D01*
X269835Y413536D01*
X269396Y413614D01*
X268966Y413880D01*
X268674Y414292D01*
X268565Y414786D01*
X268658Y415283D01*
X268937Y415704D01*
X311825Y458592D01*
X312228Y458863D01*
X312723Y458964D01*
X321027Y458964D01*
X321504Y458871D01*
X321925Y458592D01*
X333680Y446838D01*
X333935Y446472D01*
X334051Y445980D01*
X333966Y445482D01*
X333694Y445056D01*
X333277Y444770D01*
X332782Y444670D01*
X332208Y444670D01*
X328878Y443290D01*
X326330Y440742D01*
X324951Y437412D01*
X324951Y433808D01*
X326330Y430478D01*
X328878Y427930D01*
X332208Y426551D01*
X335812Y426551D01*
X339142Y427930D01*
X341690Y430478D01*
X343070Y433808D01*
X343070Y434382D01*
X343148Y434820D01*
X343413Y435251D01*
X343826Y435543D01*
X344319Y435651D01*
X344816Y435559D01*
X345238Y435280D01*
X356218Y424300D01*
X356500Y423871D01*
X356589Y423373D01*
X356478Y422880D01*
X356182Y422470D01*
X353286Y419788D01*
X353238Y418526D01*
X360211Y410996D01*
X360243Y410995D01*
X360652Y410911D01*
X361078Y410638D01*
X361363Y410221D01*
X361464Y409726D01*
X361464Y392803D01*
X380303Y373964D01*
X413527Y373964D01*
X414004Y373871D01*
X414425Y373592D01*
X418650Y369368D01*
X418905Y369002D01*
X419021Y368510D01*
X418936Y368012D01*
X418664Y367586D01*
X418247Y367300D01*
X417752Y367200D01*
X417298Y367200D01*
X413968Y365820D01*
X411420Y363272D01*
X410041Y359942D01*
X410041Y356338D01*
X411420Y353008D01*
X413968Y350460D01*
X417298Y349081D01*
X420902Y349081D01*
X424232Y350460D01*
X426780Y353008D01*
X428160Y356338D01*
X428160Y356792D01*
X428238Y357230D01*
X428503Y357661D01*
X428916Y357953D01*
X429409Y358061D01*
X429906Y357969D01*
X430328Y357690D01*
X433592Y354425D01*
X433863Y354022D01*
X433964Y353527D01*
X433964Y345908D01*
X433776Y345244D01*
X433432Y344874D01*
X426966Y340263D01*
X426758Y339017D01*
X432717Y330662D01*
X434154Y330422D01*
X434402Y330354D01*
X434828Y330082D01*
X435113Y329665D01*
X435214Y329170D01*
X435214Y315303D01*
X450303Y300214D01*
X457694Y300214D01*
X458152Y300129D01*
X458578Y299856D01*
X458863Y299439D01*
X458964Y298944D01*
X458964Y287164D01*
X458886Y286725D01*
X458620Y286295D01*
X458208Y286003D01*
X457714Y285894D01*
X457217Y285987D01*
X456796Y286266D01*
X455982Y287080D01*
X452652Y288460D01*
X449048Y288460D01*
X445718Y287080D01*
X443170Y284532D01*
X441938Y281557D01*
X441662Y281145D01*
X325675Y165158D01*
X325272Y164887D01*
G37*
%LPC*%
G36*
X348333Y371610D02*
X350058Y369746D01*
X354123Y373510D01*
X353408Y374282D01*
X351306Y374363D01*
X348333Y371610D01*
G37*
G36*
X356173Y363143D02*
X357899Y361279D01*
X360872Y364032D01*
X360953Y366135D01*
X360238Y366907D01*
X356173Y363143D01*
G37*
G36*
X338675Y360639D02*
X339390Y359867D01*
X343455Y363631D01*
X341729Y365495D01*
X338756Y362742D01*
X338675Y360639D01*
G37*
G36*
X200873Y171196D02*
X204511Y171196D01*
X207872Y172588D01*
X210444Y175160D01*
X211836Y178521D01*
X211836Y197399D01*
X210444Y200760D01*
X207872Y203332D01*
X206820Y203768D01*
X206422Y204029D01*
X206137Y204446D01*
X206036Y204941D01*
X206036Y277277D01*
X206129Y277754D01*
X206408Y278175D01*
X275271Y347038D01*
X275664Y347305D01*
X276159Y347410D01*
X276655Y347313D01*
X277783Y346846D01*
X281017Y346846D01*
X284004Y348083D01*
X286291Y350369D01*
X287528Y353357D01*
X287528Y356590D01*
X286291Y359578D01*
X284004Y361864D01*
X281017Y363102D01*
X277783Y363102D01*
X274796Y361864D01*
X272509Y359578D01*
X271272Y356590D01*
X271272Y353357D01*
X272075Y351417D01*
X272172Y350951D01*
X272079Y350454D01*
X271800Y350033D01*
X201464Y279697D01*
X201464Y205817D01*
X201375Y205350D01*
X201099Y204926D01*
X200680Y204644D01*
X197512Y203332D01*
X194940Y200760D01*
X193548Y197399D01*
X193548Y178521D01*
X194940Y175160D01*
X197512Y172588D01*
X200873Y171196D01*
G37*
G36*
X346220Y352492D02*
X348323Y352411D01*
X351296Y355164D01*
X349570Y357028D01*
X345505Y353264D01*
X346220Y352492D01*
G37*
G36*
X277783Y321446D02*
X281017Y321446D01*
X284004Y322683D01*
X286291Y324969D01*
X287528Y327957D01*
X287528Y331190D01*
X286291Y334178D01*
X284004Y336464D01*
X281017Y337702D01*
X277783Y337702D01*
X274796Y336464D01*
X272509Y334178D01*
X271272Y331190D01*
X271272Y327957D01*
X272509Y324969D01*
X274796Y322683D01*
X277783Y321446D01*
G37*
G36*
X415931Y293104D02*
X417406Y291037D01*
X421916Y294254D01*
X421305Y295110D01*
X419230Y295457D01*
X415931Y293104D01*
G37*
G36*
X404958Y283450D02*
X405569Y282593D01*
X410079Y285810D01*
X408604Y287878D01*
X405305Y285525D01*
X404958Y283450D01*
G37*
G36*
X422632Y283710D02*
X424107Y281642D01*
X427406Y283995D01*
X427754Y286070D01*
X427143Y286927D01*
X422632Y283710D01*
G37*
G36*
X411406Y274410D02*
X413482Y274062D01*
X416780Y276415D01*
X415305Y278483D01*
X410795Y275266D01*
X411406Y274410D01*
G37*
%LPD*%
G36*
X-234728Y-26363D02*
X-235223Y-26464D01*
X-378527Y-26464D01*
X-379004Y-26371D01*
X-379425Y-26092D01*
X-380642Y-24875D01*
X-380909Y-24482D01*
X-381014Y-23987D01*
X-380944Y-23628D01*
X-380944Y-21445D01*
X-381421Y-20292D01*
X-381517Y-19846D01*
X-381433Y-19348D01*
X-381160Y-18922D01*
X-380743Y-18637D01*
X-380248Y-18536D01*
X-332803Y-18536D01*
X-304875Y9392D01*
X-304482Y9659D01*
X-303987Y9764D01*
X-303628Y9694D01*
X-301445Y9694D01*
X-299494Y10502D01*
X-298002Y11994D01*
X-297194Y13945D01*
X-297194Y16056D01*
X-298002Y18006D01*
X-299494Y19498D01*
X-301445Y20306D01*
X-303556Y20306D01*
X-305506Y19498D01*
X-307104Y17900D01*
X-307178Y17785D01*
X-307590Y17493D01*
X-308084Y17384D01*
X-308581Y17477D01*
X-309002Y17756D01*
X-309494Y18248D01*
X-310584Y18700D01*
X-310967Y18947D01*
X-311260Y19359D01*
X-311368Y19853D01*
X-311275Y20350D01*
X-310996Y20771D01*
X-301125Y30642D01*
X-300732Y30909D01*
X-300237Y31014D01*
X-299878Y30944D01*
X-297695Y30944D01*
X-295744Y31752D01*
X-294252Y33244D01*
X-293444Y35195D01*
X-293444Y37306D01*
X-294252Y39256D01*
X-295744Y40748D01*
X-297695Y41556D01*
X-299806Y41556D01*
X-301756Y40748D01*
X-303248Y39256D01*
X-304056Y37306D01*
X-304056Y35130D01*
X-303986Y34793D01*
X-304079Y34296D01*
X-304358Y33875D01*
X-321825Y16408D01*
X-322228Y16137D01*
X-322723Y16036D01*
X-369644Y16036D01*
X-370083Y16114D01*
X-370513Y16380D01*
X-370806Y16792D01*
X-370914Y17286D01*
X-370821Y17783D01*
X-370542Y18204D01*
X-369252Y19494D01*
X-368444Y21445D01*
X-368444Y23556D01*
X-369252Y25506D01*
X-370744Y26998D01*
X-372695Y27806D01*
X-374806Y27806D01*
X-376756Y26998D01*
X-377346Y26408D01*
X-377749Y26137D01*
X-378244Y26036D01*
X-493447Y26036D01*
X-502625Y16858D01*
X-503018Y16591D01*
X-503513Y16486D01*
X-503872Y16556D01*
X-506056Y16556D01*
X-508006Y15748D01*
X-509498Y14256D01*
X-509989Y13070D01*
X-510250Y12672D01*
X-510667Y12387D01*
X-511163Y12286D01*
X-543447Y12286D01*
X-547609Y8123D01*
X-548003Y7856D01*
X-548497Y7752D01*
X-548993Y7848D01*
X-551918Y9060D01*
X-555522Y9060D01*
X-558852Y7680D01*
X-559296Y7236D01*
X-559662Y6981D01*
X-560154Y6865D01*
X-560652Y6950D01*
X-561078Y7222D01*
X-561363Y7639D01*
X-561464Y8134D01*
X-561464Y21027D01*
X-561371Y21504D01*
X-561092Y21925D01*
X-553144Y29874D01*
X-552741Y30145D01*
X-552246Y30246D01*
X-541716Y30246D01*
X-540824Y31138D01*
X-540824Y41667D01*
X-540731Y42144D01*
X-540452Y42565D01*
X-518625Y64392D01*
X-518232Y64659D01*
X-517737Y64764D01*
X-517378Y64694D01*
X-515195Y64694D01*
X-513244Y65502D01*
X-513056Y65691D01*
X-512690Y65946D01*
X-512198Y66062D01*
X-511700Y65977D01*
X-511274Y65705D01*
X-510988Y65288D01*
X-510888Y64793D01*
X-510888Y63717D01*
X-509400Y62230D01*
X-505348Y62230D01*
X-505348Y73770D01*
X-490170Y73770D01*
X-490033Y73863D01*
X-489538Y73964D01*
X-459090Y73964D01*
X-458652Y73886D01*
X-458222Y73620D01*
X-457929Y73208D01*
X-457821Y72714D01*
X-457913Y72217D01*
X-458192Y71796D01*
X-458868Y71120D01*
X-430132Y71120D01*
X-430808Y71796D01*
X-431063Y72162D01*
X-431179Y72654D01*
X-431094Y73152D01*
X-430822Y73578D01*
X-430405Y73863D01*
X-429910Y73964D01*
X-388973Y73964D01*
X-388496Y73871D01*
X-388075Y73592D01*
X-382197Y67714D01*
X-375303Y67714D01*
X-370214Y72803D01*
X-370214Y97665D01*
X-370136Y98104D01*
X-369870Y98534D01*
X-369458Y98826D01*
X-368964Y98935D01*
X-368467Y98842D01*
X-368046Y98563D01*
X-365608Y96125D01*
X-365341Y95732D01*
X-365236Y95237D01*
X-365306Y94878D01*
X-365306Y92695D01*
X-364498Y90744D01*
X-363006Y89252D01*
X-361056Y88444D01*
X-358945Y88444D01*
X-356994Y89252D01*
X-355502Y90744D01*
X-354694Y92695D01*
X-354694Y94674D01*
X-354609Y95132D01*
X-354336Y95558D01*
X-353919Y95843D01*
X-353424Y95944D01*
X-352695Y95944D01*
X-350744Y96752D01*
X-349252Y98244D01*
X-348444Y100195D01*
X-348444Y102306D01*
X-349252Y104256D01*
X-350744Y105748D01*
X-352695Y106556D01*
X-354870Y106556D01*
X-355207Y106486D01*
X-355704Y106579D01*
X-356125Y106858D01*
X-367803Y118536D01*
X-373466Y118536D01*
X-373905Y118614D01*
X-374335Y118880D01*
X-374628Y119292D01*
X-374736Y119786D01*
X-374644Y120283D01*
X-374364Y120704D01*
X-373248Y121820D01*
X-371856Y125181D01*
X-371856Y128819D01*
X-373248Y132180D01*
X-375820Y134752D01*
X-379181Y136144D01*
X-382819Y136144D01*
X-386180Y134752D01*
X-388752Y132180D01*
X-390144Y128819D01*
X-390144Y127693D01*
X-390222Y127254D01*
X-390488Y126824D01*
X-390900Y126532D01*
X-391394Y126423D01*
X-391891Y126516D01*
X-392312Y126795D01*
X-421892Y156375D01*
X-422159Y156768D01*
X-422264Y157263D01*
X-422194Y157622D01*
X-422194Y159806D01*
X-423002Y161756D01*
X-424494Y163248D01*
X-426445Y164056D01*
X-428556Y164056D01*
X-430506Y163248D01*
X-431998Y161756D01*
X-432450Y160666D01*
X-432697Y160283D01*
X-433109Y159991D01*
X-433603Y159882D01*
X-434100Y159975D01*
X-434521Y160254D01*
X-451892Y177625D01*
X-452159Y178018D01*
X-452264Y178513D01*
X-452194Y178872D01*
X-452194Y181056D01*
X-453002Y183006D01*
X-454494Y184498D01*
X-456445Y185306D01*
X-458556Y185306D01*
X-460506Y184498D01*
X-461998Y183006D01*
X-462806Y181056D01*
X-462806Y178945D01*
X-461998Y176994D01*
X-460506Y175502D01*
X-458556Y174694D01*
X-456380Y174694D01*
X-456043Y174764D01*
X-455546Y174671D01*
X-455125Y174392D01*
X-390947Y110214D01*
X-380223Y110214D01*
X-379746Y110121D01*
X-379325Y109842D01*
X-375187Y105704D01*
X-374932Y105338D01*
X-374816Y104846D01*
X-374900Y104348D01*
X-375173Y103922D01*
X-375590Y103637D01*
X-376085Y103536D01*
X-457277Y103536D01*
X-457754Y103629D01*
X-458175Y103908D01*
X-476386Y122119D01*
X-476724Y122722D01*
X-476741Y123227D01*
X-475373Y131404D01*
X-476106Y132432D01*
X-492145Y135116D01*
X-493173Y134383D01*
X-494867Y124261D01*
X-494134Y123233D01*
X-482324Y121257D01*
X-482057Y121182D01*
X-481635Y120902D01*
X-459697Y98964D01*
X-376056Y98964D01*
X-375598Y98879D01*
X-375172Y98606D01*
X-374887Y98189D01*
X-374786Y97694D01*
X-374786Y82856D01*
X-374864Y82417D01*
X-375130Y81987D01*
X-375542Y81695D01*
X-376036Y81586D01*
X-376533Y81679D01*
X-376954Y81958D01*
X-376994Y81998D01*
X-378945Y82806D01*
X-381120Y82806D01*
X-381457Y82736D01*
X-381954Y82829D01*
X-382375Y83108D01*
X-392803Y93536D01*
X-511169Y93536D01*
X-511608Y93614D01*
X-512038Y93880D01*
X-512330Y94292D01*
X-512438Y94786D01*
X-512346Y95283D01*
X-512067Y95704D01*
X-510734Y97036D01*
X-509355Y100366D01*
X-509355Y100410D01*
X-509273Y100858D01*
X-509004Y101286D01*
X-508590Y101575D01*
X-508095Y101680D01*
X-507599Y101583D01*
X-506056Y100944D01*
X-503945Y100944D01*
X-501994Y101752D01*
X-500502Y103244D01*
X-499694Y105195D01*
X-499694Y107306D01*
X-500502Y109256D01*
X-501994Y110748D01*
X-503945Y111556D01*
X-506120Y111556D01*
X-506457Y111486D01*
X-506954Y111579D01*
X-507375Y111858D01*
X-524859Y129342D01*
X-525196Y129945D01*
X-525214Y130450D01*
X-523701Y139492D01*
X-524044Y139973D01*
X-524172Y140197D01*
X-524280Y140690D01*
X-524188Y141187D01*
X-523908Y141609D01*
X-516925Y148592D01*
X-516522Y148863D01*
X-516027Y148964D01*
X-504053Y148964D01*
X-492099Y160919D01*
X-491535Y161246D01*
X-491031Y161279D01*
X-490554Y161113D01*
X-490179Y160774D01*
X-489965Y160316D01*
X-489948Y159811D01*
X-490492Y156561D01*
X-489270Y154848D01*
X-485273Y154179D01*
X-482910Y168300D01*
X-483184Y168685D01*
X-483292Y169179D01*
X-483199Y169675D01*
X-482920Y170097D01*
X-443964Y209053D01*
X-443964Y233851D01*
X-443840Y234399D01*
X-443535Y234802D01*
X-443097Y235055D01*
X-442596Y235117D01*
X-442110Y234978D01*
X-438675Y233198D01*
X-436670Y233834D01*
X-436186Y234768D01*
X-449094Y241460D01*
X-444953Y249450D01*
X-432044Y242759D01*
X-431560Y243693D01*
X-432196Y245698D01*
X-438693Y249066D01*
X-438963Y249254D01*
X-439262Y249662D01*
X-439378Y250154D01*
X-439294Y250652D01*
X-439021Y251078D01*
X-438604Y251363D01*
X-438109Y251464D01*
X-396553Y251464D01*
X-395214Y252803D01*
X-395214Y298447D01*
X-407803Y311036D01*
X-410165Y311036D01*
X-410604Y311114D01*
X-411034Y311380D01*
X-411326Y311792D01*
X-411435Y312286D01*
X-411342Y312783D01*
X-411063Y313204D01*
X-401632Y322636D01*
X-401395Y322822D01*
X-400919Y322994D01*
X-400415Y322967D01*
X-399960Y322745D01*
X-396896Y320394D01*
X-389871Y329549D01*
X-378336Y320698D01*
X-377695Y321533D01*
X-377970Y323619D01*
X-383597Y327936D01*
X-383977Y328412D01*
X-384093Y328904D01*
X-384009Y329402D01*
X-383736Y329828D01*
X-383319Y330113D01*
X-382824Y330214D01*
X-256553Y330214D01*
X-255214Y331553D01*
X-255214Y341444D01*
X-255129Y341902D01*
X-254856Y342328D01*
X-254439Y342613D01*
X-253944Y342714D01*
X-212803Y342714D01*
X-183880Y371638D01*
X-183523Y371888D01*
X-183032Y372009D01*
X-182533Y371928D01*
X-182105Y371659D01*
X-181816Y371244D01*
X-181712Y370750D01*
X-181808Y370254D01*
X-181864Y370119D01*
X-181864Y366481D01*
X-180472Y363120D01*
X-177900Y360548D01*
X-174539Y359156D01*
X-155661Y359156D01*
X-152300Y360548D01*
X-149728Y363120D01*
X-148336Y366481D01*
X-148336Y370119D01*
X-149728Y373480D01*
X-152300Y376052D01*
X-155661Y377444D01*
X-174539Y377444D01*
X-174674Y377388D01*
X-175099Y377293D01*
X-175598Y377370D01*
X-176028Y377635D01*
X-176321Y378048D01*
X-176429Y378541D01*
X-176337Y379038D01*
X-176058Y379460D01*
X-171333Y384184D01*
X-170930Y384455D01*
X-170435Y384556D01*
X-155661Y384556D01*
X-152300Y385948D01*
X-149728Y388520D01*
X-148336Y391881D01*
X-148336Y395519D01*
X-149728Y398880D01*
X-152285Y401436D01*
X-152548Y401820D01*
X-152657Y402314D01*
X-152564Y402811D01*
X-152285Y403232D01*
X-143175Y412342D01*
X-142772Y412613D01*
X-142277Y412714D01*
X145248Y412714D01*
X145696Y412632D01*
X146124Y412363D01*
X146414Y411949D01*
X146518Y411454D01*
X146421Y410958D01*
X145944Y409805D01*
X145944Y407695D01*
X146752Y405744D01*
X148290Y404206D01*
X148578Y404017D01*
X148863Y403600D01*
X148964Y403105D01*
X148964Y287211D01*
X148886Y286772D01*
X148620Y286342D01*
X148208Y286050D01*
X147714Y285941D01*
X147217Y286034D01*
X146796Y286313D01*
X145311Y287798D01*
X141670Y289306D01*
X137730Y289306D01*
X134089Y287798D01*
X131302Y285011D01*
X129794Y281370D01*
X129794Y277430D01*
X131302Y273789D01*
X134089Y271002D01*
X137730Y269494D01*
X141670Y269494D01*
X145311Y271002D01*
X146796Y272487D01*
X147162Y272742D01*
X147654Y272858D01*
X148152Y272773D01*
X148578Y272501D01*
X148863Y272084D01*
X148964Y271589D01*
X148964Y216473D01*
X148871Y215996D01*
X148592Y215575D01*
X123271Y190254D01*
X122896Y189995D01*
X122403Y189882D01*
X121906Y189971D01*
X121482Y190247D01*
X121200Y190666D01*
X120748Y191756D01*
X119256Y193248D01*
X117306Y194056D01*
X115195Y194056D01*
X113244Y193248D01*
X111706Y191710D01*
X111517Y191422D01*
X111100Y191137D01*
X110605Y191036D01*
X99314Y191036D01*
X98856Y191121D01*
X98430Y191394D01*
X98145Y191811D01*
X98044Y192306D01*
X98044Y192319D01*
X96652Y195680D01*
X94080Y198252D01*
X90719Y199644D01*
X87081Y199644D01*
X83720Y198252D01*
X81148Y195680D01*
X79756Y192319D01*
X79756Y188681D01*
X81148Y185320D01*
X83720Y182748D01*
X87081Y181356D01*
X90719Y181356D01*
X94080Y182748D01*
X96652Y185320D01*
X96801Y185680D01*
X97062Y186078D01*
X97479Y186363D01*
X97974Y186464D01*
X105165Y186464D01*
X105604Y186386D01*
X106034Y186120D01*
X106326Y185708D01*
X106435Y185214D01*
X106342Y184717D01*
X106063Y184296D01*
X63625Y141858D01*
X63232Y141591D01*
X62737Y141486D01*
X62378Y141556D01*
X60195Y141556D01*
X58244Y140748D01*
X56752Y139256D01*
X55944Y137306D01*
X55944Y135195D01*
X56752Y133244D01*
X58244Y131752D01*
X60195Y130944D01*
X60924Y130944D01*
X61382Y130859D01*
X61808Y130586D01*
X62093Y130169D01*
X62194Y129674D01*
X62194Y127695D01*
X63002Y125744D01*
X64494Y124252D01*
X65584Y123800D01*
X65967Y123553D01*
X66260Y123141D01*
X66368Y122647D01*
X66275Y122150D01*
X65996Y121729D01*
X57375Y113108D01*
X56982Y112841D01*
X56487Y112736D01*
X56128Y112806D01*
X53945Y112806D01*
X51994Y111998D01*
X50502Y110506D01*
X49729Y108641D01*
X49496Y108273D01*
X49088Y107974D01*
X48596Y107857D01*
X48098Y107942D01*
X47672Y108215D01*
X47387Y108631D01*
X47286Y109127D01*
X47286Y118447D01*
X-41553Y207286D01*
X-43530Y207286D01*
X-43968Y207364D01*
X-44398Y207630D01*
X-44691Y208042D01*
X-44799Y208536D01*
X-44707Y209033D01*
X-44428Y209454D01*
X-43116Y210766D01*
X-42116Y213180D01*
X-41855Y213578D01*
X-41438Y213863D01*
X-40943Y213964D01*
X-11553Y213964D01*
X123875Y349392D01*
X124268Y349659D01*
X124763Y349764D01*
X125122Y349694D01*
X127306Y349694D01*
X129256Y350502D01*
X130748Y351994D01*
X131556Y353945D01*
X131556Y356056D01*
X130748Y358006D01*
X129256Y359498D01*
X127306Y360306D01*
X125195Y360306D01*
X123244Y359498D01*
X121752Y358006D01*
X120944Y356056D01*
X120944Y353880D01*
X121014Y353543D01*
X120921Y353046D01*
X120642Y352625D01*
X88782Y320765D01*
X88416Y320510D01*
X87924Y320394D01*
X87426Y320478D01*
X87000Y320751D01*
X86715Y321168D01*
X86614Y321663D01*
X86614Y341162D01*
X85029Y344989D01*
X82099Y347919D01*
X78272Y349504D01*
X74128Y349504D01*
X70301Y347919D01*
X67371Y344989D01*
X65786Y341162D01*
X65786Y319238D01*
X67371Y315411D01*
X70301Y312481D01*
X74128Y310896D01*
X75847Y310896D01*
X76286Y310818D01*
X76716Y310552D01*
X77008Y310140D01*
X77117Y309646D01*
X77024Y309149D01*
X76745Y308728D01*
X-13075Y218908D01*
X-13478Y218637D01*
X-13973Y218536D01*
X-41232Y218536D01*
X-41700Y218625D01*
X-42123Y218901D01*
X-42406Y219320D01*
X-43116Y221034D01*
X-45666Y223584D01*
X-48997Y224964D01*
X-52603Y224964D01*
X-55934Y223584D01*
X-58484Y221034D01*
X-59864Y217703D01*
X-59864Y214097D01*
X-58484Y210766D01*
X-57172Y209454D01*
X-56917Y209088D01*
X-56801Y208596D01*
X-56886Y208098D01*
X-57158Y207672D01*
X-57575Y207387D01*
X-58071Y207286D01*
X-189777Y207286D01*
X-190254Y207379D01*
X-190675Y207658D01*
X-219808Y236791D01*
X-220076Y237185D01*
X-220180Y237679D01*
X-220084Y238175D01*
X-219536Y239497D01*
X-219536Y243103D01*
X-220916Y246434D01*
X-223466Y248984D01*
X-226797Y250364D01*
X-230403Y250364D01*
X-233734Y248984D01*
X-236284Y246434D01*
X-237664Y243103D01*
X-237664Y239497D01*
X-236284Y236166D01*
X-233734Y233616D01*
X-230403Y232236D01*
X-226797Y232236D01*
X-223990Y233399D01*
X-223524Y233495D01*
X-223028Y233402D01*
X-222606Y233123D01*
X-195187Y205704D01*
X-194932Y205338D01*
X-194816Y204846D01*
X-194900Y204348D01*
X-195173Y203922D01*
X-195590Y203637D01*
X-196085Y203536D01*
X-212277Y203536D01*
X-212754Y203629D01*
X-213175Y203908D01*
X-220057Y210790D01*
X-220325Y211183D01*
X-220429Y211678D01*
X-220333Y212174D01*
X-219536Y214097D01*
X-219536Y217703D01*
X-220916Y221034D01*
X-223466Y223584D01*
X-226797Y224964D01*
X-230403Y224964D01*
X-233734Y223584D01*
X-236284Y221034D01*
X-237664Y217703D01*
X-237664Y214097D01*
X-236284Y210766D01*
X-233734Y208216D01*
X-230403Y206836D01*
X-226797Y206836D01*
X-224591Y207750D01*
X-224126Y207846D01*
X-223629Y207754D01*
X-223207Y207474D01*
X-214685Y198952D01*
X-214304Y198882D01*
X-213876Y198613D01*
X-213587Y198199D01*
X-213482Y197704D01*
X-213579Y197208D01*
X-214056Y196055D01*
X-214056Y193880D01*
X-213986Y193543D01*
X-214079Y193046D01*
X-214358Y192625D01*
X-216352Y190631D01*
X-216718Y190376D01*
X-217210Y190260D01*
X-217708Y190344D01*
X-218134Y190617D01*
X-218419Y191034D01*
X-218520Y191529D01*
X-218520Y192505D01*
X-220055Y196210D01*
X-221060Y197215D01*
X-221060Y182960D01*
X-236611Y182960D01*
X-236795Y182672D01*
X-237212Y182387D01*
X-237707Y182286D01*
X-315947Y182286D01*
X-317286Y180947D01*
X-317286Y128973D01*
X-317379Y128496D01*
X-317658Y128075D01*
X-318888Y126845D01*
X-319254Y126590D01*
X-319746Y126474D01*
X-320244Y126558D01*
X-320670Y126831D01*
X-320955Y127248D01*
X-321056Y127743D01*
X-321056Y128819D01*
X-322448Y132180D01*
X-325020Y134752D01*
X-328381Y136144D01*
X-332019Y136144D01*
X-335380Y134752D01*
X-337952Y132180D01*
X-339344Y128819D01*
X-339344Y125181D01*
X-338558Y123284D01*
X-338462Y122818D01*
X-338554Y122321D01*
X-338833Y121900D01*
X-342286Y118447D01*
X-342286Y104053D01*
X-340947Y102714D01*
X-268585Y102714D01*
X-268146Y102636D01*
X-267716Y102370D01*
X-267424Y101958D01*
X-267315Y101464D01*
X-267408Y100967D01*
X-267687Y100546D01*
X-283075Y85158D01*
X-283478Y84887D01*
X-283973Y84786D01*
X-345947Y84786D01*
X-389325Y41408D01*
X-389728Y41137D01*
X-390223Y41036D01*
X-427350Y41036D01*
X-427817Y41125D01*
X-428241Y41401D01*
X-428524Y41820D01*
X-429128Y43280D01*
X-431700Y45852D01*
X-435061Y47244D01*
X-453939Y47244D01*
X-457300Y45852D01*
X-459872Y43280D01*
X-461264Y39919D01*
X-461264Y36281D01*
X-459872Y32920D01*
X-457300Y30348D01*
X-453939Y28956D01*
X-435061Y28956D01*
X-431700Y30348D01*
X-429128Y32920D01*
X-427985Y35680D01*
X-427724Y36078D01*
X-427307Y36363D01*
X-426812Y36464D01*
X-387803Y36464D01*
X-344425Y79842D01*
X-344022Y80113D01*
X-343527Y80214D01*
X-281553Y80214D01*
X-259875Y101892D01*
X-259482Y102159D01*
X-258987Y102264D01*
X-258628Y102194D01*
X-256445Y102194D01*
X-255292Y102671D01*
X-254846Y102767D01*
X-254348Y102683D01*
X-253922Y102410D01*
X-253637Y101993D01*
X-253536Y101498D01*
X-253536Y64806D01*
X-253621Y64348D01*
X-253894Y63922D01*
X-254311Y63637D01*
X-254669Y63564D01*
X-259786Y58447D01*
X-259786Y47803D01*
X-258447Y46464D01*
X-236121Y46464D01*
X-235682Y46386D01*
X-235252Y46120D01*
X-234959Y45708D01*
X-234851Y45214D01*
X-234943Y44717D01*
X-235222Y44296D01*
X-236284Y43234D01*
X-237664Y39903D01*
X-237664Y36297D01*
X-236284Y32966D01*
X-233734Y30416D01*
X-230403Y29036D01*
X-226797Y29036D01*
X-223466Y30416D01*
X-220916Y32966D01*
X-219536Y36297D01*
X-219536Y39903D01*
X-220916Y43234D01*
X-221978Y44296D01*
X-222233Y44662D01*
X-222349Y45154D01*
X-222264Y45652D01*
X-221992Y46078D01*
X-221575Y46363D01*
X-221080Y46464D01*
X-102723Y46464D01*
X-102246Y46371D01*
X-101825Y46092D01*
X-53589Y-2144D01*
X-53330Y-2519D01*
X-53218Y-3011D01*
X-53306Y-3509D01*
X-53582Y-3933D01*
X-54001Y-4215D01*
X-55934Y-5016D01*
X-58484Y-7566D01*
X-59864Y-10897D01*
X-59864Y-14503D01*
X-58484Y-17834D01*
X-57022Y-19296D01*
X-56767Y-19662D01*
X-56651Y-20154D01*
X-56736Y-20652D01*
X-57008Y-21078D01*
X-57425Y-21363D01*
X-57921Y-21464D01*
X-216027Y-21464D01*
X-216504Y-21371D01*
X-216925Y-21092D01*
X-220101Y-17916D01*
X-220369Y-17523D01*
X-220473Y-17028D01*
X-220376Y-16532D01*
X-219536Y-14503D01*
X-219536Y-10897D01*
X-220916Y-7566D01*
X-223466Y-5016D01*
X-226797Y-3636D01*
X-230403Y-3636D01*
X-233734Y-5016D01*
X-236284Y-7566D01*
X-237664Y-10897D01*
X-237664Y-14503D01*
X-236284Y-17834D01*
X-233734Y-20384D01*
X-230403Y-21764D01*
X-226797Y-21764D01*
X-224697Y-20894D01*
X-224232Y-20798D01*
X-223735Y-20890D01*
X-223313Y-21170D01*
X-221437Y-23046D01*
X-221182Y-23412D01*
X-221066Y-23904D01*
X-221150Y-24402D01*
X-221423Y-24828D01*
X-221840Y-25113D01*
X-222335Y-25214D01*
X-233447Y-25214D01*
X-234325Y-26092D01*
X-234728Y-26363D01*
G37*
%LPC*%
G36*
X-174539Y333756D02*
X-155661Y333756D01*
X-152300Y335148D01*
X-149728Y337720D01*
X-148336Y341081D01*
X-148336Y344719D01*
X-149728Y348080D01*
X-152300Y350652D01*
X-155661Y352044D01*
X-174539Y352044D01*
X-177900Y350652D01*
X-180472Y348080D01*
X-181864Y344719D01*
X-181864Y341081D01*
X-180472Y337720D01*
X-177900Y335148D01*
X-174539Y333756D01*
G37*
G36*
X48728Y310896D02*
X52872Y310896D01*
X56699Y312481D01*
X59629Y315411D01*
X61214Y319238D01*
X61214Y341162D01*
X59629Y344989D01*
X56699Y347919D01*
X52872Y349504D01*
X48728Y349504D01*
X44901Y347919D01*
X41971Y344989D01*
X40386Y341162D01*
X40386Y319238D01*
X41971Y315411D01*
X44901Y312481D01*
X48728Y310896D01*
G37*
G36*
X-2072Y310896D02*
X2072Y310896D01*
X5899Y312481D01*
X8829Y315411D01*
X10414Y319238D01*
X10414Y341162D01*
X8829Y344989D01*
X5899Y347919D01*
X2072Y349504D01*
X-2072Y349504D01*
X-5899Y347919D01*
X-8829Y344989D01*
X-10414Y341162D01*
X-10414Y319238D01*
X-8829Y315411D01*
X-5899Y312481D01*
X-2072Y310896D01*
G37*
G36*
X-103672Y310896D02*
X-99528Y310896D01*
X-95701Y312481D01*
X-92771Y315411D01*
X-91186Y319238D01*
X-91186Y341162D01*
X-92771Y344989D01*
X-95701Y347919D01*
X-99528Y349504D01*
X-103672Y349504D01*
X-107499Y347919D01*
X-110429Y344989D01*
X-112014Y341162D01*
X-112014Y319238D01*
X-110429Y315411D01*
X-107499Y312481D01*
X-103672Y310896D01*
G37*
G36*
X-52872Y310896D02*
X-48728Y310896D01*
X-44901Y312481D01*
X-41971Y315411D01*
X-40386Y319238D01*
X-40386Y341162D01*
X-41971Y344989D01*
X-44901Y347919D01*
X-48728Y349504D01*
X-52872Y349504D01*
X-56699Y347919D01*
X-59629Y344989D01*
X-61214Y341162D01*
X-61214Y319238D01*
X-59629Y315411D01*
X-56699Y312481D01*
X-52872Y310896D01*
G37*
G36*
X-27472Y310896D02*
X-23328Y310896D01*
X-19501Y312481D01*
X-16571Y315411D01*
X-14986Y319238D01*
X-14986Y341162D01*
X-16571Y344989D01*
X-19501Y347919D01*
X-23328Y349504D01*
X-27472Y349504D01*
X-31299Y347919D01*
X-34229Y344989D01*
X-35814Y341162D01*
X-35814Y319238D01*
X-34229Y315411D01*
X-31299Y312481D01*
X-27472Y310896D01*
G37*
G36*
X23328Y310896D02*
X27472Y310896D01*
X31299Y312481D01*
X34229Y315411D01*
X35814Y319238D01*
X35814Y341162D01*
X34229Y344989D01*
X31299Y347919D01*
X27472Y349504D01*
X23328Y349504D01*
X19501Y347919D01*
X16571Y344989D01*
X14986Y341162D01*
X14986Y319238D01*
X16571Y315411D01*
X19501Y312481D01*
X23328Y310896D01*
G37*
G36*
X-67310Y346364D02*
X-67310Y314036D01*
X-66510Y314835D01*
X-64770Y319036D01*
X-64770Y341364D01*
X-66510Y345565D01*
X-67310Y346364D01*
G37*
G36*
X-85890Y314835D02*
X-85090Y314036D01*
X-85090Y346364D01*
X-85890Y345565D01*
X-87630Y341364D01*
X-87630Y319036D01*
X-85890Y314835D01*
G37*
G36*
X-179468Y325120D02*
X-150732Y325120D01*
X-151725Y326113D01*
X-155459Y327660D01*
X-174741Y327660D01*
X-178475Y326113D01*
X-179468Y325120D01*
G37*
G36*
X-194806Y227194D02*
X-192695Y227194D01*
X-190744Y228002D01*
X-189252Y229494D01*
X-188444Y231445D01*
X-188444Y233556D01*
X-189252Y235506D01*
X-190744Y236998D01*
X-192695Y237806D01*
X-194870Y237806D01*
X-195207Y237736D01*
X-195704Y237829D01*
X-196125Y238108D01*
X-266285Y308268D01*
X-266548Y308652D01*
X-266657Y309145D01*
X-266564Y309642D01*
X-266285Y310064D01*
X-264028Y312320D01*
X-262636Y315681D01*
X-262636Y319319D01*
X-264028Y322680D01*
X-266600Y325252D01*
X-269961Y326644D01*
X-288839Y326644D01*
X-292200Y325252D01*
X-294772Y322680D01*
X-296164Y319319D01*
X-296164Y315681D01*
X-294772Y312320D01*
X-292200Y309748D01*
X-288839Y308356D01*
X-273365Y308356D01*
X-272888Y308263D01*
X-272467Y307984D01*
X-267248Y302765D01*
X-266997Y302408D01*
X-266877Y301917D01*
X-266957Y301418D01*
X-267226Y300990D01*
X-267641Y300701D01*
X-268135Y300597D01*
X-268632Y300693D01*
X-269961Y301244D01*
X-288839Y301244D01*
X-292200Y299852D01*
X-294772Y297280D01*
X-296164Y293919D01*
X-296164Y290281D01*
X-294772Y286920D01*
X-292200Y284348D01*
X-288839Y282956D01*
X-269961Y282956D01*
X-266600Y284348D01*
X-264028Y286920D01*
X-262636Y290281D01*
X-262636Y293919D01*
X-263187Y295248D01*
X-263282Y295674D01*
X-263205Y296173D01*
X-262940Y296603D01*
X-262527Y296896D01*
X-262034Y297004D01*
X-261537Y296912D01*
X-261115Y296633D01*
X-199358Y234875D01*
X-199091Y234482D01*
X-198986Y233987D01*
X-199056Y233628D01*
X-199056Y231445D01*
X-198248Y229494D01*
X-196756Y228002D01*
X-194806Y227194D01*
G37*
G36*
X-389756Y314915D02*
X-386541Y312448D01*
X-384455Y312723D01*
X-383815Y313558D01*
X-388210Y316930D01*
X-389756Y314915D01*
G37*
G36*
X-157480Y307340D02*
X-155459Y307340D01*
X-151725Y308887D01*
X-150732Y309880D01*
X-157480Y309880D01*
X-157480Y307340D01*
G37*
G36*
X-174741Y307340D02*
X-172720Y307340D01*
X-172720Y309880D01*
X-179468Y309880D01*
X-178475Y308887D01*
X-174741Y307340D01*
G37*
G36*
X-293768Y274320D02*
X-265032Y274320D01*
X-266025Y275313D01*
X-269759Y276860D01*
X-289041Y276860D01*
X-292775Y275313D01*
X-293768Y274320D01*
G37*
G36*
X-271780Y256540D02*
X-269759Y256540D01*
X-266025Y258087D01*
X-265032Y259080D01*
X-271780Y259080D01*
X-271780Y256540D01*
G37*
G36*
X-289041Y256540D02*
X-287020Y256540D01*
X-287020Y259080D01*
X-293768Y259080D01*
X-292775Y258087D01*
X-289041Y256540D01*
G37*
G36*
X-52603Y232236D02*
X-48997Y232236D01*
X-45666Y233616D01*
X-43116Y236166D01*
X-41736Y239497D01*
X-41736Y243103D01*
X-43116Y246434D01*
X-45666Y248984D01*
X-48997Y250364D01*
X-52603Y250364D01*
X-55934Y248984D01*
X-58484Y246434D01*
X-59864Y243103D01*
X-59864Y239497D01*
X-58484Y236166D01*
X-55934Y233616D01*
X-52603Y232236D01*
G37*
G36*
X-166903Y229936D02*
X-163297Y229936D01*
X-159966Y231316D01*
X-157416Y233866D01*
X-156036Y237197D01*
X-156036Y240803D01*
X-157416Y244134D01*
X-159966Y246684D01*
X-163297Y248064D01*
X-166903Y248064D01*
X-170234Y246684D01*
X-172784Y244134D01*
X-174164Y240803D01*
X-174164Y237197D01*
X-172784Y233866D01*
X-170234Y231316D01*
X-166903Y229936D01*
G37*
G36*
X-116103Y229936D02*
X-112497Y229936D01*
X-109166Y231316D01*
X-106616Y233866D01*
X-105236Y237197D01*
X-105236Y240803D01*
X-106616Y244134D01*
X-109166Y246684D01*
X-112497Y248064D01*
X-116103Y248064D01*
X-119434Y246684D01*
X-121984Y244134D01*
X-123364Y240803D01*
X-123364Y237197D01*
X-121984Y233866D01*
X-119434Y231316D01*
X-116103Y229936D01*
G37*
G36*
X-141503Y229936D02*
X-137897Y229936D01*
X-134566Y231316D01*
X-132016Y233866D01*
X-130636Y237197D01*
X-130636Y240803D01*
X-132016Y244134D01*
X-134566Y246684D01*
X-137897Y248064D01*
X-141503Y248064D01*
X-144834Y246684D01*
X-147384Y244134D01*
X-148764Y240803D01*
X-148764Y237197D01*
X-147384Y233866D01*
X-144834Y231316D01*
X-141503Y229936D01*
G37*
G36*
X-235315Y198040D02*
X-221885Y198040D01*
X-222890Y199045D01*
X-226595Y200580D01*
X-230605Y200580D01*
X-234310Y199045D01*
X-235315Y198040D01*
G37*
G36*
X10881Y181356D02*
X14519Y181356D01*
X17880Y182748D01*
X20452Y185320D01*
X21844Y188681D01*
X21844Y192319D01*
X20452Y195680D01*
X17880Y198252D01*
X14519Y199644D01*
X10881Y199644D01*
X7520Y198252D01*
X4948Y195680D01*
X3556Y192319D01*
X3556Y188681D01*
X4948Y185320D01*
X7520Y182748D01*
X10881Y181356D01*
G37*
G36*
X61681Y181356D02*
X65319Y181356D01*
X68680Y182748D01*
X71252Y185320D01*
X72644Y188681D01*
X72644Y192319D01*
X71252Y195680D01*
X68680Y198252D01*
X65319Y199644D01*
X61681Y199644D01*
X58320Y198252D01*
X55748Y195680D01*
X54356Y192319D01*
X54356Y188681D01*
X55748Y185320D01*
X58320Y182748D01*
X61681Y181356D01*
G37*
G36*
X36281Y181356D02*
X39919Y181356D01*
X43280Y182748D01*
X45852Y185320D01*
X47244Y188681D01*
X47244Y192319D01*
X45852Y195680D01*
X43280Y198252D01*
X39919Y199644D01*
X36281Y199644D01*
X32920Y198252D01*
X30348Y195680D01*
X28956Y192319D01*
X28956Y188681D01*
X30348Y185320D01*
X32920Y182748D01*
X36281Y181356D01*
G37*
G36*
X-474492Y164076D02*
X-469028Y163161D01*
X-468855Y164199D01*
X-470076Y165912D01*
X-474073Y166581D01*
X-474492Y164076D01*
G37*
G36*
X-476397Y152694D02*
X-472400Y152025D01*
X-470687Y153247D01*
X-470514Y154285D01*
X-475978Y155199D01*
X-476397Y152694D01*
G37*
G36*
X-357419Y117856D02*
X-353781Y117856D01*
X-350420Y119248D01*
X-347848Y121820D01*
X-346456Y125181D01*
X-346456Y128819D01*
X-347848Y132180D01*
X-350420Y134752D01*
X-353781Y136144D01*
X-357419Y136144D01*
X-360780Y134752D01*
X-363352Y132180D01*
X-364744Y128819D01*
X-364744Y125181D01*
X-363352Y121820D01*
X-360780Y119248D01*
X-357419Y117856D01*
G37*
G36*
X-496348Y62230D02*
X-492296Y62230D01*
X-490808Y63717D01*
X-490808Y64770D01*
X-496348Y64770D01*
X-496348Y62230D01*
G37*
G36*
X-454141Y53340D02*
X-434859Y53340D01*
X-431125Y54887D01*
X-430132Y55880D01*
X-458868Y55880D01*
X-457875Y54887D01*
X-454141Y53340D01*
G37*
G36*
X-512306Y20944D02*
X-510195Y20944D01*
X-508244Y21752D01*
X-506752Y23244D01*
X-505944Y25195D01*
X-505944Y27370D01*
X-506014Y27707D01*
X-505921Y28204D01*
X-505642Y28625D01*
X-504394Y29874D01*
X-503991Y30145D01*
X-503496Y30246D01*
X-492716Y30246D01*
X-491824Y31138D01*
X-491824Y41401D01*
X-492716Y42294D01*
X-508979Y42294D01*
X-509872Y41401D01*
X-509872Y32826D01*
X-509957Y32368D01*
X-510229Y31942D01*
X-510646Y31657D01*
X-511142Y31556D01*
X-512306Y31556D01*
X-514256Y30748D01*
X-515748Y29256D01*
X-516556Y27306D01*
X-516556Y25195D01*
X-515748Y23244D01*
X-514256Y21752D01*
X-512306Y20944D01*
G37*
G36*
X-230403Y3636D02*
X-226797Y3636D01*
X-223466Y5016D01*
X-220916Y7566D01*
X-219536Y10897D01*
X-219536Y14503D01*
X-220916Y17834D01*
X-223466Y20384D01*
X-226797Y21764D01*
X-230403Y21764D01*
X-233734Y20384D01*
X-236284Y17834D01*
X-237664Y14503D01*
X-237664Y10897D01*
X-236284Y7566D01*
X-233734Y5016D01*
X-230403Y3636D01*
G37*
%LPD*%
G36*
X100732Y115341D02*
X100237Y115236D01*
X99878Y115306D01*
X99105Y115306D01*
X98666Y115384D01*
X98236Y115650D01*
X97944Y116062D01*
X97835Y116556D01*
X97928Y117053D01*
X98207Y117474D01*
X140575Y159842D01*
X140978Y160113D01*
X141473Y160214D01*
X327197Y160214D01*
X348860Y181877D01*
X349226Y182132D01*
X349718Y182248D01*
X350216Y182164D01*
X350642Y181891D01*
X350927Y181474D01*
X351028Y180979D01*
X351028Y170646D01*
X361146Y160528D01*
X375454Y160528D01*
X385572Y170646D01*
X385572Y184954D01*
X375454Y195072D01*
X365121Y195072D01*
X364682Y195150D01*
X364252Y195416D01*
X363960Y195828D01*
X363851Y196322D01*
X363944Y196819D01*
X364223Y197240D01*
X441312Y274330D01*
X441696Y274593D01*
X442190Y274701D01*
X442687Y274609D01*
X443108Y274330D01*
X445718Y271720D01*
X449048Y270341D01*
X452652Y270341D01*
X455982Y271720D01*
X458530Y274268D01*
X459331Y276202D01*
X459579Y276585D01*
X459991Y276878D01*
X460485Y276986D01*
X460981Y276893D01*
X461403Y276614D01*
X471553Y266464D01*
X474777Y266464D01*
X475254Y266371D01*
X475675Y266092D01*
X481793Y259974D01*
X481989Y259721D01*
X482154Y259243D01*
X482120Y258739D01*
X481891Y258288D01*
X481505Y257962D01*
X479270Y256739D01*
X478916Y255527D01*
X480058Y253441D01*
X480214Y252831D01*
X480214Y248145D01*
X480125Y247678D01*
X479849Y247254D01*
X479546Y247050D01*
X478002Y245506D01*
X477194Y243556D01*
X477194Y241445D01*
X477671Y240292D01*
X477767Y239846D01*
X477683Y239348D01*
X477410Y238922D01*
X476993Y238637D01*
X476498Y238536D01*
X453683Y238536D01*
X453346Y238582D01*
X452896Y238810D01*
X452569Y239196D01*
X451766Y240663D01*
X450555Y241017D01*
X436290Y233208D01*
X435936Y231996D01*
X440864Y222994D01*
X442076Y222640D01*
X456340Y230449D01*
X456695Y231661D01*
X456463Y232084D01*
X456308Y232654D01*
X456392Y233152D01*
X456665Y233578D01*
X457082Y233863D01*
X457577Y233964D01*
X485947Y233964D01*
X503163Y251180D01*
X503417Y251377D01*
X503895Y251541D01*
X504399Y251507D01*
X504850Y251278D01*
X505176Y250891D01*
X505537Y250230D01*
X505583Y250138D01*
X511338Y237209D01*
X511433Y236880D01*
X511407Y236376D01*
X511186Y235921D01*
X510805Y235589D01*
X510325Y235432D01*
X509821Y235474D01*
X509382Y235602D01*
X496760Y228692D01*
X496150Y228536D01*
X481553Y228536D01*
X480214Y227197D01*
X480214Y155114D01*
X480089Y154566D01*
X479785Y154162D01*
X479347Y153910D01*
X472758Y151705D01*
X472195Y150575D01*
X474827Y142709D01*
X474892Y142346D01*
X474807Y141848D01*
X474535Y141422D01*
X474118Y141137D01*
X473622Y141036D01*
X126553Y141036D01*
X101125Y115608D01*
X100732Y115341D01*
G37*
%LPC*%
G36*
X462729Y211219D02*
X463949Y208991D01*
X468808Y211651D01*
X468303Y212574D01*
X466283Y213165D01*
X462729Y211219D01*
G37*
G36*
X450690Y202931D02*
X451195Y202008D01*
X456054Y204669D01*
X454835Y206897D01*
X451280Y204951D01*
X450690Y202931D01*
G37*
G36*
X468271Y201097D02*
X469490Y198869D01*
X473045Y200814D01*
X473635Y202834D01*
X473130Y203757D01*
X468271Y201097D01*
G37*
G36*
X456022Y193191D02*
X458042Y192601D01*
X461596Y194547D01*
X460376Y196775D01*
X455517Y194114D01*
X456022Y193191D01*
G37*
%LPD*%
G36*
X-7228Y-10113D02*
X-7723Y-10214D01*
X-17123Y-10214D01*
X-17553Y-10139D01*
X-17985Y-9877D01*
X-18281Y-9467D01*
X-18393Y-8974D01*
X-18304Y-8477D01*
X-18028Y-8053D01*
X-17609Y-7771D01*
X-15744Y-6998D01*
X-14252Y-5506D01*
X-13444Y-3556D01*
X-13444Y-1445D01*
X-14252Y506D01*
X-15744Y1998D01*
X-17695Y2806D01*
X-19806Y2806D01*
X-21756Y1998D01*
X-23294Y460D01*
X-23483Y172D01*
X-23900Y-113D01*
X-24395Y-214D01*
X-28394Y-214D01*
X-28833Y-136D01*
X-29263Y130D01*
X-29556Y542D01*
X-29664Y1036D01*
X-29571Y1533D01*
X-29292Y1954D01*
X-29252Y1994D01*
X-28444Y3945D01*
X-28444Y5297D01*
X-28351Y5774D01*
X-28072Y6195D01*
X30125Y64392D01*
X30518Y64659D01*
X31013Y64764D01*
X31372Y64694D01*
X33556Y64694D01*
X35506Y65502D01*
X36998Y66994D01*
X37806Y68945D01*
X37806Y71056D01*
X36998Y73006D01*
X35506Y74498D01*
X33556Y75306D01*
X31445Y75306D01*
X29494Y74498D01*
X28002Y73006D01*
X27194Y71056D01*
X27194Y68880D01*
X27264Y68543D01*
X27171Y68046D01*
X26892Y67625D01*
X-30491Y10242D01*
X-30884Y9974D01*
X-31379Y9870D01*
X-31875Y9967D01*
X-32695Y10306D01*
X-34806Y10306D01*
X-36756Y9498D01*
X-38248Y8006D01*
X-39056Y6056D01*
X-39056Y3945D01*
X-38248Y1994D01*
X-38208Y1954D01*
X-37953Y1588D01*
X-37837Y1096D01*
X-37921Y598D01*
X-38194Y172D01*
X-38611Y-113D01*
X-39106Y-214D01*
X-48527Y-214D01*
X-49004Y-121D01*
X-49425Y158D01*
X-50735Y1468D01*
X-50990Y1834D01*
X-51106Y2326D01*
X-51022Y2824D01*
X-50749Y3250D01*
X-50332Y3535D01*
X-49837Y3636D01*
X-48997Y3636D01*
X-45666Y5016D01*
X-43116Y7566D01*
X-41736Y10897D01*
X-41736Y14503D01*
X-43116Y17834D01*
X-45666Y20384D01*
X-48997Y21764D01*
X-52603Y21764D01*
X-54243Y21085D01*
X-54709Y20988D01*
X-55206Y21081D01*
X-55627Y21360D01*
X-83142Y48875D01*
X-83409Y49268D01*
X-83514Y49763D01*
X-83444Y50122D01*
X-83444Y52305D01*
X-83921Y53458D01*
X-84017Y53904D01*
X-83933Y54402D01*
X-83660Y54828D01*
X-83243Y55113D01*
X-82748Y55214D01*
X-71473Y55214D01*
X-70996Y55121D01*
X-70575Y54842D01*
X-59226Y43493D01*
X-58958Y43099D01*
X-58854Y42605D01*
X-58950Y42109D01*
X-59864Y39903D01*
X-59864Y36297D01*
X-58484Y32966D01*
X-55934Y30416D01*
X-52603Y29036D01*
X-48997Y29036D01*
X-45666Y30416D01*
X-43116Y32966D01*
X-41736Y36297D01*
X-41736Y39903D01*
X-43116Y43234D01*
X-45666Y45784D01*
X-48997Y47164D01*
X-52603Y47164D01*
X-54526Y46368D01*
X-54992Y46271D01*
X-55489Y46364D01*
X-55910Y46643D01*
X-69053Y59786D01*
X-90605Y59786D01*
X-91072Y59875D01*
X-91496Y60151D01*
X-91701Y60454D01*
X-93244Y61998D01*
X-95195Y62806D01*
X-97306Y62806D01*
X-99256Y61998D01*
X-100748Y60506D01*
X-101556Y58556D01*
X-101556Y56445D01*
X-100748Y54494D01*
X-99458Y53204D01*
X-99203Y52838D01*
X-99181Y52747D01*
X-98997Y52786D01*
X-98501Y52689D01*
X-97306Y52194D01*
X-95326Y52194D01*
X-94868Y52109D01*
X-94442Y51836D01*
X-94157Y51419D01*
X-94056Y50924D01*
X-94056Y50195D01*
X-93248Y48244D01*
X-91756Y46752D01*
X-89806Y45944D01*
X-87630Y45944D01*
X-87293Y46014D01*
X-86796Y45921D01*
X-86375Y45642D01*
X-59108Y18376D01*
X-58841Y17982D01*
X-58737Y17488D01*
X-58833Y16992D01*
X-59864Y14503D01*
X-59864Y13663D01*
X-59942Y13224D01*
X-60208Y12794D01*
X-60620Y12502D01*
X-61114Y12393D01*
X-61611Y12486D01*
X-62032Y12765D01*
X-99885Y50618D01*
X-100136Y50974D01*
X-100161Y51076D01*
X-100356Y51036D01*
X-225966Y51036D01*
X-226395Y51111D01*
X-226827Y51373D01*
X-227123Y51783D01*
X-227235Y52276D01*
X-227147Y52773D01*
X-226871Y53197D01*
X-226452Y53479D01*
X-222890Y54955D01*
X-221885Y55960D01*
X-235315Y55960D01*
X-234310Y54955D01*
X-230748Y53479D01*
X-230380Y53246D01*
X-230081Y52838D01*
X-229965Y52346D01*
X-230050Y51848D01*
X-230322Y51422D01*
X-230739Y51137D01*
X-231234Y51036D01*
X-245248Y51036D01*
X-245696Y51118D01*
X-246124Y51387D01*
X-246414Y51801D01*
X-246518Y52296D01*
X-246421Y52792D01*
X-245944Y53945D01*
X-245944Y56120D01*
X-246014Y56457D01*
X-245921Y56954D01*
X-245642Y57375D01*
X-240848Y62169D01*
X-240482Y62424D01*
X-239990Y62540D01*
X-239492Y62456D01*
X-239066Y62183D01*
X-238781Y61766D01*
X-238769Y61710D01*
X-237145Y57790D01*
X-236140Y56785D01*
X-236140Y71040D01*
X-221885Y71040D01*
X-222890Y72045D01*
X-226764Y73650D01*
X-226810Y73658D01*
X-227240Y73924D01*
X-227532Y74336D01*
X-227641Y74830D01*
X-227548Y75327D01*
X-227269Y75748D01*
X-226925Y76092D01*
X-226522Y76363D01*
X-226027Y76464D01*
X-202856Y76464D01*
X-202417Y76386D01*
X-201987Y76120D01*
X-201695Y75708D01*
X-201586Y75214D01*
X-201679Y74717D01*
X-201958Y74296D01*
X-203248Y73006D01*
X-204056Y71056D01*
X-204056Y68945D01*
X-203248Y66994D01*
X-201756Y65502D01*
X-199806Y64694D01*
X-197695Y64694D01*
X-195744Y65502D01*
X-194252Y66994D01*
X-193444Y68945D01*
X-193444Y71145D01*
X-193500Y71404D01*
X-193415Y71902D01*
X-193143Y72328D01*
X-192726Y72613D01*
X-192230Y72714D01*
X-64053Y72714D01*
X-56263Y80504D01*
X-55870Y80771D01*
X-55376Y80876D01*
X-54879Y80779D01*
X-52603Y79836D01*
X-48997Y79836D01*
X-45666Y81216D01*
X-43116Y83766D01*
X-41736Y87097D01*
X-41736Y90703D01*
X-43116Y94034D01*
X-45666Y96584D01*
X-48997Y97964D01*
X-52603Y97964D01*
X-55934Y96584D01*
X-58484Y94034D01*
X-59864Y90703D01*
X-59864Y87097D01*
X-59097Y85245D01*
X-59000Y84779D01*
X-59093Y84282D01*
X-59372Y83861D01*
X-65575Y77658D01*
X-65978Y77387D01*
X-66473Y77286D01*
X-117665Y77286D01*
X-118104Y77364D01*
X-118534Y77630D01*
X-118826Y78042D01*
X-118935Y78536D01*
X-118842Y79033D01*
X-118563Y79454D01*
X-86925Y111092D01*
X-86522Y111363D01*
X-86027Y111464D01*
X-60285Y111464D01*
X-59817Y111375D01*
X-59394Y111099D01*
X-59111Y110680D01*
X-58484Y109166D01*
X-55934Y106616D01*
X-52603Y105236D01*
X-48997Y105236D01*
X-45666Y106616D01*
X-43116Y109166D01*
X-41736Y112497D01*
X-41736Y116103D01*
X-43116Y119434D01*
X-44228Y120546D01*
X-44483Y120912D01*
X-44599Y121404D01*
X-44514Y121902D01*
X-44242Y122328D01*
X-43825Y122613D01*
X-43330Y122714D01*
X-23145Y122714D01*
X-22678Y122625D01*
X-22254Y122349D01*
X-22050Y122046D01*
X-20506Y120502D01*
X-18556Y119694D01*
X-16445Y119694D01*
X-14494Y120502D01*
X-13002Y121994D01*
X-12194Y123945D01*
X-12194Y126056D01*
X-13002Y128006D01*
X-14494Y129498D01*
X-16445Y130306D01*
X-18556Y130306D01*
X-20506Y129498D01*
X-22044Y127960D01*
X-22233Y127672D01*
X-22650Y127387D01*
X-23145Y127286D01*
X-257748Y127286D01*
X-258196Y127368D01*
X-258624Y127637D01*
X-258914Y128051D01*
X-259018Y128546D01*
X-258921Y129042D01*
X-258444Y130195D01*
X-258444Y132370D01*
X-258514Y132707D01*
X-258421Y133204D01*
X-258142Y133625D01*
X-239425Y152342D01*
X-239022Y152613D01*
X-238527Y152714D01*
X-60303Y152714D01*
X-56299Y156718D01*
X-55905Y156986D01*
X-55411Y157090D01*
X-54915Y156994D01*
X-52603Y156036D01*
X-48997Y156036D01*
X-45666Y157416D01*
X-44454Y158628D01*
X-44088Y158883D01*
X-43596Y158999D01*
X-43098Y158914D01*
X-42672Y158642D01*
X-42387Y158225D01*
X-42286Y157730D01*
X-42286Y147071D01*
X-42364Y146632D01*
X-42630Y146202D01*
X-43042Y145909D01*
X-43536Y145801D01*
X-44033Y145893D01*
X-44454Y146172D01*
X-45666Y147384D01*
X-48997Y148764D01*
X-52603Y148764D01*
X-55934Y147384D01*
X-58484Y144834D01*
X-59864Y141503D01*
X-59864Y137897D01*
X-58484Y134566D01*
X-55934Y132016D01*
X-52603Y130636D01*
X-48997Y130636D01*
X-45666Y132016D01*
X-43116Y134566D01*
X-42137Y136930D01*
X-41875Y137328D01*
X-41459Y137613D01*
X-40963Y137714D01*
X-39053Y137714D01*
X-37714Y139053D01*
X-37714Y169697D01*
X-45303Y177286D01*
X-220165Y177286D01*
X-220604Y177364D01*
X-221034Y177630D01*
X-221326Y178042D01*
X-221435Y178536D01*
X-221342Y179033D01*
X-221063Y179454D01*
X-211125Y189392D01*
X-210732Y189659D01*
X-210237Y189764D01*
X-209878Y189694D01*
X-207695Y189694D01*
X-205744Y190502D01*
X-204252Y191994D01*
X-203444Y193945D01*
X-203444Y196055D01*
X-203921Y197208D01*
X-204017Y197654D01*
X-203933Y198152D01*
X-203660Y198578D01*
X-203243Y198863D01*
X-202748Y198964D01*
X-59657Y198964D01*
X-59218Y198886D01*
X-58788Y198620D01*
X-58496Y198208D01*
X-58459Y198040D01*
X-43260Y198040D01*
X-43260Y183785D01*
X-42255Y184790D01*
X-40644Y188678D01*
X-40397Y189061D01*
X-39985Y189353D01*
X-39491Y189462D01*
X-38994Y189369D01*
X-38573Y189090D01*
X-5608Y156125D01*
X-5341Y155732D01*
X-5236Y155237D01*
X-5306Y154878D01*
X-5306Y152695D01*
X-4498Y150744D01*
X-3006Y149252D01*
X-1056Y148444D01*
X1056Y148444D01*
X3006Y149252D01*
X4498Y150744D01*
X4950Y151834D01*
X5197Y152217D01*
X5609Y152510D01*
X6103Y152618D01*
X6600Y152525D01*
X7021Y152246D01*
X42342Y116925D01*
X42613Y116522D01*
X42714Y116027D01*
X42714Y34053D01*
X43109Y33659D01*
X43372Y33274D01*
X43480Y32781D01*
X43388Y32284D01*
X43109Y31862D01*
X43002Y31756D01*
X42194Y29806D01*
X42194Y27630D01*
X42264Y27293D01*
X42171Y26796D01*
X41892Y26375D01*
X26224Y10707D01*
X25858Y10452D01*
X25366Y10336D01*
X24868Y10420D01*
X24442Y10693D01*
X24157Y11110D01*
X24056Y11605D01*
X24056Y13556D01*
X23248Y15506D01*
X21756Y16998D01*
X19806Y17806D01*
X17695Y17806D01*
X15744Y16998D01*
X14252Y15506D01*
X13444Y13556D01*
X13444Y11380D01*
X13514Y11043D01*
X13421Y10546D01*
X13142Y10125D01*
X-6825Y-9842D01*
X-7228Y-10113D01*
G37*
%LPC*%
G36*
X-52805Y180420D02*
X-48795Y180420D01*
X-45090Y181955D01*
X-44085Y182960D01*
X-57515Y182960D01*
X-56510Y181955D01*
X-52805Y180420D01*
G37*
G36*
X-230403Y130636D02*
X-226797Y130636D01*
X-223466Y132016D01*
X-220916Y134566D01*
X-219536Y137897D01*
X-219536Y141503D01*
X-220916Y144834D01*
X-223466Y147384D01*
X-226797Y148764D01*
X-230403Y148764D01*
X-233734Y147384D01*
X-236284Y144834D01*
X-237664Y141503D01*
X-237664Y137897D01*
X-236284Y134566D01*
X-233734Y132016D01*
X-230403Y130636D01*
G37*
G36*
X-57515Y71040D02*
X-44085Y71040D01*
X-45090Y72045D01*
X-48795Y73580D01*
X-52805Y73580D01*
X-56510Y72045D01*
X-57515Y71040D01*
G37*
G36*
X-52805Y53420D02*
X-48795Y53420D01*
X-45090Y54955D01*
X-44085Y55960D01*
X-57515Y55960D01*
X-56510Y54955D01*
X-52805Y53420D01*
G37*
%LPD*%
G36*
X488160Y-43863D02*
X487665Y-43964D01*
X132723Y-43964D01*
X132246Y-43871D01*
X131825Y-43592D01*
X91858Y-3625D01*
X91591Y-3232D01*
X91486Y-2737D01*
X91556Y-2378D01*
X91556Y-195D01*
X90748Y1756D01*
X89256Y3248D01*
X87306Y4056D01*
X85195Y4056D01*
X83244Y3248D01*
X83204Y3208D01*
X82838Y2953D01*
X82346Y2837D01*
X81848Y2921D01*
X81422Y3194D01*
X81137Y3611D01*
X81036Y4106D01*
X81036Y7197D01*
X50947Y37286D01*
X48556Y37286D01*
X48098Y37371D01*
X47672Y37644D01*
X47387Y38061D01*
X47286Y38556D01*
X47286Y105873D01*
X47361Y106303D01*
X47623Y106735D01*
X48033Y107031D01*
X48526Y107143D01*
X49023Y107054D01*
X49447Y106778D01*
X49729Y106359D01*
X50502Y104494D01*
X51994Y103002D01*
X53945Y102194D01*
X56056Y102194D01*
X58006Y103002D01*
X59498Y104494D01*
X60306Y106445D01*
X60306Y108620D01*
X60236Y108957D01*
X60329Y109454D01*
X60608Y109875D01*
X107625Y156892D01*
X108018Y157159D01*
X108513Y157264D01*
X108872Y157194D01*
X111056Y157194D01*
X113006Y158002D01*
X114498Y159494D01*
X115306Y161445D01*
X115306Y163556D01*
X114498Y165506D01*
X113006Y166998D01*
X111916Y167450D01*
X111533Y167697D01*
X111241Y168109D01*
X111132Y168603D01*
X111225Y169100D01*
X111504Y169521D01*
X118075Y176092D01*
X118478Y176363D01*
X118973Y176464D01*
X124697Y176464D01*
X127626Y179393D01*
X127992Y179648D01*
X128484Y179764D01*
X128982Y179680D01*
X129408Y179407D01*
X129693Y178990D01*
X129794Y178495D01*
X129794Y175830D01*
X131302Y172189D01*
X132787Y170704D01*
X133042Y170338D01*
X133158Y169846D01*
X133073Y169348D01*
X132801Y168922D01*
X132384Y168637D01*
X131889Y168536D01*
X129053Y168536D01*
X77375Y116858D01*
X76982Y116591D01*
X76487Y116486D01*
X76128Y116556D01*
X73945Y116556D01*
X71994Y115748D01*
X70502Y114256D01*
X69694Y112306D01*
X69694Y110195D01*
X70502Y108244D01*
X71994Y106752D01*
X73945Y105944D01*
X74674Y105944D01*
X75132Y105859D01*
X75558Y105586D01*
X75843Y105169D01*
X75944Y104674D01*
X75944Y102695D01*
X76752Y100744D01*
X78244Y99252D01*
X80195Y98444D01*
X82306Y98444D01*
X84256Y99252D01*
X85748Y100744D01*
X86556Y102695D01*
X86556Y104870D01*
X86486Y105207D01*
X86579Y105704D01*
X86858Y106125D01*
X91276Y110543D01*
X91642Y110798D01*
X92134Y110914D01*
X92632Y110830D01*
X93058Y110557D01*
X93343Y110140D01*
X93444Y109645D01*
X93444Y108945D01*
X94252Y106994D01*
X95744Y105502D01*
X97695Y104694D01*
X99806Y104694D01*
X101756Y105502D01*
X103354Y107100D01*
X103428Y107215D01*
X103840Y107507D01*
X104334Y107616D01*
X104831Y107523D01*
X105252Y107244D01*
X105744Y106752D01*
X107695Y105944D01*
X109806Y105944D01*
X111756Y106752D01*
X113248Y108244D01*
X114056Y110195D01*
X114056Y112370D01*
X113986Y112707D01*
X114079Y113204D01*
X114358Y113625D01*
X125575Y124842D01*
X125978Y125113D01*
X126473Y125214D01*
X196489Y125214D01*
X196928Y125136D01*
X197358Y124870D01*
X197651Y124458D01*
X197759Y123964D01*
X197667Y123467D01*
X197387Y123046D01*
X195448Y121107D01*
X194056Y117746D01*
X194056Y98868D01*
X195448Y95507D01*
X198020Y92935D01*
X201381Y91543D01*
X205019Y91543D01*
X208380Y92935D01*
X210952Y95507D01*
X212344Y98868D01*
X212344Y117746D01*
X210952Y121107D01*
X209013Y123046D01*
X208758Y123412D01*
X208641Y123904D01*
X208726Y124402D01*
X208998Y124828D01*
X209415Y125113D01*
X209911Y125214D01*
X221889Y125214D01*
X222328Y125136D01*
X222758Y124870D01*
X223051Y124458D01*
X223159Y123964D01*
X223067Y123467D01*
X222787Y123046D01*
X220848Y121107D01*
X219456Y117746D01*
X219456Y98868D01*
X220848Y95507D01*
X223420Y92935D01*
X226781Y91543D01*
X230419Y91543D01*
X233780Y92935D01*
X236352Y95507D01*
X237744Y98868D01*
X237744Y117746D01*
X236352Y121107D01*
X234413Y123046D01*
X234158Y123412D01*
X234041Y123904D01*
X234126Y124402D01*
X234398Y124828D01*
X234815Y125113D01*
X235311Y125214D01*
X486585Y125214D01*
X487097Y125106D01*
X487510Y124815D01*
X487776Y124385D01*
X487854Y123886D01*
X487731Y123396D01*
X487426Y122992D01*
X486988Y122740D01*
X482508Y121241D01*
X481569Y119357D01*
X481903Y118360D01*
X495691Y122973D01*
X499353Y112030D01*
X503196Y113315D01*
X504134Y115199D01*
X503993Y115620D01*
X503929Y115963D01*
X504006Y116462D01*
X504271Y116892D01*
X504684Y117185D01*
X505177Y117293D01*
X505674Y117201D01*
X506096Y116921D01*
X515660Y107358D01*
X515923Y106974D01*
X516031Y106480D01*
X515939Y105983D01*
X515660Y105562D01*
X513020Y102922D01*
X511641Y99592D01*
X511641Y95988D01*
X513020Y92658D01*
X515568Y90110D01*
X518898Y88731D01*
X522502Y88731D01*
X523851Y89289D01*
X524276Y89384D01*
X524776Y89308D01*
X525206Y89042D01*
X525498Y88630D01*
X525607Y88136D01*
X525514Y87639D01*
X525235Y87218D01*
X504788Y66771D01*
X504418Y66514D01*
X503926Y66399D01*
X493691Y66114D01*
X492823Y65196D01*
X493110Y54938D01*
X494027Y54070D01*
X510283Y54524D01*
X511151Y55442D01*
X510861Y65816D01*
X510953Y66328D01*
X511232Y66750D01*
X524229Y79746D01*
X524604Y80005D01*
X525097Y80118D01*
X525594Y80029D01*
X526018Y79753D01*
X526300Y79334D01*
X526752Y78244D01*
X528244Y76752D01*
X530195Y75944D01*
X532370Y75944D01*
X532707Y76014D01*
X533204Y75921D01*
X533625Y75642D01*
X541421Y67846D01*
X541678Y67476D01*
X541792Y66984D01*
X542091Y56306D01*
X542289Y56118D01*
X542578Y55709D01*
X542686Y55216D01*
X542594Y54719D01*
X542315Y54297D01*
X515103Y27085D01*
X514769Y26846D01*
X514280Y26716D01*
X513780Y26787D01*
X513347Y27047D01*
X513049Y27456D01*
X512935Y27948D01*
X512789Y33162D01*
X511261Y34608D01*
X507210Y34495D01*
X507532Y22959D01*
X492414Y22537D01*
X492195Y22387D01*
X491699Y22286D01*
X489053Y22286D01*
X487714Y20947D01*
X487714Y-40947D01*
X488563Y-41796D01*
X488818Y-42162D01*
X488934Y-42654D01*
X488850Y-43152D01*
X488577Y-43578D01*
X488160Y-43863D01*
G37*
%LPC*%
G36*
X364864Y84328D02*
X371736Y84328D01*
X378084Y86957D01*
X382943Y91816D01*
X385572Y98164D01*
X385572Y105036D01*
X382943Y111384D01*
X378084Y116243D01*
X371736Y118872D01*
X364864Y118872D01*
X358516Y116243D01*
X353657Y111384D01*
X351028Y105036D01*
X351028Y98164D01*
X353657Y91816D01*
X358516Y86957D01*
X364864Y84328D01*
G37*
G36*
X485092Y108827D02*
X486975Y107888D01*
X490818Y109174D01*
X490012Y111583D01*
X484758Y109825D01*
X485092Y108827D01*
G37*
G36*
X365162Y-41174D02*
X371438Y-41174D01*
X377235Y-38773D01*
X381673Y-34335D01*
X384074Y-28538D01*
X384074Y-22262D01*
X381673Y-16465D01*
X381600Y-16392D01*
X381345Y-16026D01*
X381229Y-15534D01*
X381313Y-15036D01*
X381586Y-14610D01*
X382003Y-14325D01*
X382498Y-14224D01*
X439465Y-14224D01*
X439933Y-14313D01*
X440356Y-14589D01*
X440639Y-15008D01*
X441828Y-17880D01*
X444400Y-20452D01*
X447761Y-21844D01*
X466639Y-21844D01*
X470000Y-20452D01*
X472572Y-17880D01*
X473964Y-14519D01*
X473964Y-11317D01*
X474057Y-10841D01*
X474336Y-10419D01*
X483640Y-1116D01*
X483840Y-878D01*
X483970Y-657D01*
X484061Y-416D01*
X484114Y-145D01*
X484124Y34D01*
X484124Y50746D01*
X484098Y51056D01*
X484033Y51305D01*
X483928Y51539D01*
X483773Y51768D01*
X483653Y51902D01*
X471016Y64540D01*
X470778Y64740D01*
X470557Y64870D01*
X470316Y64961D01*
X470045Y65014D01*
X469866Y65024D01*
X190554Y65024D01*
X190244Y64998D01*
X189995Y64933D01*
X189761Y64828D01*
X189532Y64673D01*
X189398Y64553D01*
X176760Y51916D01*
X176560Y51678D01*
X176430Y51457D01*
X176339Y51216D01*
X176286Y50945D01*
X176276Y50766D01*
X176276Y54D01*
X176302Y-256D01*
X176367Y-505D01*
X176472Y-739D01*
X176627Y-968D01*
X176747Y-1102D01*
X186064Y-10419D01*
X186335Y-10822D01*
X186436Y-11317D01*
X186436Y-14519D01*
X187828Y-17880D01*
X190400Y-20452D01*
X193761Y-21844D01*
X212639Y-21844D01*
X216000Y-20452D01*
X218572Y-17880D01*
X219761Y-15008D01*
X220023Y-14610D01*
X220439Y-14325D01*
X220935Y-14224D01*
X261665Y-14224D01*
X262133Y-14313D01*
X262556Y-14589D01*
X262839Y-15008D01*
X264028Y-17880D01*
X266600Y-20452D01*
X269961Y-21844D01*
X288839Y-21844D01*
X292200Y-20452D01*
X294772Y-17880D01*
X295961Y-15008D01*
X296223Y-14610D01*
X296639Y-14325D01*
X297135Y-14224D01*
X354102Y-14224D01*
X354541Y-14302D01*
X354971Y-14568D01*
X355264Y-14980D01*
X355372Y-15474D01*
X355279Y-15971D01*
X355000Y-16392D01*
X354927Y-16465D01*
X352526Y-22262D01*
X352526Y-28538D01*
X354927Y-34335D01*
X359365Y-38773D01*
X365162Y-41174D01*
G37*
G36*
X492717Y32601D02*
X492747Y31550D01*
X498284Y31704D01*
X498214Y34243D01*
X494163Y34130D01*
X492717Y32601D01*
G37*
%LPD*%
G36*
X-462020Y-63598D02*
X-462514Y-63707D01*
X-463011Y-63614D01*
X-463432Y-63335D01*
X-471553Y-55214D01*
X-547694Y-55214D01*
X-548152Y-55129D01*
X-548578Y-54856D01*
X-548863Y-54439D01*
X-548964Y-53944D01*
X-548964Y-38815D01*
X-548879Y-38357D01*
X-548606Y-37931D01*
X-548189Y-37645D01*
X-547694Y-37545D01*
X-542355Y-37545D01*
X-541462Y-36652D01*
X-541462Y-26471D01*
X-541369Y-25995D01*
X-541090Y-25573D01*
X-528175Y-12658D01*
X-527772Y-12387D01*
X-527277Y-12286D01*
X-525645Y-12286D01*
X-525178Y-12375D01*
X-524754Y-12651D01*
X-524550Y-12954D01*
X-523006Y-14498D01*
X-521056Y-15306D01*
X-518945Y-15306D01*
X-516994Y-14498D01*
X-515502Y-13006D01*
X-514694Y-11056D01*
X-514694Y-8945D01*
X-515502Y-6994D01*
X-516994Y-5502D01*
X-518859Y-4729D01*
X-519227Y-4496D01*
X-519526Y-4088D01*
X-519643Y-3596D01*
X-519558Y-3098D01*
X-519285Y-2672D01*
X-518869Y-2387D01*
X-518373Y-2286D01*
X-466056Y-2286D01*
X-465598Y-2371D01*
X-465172Y-2644D01*
X-464887Y-3061D01*
X-464786Y-3556D01*
X-464786Y-45947D01*
X-457007Y-53726D01*
X-456748Y-54101D01*
X-456635Y-54594D01*
X-456724Y-55091D01*
X-457000Y-55515D01*
X-457205Y-55653D01*
X-459872Y-58320D01*
X-461264Y-61681D01*
X-461264Y-62437D01*
X-461342Y-62876D01*
X-461608Y-63306D01*
X-462020Y-63598D01*
G37*
%LPC*%
G36*
X-511526Y-27021D02*
X-505986Y-27021D01*
X-505986Y-24481D01*
X-510038Y-24481D01*
X-511526Y-25969D01*
X-511526Y-27021D01*
G37*
G36*
X-496986Y-27021D02*
X-491446Y-27021D01*
X-491446Y-25969D01*
X-492934Y-24481D01*
X-496986Y-24481D01*
X-496986Y-27021D01*
G37*
G36*
X-496986Y-38561D02*
X-492934Y-38561D01*
X-491446Y-37073D01*
X-491446Y-36021D01*
X-496986Y-36021D01*
X-496986Y-38561D01*
G37*
G36*
X-510038Y-38561D02*
X-505986Y-38561D01*
X-505986Y-36021D01*
X-511526Y-36021D01*
X-511526Y-37073D01*
X-510038Y-38561D01*
G37*
%LPD*%
G36*
X119410Y-108863D02*
X118915Y-108964D01*
X8599Y-108964D01*
X8161Y-108886D01*
X7731Y-108620D01*
X7438Y-108208D01*
X7330Y-107714D01*
X7422Y-107217D01*
X7701Y-106796D01*
X9770Y-104728D01*
X11524Y-100492D01*
X11524Y-95908D01*
X9770Y-91672D01*
X6528Y-88430D01*
X2286Y-86673D01*
X1910Y-86433D01*
X1615Y-86023D01*
X1502Y-85530D01*
X1591Y-85033D01*
X1867Y-84609D01*
X2286Y-84327D01*
X6528Y-82570D01*
X9770Y-79328D01*
X11524Y-75092D01*
X11524Y-70508D01*
X9770Y-66272D01*
X6528Y-63030D01*
X2292Y-61276D01*
X-2292Y-61276D01*
X-6528Y-63030D01*
X-9770Y-66272D01*
X-11524Y-70508D01*
X-11524Y-75092D01*
X-9770Y-79328D01*
X-6528Y-82570D01*
X-2286Y-84327D01*
X-1910Y-84567D01*
X-1615Y-84977D01*
X-1502Y-85470D01*
X-1591Y-85967D01*
X-1867Y-86391D01*
X-2286Y-86673D01*
X-6528Y-88430D01*
X-9770Y-91672D01*
X-11524Y-95908D01*
X-11524Y-100194D01*
X-11609Y-100652D01*
X-11882Y-101078D01*
X-12299Y-101363D01*
X-12794Y-101464D01*
X-332277Y-101464D01*
X-332754Y-101371D01*
X-333175Y-101092D01*
X-386892Y-47375D01*
X-387159Y-46982D01*
X-387264Y-46487D01*
X-387194Y-46128D01*
X-387194Y-44076D01*
X-387109Y-43618D01*
X-386836Y-43192D01*
X-386419Y-42907D01*
X-385924Y-42806D01*
X-385195Y-42806D01*
X-383244Y-41998D01*
X-381706Y-40460D01*
X-381517Y-40172D01*
X-381100Y-39887D01*
X-380605Y-39786D01*
X-238561Y-39786D01*
X-238094Y-39875D01*
X-237670Y-40151D01*
X-237388Y-40570D01*
X-236284Y-43234D01*
X-233734Y-45784D01*
X-230403Y-47164D01*
X-226797Y-47164D01*
X-223466Y-45784D01*
X-220916Y-43234D01*
X-219536Y-39903D01*
X-219536Y-36297D01*
X-220916Y-32966D01*
X-221928Y-31954D01*
X-222183Y-31588D01*
X-222299Y-31096D01*
X-222214Y-30598D01*
X-221942Y-30172D01*
X-221525Y-29887D01*
X-221030Y-29786D01*
X-77723Y-29786D01*
X-77246Y-29879D01*
X-76825Y-30158D01*
X-54685Y-52298D01*
X-54426Y-52673D01*
X-54313Y-53166D01*
X-54402Y-53663D01*
X-54678Y-54087D01*
X-55097Y-54369D01*
X-56510Y-54955D01*
X-57515Y-55960D01*
X-43439Y-55960D01*
X-43377Y-55598D01*
X-43105Y-55172D01*
X-42688Y-54887D01*
X-42193Y-54786D01*
X68998Y-54786D01*
X69446Y-54868D01*
X69874Y-55137D01*
X70164Y-55551D01*
X70268Y-56046D01*
X70171Y-56542D01*
X69694Y-57695D01*
X69694Y-59806D01*
X70502Y-61756D01*
X71994Y-63248D01*
X73945Y-64056D01*
X76120Y-64056D01*
X76457Y-63986D01*
X76954Y-64079D01*
X77375Y-64358D01*
X119813Y-106796D01*
X120068Y-107162D01*
X120184Y-107654D01*
X120100Y-108152D01*
X119827Y-108578D01*
X119410Y-108863D01*
G37*
%LPC*%
G36*
X-235315Y-55960D02*
X-221885Y-55960D01*
X-222890Y-54955D01*
X-226595Y-53420D01*
X-230605Y-53420D01*
X-234310Y-54955D01*
X-235315Y-55960D01*
G37*
G36*
X-52805Y-73580D02*
X-48795Y-73580D01*
X-45090Y-72045D01*
X-44085Y-71040D01*
X-57515Y-71040D01*
X-56510Y-72045D01*
X-52805Y-73580D01*
G37*
G36*
X-230605Y-73580D02*
X-226595Y-73580D01*
X-222890Y-72045D01*
X-221885Y-71040D01*
X-235315Y-71040D01*
X-234310Y-72045D01*
X-230605Y-73580D01*
G37*
G36*
X-230403Y-97964D02*
X-226797Y-97964D01*
X-223466Y-96584D01*
X-220916Y-94034D01*
X-219536Y-90703D01*
X-219536Y-87097D01*
X-220916Y-83766D01*
X-223466Y-81216D01*
X-226797Y-79836D01*
X-230403Y-79836D01*
X-233734Y-81216D01*
X-236284Y-83766D01*
X-237664Y-87097D01*
X-237664Y-90703D01*
X-236284Y-94034D01*
X-233734Y-96584D01*
X-230403Y-97964D01*
G37*
G36*
X-52603Y-97964D02*
X-48997Y-97964D01*
X-45666Y-96584D01*
X-43116Y-94034D01*
X-41736Y-90703D01*
X-41736Y-87097D01*
X-43116Y-83766D01*
X-45666Y-81216D01*
X-48997Y-79836D01*
X-52603Y-79836D01*
X-55934Y-81216D01*
X-58484Y-83766D01*
X-59864Y-87097D01*
X-59864Y-90703D01*
X-58484Y-94034D01*
X-55934Y-96584D01*
X-52603Y-97964D01*
G37*
%LPD*%
G36*
X85431Y-538863D02*
X84936Y-538964D01*
X78973Y-538964D01*
X78496Y-538871D01*
X78075Y-538592D01*
X73447Y-533964D01*
X29752Y-533964D01*
X29304Y-533882D01*
X28876Y-533613D01*
X28587Y-533199D01*
X28482Y-532704D01*
X28579Y-532208D01*
X29056Y-531055D01*
X29056Y-528945D01*
X28248Y-526994D01*
X26756Y-525502D01*
X24806Y-524694D01*
X22630Y-524694D01*
X22293Y-524764D01*
X21796Y-524671D01*
X21375Y-524392D01*
X-4053Y-498964D01*
X-29384Y-498964D01*
X-29842Y-498879D01*
X-30268Y-498606D01*
X-30554Y-498189D01*
X-30654Y-497694D01*
X-30654Y-492661D01*
X-31547Y-491769D01*
X-41810Y-491769D01*
X-42702Y-492661D01*
X-42702Y-508924D01*
X-41810Y-509817D01*
X-31547Y-509817D01*
X-30654Y-508924D01*
X-30654Y-504806D01*
X-30569Y-504348D01*
X-30296Y-503922D01*
X-29880Y-503637D01*
X-29384Y-503536D01*
X-6473Y-503536D01*
X-5996Y-503629D01*
X-5575Y-503908D01*
X18142Y-527625D01*
X18409Y-528018D01*
X18514Y-528513D01*
X18444Y-528872D01*
X18444Y-531055D01*
X18540Y-531286D01*
X18635Y-531722D01*
X18555Y-532221D01*
X18286Y-532649D01*
X17871Y-532938D01*
X17376Y-533042D01*
X16880Y-532946D01*
X14502Y-531961D01*
X10898Y-531961D01*
X9416Y-532574D01*
X8950Y-532671D01*
X8453Y-532578D01*
X8032Y-532299D01*
X3447Y-527714D01*
X-79644Y-527714D01*
X-80083Y-527636D01*
X-80513Y-527370D01*
X-80806Y-526958D01*
X-80914Y-526464D01*
X-80821Y-525967D01*
X-80542Y-525546D01*
X-80502Y-525506D01*
X-79694Y-523556D01*
X-79694Y-521445D01*
X-80502Y-519494D01*
X-81994Y-518002D01*
X-83945Y-517194D01*
X-86120Y-517194D01*
X-86457Y-517264D01*
X-86954Y-517171D01*
X-87375Y-516892D01*
X-117803Y-486464D01*
X-124134Y-486464D01*
X-124591Y-486379D01*
X-125017Y-486107D01*
X-125303Y-485691D01*
X-125404Y-485195D01*
X-125304Y-484700D01*
X-124489Y-482771D01*
X-124964Y-481601D01*
X-134418Y-477608D01*
X-135588Y-478083D01*
X-141916Y-493064D01*
X-141441Y-494234D01*
X-131987Y-498227D01*
X-130818Y-497752D01*
X-128308Y-491812D01*
X-128051Y-491422D01*
X-127634Y-491137D01*
X-127138Y-491036D01*
X-120223Y-491036D01*
X-119746Y-491129D01*
X-119325Y-491408D01*
X-90608Y-520125D01*
X-90341Y-520518D01*
X-90236Y-521013D01*
X-90333Y-521509D01*
X-90385Y-521636D01*
X-90388Y-521650D01*
X-90397Y-521664D01*
X-90403Y-521678D01*
X-90405Y-521677D01*
X-90657Y-522078D01*
X-91071Y-522367D01*
X-91566Y-522471D01*
X-92062Y-522375D01*
X-93448Y-521801D01*
X-97052Y-521801D01*
X-99213Y-522696D01*
X-99679Y-522792D01*
X-100175Y-522699D01*
X-100597Y-522420D01*
X-121553Y-501464D01*
X-189623Y-501464D01*
X-190053Y-501389D01*
X-190485Y-501127D01*
X-190781Y-500717D01*
X-190893Y-500224D01*
X-190804Y-499727D01*
X-190528Y-499303D01*
X-190109Y-499021D01*
X-188244Y-498248D01*
X-186752Y-496756D01*
X-185944Y-494806D01*
X-185944Y-492695D01*
X-186752Y-490744D01*
X-188244Y-489252D01*
X-190195Y-488444D01*
X-192370Y-488444D01*
X-192707Y-488514D01*
X-193204Y-488421D01*
X-193625Y-488142D01*
X-232952Y-448816D01*
X-233267Y-448293D01*
X-233317Y-447790D01*
X-233168Y-447308D01*
X-229983Y-441491D01*
X-230337Y-440279D01*
X-239339Y-435350D01*
X-240551Y-435705D01*
X-248360Y-449969D01*
X-248006Y-451181D01*
X-239004Y-456109D01*
X-237792Y-455755D01*
X-236726Y-453807D01*
X-236538Y-453548D01*
X-236126Y-453256D01*
X-235632Y-453147D01*
X-235135Y-453240D01*
X-234714Y-453519D01*
X-196858Y-491375D01*
X-196591Y-491768D01*
X-196486Y-492263D01*
X-196556Y-492622D01*
X-196556Y-494806D01*
X-195748Y-496756D01*
X-194256Y-498248D01*
X-192391Y-499021D01*
X-192023Y-499254D01*
X-191724Y-499662D01*
X-191607Y-500154D01*
X-191692Y-500652D01*
X-191965Y-501078D01*
X-192381Y-501363D01*
X-192877Y-501464D01*
X-199777Y-501464D01*
X-200254Y-501371D01*
X-200675Y-501092D01*
X-202383Y-499384D01*
X-202651Y-498991D01*
X-202755Y-498496D01*
X-202658Y-498000D01*
X-201761Y-495832D01*
X-201761Y-492228D01*
X-203140Y-488898D01*
X-205688Y-486350D01*
X-209018Y-484971D01*
X-212622Y-484971D01*
X-215952Y-486350D01*
X-218500Y-488898D01*
X-219880Y-492228D01*
X-219880Y-495832D01*
X-218500Y-499162D01*
X-215952Y-501710D01*
X-213392Y-502771D01*
X-213024Y-503004D01*
X-212725Y-503412D01*
X-212608Y-503904D01*
X-212693Y-504402D01*
X-212966Y-504828D01*
X-213382Y-505113D01*
X-213878Y-505214D01*
X-233162Y-505214D01*
X-233592Y-505139D01*
X-234024Y-504877D01*
X-234319Y-504467D01*
X-234432Y-503974D01*
X-234343Y-503477D01*
X-234067Y-503053D01*
X-233648Y-502771D01*
X-231088Y-501710D01*
X-228540Y-499162D01*
X-227161Y-495832D01*
X-227161Y-492228D01*
X-228540Y-488898D01*
X-231088Y-486350D01*
X-234418Y-484971D01*
X-238022Y-484971D01*
X-241352Y-486350D01*
X-243900Y-488898D01*
X-245280Y-492228D01*
X-245280Y-495832D01*
X-243900Y-499162D01*
X-241352Y-501710D01*
X-238792Y-502771D01*
X-238424Y-503004D01*
X-238125Y-503412D01*
X-238008Y-503904D01*
X-238093Y-504402D01*
X-238366Y-504828D01*
X-238782Y-505113D01*
X-239278Y-505214D01*
X-242277Y-505214D01*
X-242754Y-505121D01*
X-243175Y-504842D01*
X-256390Y-491627D01*
X-256705Y-491105D01*
X-256756Y-490602D01*
X-256606Y-490119D01*
X-253514Y-484471D01*
X-253868Y-483259D01*
X-259554Y-480146D01*
X-259828Y-479944D01*
X-260113Y-479527D01*
X-260214Y-479032D01*
X-260214Y-446895D01*
X-260125Y-446428D01*
X-259849Y-446004D01*
X-259546Y-445800D01*
X-258002Y-444256D01*
X-257194Y-442306D01*
X-257194Y-440195D01*
X-258002Y-438244D01*
X-259494Y-436752D01*
X-261678Y-435847D01*
X-261677Y-435846D01*
X-261841Y-435807D01*
X-262237Y-435493D01*
X-262480Y-435050D01*
X-262530Y-434547D01*
X-262381Y-434064D01*
X-257835Y-425762D01*
X-258426Y-423742D01*
X-259349Y-423237D01*
X-268992Y-440850D01*
X-268466Y-441138D01*
X-268192Y-441340D01*
X-267907Y-441757D01*
X-267806Y-442252D01*
X-267806Y-442306D01*
X-266998Y-444256D01*
X-265460Y-445794D01*
X-265172Y-445983D01*
X-264887Y-446400D01*
X-264786Y-446895D01*
X-264786Y-479647D01*
X-264942Y-480257D01*
X-271596Y-492411D01*
X-271890Y-492771D01*
X-272334Y-493014D01*
X-272837Y-493065D01*
X-273319Y-492915D01*
X-289475Y-484084D01*
X-289837Y-483789D01*
X-290079Y-483345D01*
X-290130Y-482842D01*
X-289980Y-482360D01*
X-282460Y-468623D01*
X-282814Y-467412D01*
X-289554Y-463722D01*
X-289828Y-463520D01*
X-290113Y-463103D01*
X-290214Y-462608D01*
X-290214Y-416553D01*
X-317967Y-388800D01*
X-318182Y-388513D01*
X-318332Y-388031D01*
X-318283Y-387528D01*
X-318040Y-387084D01*
X-315129Y-383626D01*
X-315237Y-382368D01*
X-323087Y-375758D01*
X-324345Y-375866D01*
X-334820Y-388305D01*
X-334712Y-389563D01*
X-326862Y-396174D01*
X-325604Y-396066D01*
X-322638Y-392544D01*
X-322181Y-392201D01*
X-321687Y-392092D01*
X-321190Y-392185D01*
X-320769Y-392464D01*
X-295158Y-418075D01*
X-294887Y-418478D01*
X-294786Y-418973D01*
X-294786Y-465725D01*
X-294942Y-466335D01*
X-300024Y-475617D01*
X-300400Y-476041D01*
X-300861Y-476247D01*
X-301367Y-476256D01*
X-301836Y-476068D01*
X-328837Y-458311D01*
X-328921Y-458251D01*
X-357661Y-435798D01*
X-357983Y-435426D01*
X-358141Y-434946D01*
X-358099Y-434442D01*
X-357864Y-433995D01*
X-357473Y-433674D01*
X-357207Y-433596D01*
X-346691Y-421107D01*
X-346799Y-419850D01*
X-354762Y-413144D01*
X-355113Y-412668D01*
X-355214Y-412172D01*
X-355214Y-398585D01*
X-355136Y-398146D01*
X-354870Y-397716D01*
X-354458Y-397424D01*
X-353964Y-397315D01*
X-353467Y-397408D01*
X-353046Y-397687D01*
X-320746Y-429987D01*
X-320478Y-430381D01*
X-320374Y-430875D01*
X-320470Y-431371D01*
X-321480Y-433808D01*
X-321480Y-437412D01*
X-320100Y-440742D01*
X-317552Y-443290D01*
X-314222Y-444670D01*
X-310618Y-444670D01*
X-307288Y-443290D01*
X-304740Y-440742D01*
X-303361Y-437412D01*
X-303361Y-433808D01*
X-304740Y-430478D01*
X-307288Y-427930D01*
X-310618Y-426551D01*
X-314222Y-426551D01*
X-315909Y-427249D01*
X-316375Y-427346D01*
X-316872Y-427253D01*
X-317293Y-426974D01*
X-384269Y-359999D01*
X-384540Y-359596D01*
X-384641Y-359101D01*
X-384641Y-356338D01*
X-386020Y-353008D01*
X-388568Y-350460D01*
X-391898Y-349081D01*
X-395502Y-349081D01*
X-398832Y-350460D01*
X-401380Y-353008D01*
X-402760Y-356338D01*
X-402760Y-359942D01*
X-401380Y-363272D01*
X-400356Y-364296D01*
X-400101Y-364662D01*
X-399985Y-365154D01*
X-400070Y-365652D01*
X-400342Y-366078D01*
X-400759Y-366363D01*
X-401254Y-366464D01*
X-411546Y-366464D01*
X-411985Y-366386D01*
X-412415Y-366120D01*
X-412707Y-365708D01*
X-412816Y-365214D01*
X-412723Y-364717D01*
X-412444Y-364296D01*
X-411420Y-363272D01*
X-410041Y-359942D01*
X-410041Y-356338D01*
X-411420Y-353008D01*
X-413968Y-350460D01*
X-417298Y-349081D01*
X-420902Y-349081D01*
X-424232Y-350460D01*
X-426780Y-353008D01*
X-428160Y-356338D01*
X-428160Y-356792D01*
X-428238Y-357230D01*
X-428503Y-357661D01*
X-428916Y-357953D01*
X-429409Y-358061D01*
X-429906Y-357969D01*
X-430328Y-357690D01*
X-434842Y-353175D01*
X-435113Y-352772D01*
X-435214Y-352277D01*
X-435214Y-347016D01*
X-435032Y-346362D01*
X-434691Y-345989D01*
X-427610Y-340845D01*
X-427412Y-339598D01*
X-433445Y-331295D01*
X-434143Y-331185D01*
X-434402Y-331115D01*
X-434828Y-330842D01*
X-435113Y-330425D01*
X-435214Y-329930D01*
X-435214Y-295223D01*
X-435121Y-294746D01*
X-434842Y-294325D01*
X-429210Y-288692D01*
X-428637Y-288363D01*
X-428133Y-288333D01*
X-427657Y-288502D01*
X-427284Y-288844D01*
X-422343Y-295645D01*
X-420265Y-295974D01*
X-416987Y-293592D01*
X-423770Y-284256D01*
X-412007Y-275710D01*
X-412658Y-274813D01*
X-413208Y-274544D01*
X-413500Y-274132D01*
X-413609Y-273638D01*
X-413516Y-273141D01*
X-413237Y-272720D01*
X-366925Y-226408D01*
X-366522Y-226137D01*
X-366027Y-226036D01*
X-273502Y-226036D01*
X-273054Y-226118D01*
X-272626Y-226387D01*
X-272337Y-226801D01*
X-272232Y-227296D01*
X-272329Y-227792D01*
X-272806Y-228945D01*
X-272806Y-231056D01*
X-271998Y-233006D01*
X-270506Y-234498D01*
X-268556Y-235306D01*
X-266380Y-235306D01*
X-266043Y-235236D01*
X-265546Y-235329D01*
X-265125Y-235608D01*
X-19358Y-481375D01*
X-19091Y-481768D01*
X-18986Y-482263D01*
X-19056Y-482622D01*
X-19056Y-484806D01*
X-18248Y-486756D01*
X-16756Y-488248D01*
X-14806Y-489056D01*
X-12695Y-489056D01*
X-10744Y-488248D01*
X-9252Y-486756D01*
X-8444Y-484806D01*
X-8444Y-482695D01*
X-9252Y-480744D01*
X-10744Y-479252D01*
X-12695Y-478444D01*
X-14870Y-478444D01*
X-15207Y-478514D01*
X-15704Y-478421D01*
X-16125Y-478142D01*
X-261892Y-232375D01*
X-262159Y-231982D01*
X-262264Y-231487D01*
X-262194Y-231128D01*
X-262194Y-228945D01*
X-262671Y-227792D01*
X-262767Y-227346D01*
X-262683Y-226848D01*
X-262410Y-226422D01*
X-261993Y-226137D01*
X-261498Y-226036D01*
X-235303Y-226036D01*
X-233710Y-224443D01*
X-233317Y-224175D01*
X-232822Y-224071D01*
X-232326Y-224168D01*
X-230403Y-224964D01*
X-226797Y-224964D01*
X-223466Y-223584D01*
X-220916Y-221034D01*
X-219536Y-217703D01*
X-219536Y-214097D01*
X-220916Y-210766D01*
X-223466Y-208216D01*
X-226797Y-206836D01*
X-230403Y-206836D01*
X-233734Y-208216D01*
X-236284Y-210766D01*
X-237664Y-214097D01*
X-237664Y-217703D01*
X-236834Y-219708D01*
X-236737Y-220154D01*
X-236822Y-220652D01*
X-237095Y-221078D01*
X-237511Y-221363D01*
X-238007Y-221464D01*
X-368447Y-221464D01*
X-436602Y-289619D01*
X-436986Y-289882D01*
X-437480Y-289991D01*
X-437977Y-289898D01*
X-438398Y-289619D01*
X-440303Y-287714D01*
X-444556Y-287714D01*
X-444995Y-287636D01*
X-445425Y-287370D01*
X-445717Y-286958D01*
X-445826Y-286464D01*
X-445733Y-285967D01*
X-445454Y-285546D01*
X-444440Y-284532D01*
X-443061Y-281202D01*
X-443061Y-277598D01*
X-444440Y-274268D01*
X-445590Y-273118D01*
X-445853Y-272734D01*
X-445961Y-272241D01*
X-445869Y-271744D01*
X-445590Y-271322D01*
X-399683Y-225416D01*
X-399280Y-225145D01*
X-398785Y-225044D01*
X-384261Y-225044D01*
X-380900Y-223652D01*
X-378328Y-221080D01*
X-376936Y-217719D01*
X-376936Y-214081D01*
X-378328Y-210720D01*
X-380900Y-208148D01*
X-384261Y-206756D01*
X-403139Y-206756D01*
X-406500Y-208148D01*
X-406796Y-208444D01*
X-407162Y-208699D01*
X-407654Y-208816D01*
X-408152Y-208731D01*
X-408578Y-208459D01*
X-408863Y-208042D01*
X-408964Y-207546D01*
X-408964Y-198854D01*
X-408886Y-198415D01*
X-408620Y-197985D01*
X-408208Y-197692D01*
X-407714Y-197584D01*
X-407217Y-197676D01*
X-406796Y-197956D01*
X-406500Y-198252D01*
X-403139Y-199644D01*
X-384261Y-199644D01*
X-380900Y-198252D01*
X-378328Y-195680D01*
X-376936Y-192319D01*
X-376936Y-188681D01*
X-378328Y-185320D01*
X-380900Y-182748D01*
X-384261Y-181356D01*
X-403139Y-181356D01*
X-406500Y-182748D01*
X-406796Y-183044D01*
X-407162Y-183299D01*
X-407654Y-183416D01*
X-408152Y-183331D01*
X-408578Y-183059D01*
X-408863Y-182642D01*
X-408964Y-182146D01*
X-408964Y-173454D01*
X-408886Y-173015D01*
X-408620Y-172585D01*
X-408208Y-172292D01*
X-407714Y-172184D01*
X-407217Y-172276D01*
X-406796Y-172556D01*
X-406500Y-172852D01*
X-403139Y-174244D01*
X-384261Y-174244D01*
X-380900Y-172852D01*
X-378328Y-170280D01*
X-376936Y-166919D01*
X-376936Y-163281D01*
X-378174Y-160292D01*
X-378270Y-159846D01*
X-378185Y-159348D01*
X-377913Y-158922D01*
X-377496Y-158637D01*
X-377001Y-158536D01*
X-237593Y-158536D01*
X-237144Y-158618D01*
X-236716Y-158887D01*
X-236427Y-159301D01*
X-236323Y-159796D01*
X-236419Y-160292D01*
X-237664Y-163297D01*
X-237664Y-166903D01*
X-236284Y-170234D01*
X-233734Y-172784D01*
X-230403Y-174164D01*
X-226797Y-174164D01*
X-223466Y-172784D01*
X-220916Y-170234D01*
X-219536Y-166903D01*
X-219536Y-163297D01*
X-220916Y-159966D01*
X-223466Y-157416D01*
X-223916Y-157229D01*
X-224284Y-156996D01*
X-224583Y-156588D01*
X-224699Y-156096D01*
X-224615Y-155598D01*
X-224342Y-155172D01*
X-223925Y-154887D01*
X-223430Y-154786D01*
X-69395Y-154786D01*
X-68928Y-154875D01*
X-68504Y-155151D01*
X-68300Y-155454D01*
X-66756Y-156998D01*
X-64806Y-157806D01*
X-62695Y-157806D01*
X-60744Y-156998D01*
X-59252Y-155506D01*
X-58444Y-153556D01*
X-58444Y-152855D01*
X-58366Y-152416D01*
X-58100Y-151986D01*
X-57688Y-151694D01*
X-57194Y-151585D01*
X-56697Y-151678D01*
X-56276Y-151957D01*
X-53660Y-154573D01*
X-53401Y-154948D01*
X-53288Y-155441D01*
X-53377Y-155938D01*
X-53653Y-156362D01*
X-54072Y-156644D01*
X-55934Y-157416D01*
X-58484Y-159966D01*
X-59864Y-163297D01*
X-59864Y-166903D01*
X-58484Y-170234D01*
X-55934Y-172784D01*
X-52603Y-174164D01*
X-48997Y-174164D01*
X-45666Y-172784D01*
X-43116Y-170234D01*
X-41736Y-166903D01*
X-41736Y-163297D01*
X-43116Y-159966D01*
X-43628Y-159454D01*
X-43883Y-159088D01*
X-43999Y-158596D01*
X-43914Y-158098D01*
X-43642Y-157672D01*
X-43225Y-157387D01*
X-42730Y-157286D01*
X-20223Y-157286D01*
X-19746Y-157379D01*
X-19325Y-157658D01*
X-10177Y-166806D01*
X-9909Y-167200D01*
X-9805Y-167694D01*
X-9901Y-168190D01*
X-11524Y-172108D01*
X-11524Y-176692D01*
X-9770Y-180928D01*
X-6528Y-184170D01*
X-3613Y-185377D01*
X-3238Y-185617D01*
X-2942Y-186027D01*
X-2830Y-186520D01*
X-2918Y-187017D01*
X-3194Y-187441D01*
X-3613Y-187724D01*
X-7103Y-189169D01*
X-8844Y-190910D01*
X8844Y-190910D01*
X7103Y-189169D01*
X3613Y-187724D01*
X3238Y-187483D01*
X2942Y-187073D01*
X2830Y-186581D01*
X2918Y-186083D01*
X3194Y-185659D01*
X3613Y-185377D01*
X6528Y-184170D01*
X9770Y-180928D01*
X11471Y-176820D01*
X11732Y-176422D01*
X12149Y-176137D01*
X12644Y-176036D01*
X64355Y-176036D01*
X64822Y-176125D01*
X65246Y-176401D01*
X65451Y-176704D01*
X66994Y-178248D01*
X68945Y-179056D01*
X71056Y-179056D01*
X73006Y-178248D01*
X74498Y-176756D01*
X75306Y-174806D01*
X75306Y-172855D01*
X75384Y-172416D01*
X75650Y-171986D01*
X76062Y-171694D01*
X76556Y-171585D01*
X77053Y-171678D01*
X77474Y-171957D01*
X132803Y-227286D01*
X139942Y-227286D01*
X140409Y-227375D01*
X140833Y-227651D01*
X141115Y-228070D01*
X142630Y-231728D01*
X145872Y-234970D01*
X150108Y-236724D01*
X154692Y-236724D01*
X158928Y-234970D01*
X162170Y-231728D01*
X163924Y-227492D01*
X163924Y-222908D01*
X162170Y-218672D01*
X160451Y-216954D01*
X160196Y-216588D01*
X160080Y-216096D01*
X160165Y-215598D01*
X160437Y-215172D01*
X160854Y-214887D01*
X161349Y-214786D01*
X226027Y-214786D01*
X226504Y-214879D01*
X226925Y-215158D01*
X340642Y-328875D01*
X340909Y-329268D01*
X341014Y-329763D01*
X340944Y-330122D01*
X340944Y-332306D01*
X341752Y-334256D01*
X343244Y-335748D01*
X345195Y-336556D01*
X347306Y-336556D01*
X349256Y-335748D01*
X350748Y-334256D01*
X351556Y-332306D01*
X351556Y-330195D01*
X350748Y-328244D01*
X349256Y-326752D01*
X347306Y-325944D01*
X345130Y-325944D01*
X344793Y-326014D01*
X344296Y-325921D01*
X343875Y-325642D01*
X228447Y-210214D01*
X161349Y-210214D01*
X160911Y-210136D01*
X160481Y-209870D01*
X160188Y-209458D01*
X160080Y-208964D01*
X160172Y-208467D01*
X160451Y-208046D01*
X162170Y-206328D01*
X163924Y-202092D01*
X163924Y-197508D01*
X162170Y-193272D01*
X158928Y-190030D01*
X154686Y-188273D01*
X154310Y-188033D01*
X154015Y-187623D01*
X153902Y-187130D01*
X153991Y-186633D01*
X154267Y-186209D01*
X154686Y-185927D01*
X158928Y-184170D01*
X162170Y-180928D01*
X163924Y-176692D01*
X163924Y-172108D01*
X162170Y-167872D01*
X158928Y-164630D01*
X154686Y-162873D01*
X154310Y-162633D01*
X154015Y-162223D01*
X153902Y-161730D01*
X153991Y-161233D01*
X154267Y-160809D01*
X154686Y-160527D01*
X158928Y-158770D01*
X162170Y-155528D01*
X163924Y-151292D01*
X163924Y-146708D01*
X162170Y-142472D01*
X160401Y-140704D01*
X160146Y-140338D01*
X160030Y-139846D01*
X160115Y-139348D01*
X160387Y-138922D01*
X160804Y-138637D01*
X161299Y-138536D01*
X191855Y-138536D01*
X192322Y-138625D01*
X192746Y-138901D01*
X192951Y-139204D01*
X194494Y-140748D01*
X196445Y-141556D01*
X198556Y-141556D01*
X200506Y-140748D01*
X201998Y-139256D01*
X202806Y-137306D01*
X202806Y-135195D01*
X201998Y-133244D01*
X200506Y-131752D01*
X198556Y-130944D01*
X196445Y-130944D01*
X194494Y-131752D01*
X192956Y-133290D01*
X192767Y-133578D01*
X192350Y-133863D01*
X191855Y-133964D01*
X161399Y-133964D01*
X160961Y-133886D01*
X160531Y-133620D01*
X160238Y-133208D01*
X160130Y-132714D01*
X160222Y-132217D01*
X160501Y-131796D01*
X162170Y-130128D01*
X163924Y-125892D01*
X163924Y-121308D01*
X162170Y-117072D01*
X160801Y-115704D01*
X160546Y-115338D01*
X160430Y-114846D01*
X160515Y-114348D01*
X160787Y-113922D01*
X161204Y-113637D01*
X161699Y-113536D01*
X253527Y-113536D01*
X254004Y-113629D01*
X254425Y-113908D01*
X393142Y-252625D01*
X393409Y-253018D01*
X393514Y-253513D01*
X393444Y-253872D01*
X393444Y-256056D01*
X394252Y-258006D01*
X395744Y-259498D01*
X397695Y-260306D01*
X399806Y-260306D01*
X401756Y-259498D01*
X403248Y-258006D01*
X404056Y-256056D01*
X404056Y-253945D01*
X403248Y-251994D01*
X401756Y-250502D01*
X399806Y-249694D01*
X397630Y-249694D01*
X397293Y-249764D01*
X396796Y-249671D01*
X396375Y-249392D01*
X255947Y-108964D01*
X160999Y-108964D01*
X160561Y-108886D01*
X160131Y-108620D01*
X159838Y-108208D01*
X159730Y-107714D01*
X159822Y-107217D01*
X160101Y-106796D01*
X162170Y-104728D01*
X163924Y-100492D01*
X163924Y-95908D01*
X162170Y-91672D01*
X158928Y-88430D01*
X154686Y-86673D01*
X154310Y-86433D01*
X154015Y-86023D01*
X153902Y-85530D01*
X153991Y-85033D01*
X154267Y-84609D01*
X154686Y-84327D01*
X158928Y-82570D01*
X162170Y-79328D01*
X163924Y-75092D01*
X163924Y-70508D01*
X162170Y-66272D01*
X160351Y-64454D01*
X160096Y-64088D01*
X159980Y-63596D01*
X160065Y-63098D01*
X160337Y-62672D01*
X160754Y-62387D01*
X161249Y-62286D01*
X359777Y-62286D01*
X360254Y-62379D01*
X360675Y-62658D01*
X448142Y-150125D01*
X448409Y-150518D01*
X448514Y-151013D01*
X448444Y-151372D01*
X448444Y-153556D01*
X449252Y-155506D01*
X450744Y-156998D01*
X452695Y-157806D01*
X454806Y-157806D01*
X456756Y-156998D01*
X458248Y-155506D01*
X459056Y-153556D01*
X459056Y-151445D01*
X458248Y-149494D01*
X456756Y-148002D01*
X454806Y-147194D01*
X452630Y-147194D01*
X452293Y-147264D01*
X451796Y-147171D01*
X451375Y-146892D01*
X362197Y-57714D01*
X127723Y-57714D01*
X127246Y-57621D01*
X126825Y-57342D01*
X126437Y-56954D01*
X126182Y-56588D01*
X126066Y-56096D01*
X126150Y-55598D01*
X126423Y-55172D01*
X126840Y-54887D01*
X127335Y-54786D01*
X461855Y-54786D01*
X462322Y-54875D01*
X462746Y-55151D01*
X462951Y-55454D01*
X464494Y-56998D01*
X466445Y-57806D01*
X468556Y-57806D01*
X470506Y-56998D01*
X471998Y-55506D01*
X472806Y-53556D01*
X472806Y-51445D01*
X472329Y-50292D01*
X472233Y-49846D01*
X472317Y-49348D01*
X472590Y-48922D01*
X473007Y-48637D01*
X473502Y-48536D01*
X493527Y-48536D01*
X494004Y-48629D01*
X494425Y-48908D01*
X504908Y-59391D01*
X505163Y-59756D01*
X505279Y-60248D01*
X505194Y-60746D01*
X504922Y-61172D01*
X504505Y-61458D01*
X504010Y-61559D01*
X492386Y-61559D01*
X490898Y-63046D01*
X490898Y-64099D01*
X505438Y-64099D01*
X505438Y-75639D01*
X509490Y-75639D01*
X510978Y-74151D01*
X510978Y-68527D01*
X511056Y-68088D01*
X511322Y-67658D01*
X511734Y-67365D01*
X512228Y-67257D01*
X512724Y-67350D01*
X513146Y-67629D01*
X514842Y-69325D01*
X515113Y-69728D01*
X515214Y-70223D01*
X515214Y-95976D01*
X515125Y-96443D01*
X514849Y-96867D01*
X514430Y-97149D01*
X513028Y-97730D01*
X510480Y-100278D01*
X509101Y-103608D01*
X509101Y-107212D01*
X510480Y-110542D01*
X511734Y-111796D01*
X511989Y-112162D01*
X512105Y-112654D01*
X512021Y-113152D01*
X511748Y-113578D01*
X511331Y-113863D01*
X510836Y-113964D01*
X500303Y-113964D01*
X492326Y-121941D01*
X491887Y-122227D01*
X491389Y-122313D01*
X490897Y-122197D01*
X484651Y-119324D01*
X483467Y-119762D01*
X479179Y-129086D01*
X479617Y-130270D01*
X494391Y-137065D01*
X495575Y-136627D01*
X499864Y-127304D01*
X499426Y-126120D01*
X497786Y-125366D01*
X497448Y-125138D01*
X497156Y-124726D01*
X497047Y-124232D01*
X497140Y-123735D01*
X497419Y-123314D01*
X501825Y-118908D01*
X502228Y-118637D01*
X502723Y-118536D01*
X522197Y-118536D01*
X526276Y-114457D01*
X526642Y-114202D01*
X527134Y-114086D01*
X527632Y-114170D01*
X528058Y-114443D01*
X528343Y-114860D01*
X528444Y-115355D01*
X528444Y-116056D01*
X529252Y-118006D01*
X530790Y-119544D01*
X531078Y-119733D01*
X531363Y-120150D01*
X531464Y-120645D01*
X531464Y-138874D01*
X531364Y-139367D01*
X531079Y-139785D01*
X530654Y-140058D01*
X530155Y-140143D01*
X529663Y-140027D01*
X529168Y-139800D01*
X527984Y-140238D01*
X523696Y-149561D01*
X524134Y-150745D01*
X530725Y-153777D01*
X531078Y-154018D01*
X531363Y-154435D01*
X531464Y-154931D01*
X531464Y-174777D01*
X531371Y-175254D01*
X531092Y-175675D01*
X530804Y-175963D01*
X530366Y-176249D01*
X529868Y-176334D01*
X529376Y-176218D01*
X515378Y-169780D01*
X514194Y-170218D01*
X511662Y-175725D01*
X511420Y-176078D01*
X511003Y-176363D01*
X510508Y-176464D01*
X497803Y-176464D01*
X457396Y-216871D01*
X456823Y-217201D01*
X456318Y-217230D01*
X455842Y-217061D01*
X449914Y-213485D01*
X448689Y-213788D01*
X443388Y-222575D01*
X443691Y-223801D01*
X457616Y-232201D01*
X458842Y-231898D01*
X464142Y-223110D01*
X463839Y-221885D01*
X462116Y-220845D01*
X461903Y-220684D01*
X461610Y-220271D01*
X461502Y-219778D01*
X461594Y-219281D01*
X461873Y-218859D01*
X476452Y-204280D01*
X476818Y-204025D01*
X477310Y-203909D01*
X477808Y-203994D01*
X478234Y-204266D01*
X478520Y-204683D01*
X478621Y-205178D01*
X478621Y-208812D01*
X480000Y-212142D01*
X482548Y-214690D01*
X485878Y-216070D01*
X489482Y-216070D01*
X492208Y-214940D01*
X492654Y-214844D01*
X493152Y-214929D01*
X493578Y-215202D01*
X493863Y-215618D01*
X493964Y-216114D01*
X493964Y-237808D01*
X493802Y-238429D01*
X493472Y-238812D01*
X493019Y-239036D01*
X492514Y-239065D01*
X492038Y-238895D01*
X491871Y-238795D01*
X490646Y-239098D01*
X485345Y-247885D01*
X485648Y-249111D01*
X487850Y-250439D01*
X488063Y-250601D01*
X488356Y-251013D01*
X488464Y-251507D01*
X488371Y-252004D01*
X488092Y-252425D01*
X478175Y-262342D01*
X477772Y-262613D01*
X477277Y-262714D01*
X443688Y-262714D01*
X443067Y-262552D01*
X442684Y-262222D01*
X442460Y-261769D01*
X442431Y-261264D01*
X442600Y-260788D01*
X442992Y-260139D01*
X438248Y-257277D01*
X436936Y-259452D01*
X438436Y-260357D01*
X438933Y-260912D01*
X439049Y-261404D01*
X438964Y-261902D01*
X438692Y-262328D01*
X438275Y-262613D01*
X437780Y-262714D01*
X424053Y-262714D01*
X386464Y-300303D01*
X386464Y-323000D01*
X387160Y-323696D01*
X375613Y-335243D01*
X378478Y-338108D01*
X380582Y-338108D01*
X384296Y-334394D01*
X384662Y-334139D01*
X385154Y-334023D01*
X385652Y-334108D01*
X386078Y-334380D01*
X386363Y-334797D01*
X386464Y-335293D01*
X386464Y-338447D01*
X387803Y-339786D01*
X427735Y-339786D01*
X428212Y-339879D01*
X428633Y-340158D01*
X432342Y-343867D01*
X432613Y-344269D01*
X432714Y-344765D01*
X432714Y-354777D01*
X432621Y-355254D01*
X432342Y-355675D01*
X424234Y-363783D01*
X423869Y-364038D01*
X423377Y-364154D01*
X422878Y-364070D01*
X422453Y-363797D01*
X422167Y-363380D01*
X422152Y-363307D01*
X410567Y-351722D01*
X409304Y-351722D01*
X402040Y-358987D01*
X401962Y-359402D01*
X401690Y-359828D01*
X401273Y-360113D01*
X400778Y-360214D01*
X347803Y-360214D01*
X336347Y-371670D01*
X335908Y-371957D01*
X335409Y-372042D01*
X334917Y-371926D01*
X334510Y-371627D01*
X331814Y-368664D01*
X330553Y-368605D01*
X322962Y-375512D01*
X322903Y-376773D01*
X325070Y-379155D01*
X325288Y-379487D01*
X325401Y-379979D01*
X325312Y-380477D01*
X325036Y-380901D01*
X324617Y-381183D01*
X323244Y-381752D01*
X321752Y-383244D01*
X320944Y-385195D01*
X320944Y-387306D01*
X321752Y-389256D01*
X323244Y-390748D01*
X325195Y-391556D01*
X327370Y-391556D01*
X327707Y-391486D01*
X328204Y-391579D01*
X328625Y-391858D01*
X352803Y-416036D01*
X358068Y-416036D01*
X358600Y-416153D01*
X359007Y-416451D01*
X366825Y-425043D01*
X367249Y-425063D01*
X367676Y-425159D01*
X368095Y-425442D01*
X368370Y-425865D01*
X368458Y-426363D01*
X368346Y-426856D01*
X368049Y-427265D01*
X365121Y-429964D01*
X365042Y-430031D01*
X353108Y-439355D01*
X352785Y-439538D01*
X352287Y-439623D01*
X351795Y-439507D01*
X351387Y-439209D01*
X340384Y-427116D01*
X339122Y-427056D01*
X331894Y-433633D01*
X331535Y-433863D01*
X331040Y-433964D01*
X254632Y-433964D01*
X253934Y-433755D01*
X253576Y-433399D01*
X248888Y-426369D01*
X247650Y-426122D01*
X239112Y-431816D01*
X238864Y-433054D01*
X247887Y-446583D01*
X249125Y-446831D01*
X257663Y-441137D01*
X257979Y-439557D01*
X258312Y-438922D01*
X258729Y-438637D01*
X259224Y-438536D01*
X333925Y-438536D01*
X334456Y-438653D01*
X334864Y-438951D01*
X341738Y-446505D01*
X342014Y-446992D01*
X342061Y-447495D01*
X341909Y-447977D01*
X341580Y-448361D01*
X328921Y-458251D01*
X328837Y-458311D01*
X290539Y-483497D01*
X290451Y-483551D01*
X259468Y-500487D01*
X259155Y-500608D01*
X258650Y-500625D01*
X258178Y-500445D01*
X257814Y-500094D01*
X257615Y-499629D01*
X257614Y-499124D01*
X257644Y-498974D01*
X248621Y-485445D01*
X247383Y-485197D01*
X244378Y-487201D01*
X243694Y-487414D01*
X243197Y-487322D01*
X242775Y-487042D01*
X229697Y-473964D01*
X225356Y-473964D01*
X224917Y-473886D01*
X224487Y-473620D01*
X224195Y-473208D01*
X224086Y-472714D01*
X224179Y-472217D01*
X224458Y-471796D01*
X224544Y-471710D01*
X224733Y-471422D01*
X225150Y-471137D01*
X225645Y-471036D01*
X265059Y-471036D01*
X265740Y-471234D01*
X266104Y-471585D01*
X266303Y-472049D01*
X266304Y-472555D01*
X266052Y-473820D01*
X275075Y-487349D01*
X276313Y-487597D01*
X284851Y-481902D01*
X285098Y-480664D01*
X276075Y-467135D01*
X274837Y-466887D01*
X272124Y-468697D01*
X271439Y-468910D01*
X270943Y-468817D01*
X270521Y-468538D01*
X268447Y-466464D01*
X225711Y-466464D01*
X225047Y-466277D01*
X224678Y-465932D01*
X224472Y-465470D01*
X224462Y-464965D01*
X224650Y-464496D01*
X225006Y-464137D01*
X231123Y-460058D01*
X231535Y-457995D01*
X229287Y-454624D01*
X217558Y-462446D01*
X217752Y-463059D01*
X217663Y-463557D01*
X217387Y-463980D01*
X217015Y-464231D01*
X215502Y-465744D01*
X214694Y-467695D01*
X214694Y-469806D01*
X215502Y-471756D01*
X215542Y-471796D01*
X215797Y-472162D01*
X215913Y-472654D01*
X215829Y-473152D01*
X215556Y-473578D01*
X215139Y-473863D01*
X214644Y-473964D01*
X165758Y-473964D01*
X165355Y-473898D01*
X164917Y-473646D01*
X164612Y-473243D01*
X160723Y-465125D01*
X159532Y-464706D01*
X150277Y-469140D01*
X149858Y-470331D01*
X156885Y-484997D01*
X157591Y-485246D01*
X158024Y-485504D01*
X158033Y-485517D01*
X158322Y-485299D01*
X167331Y-480982D01*
X167893Y-479384D01*
X168179Y-478922D01*
X168596Y-478637D01*
X169091Y-478536D01*
X227277Y-478536D01*
X227754Y-478629D01*
X228175Y-478908D01*
X238583Y-489316D01*
X238929Y-489957D01*
X238930Y-490463D01*
X238597Y-492129D01*
X247322Y-505212D01*
X247534Y-505853D01*
X247458Y-506353D01*
X247194Y-506783D01*
X246782Y-507077D01*
X208262Y-524223D01*
X208165Y-524261D01*
X193489Y-529409D01*
X193129Y-529479D01*
X192629Y-529402D01*
X192199Y-529137D01*
X191907Y-528725D01*
X191798Y-528231D01*
X191891Y-527734D01*
X192170Y-527313D01*
X205575Y-513908D01*
X205978Y-513637D01*
X206473Y-513536D01*
X224697Y-513536D01*
X232286Y-505947D01*
X232286Y-489053D01*
X230947Y-487714D01*
X158871Y-487714D01*
X158506Y-487661D01*
X158061Y-487422D01*
X158019Y-487371D01*
X157665Y-487613D01*
X157169Y-487714D01*
X144053Y-487714D01*
X139931Y-491836D01*
X139618Y-492065D01*
X139132Y-492204D01*
X138630Y-492142D01*
X138193Y-491890D01*
X137888Y-491487D01*
X137337Y-490337D01*
X124639Y-496420D01*
X124986Y-497145D01*
X125110Y-497654D01*
X125026Y-498152D01*
X124753Y-498578D01*
X124336Y-498863D01*
X123841Y-498964D01*
X77643Y-498964D01*
X77185Y-498879D01*
X76760Y-498606D01*
X76474Y-498189D01*
X76373Y-497694D01*
X76373Y-492571D01*
X75481Y-491678D01*
X65218Y-491678D01*
X64325Y-492571D01*
X64325Y-508834D01*
X65218Y-509726D01*
X75481Y-509726D01*
X76373Y-508834D01*
X76373Y-504806D01*
X76459Y-504348D01*
X76731Y-503922D01*
X77148Y-503637D01*
X77643Y-503536D01*
X116498Y-503536D01*
X116946Y-503618D01*
X117374Y-503887D01*
X117664Y-504301D01*
X117768Y-504796D01*
X117671Y-505292D01*
X117194Y-506445D01*
X117194Y-508556D01*
X118002Y-510506D01*
X119494Y-511998D01*
X121445Y-512806D01*
X123556Y-512806D01*
X125506Y-511998D01*
X126998Y-510506D01*
X127806Y-508555D01*
X127891Y-508098D01*
X128164Y-507672D01*
X128581Y-507387D01*
X129076Y-507286D01*
X142665Y-507286D01*
X143104Y-507364D01*
X143534Y-507630D01*
X143826Y-508042D01*
X143935Y-508536D01*
X143842Y-509033D01*
X143563Y-509454D01*
X127438Y-525580D01*
X127054Y-525843D01*
X126560Y-525951D01*
X126063Y-525859D01*
X125642Y-525580D01*
X123242Y-523180D01*
X119912Y-521801D01*
X116308Y-521801D01*
X112978Y-523180D01*
X110430Y-525728D01*
X109051Y-529058D01*
X109051Y-532662D01*
X109840Y-534568D01*
X109937Y-535034D01*
X109844Y-535531D01*
X109565Y-535952D01*
X106925Y-538592D01*
X106522Y-538863D01*
X106027Y-538964D01*
X100484Y-538964D01*
X100045Y-538886D01*
X99615Y-538620D01*
X99323Y-538208D01*
X99214Y-537714D01*
X99307Y-537217D01*
X99586Y-536796D01*
X100390Y-535992D01*
X101770Y-532662D01*
X101770Y-529058D01*
X100390Y-525728D01*
X97842Y-523180D01*
X94512Y-521801D01*
X90908Y-521801D01*
X87578Y-523180D01*
X85030Y-525728D01*
X83651Y-529058D01*
X83651Y-532662D01*
X85030Y-535992D01*
X85834Y-536796D01*
X86089Y-537162D01*
X86205Y-537654D01*
X86121Y-538152D01*
X85848Y-538578D01*
X85431Y-538863D01*
G37*
%LPC*%
G36*
X492386Y-75639D02*
X496438Y-75639D01*
X496438Y-73099D01*
X490898Y-73099D01*
X490898Y-74151D01*
X492386Y-75639D01*
G37*
G36*
X468491Y-149892D02*
X473524Y-152207D01*
X474585Y-149899D01*
X470904Y-148206D01*
X468930Y-148936D01*
X468491Y-149892D01*
G37*
G36*
X481700Y-155968D02*
X486733Y-158283D01*
X487173Y-157327D01*
X486443Y-155353D01*
X482762Y-153660D01*
X481700Y-155968D01*
G37*
G36*
X465020Y-160998D02*
X468701Y-162691D01*
X469763Y-160383D01*
X464730Y-158068D01*
X464290Y-159024D01*
X465020Y-160998D01*
G37*
G36*
X476878Y-166452D02*
X480559Y-168145D01*
X482533Y-167415D01*
X482973Y-166459D01*
X477939Y-164144D01*
X476878Y-166452D01*
G37*
G36*
X-235315Y-182960D02*
X-221885Y-182960D01*
X-222890Y-181955D01*
X-226595Y-180420D01*
X-230605Y-180420D01*
X-234310Y-181955D01*
X-235315Y-182960D01*
G37*
G36*
X-57515Y-182960D02*
X-44085Y-182960D01*
X-45090Y-181955D01*
X-48795Y-180420D01*
X-52805Y-180420D01*
X-56510Y-181955D01*
X-57515Y-182960D01*
G37*
G36*
X-170761Y-259160D02*
X-163139Y-259160D01*
X-156097Y-256243D01*
X-150707Y-250853D01*
X-147790Y-243811D01*
X-147790Y-236189D01*
X-150707Y-229147D01*
X-153666Y-226187D01*
X-153930Y-225803D01*
X-154038Y-225310D01*
X-153945Y-224813D01*
X-153666Y-224391D01*
X-148979Y-219704D01*
X-146290Y-213213D01*
X-146290Y-206187D01*
X-148979Y-199696D01*
X-153946Y-194729D01*
X-160437Y-192040D01*
X-167463Y-192040D01*
X-173954Y-194729D01*
X-178921Y-199696D01*
X-181610Y-206187D01*
X-181610Y-213213D01*
X-178921Y-219704D01*
X-177072Y-221553D01*
X-176813Y-221928D01*
X-176700Y-222421D01*
X-176789Y-222919D01*
X-177065Y-223342D01*
X-177484Y-223625D01*
X-177803Y-223757D01*
X-183193Y-229147D01*
X-186110Y-236189D01*
X-186110Y-243811D01*
X-183193Y-250853D01*
X-177803Y-256243D01*
X-170761Y-259160D01*
G37*
G36*
X-116261Y-259160D02*
X-108639Y-259160D01*
X-101597Y-256243D01*
X-96207Y-250853D01*
X-93290Y-243811D01*
X-93290Y-236189D01*
X-96207Y-229147D01*
X-101597Y-223757D01*
X-101916Y-223625D01*
X-102299Y-223377D01*
X-102592Y-222965D01*
X-102700Y-222472D01*
X-102607Y-221975D01*
X-102328Y-221553D01*
X-100479Y-219704D01*
X-97790Y-213213D01*
X-97790Y-206187D01*
X-100479Y-199696D01*
X-105446Y-194729D01*
X-111937Y-192040D01*
X-118963Y-192040D01*
X-125454Y-194729D01*
X-130421Y-199696D01*
X-133110Y-206187D01*
X-133110Y-213213D01*
X-130421Y-219704D01*
X-125734Y-224391D01*
X-125470Y-224775D01*
X-125362Y-225269D01*
X-125455Y-225766D01*
X-125734Y-226187D01*
X-128693Y-229147D01*
X-131610Y-236189D01*
X-131610Y-243811D01*
X-128693Y-250853D01*
X-123303Y-256243D01*
X-116261Y-259160D01*
G37*
G36*
X-230605Y-200580D02*
X-226595Y-200580D01*
X-222890Y-199045D01*
X-221885Y-198040D01*
X-235315Y-198040D01*
X-234310Y-199045D01*
X-230605Y-200580D01*
G37*
G36*
X-52805Y-200580D02*
X-48795Y-200580D01*
X-45090Y-199045D01*
X-44085Y-198040D01*
X-57515Y-198040D01*
X-56510Y-199045D01*
X-52805Y-200580D01*
G37*
G36*
X-52603Y-224964D02*
X-48997Y-224964D01*
X-45666Y-223584D01*
X-43116Y-221034D01*
X-41736Y-217703D01*
X-41736Y-214097D01*
X-43116Y-210766D01*
X-45666Y-208216D01*
X-48997Y-206836D01*
X-52603Y-206836D01*
X-55934Y-208216D01*
X-58484Y-210766D01*
X-59864Y-214097D01*
X-59864Y-217703D01*
X-58484Y-221034D01*
X-55934Y-223584D01*
X-52603Y-224964D01*
G37*
G36*
X-2292Y-236724D02*
X2292Y-236724D01*
X6528Y-234970D01*
X9770Y-231728D01*
X11524Y-227492D01*
X11524Y-222908D01*
X9770Y-218672D01*
X6528Y-215430D01*
X3613Y-214223D01*
X3238Y-213983D01*
X2942Y-213573D01*
X2830Y-213080D01*
X2918Y-212583D01*
X3194Y-212159D01*
X3613Y-211877D01*
X7103Y-210431D01*
X8844Y-208690D01*
X-8844Y-208690D01*
X-7103Y-210431D01*
X-3613Y-211877D01*
X-3238Y-212117D01*
X-2942Y-212527D01*
X-2830Y-213019D01*
X-2918Y-213517D01*
X-3194Y-213941D01*
X-3613Y-214223D01*
X-6528Y-215430D01*
X-9770Y-218672D01*
X-11524Y-222908D01*
X-11524Y-227492D01*
X-9770Y-231728D01*
X-6528Y-234970D01*
X-2292Y-236724D01*
G37*
G36*
X-52603Y-250364D02*
X-48997Y-250364D01*
X-45666Y-248984D01*
X-43116Y-246434D01*
X-41736Y-243103D01*
X-41736Y-239497D01*
X-43116Y-236166D01*
X-45666Y-233616D01*
X-48997Y-232236D01*
X-52603Y-232236D01*
X-55934Y-233616D01*
X-58484Y-236166D01*
X-59864Y-239497D01*
X-59864Y-243103D01*
X-58484Y-246434D01*
X-55934Y-248984D01*
X-52603Y-250364D01*
G37*
G36*
X-230403Y-250364D02*
X-226797Y-250364D01*
X-223466Y-248984D01*
X-220916Y-246434D01*
X-219536Y-243103D01*
X-219536Y-239497D01*
X-220916Y-236166D01*
X-223466Y-233616D01*
X-226797Y-232236D01*
X-230403Y-232236D01*
X-233734Y-233616D01*
X-236284Y-236166D01*
X-237664Y-239497D01*
X-237664Y-243103D01*
X-236284Y-246434D01*
X-233734Y-248984D01*
X-230403Y-250364D01*
G37*
G36*
X430447Y-242060D02*
X435191Y-244922D01*
X436503Y-242747D01*
X433033Y-240654D01*
X430990Y-241160D01*
X430447Y-242060D01*
G37*
G36*
X442897Y-249571D02*
X447641Y-252432D01*
X448184Y-251531D01*
X447679Y-249489D01*
X444209Y-247396D01*
X442897Y-249571D01*
G37*
G36*
X425760Y-252710D02*
X429230Y-254803D01*
X430542Y-252628D01*
X425798Y-249767D01*
X425255Y-250668D01*
X425760Y-252710D01*
G37*
G36*
X-411199Y-286247D02*
X-409706Y-288302D01*
X-406427Y-285920D01*
X-406098Y-283842D01*
X-406717Y-282991D01*
X-411199Y-286247D01*
G37*
G36*
X262695Y-400306D02*
X264806Y-400306D01*
X266756Y-399498D01*
X268248Y-398006D01*
X269056Y-396056D01*
X269056Y-393945D01*
X268248Y-391994D01*
X266756Y-390502D01*
X264806Y-389694D01*
X262630Y-389694D01*
X262293Y-389764D01*
X261796Y-389671D01*
X261375Y-389392D01*
X181858Y-309875D01*
X181591Y-309482D01*
X181486Y-308987D01*
X181556Y-308628D01*
X181556Y-306445D01*
X180748Y-304494D01*
X179256Y-303002D01*
X177306Y-302194D01*
X175195Y-302194D01*
X173244Y-303002D01*
X171752Y-304494D01*
X170944Y-306445D01*
X170944Y-308556D01*
X171752Y-310506D01*
X173244Y-311998D01*
X175195Y-312806D01*
X177370Y-312806D01*
X177707Y-312736D01*
X178204Y-312829D01*
X178625Y-313108D01*
X258142Y-392625D01*
X258409Y-393018D01*
X258514Y-393513D01*
X258444Y-393872D01*
X258444Y-396056D01*
X259252Y-398006D01*
X260744Y-399498D01*
X262695Y-400306D01*
G37*
G36*
X-398556Y-345306D02*
X-396445Y-345306D01*
X-394494Y-344498D01*
X-393002Y-343006D01*
X-392194Y-341056D01*
X-392194Y-338945D01*
X-393002Y-336994D01*
X-394540Y-335456D01*
X-394828Y-335267D01*
X-395113Y-334850D01*
X-395214Y-334355D01*
X-395214Y-317955D01*
X-395032Y-317300D01*
X-394691Y-316927D01*
X-387968Y-312043D01*
X-387771Y-310796D01*
X-393803Y-302494D01*
X-395050Y-302296D01*
X-408206Y-311855D01*
X-408404Y-313102D01*
X-402372Y-321404D01*
X-400857Y-321644D01*
X-400598Y-321714D01*
X-400172Y-321986D01*
X-399887Y-322403D01*
X-399786Y-322899D01*
X-399786Y-334355D01*
X-399875Y-334822D01*
X-400151Y-335246D01*
X-400454Y-335451D01*
X-401998Y-336994D01*
X-402806Y-338945D01*
X-402806Y-341056D01*
X-401998Y-343006D01*
X-400506Y-344498D01*
X-398556Y-345306D01*
G37*
G36*
X373491Y-316802D02*
X377409Y-320719D01*
X379205Y-318923D01*
X376339Y-316058D01*
X374235Y-316058D01*
X373491Y-316802D01*
G37*
G36*
X366383Y-326014D02*
X369249Y-328879D01*
X371045Y-327083D01*
X367127Y-323166D01*
X366383Y-323910D01*
X366383Y-326014D01*
G37*
G36*
X-352703Y-356733D02*
X-350760Y-358369D01*
X-347192Y-354131D01*
X-347997Y-353454D01*
X-350093Y-353634D01*
X-352703Y-356733D01*
G37*
G36*
X-343876Y-364166D02*
X-341933Y-365802D01*
X-339323Y-362703D01*
X-339503Y-360606D01*
X-340307Y-359929D01*
X-343876Y-364166D01*
G37*
G36*
X-360931Y-368813D02*
X-360126Y-369491D01*
X-356557Y-365253D01*
X-358500Y-363617D01*
X-361110Y-366717D01*
X-360931Y-368813D01*
G37*
G36*
X-353241Y-375288D02*
X-352437Y-375966D01*
X-350340Y-375786D01*
X-347730Y-372687D01*
X-349673Y-371051D01*
X-353241Y-375288D01*
G37*
G36*
X304994Y-390488D02*
X308723Y-394585D01*
X310601Y-392876D01*
X307874Y-389879D01*
X305772Y-389780D01*
X304994Y-390488D01*
G37*
G36*
X297460Y-399355D02*
X300187Y-402352D01*
X302066Y-400642D01*
X298337Y-396545D01*
X297559Y-397253D01*
X297460Y-399355D01*
G37*
G36*
X314780Y-401242D02*
X318508Y-405339D01*
X319286Y-404631D01*
X319386Y-402530D01*
X316658Y-399533D01*
X314780Y-401242D01*
G37*
G36*
X308972Y-412006D02*
X311073Y-412105D01*
X311852Y-411397D01*
X308123Y-407299D01*
X306244Y-409009D01*
X308972Y-412006D01*
G37*
G36*
X-272131Y-422555D02*
X-269904Y-423774D01*
X-267243Y-418915D01*
X-268166Y-418410D01*
X-270186Y-419000D01*
X-272131Y-422555D01*
G37*
G36*
X-339622Y-444670D02*
X-336018Y-444670D01*
X-332688Y-443290D01*
X-330140Y-440742D01*
X-328761Y-437412D01*
X-328761Y-433808D01*
X-330140Y-430478D01*
X-332688Y-427930D01*
X-336018Y-426551D01*
X-339622Y-426551D01*
X-342952Y-427930D01*
X-345500Y-430478D01*
X-346880Y-433808D01*
X-346880Y-437412D01*
X-345500Y-440742D01*
X-342952Y-443290D01*
X-339622Y-444670D01*
G37*
G36*
X-277809Y-436023D02*
X-276886Y-436528D01*
X-274226Y-431669D01*
X-276454Y-430449D01*
X-278399Y-434003D01*
X-277809Y-436023D01*
G37*
G36*
X311888Y-459910D02*
X315492Y-459910D01*
X318822Y-458530D01*
X321370Y-455982D01*
X322750Y-452652D01*
X322750Y-449048D01*
X321370Y-445718D01*
X318822Y-443170D01*
X315492Y-441791D01*
X311888Y-441791D01*
X308558Y-443170D01*
X306010Y-445718D01*
X304631Y-449048D01*
X304631Y-452652D01*
X306010Y-455982D01*
X308558Y-458530D01*
X311888Y-459910D01*
G37*
G36*
X286488Y-459910D02*
X290092Y-459910D01*
X293422Y-458530D01*
X295970Y-455982D01*
X297350Y-452652D01*
X297350Y-449048D01*
X295970Y-445718D01*
X293422Y-443170D01*
X290092Y-441791D01*
X286488Y-441791D01*
X283158Y-443170D01*
X280610Y-445718D01*
X279231Y-449048D01*
X279231Y-452652D01*
X280610Y-455982D01*
X283158Y-458530D01*
X286488Y-459910D01*
G37*
G36*
X219106Y-443937D02*
X222180Y-448546D01*
X224293Y-447136D01*
X222045Y-443765D01*
X219982Y-443353D01*
X219106Y-443937D01*
G37*
G36*
X210331Y-451577D02*
X212579Y-454948D01*
X214692Y-453539D01*
X211619Y-448930D01*
X210743Y-449514D01*
X210331Y-451577D01*
G37*
G36*
X-168336Y-468192D02*
X-165996Y-469180D01*
X-163840Y-464077D01*
X-164810Y-463667D01*
X-166759Y-464459D01*
X-168336Y-468192D01*
G37*
G36*
X-157705Y-472682D02*
X-155366Y-473670D01*
X-153789Y-469938D01*
X-154581Y-467988D01*
X-155550Y-467579D01*
X-157705Y-472682D01*
G37*
G36*
X-172623Y-482165D02*
X-171654Y-482574D01*
X-169498Y-477471D01*
X-171838Y-476482D01*
X-173415Y-480215D01*
X-172623Y-482165D01*
G37*
G36*
X128764Y-478321D02*
X131157Y-483318D01*
X133448Y-482220D01*
X131697Y-478566D01*
X129712Y-477867D01*
X128764Y-478321D01*
G37*
G36*
X-163363Y-486076D02*
X-162394Y-486486D01*
X-160445Y-485694D01*
X-158868Y-481961D01*
X-161208Y-480973D01*
X-163363Y-486076D01*
G37*
G36*
X118999Y-484650D02*
X120750Y-488304D01*
X123041Y-487206D01*
X120647Y-482210D01*
X119698Y-482665D01*
X118999Y-484650D01*
G37*
G36*
X30309Y-496202D02*
X32849Y-496202D01*
X32849Y-490662D01*
X31797Y-490662D01*
X30309Y-492150D01*
X30309Y-496202D01*
G37*
G36*
X41849Y-496202D02*
X44389Y-496202D01*
X44389Y-492150D01*
X42901Y-490662D01*
X41849Y-490662D01*
X41849Y-496202D01*
G37*
G36*
X-76718Y-496293D02*
X-74178Y-496293D01*
X-74178Y-490753D01*
X-75230Y-490753D01*
X-76718Y-492241D01*
X-76718Y-496293D01*
G37*
G36*
X-65178Y-496293D02*
X-62638Y-496293D01*
X-62638Y-492241D01*
X-64126Y-490753D01*
X-65178Y-490753D01*
X-65178Y-496293D01*
G37*
G36*
X41849Y-510742D02*
X42901Y-510742D01*
X44389Y-509255D01*
X44389Y-505202D01*
X41849Y-505202D01*
X41849Y-510742D01*
G37*
G36*
X31797Y-510742D02*
X32849Y-510742D01*
X32849Y-505202D01*
X30309Y-505202D01*
X30309Y-509255D01*
X31797Y-510742D01*
G37*
G36*
X-65178Y-510833D02*
X-64126Y-510833D01*
X-62638Y-509345D01*
X-62638Y-505293D01*
X-65178Y-505293D01*
X-65178Y-510833D01*
G37*
G36*
X-75230Y-510833D02*
X-74178Y-510833D01*
X-74178Y-505293D01*
X-76718Y-505293D01*
X-76718Y-509345D01*
X-75230Y-510833D01*
G37*
%LPD*%
G36*
X-433236Y-252382D02*
X-433730Y-252491D01*
X-434227Y-252398D01*
X-434648Y-252119D01*
X-441793Y-244974D01*
X-442048Y-244608D01*
X-442164Y-244116D01*
X-442080Y-243618D01*
X-441807Y-243192D01*
X-441390Y-242907D01*
X-440895Y-242806D01*
X-440195Y-242806D01*
X-438244Y-241998D01*
X-436752Y-240506D01*
X-435944Y-238556D01*
X-435944Y-236445D01*
X-436752Y-234494D01*
X-438290Y-232956D01*
X-438578Y-232767D01*
X-438863Y-232350D01*
X-438964Y-231855D01*
X-438964Y-231613D01*
X-438755Y-230915D01*
X-438399Y-230556D01*
X-436175Y-229073D01*
X-435927Y-227835D01*
X-441621Y-219297D01*
X-442859Y-219049D01*
X-456584Y-228202D01*
X-456627Y-228287D01*
X-457039Y-228579D01*
X-457533Y-228688D01*
X-458030Y-228595D01*
X-458451Y-228316D01*
X-487845Y-198923D01*
X-488108Y-198539D01*
X-488216Y-198045D01*
X-488124Y-197548D01*
X-487845Y-197127D01*
X-486350Y-195632D01*
X-484971Y-192302D01*
X-484971Y-188698D01*
X-486350Y-185368D01*
X-488898Y-182820D01*
X-492228Y-181441D01*
X-495832Y-181441D01*
X-499162Y-182820D01*
X-501710Y-185368D01*
X-503090Y-188698D01*
X-503090Y-189362D01*
X-503168Y-189800D01*
X-503433Y-190231D01*
X-503846Y-190523D01*
X-504339Y-190631D01*
X-504836Y-190539D01*
X-505258Y-190260D01*
X-506092Y-189425D01*
X-506363Y-189022D01*
X-506464Y-188527D01*
X-506464Y-130223D01*
X-506371Y-129746D01*
X-506092Y-129325D01*
X-499287Y-122520D01*
X-498649Y-122175D01*
X-498144Y-122172D01*
X-497677Y-122366D01*
X-497323Y-122727D01*
X-497138Y-123197D01*
X-496048Y-129383D01*
X-494324Y-130589D01*
X-490333Y-129886D01*
X-492337Y-118521D01*
X-475802Y-115606D01*
X-475727Y-116036D01*
X-369106Y-116036D01*
X-368667Y-116114D01*
X-368237Y-116380D01*
X-367945Y-116792D01*
X-367836Y-117286D01*
X-367929Y-117783D01*
X-368208Y-118204D01*
X-369498Y-119494D01*
X-370306Y-121445D01*
X-370306Y-123556D01*
X-369498Y-125506D01*
X-368006Y-126998D01*
X-366056Y-127806D01*
X-363945Y-127806D01*
X-361994Y-126998D01*
X-360456Y-125460D01*
X-360267Y-125172D01*
X-359850Y-124887D01*
X-359355Y-124786D01*
X-274752Y-124786D01*
X-274304Y-124868D01*
X-273876Y-125137D01*
X-273587Y-125551D01*
X-273482Y-126046D01*
X-273579Y-126542D01*
X-274056Y-127695D01*
X-274056Y-129806D01*
X-273248Y-131756D01*
X-271756Y-133248D01*
X-269806Y-134056D01*
X-267695Y-134056D01*
X-265744Y-133248D01*
X-264206Y-131710D01*
X-264017Y-131422D01*
X-263600Y-131137D01*
X-263105Y-131036D01*
X-235821Y-131036D01*
X-235382Y-131114D01*
X-234952Y-131380D01*
X-234659Y-131792D01*
X-234551Y-132286D01*
X-234643Y-132783D01*
X-234922Y-133204D01*
X-236284Y-134566D01*
X-237664Y-137897D01*
X-237664Y-141503D01*
X-236765Y-143673D01*
X-236668Y-144139D01*
X-236761Y-144636D01*
X-237040Y-145057D01*
X-241825Y-149842D01*
X-242228Y-150113D01*
X-242723Y-150214D01*
X-379160Y-150214D01*
X-379598Y-150136D01*
X-380029Y-149870D01*
X-380321Y-149458D01*
X-380429Y-148964D01*
X-380337Y-148467D01*
X-380058Y-148046D01*
X-379332Y-147320D01*
X-408068Y-147320D01*
X-407075Y-148313D01*
X-405805Y-148839D01*
X-405423Y-149086D01*
X-405130Y-149499D01*
X-405022Y-149992D01*
X-405114Y-150489D01*
X-405393Y-150911D01*
X-413536Y-159053D01*
X-413536Y-215947D01*
X-412197Y-217286D01*
X-411492Y-217286D01*
X-411025Y-217375D01*
X-410601Y-217651D01*
X-410319Y-218070D01*
X-409072Y-221080D01*
X-406340Y-223811D01*
X-406077Y-224195D01*
X-405968Y-224689D01*
X-406061Y-225186D01*
X-406340Y-225607D01*
X-432852Y-252119D01*
X-433236Y-252382D01*
G37*
%LPC*%
G36*
X-481911Y-125822D02*
X-481470Y-128323D01*
X-477480Y-127619D01*
X-476273Y-125896D01*
X-476455Y-124860D01*
X-481911Y-125822D01*
G37*
G36*
X-386080Y-132080D02*
X-379332Y-132080D01*
X-380325Y-131087D01*
X-384059Y-129540D01*
X-386080Y-129540D01*
X-386080Y-132080D01*
G37*
G36*
X-408068Y-132080D02*
X-401320Y-132080D01*
X-401320Y-129540D01*
X-403341Y-129540D01*
X-407075Y-131087D01*
X-408068Y-132080D01*
G37*
G36*
X-428556Y-225306D02*
X-426445Y-225306D01*
X-424494Y-224498D01*
X-423002Y-223006D01*
X-422194Y-221056D01*
X-422194Y-218945D01*
X-423002Y-216994D01*
X-424540Y-215456D01*
X-424828Y-215267D01*
X-425113Y-214850D01*
X-425214Y-214355D01*
X-425214Y-154395D01*
X-425125Y-153928D01*
X-424849Y-153504D01*
X-424546Y-153300D01*
X-423002Y-151756D01*
X-422194Y-149806D01*
X-422194Y-147695D01*
X-423002Y-145744D01*
X-424494Y-144252D01*
X-426445Y-143444D01*
X-428556Y-143444D01*
X-430506Y-144252D01*
X-432104Y-145850D01*
X-432178Y-145965D01*
X-432590Y-146257D01*
X-433084Y-146366D01*
X-433581Y-146273D01*
X-434002Y-145994D01*
X-434494Y-145502D01*
X-436445Y-144694D01*
X-438556Y-144694D01*
X-440506Y-145502D01*
X-441998Y-146994D01*
X-442806Y-148945D01*
X-442806Y-151120D01*
X-442736Y-151457D01*
X-442829Y-151954D01*
X-443108Y-152375D01*
X-451375Y-160642D01*
X-451768Y-160909D01*
X-452263Y-161014D01*
X-452622Y-160944D01*
X-454806Y-160944D01*
X-456756Y-161752D01*
X-458248Y-163244D01*
X-459056Y-165195D01*
X-459056Y-167306D01*
X-458248Y-169256D01*
X-456756Y-170748D01*
X-454806Y-171556D01*
X-452695Y-171556D01*
X-450744Y-170748D01*
X-449252Y-169256D01*
X-448444Y-167306D01*
X-448444Y-165130D01*
X-448514Y-164793D01*
X-448421Y-164296D01*
X-448142Y-163875D01*
X-439875Y-155608D01*
X-439482Y-155341D01*
X-438987Y-155236D01*
X-438628Y-155306D01*
X-436445Y-155306D01*
X-434494Y-154498D01*
X-432896Y-152900D01*
X-432822Y-152785D01*
X-432410Y-152493D01*
X-431916Y-152384D01*
X-431419Y-152477D01*
X-430998Y-152756D01*
X-430460Y-153294D01*
X-430172Y-153483D01*
X-429887Y-153900D01*
X-429786Y-154395D01*
X-429786Y-214355D01*
X-429875Y-214822D01*
X-430151Y-215246D01*
X-430454Y-215451D01*
X-431998Y-216994D01*
X-432806Y-218945D01*
X-432806Y-221056D01*
X-431998Y-223006D01*
X-430506Y-224498D01*
X-428556Y-225306D01*
G37*
G36*
X-483556Y-170306D02*
X-481445Y-170306D01*
X-479494Y-169498D01*
X-478002Y-168006D01*
X-477194Y-166056D01*
X-477194Y-163945D01*
X-478093Y-161774D01*
X-478166Y-161042D01*
X-477972Y-160576D01*
X-477611Y-160222D01*
X-477140Y-160037D01*
X-472340Y-159190D01*
X-471616Y-158156D01*
X-473398Y-148050D01*
X-474432Y-147326D01*
X-490448Y-150150D01*
X-491172Y-151184D01*
X-489390Y-161290D01*
X-488145Y-162162D01*
X-487708Y-162698D01*
X-487603Y-163192D01*
X-487700Y-163688D01*
X-487806Y-163945D01*
X-487806Y-166056D01*
X-486998Y-168006D01*
X-485506Y-169498D01*
X-483556Y-170306D01*
G37*
G36*
X-464754Y-192765D02*
X-463345Y-194878D01*
X-458736Y-191804D01*
X-459319Y-190929D01*
X-461383Y-190516D01*
X-464754Y-192765D01*
G37*
G36*
X-476025Y-202070D02*
X-475441Y-202945D01*
X-470832Y-199871D01*
X-472242Y-197758D01*
X-475613Y-200006D01*
X-476025Y-202070D01*
G37*
G36*
X-458351Y-202365D02*
X-456942Y-204478D01*
X-453571Y-202230D01*
X-453158Y-200167D01*
X-453742Y-199291D01*
X-458351Y-202365D01*
G37*
G36*
X-469864Y-211308D02*
X-467801Y-211720D01*
X-464429Y-209472D01*
X-465839Y-207359D01*
X-470448Y-210433D01*
X-469864Y-211308D01*
G37*
%LPD*%
G36*
X262171Y-12640D02*
X261874Y-12700D01*
X220726Y-12700D01*
X220451Y-12649D01*
X220196Y-12485D01*
X220024Y-12235D01*
X219964Y-11938D01*
X219964Y-10881D01*
X218572Y-7520D01*
X216000Y-4948D01*
X212639Y-3556D01*
X193761Y-3556D01*
X190400Y-4948D01*
X187828Y-7520D01*
X187530Y-8240D01*
X187382Y-8470D01*
X187134Y-8645D01*
X186838Y-8710D01*
X186540Y-8655D01*
X186287Y-8487D01*
X178023Y-223D01*
X177860Y18D01*
X177800Y316D01*
X177800Y50484D01*
X177856Y50770D01*
X178023Y51023D01*
X190277Y63277D01*
X190518Y63440D01*
X190816Y63500D01*
X452431Y63500D01*
X452717Y63444D01*
X452969Y63277D01*
X455302Y60944D01*
X459698Y60944D01*
X462031Y63277D01*
X462272Y63440D01*
X462569Y63500D01*
X469584Y63500D01*
X469870Y63444D01*
X470123Y63277D01*
X482377Y51023D01*
X482540Y50782D01*
X482600Y50484D01*
X482600Y316D01*
X482544Y30D01*
X482377Y-223D01*
X474113Y-8487D01*
X473888Y-8643D01*
X473592Y-8710D01*
X473294Y-8657D01*
X473040Y-8491D01*
X472870Y-8240D01*
X472572Y-7520D01*
X470000Y-4948D01*
X466639Y-3556D01*
X447761Y-3556D01*
X444400Y-4948D01*
X441828Y-7520D01*
X440436Y-10881D01*
X440436Y-11938D01*
X440385Y-12213D01*
X440221Y-12468D01*
X439971Y-12640D01*
X439674Y-12700D01*
X378223Y-12700D01*
X377937Y-12644D01*
X377685Y-12477D01*
X377235Y-12027D01*
X371438Y-9626D01*
X365162Y-9626D01*
X359365Y-12027D01*
X358915Y-12477D01*
X358674Y-12640D01*
X358377Y-12700D01*
X296926Y-12700D01*
X296651Y-12649D01*
X296396Y-12485D01*
X296224Y-12235D01*
X296164Y-11938D01*
X296164Y-10881D01*
X294772Y-7520D01*
X292200Y-4948D01*
X288839Y-3556D01*
X269961Y-3556D01*
X266600Y-4948D01*
X264028Y-7520D01*
X262636Y-10881D01*
X262636Y-11938D01*
X262585Y-12213D01*
X262421Y-12468D01*
X262171Y-12640D01*
G37*
%LPC*%
G36*
X442832Y20320D02*
X449580Y20320D01*
X449580Y22860D01*
X447559Y22860D01*
X443825Y21313D01*
X442832Y20320D01*
G37*
G36*
X265032Y20320D02*
X271780Y20320D01*
X271780Y22860D01*
X269759Y22860D01*
X266025Y21313D01*
X265032Y20320D01*
G37*
G36*
X188832Y20320D02*
X195580Y20320D01*
X195580Y22860D01*
X193559Y22860D01*
X189825Y21313D01*
X188832Y20320D01*
G37*
G36*
X210820Y20320D02*
X217568Y20320D01*
X216575Y21313D01*
X212841Y22860D01*
X210820Y22860D01*
X210820Y20320D01*
G37*
G36*
X287020Y20320D02*
X293768Y20320D01*
X292775Y21313D01*
X289041Y22860D01*
X287020Y22860D01*
X287020Y20320D01*
G37*
G36*
X464820Y20320D02*
X471568Y20320D01*
X470575Y21313D01*
X466841Y22860D01*
X464820Y22860D01*
X464820Y20320D01*
G37*
G36*
X447559Y2540D02*
X466841Y2540D01*
X470575Y4087D01*
X471568Y5080D01*
X442832Y5080D01*
X443825Y4087D01*
X447559Y2540D01*
G37*
G36*
X269759Y2540D02*
X289041Y2540D01*
X292775Y4087D01*
X293768Y5080D01*
X265032Y5080D01*
X266025Y4087D01*
X269759Y2540D01*
G37*
G36*
X193559Y2540D02*
X212841Y2540D01*
X216575Y4087D01*
X217568Y5080D01*
X188832Y5080D01*
X189825Y4087D01*
X193559Y2540D01*
G37*
%LPD*%
D10*
X368300Y177800D03*
D11*
X368300Y101600D03*
D12*
G36*
X72813Y505443D02*
X69874Y490735D01*
X61049Y492499D01*
X63988Y507207D01*
X72813Y505443D01*
G37*
G36*
X40453Y511909D02*
X37514Y497201D01*
X28689Y498965D01*
X31628Y513673D01*
X40453Y511909D01*
G37*
G36*
X82414Y553493D02*
X79475Y538785D01*
X70650Y540549D01*
X73589Y555257D01*
X82414Y553493D01*
G37*
G36*
X50054Y559959D02*
X47115Y545251D01*
X38290Y547015D01*
X41229Y561723D01*
X50054Y559959D01*
G37*
G36*
X480665Y-165398D02*
X467038Y-159130D01*
X470799Y-150954D01*
X484426Y-157222D01*
X480665Y-165398D01*
G37*
G36*
X494454Y-135417D02*
X480827Y-129149D01*
X484588Y-120973D01*
X498215Y-127241D01*
X494454Y-135417D01*
G37*
G36*
X525181Y-185873D02*
X511554Y-179605D01*
X515315Y-171429D01*
X528942Y-177697D01*
X525181Y-185873D01*
G37*
G36*
X538971Y-155892D02*
X525344Y-149624D01*
X529105Y-141448D01*
X542732Y-147716D01*
X538971Y-155892D01*
G37*
G36*
X440816Y-258827D02*
X427973Y-251080D01*
X432622Y-243373D01*
X445465Y-251120D01*
X440816Y-258827D01*
G37*
G36*
X457862Y-230570D02*
X445019Y-222823D01*
X449668Y-215116D01*
X462511Y-222863D01*
X457862Y-230570D01*
G37*
G36*
X482774Y-284137D02*
X469931Y-276390D01*
X474580Y-268683D01*
X487423Y-276430D01*
X482774Y-284137D01*
G37*
G36*
X499819Y-255880D02*
X486976Y-248133D01*
X491625Y-240426D01*
X504468Y-248173D01*
X499819Y-255880D01*
G37*
G36*
X379530Y-335568D02*
X368924Y-324962D01*
X375288Y-318598D01*
X385894Y-329204D01*
X379530Y-335568D01*
G37*
G36*
X402864Y-312234D02*
X392258Y-301628D01*
X398622Y-295264D01*
X409228Y-305870D01*
X402864Y-312234D01*
G37*
G36*
X414178Y-370216D02*
X403572Y-359610D01*
X409936Y-353246D01*
X420542Y-363852D01*
X414178Y-370216D01*
G37*
G36*
X437512Y-346882D02*
X426906Y-336276D01*
X433270Y-329912D01*
X443876Y-340518D01*
X437512Y-346882D01*
G37*
G36*
X310142Y-409517D02*
X300048Y-398424D01*
X306704Y-392367D01*
X316798Y-403460D01*
X310142Y-409517D01*
G37*
G36*
X334550Y-387308D02*
X324456Y-376215D01*
X331112Y-370158D01*
X341206Y-381251D01*
X334550Y-387308D01*
G37*
G36*
X343119Y-445759D02*
X333025Y-434666D01*
X339681Y-428609D01*
X349775Y-439702D01*
X343119Y-445759D01*
G37*
G36*
X367527Y-423550D02*
X357433Y-412457D01*
X364089Y-406400D01*
X374183Y-417493D01*
X367527Y-423550D01*
G37*
G36*
X221350Y-463522D02*
X213028Y-451044D01*
X220516Y-446050D01*
X228838Y-458528D01*
X221350Y-463522D01*
G37*
G36*
X248805Y-445212D02*
X240483Y-432734D01*
X247971Y-427740D01*
X256293Y-440218D01*
X248805Y-445212D01*
G37*
G36*
X248537Y-504288D02*
X240215Y-491810D01*
X247703Y-486816D01*
X256025Y-499294D01*
X248537Y-504288D01*
G37*
G36*
X275992Y-485978D02*
X267670Y-473500D01*
X275158Y-468506D01*
X283480Y-480984D01*
X275992Y-485978D01*
G37*
G36*
X128227Y-498028D02*
X121746Y-484501D01*
X129861Y-480612D01*
X136342Y-494139D01*
X128227Y-498028D01*
G37*
G36*
X157987Y-483769D02*
X151506Y-470242D01*
X159621Y-466353D01*
X166102Y-479880D01*
X157987Y-483769D01*
G37*
G36*
X149399Y-542218D02*
X142918Y-528691D01*
X151033Y-524802D01*
X157514Y-538329D01*
X149399Y-542218D01*
G37*
G36*
X179159Y-527959D02*
X172678Y-514432D01*
X180793Y-510543D01*
X187274Y-524070D01*
X179159Y-527959D01*
G37*
D13*
X37349Y-500702D03*
X70349Y-500702D03*
X37349Y-549702D03*
X70349Y-549702D03*
X-69678Y-500793D03*
X-36678Y-500793D03*
X-69678Y-549793D03*
X-36678Y-549793D03*
D12*
G36*
X-170665Y-480233D02*
X-164828Y-466417D01*
X-156539Y-469919D01*
X-162376Y-483735D01*
X-170665Y-480233D01*
G37*
G36*
X-140266Y-493074D02*
X-134429Y-479258D01*
X-126140Y-482760D01*
X-131977Y-496576D01*
X-140266Y-493074D01*
G37*
G36*
X-189732Y-525371D02*
X-183895Y-511555D01*
X-175606Y-515057D01*
X-181443Y-528873D01*
X-189732Y-525371D01*
G37*
G36*
X-159333Y-538213D02*
X-153496Y-524397D01*
X-145207Y-527899D01*
X-151044Y-541715D01*
X-159333Y-538213D01*
G37*
G36*
X-275665Y-434300D02*
X-268462Y-421144D01*
X-260569Y-425466D01*
X-267772Y-438622D01*
X-275665Y-434300D01*
G37*
G36*
X-246720Y-450147D02*
X-239517Y-436991D01*
X-231624Y-441313D01*
X-238827Y-454469D01*
X-246720Y-450147D01*
G37*
G36*
X-299196Y-477280D02*
X-291993Y-464124D01*
X-284100Y-468446D01*
X-291303Y-481602D01*
X-299196Y-477280D01*
G37*
G36*
X-270251Y-493127D02*
X-263048Y-479971D01*
X-255155Y-484293D01*
X-262358Y-497449D01*
X-270251Y-493127D01*
G37*
G36*
X178673Y479585D02*
X173469Y465518D01*
X165029Y468641D01*
X170233Y482708D01*
X178673Y479585D01*
G37*
G36*
X147723Y491034D02*
X142519Y476967D01*
X134079Y480090D01*
X139283Y494157D01*
X147723Y491034D01*
G37*
G36*
X195673Y525542D02*
X190469Y511475D01*
X182029Y514598D01*
X187233Y528665D01*
X195673Y525542D01*
G37*
G36*
X164723Y536991D02*
X159519Y522924D01*
X151079Y526047D01*
X156283Y540114D01*
X164723Y536991D01*
G37*
G36*
X-358490Y-367548D02*
X-348829Y-356075D01*
X-341944Y-361872D01*
X-351605Y-373345D01*
X-358490Y-367548D01*
G37*
G36*
X-333247Y-388804D02*
X-323586Y-377331D01*
X-316701Y-383128D01*
X-326362Y-394601D01*
X-333247Y-388804D01*
G37*
G36*
X-390052Y-405029D02*
X-380391Y-393556D01*
X-373506Y-399353D01*
X-383167Y-410826D01*
X-390052Y-405029D01*
G37*
G36*
X-364809Y-426285D02*
X-355148Y-414812D01*
X-348263Y-420609D01*
X-357924Y-432082D01*
X-364809Y-426285D01*
G37*
G36*
X-426196Y-286018D02*
X-414062Y-277203D01*
X-408772Y-284484D01*
X-420906Y-293299D01*
X-426196Y-286018D01*
G37*
G36*
X-406799Y-312716D02*
X-394665Y-303901D01*
X-389375Y-311182D01*
X-401509Y-319997D01*
X-406799Y-312716D01*
G37*
G36*
X-465838Y-314820D02*
X-453704Y-306005D01*
X-448414Y-313286D01*
X-460548Y-322101D01*
X-465838Y-314820D01*
G37*
G36*
X-446441Y-341518D02*
X-434307Y-332703D01*
X-429017Y-339984D01*
X-441151Y-348799D01*
X-446441Y-341518D01*
G37*
G36*
X-473328Y-201535D02*
X-460850Y-193213D01*
X-455856Y-200701D01*
X-468334Y-209023D01*
X-473328Y-201535D01*
G37*
G36*
X-455018Y-228990D02*
X-442540Y-220668D01*
X-437546Y-228156D01*
X-450024Y-236478D01*
X-455018Y-228990D01*
G37*
G36*
X-514093Y-228723D02*
X-501615Y-220401D01*
X-496621Y-227889D01*
X-509099Y-236211D01*
X-514093Y-228723D01*
G37*
G36*
X-495784Y-256177D02*
X-483306Y-247855D01*
X-478312Y-255343D01*
X-490790Y-263665D01*
X-495784Y-256177D01*
G37*
G36*
X-495291Y-119042D02*
X-480520Y-116438D01*
X-478957Y-125300D01*
X-493728Y-127904D01*
X-495291Y-119042D01*
G37*
G36*
X-489561Y-151541D02*
X-474790Y-148937D01*
X-473227Y-157799D01*
X-487998Y-160403D01*
X-489561Y-151541D01*
G37*
G36*
X-543547Y-127551D02*
X-528776Y-124947D01*
X-527213Y-133809D01*
X-541984Y-136413D01*
X-543547Y-127551D01*
G37*
G36*
X-537817Y-160050D02*
X-523046Y-157446D01*
X-521483Y-166308D01*
X-536254Y-168912D01*
X-537817Y-160050D01*
G37*
X-501486Y-31521D03*
X-501486Y-64521D03*
X-550486Y-31521D03*
X-550486Y-64521D03*
X-500848Y69270D03*
X-500848Y36270D03*
X-549848Y69270D03*
X-549848Y36270D03*
G36*
X-486327Y166056D02*
X-471534Y163580D01*
X-473019Y154704D01*
X-487812Y157180D01*
X-486327Y166056D01*
G37*
G36*
X-491774Y133509D02*
X-476981Y131033D01*
X-478466Y122157D01*
X-493259Y124633D01*
X-491774Y133509D01*
G37*
G36*
X-534655Y174143D02*
X-519862Y171667D01*
X-521347Y162791D01*
X-536140Y165267D01*
X-534655Y174143D01*
G37*
G36*
X-540102Y141596D02*
X-525309Y139120D01*
X-526794Y130244D01*
X-541587Y132720D01*
X-540102Y141596D01*
G37*
G36*
X-447615Y250830D02*
X-434299Y243927D01*
X-438441Y235938D01*
X-451757Y242841D01*
X-447615Y250830D01*
G37*
G36*
X-462802Y221532D02*
X-449486Y214629D01*
X-453628Y206640D01*
X-466944Y213543D01*
X-462802Y221532D01*
G37*
G36*
X-491118Y273380D02*
X-477802Y266477D01*
X-481944Y258488D01*
X-495260Y265391D01*
X-491118Y273380D01*
G37*
G36*
X-506305Y244082D02*
X-492989Y237179D01*
X-497131Y229190D01*
X-510447Y236093D01*
X-506305Y244082D01*
G37*
G36*
X-392251Y331375D02*
X-380352Y322245D01*
X-385831Y315105D01*
X-397730Y324235D01*
X-392251Y331375D01*
G37*
G36*
X-412340Y305194D02*
X-400441Y296064D01*
X-405920Y288924D01*
X-417819Y298054D01*
X-412340Y305194D01*
G37*
G36*
X-431125Y361204D02*
X-419226Y352074D01*
X-424705Y344934D01*
X-436604Y354064D01*
X-431125Y361204D01*
G37*
G36*
X-451214Y335023D02*
X-439315Y325893D01*
X-444794Y318753D01*
X-456693Y327883D01*
X-451214Y335023D01*
G37*
G36*
X-318780Y403713D02*
X-308174Y393107D01*
X-314538Y386743D01*
X-325144Y397349D01*
X-318780Y403713D01*
G37*
G36*
X-342115Y380379D02*
X-331509Y369773D01*
X-337873Y363409D01*
X-348479Y374015D01*
X-342115Y380379D01*
G37*
G36*
X-353429Y438361D02*
X-342823Y427755D01*
X-349187Y421391D01*
X-359793Y431997D01*
X-353429Y438361D01*
G37*
G36*
X-376763Y415027D02*
X-366157Y404421D01*
X-372521Y398057D01*
X-383127Y408663D01*
X-376763Y415027D01*
G37*
G36*
X272244Y429535D02*
X263010Y417716D01*
X255918Y423257D01*
X265152Y435076D01*
X272244Y429535D01*
G37*
G36*
X246240Y449852D02*
X237006Y438033D01*
X229914Y443574D01*
X239148Y455393D01*
X246240Y449852D01*
G37*
G36*
X302412Y468148D02*
X293178Y456329D01*
X286086Y461870D01*
X295320Y473689D01*
X302412Y468148D01*
G37*
G36*
X276407Y488464D02*
X267173Y476645D01*
X260081Y482186D01*
X269315Y494005D01*
X276407Y488464D01*
G37*
G36*
X-231541Y458479D02*
X-223219Y446001D01*
X-230707Y441007D01*
X-239029Y453485D01*
X-231541Y458479D01*
G37*
G36*
X-258996Y440169D02*
X-250674Y427691D01*
X-258162Y422697D01*
X-266484Y435175D01*
X-258996Y440169D01*
G37*
G36*
X-258729Y499245D02*
X-250407Y486767D01*
X-257895Y481773D01*
X-266217Y494251D01*
X-258729Y499245D01*
G37*
G36*
X-286183Y480935D02*
X-277861Y468457D01*
X-285349Y463463D01*
X-293671Y475941D01*
X-286183Y480935D01*
G37*
G36*
X-134549Y495699D02*
X-128978Y481773D01*
X-137333Y478431D01*
X-142904Y492357D01*
X-134549Y495699D01*
G37*
G36*
X-165189Y483444D02*
X-159618Y469518D01*
X-167973Y466176D01*
X-173544Y480102D01*
X-165189Y483444D01*
G37*
G36*
X-152746Y541194D02*
X-147175Y527268D01*
X-155530Y523926D01*
X-161101Y537852D01*
X-152746Y541194D01*
G37*
G36*
X-183386Y528939D02*
X-177815Y515013D01*
X-186170Y511671D01*
X-191741Y525597D01*
X-183386Y528939D01*
G37*
D13*
X-38502Y500547D03*
X-71502Y500547D03*
X-38502Y549547D03*
X-71502Y549547D03*
D14*
X139700Y279400D03*
X139700Y177800D03*
D12*
G36*
X358374Y365181D02*
X347369Y354990D01*
X341254Y361593D01*
X352259Y371784D01*
X358374Y365181D01*
G37*
G36*
X335953Y389394D02*
X324948Y379203D01*
X318833Y385806D01*
X329838Y395997D01*
X335953Y389394D01*
G37*
G36*
X394327Y398474D02*
X383322Y388283D01*
X377207Y394886D01*
X388212Y405077D01*
X394327Y398474D01*
G37*
G36*
X371905Y422687D02*
X360900Y412496D01*
X354785Y419099D01*
X365790Y429290D01*
X371905Y422687D01*
G37*
G36*
X425075Y285451D02*
X412864Y276742D01*
X407637Y284069D01*
X419848Y292778D01*
X425075Y285451D01*
G37*
G36*
X405912Y312317D02*
X393701Y303608D01*
X388474Y310935D01*
X400685Y319644D01*
X405912Y312317D01*
G37*
G36*
X464966Y313905D02*
X452755Y305196D01*
X447528Y312523D01*
X459739Y321232D01*
X464966Y313905D01*
G37*
G36*
X445803Y340771D02*
X433592Y332062D01*
X428365Y339389D01*
X440576Y348098D01*
X445803Y340771D01*
G37*
G36*
X470902Y202538D02*
X457746Y195335D01*
X453424Y203228D01*
X466580Y210431D01*
X470902Y202538D01*
G37*
G36*
X455054Y231483D02*
X441898Y224280D01*
X437576Y232173D01*
X450732Y239376D01*
X455054Y231483D01*
G37*
G36*
X513882Y226069D02*
X500726Y218866D01*
X496404Y226759D01*
X509560Y233962D01*
X513882Y226069D01*
G37*
G36*
X498034Y255014D02*
X484878Y247811D01*
X480556Y255704D01*
X493712Y262907D01*
X498034Y255014D01*
G37*
G36*
X501392Y115391D02*
X487168Y110631D01*
X484312Y119165D01*
X498536Y123925D01*
X501392Y115391D01*
G37*
G36*
X490921Y146686D02*
X476697Y141926D01*
X473841Y150460D01*
X488065Y155220D01*
X490921Y146686D01*
G37*
G36*
X547859Y130939D02*
X533635Y126179D01*
X530779Y134713D01*
X545003Y139473D01*
X547859Y130939D01*
G37*
G36*
X537388Y162234D02*
X523164Y157474D01*
X520308Y166008D01*
X534532Y170768D01*
X537388Y162234D01*
G37*
G36*
X510530Y23044D02*
X495537Y22625D01*
X495286Y31620D01*
X510279Y32039D01*
X510530Y23044D01*
G37*
G36*
X509609Y56031D02*
X494616Y55612D01*
X494365Y64607D01*
X509358Y65026D01*
X509609Y56031D01*
G37*
G36*
X559511Y24412D02*
X544518Y23993D01*
X544267Y32988D01*
X559260Y33407D01*
X559511Y24412D01*
G37*
G36*
X558590Y57399D02*
X543597Y56980D01*
X543346Y65975D01*
X558339Y66394D01*
X558590Y57399D01*
G37*
X500938Y-68599D03*
X500938Y-35599D03*
X549938Y-68599D03*
X549938Y-35599D03*
D15*
X152400Y-225200D03*
X152400Y-199800D03*
X152400Y-174400D03*
X152400Y-149000D03*
X152400Y-123600D03*
X152400Y-98200D03*
X152400Y-72800D03*
X0Y-72800D03*
X0Y-98200D03*
X0Y-123600D03*
X0Y-149000D03*
X0Y-174400D03*
X0Y-199800D03*
X0Y-225200D03*
D16*
X-528320Y0D03*
X-553720Y0D03*
X-95250Y-530860D03*
X-120650Y-530860D03*
X-210820Y-494030D03*
X-236220Y-494030D03*
X-312420Y-435610D03*
X-337820Y-435610D03*
X-393700Y-358140D03*
X-419100Y-358140D03*
X-452120Y-279400D03*
X-477520Y-279400D03*
X-494030Y-190500D03*
X-519430Y-190500D03*
X-520700Y-97790D03*
X-546100Y-97790D03*
X554990Y0D03*
X529590Y0D03*
X543560Y-105410D03*
X518160Y-105410D03*
X513080Y-207010D03*
X487680Y-207010D03*
X-518415Y102168D03*
X-543815Y102168D03*
X464820Y-300990D03*
X439420Y-300990D03*
X394970Y-382270D03*
X369570Y-382270D03*
X313690Y-450850D03*
X288290Y-450850D03*
X219710Y-500380D03*
X194310Y-500380D03*
X118110Y-530860D03*
X92710Y-530860D03*
X12700Y542205D03*
X-12700Y542205D03*
X127000Y530860D03*
X101600Y530860D03*
X234950Y494030D03*
X209550Y494030D03*
X334010Y435610D03*
X308610Y435610D03*
X419100Y358140D03*
X393700Y358140D03*
X-491188Y198702D03*
X-516588Y198702D03*
X476250Y279400D03*
X450850Y279400D03*
X519430Y190500D03*
X494030Y190500D03*
X546100Y97790D03*
X520700Y97790D03*
X-445770Y289560D03*
X-471170Y289560D03*
X-382270Y369570D03*
X-407670Y369570D03*
X-299720Y441960D03*
X-325120Y441960D03*
X-203200Y496570D03*
X-228600Y496570D03*
X-97790Y530860D03*
X-123190Y530860D03*
X12700Y-541020D03*
X-12700Y-541020D03*
D17*
X-50800Y-241300D03*
X-50800Y-215900D03*
X-50800Y-88900D03*
X-50800Y-63500D03*
X-50800Y-190500D03*
X-50800Y-165100D03*
X-50800Y-114300D03*
X-50800Y-139700D03*
X-50800Y-38100D03*
X-50800Y-12700D03*
X-50800Y12700D03*
X-50800Y38100D03*
X-50800Y63500D03*
X-50800Y88900D03*
X-50800Y114300D03*
X-50800Y139700D03*
X-50800Y165100D03*
X-50800Y190500D03*
X-50800Y215900D03*
X-50800Y241300D03*
X-228600Y241300D03*
X-228600Y215900D03*
X-228600Y190500D03*
X-228600Y165100D03*
X-228600Y139700D03*
X-228600Y114300D03*
X-228600Y88900D03*
X-228600Y63500D03*
X-228600Y38100D03*
X-228600Y12700D03*
X-228600Y-12700D03*
X-228600Y-38100D03*
X-228600Y-63500D03*
X-228600Y-88900D03*
X-228600Y-114300D03*
X-228600Y-139700D03*
X-228600Y-165100D03*
X-228600Y-190500D03*
X-228600Y-215900D03*
X-228600Y-241300D03*
X-114300Y239000D03*
X-139700Y239000D03*
X-165100Y239000D03*
D18*
X203200Y354974D03*
D19*
X203200Y329574D03*
X279400Y329574D03*
X279400Y354974D03*
D20*
X-25400Y339090D02*
X-25400Y321310D01*
X0Y321310D02*
X0Y339090D01*
X-50800Y339090D02*
X-50800Y321310D01*
X-76200Y321310D02*
X-76200Y339090D01*
X-101600Y339090D02*
X-101600Y321310D01*
X25400Y321310D02*
X25400Y339090D01*
X50800Y339090D02*
X50800Y321310D01*
X76200Y321310D02*
X76200Y339090D01*
D21*
X449580Y12700D02*
X464820Y12700D01*
X464820Y-12700D02*
X449580Y-12700D01*
X210820Y12700D02*
X195580Y12700D01*
X195580Y-12700D02*
X210820Y-12700D01*
X271780Y12700D02*
X287020Y12700D01*
X287020Y-12700D02*
X271780Y-12700D01*
X-271780Y317500D02*
X-287020Y317500D01*
X-287020Y292100D02*
X-271780Y292100D01*
X-271780Y266700D02*
X-287020Y266700D01*
X-287020Y342900D02*
X-271780Y342900D01*
X-172720Y368300D02*
X-157480Y368300D01*
X-157480Y342900D02*
X-172720Y342900D01*
X-172720Y317500D02*
X-157480Y317500D01*
X-157480Y393700D02*
X-172720Y393700D01*
X202692Y195580D02*
X202692Y180340D01*
X228092Y180340D02*
X228092Y195580D01*
X203200Y115927D02*
X203200Y100687D01*
X228600Y100687D02*
X228600Y115927D01*
D22*
X63500Y190500D03*
X38100Y190500D03*
X12700Y190500D03*
X88900Y190500D03*
X-330200Y127000D03*
X-355600Y127000D03*
X-381000Y127000D03*
X-304800Y127000D03*
D21*
X-436880Y12700D02*
X-452120Y12700D01*
X-452120Y38100D02*
X-436880Y38100D01*
X-436880Y63500D02*
X-452120Y63500D01*
X-452120Y-12700D02*
X-436880Y-12700D01*
X-436880Y-38100D02*
X-452120Y-38100D01*
X-452120Y-63500D02*
X-436880Y-63500D01*
X-401320Y-190500D02*
X-386080Y-190500D01*
X-386080Y-165100D02*
X-401320Y-165100D01*
X-401320Y-139700D02*
X-386080Y-139700D01*
X-386080Y-215900D02*
X-401320Y-215900D01*
D23*
X0Y-173750D02*
X70000Y-173750D01*
X-221250Y-146250D02*
X-227500Y-140000D01*
X-221250Y-146250D02*
X-58750Y-146250D01*
X-50000Y-155000D01*
X-18750Y-155000D01*
X0Y-173750D01*
X-227500Y-140000D02*
X-228600Y-139700D01*
X0Y-173750D02*
X0Y-174400D01*
X2500Y-530000D02*
X-95000Y-530000D01*
X8750Y-536250D02*
X12500Y-540000D01*
X8750Y-536250D02*
X2500Y-530000D01*
X-95000Y-530000D02*
X-95250Y-530860D01*
X12500Y-540000D02*
X12700Y-541020D01*
X107500Y-541250D02*
X117500Y-531250D01*
X107500Y-541250D02*
X77500Y-541250D01*
X72500Y-536250D01*
X8750Y-536250D01*
X117500Y-531250D02*
X118110Y-530860D01*
X12700Y-541020D02*
X8750Y-536250D01*
X212500Y-507500D02*
X218750Y-501250D01*
X212500Y-507500D02*
X201250Y-507500D01*
X197500Y-511250D01*
X185000Y-511250D01*
X181250Y-507500D01*
X148750Y-507500D01*
X126250Y-530000D01*
X118750Y-530000D01*
X218750Y-501250D02*
X219710Y-500380D01*
X118750Y-530000D02*
X118110Y-530860D01*
X-201250Y-503750D02*
X-210000Y-495000D01*
X-201250Y-503750D02*
X-122500Y-503750D01*
X-96250Y-530000D01*
X-210000Y-495000D02*
X-210820Y-494030D01*
X-96250Y-530000D02*
X-95250Y-530860D01*
X-312500Y-435000D02*
X-388750Y-358750D01*
X-392500Y-358750D01*
X-312500Y-435000D02*
X-312420Y-435610D01*
X-392500Y-358750D02*
X-393700Y-358140D01*
X-451250Y-273750D02*
X-433750Y-256250D01*
X-393750Y-216250D01*
X-451250Y-273750D02*
X-451250Y-278750D01*
X-393750Y-216250D02*
X-393700Y-215900D01*
X-451250Y-278750D02*
X-452120Y-279400D01*
X-387500Y0D02*
X-380000Y7500D01*
X-462500Y0D02*
X-528320Y0D01*
X-462500Y0D02*
X-387500Y0D01*
X-445000Y-62500D02*
X-462500Y-45000D01*
X-462500Y0D01*
X-445000Y-62500D02*
X-444500Y-63500D01*
X-491250Y170000D02*
X-491250Y197500D01*
X-491250Y170000D02*
X-510000Y170000D01*
X-535000Y145000D01*
X-541250Y145000D01*
X-543750Y142500D01*
X-543750Y133750D01*
X-545000Y132500D01*
X-545000Y112500D01*
X-528750Y112500D01*
X-518750Y102500D01*
X-491250Y197500D02*
X-491188Y198702D01*
X-518750Y102500D02*
X-518415Y102168D01*
X-493750Y-196250D02*
X-433750Y-256250D01*
X-493750Y-196250D02*
X-493750Y-191250D01*
X-494030Y-190500D01*
X-241250Y-152500D02*
X-228750Y-140000D01*
X-241250Y-152500D02*
X-403750Y-152500D01*
X-411250Y-160000D01*
X-411250Y-215000D01*
X-393750Y-215000D01*
X-228750Y-140000D02*
X-228600Y-139700D01*
X-393750Y-215000D02*
X-393700Y-215900D01*
X-326250Y343750D02*
X-342500Y360000D01*
X-326250Y343750D02*
X-280000Y343750D01*
X-279400Y342900D01*
X-202500Y497500D02*
X-191250Y508750D01*
X-123750Y508750D01*
X-102500Y530000D01*
X-98750Y530000D01*
X-202500Y497500D02*
X-203200Y496570D01*
X-98750Y530000D02*
X-97790Y530860D01*
X2500Y531250D02*
X12500Y541250D01*
X2500Y531250D02*
X-97500Y531250D01*
X12500Y541250D02*
X12700Y542205D01*
X-97500Y531250D02*
X-97790Y530860D01*
X116250Y520000D02*
X126250Y530000D01*
X116250Y520000D02*
X35000Y520000D01*
X13750Y541250D01*
X126250Y530000D02*
X127000Y530860D01*
X13750Y541250D02*
X12700Y542205D01*
D24*
X70000Y-173750D03*
X-380000Y7500D03*
X-342500Y360000D03*
D23*
X55000Y107500D02*
X110000Y162500D01*
D24*
X55000Y107500D03*
X110000Y162500D03*
D23*
X107500Y182500D02*
X61250Y136250D01*
X107500Y182500D02*
X118750Y182500D01*
X151250Y215000D01*
X151250Y408750D01*
D24*
X61250Y136250D03*
X151250Y408750D03*
D23*
X117500Y178750D02*
X67500Y128750D01*
X117500Y178750D02*
X123750Y178750D01*
X193750Y248750D01*
X193750Y411250D01*
X282500Y411250D01*
X306250Y435000D01*
X307500Y435000D01*
X308610Y435610D01*
D24*
X67500Y128750D03*
D23*
X75000Y111250D02*
X130000Y166250D01*
X228750Y166250D01*
X390000Y327500D01*
X390000Y357500D01*
X392500Y357500D01*
X393700Y358140D01*
D24*
X75000Y111250D03*
D23*
X81250Y103750D02*
X140000Y162500D01*
X326250Y162500D01*
X442500Y278750D01*
X450000Y278750D01*
X450850Y279400D01*
D24*
X81250Y103750D03*
D23*
X98750Y110000D02*
X127500Y138750D01*
X487500Y138750D01*
X493750Y145000D01*
X493750Y190000D01*
X494030Y190500D01*
D24*
X98750Y110000D03*
D23*
X108750Y111250D02*
X125000Y127500D01*
X498750Y127500D01*
X520000Y106250D01*
X520000Y98750D01*
X520700Y97790D01*
D24*
X108750Y111250D03*
D23*
X93750Y-17500D02*
X128750Y-52500D01*
X467500Y-52500D01*
D24*
X93750Y-17500D03*
X467500Y-52500D03*
D23*
X131250Y-46250D02*
X86250Y-1250D01*
X131250Y-46250D02*
X495000Y-46250D01*
X517500Y-68750D01*
X517500Y-105000D01*
X518160Y-105410D01*
D24*
X86250Y-1250D03*
D23*
X93750Y-27500D02*
X126250Y-60000D01*
X361250Y-60000D01*
X453750Y-152500D01*
D24*
X93750Y-27500D03*
X453750Y-152500D03*
D23*
X123750Y-107500D02*
X75000Y-58750D01*
X123750Y-107500D02*
X143750Y-107500D01*
X147500Y-111250D01*
X255000Y-111250D01*
X398750Y-255000D01*
D24*
X75000Y-58750D03*
X398750Y-255000D03*
D23*
X147500Y-212500D02*
X85000Y-150000D01*
X147500Y-212500D02*
X227500Y-212500D01*
X346250Y-331250D01*
D24*
X85000Y-150000D03*
X346250Y-331250D03*
D23*
X263750Y-395000D02*
X176250Y-307500D01*
D24*
X176250Y-307500D03*
X263750Y-395000D03*
D23*
X125000Y-505000D02*
X122500Y-507500D01*
X125000Y-505000D02*
X146250Y-505000D01*
X150000Y-501250D01*
X193750Y-501250D01*
X194310Y-500380D01*
D24*
X122500Y-507500D03*
D23*
X-13750Y-483750D02*
X-267500Y-230000D01*
D24*
X-267500Y-230000D03*
X-13750Y-483750D03*
D23*
X-427500Y-220000D02*
X-427500Y-148750D01*
D24*
X-427500Y-148750D03*
X-427500Y-220000D03*
D23*
X-453750Y-166250D02*
X-437500Y-150000D01*
D24*
X-437500Y-150000D03*
X-453750Y-166250D03*
D23*
X-492500Y-87500D02*
X-535000Y-87500D01*
X-545000Y-97500D01*
X-546100Y-97790D01*
X-492500Y-87500D02*
X-415000Y-87500D01*
D24*
X-492500Y-87500D03*
X-415000Y-87500D03*
D23*
X-506250Y10000D02*
X-505000Y11250D01*
X-506250Y10000D02*
X-542500Y10000D01*
X-552500Y0D01*
X-553720Y0D01*
X-375000Y23750D02*
X-373750Y22500D01*
X-375000Y23750D02*
X-492500Y23750D01*
X-505000Y11250D01*
D24*
X-505000Y11250D03*
X-373750Y22500D03*
D23*
X-380000Y77500D02*
X-393750Y91250D01*
X-533750Y91250D01*
X-543750Y101250D01*
X-543815Y102168D01*
D24*
X-380000Y77500D03*
D23*
X-360000Y93750D02*
X-378750Y112500D01*
X-390000Y112500D01*
X-457500Y180000D01*
D24*
X-360000Y93750D03*
X-457500Y180000D03*
D23*
X-368750Y116250D02*
X-353750Y101250D01*
X-368750Y116250D02*
X-385000Y116250D01*
X-427500Y158750D01*
D24*
X-353750Y101250D03*
X-427500Y158750D03*
D23*
X-331250Y111250D02*
X-315000Y127500D01*
X-315000Y180000D01*
X-223750Y180000D01*
X-208750Y195000D01*
D24*
X-331250Y111250D03*
X-208750Y195000D03*
D23*
X-255000Y351250D02*
X-122500Y483750D01*
D24*
X-255000Y351250D03*
X-122500Y483750D03*
D23*
X32500Y70000D02*
X-32500Y5000D01*
X-33750Y5000D01*
D24*
X32500Y70000D03*
X-33750Y5000D03*
D23*
X-3750Y-37500D02*
X32500Y-1250D01*
X-3750Y-37500D02*
X-50000Y-37500D01*
X-50800Y-38100D01*
D24*
X32500Y-1250D03*
D23*
X18750Y12500D02*
X-6250Y-12500D01*
X-50000Y-12500D01*
X-50800Y-12700D01*
D24*
X18750Y12500D03*
D23*
X-193750Y75000D02*
X-198750Y70000D01*
X-193750Y75000D02*
X-65000Y75000D01*
X-51250Y88750D01*
X-50800Y88900D01*
D24*
X-198750Y70000D03*
D23*
X-227500Y78750D02*
X-251250Y55000D01*
X-227500Y78750D02*
X-122500Y78750D01*
X-87500Y113750D01*
X-51250Y113750D01*
X-50800Y114300D01*
D24*
X-251250Y55000D03*
D23*
X-270000Y138750D02*
X-233750Y175000D01*
X-46250Y175000D01*
X-40000Y168750D01*
X-40000Y140000D01*
X-50000Y140000D01*
X-50800Y139700D01*
D24*
X-270000Y138750D03*
D23*
X-263750Y131250D02*
X-240000Y155000D01*
X-61250Y155000D01*
X-51250Y165000D01*
X-50800Y165100D01*
D24*
X-263750Y131250D03*
D23*
X-5000Y-23750D02*
X47500Y28750D01*
X-5000Y-23750D02*
X-217500Y-23750D01*
X-227500Y-13750D01*
X-228600Y-12700D01*
D24*
X47500Y28750D03*
D23*
X-228750Y-37500D02*
X-386250Y-37500D01*
X-228750Y-37500D02*
X-228600Y-38100D01*
D24*
X-386250Y-37500D03*
D23*
X140000Y486250D02*
X112500Y513750D01*
X95000Y513750D01*
X86250Y545000D02*
X85000Y546250D01*
X77500Y546250D01*
X140000Y486250D02*
X140901Y485562D01*
X77500Y546250D02*
X76532Y547021D01*
D24*
X95000Y513750D03*
X86250Y545000D03*
D23*
X190000Y495000D02*
X237500Y447500D01*
X190000Y495000D02*
X190000Y520000D01*
X237500Y447500D02*
X238077Y446713D01*
X190000Y520000D02*
X188851Y520070D01*
X297500Y417500D02*
X326250Y388750D01*
X291250Y450000D02*
X291250Y465000D01*
X293750Y465000D01*
X326250Y388750D02*
X327393Y387600D01*
X294249Y465009D02*
X293750Y465000D01*
D24*
X297500Y417500D03*
X291250Y450000D03*
D23*
X451250Y236250D02*
X447500Y232500D01*
X451250Y236250D02*
X485000Y236250D01*
X501250Y252500D01*
X501250Y256250D01*
X498750Y258750D01*
X498750Y260000D01*
X497500Y261250D01*
X497500Y262500D01*
X496250Y263750D01*
X496250Y265000D01*
X486250Y275000D01*
X486250Y283750D01*
X457500Y312500D01*
X456250Y312500D01*
X447500Y232500D02*
X446315Y231828D01*
X456250Y312500D02*
X456247Y313214D01*
X482500Y226250D02*
X482500Y148750D01*
X482500Y226250D02*
X505000Y226250D01*
X482500Y148750D02*
X482381Y148573D01*
X505000Y226250D02*
X505143Y226414D01*
X536250Y95000D02*
X502500Y61250D01*
X536250Y95000D02*
X536250Y132500D01*
X538750Y132500D01*
X502500Y61250D02*
X501987Y60319D01*
X538750Y132500D02*
X539319Y132826D01*
X501250Y-116250D02*
X490000Y-127500D01*
X501250Y-116250D02*
X521250Y-116250D01*
X532500Y-105000D01*
X532500Y-68750D01*
X548750Y-68750D01*
X490000Y-127500D02*
X489521Y-128195D01*
X548750Y-68750D02*
X549938Y-68599D01*
X498750Y-178750D02*
X455000Y-222500D01*
X498750Y-178750D02*
X520000Y-178750D01*
X455000Y-222500D02*
X453765Y-222843D01*
X520000Y-178750D02*
X520248Y-178651D01*
X426250Y-277500D02*
X401250Y-302500D01*
X426250Y-277500D02*
X477500Y-277500D01*
X401250Y-302500D02*
X400743Y-303749D01*
X477500Y-277500D02*
X478677Y-276410D01*
X341250Y-436250D02*
X248750Y-436250D01*
X341250Y-436250D02*
X341400Y-437184D01*
X248750Y-436250D02*
X248388Y-436476D01*
X228750Y-476250D02*
X247500Y-495000D01*
X228750Y-476250D02*
X160000Y-476250D01*
X247500Y-495000D02*
X248120Y-495552D01*
X160000Y-476250D02*
X158804Y-475061D01*
X152500Y-531250D02*
X151250Y-532500D01*
X152500Y-531250D02*
X185000Y-531250D01*
X205000Y-511250D01*
X223750Y-511250D01*
X230000Y-505000D01*
X230000Y-490000D01*
X145000Y-490000D01*
X133750Y-501250D01*
X71250Y-501250D01*
X150216Y-533510D02*
X151250Y-532500D01*
X71250Y-501250D02*
X70349Y-500702D01*
X-70000Y-548750D02*
X-72500Y-546250D01*
X-80000Y-546250D01*
X-85000Y-522500D02*
X-118750Y-488750D01*
X-132500Y-488750D01*
X-70000Y-548750D02*
X-69678Y-549793D01*
X-132500Y-488750D02*
X-133203Y-487917D01*
D24*
X-80000Y-546250D03*
X-85000Y-522500D03*
D23*
X-191250Y-493750D02*
X-238750Y-446250D01*
X-191250Y-513750D02*
X-185000Y-520000D01*
X-183750Y-520000D01*
X-238750Y-446250D02*
X-239172Y-445730D01*
X-183750Y-520000D02*
X-182669Y-520214D01*
D24*
X-191250Y-493750D03*
X-191250Y-513750D03*
D23*
X-292500Y-417500D02*
X-323750Y-386250D01*
X-292500Y-417500D02*
X-292500Y-472500D01*
X-323750Y-386250D02*
X-324974Y-385966D01*
X-292500Y-472500D02*
X-291648Y-472863D01*
X-456250Y-313750D02*
X-443750Y-301250D01*
X-441250Y-237500D02*
X-441250Y-228750D01*
X-446250Y-228750D01*
X-456250Y-313750D02*
X-457126Y-314053D01*
X-446250Y-228750D02*
X-446282Y-228573D01*
D24*
X-443750Y-301250D03*
X-441250Y-237500D03*
D23*
X-505000Y-227500D02*
X-505000Y-216250D01*
X-482500Y-165000D02*
X-482500Y-155000D01*
X-505000Y-227500D02*
X-505357Y-228306D01*
X-482500Y-155000D02*
X-481394Y-154670D01*
D24*
X-505000Y-216250D03*
X-482500Y-165000D03*
D23*
X-535000Y-130000D02*
X-498750Y-93750D01*
X-412500Y-93750D01*
X-408750Y-90000D01*
X-408750Y-81250D01*
X-485000Y-81250D01*
X-501250Y-65000D01*
X-535000Y-130000D02*
X-535380Y-130680D01*
X-501250Y-65000D02*
X-501486Y-64521D01*
X-548750Y70000D02*
X-542500Y76250D01*
X-387500Y76250D01*
X-381250Y70000D01*
X-376250Y70000D01*
X-372500Y73750D01*
X-372500Y101250D01*
X-458750Y101250D01*
X-485000Y127500D01*
X-548750Y70000D02*
X-549848Y69270D01*
X-485000Y127500D02*
X-485120Y127833D01*
X-527500Y168750D02*
X-501250Y195000D01*
X-501250Y213750D01*
X-458750Y213750D01*
X-527500Y168750D02*
X-528001Y168467D01*
X-458750Y213750D02*
X-458215Y214086D01*
X-486250Y266250D02*
X-473750Y278750D01*
X-427500Y278750D01*
X-410000Y296250D01*
X-486250Y266250D02*
X-486531Y265934D01*
X-410000Y296250D02*
X-409130Y297059D01*
X-351250Y430000D02*
X-350000Y431250D01*
X-258750Y431250D01*
X-351250Y430000D02*
X-351308Y429876D01*
X-258750Y431250D02*
X-258579Y431433D01*
X-242500Y475000D02*
X-257500Y490000D01*
X-242500Y475000D02*
X-167500Y475000D01*
X-257500Y490000D02*
X-258312Y490509D01*
X-167500Y475000D02*
X-166581Y474810D01*
X-153750Y532500D02*
X-141250Y532500D01*
X-116250Y507500D02*
X-110000Y501250D01*
X-72500Y501250D01*
X-153750Y532500D02*
X-154138Y532560D01*
X-72500Y501250D02*
X-71502Y500547D01*
D24*
X-141250Y532500D03*
X-116250Y507500D03*
D23*
X396250Y341250D02*
X396250Y312500D01*
X383750Y382500D02*
X383750Y396250D01*
X385000Y396250D01*
X396250Y312500D02*
X397193Y311626D01*
X385000Y396250D02*
X385767Y396680D01*
D24*
X396250Y341250D03*
X383750Y382500D03*
D23*
X501250Y16250D02*
X501250Y-35000D01*
X501250Y16250D02*
X540000Y16250D01*
X551250Y27500D01*
X501250Y-35000D02*
X500938Y-35599D01*
X551250Y27500D02*
X551889Y28700D01*
X348750Y-362500D02*
X333750Y-377500D01*
X348750Y-362500D02*
X411250Y-362500D01*
X333750Y-377500D02*
X332831Y-378733D01*
X411250Y-362500D02*
X412057Y-361731D01*
X-397500Y-340000D02*
X-397500Y-312500D01*
X-383750Y-387500D02*
X-383750Y-401250D01*
X-382500Y-401250D01*
X-397500Y-312500D02*
X-398087Y-311949D01*
X-382500Y-401250D02*
X-381779Y-402191D01*
D24*
X-397500Y-340000D03*
X-383750Y-387500D03*
D23*
X-550000Y-31250D02*
X-528750Y-10000D01*
X-520000Y-10000D01*
X-511250Y26250D02*
X-501250Y36250D01*
X-550000Y-31250D02*
X-550486Y-31521D01*
X-501250Y36250D02*
X-500848Y36270D01*
D24*
X-520000Y-10000D03*
X-511250Y26250D03*
D23*
X-427500Y353750D02*
X-422500Y358750D01*
X-352500Y358750D01*
X-340000Y371250D01*
X-427500Y353750D02*
X-427915Y353069D01*
X-340000Y371250D02*
X-339994Y371894D01*
X30000Y-542500D02*
X36250Y-548750D01*
X30000Y-542500D02*
X27500Y-542500D01*
X23750Y-530000D02*
X-5000Y-501250D01*
X-36250Y-501250D01*
X36250Y-548750D02*
X37349Y-549702D01*
X-36250Y-501250D02*
X-36678Y-500793D01*
D24*
X27500Y-542500D03*
X23750Y-530000D03*
D23*
X-61250Y-125000D02*
X-51250Y-115000D01*
X-61250Y-125000D02*
X-263750Y-125000D01*
X-266250Y-122500D01*
X-365000Y-122500D01*
X-51250Y-115000D02*
X-50800Y-114300D01*
X-33750Y-113750D02*
X-30000Y-110000D01*
X-33750Y-113750D02*
X-50000Y-113750D01*
X-50800Y-114300D01*
D24*
X-365000Y-122500D03*
X-30000Y-110000D03*
D23*
X-383750Y-156250D02*
X-392500Y-165000D01*
X-383750Y-156250D02*
X-233750Y-156250D01*
X-230000Y-152500D01*
X-63750Y-152500D01*
X-392500Y-165000D02*
X-393700Y-165100D01*
D24*
X-63750Y-152500D03*
D23*
X-191250Y205000D02*
X-227500Y241250D01*
X-191250Y205000D02*
X-42500Y205000D01*
X45000Y117500D01*
X45000Y35000D01*
X50000Y35000D01*
X78750Y6250D01*
X78750Y-48750D01*
X110000Y-48750D01*
X133750Y-72500D01*
X151250Y-72500D01*
X-227500Y241250D02*
X-228600Y241300D01*
X151250Y-72500D02*
X152400Y-72800D01*
X-213750Y201250D02*
X-227500Y215000D01*
X-213750Y201250D02*
X-47500Y201250D01*
X0Y153750D01*
X-227500Y215000D02*
X-228600Y215900D01*
D24*
X0Y153750D03*
D23*
X203750Y278750D02*
X278750Y353750D01*
X203750Y278750D02*
X203750Y188750D01*
X278750Y353750D02*
X279400Y354974D01*
X203750Y188750D02*
X202692Y187960D01*
X126250Y355000D02*
X-12500Y216250D01*
X-50000Y216250D01*
X-50800Y215900D01*
D24*
X126250Y355000D03*
D23*
X-193750Y232500D02*
X-278750Y317500D01*
X-279400Y317500D01*
D24*
X-193750Y232500D03*
D23*
X-70000Y57500D02*
X-51250Y38750D01*
X-70000Y57500D02*
X-96250Y57500D01*
X-51250Y38750D02*
X-50800Y38100D01*
D24*
X-96250Y57500D03*
D23*
X-88750Y51250D02*
X-51250Y13750D01*
X-50800Y12700D01*
D24*
X-88750Y51250D03*
D23*
X48750Y-140000D02*
X133750Y-225000D01*
X151250Y-225000D01*
X152400Y-225200D01*
D24*
X48750Y-140000D03*
D23*
X91250Y188750D02*
X90000Y190000D01*
X91250Y188750D02*
X116250Y188750D01*
X90000Y190000D02*
X88900Y190500D01*
D24*
X116250Y188750D03*
D23*
X-333750Y-103750D02*
X-392500Y-45000D01*
X-333750Y-103750D02*
X-12500Y-103750D01*
X-5000Y-111250D01*
X135000Y-111250D01*
X146250Y-122500D01*
X151250Y-122500D01*
X152400Y-123600D01*
D24*
X-392500Y-45000D03*
D23*
X-380000Y-28750D02*
X-386250Y-22500D01*
X-380000Y-28750D02*
X-233750Y-28750D01*
X-232500Y-27500D01*
X-76250Y-27500D01*
X-51250Y-52500D01*
X106250Y-52500D01*
X151250Y-97500D01*
X152400Y-98200D01*
D24*
X-386250Y-22500D03*
D23*
X-302500Y125000D02*
X-303750Y126250D01*
X-302500Y125000D02*
X-17500Y125000D01*
X-303750Y126250D02*
X-304800Y127000D01*
D24*
X-17500Y125000D03*
D23*
X-331250Y126250D02*
X-340000Y117500D01*
X-340000Y105000D01*
X-268750Y105000D01*
X-260000Y113750D01*
X-255000Y113750D01*
X-251250Y110000D01*
X-251250Y61250D01*
X-253750Y61250D01*
X-257500Y57500D01*
X-257500Y48750D01*
X-101250Y48750D01*
X-50000Y-2500D01*
X-18750Y-2500D01*
X-330200Y127000D02*
X-331250Y126250D01*
D24*
X-18750Y-2500D03*
D23*
X28750Y500000D02*
X33750Y505000D01*
X28750Y500000D02*
X10000Y500000D01*
X33750Y505000D02*
X34571Y505437D01*
D24*
X10000Y500000D03*
D23*
X53750Y-136250D02*
X197500Y-136250D01*
X53750Y-136250D02*
X51250Y-133750D01*
X7500Y-133750D01*
X5000Y-136250D01*
X-40000Y-136250D01*
X-47500Y-128750D01*
X-268750Y-128750D01*
D24*
X197500Y-136250D03*
X-268750Y-128750D03*
D23*
X-333750Y-16250D02*
X-302500Y15000D01*
X-333750Y-16250D02*
X-422500Y-16250D01*
X-443750Y-37500D01*
X-444500Y-38100D01*
D24*
X-302500Y15000D03*
D23*
X-312500Y13750D02*
X-338750Y-12500D01*
X-443750Y-12500D01*
X-444500Y-12700D01*
D24*
X-312500Y13750D03*
D23*
X-321250Y13750D02*
X-298750Y36250D01*
X-321250Y13750D02*
X-443750Y13750D01*
X-444500Y12700D01*
D24*
X-298750Y36250D03*
D23*
X-282500Y82500D02*
X-257500Y107500D01*
X-282500Y82500D02*
X-345000Y82500D01*
X-388750Y38750D01*
X-443750Y38750D01*
X-444500Y38100D01*
D24*
X-257500Y107500D03*
D23*
X-177500Y-507500D02*
X-152500Y-532500D01*
X-177500Y-507500D02*
X-243750Y-507500D01*
X-262500Y-488750D01*
X-152500Y-532500D02*
X-152270Y-533056D01*
X-262500Y-488750D02*
X-262703Y-488710D01*
X-36250Y-550000D02*
X-26250Y-560000D01*
X56250Y-560000D01*
X66250Y-550000D01*
X70000Y-550000D01*
X-36250Y-550000D02*
X-36678Y-549793D01*
X70000Y-550000D02*
X70349Y-549702D01*
X177500Y-521250D02*
X178750Y-520000D01*
X177500Y-521250D02*
X142500Y-521250D01*
X115000Y-548750D01*
X71250Y-548750D01*
X178750Y-520000D02*
X179976Y-519251D01*
X71250Y-548750D02*
X70349Y-549702D01*
X-143750Y-541250D02*
X-151250Y-533750D01*
X-143750Y-541250D02*
X-83750Y-541250D01*
X-82500Y-540000D01*
X-46250Y-540000D01*
X-37500Y-548750D01*
X-151250Y-533750D02*
X-152270Y-533056D01*
X-37500Y-548750D02*
X-36678Y-549793D01*
X-357500Y-422500D02*
X-357500Y-395000D01*
X-367500Y-395000D01*
X-393750Y-368750D01*
X-422500Y-368750D01*
X-437500Y-353750D01*
X-437500Y-341250D01*
X-357500Y-422500D02*
X-356536Y-423447D01*
X-437500Y-341250D02*
X-437729Y-340751D01*
X-236250Y-223750D02*
X-228750Y-216250D01*
X-236250Y-223750D02*
X-367500Y-223750D01*
X-437500Y-293750D01*
X-437500Y-340000D01*
X-228750Y-216250D02*
X-228600Y-215900D01*
X-437500Y-340000D02*
X-437729Y-340751D01*
X-551250Y-57500D02*
X-551250Y-38750D01*
X-551250Y-57500D02*
X-551250Y-63750D01*
X-551250Y-38750D02*
X-558750Y-38750D01*
X-561250Y-36250D01*
X-561250Y-7500D01*
X-563750Y-5000D01*
X-563750Y23750D01*
X-562500Y23750D01*
X-550000Y36250D01*
X-551250Y-63750D02*
X-550486Y-64521D01*
X-550000Y36250D02*
X-549848Y36270D01*
X-486250Y-208750D02*
X-486250Y-255000D01*
X-486250Y-208750D02*
X-490000Y-208750D01*
X-508750Y-190000D01*
X-508750Y-163750D01*
X-528750Y-163750D01*
X-486250Y-255000D02*
X-487048Y-255760D01*
X-528750Y-163750D02*
X-529650Y-163179D01*
X-551250Y-57500D02*
X-472500Y-57500D01*
X-452500Y-77500D01*
X-365000Y-77500D01*
X-362500Y-80000D01*
X-362500Y-113750D01*
X-493750Y-113750D01*
X-508750Y-128750D01*
X-508750Y-163750D01*
X-441250Y-290000D02*
X-437500Y-293750D01*
X-441250Y-290000D02*
X-456250Y-290000D01*
X-467500Y-278750D01*
X-467500Y-256250D01*
X-486250Y-256250D01*
X-487048Y-255760D01*
X-262500Y-441250D02*
X-262500Y-487500D01*
X-262703Y-488710D01*
X-276250Y462500D02*
X-285000Y471250D01*
X-165000Y462500D02*
X-162500Y462500D01*
X-165000Y462500D02*
X-276250Y462500D01*
X-162500Y462500D02*
X-156250Y468750D01*
X-156250Y486250D01*
X-207500Y486250D01*
X-213750Y492500D01*
X-213750Y520000D01*
X-185000Y520000D01*
X-285000Y471250D02*
X-285766Y472199D01*
X-185000Y520000D02*
X-184778Y520305D01*
X-68750Y546250D02*
X-61250Y538750D01*
X-68750Y546250D02*
X-71250Y548750D01*
X-61250Y538750D02*
X-31250Y538750D01*
X-17500Y552500D01*
X43750Y552500D01*
X-71250Y548750D02*
X-71502Y549547D01*
X43750Y552500D02*
X44172Y553487D01*
X148750Y541250D02*
X157500Y532500D01*
X148750Y541250D02*
X91250Y541250D01*
X86250Y536250D01*
X61250Y536250D01*
X45000Y552500D01*
X157500Y532500D02*
X157901Y531519D01*
X45000Y552500D02*
X44172Y553487D01*
X-143750Y521250D02*
X-183750Y521250D01*
X-143750Y521250D02*
X-133750Y531250D01*
X-133750Y546250D01*
X-68750Y546250D01*
X-183750Y521250D02*
X-184778Y520305D01*
X-71502Y549547D02*
X-68750Y546250D01*
X-351250Y383750D02*
X-373750Y406250D01*
X-351250Y383750D02*
X-296250Y383750D01*
X-257500Y345000D01*
X-213750Y345000D01*
X-166250Y392500D01*
X-373750Y406250D02*
X-374642Y406542D01*
X-166250Y392500D02*
X-165100Y393700D01*
X-517500Y151250D02*
X-532500Y136250D01*
X-517500Y151250D02*
X-505000Y151250D01*
X-446250Y210000D01*
X-446250Y236250D01*
X-466250Y236250D02*
X-501250Y236250D01*
X-466250Y236250D02*
X-446250Y236250D01*
X-532500Y136250D02*
X-533448Y135920D01*
X-501250Y236250D02*
X-501718Y236636D01*
X-430000Y308750D02*
X-447500Y326250D01*
X-418750Y308750D02*
X-408750Y308750D01*
X-418750Y308750D02*
X-430000Y308750D01*
X-408750Y308750D02*
X-397500Y297500D01*
X-397500Y253750D01*
X-448750Y253750D01*
X-466250Y236250D01*
X-447500Y326250D02*
X-448004Y326888D01*
X-257500Y332500D02*
X-257500Y345000D01*
X-257500Y332500D02*
X-388750Y332500D01*
X-391250Y335000D01*
X-392500Y335000D01*
X-418750Y308750D01*
X-165000Y461250D02*
X-165000Y462500D01*
X267500Y-468750D02*
X275000Y-476250D01*
X267500Y-468750D02*
X220000Y-468750D01*
X275000Y-476250D02*
X275575Y-477242D01*
X496250Y-247500D02*
X496250Y-212500D01*
X502500Y-206250D01*
X502500Y-188750D01*
X526250Y-188750D01*
X531250Y-183750D01*
X531250Y-178750D01*
X533750Y-176250D01*
X533750Y-148750D01*
X496250Y-247500D02*
X495722Y-248153D01*
X533750Y-148750D02*
X534038Y-148670D01*
X387500Y-392500D02*
X366250Y-413750D01*
X387500Y-392500D02*
X398750Y-392500D01*
X435000Y-356250D01*
X435000Y-338750D01*
X366250Y-413750D02*
X365808Y-414975D01*
X435000Y-338750D02*
X435391Y-338397D01*
X478750Y-265000D02*
X495000Y-248750D01*
X478750Y-265000D02*
X425000Y-265000D01*
X388750Y-301250D01*
X388750Y-337500D01*
X435000Y-337500D01*
X495000Y-248750D02*
X495722Y-248153D01*
X435000Y-337500D02*
X435391Y-338397D01*
X353750Y-413750D02*
X326250Y-386250D01*
X353750Y-413750D02*
X365000Y-413750D01*
X365808Y-414975D01*
X528750Y140000D02*
X528750Y163750D01*
X531250Y81250D02*
X550000Y62500D01*
X528750Y163750D02*
X528848Y164121D01*
X550000Y62500D02*
X550968Y61687D01*
X548750Y-36250D02*
X542500Y-42500D01*
X492500Y-42500D01*
X490000Y-40000D01*
X490000Y20000D01*
X511250Y20000D01*
X550000Y58750D01*
X550000Y61250D01*
X549938Y-35599D02*
X548750Y-36250D01*
X550000Y61250D02*
X550968Y61687D01*
X488750Y256250D02*
X476250Y268750D01*
X472500Y268750D01*
X461250Y280000D01*
X461250Y302500D01*
X451250Y302500D01*
X437500Y316250D01*
X437500Y340000D01*
X488750Y256250D02*
X489295Y255359D01*
X437500Y340000D02*
X437084Y340080D01*
X362500Y421250D02*
X322500Y461250D01*
X313750Y461250D01*
X312500Y462500D02*
X296250Y478750D01*
X312500Y462500D02*
X313750Y461250D01*
X296250Y478750D02*
X275000Y478750D01*
X268750Y485000D01*
X362500Y421250D02*
X363345Y420893D01*
X268750Y485000D02*
X268244Y485325D01*
X436250Y355000D02*
X436250Y341250D01*
X436250Y355000D02*
X415000Y376250D01*
X381250Y376250D01*
X363750Y393750D01*
X363750Y420000D01*
X436250Y341250D02*
X437084Y340080D01*
X363750Y420000D02*
X363345Y420893D01*
X482500Y255000D02*
X482500Y242500D01*
X482500Y255000D02*
X488750Y255000D01*
X489295Y255359D01*
X533750Y-115000D02*
X533750Y-147500D01*
X534038Y-148670D01*
X-143750Y415000D02*
X-165000Y393750D01*
X-143750Y415000D02*
X265000Y415000D01*
X312500Y462500D01*
X-165000Y393750D02*
X-165100Y393700D01*
X-516250Y70000D02*
X-548750Y37500D01*
X-505000Y106250D02*
X-533750Y135000D01*
X-548750Y37500D02*
X-549848Y36270D01*
X-533750Y135000D02*
X-533448Y135920D01*
D24*
X-262500Y-441250D03*
X-165000Y461250D03*
X220000Y-468750D03*
X326250Y-386250D03*
X528750Y140000D03*
X531250Y81250D03*
X482500Y242500D03*
X533750Y-115000D03*
X-516250Y70000D03*
X-505000Y106250D03*
D25*
X368300Y-25400D03*
D23*
X-268750Y-428750D02*
X-276250Y-421250D01*
X-268750Y-428750D02*
X-268117Y-429883D01*
X-341250Y-373750D02*
X-350000Y-365000D01*
X-341250Y-373750D02*
X-322500Y-373750D01*
X-267500Y-428750D01*
X-350000Y-365000D02*
X-350217Y-364710D01*
X-267500Y-428750D02*
X-268117Y-429883D01*
X-401250Y-301250D02*
X-416250Y-286250D01*
X-401250Y-301250D02*
X-393750Y-301250D01*
X-347500Y-347500D01*
X-347500Y-363750D01*
X-350000Y-363750D01*
X-416250Y-286250D02*
X-417484Y-285251D01*
X-350000Y-363750D02*
X-350217Y-364710D01*
X437500Y-207500D02*
X437500Y-158750D01*
X437500Y-207500D02*
X437500Y-250000D01*
X468750Y-158750D02*
X475000Y-158750D01*
X468750Y-158750D02*
X437500Y-158750D01*
X437500Y-250000D02*
X436719Y-251100D01*
X475000Y-158750D02*
X475732Y-158176D01*
X468750Y-100000D02*
X500000Y-68750D01*
X468750Y-100000D02*
X468750Y-158750D01*
X500000Y-68750D02*
X500938Y-68599D01*
X475732Y-158176D02*
X468750Y-158750D01*
X-70000Y-500000D02*
X-93750Y-476250D01*
X-162500Y-476250D01*
X-70000Y-500000D02*
X-69678Y-500793D01*
X-162500Y-476250D02*
X-163602Y-475076D01*
X37500Y-500000D02*
X47500Y-490000D01*
X128750Y-490000D01*
X37500Y-500000D02*
X37349Y-500702D01*
X128750Y-490000D02*
X129044Y-489320D01*
X211250Y-463750D02*
X220000Y-455000D01*
X211250Y-463750D02*
X153750Y-463750D01*
X128750Y-488750D01*
X220000Y-455000D02*
X220933Y-454786D01*
X129044Y-489320D02*
X128750Y-488750D01*
X283750Y-425000D02*
X307500Y-401250D01*
X283750Y-425000D02*
X243750Y-425000D01*
X232500Y-436250D02*
X221250Y-447500D01*
X232500Y-436250D02*
X243750Y-425000D01*
X221250Y-447500D02*
X221250Y-453750D01*
X307500Y-401250D02*
X308423Y-400942D01*
X221250Y-453750D02*
X220933Y-454786D01*
X336250Y-367500D02*
X376250Y-327500D01*
X336250Y-367500D02*
X328750Y-367500D01*
X308750Y-387500D01*
X308750Y-400000D01*
X376250Y-327500D02*
X377409Y-327083D01*
X308750Y-400000D02*
X308423Y-400942D01*
X-58750Y-490000D02*
X-68750Y-500000D01*
X-58750Y-490000D02*
X47500Y-490000D01*
X-68750Y-500000D02*
X-69678Y-500793D01*
X426250Y-261250D02*
X436250Y-251250D01*
X426250Y-261250D02*
X423750Y-261250D01*
X377500Y-307500D01*
X377500Y-326250D01*
X436250Y-251250D02*
X436719Y-251100D01*
X377500Y-326250D02*
X377409Y-327083D01*
X-263750Y-433750D02*
X-267500Y-430000D01*
X-263750Y-433750D02*
X-205000Y-433750D01*
X-163750Y-475000D01*
X-267500Y-430000D02*
X-268117Y-429883D01*
X-163750Y-475000D02*
X-163602Y-475076D01*
X-470000Y-138750D02*
X-486250Y-122500D01*
X-463750Y-138750D02*
X-393750Y-138750D01*
X-463750Y-138750D02*
X-470000Y-138750D01*
X-486250Y-122500D02*
X-487124Y-122171D01*
X-393750Y-138750D02*
X-393700Y-139700D01*
X-463750Y-138750D02*
X-463750Y-200000D01*
X-464592Y-201118D01*
X-501250Y-31250D02*
X-501250Y-13750D01*
X-501250Y-31250D02*
X-501486Y-31521D01*
X-495000Y63750D02*
X-500000Y68750D01*
X-495000Y63750D02*
X-445000Y63750D01*
X-500000Y68750D02*
X-500848Y69270D01*
X-445000Y63750D02*
X-444500Y63500D01*
X-478750Y161250D02*
X-478750Y172500D01*
X-442500Y208750D01*
X-442500Y242500D01*
X-478750Y161250D02*
X-479673Y160380D01*
X-442500Y242500D02*
X-443028Y243384D01*
X-390000Y243750D02*
X-390000Y267500D01*
X-390000Y322500D01*
X-421250Y243750D02*
X-442500Y243750D01*
X-421250Y243750D02*
X-390000Y243750D01*
X-390000Y322500D02*
X-389041Y323240D01*
X-442500Y243750D02*
X-443028Y243384D01*
X-390000Y267500D02*
X-280000Y267500D01*
X-279400Y266700D01*
X416250Y285000D02*
X416250Y347500D01*
X415000Y347500D01*
X403750Y358750D01*
X403750Y368750D01*
X355000Y368750D01*
X350000Y363750D01*
X416250Y285000D02*
X416356Y284760D01*
X349814Y363387D02*
X350000Y363750D01*
X492500Y116250D02*
X492500Y66250D01*
X491250Y65000D01*
X491250Y27500D01*
X502500Y27500D01*
X492500Y116250D02*
X492852Y117278D01*
X502500Y27500D02*
X502908Y27332D01*
X461250Y203750D02*
X435000Y203750D01*
X461250Y203750D02*
X462163Y202883D01*
X490000Y66250D02*
X491250Y65000D01*
X490000Y66250D02*
X457500Y66250D01*
X348750Y363750D02*
X347500Y365000D01*
X238750Y365000D01*
X203750Y330000D01*
X348750Y363750D02*
X349814Y363387D01*
X203750Y330000D02*
X203200Y329574D01*
X-292500Y420000D02*
X-316250Y396250D01*
X-271250Y420000D02*
X-253750Y420000D01*
X-271250Y420000D02*
X-292500Y420000D01*
X-253750Y420000D02*
X-231250Y442500D01*
X-231250Y448750D01*
X-316250Y396250D02*
X-316659Y395228D01*
X-231250Y448750D02*
X-231124Y449743D01*
X256250Y435000D02*
X263750Y427500D01*
X216250Y435000D02*
X211250Y435000D01*
X216250Y435000D02*
X256250Y435000D01*
X211250Y435000D02*
X172500Y473750D01*
X263750Y427500D02*
X264081Y426396D01*
X172500Y473750D02*
X171851Y474113D01*
X-132500Y490000D02*
X-135000Y487500D01*
X-127500Y490000D02*
X-48750Y490000D01*
X-127500Y490000D02*
X-132500Y490000D01*
X-45000Y493750D02*
X-38750Y500000D01*
X-45000Y493750D02*
X-48750Y490000D01*
X-135000Y487500D02*
X-135941Y487065D01*
X-38750Y500000D02*
X-38502Y500547D01*
X61250Y493750D02*
X66250Y498750D01*
X61250Y493750D02*
X-45000Y493750D01*
X66250Y498750D02*
X66931Y498971D01*
X92500Y473750D02*
X171250Y473750D01*
X92500Y473750D02*
X67500Y498750D01*
X171250Y473750D02*
X171851Y474113D01*
X67500Y498750D02*
X66931Y498971D01*
X-225000Y455000D02*
X-230000Y450000D01*
X-225000Y455000D02*
X-162500Y455000D01*
X-127500Y490000D01*
X-230000Y450000D02*
X-231124Y449743D01*
X-50000Y-191250D02*
X-42500Y-198750D01*
X0Y-198750D01*
X-50000Y-191250D02*
X-50800Y-190500D01*
X0Y-198750D02*
X0Y-199800D01*
X17500Y63750D02*
X18750Y65000D01*
X17500Y63750D02*
X-50000Y63750D01*
X-50800Y63500D01*
X-96250Y310000D02*
X-76250Y330000D01*
X-96250Y310000D02*
X-157500Y310000D01*
X-165000Y317500D01*
X-76250Y330000D02*
X-76200Y330200D01*
X-165000Y317500D02*
X-165100Y317500D01*
X-227500Y63750D02*
X-51250Y63750D01*
X-227500Y63750D02*
X-228600Y63500D01*
X-51250Y63750D02*
X-50800Y63500D01*
X-391250Y-298750D02*
X-393750Y-301250D01*
D24*
X-276250Y-421250D03*
X437500Y-207500D03*
X232500Y-436250D03*
X-501250Y-13750D03*
X-421250Y243750D03*
X435000Y203750D03*
X457500Y66250D03*
X18750Y65000D03*
X-271250Y420000D03*
X216250Y435000D03*
X-391250Y-298750D03*
D25*
X368300Y25400D03*
M02*
