G04 EAGLE Gerber RS-274X export*
G75*
%MOMM*%
%FSLAX34Y34*%
%LPD*%
%INBottom Copper*%
%IPPOS*%
%AMOC8*
5,1,8,0,0,1.08239X$1,22.5*%
G01*
G04 Define Apertures*
%ADD10C,1.524000*%
%ADD11C,1.108000*%
%ADD12R,1.320800X1.320800*%
%ADD13C,1.320800*%
%ADD14C,1.676400*%
%ADD15C,1.400000*%
%ADD16C,1.498000*%
%ADD17R,1.498000X1.498000*%
%ADD18C,0.406400*%
%ADD19C,0.756400*%
%ADD20C,0.152400*%
%ADD21C,2.000000*%
%ADD22C,0.508000*%
%ADD23C,0.609600*%
D10*
X812380Y-12700D02*
X827620Y-12700D01*
X827620Y12700D02*
X812380Y12700D01*
X812380Y38100D02*
X827620Y38100D01*
X827620Y-38100D02*
X812380Y-38100D01*
X812380Y127300D02*
X827620Y127300D01*
X827620Y152700D02*
X812380Y152700D01*
X812380Y178100D02*
X827620Y178100D01*
X827620Y101900D02*
X812380Y101900D01*
X812380Y-152700D02*
X827620Y-152700D01*
X827620Y-127300D02*
X812380Y-127300D01*
X812380Y-101900D02*
X827620Y-101900D01*
X827620Y-178100D02*
X812380Y-178100D01*
D11*
X899467Y124507D02*
X910343Y126621D01*
X893857Y211433D02*
X882981Y209319D01*
X940499Y132483D02*
X951375Y134597D01*
X934889Y219409D02*
X924013Y217295D01*
X919128Y-43200D02*
X908048Y-43200D01*
X908048Y43200D02*
X919128Y43200D01*
X949848Y-43200D02*
X960928Y-43200D01*
X960928Y43200D02*
X949848Y43200D01*
X893041Y-216954D02*
X882164Y-214840D01*
X898650Y-130027D02*
X909527Y-132141D01*
X923196Y-222815D02*
X934073Y-224930D01*
X950559Y-140117D02*
X939682Y-138003D01*
D10*
X602859Y-63989D02*
X587619Y-63989D01*
X587619Y-38589D02*
X602859Y-38589D01*
D12*
X673856Y-218077D03*
D13*
X673856Y-243477D03*
X750056Y-243477D03*
X750056Y-218077D03*
D14*
X660000Y-150800D03*
X660000Y-49200D03*
D10*
X602930Y127749D02*
X587690Y127749D01*
X587690Y153149D02*
X602930Y153149D01*
X602930Y37749D02*
X587690Y37749D01*
X587690Y63149D02*
X602930Y63149D01*
D15*
X692500Y210000D03*
X747500Y210000D03*
D16*
X606834Y278856D03*
X627543Y238905D03*
X549126Y248943D03*
D17*
G36*
X559739Y212194D02*
X573037Y219088D01*
X579931Y205790D01*
X566633Y198896D01*
X559739Y212194D01*
G37*
D18*
X851916Y-146304D02*
X854202Y-146304D01*
X851916Y-146304D02*
X820674Y-177546D01*
X820000Y-178100D01*
X844296Y125730D02*
X844296Y153924D01*
X844296Y125730D02*
X820674Y102108D01*
X820000Y101900D01*
X834390Y-24384D02*
X838962Y-24384D01*
X853440Y-24384D01*
X875538Y-24384D01*
X834390Y-24384D02*
X820674Y-38100D01*
X820000Y-38100D01*
X819912Y61722D02*
X819912Y99822D01*
X819912Y61722D02*
X838962Y42672D01*
X838962Y-24384D01*
X819912Y99822D02*
X820000Y101900D01*
X853440Y-24384D02*
X853440Y-144780D01*
X854202Y-146304D01*
D19*
X854202Y-146304D03*
X844296Y153924D03*
X875538Y-24384D03*
D20*
X918972Y5334D02*
X918972Y8382D01*
X899160Y28194D01*
X899160Y112776D01*
X848868Y163068D01*
X830580Y163068D01*
X820674Y153162D01*
X820000Y152700D01*
D19*
X918972Y5334D03*
D20*
X896112Y2286D02*
X896112Y111252D01*
X847344Y160020D01*
X841248Y160020D01*
X838200Y156972D01*
X838200Y145542D01*
X820674Y128016D01*
X820000Y127300D01*
D19*
X896112Y2286D03*
D21*
X595310Y63149D02*
X595310Y85310D01*
X630000Y120000D01*
X630000Y140000D01*
X616851Y153149D01*
X595310Y153149D01*
X630000Y140000D02*
X640000Y150000D01*
X650000Y150000D01*
X670000Y170000D01*
X670000Y220000D01*
X690000Y240000D01*
X730000Y240000D01*
X747500Y222500D02*
X747500Y210000D01*
X747500Y222500D02*
X730000Y240000D01*
D18*
X782574Y178308D02*
X819912Y178308D01*
X782574Y178308D02*
X755904Y204978D01*
X819912Y178308D02*
X820000Y178100D01*
X755904Y204978D02*
X747500Y210000D01*
D20*
X778764Y112776D02*
X778764Y-18288D01*
D19*
X778764Y-18288D03*
X778764Y112776D03*
D20*
X796290Y89916D02*
X796290Y-32004D01*
X796290Y89916D02*
X800862Y94488D01*
D19*
X796290Y-32004D03*
X800862Y94488D03*
D20*
X862584Y-158496D02*
X881634Y-158496D01*
D19*
X862584Y-158496D03*
X881634Y-158496D03*
D22*
X760724Y-213658D02*
X760724Y-222496D01*
X750056Y-233164D02*
X750056Y-243477D01*
X750056Y-202990D02*
X750056Y-190056D01*
X760724Y-222496D02*
X750056Y-233164D01*
X760724Y-213658D02*
X750056Y-202990D01*
X750056Y-190056D02*
X720000Y-160000D01*
X720000Y90000D01*
X690000Y120000D01*
D19*
X690000Y120000D03*
D21*
X599186Y41625D02*
X595310Y37749D01*
X622074Y55219D02*
X622074Y81634D01*
X608480Y41625D02*
X599186Y41625D01*
X608480Y41625D02*
X622074Y55219D01*
X622074Y81634D02*
X692500Y152060D01*
X692500Y210000D01*
D23*
X660000Y-49200D02*
X690000Y-79200D01*
X690000Y-190000D01*
X718077Y-218077D01*
X750056Y-218077D01*
M02*
