G04 EAGLE Gerber RS-274X export*
G75*
%MOMM*%
%FSLAX34Y34*%
%LPD*%
%INTop Copper*%
%IPPOS*%
%AMOC8*
5,1,8,0,0,1.08239X$1,22.5*%
G01*
G04 Define Apertures*
%ADD10C,1.524000*%
%ADD11R,0.575000X1.150000*%
%ADD12R,0.275000X1.150000*%
%ADD13C,1.108000*%
%ADD14R,1.150000X0.575000*%
%ADD15R,1.150000X0.275000*%
%ADD16R,0.798700X0.973900*%
%ADD17R,0.973900X0.798700*%
%ADD18R,1.320800X1.320800*%
%ADD19C,1.320800*%
%ADD20C,1.676400*%
%ADD21R,0.909000X0.908000*%
%ADD22R,4.923800X5.505400*%
%ADD23C,1.400000*%
%ADD24C,1.498000*%
%ADD25R,1.498000X1.498000*%
%ADD26C,0.152400*%
%ADD27C,0.406400*%
%ADD28C,0.756400*%
%ADD29C,2.000000*%
%ADD30C,0.609600*%
%ADD31C,0.508000*%
D10*
X812380Y-12700D02*
X827620Y-12700D01*
X827620Y12700D02*
X812380Y12700D01*
X812380Y38100D02*
X827620Y38100D01*
X827620Y-38100D02*
X812380Y-38100D01*
X812380Y127300D02*
X827620Y127300D01*
X827620Y152700D02*
X812380Y152700D01*
X812380Y178100D02*
X827620Y178100D01*
X827620Y101900D02*
X812380Y101900D01*
X812380Y-152700D02*
X827620Y-152700D01*
X827620Y-127300D02*
X812380Y-127300D01*
X812380Y-101900D02*
X827620Y-101900D01*
X827620Y-178100D02*
X812380Y-178100D01*
D11*
G36*
X902218Y139380D02*
X903315Y133736D01*
X892028Y131542D01*
X890931Y137186D01*
X902218Y139380D01*
G37*
G36*
X900692Y147233D02*
X901789Y141589D01*
X890502Y139395D01*
X889405Y145039D01*
X900692Y147233D01*
G37*
D12*
G36*
X898784Y157049D02*
X899309Y154351D01*
X888022Y152157D01*
X887497Y154855D01*
X898784Y157049D01*
G37*
G36*
X896875Y166865D02*
X897400Y164167D01*
X886113Y161973D01*
X885588Y164671D01*
X896875Y166865D01*
G37*
G36*
X895921Y171773D02*
X896446Y169075D01*
X885159Y166881D01*
X884634Y169579D01*
X895921Y171773D01*
G37*
G36*
X894013Y181589D02*
X894538Y178891D01*
X883251Y176697D01*
X882726Y179395D01*
X894013Y181589D01*
G37*
D11*
G36*
X890007Y202204D02*
X891104Y196560D01*
X879817Y194366D01*
X878720Y200010D01*
X890007Y202204D01*
G37*
G36*
X891533Y194351D02*
X892630Y188707D01*
X881343Y186513D01*
X880246Y192157D01*
X891533Y194351D01*
G37*
D12*
G36*
X893059Y186497D02*
X893584Y183799D01*
X882297Y181605D01*
X881772Y184303D01*
X893059Y186497D01*
G37*
G36*
X894967Y176681D02*
X895492Y173983D01*
X884205Y171789D01*
X883680Y174487D01*
X894967Y176681D01*
G37*
G36*
X897830Y161957D02*
X898355Y159259D01*
X887068Y157065D01*
X886543Y159763D01*
X897830Y161957D01*
G37*
G36*
X899738Y152140D02*
X900263Y149442D01*
X888976Y147248D01*
X888451Y149946D01*
X899738Y152140D01*
G37*
D13*
X910343Y126621D02*
X899467Y124507D01*
X882981Y209319D02*
X893857Y211433D01*
X940499Y132483D02*
X951375Y134597D01*
X934889Y219409D02*
X924013Y217295D01*
D14*
X907838Y-32000D03*
X907838Y-24000D03*
D15*
X907838Y-12500D03*
X907838Y-2500D03*
X907838Y2500D03*
X907838Y12500D03*
D14*
X907838Y32000D03*
X907838Y24000D03*
D15*
X907838Y17500D03*
X907838Y7500D03*
X907838Y-7500D03*
X907838Y-17500D03*
D13*
X908048Y-43200D02*
X919128Y-43200D01*
X919128Y43200D02*
X908048Y43200D01*
X949848Y-43200D02*
X960928Y-43200D01*
X960928Y43200D02*
X949848Y43200D01*
D11*
G36*
X890287Y-202080D02*
X889190Y-207724D01*
X877903Y-205530D01*
X879000Y-199886D01*
X890287Y-202080D01*
G37*
G36*
X891814Y-194227D02*
X890717Y-199871D01*
X879430Y-197677D01*
X880527Y-192033D01*
X891814Y-194227D01*
G37*
D12*
G36*
X893722Y-184412D02*
X893197Y-187110D01*
X881910Y-184916D01*
X882435Y-182218D01*
X893722Y-184412D01*
G37*
G36*
X895630Y-174595D02*
X895105Y-177293D01*
X883818Y-175099D01*
X884343Y-172401D01*
X895630Y-174595D01*
G37*
G36*
X896584Y-169687D02*
X896059Y-172385D01*
X884772Y-170191D01*
X885297Y-167493D01*
X896584Y-169687D01*
G37*
G36*
X898492Y-159871D02*
X897967Y-162569D01*
X886680Y-160375D01*
X887205Y-157677D01*
X898492Y-159871D01*
G37*
D11*
G36*
X902499Y-139256D02*
X901402Y-144900D01*
X890115Y-142706D01*
X891212Y-137062D01*
X902499Y-139256D01*
G37*
G36*
X900972Y-147109D02*
X899875Y-152753D01*
X888588Y-150559D01*
X889685Y-144915D01*
X900972Y-147109D01*
G37*
D12*
G36*
X899446Y-154963D02*
X898921Y-157661D01*
X887634Y-155467D01*
X888159Y-152769D01*
X899446Y-154963D01*
G37*
G36*
X897538Y-164779D02*
X897013Y-167477D01*
X885726Y-165283D01*
X886251Y-162585D01*
X897538Y-164779D01*
G37*
G36*
X894676Y-179503D02*
X894151Y-182201D01*
X882864Y-180007D01*
X883389Y-177309D01*
X894676Y-179503D01*
G37*
G36*
X892768Y-189320D02*
X892243Y-192018D01*
X880956Y-189824D01*
X881481Y-187126D01*
X892768Y-189320D01*
G37*
D13*
X893041Y-216954D02*
X882164Y-214840D01*
X898650Y-130027D02*
X909527Y-132141D01*
X923196Y-222815D02*
X934073Y-224930D01*
X950559Y-140117D02*
X939682Y-138003D01*
D16*
X571848Y-250000D03*
X588152Y-250000D03*
D17*
X640000Y111848D03*
X640000Y128152D03*
D10*
X602859Y-63989D02*
X587619Y-63989D01*
X587619Y-38589D02*
X602859Y-38589D01*
D18*
X673856Y-218077D03*
D19*
X673856Y-243477D03*
X750056Y-243477D03*
X750056Y-218077D03*
D20*
X660000Y-150800D03*
X660000Y-49200D03*
D21*
X576341Y-198835D03*
X599455Y-198835D03*
X622569Y-198835D03*
D22*
X599455Y-124016D03*
D16*
X798152Y-250000D03*
X781848Y-250000D03*
D10*
X602930Y127749D02*
X587690Y127749D01*
X587690Y153149D02*
X602930Y153149D01*
X602930Y37749D02*
X587690Y37749D01*
X587690Y63149D02*
X602930Y63149D01*
D23*
X692500Y210000D03*
X747500Y210000D03*
D16*
X778152Y-30000D03*
X761848Y-30000D03*
X778152Y-50000D03*
X761848Y-50000D03*
X778152Y-80000D03*
X761848Y-80000D03*
X778152Y-100000D03*
X761848Y-100000D03*
X778152Y-130000D03*
X761848Y-130000D03*
X778152Y-150000D03*
X761848Y-150000D03*
D24*
X606834Y278856D03*
X627543Y238905D03*
X549126Y248943D03*
D25*
G36*
X559739Y212194D02*
X573037Y219088D01*
X579931Y205790D01*
X566633Y198896D01*
X559739Y212194D01*
G37*
D26*
X891540Y164592D02*
X896112Y164592D01*
X898779Y167259D02*
X899160Y167640D01*
X898779Y167259D02*
X896112Y164592D01*
X899160Y167640D02*
X899160Y172212D01*
X896874Y174498D01*
X890016Y174498D01*
X891540Y164592D02*
X891494Y164419D01*
X889586Y174235D02*
X890016Y174498D01*
X899160Y166878D02*
X901446Y166878D01*
X921258Y147066D01*
X921258Y113538D01*
X820674Y12954D01*
X899160Y166878D02*
X898779Y167259D01*
X820674Y12954D02*
X820000Y12700D01*
D27*
X889568Y142033D02*
X895597Y143314D01*
X889568Y142033D02*
X880000Y140000D01*
X841900Y101900D01*
X820000Y101900D01*
X872000Y187000D02*
X886438Y190432D01*
X894000Y24000D02*
X907838Y24000D01*
X907838Y-24000D02*
X895000Y-24000D01*
X883000Y-146000D02*
X894780Y-148834D01*
X885622Y-195952D02*
X874000Y-193000D01*
X872490Y-192024D02*
X834390Y-192024D01*
X820674Y-178308D01*
X872490Y-192024D02*
X874000Y-193000D01*
X820674Y-178308D02*
X820000Y-178100D01*
X854202Y-146304D02*
X880872Y-146304D01*
X883000Y-146000D01*
X871728Y181356D02*
X871728Y185166D01*
X871728Y181356D02*
X844296Y153924D01*
X871728Y185166D02*
X872000Y187000D01*
X875538Y-24384D02*
X893064Y-24384D01*
X895000Y-24000D01*
X892302Y22860D02*
X887730Y22860D01*
X826770Y-38100D01*
X820000Y-38100D01*
X892302Y22860D02*
X894000Y24000D01*
D28*
X854202Y-146304D03*
X844296Y153924D03*
X875538Y-24384D03*
D26*
X886206Y169164D02*
X890016Y169164D01*
X886206Y169164D02*
X883158Y166116D01*
X883158Y160782D01*
X883539Y160401D02*
X884682Y159258D01*
X883539Y160401D02*
X883158Y160782D01*
X884682Y159258D02*
X892302Y159258D01*
X890016Y169164D02*
X890540Y169327D01*
X892449Y159511D02*
X892302Y159258D01*
X883158Y160020D02*
X864108Y160020D01*
X842010Y137922D01*
X808482Y137922D01*
X794766Y124206D01*
X794766Y7620D01*
X814578Y-12192D01*
X819912Y-12192D01*
X883158Y160020D02*
X883539Y160401D01*
X819912Y-12192D02*
X820000Y-12700D01*
X908304Y-2286D02*
X913638Y-2286D01*
X915924Y0D01*
X915924Y5334D01*
X914400Y6858D01*
X908304Y6858D01*
X908304Y-2286D02*
X907838Y-2500D01*
X908304Y6858D02*
X907838Y7500D01*
X915924Y5334D02*
X918972Y5334D01*
D28*
X918972Y5334D03*
D26*
X907542Y-6858D02*
X901446Y-6858D01*
X899160Y-4572D01*
X899160Y-762D01*
X899541Y-381D02*
X902208Y2286D01*
X899541Y-381D02*
X899160Y-762D01*
X902208Y2286D02*
X907542Y2286D01*
X907542Y-6858D02*
X907838Y-7500D01*
X907542Y2286D02*
X907838Y2500D01*
X899541Y-381D02*
X896874Y2286D01*
X896112Y2286D01*
D28*
X896112Y2286D03*
D26*
X896874Y-175260D02*
X890016Y-175260D01*
X896874Y-175260D02*
X899160Y-172974D01*
X899160Y-168402D01*
X896112Y-165354D01*
X892302Y-165354D01*
X889724Y-174847D02*
X890016Y-175260D01*
X892302Y-165354D02*
X891632Y-165031D01*
X891540Y-164592D02*
X877824Y-164592D01*
X865632Y-152400D01*
X851154Y-152400D01*
X826770Y-128016D01*
X820674Y-128016D01*
X891540Y-164592D02*
X891632Y-165031D01*
X820674Y-128016D02*
X820000Y-127300D01*
X883920Y-179070D02*
X888492Y-179070D01*
X883920Y-179070D02*
X880872Y-176022D01*
X880872Y-172212D01*
X881253Y-171831D02*
X883158Y-169926D01*
X881253Y-171831D02*
X880872Y-172212D01*
X883158Y-169926D02*
X890016Y-169926D01*
X888492Y-179070D02*
X888770Y-179755D01*
X890016Y-169926D02*
X890678Y-169939D01*
X880872Y-171450D02*
X858012Y-171450D01*
X839724Y-153162D01*
X820674Y-153162D01*
X880872Y-171450D02*
X881253Y-171831D01*
X820674Y-153162D02*
X820000Y-152700D01*
D29*
X641404Y-180000D02*
X622569Y-198835D01*
X641404Y-180000D02*
X670000Y-180000D01*
X690000Y-160000D01*
D30*
X594675Y-243477D02*
X588152Y-250000D01*
X594675Y-243477D02*
X624078Y-243477D01*
X673856Y-243477D01*
D29*
X690000Y-160000D02*
X690000Y-40608D01*
X625428Y23964D02*
X625428Y42325D01*
X604604Y63149D01*
X595310Y63149D01*
X625428Y23964D02*
X690000Y-40608D01*
D27*
X895000Y-32000D02*
X907838Y-32000D01*
X907838Y32000D02*
X894000Y32000D01*
X884000Y-138000D02*
X896307Y-140981D01*
X884095Y-203805D02*
X873000Y-201000D01*
X871000Y196000D02*
X884912Y198285D01*
X897123Y135461D02*
X883000Y132000D01*
X892302Y31242D02*
X862584Y31242D01*
X832866Y1524D01*
X807720Y1524D01*
X800862Y8382D01*
X800862Y19050D01*
X819912Y38100D01*
X892302Y31242D02*
X894000Y32000D01*
X820000Y38100D02*
X819912Y38100D01*
X882396Y101346D02*
X882396Y130302D01*
X882396Y101346D02*
X820674Y39624D01*
X882396Y130302D02*
X883000Y132000D01*
X820674Y39624D02*
X820000Y38100D01*
X855726Y-137160D02*
X882396Y-137160D01*
X855726Y-137160D02*
X820674Y-102108D01*
X882396Y-137160D02*
X884000Y-138000D01*
X820674Y-102108D02*
X820000Y-101900D01*
X822960Y-102870D02*
X893064Y-32766D01*
X895000Y-32000D01*
X822960Y-102870D02*
X820000Y-101900D01*
X762000Y-99822D02*
X762000Y-80010D01*
X762000Y-99822D02*
X761848Y-100000D01*
X762000Y-80010D02*
X761848Y-80000D01*
X762000Y-49530D02*
X762000Y-30480D01*
X762000Y-49530D02*
X761848Y-50000D01*
X762000Y-30480D02*
X761848Y-30000D01*
X762000Y-51816D02*
X762000Y-78486D01*
X761848Y-80000D01*
X762000Y-51816D02*
X761848Y-50000D01*
X762000Y-130302D02*
X762000Y-149352D01*
X761848Y-150000D01*
X762000Y-130302D02*
X761848Y-130000D01*
X813816Y-201168D02*
X870966Y-201168D01*
X813816Y-201168D02*
X763524Y-150876D01*
X870966Y-201168D02*
X873000Y-201000D01*
X763524Y-150876D02*
X761848Y-150000D01*
X762000Y-128016D02*
X762000Y-108966D01*
X762000Y-101346D01*
X761848Y-100000D01*
X762000Y-128016D02*
X761848Y-130000D01*
X794766Y-102870D02*
X818388Y-102870D01*
X794766Y-102870D02*
X788670Y-108966D01*
X762000Y-108966D01*
X818388Y-102870D02*
X820000Y-101900D01*
X833628Y-2286D02*
X833628Y0D01*
X833628Y-2286D02*
X838962Y-7620D01*
X838962Y-17526D01*
X832104Y-24384D01*
X795528Y-24384D01*
X781812Y-10668D01*
X775716Y-10668D01*
X762762Y-23622D01*
X762762Y-28194D01*
X832866Y1524D02*
X833628Y0D01*
X762762Y-28194D02*
X761848Y-30000D01*
X837438Y195072D02*
X869442Y195072D01*
X837438Y195072D02*
X820674Y178308D01*
X869442Y195072D02*
X871000Y196000D01*
X820674Y178308D02*
X820000Y178100D01*
X624078Y-208788D02*
X624078Y-243477D01*
X624078Y-208788D02*
X622569Y-198835D01*
X760476Y-155448D02*
X760476Y-151638D01*
X760476Y-155448D02*
X675132Y-240792D01*
X760476Y-151638D02*
X761848Y-150000D01*
X675132Y-240792D02*
X673856Y-243477D01*
D26*
X778764Y-29718D02*
X778764Y-18288D01*
X778764Y112776D02*
X808482Y142494D01*
X842010Y142494D01*
X883158Y183642D01*
X886968Y183642D01*
X778764Y-29718D02*
X778152Y-30000D01*
X886968Y183642D02*
X887678Y184051D01*
D28*
X778764Y-18288D03*
X778764Y112776D03*
D26*
X796290Y-32004D02*
X778764Y-49530D01*
X800862Y94488D02*
X800862Y104394D01*
X813816Y117348D01*
X850392Y117348D01*
X886968Y153924D01*
X893064Y153924D01*
X778764Y-49530D02*
X778152Y-50000D01*
X893064Y153924D02*
X893403Y154603D01*
D28*
X796290Y-32004D03*
X800862Y94488D03*
D26*
X805434Y-79248D02*
X778764Y-79248D01*
X805434Y-79248D02*
X901446Y16764D01*
X907542Y16764D01*
X778764Y-79248D02*
X778152Y-80000D01*
X907542Y16764D02*
X907838Y17500D01*
X790956Y-99822D02*
X778764Y-99822D01*
X790956Y-99822D02*
X877824Y-12954D01*
X907542Y-12954D01*
X778764Y-99822D02*
X778152Y-100000D01*
X907542Y-12954D02*
X907838Y-12500D01*
X800862Y-130302D02*
X778764Y-130302D01*
X800862Y-130302D02*
X813054Y-142494D01*
X836676Y-142494D01*
X852678Y-158496D01*
X862584Y-158496D01*
X881634Y-158496D02*
X885444Y-154686D01*
X893064Y-154686D01*
X778764Y-130302D02*
X778152Y-130000D01*
X893064Y-154686D02*
X893540Y-155215D01*
D28*
X862584Y-158496D03*
X881634Y-158496D03*
D26*
X795528Y-150114D02*
X778764Y-150114D01*
X795528Y-150114D02*
X813054Y-167640D01*
X849630Y-167640D01*
X866394Y-184404D01*
X887730Y-184404D01*
X778764Y-150114D02*
X778152Y-150000D01*
X887730Y-184404D02*
X887816Y-184664D01*
D30*
X595310Y127749D02*
X595713Y128152D01*
X640000Y128152D01*
X640000Y111848D02*
X640000Y30000D01*
X710000Y-40000D01*
X710000Y-181933D01*
X673856Y-218077D01*
X576341Y-198835D02*
X571848Y-203328D01*
X571848Y-250000D01*
X788152Y-260000D02*
X798152Y-250000D01*
X788152Y-260000D02*
X581848Y-260000D01*
X571848Y-250000D01*
D29*
X599455Y-68205D02*
X595239Y-63989D01*
X599455Y-68205D02*
X599455Y-124016D01*
X599455Y-198835D01*
X626239Y-150800D02*
X660000Y-150800D01*
X626239Y-150800D02*
X599455Y-124016D01*
D30*
X750056Y-243477D02*
X775325Y-243477D01*
X781848Y-250000D01*
D31*
X569835Y228234D02*
X549126Y248943D01*
X569835Y228234D02*
X569835Y208992D01*
D28*
X690000Y120000D03*
D31*
X601008Y208992D01*
X569835Y208992D01*
D29*
X595310Y37749D02*
X595310Y-38518D01*
X595239Y-38589D01*
X649389Y-38589D01*
X660000Y-49200D01*
D31*
X627543Y258147D02*
X606834Y278856D01*
X627543Y258147D02*
X627543Y238905D01*
X663595Y238905D01*
X692500Y210000D01*
M02*
