G04 EAGLE Gerber RS-274X export*
G75*
%MOMM*%
%FSLAX34Y34*%
%LPD*%
%IN*%
%IPPOS*%
%AMOC8*
5,1,8,0,0,1.08239X$1,22.5*%
G01*
G04 Define Apertures*
%ADD10C,0.254000*%
D10*
X520046Y-233350D02*
X519803Y-233915D01*
X519209Y-235556D01*
X518760Y-237242D01*
X518460Y-238961D01*
X518311Y-240699D01*
X518313Y-242444D01*
X518468Y-244182D01*
X518774Y-245899D01*
X519229Y-247584D01*
X519828Y-249222D01*
X520568Y-250803D01*
X521443Y-252312D01*
X522446Y-253740D01*
X523570Y-255074D01*
X524806Y-256306D01*
X526144Y-257425D01*
X527575Y-258424D01*
X529087Y-259294D01*
X704717Y-350351D01*
X705470Y-350722D01*
X707082Y-351389D01*
X708746Y-351914D01*
X710450Y-352292D01*
X712180Y-352519D01*
X713923Y-352595D01*
X715666Y-352519D01*
X717396Y-352292D01*
X719099Y-351914D01*
X720763Y-351389D01*
X722375Y-350722D01*
X723923Y-349916D01*
X725394Y-348978D01*
X726778Y-347916D01*
X728065Y-346738D01*
X777818Y-296985D01*
X779747Y-295217D01*
X781823Y-293623D01*
X784031Y-292217D01*
X786352Y-291009D01*
X788770Y-290007D01*
X791266Y-289220D01*
X793821Y-288654D01*
X796416Y-288312D01*
X799031Y-288198D01*
X801645Y-288312D01*
X804240Y-288654D01*
X806795Y-289220D01*
X809291Y-290007D01*
X811709Y-291009D01*
X814031Y-292217D01*
X816238Y-293623D01*
X818314Y-295217D01*
X820244Y-296985D01*
X881912Y-358653D01*
X882925Y-359598D01*
X884289Y-360685D01*
X885744Y-361648D01*
X887277Y-362482D01*
X888876Y-363178D01*
X890531Y-363733D01*
X892227Y-364141D01*
X893953Y-364400D01*
X895694Y-364507D01*
X897438Y-364463D01*
X899172Y-364266D01*
X900882Y-363919D01*
X902555Y-363424D01*
X904179Y-362786D01*
X905741Y-362008D01*
X907229Y-361097D01*
X908632Y-360060D01*
X909939Y-358905D01*
X911141Y-357640D01*
X912228Y-356275D01*
X913192Y-354821D01*
X914025Y-353288D01*
X914722Y-351688D01*
X926778Y-318563D01*
X951016Y-236577D01*
X968016Y-152790D01*
X977649Y-67841D01*
X979841Y17625D01*
X974577Y102957D01*
X961895Y187505D01*
X941892Y270626D01*
X914722Y351688D01*
X914180Y352963D01*
X913374Y354511D01*
X912437Y355982D01*
X911375Y357366D01*
X910196Y358653D01*
X908910Y359831D01*
X907525Y360894D01*
X906054Y361831D01*
X904506Y362637D01*
X902894Y363304D01*
X901230Y363829D01*
X899527Y364207D01*
X897797Y364434D01*
X896054Y364511D01*
X894311Y364434D01*
X892581Y364207D01*
X890877Y363829D01*
X889213Y363304D01*
X887601Y362637D01*
X886054Y361831D01*
X884582Y360894D01*
X883198Y359831D01*
X881912Y358653D01*
X820244Y296985D01*
X818314Y295217D01*
X816238Y293623D01*
X814031Y292217D01*
X811709Y291009D01*
X809291Y290007D01*
X806795Y289220D01*
X804240Y288654D01*
X801645Y288312D01*
X799031Y288198D01*
X796416Y288312D01*
X793821Y288654D01*
X791266Y289220D01*
X788770Y290007D01*
X786352Y291009D01*
X784031Y292217D01*
X781823Y293623D01*
X779747Y295217D01*
X777818Y296985D01*
X728065Y346738D01*
X727459Y347318D01*
X726124Y348442D01*
X724697Y349445D01*
X723187Y350320D01*
X721607Y351060D01*
X719968Y351660D01*
X718284Y352114D01*
X716566Y352420D01*
X714828Y352575D01*
X713083Y352578D01*
X711345Y352429D01*
X709626Y352128D01*
X707940Y351680D01*
X706300Y351086D01*
X704717Y350351D01*
X529087Y259294D01*
X528546Y259002D01*
X527061Y258086D01*
X525661Y257044D01*
X524358Y255885D01*
X523161Y254615D01*
X522079Y253247D01*
X521120Y251789D01*
X520292Y250253D01*
X519601Y248651D01*
X519052Y246995D01*
X518649Y245297D01*
X518397Y243571D01*
X518295Y241829D01*
X518346Y240085D01*
X518548Y238352D01*
X518901Y236643D01*
X519402Y234972D01*
X520046Y233350D01*
X532732Y202724D01*
X548373Y155522D01*
X559841Y107137D01*
X567048Y57935D01*
X569940Y8294D01*
X568494Y-41412D01*
X562721Y-90801D01*
X552666Y-139500D01*
X538405Y-187137D01*
X520046Y-233350D01*
X940047Y132395D02*
X940108Y132140D01*
X940191Y131892D01*
X940295Y131652D01*
X940420Y131422D01*
X940565Y131204D01*
X940728Y130999D01*
X940908Y130809D01*
X941104Y130636D01*
X941314Y130480D01*
X941537Y130343D01*
X941772Y130227D01*
X942015Y130131D01*
X942266Y130056D01*
X942523Y130004D01*
X942783Y129974D01*
X943044Y129968D01*
X943305Y129984D01*
X943564Y130022D01*
X949454Y131167D01*
X949709Y131228D01*
X949957Y131311D01*
X950197Y131416D01*
X950427Y131541D01*
X950645Y131685D01*
X950850Y131848D01*
X951040Y132028D01*
X951213Y132224D01*
X951369Y132434D01*
X951506Y132658D01*
X951622Y132892D01*
X951718Y133135D01*
X951793Y133386D01*
X951845Y133643D01*
X951874Y133903D01*
X951881Y134164D01*
X951865Y134426D01*
X951827Y134684D01*
X951765Y134939D01*
X951682Y135187D01*
X951578Y135427D01*
X951453Y135657D01*
X951309Y135875D01*
X951146Y136080D01*
X950966Y136270D01*
X950770Y136443D01*
X950559Y136599D01*
X950336Y136736D01*
X950102Y136853D01*
X949858Y136949D01*
X949607Y137023D01*
X949351Y137075D01*
X949091Y137105D01*
X948829Y137112D01*
X948568Y137096D01*
X948309Y137057D01*
X942419Y135912D01*
X942165Y135851D01*
X941917Y135768D01*
X941677Y135664D01*
X941447Y135539D01*
X941229Y135394D01*
X941024Y135231D01*
X940834Y135051D01*
X940660Y134855D01*
X940505Y134645D01*
X940368Y134422D01*
X940251Y134187D01*
X940155Y133944D01*
X940081Y133693D01*
X940029Y133436D01*
X939999Y133176D01*
X939992Y132915D01*
X940008Y132654D01*
X940047Y132395D01*
X880075Y208755D02*
X880136Y208500D01*
X880219Y208252D01*
X880324Y208012D01*
X880448Y207782D01*
X880593Y207564D01*
X880756Y207359D01*
X880936Y207169D01*
X881132Y206996D01*
X881342Y206840D01*
X881565Y206703D01*
X881800Y206586D01*
X882043Y206490D01*
X882294Y206416D01*
X882551Y206364D01*
X882811Y206334D01*
X883072Y206327D01*
X883333Y206343D01*
X883592Y206382D01*
X894390Y208481D01*
X894645Y208542D01*
X894893Y208625D01*
X895133Y208729D01*
X895363Y208854D01*
X895581Y208999D01*
X895786Y209162D01*
X895976Y209342D01*
X896149Y209538D01*
X896305Y209748D01*
X896442Y209971D01*
X896558Y210206D01*
X896654Y210449D01*
X896729Y210700D01*
X896781Y210957D01*
X896810Y211217D01*
X896817Y211478D01*
X896801Y211739D01*
X896763Y211998D01*
X896702Y212253D01*
X896619Y212501D01*
X896514Y212741D01*
X896389Y212971D01*
X896245Y213189D01*
X896082Y213394D01*
X895902Y213584D01*
X895706Y213757D01*
X895495Y213913D01*
X895272Y214050D01*
X895038Y214166D01*
X894794Y214262D01*
X894544Y214337D01*
X894287Y214389D01*
X894027Y214419D01*
X893765Y214425D01*
X893504Y214409D01*
X893245Y214371D01*
X882447Y212272D01*
X882193Y212211D01*
X881945Y212128D01*
X881705Y212023D01*
X881475Y211898D01*
X881257Y211754D01*
X881052Y211591D01*
X880862Y211411D01*
X880688Y211215D01*
X880533Y211005D01*
X880396Y210781D01*
X880279Y210547D01*
X880183Y210304D01*
X880109Y210053D01*
X880057Y209796D01*
X880027Y209536D01*
X880020Y209275D01*
X880036Y209013D01*
X880075Y208755D01*
X923561Y217207D02*
X923622Y216953D01*
X923705Y216705D01*
X923810Y216465D01*
X923934Y216235D01*
X924079Y216016D01*
X924242Y215812D01*
X924422Y215622D01*
X924618Y215448D01*
X924828Y215293D01*
X925052Y215156D01*
X925286Y215039D01*
X925529Y214943D01*
X925780Y214869D01*
X926037Y214817D01*
X926297Y214787D01*
X926558Y214780D01*
X926820Y214796D01*
X927078Y214835D01*
X932968Y215980D01*
X933223Y216041D01*
X933471Y216124D01*
X933711Y216228D01*
X933941Y216353D01*
X934159Y216498D01*
X934364Y216661D01*
X934554Y216841D01*
X934727Y217037D01*
X934883Y217247D01*
X935020Y217470D01*
X935136Y217704D01*
X935232Y217948D01*
X935307Y218199D01*
X935359Y218455D01*
X935388Y218715D01*
X935395Y218977D01*
X935379Y219238D01*
X935341Y219497D01*
X935280Y219752D01*
X935196Y220000D01*
X935092Y220240D01*
X934967Y220470D01*
X934823Y220688D01*
X934660Y220893D01*
X934480Y221083D01*
X934284Y221256D01*
X934073Y221412D01*
X933850Y221548D01*
X933616Y221665D01*
X933372Y221761D01*
X933122Y221836D01*
X932865Y221888D01*
X932605Y221917D01*
X932343Y221924D01*
X932082Y221908D01*
X931823Y221870D01*
X925934Y220725D01*
X925679Y220664D01*
X925431Y220581D01*
X925191Y220476D01*
X924961Y220351D01*
X924743Y220207D01*
X924538Y220044D01*
X924348Y219864D01*
X924175Y219668D01*
X924019Y219457D01*
X923882Y219234D01*
X923765Y219000D01*
X923669Y218756D01*
X923595Y218506D01*
X923543Y218249D01*
X923513Y217989D01*
X923506Y217727D01*
X923522Y217466D01*
X923561Y217207D01*
X939231Y-137915D02*
X939192Y-138174D01*
X939176Y-138435D01*
X939183Y-138697D01*
X939212Y-138957D01*
X939265Y-139213D01*
X939339Y-139464D01*
X939435Y-139708D01*
X939552Y-139942D01*
X939688Y-140165D01*
X939844Y-140375D01*
X940017Y-140571D01*
X940207Y-140752D01*
X940412Y-140915D01*
X940630Y-141059D01*
X940860Y-141184D01*
X941100Y-141288D01*
X941349Y-141371D01*
X941603Y-141432D01*
X947493Y-142577D01*
X947752Y-142616D01*
X948013Y-142632D01*
X948275Y-142625D01*
X948535Y-142595D01*
X948791Y-142543D01*
X949042Y-142469D01*
X949285Y-142373D01*
X949520Y-142256D01*
X949743Y-142119D01*
X949953Y-141964D01*
X950149Y-141790D01*
X950329Y-141600D01*
X950492Y-141396D01*
X950637Y-141177D01*
X950762Y-140947D01*
X950866Y-140707D01*
X950949Y-140459D01*
X951010Y-140205D01*
X951049Y-139946D01*
X951065Y-139685D01*
X951058Y-139423D01*
X951028Y-139163D01*
X950976Y-138907D01*
X950902Y-138656D01*
X950806Y-138412D01*
X950689Y-138178D01*
X950552Y-137955D01*
X950397Y-137744D01*
X950223Y-137548D01*
X950033Y-137368D01*
X949829Y-137205D01*
X949610Y-137061D01*
X949380Y-136936D01*
X949140Y-136832D01*
X948892Y-136749D01*
X948638Y-136687D01*
X942748Y-135543D01*
X942489Y-135504D01*
X942228Y-135488D01*
X941966Y-135495D01*
X941706Y-135524D01*
X941450Y-135577D01*
X941199Y-135651D01*
X940955Y-135747D01*
X940721Y-135864D01*
X940498Y-136000D01*
X940288Y-136156D01*
X940092Y-136329D01*
X939911Y-136519D01*
X939748Y-136724D01*
X939604Y-136942D01*
X939479Y-137172D01*
X939375Y-137412D01*
X939292Y-137661D01*
X939231Y-137915D01*
X922745Y-222728D02*
X922706Y-222986D01*
X922690Y-223248D01*
X922697Y-223509D01*
X922727Y-223769D01*
X922779Y-224026D01*
X922853Y-224277D01*
X922949Y-224520D01*
X923066Y-224754D01*
X923202Y-224978D01*
X923358Y-225188D01*
X923532Y-225384D01*
X923721Y-225564D01*
X923926Y-225727D01*
X924144Y-225872D01*
X924374Y-225996D01*
X924614Y-226101D01*
X924863Y-226184D01*
X925117Y-226245D01*
X931007Y-227390D01*
X931266Y-227428D01*
X931527Y-227444D01*
X931789Y-227438D01*
X932049Y-227408D01*
X932305Y-227356D01*
X932556Y-227281D01*
X932800Y-227186D01*
X933034Y-227069D01*
X933257Y-226932D01*
X933467Y-226776D01*
X933663Y-226603D01*
X933844Y-226413D01*
X934006Y-226208D01*
X934151Y-225990D01*
X934276Y-225760D01*
X934380Y-225520D01*
X934463Y-225272D01*
X934524Y-225017D01*
X934563Y-224758D01*
X934579Y-224497D01*
X934572Y-224236D01*
X934542Y-223976D01*
X934490Y-223719D01*
X934416Y-223468D01*
X934320Y-223225D01*
X934203Y-222990D01*
X934066Y-222767D01*
X933911Y-222557D01*
X933737Y-222361D01*
X933548Y-222181D01*
X933343Y-222018D01*
X933124Y-221873D01*
X932894Y-221749D01*
X932654Y-221644D01*
X932406Y-221561D01*
X932152Y-221500D01*
X926262Y-220355D01*
X926003Y-220316D01*
X925742Y-220300D01*
X925480Y-220307D01*
X925220Y-220337D01*
X924964Y-220389D01*
X924713Y-220463D01*
X924469Y-220559D01*
X924235Y-220676D01*
X924012Y-220813D01*
X923802Y-220969D01*
X923606Y-221142D01*
X923425Y-221332D01*
X923263Y-221537D01*
X923118Y-221755D01*
X922993Y-221985D01*
X922889Y-222225D01*
X922806Y-222473D01*
X922745Y-222728D01*
X896561Y123942D02*
X896622Y123687D01*
X896705Y123439D01*
X896809Y123199D01*
X896934Y122969D01*
X897079Y122751D01*
X897242Y122546D01*
X897422Y122356D01*
X897618Y122183D01*
X897828Y122027D01*
X898051Y121890D01*
X898286Y121774D01*
X898529Y121678D01*
X898780Y121603D01*
X899037Y121551D01*
X899297Y121522D01*
X899558Y121515D01*
X899819Y121531D01*
X900078Y121569D01*
X910876Y123668D01*
X911131Y123729D01*
X911379Y123812D01*
X911619Y123917D01*
X911849Y124042D01*
X912067Y124186D01*
X912272Y124349D01*
X912462Y124529D01*
X912635Y124725D01*
X912791Y124936D01*
X912928Y125159D01*
X913044Y125393D01*
X913140Y125637D01*
X913215Y125887D01*
X913267Y126144D01*
X913296Y126404D01*
X913303Y126666D01*
X913287Y126927D01*
X913249Y127186D01*
X913187Y127440D01*
X913104Y127688D01*
X913000Y127928D01*
X912875Y128158D01*
X912731Y128377D01*
X912568Y128581D01*
X912388Y128771D01*
X912192Y128945D01*
X911981Y129100D01*
X911758Y129237D01*
X911524Y129354D01*
X911280Y129450D01*
X911029Y129524D01*
X910773Y129576D01*
X910513Y129606D01*
X910251Y129613D01*
X909990Y129597D01*
X909731Y129558D01*
X898933Y127459D01*
X898679Y127398D01*
X898431Y127315D01*
X898191Y127211D01*
X897961Y127086D01*
X897742Y126941D01*
X897538Y126778D01*
X897348Y126598D01*
X897174Y126402D01*
X897019Y126192D01*
X896882Y125969D01*
X896765Y125735D01*
X896669Y125491D01*
X896595Y125240D01*
X896543Y124984D01*
X896513Y124724D01*
X896506Y124462D01*
X896522Y124201D01*
X896561Y123942D01*
X895745Y-129462D02*
X895706Y-129721D01*
X895690Y-129982D01*
X895697Y-130244D01*
X895726Y-130504D01*
X895779Y-130760D01*
X895853Y-131011D01*
X895949Y-131255D01*
X896066Y-131489D01*
X896202Y-131712D01*
X896358Y-131923D01*
X896531Y-132119D01*
X896721Y-132299D01*
X896926Y-132462D01*
X897144Y-132606D01*
X897374Y-132731D01*
X897614Y-132835D01*
X897862Y-132918D01*
X898117Y-132979D01*
X908915Y-135078D01*
X909174Y-135117D01*
X909435Y-135133D01*
X909697Y-135126D01*
X909957Y-135097D01*
X910213Y-135044D01*
X910464Y-134970D01*
X910708Y-134874D01*
X910942Y-134757D01*
X911165Y-134621D01*
X911375Y-134465D01*
X911571Y-134292D01*
X911751Y-134102D01*
X911914Y-133897D01*
X912059Y-133679D01*
X912184Y-133449D01*
X912288Y-133209D01*
X912371Y-132960D01*
X912432Y-132706D01*
X912471Y-132447D01*
X912487Y-132186D01*
X912480Y-131924D01*
X912450Y-131664D01*
X912398Y-131408D01*
X912324Y-131157D01*
X912228Y-130913D01*
X912111Y-130679D01*
X911974Y-130456D01*
X911819Y-130246D01*
X911645Y-130049D01*
X911455Y-129869D01*
X911251Y-129706D01*
X911032Y-129562D01*
X910802Y-129437D01*
X910562Y-129333D01*
X910314Y-129250D01*
X910060Y-129189D01*
X899262Y-127090D01*
X899003Y-127051D01*
X898742Y-127035D01*
X898480Y-127042D01*
X898220Y-127072D01*
X897964Y-127124D01*
X897713Y-127198D01*
X897469Y-127294D01*
X897235Y-127411D01*
X897012Y-127547D01*
X896801Y-127703D01*
X896605Y-127877D01*
X896425Y-128066D01*
X896262Y-128271D01*
X896118Y-128489D01*
X895993Y-128719D01*
X895889Y-128959D01*
X895806Y-129208D01*
X895745Y-129462D01*
X905088Y43200D02*
X905099Y42939D01*
X905133Y42679D01*
X905190Y42424D01*
X905269Y42174D01*
X905369Y41932D01*
X905490Y41700D01*
X905630Y41479D01*
X905790Y41272D01*
X905967Y41079D01*
X906160Y40902D01*
X906367Y40743D01*
X906588Y40602D01*
X906820Y40481D01*
X907062Y40381D01*
X907311Y40302D01*
X907567Y40246D01*
X907826Y40211D01*
X908088Y40200D01*
X919088Y40200D01*
X919349Y40211D01*
X919609Y40246D01*
X919864Y40302D01*
X920114Y40381D01*
X920356Y40481D01*
X920588Y40602D01*
X920809Y40743D01*
X921016Y40902D01*
X921209Y41079D01*
X921386Y41272D01*
X921545Y41479D01*
X921686Y41700D01*
X921807Y41932D01*
X921907Y42174D01*
X921986Y42424D01*
X922042Y42679D01*
X922076Y42939D01*
X922088Y43200D01*
X922076Y43461D01*
X922042Y43721D01*
X921986Y43976D01*
X921907Y44226D01*
X921807Y44468D01*
X921686Y44700D01*
X921545Y44921D01*
X921386Y45128D01*
X921209Y45321D01*
X921016Y45498D01*
X920809Y45657D01*
X920588Y45798D01*
X920356Y45919D01*
X920114Y46019D01*
X919864Y46098D01*
X919609Y46154D01*
X919349Y46189D01*
X919088Y46200D01*
X908088Y46200D01*
X907826Y46189D01*
X907567Y46154D01*
X907311Y46098D01*
X907062Y46019D01*
X906820Y45919D01*
X906588Y45798D01*
X906367Y45657D01*
X906160Y45498D01*
X905967Y45321D01*
X905790Y45128D01*
X905630Y44921D01*
X905490Y44700D01*
X905369Y44468D01*
X905269Y44226D01*
X905190Y43976D01*
X905133Y43721D01*
X905099Y43461D01*
X905088Y43200D01*
X905088Y-43200D02*
X905099Y-43461D01*
X905133Y-43721D01*
X905190Y-43976D01*
X905269Y-44226D01*
X905369Y-44468D01*
X905490Y-44700D01*
X905630Y-44921D01*
X905790Y-45128D01*
X905967Y-45321D01*
X906160Y-45498D01*
X906367Y-45657D01*
X906588Y-45798D01*
X906820Y-45919D01*
X907062Y-46019D01*
X907311Y-46098D01*
X907567Y-46154D01*
X907826Y-46189D01*
X908088Y-46200D01*
X919088Y-46200D01*
X919349Y-46189D01*
X919609Y-46154D01*
X919864Y-46098D01*
X920114Y-46019D01*
X920356Y-45919D01*
X920588Y-45798D01*
X920809Y-45657D01*
X921016Y-45498D01*
X921209Y-45321D01*
X921386Y-45128D01*
X921545Y-44921D01*
X921686Y-44700D01*
X921807Y-44468D01*
X921907Y-44226D01*
X921986Y-43976D01*
X922042Y-43721D01*
X922076Y-43461D01*
X922088Y-43200D01*
X922076Y-42939D01*
X922042Y-42679D01*
X921986Y-42424D01*
X921907Y-42174D01*
X921807Y-41932D01*
X921686Y-41700D01*
X921545Y-41479D01*
X921386Y-41272D01*
X921209Y-41079D01*
X921016Y-40902D01*
X920809Y-40743D01*
X920588Y-40602D01*
X920356Y-40481D01*
X920114Y-40381D01*
X919864Y-40302D01*
X919609Y-40246D01*
X919349Y-40211D01*
X919088Y-40200D01*
X908088Y-40200D01*
X907826Y-40211D01*
X907567Y-40246D01*
X907311Y-40302D01*
X907062Y-40381D01*
X906820Y-40481D01*
X906588Y-40602D01*
X906367Y-40743D01*
X906160Y-40902D01*
X905967Y-41079D01*
X905790Y-41272D01*
X905630Y-41479D01*
X905490Y-41700D01*
X905369Y-41932D01*
X905269Y-42174D01*
X905190Y-42424D01*
X905133Y-42679D01*
X905099Y-42939D01*
X905088Y-43200D01*
X949388Y-43200D02*
X949399Y-43461D01*
X949433Y-43721D01*
X949490Y-43976D01*
X949569Y-44226D01*
X949669Y-44468D01*
X949790Y-44700D01*
X949930Y-44921D01*
X950090Y-45128D01*
X950267Y-45321D01*
X950460Y-45498D01*
X950667Y-45657D01*
X950888Y-45798D01*
X951120Y-45919D01*
X951362Y-46019D01*
X951611Y-46098D01*
X951867Y-46154D01*
X952126Y-46189D01*
X952388Y-46200D01*
X958388Y-46200D01*
X958649Y-46189D01*
X958909Y-46154D01*
X959164Y-46098D01*
X959414Y-46019D01*
X959656Y-45919D01*
X959888Y-45798D01*
X960109Y-45657D01*
X960316Y-45498D01*
X960509Y-45321D01*
X960686Y-45128D01*
X960845Y-44921D01*
X960986Y-44700D01*
X961107Y-44468D01*
X961207Y-44226D01*
X961286Y-43976D01*
X961342Y-43721D01*
X961376Y-43461D01*
X961388Y-43200D01*
X961376Y-42939D01*
X961342Y-42679D01*
X961286Y-42424D01*
X961207Y-42174D01*
X961107Y-41932D01*
X960986Y-41700D01*
X960845Y-41479D01*
X960686Y-41272D01*
X960509Y-41079D01*
X960316Y-40902D01*
X960109Y-40743D01*
X959888Y-40602D01*
X959656Y-40481D01*
X959414Y-40381D01*
X959164Y-40302D01*
X958909Y-40246D01*
X958649Y-40211D01*
X958388Y-40200D01*
X952388Y-40200D01*
X952126Y-40211D01*
X951867Y-40246D01*
X951611Y-40302D01*
X951362Y-40381D01*
X951120Y-40481D01*
X950888Y-40602D01*
X950667Y-40743D01*
X950460Y-40902D01*
X950267Y-41079D01*
X950090Y-41272D01*
X949930Y-41479D01*
X949790Y-41700D01*
X949669Y-41932D01*
X949569Y-42174D01*
X949490Y-42424D01*
X949433Y-42679D01*
X949399Y-42939D01*
X949388Y-43200D01*
X949388Y43200D02*
X949399Y42939D01*
X949433Y42679D01*
X949490Y42424D01*
X949569Y42174D01*
X949669Y41932D01*
X949790Y41700D01*
X949930Y41479D01*
X950090Y41272D01*
X950267Y41079D01*
X950460Y40902D01*
X950667Y40743D01*
X950888Y40602D01*
X951120Y40481D01*
X951362Y40381D01*
X951611Y40302D01*
X951867Y40246D01*
X952126Y40211D01*
X952388Y40200D01*
X958388Y40200D01*
X958649Y40211D01*
X958909Y40246D01*
X959164Y40302D01*
X959414Y40381D01*
X959656Y40481D01*
X959888Y40602D01*
X960109Y40743D01*
X960316Y40902D01*
X960509Y41079D01*
X960686Y41272D01*
X960845Y41479D01*
X960986Y41700D01*
X961107Y41932D01*
X961207Y42174D01*
X961286Y42424D01*
X961342Y42679D01*
X961376Y42939D01*
X961388Y43200D01*
X961376Y43461D01*
X961342Y43721D01*
X961286Y43976D01*
X961207Y44226D01*
X961107Y44468D01*
X960986Y44700D01*
X960845Y44921D01*
X960686Y45128D01*
X960509Y45321D01*
X960316Y45498D01*
X960109Y45657D01*
X959888Y45798D01*
X959656Y45919D01*
X959414Y46019D01*
X959164Y46098D01*
X958909Y46154D01*
X958649Y46189D01*
X958388Y46200D01*
X952388Y46200D01*
X952126Y46189D01*
X951867Y46154D01*
X951611Y46098D01*
X951362Y46019D01*
X951120Y45919D01*
X950888Y45798D01*
X950667Y45657D01*
X950460Y45498D01*
X950267Y45321D01*
X950090Y45128D01*
X949930Y44921D01*
X949790Y44700D01*
X949669Y44468D01*
X949569Y44226D01*
X949490Y43976D01*
X949433Y43721D01*
X949399Y43461D01*
X949388Y43200D01*
X879259Y-214275D02*
X879220Y-214534D01*
X879204Y-214795D01*
X879211Y-215056D01*
X879240Y-215317D01*
X879293Y-215573D01*
X879367Y-215824D01*
X879463Y-216067D01*
X879580Y-216302D01*
X879716Y-216525D01*
X879872Y-216735D01*
X880045Y-216931D01*
X880235Y-217111D01*
X880440Y-217274D01*
X880658Y-217419D01*
X880888Y-217544D01*
X881128Y-217648D01*
X881377Y-217731D01*
X881631Y-217792D01*
X892429Y-219891D01*
X892688Y-219930D01*
X892949Y-219946D01*
X893211Y-219939D01*
X893471Y-219909D01*
X893727Y-219857D01*
X893978Y-219783D01*
X894222Y-219687D01*
X894456Y-219570D01*
X894679Y-219433D01*
X894889Y-219278D01*
X895085Y-219104D01*
X895266Y-218914D01*
X895428Y-218709D01*
X895573Y-218491D01*
X895698Y-218261D01*
X895802Y-218021D01*
X895885Y-217773D01*
X895946Y-217519D01*
X895985Y-217260D01*
X896001Y-216998D01*
X895994Y-216737D01*
X895964Y-216477D01*
X895912Y-216220D01*
X895838Y-215969D01*
X895742Y-215726D01*
X895625Y-215492D01*
X895489Y-215269D01*
X895333Y-215058D01*
X895159Y-214862D01*
X894970Y-214682D01*
X894765Y-214519D01*
X894547Y-214375D01*
X894317Y-214250D01*
X894077Y-214145D01*
X893828Y-214062D01*
X893574Y-214001D01*
X882776Y-211902D01*
X882517Y-211864D01*
X882256Y-211848D01*
X881994Y-211854D01*
X881734Y-211884D01*
X881478Y-211936D01*
X881227Y-212011D01*
X880983Y-212107D01*
X880749Y-212223D01*
X880526Y-212360D01*
X880316Y-212516D01*
X880120Y-212689D01*
X879939Y-212879D01*
X879776Y-213084D01*
X879632Y-213302D01*
X879507Y-213532D01*
X879403Y-213772D01*
X879320Y-214020D01*
X879259Y-214275D01*
M02*
