G04 EAGLE Gerber RS-274X export*
G75*
%MOMM*%
%FSLAX34Y34*%
%LPD*%
%INSilkscreen Top*%
%IPPOS*%
%AMOC8*
5,1,8,0,0,1.08239X$1,22.5*%
G01*
G04 Define Apertures*
%ADD10C,0.254000*%
%ADD11C,0.101600*%
%ADD12C,0.127000*%
%ADD13C,0.200000*%
%ADD14C,0.152400*%
%ADD15R,2.540000X0.508000*%
%ADD16R,0.762000X1.905000*%
%ADD17C,0.120000*%
G36*
X700000Y85790D02*
X682015Y85790D01*
X682015Y96193D01*
X682035Y96825D01*
X682096Y97418D01*
X682196Y97974D01*
X682337Y98492D01*
X682518Y98972D01*
X682740Y99415D01*
X683001Y99820D01*
X683303Y100187D01*
X683635Y100513D01*
X683986Y100796D01*
X684356Y101035D01*
X684745Y101231D01*
X685153Y101383D01*
X685580Y101492D01*
X686027Y101557D01*
X686493Y101579D01*
X686885Y101563D01*
X687262Y101517D01*
X687625Y101439D01*
X687974Y101331D01*
X688309Y101191D01*
X688630Y101020D01*
X688936Y100818D01*
X689229Y100585D01*
X689414Y100410D01*
X689589Y100216D01*
X689754Y100002D01*
X689910Y99769D01*
X690055Y99518D01*
X690190Y99247D01*
X690316Y98956D01*
X690431Y98647D01*
X690558Y99115D01*
X690706Y99552D01*
X690875Y99957D01*
X691064Y100329D01*
X691275Y100670D01*
X691506Y100978D01*
X691759Y101255D01*
X692032Y101499D01*
X692325Y101713D01*
X692636Y101899D01*
X692965Y102056D01*
X693312Y102185D01*
X693678Y102285D01*
X694062Y102356D01*
X694464Y102399D01*
X694884Y102413D01*
X695229Y102403D01*
X695566Y102373D01*
X695893Y102322D01*
X696212Y102251D01*
X696522Y102159D01*
X696823Y102047D01*
X697116Y101915D01*
X697399Y101763D01*
X697671Y101593D01*
X697928Y101408D01*
X698171Y101208D01*
X698399Y100993D01*
X698613Y100763D01*
X698812Y100519D01*
X698996Y100259D01*
X699166Y99984D01*
X699264Y99798D01*
X699354Y99590D01*
X699515Y99107D01*
X699649Y98535D01*
X699755Y97874D01*
X699939Y96313D01*
X699985Y95769D01*
X700000Y95384D01*
X700000Y85790D01*
G37*
%LPC*%
G36*
X696136Y91396D02*
X696136Y94230D01*
X696128Y94576D01*
X696104Y94895D01*
X696064Y95188D01*
X696008Y95454D01*
X695937Y95694D01*
X695849Y95907D01*
X695746Y96094D01*
X695626Y96255D01*
X695494Y96393D01*
X695350Y96512D01*
X695195Y96613D01*
X695030Y96696D01*
X694853Y96761D01*
X694666Y96807D01*
X694468Y96834D01*
X694259Y96844D01*
X694064Y96834D01*
X693879Y96807D01*
X693705Y96762D01*
X693539Y96698D01*
X693384Y96616D01*
X693238Y96516D01*
X693103Y96397D01*
X692977Y96261D01*
X692863Y96101D01*
X692765Y95915D01*
X692681Y95700D01*
X692613Y95459D01*
X692560Y95190D01*
X692522Y94893D01*
X692500Y94569D01*
X692492Y94218D01*
X692492Y91396D01*
X696136Y91396D01*
G37*
G36*
X689069Y91396D02*
X689069Y93813D01*
X689062Y94126D01*
X689041Y94414D01*
X689006Y94677D01*
X688957Y94916D01*
X688894Y95130D01*
X688817Y95319D01*
X688726Y95483D01*
X688621Y95623D01*
X688503Y95742D01*
X688373Y95846D01*
X688229Y95933D01*
X688074Y96005D01*
X687906Y96060D01*
X687725Y96100D01*
X687533Y96124D01*
X687327Y96132D01*
X687136Y96124D01*
X686956Y96100D01*
X686787Y96060D01*
X686628Y96005D01*
X686480Y95933D01*
X686343Y95846D01*
X686216Y95742D01*
X686100Y95623D01*
X685997Y95484D01*
X685907Y95321D01*
X685831Y95135D01*
X685769Y94925D01*
X685721Y94692D01*
X685686Y94435D01*
X685666Y94154D01*
X685659Y93850D01*
X685659Y91396D01*
X689069Y91396D01*
G37*
%LPD*%
G36*
X693351Y59696D02*
X692952Y59702D01*
X692565Y59720D01*
X692190Y59750D01*
X691826Y59793D01*
X691475Y59847D01*
X691136Y59914D01*
X690808Y59993D01*
X690492Y60084D01*
X690188Y60187D01*
X689897Y60302D01*
X689616Y60429D01*
X689348Y60569D01*
X689092Y60720D01*
X688848Y60884D01*
X688615Y61060D01*
X688394Y61248D01*
X687992Y61649D01*
X687643Y62076D01*
X687348Y62530D01*
X687106Y63010D01*
X686918Y63516D01*
X686845Y63779D01*
X686784Y64048D01*
X686737Y64324D01*
X686704Y64607D01*
X686684Y64896D01*
X686677Y65192D01*
X686683Y65480D01*
X686701Y65761D01*
X686775Y66304D01*
X686898Y66819D01*
X687069Y67308D01*
X687290Y67770D01*
X687560Y68205D01*
X687879Y68614D01*
X688247Y68995D01*
X682015Y68995D01*
X682015Y74037D01*
X700000Y74037D01*
X700000Y69363D01*
X698074Y69363D01*
X698638Y68883D01*
X699101Y68425D01*
X699466Y67987D01*
X699610Y67777D01*
X699730Y67572D01*
X699862Y67298D01*
X699977Y67017D01*
X700074Y66728D01*
X700153Y66431D01*
X700215Y66127D01*
X700259Y65814D01*
X700286Y65495D01*
X700294Y65167D01*
X700287Y64839D01*
X700263Y64521D01*
X700223Y64213D01*
X700168Y63915D01*
X700097Y63626D01*
X700010Y63348D01*
X699907Y63079D01*
X699788Y62820D01*
X699654Y62570D01*
X699504Y62331D01*
X699338Y62101D01*
X699156Y61881D01*
X698958Y61671D01*
X698745Y61471D01*
X698515Y61281D01*
X698270Y61100D01*
X697751Y60771D01*
X697204Y60486D01*
X696630Y60245D01*
X696028Y60047D01*
X695400Y59893D01*
X694744Y59784D01*
X694061Y59718D01*
X693351Y59696D01*
G37*
%LPC*%
G36*
X693559Y64689D02*
X693945Y64698D01*
X694303Y64727D01*
X694636Y64774D01*
X694941Y64841D01*
X695220Y64926D01*
X695472Y65030D01*
X695697Y65154D01*
X695896Y65296D01*
X696070Y65452D01*
X696221Y65618D01*
X696349Y65792D01*
X696453Y65976D01*
X696534Y66168D01*
X696592Y66369D01*
X696627Y66580D01*
X696639Y66799D01*
X696627Y67033D01*
X696592Y67258D01*
X696533Y67472D01*
X696451Y67676D01*
X696346Y67871D01*
X696218Y68055D01*
X696066Y68229D01*
X695890Y68394D01*
X695688Y68543D01*
X695457Y68673D01*
X695196Y68783D01*
X694906Y68872D01*
X694586Y68942D01*
X694236Y68992D01*
X693857Y69022D01*
X693449Y69032D01*
X693078Y69022D01*
X692731Y68991D01*
X692408Y68940D01*
X692110Y68869D01*
X691836Y68778D01*
X691587Y68666D01*
X691362Y68534D01*
X691161Y68382D01*
X690984Y68214D01*
X690831Y68035D01*
X690701Y67846D01*
X690595Y67646D01*
X690513Y67435D01*
X690454Y67213D01*
X690418Y66981D01*
X690406Y66738D01*
X690418Y66524D01*
X690452Y66320D01*
X690508Y66124D01*
X690587Y65937D01*
X690689Y65759D01*
X690814Y65590D01*
X690961Y65429D01*
X691130Y65278D01*
X691327Y65140D01*
X691553Y65020D01*
X691811Y64919D01*
X692099Y64836D01*
X692418Y64772D01*
X692768Y64726D01*
X693148Y64698D01*
X693559Y64689D01*
G37*
%LPD*%
G36*
X704956Y-50310D02*
X686971Y-50310D01*
X686971Y-45636D01*
X688897Y-45636D01*
X688339Y-45162D01*
X687879Y-44707D01*
X687517Y-44272D01*
X687373Y-44062D01*
X687254Y-43857D01*
X687118Y-43581D01*
X687001Y-43297D01*
X686902Y-43006D01*
X686821Y-42707D01*
X686758Y-42401D01*
X686713Y-42088D01*
X686686Y-41768D01*
X686677Y-41440D01*
X686685Y-41118D01*
X686708Y-40806D01*
X686747Y-40502D01*
X686802Y-40208D01*
X686872Y-39923D01*
X686958Y-39647D01*
X687060Y-39381D01*
X687177Y-39123D01*
X687310Y-38875D01*
X687458Y-38637D01*
X687622Y-38407D01*
X687802Y-38187D01*
X687997Y-37976D01*
X688208Y-37774D01*
X688434Y-37581D01*
X688677Y-37398D01*
X689191Y-37063D01*
X689735Y-36773D01*
X690309Y-36527D01*
X690912Y-36326D01*
X691545Y-36170D01*
X692208Y-36058D01*
X692899Y-35991D01*
X693621Y-35969D01*
X694021Y-35975D01*
X694409Y-35993D01*
X694786Y-36024D01*
X695150Y-36066D01*
X695502Y-36121D01*
X695842Y-36188D01*
X696171Y-36267D01*
X696487Y-36358D01*
X696791Y-36462D01*
X697083Y-36578D01*
X697363Y-36705D01*
X697631Y-36845D01*
X697887Y-36997D01*
X698131Y-37162D01*
X698363Y-37338D01*
X698583Y-37527D01*
X698984Y-37929D01*
X699332Y-38357D01*
X699626Y-38811D01*
X699867Y-39290D01*
X700054Y-39796D01*
X700127Y-40058D01*
X700187Y-40326D01*
X700234Y-40601D01*
X700268Y-40883D01*
X700288Y-41171D01*
X700294Y-41465D01*
X700288Y-41750D01*
X700270Y-42029D01*
X700196Y-42568D01*
X700074Y-43081D01*
X699902Y-43569D01*
X699682Y-44032D01*
X699414Y-44469D01*
X699099Y-44881D01*
X698736Y-45268D01*
X704956Y-45268D01*
X704956Y-50310D01*
G37*
%LPC*%
G36*
X693522Y-45305D02*
X693896Y-45295D01*
X694246Y-45264D01*
X694570Y-45213D01*
X694869Y-45142D01*
X695143Y-45051D01*
X695393Y-44939D01*
X695617Y-44807D01*
X695817Y-44655D01*
X695992Y-44487D01*
X696144Y-44308D01*
X696273Y-44119D01*
X696378Y-43919D01*
X696460Y-43708D01*
X696518Y-43486D01*
X696553Y-43254D01*
X696565Y-43011D01*
X696554Y-42797D01*
X696520Y-42593D01*
X696464Y-42397D01*
X696386Y-42210D01*
X696285Y-42032D01*
X696161Y-41863D01*
X696015Y-41702D01*
X695847Y-41551D01*
X695652Y-41413D01*
X695426Y-41293D01*
X695168Y-41192D01*
X694880Y-41109D01*
X694560Y-41045D01*
X694208Y-40999D01*
X693826Y-40971D01*
X693412Y-40962D01*
X693030Y-40972D01*
X692673Y-41000D01*
X692343Y-41048D01*
X692040Y-41115D01*
X691762Y-41202D01*
X691511Y-41307D01*
X691286Y-41432D01*
X691087Y-41575D01*
X690913Y-41733D01*
X690763Y-41899D01*
X690635Y-42073D01*
X690531Y-42256D01*
X690449Y-42448D01*
X690391Y-42647D01*
X690357Y-42856D01*
X690345Y-43072D01*
X690357Y-43306D01*
X690392Y-43531D01*
X690450Y-43745D01*
X690532Y-43949D01*
X690637Y-44144D01*
X690766Y-44328D01*
X690918Y-44502D01*
X691093Y-44667D01*
X691295Y-44816D01*
X691526Y-44946D01*
X691786Y-45056D01*
X692075Y-45145D01*
X692393Y-45215D01*
X692740Y-45265D01*
X693117Y-45295D01*
X693522Y-45305D01*
G37*
%LPD*%
G36*
X694050Y-69129D02*
X693719Y-63841D01*
X694031Y-63793D01*
X694325Y-63733D01*
X694599Y-63663D01*
X694854Y-63581D01*
X695089Y-63488D01*
X695306Y-63384D01*
X695503Y-63269D01*
X695682Y-63142D01*
X695938Y-62916D01*
X696159Y-62667D01*
X696347Y-62395D01*
X696501Y-62099D01*
X696620Y-61781D01*
X696705Y-61440D01*
X696756Y-61076D01*
X696774Y-60689D01*
X696765Y-60400D01*
X696739Y-60128D01*
X696695Y-59873D01*
X696634Y-59635D01*
X696555Y-59414D01*
X696460Y-59211D01*
X696346Y-59024D01*
X696215Y-58854D01*
X696073Y-58704D01*
X695925Y-58573D01*
X695772Y-58462D01*
X695613Y-58371D01*
X695448Y-58301D01*
X695278Y-58251D01*
X695102Y-58220D01*
X694921Y-58210D01*
X694749Y-58220D01*
X694581Y-58249D01*
X694417Y-58297D01*
X694259Y-58364D01*
X694104Y-58450D01*
X693955Y-58555D01*
X693810Y-58680D01*
X693670Y-58824D01*
X693533Y-59002D01*
X693398Y-59232D01*
X693264Y-59512D01*
X693133Y-59842D01*
X693004Y-60223D01*
X692876Y-60655D01*
X692627Y-61670D01*
X692413Y-62551D01*
X692182Y-63367D01*
X691935Y-64117D01*
X691670Y-64801D01*
X691389Y-65420D01*
X691090Y-65974D01*
X690775Y-66462D01*
X690443Y-66884D01*
X690091Y-67252D01*
X689716Y-67571D01*
X689317Y-67841D01*
X688894Y-68062D01*
X688449Y-68233D01*
X687980Y-68356D01*
X687487Y-68430D01*
X687232Y-68448D01*
X686971Y-68454D01*
X686627Y-68442D01*
X686288Y-68404D01*
X685953Y-68341D01*
X685623Y-68253D01*
X685298Y-68140D01*
X684978Y-68002D01*
X684663Y-67839D01*
X684352Y-67651D01*
X684052Y-67437D01*
X683769Y-67198D01*
X683502Y-66934D01*
X683251Y-66645D01*
X683017Y-66330D01*
X682799Y-65990D01*
X682598Y-65625D01*
X682414Y-65234D01*
X682248Y-64812D01*
X682105Y-64353D01*
X681984Y-63856D01*
X681885Y-63322D01*
X681808Y-62750D01*
X681752Y-62141D01*
X681719Y-61495D01*
X681708Y-60811D01*
X681728Y-59975D01*
X681788Y-59190D01*
X681889Y-58456D01*
X682029Y-57773D01*
X682209Y-57142D01*
X682429Y-56562D01*
X682690Y-56032D01*
X682990Y-55554D01*
X683335Y-55125D01*
X683726Y-54741D01*
X684165Y-54403D01*
X684651Y-54111D01*
X685185Y-53865D01*
X685766Y-53665D01*
X686394Y-53510D01*
X687069Y-53401D01*
X687376Y-58640D01*
X687083Y-58699D01*
X686810Y-58773D01*
X686558Y-58861D01*
X686327Y-58963D01*
X686117Y-59080D01*
X685927Y-59211D01*
X685758Y-59357D01*
X685610Y-59517D01*
X685480Y-59692D01*
X685368Y-59883D01*
X685273Y-60090D01*
X685196Y-60313D01*
X685135Y-60552D01*
X685092Y-60806D01*
X685066Y-61077D01*
X685058Y-61363D01*
X685064Y-61598D01*
X685083Y-61818D01*
X685115Y-62023D01*
X685160Y-62213D01*
X685218Y-62388D01*
X685289Y-62548D01*
X685372Y-62693D01*
X685469Y-62823D01*
X685685Y-63038D01*
X685924Y-63191D01*
X686052Y-63245D01*
X686185Y-63283D01*
X686324Y-63306D01*
X686468Y-63314D01*
X686678Y-63289D01*
X686876Y-63213D01*
X687064Y-63086D01*
X687241Y-62909D01*
X687329Y-62794D01*
X687416Y-62645D01*
X687585Y-62247D01*
X687747Y-61713D01*
X687904Y-61044D01*
X688100Y-60166D01*
X688297Y-59352D01*
X688495Y-58602D01*
X688693Y-57918D01*
X688892Y-57297D01*
X689092Y-56742D01*
X689292Y-56251D01*
X689492Y-55824D01*
X689699Y-55444D01*
X689918Y-55090D01*
X690149Y-54763D01*
X690393Y-54463D01*
X690648Y-54189D01*
X690915Y-53943D01*
X691195Y-53723D01*
X691486Y-53530D01*
X691788Y-53362D01*
X692099Y-53216D01*
X692418Y-53093D01*
X692747Y-52992D01*
X693084Y-52913D01*
X693430Y-52857D01*
X693785Y-52824D01*
X694148Y-52812D01*
X694576Y-52827D01*
X694996Y-52872D01*
X695408Y-52947D01*
X695810Y-53052D01*
X696205Y-53186D01*
X696591Y-53351D01*
X696969Y-53545D01*
X697338Y-53769D01*
X697692Y-54020D01*
X698024Y-54295D01*
X698334Y-54594D01*
X698621Y-54916D01*
X698887Y-55263D01*
X699131Y-55633D01*
X699353Y-56026D01*
X699552Y-56444D01*
X699729Y-56887D01*
X699882Y-57359D01*
X700012Y-57858D01*
X700118Y-58385D01*
X700201Y-58941D01*
X700260Y-59524D01*
X700295Y-60135D01*
X700307Y-60774D01*
X700300Y-61337D01*
X700279Y-61877D01*
X700245Y-62396D01*
X700196Y-62892D01*
X700134Y-63367D01*
X700058Y-63819D01*
X699969Y-64249D01*
X699865Y-64657D01*
X699748Y-65043D01*
X699617Y-65408D01*
X699472Y-65750D01*
X699313Y-66070D01*
X699140Y-66368D01*
X698954Y-66644D01*
X698754Y-66897D01*
X698540Y-67129D01*
X698084Y-67547D01*
X697597Y-67917D01*
X697081Y-68239D01*
X696534Y-68513D01*
X695958Y-68739D01*
X695352Y-68917D01*
X694716Y-69047D01*
X694050Y-69129D01*
G37*
G36*
X693522Y-34198D02*
X693154Y-34190D01*
X692794Y-34167D01*
X692441Y-34127D01*
X692097Y-34072D01*
X691762Y-34002D01*
X691434Y-33915D01*
X691115Y-33813D01*
X690804Y-33695D01*
X690501Y-33562D01*
X690206Y-33412D01*
X689919Y-33247D01*
X689641Y-33066D01*
X689371Y-32870D01*
X689109Y-32658D01*
X688855Y-32430D01*
X688609Y-32186D01*
X688375Y-31929D01*
X688156Y-31661D01*
X687952Y-31382D01*
X687764Y-31092D01*
X687590Y-30791D01*
X687432Y-30479D01*
X687288Y-30156D01*
X687160Y-29822D01*
X687047Y-29476D01*
X686949Y-29120D01*
X686866Y-28753D01*
X686798Y-28375D01*
X686745Y-27985D01*
X686707Y-27585D01*
X686684Y-27174D01*
X686677Y-26751D01*
X686686Y-26270D01*
X686712Y-25803D01*
X686757Y-25351D01*
X686819Y-24914D01*
X686899Y-24492D01*
X686996Y-24085D01*
X687111Y-23693D01*
X687244Y-23316D01*
X687395Y-22954D01*
X687563Y-22607D01*
X687750Y-22275D01*
X687954Y-21958D01*
X688175Y-21655D01*
X688415Y-21368D01*
X688672Y-21096D01*
X688947Y-20838D01*
X689417Y-20462D01*
X689913Y-20135D01*
X690436Y-19859D01*
X690986Y-19633D01*
X691562Y-19457D01*
X692165Y-19332D01*
X692476Y-19288D01*
X692794Y-19256D01*
X693118Y-19237D01*
X693449Y-19231D01*
X693820Y-19239D01*
X694183Y-19262D01*
X694538Y-19301D01*
X694884Y-19356D01*
X695221Y-19426D01*
X695550Y-19512D01*
X695871Y-19613D01*
X696183Y-19730D01*
X696487Y-19862D01*
X696782Y-20010D01*
X697069Y-20173D01*
X697347Y-20353D01*
X697616Y-20547D01*
X697878Y-20757D01*
X698130Y-20983D01*
X698375Y-21225D01*
X698607Y-21480D01*
X698825Y-21747D01*
X699027Y-22026D01*
X699214Y-22317D01*
X699387Y-22620D01*
X699544Y-22935D01*
X699687Y-23261D01*
X699814Y-23600D01*
X699927Y-23951D01*
X700024Y-24313D01*
X700107Y-24688D01*
X700174Y-25074D01*
X700227Y-25473D01*
X700264Y-25883D01*
X700287Y-26305D01*
X700294Y-26739D01*
X700288Y-27127D01*
X700270Y-27506D01*
X700238Y-27875D01*
X700195Y-28234D01*
X700139Y-28585D01*
X700070Y-28926D01*
X699989Y-29257D01*
X699896Y-29579D01*
X699671Y-30195D01*
X699397Y-30774D01*
X699073Y-31315D01*
X698700Y-31818D01*
X698448Y-32106D01*
X698187Y-32376D01*
X697916Y-32627D01*
X697635Y-32859D01*
X697345Y-33073D01*
X697046Y-33269D01*
X696737Y-33445D01*
X696418Y-33603D01*
X696089Y-33743D01*
X695751Y-33864D01*
X695404Y-33966D01*
X695047Y-34049D01*
X694680Y-34115D01*
X694304Y-34161D01*
X693918Y-34189D01*
X693522Y-34198D01*
G37*
%LPC*%
G36*
X693510Y-29193D02*
X693932Y-29182D01*
X694325Y-29149D01*
X694689Y-29094D01*
X695025Y-29016D01*
X695333Y-28917D01*
X695613Y-28796D01*
X695864Y-28653D01*
X696087Y-28487D01*
X696282Y-28305D01*
X696451Y-28112D01*
X696595Y-27907D01*
X696712Y-27692D01*
X696803Y-27464D01*
X696869Y-27226D01*
X696908Y-26976D01*
X696921Y-26715D01*
X696908Y-26451D01*
X696869Y-26199D01*
X696805Y-25959D01*
X696715Y-25732D01*
X696600Y-25516D01*
X696458Y-25313D01*
X696291Y-25121D01*
X696099Y-24942D01*
X695878Y-24780D01*
X695626Y-24639D01*
X695343Y-24520D01*
X695028Y-24422D01*
X694683Y-24346D01*
X694307Y-24292D01*
X693900Y-24260D01*
X693461Y-24249D01*
X693051Y-24260D01*
X692669Y-24293D01*
X692313Y-24347D01*
X691984Y-24424D01*
X691683Y-24522D01*
X691408Y-24642D01*
X691161Y-24784D01*
X690940Y-24948D01*
X690746Y-25128D01*
X690578Y-25318D01*
X690435Y-25519D01*
X690319Y-25730D01*
X690228Y-25952D01*
X690164Y-26183D01*
X690125Y-26425D01*
X690112Y-26678D01*
X690125Y-26945D01*
X690164Y-27200D01*
X690230Y-27443D01*
X690322Y-27675D01*
X690440Y-27894D01*
X690585Y-28102D01*
X690755Y-28297D01*
X690952Y-28481D01*
X691176Y-28648D01*
X691427Y-28793D01*
X691706Y-28915D01*
X692012Y-29015D01*
X692345Y-29093D01*
X692706Y-29148D01*
X693095Y-29182D01*
X693510Y-29193D01*
G37*
%LPD*%
G36*
X693522Y14646D02*
X693154Y14653D01*
X692794Y14677D01*
X692441Y14716D01*
X692097Y14771D01*
X691762Y14842D01*
X691434Y14929D01*
X691115Y15031D01*
X690804Y15149D01*
X690501Y15282D01*
X690206Y15431D01*
X689919Y15597D01*
X689641Y15777D01*
X689371Y15974D01*
X689109Y16186D01*
X688855Y16414D01*
X688609Y16658D01*
X688375Y16915D01*
X688156Y17183D01*
X687952Y17462D01*
X687764Y17752D01*
X687590Y18053D01*
X687432Y18365D01*
X687288Y18688D01*
X687160Y19022D01*
X687047Y19367D01*
X686949Y19724D01*
X686866Y20091D01*
X686798Y20469D01*
X686745Y20858D01*
X686707Y21259D01*
X686684Y21670D01*
X686677Y22092D01*
X686686Y22574D01*
X686712Y23041D01*
X686757Y23493D01*
X686819Y23929D01*
X686899Y24351D01*
X686996Y24758D01*
X687111Y25150D01*
X687244Y25527D01*
X687395Y25889D01*
X687563Y26237D01*
X687750Y26569D01*
X687954Y26886D01*
X688175Y27188D01*
X688415Y27476D01*
X688672Y27748D01*
X688947Y28005D01*
X689417Y28382D01*
X689913Y28709D01*
X690436Y28985D01*
X690986Y29211D01*
X691562Y29387D01*
X692165Y29512D01*
X692476Y29556D01*
X692794Y29587D01*
X693118Y29606D01*
X693449Y29613D01*
X693820Y29605D01*
X694183Y29581D01*
X694538Y29543D01*
X694884Y29488D01*
X695221Y29418D01*
X695550Y29332D01*
X695871Y29231D01*
X696183Y29114D01*
X696487Y28982D01*
X696782Y28834D01*
X697069Y28670D01*
X697347Y28491D01*
X697616Y28297D01*
X697878Y28086D01*
X698130Y27860D01*
X698375Y27619D01*
X698607Y27364D01*
X698825Y27097D01*
X699027Y26818D01*
X699214Y26527D01*
X699387Y26224D01*
X699544Y25909D01*
X699687Y25582D01*
X699814Y25244D01*
X699927Y24893D01*
X700024Y24530D01*
X700107Y24156D01*
X700174Y23770D01*
X700227Y23371D01*
X700264Y22961D01*
X700287Y22539D01*
X700294Y22105D01*
X700288Y21717D01*
X700270Y21338D01*
X700238Y20969D01*
X700195Y20609D01*
X700139Y20259D01*
X700070Y19918D01*
X699989Y19587D01*
X699896Y19264D01*
X699671Y18648D01*
X699397Y18070D01*
X699073Y17529D01*
X698700Y17026D01*
X698448Y16737D01*
X698187Y16468D01*
X697916Y16217D01*
X697635Y15984D01*
X697345Y15770D01*
X697046Y15575D01*
X696737Y15399D01*
X696418Y15241D01*
X696089Y15101D01*
X695751Y14980D01*
X695404Y14878D01*
X695047Y14794D01*
X694680Y14729D01*
X694304Y14683D01*
X693918Y14655D01*
X693522Y14646D01*
G37*
%LPC*%
G36*
X693510Y19651D02*
X693932Y19662D01*
X694325Y19695D01*
X694689Y19750D01*
X695025Y19827D01*
X695333Y19926D01*
X695613Y20048D01*
X695864Y20191D01*
X696087Y20356D01*
X696282Y20538D01*
X696451Y20732D01*
X696595Y20936D01*
X696712Y21152D01*
X696803Y21379D01*
X696869Y21618D01*
X696908Y21868D01*
X696921Y22129D01*
X696908Y22393D01*
X696869Y22645D01*
X696805Y22884D01*
X696715Y23112D01*
X696600Y23328D01*
X696458Y23531D01*
X696291Y23723D01*
X696099Y23902D01*
X695878Y24064D01*
X695626Y24205D01*
X695343Y24324D01*
X695028Y24422D01*
X694683Y24497D01*
X694307Y24552D01*
X693900Y24584D01*
X693461Y24595D01*
X693051Y24584D01*
X692669Y24551D01*
X692313Y24497D01*
X691984Y24420D01*
X691683Y24322D01*
X691408Y24202D01*
X691161Y24060D01*
X690940Y23896D01*
X690746Y23716D01*
X690578Y23525D01*
X690435Y23325D01*
X690319Y23114D01*
X690228Y22892D01*
X690164Y22660D01*
X690125Y22418D01*
X690112Y22166D01*
X690125Y21899D01*
X690164Y21644D01*
X690230Y21400D01*
X690322Y21169D01*
X690440Y20950D01*
X690585Y20742D01*
X690755Y20546D01*
X690952Y20362D01*
X691176Y20196D01*
X691427Y20051D01*
X691706Y19929D01*
X692012Y19829D01*
X692345Y19751D01*
X692706Y19695D01*
X693095Y19662D01*
X693510Y19651D01*
G37*
%LPD*%
G36*
X693510Y42946D02*
X693133Y42953D01*
X692765Y42976D01*
X692406Y43015D01*
X692056Y43068D01*
X691715Y43137D01*
X691383Y43221D01*
X691060Y43320D01*
X690747Y43435D01*
X690442Y43565D01*
X690147Y43710D01*
X689861Y43871D01*
X689584Y44046D01*
X689316Y44238D01*
X689057Y44444D01*
X688807Y44666D01*
X688566Y44903D01*
X688337Y45153D01*
X688123Y45415D01*
X687924Y45689D01*
X687740Y45974D01*
X687570Y46271D01*
X687415Y46580D01*
X687275Y46900D01*
X687149Y47232D01*
X687039Y47576D01*
X686943Y47931D01*
X686861Y48298D01*
X686795Y48676D01*
X686743Y49066D01*
X686706Y49468D01*
X686684Y49882D01*
X686677Y50307D01*
X686690Y50988D01*
X686730Y51632D01*
X686796Y52239D01*
X686889Y52809D01*
X687008Y53343D01*
X687153Y53840D01*
X687325Y54300D01*
X687523Y54723D01*
X687747Y55116D01*
X687994Y55485D01*
X688265Y55829D01*
X688560Y56149D01*
X688879Y56445D01*
X689221Y56717D01*
X689587Y56965D01*
X689977Y57189D01*
X690394Y57387D01*
X690841Y57559D01*
X691319Y57705D01*
X691826Y57824D01*
X692365Y57916D01*
X692933Y57983D01*
X693532Y58022D01*
X694160Y58036D01*
X694725Y58036D01*
X694725Y48025D01*
X695016Y48064D01*
X695288Y48116D01*
X695540Y48179D01*
X695774Y48255D01*
X695988Y48342D01*
X696183Y48441D01*
X696359Y48552D01*
X696516Y48675D01*
X696714Y48863D01*
X696886Y49064D01*
X697032Y49280D01*
X697151Y49509D01*
X697243Y49752D01*
X697309Y50009D01*
X697349Y50280D01*
X697362Y50564D01*
X697339Y50928D01*
X697270Y51282D01*
X697155Y51627D01*
X696994Y51963D01*
X696856Y52169D01*
X696672Y52383D01*
X696445Y52605D01*
X696172Y52834D01*
X696626Y57753D01*
X697100Y57464D01*
X697538Y57160D01*
X697942Y56841D01*
X698312Y56508D01*
X698646Y56160D01*
X698946Y55798D01*
X699211Y55421D01*
X699442Y55030D01*
X699642Y54609D01*
X699815Y54146D01*
X699961Y53639D01*
X700081Y53088D01*
X700175Y52495D01*
X700241Y51858D01*
X700281Y51177D01*
X700294Y50454D01*
X700283Y49824D01*
X700249Y49229D01*
X700192Y48668D01*
X700112Y48141D01*
X700009Y47649D01*
X699884Y47192D01*
X699736Y46769D01*
X699565Y46381D01*
X699369Y46018D01*
X699146Y45670D01*
X698896Y45339D01*
X698620Y45024D01*
X698317Y44724D01*
X697987Y44441D01*
X697630Y44173D01*
X697246Y43921D01*
X696840Y43693D01*
X696417Y43494D01*
X695976Y43327D01*
X695518Y43190D01*
X695042Y43083D01*
X694549Y43007D01*
X694038Y42961D01*
X693510Y42946D01*
G37*
%LPC*%
G36*
X692332Y48037D02*
X692332Y52957D01*
X691983Y52912D01*
X691660Y52853D01*
X691362Y52778D01*
X691090Y52688D01*
X690844Y52583D01*
X690623Y52463D01*
X690428Y52328D01*
X690259Y52178D01*
X690113Y52013D01*
X689985Y51837D01*
X689878Y51648D01*
X689790Y51446D01*
X689722Y51232D01*
X689673Y51006D01*
X689643Y50767D01*
X689634Y50515D01*
X689648Y50225D01*
X689693Y49950D01*
X689766Y49690D01*
X689870Y49445D01*
X690003Y49215D01*
X690165Y48999D01*
X690357Y48799D01*
X690578Y48614D01*
X690734Y48505D01*
X690909Y48407D01*
X691101Y48320D01*
X691311Y48243D01*
X691539Y48176D01*
X691786Y48119D01*
X692332Y48037D01*
G37*
%LPD*%
G36*
X686971Y103542D02*
X686971Y108811D01*
X695645Y111498D01*
X686971Y113994D01*
X686971Y118914D01*
X700892Y113745D01*
X701464Y113524D01*
X701986Y113301D01*
X702461Y113078D01*
X702887Y112853D01*
X703265Y112627D01*
X703595Y112400D01*
X703876Y112172D01*
X704109Y111943D01*
X704385Y111596D01*
X704625Y111208D01*
X704827Y110776D01*
X704993Y110302D01*
X705122Y109786D01*
X705214Y109227D01*
X705269Y108626D01*
X705288Y107982D01*
X705269Y107368D01*
X705214Y106608D01*
X705122Y105701D01*
X704993Y104646D01*
X701509Y104254D01*
X701659Y104809D01*
X701767Y105394D01*
X701831Y106010D01*
X701852Y106656D01*
X701846Y106872D01*
X701827Y107077D01*
X701795Y107271D01*
X701751Y107455D01*
X701694Y107628D01*
X701624Y107791D01*
X701542Y107943D01*
X701447Y108084D01*
X701336Y108218D01*
X701205Y108347D01*
X700882Y108588D01*
X700480Y108809D01*
X699998Y109010D01*
X686971Y103542D01*
G37*
G36*
X700000Y-16835D02*
X686971Y-16835D01*
X686971Y-12185D01*
X689094Y-12185D01*
X688490Y-11662D01*
X688223Y-11400D01*
X687979Y-11136D01*
X687758Y-10872D01*
X687561Y-10607D01*
X687386Y-10342D01*
X687235Y-10075D01*
X687104Y-9801D01*
X686991Y-9512D01*
X686895Y-9209D01*
X686816Y-8891D01*
X686755Y-8559D01*
X686712Y-8212D01*
X686686Y-7850D01*
X686677Y-7474D01*
X686696Y-6970D01*
X686754Y-6494D01*
X686850Y-6046D01*
X686985Y-5626D01*
X687159Y-5235D01*
X687370Y-4872D01*
X687621Y-4536D01*
X687910Y-4229D01*
X688239Y-3955D01*
X688610Y-3717D01*
X689023Y-3515D01*
X689479Y-3351D01*
X689976Y-3223D01*
X690515Y-3131D01*
X691096Y-3076D01*
X691719Y-3058D01*
X700000Y-3058D01*
X700000Y-8075D01*
X692835Y-8075D01*
X692540Y-8083D01*
X692267Y-8104D01*
X692016Y-8139D01*
X691788Y-8189D01*
X691582Y-8253D01*
X691399Y-8331D01*
X691238Y-8423D01*
X691100Y-8529D01*
X690980Y-8649D01*
X690877Y-8779D01*
X690789Y-8922D01*
X690718Y-9075D01*
X690662Y-9240D01*
X690622Y-9417D01*
X690598Y-9605D01*
X690590Y-9805D01*
X690601Y-10027D01*
X690633Y-10238D01*
X690687Y-10438D01*
X690762Y-10627D01*
X690859Y-10806D01*
X690977Y-10974D01*
X691116Y-11131D01*
X691277Y-11277D01*
X691466Y-11410D01*
X691689Y-11524D01*
X691946Y-11621D01*
X692237Y-11701D01*
X692563Y-11762D01*
X692922Y-11806D01*
X693316Y-11833D01*
X693743Y-11842D01*
X700000Y-11842D01*
X700000Y-16835D01*
G37*
G36*
X696381Y-968D02*
X695915Y3988D01*
X696325Y4157D01*
X696672Y4356D01*
X696957Y4586D01*
X697075Y4713D01*
X697178Y4847D01*
X697268Y4991D01*
X697345Y5146D01*
X697410Y5313D01*
X697464Y5491D01*
X697505Y5681D01*
X697535Y5882D01*
X697553Y6095D01*
X697559Y6319D01*
X697552Y6564D01*
X697532Y6794D01*
X697498Y7010D01*
X697451Y7212D01*
X697391Y7399D01*
X697317Y7573D01*
X697230Y7732D01*
X697130Y7877D01*
X696961Y8065D01*
X696772Y8199D01*
X696563Y8280D01*
X696451Y8300D01*
X696334Y8307D01*
X696203Y8298D01*
X696080Y8271D01*
X695964Y8227D01*
X695856Y8165D01*
X695756Y8086D01*
X695663Y7989D01*
X695501Y7742D01*
X695390Y7456D01*
X695268Y7003D01*
X695133Y6383D01*
X694986Y5595D01*
X694764Y4394D01*
X694550Y3392D01*
X694344Y2588D01*
X694147Y1982D01*
X694042Y1734D01*
X693920Y1496D01*
X693782Y1268D01*
X693627Y1050D01*
X693456Y842D01*
X693268Y644D01*
X693063Y455D01*
X692842Y277D01*
X692608Y115D01*
X692366Y-26D01*
X692116Y-145D01*
X691858Y-243D01*
X691592Y-319D01*
X691318Y-373D01*
X691036Y-405D01*
X690746Y-416D01*
X690430Y-404D01*
X690125Y-369D01*
X689831Y-311D01*
X689548Y-229D01*
X689276Y-124D01*
X689015Y5D01*
X688766Y157D01*
X688527Y332D01*
X688302Y528D01*
X688091Y742D01*
X687895Y973D01*
X687714Y1222D01*
X687548Y1488D01*
X687396Y1772D01*
X687259Y2074D01*
X687136Y2393D01*
X687029Y2736D01*
X686935Y3106D01*
X686856Y3504D01*
X686792Y3930D01*
X686742Y4384D01*
X686706Y4866D01*
X686684Y5376D01*
X686677Y5914D01*
X686699Y7003D01*
X686727Y7491D01*
X686766Y7940D01*
X686816Y8351D01*
X686877Y8724D01*
X686949Y9059D01*
X687033Y9355D01*
X687128Y9627D01*
X687235Y9888D01*
X687355Y10136D01*
X687487Y10374D01*
X687631Y10600D01*
X687787Y10814D01*
X687956Y11017D01*
X688137Y11208D01*
X688332Y11390D01*
X688544Y11563D01*
X689017Y11887D01*
X689556Y12180D01*
X690161Y12441D01*
X690627Y7705D01*
X690335Y7598D01*
X690084Y7460D01*
X689875Y7291D01*
X689707Y7092D01*
X689535Y6782D01*
X689413Y6442D01*
X689339Y6071D01*
X689321Y5874D01*
X689315Y5669D01*
X689333Y5274D01*
X689390Y4937D01*
X689483Y4658D01*
X689615Y4436D01*
X689773Y4267D01*
X689947Y4146D01*
X690137Y4074D01*
X690344Y4050D01*
X690459Y4057D01*
X690568Y4080D01*
X690669Y4119D01*
X690763Y4172D01*
X690929Y4326D01*
X691066Y4540D01*
X691186Y4858D01*
X691299Y5319D01*
X691406Y5925D01*
X691507Y6675D01*
X691662Y7840D01*
X691750Y8363D01*
X691844Y8846D01*
X691946Y9290D01*
X692054Y9693D01*
X692169Y10056D01*
X692292Y10380D01*
X692424Y10675D01*
X692570Y10951D01*
X692729Y11211D01*
X692901Y11452D01*
X693087Y11675D01*
X693287Y11881D01*
X693499Y12069D01*
X693725Y12238D01*
X693961Y12389D01*
X694203Y12520D01*
X694450Y12631D01*
X694703Y12722D01*
X694962Y12792D01*
X695226Y12842D01*
X695496Y12873D01*
X695772Y12883D01*
X696053Y12872D01*
X696332Y12840D01*
X696609Y12787D01*
X696884Y12712D01*
X697158Y12617D01*
X697429Y12500D01*
X697698Y12361D01*
X697966Y12202D01*
X698226Y12019D01*
X698472Y11812D01*
X698704Y11581D01*
X698923Y11325D01*
X699129Y11044D01*
X699321Y10739D01*
X699499Y10409D01*
X699663Y10055D01*
X699811Y9672D01*
X699939Y9255D01*
X700048Y8806D01*
X700137Y8323D01*
X700206Y7808D01*
X700255Y7259D01*
X700285Y6677D01*
X700294Y6062D01*
X700279Y5201D01*
X700231Y4405D01*
X700151Y3673D01*
X700040Y3005D01*
X699897Y2402D01*
X699722Y1862D01*
X699515Y1387D01*
X699276Y976D01*
X699008Y615D01*
X698713Y287D01*
X698392Y-7D01*
X698043Y-267D01*
X697668Y-493D01*
X697266Y-686D01*
X696837Y-844D01*
X696381Y-968D01*
G37*
G36*
X700000Y32058D02*
X686971Y32058D01*
X686971Y36732D01*
X689106Y36732D01*
X688467Y37072D01*
X687936Y37418D01*
X687711Y37592D01*
X687513Y37768D01*
X687342Y37946D01*
X687198Y38125D01*
X687076Y38309D01*
X686970Y38505D01*
X686881Y38710D01*
X686807Y38927D01*
X686750Y39153D01*
X686709Y39391D01*
X686685Y39639D01*
X686677Y39897D01*
X686688Y40177D01*
X686720Y40462D01*
X686774Y40755D01*
X686849Y41054D01*
X686945Y41359D01*
X687063Y41671D01*
X687203Y41989D01*
X687364Y42314D01*
X690922Y40768D01*
X690761Y40350D01*
X690646Y39977D01*
X690577Y39650D01*
X690554Y39370D01*
X690566Y39131D01*
X690604Y38907D01*
X690667Y38696D01*
X690756Y38499D01*
X690870Y38316D01*
X691009Y38146D01*
X691174Y37990D01*
X691363Y37849D01*
X691680Y37667D01*
X692058Y37510D01*
X692498Y37378D01*
X693001Y37269D01*
X693566Y37184D01*
X694193Y37124D01*
X694882Y37088D01*
X695633Y37076D01*
X700000Y37076D01*
X700000Y32058D01*
G37*
G36*
X740000Y101710D02*
X714298Y101710D01*
X714298Y116577D01*
X714305Y117035D01*
X714326Y117480D01*
X714362Y117910D01*
X714413Y118328D01*
X714477Y118732D01*
X714556Y119122D01*
X714650Y119499D01*
X714758Y119862D01*
X714880Y120212D01*
X715017Y120549D01*
X715168Y120872D01*
X715333Y121181D01*
X715513Y121477D01*
X715707Y121760D01*
X715916Y122029D01*
X716139Y122284D01*
X716612Y122750D01*
X717114Y123155D01*
X717375Y123333D01*
X717642Y123497D01*
X717917Y123644D01*
X718199Y123777D01*
X718487Y123893D01*
X718782Y123994D01*
X719084Y124080D01*
X719393Y124150D01*
X719709Y124204D01*
X720031Y124243D01*
X720361Y124266D01*
X720697Y124274D01*
X721257Y124252D01*
X721796Y124185D01*
X722315Y124074D01*
X722814Y123919D01*
X723293Y123719D01*
X723751Y123475D01*
X724189Y123187D01*
X724607Y122854D01*
X724871Y122604D01*
X725122Y122326D01*
X725358Y122021D01*
X725580Y121688D01*
X725787Y121328D01*
X725981Y120941D01*
X726160Y120526D01*
X726325Y120084D01*
X726506Y120753D01*
X726718Y121377D01*
X726959Y121956D01*
X727230Y122488D01*
X727531Y122975D01*
X727862Y123415D01*
X728222Y123811D01*
X728613Y124160D01*
X729031Y124466D01*
X729476Y124732D01*
X729946Y124956D01*
X730443Y125140D01*
X730965Y125283D01*
X731514Y125385D01*
X732088Y125446D01*
X732689Y125466D01*
X733182Y125452D01*
X733663Y125408D01*
X734131Y125336D01*
X734587Y125234D01*
X735030Y125103D01*
X735460Y124944D01*
X735878Y124755D01*
X736283Y124537D01*
X736672Y124294D01*
X737039Y124030D01*
X737386Y123744D01*
X737712Y123437D01*
X738017Y123108D01*
X738302Y122759D01*
X738565Y122387D01*
X738808Y121995D01*
X738948Y121729D01*
X739077Y121432D01*
X739197Y121102D01*
X739308Y120741D01*
X739408Y120348D01*
X739498Y119924D01*
X739579Y119467D01*
X739649Y118979D01*
X739803Y117751D01*
X739912Y116748D01*
X739978Y115971D01*
X740000Y115420D01*
X740000Y101710D01*
G37*
%LPC*%
G36*
X734477Y109722D02*
X734477Y113772D01*
X734466Y114266D01*
X734432Y114722D01*
X734375Y115140D01*
X734295Y115521D01*
X734193Y115864D01*
X734068Y116169D01*
X733920Y116436D01*
X733750Y116665D01*
X733560Y116862D01*
X733355Y117033D01*
X733134Y117178D01*
X732897Y117296D01*
X732645Y117388D01*
X732377Y117454D01*
X732094Y117493D01*
X731795Y117507D01*
X731517Y117494D01*
X731253Y117454D01*
X731003Y117389D01*
X730767Y117298D01*
X730545Y117181D01*
X730337Y117038D01*
X730143Y116869D01*
X729963Y116674D01*
X729800Y116446D01*
X729660Y116179D01*
X729541Y115873D01*
X729443Y115528D01*
X729368Y115143D01*
X729314Y114719D01*
X729281Y114257D01*
X729270Y113755D01*
X729270Y109722D01*
X734477Y109722D01*
G37*
G36*
X724379Y109722D02*
X724379Y113176D01*
X724369Y113623D01*
X724339Y114035D01*
X724289Y114411D01*
X724219Y114752D01*
X724129Y115057D01*
X724019Y115328D01*
X723889Y115562D01*
X723739Y115762D01*
X723570Y115933D01*
X723383Y116080D01*
X723179Y116205D01*
X722956Y116308D01*
X722716Y116387D01*
X722458Y116444D01*
X722183Y116478D01*
X721889Y116490D01*
X721616Y116478D01*
X721359Y116444D01*
X721117Y116387D01*
X720890Y116308D01*
X720678Y116205D01*
X720482Y116080D01*
X720301Y115933D01*
X720136Y115762D01*
X719988Y115563D01*
X719860Y115331D01*
X719751Y115065D01*
X719663Y114765D01*
X719593Y114431D01*
X719544Y114064D01*
X719515Y113663D01*
X719505Y113229D01*
X719505Y109722D01*
X724379Y109722D01*
G37*
%LPD*%
G36*
X740000Y47782D02*
X714298Y47782D01*
X714298Y60984D01*
X714306Y61515D01*
X714330Y62029D01*
X714370Y62525D01*
X714426Y63005D01*
X714498Y63468D01*
X714586Y63914D01*
X714690Y64344D01*
X714810Y64756D01*
X714947Y65151D01*
X715099Y65530D01*
X715267Y65891D01*
X715451Y66236D01*
X715652Y66563D01*
X715868Y66874D01*
X716100Y67168D01*
X716349Y67445D01*
X716612Y67705D01*
X716889Y67948D01*
X717179Y68175D01*
X717483Y68384D01*
X717800Y68577D01*
X718131Y68754D01*
X718476Y68913D01*
X718834Y69056D01*
X719206Y69181D01*
X719591Y69291D01*
X719990Y69383D01*
X720402Y69458D01*
X720828Y69517D01*
X721268Y69559D01*
X721721Y69584D01*
X722187Y69593D01*
X722667Y69583D01*
X723134Y69556D01*
X723587Y69510D01*
X724027Y69446D01*
X724454Y69364D01*
X724867Y69263D01*
X725267Y69145D01*
X725654Y69007D01*
X726028Y68852D01*
X726388Y68678D01*
X726735Y68486D01*
X727069Y68276D01*
X727389Y68047D01*
X727696Y67801D01*
X727990Y67535D01*
X728271Y67252D01*
X728536Y66950D01*
X728785Y66628D01*
X729016Y66288D01*
X729230Y65928D01*
X729427Y65549D01*
X729606Y65150D01*
X729769Y64732D01*
X729915Y64296D01*
X730043Y63839D01*
X730154Y63364D01*
X730248Y62869D01*
X730325Y62356D01*
X730385Y61822D01*
X730428Y61270D01*
X730454Y60698D01*
X730462Y60108D01*
X730462Y55760D01*
X740000Y55760D01*
X740000Y47782D01*
G37*
%LPC*%
G36*
X725255Y55760D02*
X725255Y57706D01*
X725243Y58258D01*
X725205Y58768D01*
X725143Y59236D01*
X725056Y59660D01*
X724944Y60042D01*
X724807Y60381D01*
X724645Y60678D01*
X724458Y60932D01*
X724251Y61149D01*
X724031Y61338D01*
X723796Y61498D01*
X723548Y61628D01*
X723286Y61730D01*
X723010Y61803D01*
X722719Y61846D01*
X722415Y61861D01*
X722118Y61848D01*
X721833Y61810D01*
X721560Y61747D01*
X721297Y61659D01*
X721047Y61546D01*
X720808Y61407D01*
X720580Y61243D01*
X720364Y61054D01*
X720167Y60830D01*
X719996Y60562D01*
X719851Y60250D01*
X719733Y59893D01*
X719641Y59491D01*
X719575Y59046D01*
X719535Y58556D01*
X719522Y58021D01*
X719522Y55760D01*
X725255Y55760D01*
G37*
%LPD*%
G36*
X727087Y18951D02*
X726302Y18964D01*
X725539Y19004D01*
X724800Y19070D01*
X724083Y19163D01*
X723390Y19282D01*
X722720Y19428D01*
X722072Y19600D01*
X721448Y19799D01*
X720847Y20024D01*
X720269Y20276D01*
X719714Y20554D01*
X719182Y20859D01*
X718673Y21190D01*
X718187Y21548D01*
X717724Y21932D01*
X717285Y22343D01*
X716870Y22778D01*
X716482Y23235D01*
X716121Y23714D01*
X715786Y24215D01*
X715478Y24738D01*
X715197Y25283D01*
X714943Y25850D01*
X714716Y26439D01*
X714515Y27050D01*
X714341Y27683D01*
X714194Y28338D01*
X714073Y29015D01*
X713980Y29714D01*
X713913Y30434D01*
X713873Y31177D01*
X713859Y31942D01*
X713867Y32541D01*
X713890Y33124D01*
X713928Y33690D01*
X713982Y34240D01*
X714051Y34775D01*
X714135Y35292D01*
X714235Y35794D01*
X714350Y36279D01*
X714481Y36748D01*
X714626Y37201D01*
X714787Y37638D01*
X714964Y38058D01*
X715156Y38462D01*
X715363Y38850D01*
X715585Y39222D01*
X715823Y39577D01*
X716077Y39919D01*
X716347Y40250D01*
X716633Y40569D01*
X716936Y40878D01*
X717256Y41175D01*
X717591Y41461D01*
X717944Y41735D01*
X718313Y41999D01*
X718698Y42252D01*
X719099Y42493D01*
X719517Y42723D01*
X719952Y42942D01*
X720403Y43150D01*
X720870Y43346D01*
X721354Y43532D01*
X721854Y43706D01*
X723414Y36693D01*
X722867Y36507D01*
X722398Y36316D01*
X722007Y36121D01*
X721696Y35922D01*
X721267Y35570D01*
X720890Y35181D01*
X720565Y34755D01*
X720423Y34528D01*
X720294Y34291D01*
X720179Y34047D01*
X720079Y33795D01*
X719995Y33536D01*
X719925Y33270D01*
X719872Y32997D01*
X719833Y32717D01*
X719810Y32429D01*
X719803Y32135D01*
X719811Y31802D01*
X719837Y31480D01*
X719879Y31167D01*
X719938Y30864D01*
X720015Y30571D01*
X720108Y30287D01*
X720218Y30014D01*
X720346Y29751D01*
X720490Y29497D01*
X720651Y29253D01*
X720829Y29019D01*
X721024Y28795D01*
X721236Y28581D01*
X721465Y28376D01*
X721711Y28182D01*
X721974Y27997D01*
X722406Y27743D01*
X722895Y27522D01*
X723441Y27335D01*
X724045Y27182D01*
X724706Y27063D01*
X725425Y26978D01*
X726201Y26927D01*
X727035Y26910D01*
X728061Y26931D01*
X729003Y26991D01*
X729862Y27093D01*
X730259Y27159D01*
X730636Y27235D01*
X730991Y27321D01*
X731326Y27417D01*
X731640Y27524D01*
X731932Y27640D01*
X732204Y27767D01*
X732454Y27904D01*
X732684Y28051D01*
X732893Y28208D01*
X733264Y28549D01*
X733586Y28922D01*
X733858Y29329D01*
X734081Y29768D01*
X734254Y30240D01*
X734378Y30746D01*
X734422Y31010D01*
X734453Y31284D01*
X734471Y31565D01*
X734477Y31854D01*
X734457Y32407D01*
X734397Y32924D01*
X734297Y33407D01*
X734157Y33855D01*
X733977Y34269D01*
X733757Y34647D01*
X733497Y34991D01*
X733197Y35300D01*
X732859Y35581D01*
X732485Y35843D01*
X732075Y36084D01*
X731628Y36305D01*
X731146Y36507D01*
X730627Y36688D01*
X730072Y36850D01*
X729481Y36991D01*
X731585Y43952D01*
X732301Y43764D01*
X732988Y43551D01*
X733645Y43312D01*
X734271Y43049D01*
X734868Y42760D01*
X735434Y42446D01*
X735970Y42107D01*
X736476Y41743D01*
X736952Y41354D01*
X737398Y40943D01*
X737813Y40510D01*
X738199Y40053D01*
X738554Y39574D01*
X738879Y39072D01*
X739174Y38547D01*
X739439Y38000D01*
X739673Y37422D01*
X739876Y36806D01*
X740048Y36152D01*
X740188Y35460D01*
X740298Y34729D01*
X740376Y33961D01*
X740423Y33155D01*
X740438Y32310D01*
X740419Y31287D01*
X740362Y30311D01*
X740267Y29383D01*
X740134Y28504D01*
X739963Y27672D01*
X739753Y26888D01*
X739506Y26152D01*
X739221Y25464D01*
X738887Y24811D01*
X738496Y24181D01*
X738047Y23574D01*
X737541Y22990D01*
X736977Y22428D01*
X736354Y21889D01*
X735675Y21373D01*
X734937Y20879D01*
X734547Y20646D01*
X734144Y20427D01*
X733727Y20224D01*
X733297Y20035D01*
X732853Y19862D01*
X732396Y19704D01*
X731925Y19561D01*
X731441Y19433D01*
X730944Y19320D01*
X730433Y19222D01*
X729909Y19139D01*
X729372Y19071D01*
X728821Y19018D01*
X728256Y18981D01*
X727679Y18958D01*
X727087Y18951D01*
G37*
G36*
X727087Y72826D02*
X726302Y72839D01*
X725539Y72879D01*
X724800Y72945D01*
X724083Y73038D01*
X723390Y73157D01*
X722720Y73303D01*
X722072Y73475D01*
X721448Y73674D01*
X720847Y73899D01*
X720269Y74151D01*
X719714Y74429D01*
X719182Y74734D01*
X718673Y75065D01*
X718187Y75423D01*
X717724Y75807D01*
X717285Y76218D01*
X716870Y76653D01*
X716482Y77110D01*
X716121Y77589D01*
X715786Y78090D01*
X715478Y78613D01*
X715197Y79158D01*
X714943Y79725D01*
X714716Y80314D01*
X714515Y80925D01*
X714341Y81558D01*
X714194Y82213D01*
X714073Y82890D01*
X713980Y83589D01*
X713913Y84309D01*
X713873Y85052D01*
X713859Y85817D01*
X713867Y86416D01*
X713890Y86999D01*
X713928Y87565D01*
X713982Y88115D01*
X714051Y88650D01*
X714135Y89167D01*
X714235Y89669D01*
X714350Y90154D01*
X714481Y90623D01*
X714626Y91076D01*
X714787Y91513D01*
X714964Y91933D01*
X715156Y92337D01*
X715363Y92725D01*
X715585Y93097D01*
X715823Y93452D01*
X716077Y93794D01*
X716347Y94125D01*
X716633Y94444D01*
X716936Y94753D01*
X717256Y95050D01*
X717591Y95336D01*
X717944Y95610D01*
X718313Y95874D01*
X718698Y96127D01*
X719099Y96368D01*
X719517Y96598D01*
X719952Y96817D01*
X720403Y97025D01*
X720870Y97221D01*
X721354Y97407D01*
X721854Y97581D01*
X723414Y90568D01*
X722867Y90382D01*
X722398Y90191D01*
X722007Y89996D01*
X721696Y89797D01*
X721267Y89445D01*
X720890Y89056D01*
X720565Y88630D01*
X720423Y88403D01*
X720294Y88166D01*
X720179Y87922D01*
X720079Y87670D01*
X719995Y87411D01*
X719925Y87145D01*
X719872Y86872D01*
X719833Y86592D01*
X719810Y86304D01*
X719803Y86010D01*
X719811Y85677D01*
X719837Y85355D01*
X719879Y85042D01*
X719938Y84739D01*
X720015Y84446D01*
X720108Y84162D01*
X720218Y83889D01*
X720346Y83626D01*
X720490Y83372D01*
X720651Y83128D01*
X720829Y82894D01*
X721024Y82670D01*
X721236Y82456D01*
X721465Y82251D01*
X721711Y82057D01*
X721974Y81872D01*
X722406Y81618D01*
X722895Y81397D01*
X723441Y81210D01*
X724045Y81057D01*
X724706Y80938D01*
X725425Y80853D01*
X726201Y80802D01*
X727035Y80785D01*
X728061Y80806D01*
X729003Y80866D01*
X729862Y80968D01*
X730259Y81034D01*
X730636Y81110D01*
X730991Y81196D01*
X731326Y81292D01*
X731640Y81399D01*
X731932Y81515D01*
X732204Y81642D01*
X732454Y81779D01*
X732684Y81926D01*
X732893Y82083D01*
X733264Y82424D01*
X733586Y82797D01*
X733858Y83204D01*
X734081Y83643D01*
X734254Y84115D01*
X734378Y84621D01*
X734422Y84885D01*
X734453Y85159D01*
X734471Y85440D01*
X734477Y85729D01*
X734457Y86282D01*
X734397Y86799D01*
X734297Y87282D01*
X734157Y87730D01*
X733977Y88144D01*
X733757Y88522D01*
X733497Y88866D01*
X733197Y89175D01*
X732859Y89456D01*
X732485Y89718D01*
X732075Y89959D01*
X731628Y90180D01*
X731146Y90382D01*
X730627Y90563D01*
X730072Y90725D01*
X729481Y90866D01*
X731585Y97827D01*
X732301Y97639D01*
X732988Y97426D01*
X733645Y97187D01*
X734271Y96924D01*
X734868Y96635D01*
X735434Y96321D01*
X735970Y95982D01*
X736476Y95618D01*
X736952Y95229D01*
X737398Y94818D01*
X737813Y94385D01*
X738199Y93928D01*
X738554Y93449D01*
X738879Y92947D01*
X739174Y92422D01*
X739439Y91875D01*
X739673Y91297D01*
X739876Y90681D01*
X740048Y90027D01*
X740188Y89335D01*
X740298Y88604D01*
X740376Y87836D01*
X740423Y87030D01*
X740438Y86185D01*
X740419Y85162D01*
X740362Y84186D01*
X740267Y83258D01*
X740134Y82379D01*
X739963Y81547D01*
X739753Y80763D01*
X739506Y80027D01*
X739221Y79339D01*
X738887Y78686D01*
X738496Y78056D01*
X738047Y77449D01*
X737541Y76865D01*
X736977Y76303D01*
X736354Y75764D01*
X735675Y75248D01*
X734937Y74754D01*
X734547Y74521D01*
X734144Y74302D01*
X733727Y74099D01*
X733297Y73910D01*
X732853Y73737D01*
X732396Y73579D01*
X731925Y73436D01*
X731441Y73308D01*
X730944Y73195D01*
X730433Y73097D01*
X729909Y73014D01*
X729372Y72946D01*
X728821Y72893D01*
X728256Y72856D01*
X727679Y72833D01*
X727087Y72826D01*
G37*
G36*
X740000Y-3433D02*
X714298Y-3433D01*
X714298Y4510D01*
X733671Y4510D01*
X733671Y16905D01*
X740000Y16905D01*
X740000Y-3433D01*
G37*
G36*
X731304Y-29386D02*
X730270Y-21795D01*
X731065Y-21770D01*
X731751Y-21712D01*
X732327Y-21621D01*
X732575Y-21563D01*
X732794Y-21497D01*
X733187Y-21332D01*
X733539Y-21120D01*
X733853Y-20859D01*
X734127Y-20550D01*
X734272Y-20298D01*
X734377Y-19998D01*
X734439Y-19649D01*
X734460Y-19253D01*
X734444Y-18931D01*
X734398Y-18631D01*
X734321Y-18353D01*
X734212Y-18098D01*
X734073Y-17864D01*
X733903Y-17653D01*
X733702Y-17465D01*
X733470Y-17298D01*
X733201Y-17152D01*
X732890Y-17026D01*
X732537Y-16919D01*
X732141Y-16831D01*
X731703Y-16763D01*
X731222Y-16714D01*
X730699Y-16685D01*
X730133Y-16675D01*
X714298Y-16675D01*
X714298Y-8716D01*
X728262Y-8716D01*
X729328Y-8728D01*
X730329Y-8765D01*
X731264Y-8825D01*
X732134Y-8911D01*
X732937Y-9021D01*
X733675Y-9155D01*
X734348Y-9313D01*
X734954Y-9496D01*
X735517Y-9716D01*
X736058Y-9985D01*
X736577Y-10303D01*
X737074Y-10671D01*
X737550Y-11088D01*
X738003Y-11554D01*
X738434Y-12069D01*
X738844Y-12634D01*
X739218Y-13244D01*
X739386Y-13565D01*
X739542Y-13896D01*
X739685Y-14237D01*
X739816Y-14589D01*
X739934Y-14951D01*
X740040Y-15323D01*
X740133Y-15706D01*
X740214Y-16099D01*
X740283Y-16502D01*
X740339Y-16916D01*
X740382Y-17340D01*
X740413Y-17774D01*
X740432Y-18219D01*
X740438Y-18674D01*
X740422Y-19620D01*
X740373Y-20511D01*
X740290Y-21347D01*
X740175Y-22128D01*
X740027Y-22855D01*
X739847Y-23526D01*
X739633Y-24143D01*
X739386Y-24705D01*
X739108Y-25225D01*
X738800Y-25714D01*
X738461Y-26173D01*
X738091Y-26601D01*
X737691Y-26999D01*
X737261Y-27366D01*
X736801Y-27703D01*
X736309Y-28010D01*
X735788Y-28287D01*
X735237Y-28533D01*
X734656Y-28750D01*
X734046Y-28937D01*
X733405Y-29094D01*
X732735Y-29221D01*
X732034Y-29319D01*
X731304Y-29386D01*
G37*
G36*
X801400Y66550D02*
X799922Y66550D01*
X803676Y71677D01*
X800209Y76418D01*
X801687Y76418D01*
X804433Y72545D01*
X807101Y76418D01*
X808579Y76418D01*
X805203Y71726D01*
X808866Y66550D01*
X807388Y66550D01*
X804426Y70864D01*
X801400Y66550D01*
G37*
G36*
X816439Y66550D02*
X810255Y66550D01*
X810255Y67622D01*
X812769Y67622D01*
X812769Y75214D01*
X810542Y73624D01*
X810542Y74814D01*
X812875Y76418D01*
X814037Y76418D01*
X814037Y67622D01*
X816439Y67622D01*
X816439Y66550D01*
G37*
G36*
X801400Y206550D02*
X799922Y206550D01*
X803676Y211677D01*
X800209Y216418D01*
X801687Y216418D01*
X804433Y212545D01*
X807101Y216418D01*
X808579Y216418D01*
X805203Y211726D01*
X808866Y206550D01*
X807388Y206550D01*
X804426Y210864D01*
X801400Y206550D01*
G37*
G36*
X816418Y206550D02*
X809884Y206550D01*
X809884Y207439D01*
X810072Y207837D01*
X810280Y208211D01*
X810508Y208560D01*
X810756Y208886D01*
X811284Y209483D01*
X811838Y210020D01*
X812403Y210510D01*
X812962Y210962D01*
X813492Y211397D01*
X813967Y211831D01*
X814180Y212051D01*
X814372Y212276D01*
X814543Y212506D01*
X814692Y212741D01*
X814813Y212987D01*
X814899Y213249D01*
X814951Y213527D01*
X814969Y213820D01*
X814961Y214017D01*
X814939Y214203D01*
X814902Y214378D01*
X814850Y214541D01*
X814783Y214693D01*
X814701Y214834D01*
X814604Y214963D01*
X814492Y215081D01*
X814368Y215186D01*
X814231Y215277D01*
X814083Y215354D01*
X813923Y215417D01*
X813752Y215466D01*
X813569Y215501D01*
X813375Y215522D01*
X813169Y215529D01*
X812972Y215522D01*
X812784Y215501D01*
X812604Y215467D01*
X812434Y215419D01*
X812273Y215358D01*
X812120Y215283D01*
X811841Y215091D01*
X811718Y214976D01*
X811607Y214850D01*
X811511Y214713D01*
X811427Y214565D01*
X811357Y214406D01*
X811301Y214236D01*
X811258Y214054D01*
X811229Y213862D01*
X809940Y213981D01*
X809986Y214269D01*
X810055Y214543D01*
X810147Y214801D01*
X810261Y215044D01*
X810398Y215272D01*
X810558Y215485D01*
X810740Y215682D01*
X810945Y215865D01*
X811169Y216029D01*
X811408Y216171D01*
X811663Y216292D01*
X811933Y216390D01*
X812219Y216467D01*
X812520Y216522D01*
X812837Y216554D01*
X813169Y216565D01*
X813531Y216554D01*
X813871Y216521D01*
X814191Y216466D01*
X814488Y216389D01*
X814764Y216290D01*
X815018Y216169D01*
X815251Y216027D01*
X815462Y215862D01*
X815650Y215676D01*
X815813Y215473D01*
X815951Y215250D01*
X816064Y215010D01*
X816152Y214751D01*
X816214Y214473D01*
X816252Y214177D01*
X816264Y213862D01*
X816248Y213575D01*
X816199Y213289D01*
X816117Y213004D01*
X816002Y212720D01*
X815854Y212437D01*
X815675Y212153D01*
X815464Y211869D01*
X815221Y211586D01*
X814903Y211263D01*
X814466Y210863D01*
X813912Y210384D01*
X813239Y209828D01*
X812516Y209202D01*
X812216Y208913D01*
X811957Y208641D01*
X811736Y208379D01*
X811547Y208121D01*
X811392Y207869D01*
X811271Y207622D01*
X816418Y207622D01*
X816418Y206550D01*
G37*
G36*
X801400Y-73450D02*
X799922Y-73450D01*
X803676Y-68323D01*
X800209Y-63582D01*
X801687Y-63582D01*
X804433Y-67455D01*
X807101Y-63582D01*
X808579Y-63582D01*
X805203Y-68274D01*
X808866Y-73450D01*
X807388Y-73450D01*
X804426Y-69136D01*
X801400Y-73450D01*
G37*
G36*
X813162Y-73590D02*
X812796Y-73580D01*
X812450Y-73548D01*
X812123Y-73495D01*
X811814Y-73421D01*
X811525Y-73326D01*
X811254Y-73210D01*
X811003Y-73073D01*
X810770Y-72914D01*
X810558Y-72735D01*
X810369Y-72536D01*
X810202Y-72316D01*
X810058Y-72076D01*
X809937Y-71816D01*
X809838Y-71536D01*
X809762Y-71235D01*
X809709Y-70915D01*
X811011Y-70796D01*
X811049Y-71008D01*
X811100Y-71206D01*
X811164Y-71391D01*
X811240Y-71562D01*
X811330Y-71719D01*
X811432Y-71863D01*
X811547Y-71993D01*
X811675Y-72109D01*
X811816Y-72211D01*
X811970Y-72300D01*
X812136Y-72376D01*
X812316Y-72437D01*
X812508Y-72485D01*
X812713Y-72519D01*
X812931Y-72540D01*
X813162Y-72547D01*
X813393Y-72539D01*
X813612Y-72517D01*
X813818Y-72481D01*
X814012Y-72429D01*
X814192Y-72363D01*
X814360Y-72283D01*
X814515Y-72187D01*
X814657Y-72077D01*
X814784Y-71953D01*
X814894Y-71814D01*
X814988Y-71661D01*
X815064Y-71494D01*
X815123Y-71313D01*
X815166Y-71117D01*
X815191Y-70908D01*
X815200Y-70684D01*
X815190Y-70488D01*
X815161Y-70303D01*
X815113Y-70129D01*
X815045Y-69967D01*
X814958Y-69815D01*
X814851Y-69674D01*
X814725Y-69545D01*
X814580Y-69426D01*
X814416Y-69320D01*
X814236Y-69229D01*
X814038Y-69151D01*
X813823Y-69088D01*
X813590Y-69038D01*
X813341Y-69003D01*
X813074Y-68982D01*
X812790Y-68975D01*
X812076Y-68975D01*
X812076Y-67882D01*
X812762Y-67882D01*
X813014Y-67875D01*
X813252Y-67854D01*
X813474Y-67818D01*
X813683Y-67769D01*
X813876Y-67706D01*
X814055Y-67628D01*
X814220Y-67536D01*
X814370Y-67430D01*
X814504Y-67312D01*
X814620Y-67183D01*
X814718Y-67043D01*
X814798Y-66892D01*
X814860Y-66730D01*
X814905Y-66558D01*
X814932Y-66374D01*
X814941Y-66180D01*
X814933Y-65987D01*
X814912Y-65805D01*
X814875Y-65633D01*
X814824Y-65472D01*
X814759Y-65321D01*
X814679Y-65180D01*
X814584Y-65050D01*
X814475Y-64930D01*
X814351Y-64822D01*
X814214Y-64729D01*
X814062Y-64650D01*
X813896Y-64586D01*
X813716Y-64536D01*
X813522Y-64500D01*
X813314Y-64478D01*
X813092Y-64471D01*
X812888Y-64478D01*
X812695Y-64498D01*
X812511Y-64531D01*
X812338Y-64578D01*
X812174Y-64638D01*
X812021Y-64711D01*
X811877Y-64798D01*
X811743Y-64898D01*
X811621Y-65011D01*
X811513Y-65134D01*
X811418Y-65268D01*
X811336Y-65413D01*
X811268Y-65569D01*
X811214Y-65736D01*
X811172Y-65914D01*
X811145Y-66103D01*
X809877Y-66005D01*
X809923Y-65710D01*
X809992Y-65432D01*
X810084Y-65171D01*
X810198Y-64926D01*
X810335Y-64698D01*
X810495Y-64487D01*
X810677Y-64292D01*
X810882Y-64114D01*
X811106Y-63955D01*
X811345Y-63817D01*
X811600Y-63700D01*
X811870Y-63604D01*
X812156Y-63530D01*
X812457Y-63477D01*
X812774Y-63445D01*
X813106Y-63435D01*
X813466Y-63445D01*
X813807Y-63478D01*
X814126Y-63532D01*
X814425Y-63607D01*
X814703Y-63704D01*
X814961Y-63823D01*
X815197Y-63963D01*
X815413Y-64124D01*
X815606Y-64305D01*
X815773Y-64503D01*
X815915Y-64718D01*
X816031Y-64950D01*
X816121Y-65199D01*
X816185Y-65465D01*
X816223Y-65747D01*
X816236Y-66047D01*
X816228Y-66278D01*
X816203Y-66498D01*
X816162Y-66706D01*
X816104Y-66904D01*
X816030Y-67091D01*
X815939Y-67266D01*
X815831Y-67431D01*
X815708Y-67584D01*
X815568Y-67726D01*
X815413Y-67856D01*
X815243Y-67975D01*
X815059Y-68081D01*
X814859Y-68175D01*
X814644Y-68257D01*
X814415Y-68328D01*
X814170Y-68386D01*
X814170Y-68414D01*
X814439Y-68452D01*
X814693Y-68505D01*
X814931Y-68575D01*
X815154Y-68659D01*
X815362Y-68760D01*
X815554Y-68877D01*
X815731Y-69009D01*
X815893Y-69157D01*
X816038Y-69318D01*
X816163Y-69489D01*
X816269Y-69670D01*
X816355Y-69861D01*
X816423Y-70062D01*
X816471Y-70273D01*
X816500Y-70494D01*
X816509Y-70726D01*
X816496Y-71057D01*
X816455Y-71370D01*
X816387Y-71663D01*
X816292Y-71937D01*
X816170Y-72192D01*
X816021Y-72427D01*
X815845Y-72644D01*
X815641Y-72841D01*
X815412Y-73016D01*
X815160Y-73169D01*
X814885Y-73297D01*
X814587Y-73403D01*
X814265Y-73485D01*
X813921Y-73543D01*
X813553Y-73578D01*
X813162Y-73590D01*
G37*
G36*
X965211Y145000D02*
X964870Y146753D01*
X961220Y146044D01*
X961070Y146813D01*
X963601Y152725D01*
X964640Y152927D01*
X965653Y147716D01*
X966741Y147927D01*
X966893Y147147D01*
X965804Y146935D01*
X966145Y145181D01*
X965211Y145000D01*
G37*
%LPC*%
G36*
X961981Y147002D02*
X964718Y147534D01*
X963922Y151629D01*
X963825Y151308D01*
X963681Y150904D01*
X962265Y147593D01*
X962047Y147129D01*
X961981Y147002D01*
G37*
%LPD*%
G36*
X954040Y142828D02*
X956204Y147425D01*
X952759Y150618D01*
X953919Y150843D01*
X956665Y148222D01*
X958169Y151669D01*
X959328Y151894D01*
X957395Y147696D01*
X961059Y144193D01*
X959899Y143967D01*
X956916Y146902D01*
X955199Y143054D01*
X954040Y142828D01*
G37*
G36*
X975610Y-35740D02*
X975341Y-35732D01*
X975085Y-35710D01*
X974842Y-35672D01*
X974613Y-35620D01*
X974397Y-35552D01*
X974194Y-35469D01*
X974005Y-35371D01*
X973829Y-35258D01*
X973667Y-35131D01*
X973521Y-34991D01*
X973391Y-34837D01*
X973276Y-34669D01*
X973177Y-34488D01*
X973093Y-34293D01*
X973025Y-34086D01*
X972972Y-33864D01*
X973991Y-33746D01*
X974087Y-34021D01*
X974214Y-34258D01*
X974372Y-34460D01*
X974561Y-34624D01*
X974782Y-34752D01*
X975034Y-34844D01*
X975317Y-34899D01*
X975632Y-34917D01*
X975830Y-34909D01*
X976016Y-34886D01*
X976191Y-34848D01*
X976356Y-34794D01*
X976509Y-34725D01*
X976652Y-34641D01*
X976783Y-34542D01*
X976903Y-34427D01*
X977011Y-34299D01*
X977104Y-34159D01*
X977183Y-34008D01*
X977248Y-33845D01*
X977298Y-33671D01*
X977334Y-33486D01*
X977355Y-33289D01*
X977362Y-33080D01*
X977355Y-32898D01*
X977334Y-32725D01*
X977297Y-32562D01*
X977247Y-32407D01*
X977182Y-32261D01*
X977103Y-32123D01*
X977009Y-31995D01*
X976900Y-31876D01*
X976780Y-31768D01*
X976649Y-31675D01*
X976509Y-31596D01*
X976358Y-31532D01*
X976197Y-31481D01*
X976026Y-31446D01*
X975845Y-31424D01*
X975654Y-31417D01*
X975454Y-31425D01*
X975260Y-31449D01*
X975073Y-31489D01*
X974893Y-31546D01*
X974716Y-31621D01*
X974540Y-31719D01*
X974364Y-31840D01*
X974187Y-31982D01*
X973202Y-31982D01*
X973465Y-27738D01*
X977950Y-27738D01*
X977950Y-28594D01*
X974383Y-28594D01*
X974232Y-31098D01*
X974401Y-30980D01*
X974580Y-30877D01*
X974768Y-30791D01*
X974967Y-30720D01*
X975176Y-30665D01*
X975394Y-30625D01*
X975623Y-30602D01*
X975862Y-30594D01*
X976145Y-30604D01*
X976414Y-30636D01*
X976669Y-30690D01*
X976908Y-30764D01*
X977133Y-30861D01*
X977343Y-30978D01*
X977538Y-31117D01*
X977718Y-31277D01*
X977880Y-31454D01*
X978021Y-31644D01*
X978139Y-31848D01*
X978237Y-32064D01*
X978312Y-32293D01*
X978366Y-32535D01*
X978399Y-32790D01*
X978410Y-33058D01*
X978398Y-33362D01*
X978363Y-33649D01*
X978305Y-33919D01*
X978224Y-34173D01*
X978120Y-34411D01*
X977992Y-34632D01*
X977842Y-34836D01*
X977668Y-35023D01*
X977473Y-35191D01*
X977261Y-35337D01*
X977030Y-35460D01*
X976782Y-35561D01*
X976516Y-35639D01*
X976232Y-35695D01*
X975930Y-35729D01*
X975610Y-35740D01*
G37*
G36*
X966296Y-35628D02*
X965114Y-35628D01*
X968116Y-31529D01*
X965344Y-27738D01*
X966525Y-27738D01*
X968721Y-30834D01*
X970854Y-27738D01*
X972036Y-27738D01*
X969337Y-31490D01*
X972265Y-35628D01*
X971084Y-35628D01*
X968715Y-32178D01*
X966296Y-35628D01*
G37*
G36*
X950696Y-220515D02*
X950421Y-220496D01*
X950134Y-220452D01*
X949819Y-220375D01*
X949530Y-220271D01*
X949265Y-220141D01*
X949026Y-219984D01*
X948813Y-219801D01*
X948624Y-219590D01*
X948460Y-219353D01*
X948322Y-219090D01*
X948209Y-218801D01*
X948124Y-218489D01*
X948066Y-218154D01*
X948034Y-217795D01*
X948030Y-217412D01*
X948053Y-217006D01*
X948103Y-216577D01*
X948179Y-216124D01*
X948286Y-215638D01*
X948409Y-215185D01*
X948548Y-214766D01*
X948705Y-214381D01*
X948879Y-214029D01*
X949069Y-213711D01*
X949276Y-213426D01*
X949500Y-213175D01*
X949739Y-212959D01*
X949990Y-212781D01*
X950254Y-212640D01*
X950530Y-212536D01*
X950818Y-212470D01*
X951120Y-212441D01*
X951434Y-212450D01*
X951760Y-212496D01*
X951973Y-212544D01*
X952173Y-212602D01*
X952361Y-212670D01*
X952536Y-212749D01*
X952699Y-212838D01*
X952849Y-212938D01*
X952987Y-213048D01*
X953112Y-213168D01*
X953325Y-213440D01*
X953488Y-213753D01*
X953601Y-214107D01*
X953663Y-214503D01*
X952684Y-214490D01*
X952644Y-214252D01*
X952576Y-214039D01*
X952480Y-213852D01*
X952358Y-213690D01*
X952208Y-213554D01*
X952030Y-213443D01*
X951825Y-213357D01*
X951593Y-213296D01*
X951385Y-213269D01*
X951184Y-213268D01*
X950990Y-213294D01*
X950803Y-213348D01*
X950624Y-213428D01*
X950452Y-213535D01*
X950286Y-213669D01*
X950128Y-213830D01*
X949979Y-214018D01*
X949840Y-214230D01*
X949711Y-214466D01*
X949592Y-214728D01*
X949484Y-215015D01*
X949386Y-215326D01*
X949298Y-215663D01*
X949220Y-216024D01*
X949414Y-215818D01*
X949630Y-215647D01*
X949867Y-215511D01*
X950127Y-215410D01*
X950402Y-215345D01*
X950690Y-215317D01*
X950988Y-215324D01*
X951299Y-215367D01*
X951558Y-215428D01*
X951799Y-215508D01*
X952022Y-215606D01*
X952227Y-215722D01*
X952415Y-215856D01*
X952584Y-216009D01*
X952736Y-216179D01*
X952870Y-216369D01*
X952983Y-216572D01*
X953074Y-216786D01*
X953143Y-217011D01*
X953189Y-217246D01*
X953213Y-217492D01*
X953214Y-217749D01*
X953192Y-218016D01*
X953149Y-218294D01*
X953080Y-218590D01*
X952994Y-218866D01*
X952891Y-219122D01*
X952769Y-219358D01*
X952630Y-219574D01*
X952474Y-219769D01*
X952299Y-219945D01*
X952107Y-220100D01*
X951901Y-220232D01*
X951683Y-220339D01*
X951453Y-220421D01*
X951212Y-220478D01*
X950960Y-220509D01*
X950696Y-220515D01*
G37*
%LPC*%
G36*
X950599Y-219684D02*
X950761Y-219676D01*
X950917Y-219652D01*
X951065Y-219611D01*
X951207Y-219552D01*
X951342Y-219477D01*
X951470Y-219385D01*
X951590Y-219278D01*
X951699Y-219157D01*
X951798Y-219022D01*
X951886Y-218874D01*
X951964Y-218711D01*
X952031Y-218535D01*
X952088Y-218346D01*
X952134Y-218142D01*
X952167Y-217937D01*
X952185Y-217741D01*
X952188Y-217554D01*
X952176Y-217377D01*
X952148Y-217210D01*
X952105Y-217052D01*
X952047Y-216904D01*
X951974Y-216765D01*
X951887Y-216637D01*
X951786Y-216521D01*
X951673Y-216418D01*
X951547Y-216327D01*
X951408Y-216248D01*
X951256Y-216181D01*
X951092Y-216127D01*
X950914Y-216085D01*
X950744Y-216059D01*
X950579Y-216046D01*
X950421Y-216048D01*
X950268Y-216065D01*
X949981Y-216140D01*
X949717Y-216272D01*
X949596Y-216358D01*
X949487Y-216457D01*
X949390Y-216567D01*
X949304Y-216690D01*
X949229Y-216825D01*
X949166Y-216972D01*
X949114Y-217131D01*
X949074Y-217302D01*
X949039Y-217523D01*
X949019Y-217735D01*
X949015Y-217941D01*
X949026Y-218139D01*
X949054Y-218329D01*
X949097Y-218512D01*
X949157Y-218688D01*
X949231Y-218856D01*
X949320Y-219012D01*
X949420Y-219152D01*
X949531Y-219276D01*
X949653Y-219383D01*
X949787Y-219474D01*
X949932Y-219548D01*
X950088Y-219606D01*
X950255Y-219648D01*
X950431Y-219675D01*
X950599Y-219684D01*
G37*
%LPD*%
G36*
X946647Y-219660D02*
X945487Y-219434D01*
X943820Y-215596D01*
X940787Y-218521D01*
X939627Y-218295D01*
X943355Y-214844D01*
X941358Y-210594D01*
X942518Y-210819D01*
X944082Y-214278D01*
X946767Y-211645D01*
X947927Y-211871D01*
X944561Y-215039D01*
X946647Y-219660D01*
G37*
G36*
X566691Y-235641D02*
X565018Y-235641D01*
X565018Y-223300D01*
X570825Y-223300D01*
X571332Y-223315D01*
X571808Y-223359D01*
X572255Y-223431D01*
X572672Y-223533D01*
X573060Y-223665D01*
X573417Y-223825D01*
X573746Y-224014D01*
X574044Y-224233D01*
X574310Y-224478D01*
X574540Y-224745D01*
X574735Y-225035D01*
X574895Y-225349D01*
X575019Y-225685D01*
X575107Y-226044D01*
X575161Y-226425D01*
X575178Y-226830D01*
X575166Y-227167D01*
X575128Y-227490D01*
X575066Y-227800D01*
X574978Y-228096D01*
X574865Y-228378D01*
X574727Y-228646D01*
X574565Y-228901D01*
X574377Y-229142D01*
X574167Y-229366D01*
X573938Y-229568D01*
X573690Y-229748D01*
X573579Y-229814D01*
X573423Y-229906D01*
X573137Y-230043D01*
X572832Y-230159D01*
X572508Y-230252D01*
X572165Y-230325D01*
X573657Y-232588D01*
X575669Y-235641D01*
X573742Y-235641D01*
X570536Y-230517D01*
X566691Y-230517D01*
X566691Y-235641D01*
G37*
%LPC*%
G36*
X570729Y-229195D02*
X571050Y-229185D01*
X571353Y-229156D01*
X571636Y-229108D01*
X571901Y-229040D01*
X572148Y-228954D01*
X572375Y-228847D01*
X572584Y-228722D01*
X572774Y-228577D01*
X572943Y-228415D01*
X573090Y-228238D01*
X573214Y-228045D01*
X573316Y-227836D01*
X573395Y-227612D01*
X573451Y-227373D01*
X573485Y-227118D01*
X573497Y-226847D01*
X573485Y-226586D01*
X573451Y-226341D01*
X573394Y-226112D01*
X573314Y-225898D01*
X573211Y-225701D01*
X573085Y-225520D01*
X572937Y-225354D01*
X572765Y-225205D01*
X572572Y-225073D01*
X572359Y-224958D01*
X572126Y-224861D01*
X571873Y-224782D01*
X571600Y-224720D01*
X571306Y-224676D01*
X570993Y-224649D01*
X570659Y-224640D01*
X566691Y-224640D01*
X566691Y-229195D01*
X570729Y-229195D01*
G37*
%LPD*%
G36*
X591687Y-235816D02*
X591430Y-235810D01*
X591181Y-235792D01*
X590706Y-235719D01*
X590261Y-235598D01*
X589848Y-235429D01*
X589464Y-235211D01*
X589112Y-234944D01*
X588790Y-234629D01*
X588499Y-234266D01*
X588240Y-233856D01*
X588016Y-233403D01*
X587826Y-232905D01*
X587671Y-232363D01*
X587550Y-231777D01*
X587464Y-231147D01*
X587413Y-230473D01*
X587395Y-229755D01*
X587413Y-228977D01*
X587467Y-228246D01*
X587557Y-227560D01*
X587682Y-226922D01*
X587843Y-226330D01*
X588041Y-225784D01*
X588274Y-225285D01*
X588543Y-224833D01*
X588845Y-224431D01*
X589177Y-224082D01*
X589540Y-223787D01*
X589933Y-223545D01*
X590357Y-223358D01*
X590580Y-223284D01*
X590811Y-223224D01*
X591049Y-223177D01*
X591295Y-223143D01*
X591548Y-223123D01*
X591810Y-223116D01*
X592151Y-223126D01*
X592476Y-223156D01*
X592785Y-223205D01*
X593077Y-223273D01*
X593354Y-223362D01*
X593614Y-223470D01*
X593859Y-223597D01*
X594087Y-223745D01*
X594299Y-223912D01*
X594495Y-224098D01*
X594674Y-224304D01*
X594838Y-224530D01*
X594985Y-224776D01*
X595116Y-225041D01*
X595232Y-225326D01*
X595331Y-225630D01*
X593824Y-225902D01*
X593691Y-225548D01*
X593523Y-225242D01*
X593321Y-224984D01*
X593084Y-224772D01*
X592813Y-224607D01*
X592507Y-224489D01*
X592167Y-224419D01*
X591792Y-224395D01*
X591464Y-224415D01*
X591156Y-224474D01*
X590866Y-224572D01*
X590595Y-224709D01*
X590344Y-224886D01*
X590111Y-225102D01*
X589898Y-225357D01*
X589703Y-225652D01*
X589530Y-225984D01*
X589379Y-226351D01*
X589252Y-226753D01*
X589148Y-227190D01*
X589067Y-227663D01*
X589009Y-228170D01*
X588975Y-228713D01*
X588963Y-229291D01*
X589200Y-228916D01*
X589480Y-228589D01*
X589804Y-228310D01*
X590172Y-228078D01*
X590576Y-227896D01*
X591008Y-227766D01*
X591235Y-227721D01*
X591469Y-227688D01*
X591710Y-227668D01*
X591958Y-227662D01*
X592374Y-227679D01*
X592768Y-227729D01*
X593140Y-227812D01*
X593490Y-227929D01*
X593818Y-228079D01*
X594124Y-228263D01*
X594408Y-228480D01*
X594669Y-228731D01*
X594904Y-229009D01*
X595108Y-229311D01*
X595280Y-229635D01*
X595421Y-229983D01*
X595531Y-230354D01*
X595609Y-230747D01*
X595656Y-231164D01*
X595672Y-231603D01*
X595656Y-232079D01*
X595606Y-232528D01*
X595523Y-232952D01*
X595407Y-233351D01*
X595258Y-233723D01*
X595076Y-234070D01*
X594861Y-234391D01*
X594612Y-234686D01*
X594335Y-234951D01*
X594032Y-235181D01*
X593704Y-235375D01*
X593351Y-235534D01*
X592973Y-235657D01*
X592569Y-235746D01*
X592141Y-235799D01*
X591687Y-235816D01*
G37*
%LPC*%
G36*
X591634Y-234546D02*
X591911Y-234534D01*
X592173Y-234498D01*
X592419Y-234438D01*
X592650Y-234355D01*
X592866Y-234247D01*
X593066Y-234115D01*
X593251Y-233959D01*
X593421Y-233780D01*
X593573Y-233579D01*
X593705Y-233361D01*
X593816Y-233124D01*
X593907Y-232870D01*
X593978Y-232598D01*
X594029Y-232308D01*
X594059Y-231999D01*
X594069Y-231673D01*
X594059Y-231348D01*
X594028Y-231042D01*
X593977Y-230755D01*
X593905Y-230487D01*
X593813Y-230238D01*
X593700Y-230008D01*
X593566Y-229798D01*
X593412Y-229606D01*
X593240Y-229436D01*
X593052Y-229288D01*
X592847Y-229163D01*
X592626Y-229061D01*
X592389Y-228982D01*
X592136Y-228925D01*
X591867Y-228891D01*
X591582Y-228879D01*
X591313Y-228889D01*
X591057Y-228920D01*
X590814Y-228970D01*
X590584Y-229040D01*
X590368Y-229131D01*
X590165Y-229242D01*
X589976Y-229372D01*
X589799Y-229523D01*
X589640Y-229692D01*
X589503Y-229875D01*
X589386Y-230074D01*
X589290Y-230288D01*
X589216Y-230518D01*
X589163Y-230762D01*
X589131Y-231022D01*
X589121Y-231297D01*
X589132Y-231646D01*
X589165Y-231978D01*
X589220Y-232295D01*
X589297Y-232595D01*
X589396Y-232879D01*
X589517Y-233148D01*
X589661Y-233400D01*
X589826Y-233635D01*
X590008Y-233849D01*
X590203Y-234034D01*
X590411Y-234190D01*
X590630Y-234318D01*
X590863Y-234418D01*
X591108Y-234489D01*
X591365Y-234532D01*
X591634Y-234546D01*
G37*
%LPD*%
G36*
X581517Y-235816D02*
X581060Y-235803D01*
X580627Y-235763D01*
X580218Y-235697D01*
X579832Y-235605D01*
X579470Y-235486D01*
X579131Y-235341D01*
X578817Y-235169D01*
X578526Y-234971D01*
X578261Y-234747D01*
X578024Y-234498D01*
X577816Y-234223D01*
X577636Y-233923D01*
X577484Y-233598D01*
X577361Y-233247D01*
X577266Y-232872D01*
X577199Y-232470D01*
X578828Y-232322D01*
X578875Y-232587D01*
X578939Y-232835D01*
X579018Y-233066D01*
X579114Y-233280D01*
X579226Y-233476D01*
X579354Y-233656D01*
X579498Y-233818D01*
X579658Y-233964D01*
X579834Y-234092D01*
X580026Y-234203D01*
X580234Y-234297D01*
X580459Y-234374D01*
X580699Y-234434D01*
X580956Y-234477D01*
X581228Y-234503D01*
X581517Y-234511D01*
X581807Y-234502D01*
X582080Y-234475D01*
X582338Y-234429D01*
X582580Y-234364D01*
X582806Y-234282D01*
X583015Y-234181D01*
X583209Y-234062D01*
X583387Y-233924D01*
X583546Y-233769D01*
X583684Y-233595D01*
X583800Y-233404D01*
X583896Y-233195D01*
X583970Y-232968D01*
X584023Y-232724D01*
X584055Y-232462D01*
X584065Y-232181D01*
X584053Y-231937D01*
X584017Y-231705D01*
X583956Y-231488D01*
X583872Y-231285D01*
X583763Y-231095D01*
X583629Y-230919D01*
X583472Y-230757D01*
X583290Y-230609D01*
X583086Y-230477D01*
X582860Y-230362D01*
X582612Y-230265D01*
X582343Y-230186D01*
X582053Y-230124D01*
X581741Y-230080D01*
X581407Y-230053D01*
X581053Y-230044D01*
X580159Y-230044D01*
X580159Y-228678D01*
X581018Y-228678D01*
X581332Y-228669D01*
X581629Y-228643D01*
X581908Y-228599D01*
X582168Y-228537D01*
X582410Y-228457D01*
X582634Y-228360D01*
X582840Y-228245D01*
X583028Y-228113D01*
X583195Y-227965D01*
X583340Y-227804D01*
X583463Y-227628D01*
X583563Y-227440D01*
X583641Y-227238D01*
X583697Y-227022D01*
X583730Y-226793D01*
X583741Y-226550D01*
X583732Y-226309D01*
X583705Y-226081D01*
X583660Y-225866D01*
X583596Y-225664D01*
X583514Y-225475D01*
X583414Y-225299D01*
X583295Y-225136D01*
X583159Y-224986D01*
X583005Y-224852D01*
X582832Y-224735D01*
X582643Y-224637D01*
X582435Y-224556D01*
X582210Y-224493D01*
X581968Y-224448D01*
X581707Y-224422D01*
X581429Y-224413D01*
X581175Y-224421D01*
X580933Y-224446D01*
X580704Y-224488D01*
X580487Y-224546D01*
X580282Y-224621D01*
X580090Y-224713D01*
X579910Y-224822D01*
X579743Y-224947D01*
X579591Y-225087D01*
X579455Y-225241D01*
X579336Y-225409D01*
X579234Y-225591D01*
X579149Y-225786D01*
X579081Y-225995D01*
X579029Y-226217D01*
X578994Y-226453D01*
X577409Y-226331D01*
X577467Y-225962D01*
X577553Y-225615D01*
X577668Y-225288D01*
X577811Y-224982D01*
X577982Y-224697D01*
X578182Y-224432D01*
X578410Y-224189D01*
X578666Y-223966D01*
X578946Y-223767D01*
X579245Y-223594D01*
X579564Y-223448D01*
X579902Y-223329D01*
X580259Y-223236D01*
X580636Y-223169D01*
X581032Y-223130D01*
X581447Y-223116D01*
X581898Y-223130D01*
X582323Y-223170D01*
X582723Y-223238D01*
X583097Y-223332D01*
X583444Y-223453D01*
X583766Y-223602D01*
X584062Y-223777D01*
X584333Y-223979D01*
X584574Y-224205D01*
X584783Y-224453D01*
X584960Y-224722D01*
X585104Y-225011D01*
X585217Y-225323D01*
X585297Y-225655D01*
X585346Y-226008D01*
X585362Y-226383D01*
X585351Y-226672D01*
X585320Y-226947D01*
X585269Y-227208D01*
X585196Y-227455D01*
X585103Y-227688D01*
X584990Y-227908D01*
X584855Y-228114D01*
X584700Y-228306D01*
X584526Y-228483D01*
X584332Y-228646D01*
X584120Y-228794D01*
X583889Y-228927D01*
X583640Y-229044D01*
X583371Y-229147D01*
X583084Y-229235D01*
X582778Y-229309D01*
X582778Y-229344D01*
X583114Y-229391D01*
X583432Y-229457D01*
X583730Y-229544D01*
X584009Y-229650D01*
X584268Y-229776D01*
X584509Y-229922D01*
X584730Y-230087D01*
X584933Y-230272D01*
X585113Y-230473D01*
X585270Y-230687D01*
X585402Y-230913D01*
X585511Y-231152D01*
X585595Y-231404D01*
X585655Y-231668D01*
X585691Y-231945D01*
X585703Y-232234D01*
X585686Y-232649D01*
X585635Y-233040D01*
X585551Y-233407D01*
X585432Y-233749D01*
X585279Y-234068D01*
X585092Y-234362D01*
X584872Y-234633D01*
X584617Y-234879D01*
X584331Y-235099D01*
X584016Y-235289D01*
X583672Y-235450D01*
X583299Y-235582D01*
X582897Y-235684D01*
X582466Y-235758D01*
X582006Y-235802D01*
X581517Y-235816D01*
G37*
G36*
X625641Y105018D02*
X613300Y105018D01*
X613300Y110825D01*
X613315Y111332D01*
X613359Y111808D01*
X613431Y112255D01*
X613533Y112672D01*
X613665Y113060D01*
X613825Y113417D01*
X614014Y113746D01*
X614233Y114044D01*
X614478Y114310D01*
X614745Y114540D01*
X615035Y114735D01*
X615349Y114895D01*
X615685Y115019D01*
X616044Y115107D01*
X616425Y115161D01*
X616830Y115178D01*
X617167Y115166D01*
X617490Y115128D01*
X617800Y115066D01*
X618096Y114978D01*
X618378Y114865D01*
X618646Y114727D01*
X618901Y114565D01*
X619142Y114377D01*
X619366Y114167D01*
X619568Y113938D01*
X619748Y113690D01*
X619814Y113579D01*
X619906Y113423D01*
X620043Y113137D01*
X620159Y112832D01*
X620252Y112508D01*
X620325Y112165D01*
X622588Y113657D01*
X625641Y115669D01*
X625641Y113742D01*
X620517Y110536D01*
X620517Y106691D01*
X625641Y106691D01*
X625641Y105018D01*
G37*
%LPC*%
G36*
X619195Y106691D02*
X619195Y110729D01*
X619185Y111050D01*
X619156Y111353D01*
X619108Y111636D01*
X619040Y111901D01*
X618954Y112148D01*
X618847Y112375D01*
X618722Y112584D01*
X618577Y112774D01*
X618415Y112943D01*
X618238Y113090D01*
X618045Y113214D01*
X617836Y113316D01*
X617612Y113395D01*
X617373Y113451D01*
X617118Y113485D01*
X616847Y113497D01*
X616586Y113485D01*
X616341Y113451D01*
X616112Y113394D01*
X615898Y113314D01*
X615701Y113211D01*
X615520Y113085D01*
X615354Y112937D01*
X615205Y112765D01*
X615073Y112572D01*
X614958Y112359D01*
X614861Y112126D01*
X614782Y111873D01*
X614720Y111600D01*
X614676Y111306D01*
X614649Y110993D01*
X614640Y110659D01*
X614640Y106691D01*
X619195Y106691D01*
G37*
%LPD*%
G36*
X622882Y127203D02*
X622698Y128797D01*
X622920Y128865D01*
X623127Y128946D01*
X623320Y129039D01*
X623499Y129144D01*
X623663Y129262D01*
X623814Y129392D01*
X623950Y129534D01*
X624071Y129688D01*
X624178Y129854D01*
X624271Y130033D01*
X624350Y130224D01*
X624414Y130427D01*
X624464Y130643D01*
X624500Y130871D01*
X624522Y131111D01*
X624529Y131363D01*
X624517Y131672D01*
X624481Y131963D01*
X624421Y132238D01*
X624337Y132495D01*
X624229Y132735D01*
X624098Y132957D01*
X623942Y133163D01*
X623762Y133351D01*
X623562Y133519D01*
X623343Y133665D01*
X623107Y133789D01*
X622853Y133890D01*
X622580Y133968D01*
X622290Y134024D01*
X621982Y134058D01*
X621656Y134069D01*
X621372Y134058D01*
X621101Y134024D01*
X620845Y133968D01*
X620603Y133889D01*
X620374Y133787D01*
X620160Y133663D01*
X619959Y133516D01*
X619773Y133347D01*
X619604Y133158D01*
X619459Y132954D01*
X619335Y132734D01*
X619234Y132498D01*
X619156Y132247D01*
X619099Y131980D01*
X619066Y131697D01*
X619055Y131398D01*
X619067Y131084D01*
X619105Y130780D01*
X619168Y130488D01*
X619256Y130207D01*
X619374Y129931D01*
X619528Y129655D01*
X619716Y129379D01*
X619939Y129103D01*
X619939Y127562D01*
X613300Y127973D01*
X613300Y134989D01*
X614640Y134989D01*
X614640Y129410D01*
X618555Y129173D01*
X618371Y129437D01*
X618211Y129717D01*
X618075Y130012D01*
X617964Y130323D01*
X617878Y130649D01*
X617816Y130991D01*
X617779Y131349D01*
X617767Y131722D01*
X617784Y132166D01*
X617834Y132587D01*
X617917Y132984D01*
X618034Y133359D01*
X618184Y133710D01*
X618368Y134038D01*
X618585Y134343D01*
X618836Y134625D01*
X619113Y134879D01*
X619410Y135099D01*
X619728Y135285D01*
X620066Y135437D01*
X620424Y135555D01*
X620803Y135640D01*
X621202Y135690D01*
X621621Y135707D01*
X622096Y135689D01*
X622545Y135635D01*
X622969Y135544D01*
X623366Y135417D01*
X623737Y135254D01*
X624083Y135054D01*
X624402Y134819D01*
X624695Y134547D01*
X624958Y134242D01*
X625186Y133910D01*
X625378Y133550D01*
X625536Y133162D01*
X625659Y132745D01*
X625746Y132301D01*
X625799Y131828D01*
X625816Y131328D01*
X625804Y130907D01*
X625769Y130507D01*
X625710Y130127D01*
X625628Y129769D01*
X625522Y129431D01*
X625393Y129114D01*
X625240Y128818D01*
X625063Y128543D01*
X624864Y128290D01*
X624644Y128061D01*
X624403Y127857D01*
X624141Y127678D01*
X623858Y127522D01*
X623554Y127391D01*
X623228Y127285D01*
X622882Y127203D01*
G37*
G36*
X622470Y117199D02*
X622322Y118828D01*
X622587Y118875D01*
X622835Y118939D01*
X623066Y119018D01*
X623280Y119114D01*
X623476Y119226D01*
X623656Y119354D01*
X623818Y119498D01*
X623964Y119658D01*
X624092Y119834D01*
X624203Y120026D01*
X624297Y120234D01*
X624374Y120459D01*
X624434Y120699D01*
X624477Y120956D01*
X624503Y121228D01*
X624511Y121517D01*
X624502Y121807D01*
X624475Y122080D01*
X624429Y122338D01*
X624364Y122580D01*
X624282Y122806D01*
X624181Y123015D01*
X624062Y123209D01*
X623924Y123387D01*
X623769Y123546D01*
X623595Y123684D01*
X623404Y123800D01*
X623195Y123896D01*
X622968Y123970D01*
X622724Y124023D01*
X622462Y124055D01*
X622181Y124065D01*
X621937Y124053D01*
X621705Y124017D01*
X621488Y123956D01*
X621285Y123872D01*
X621095Y123763D01*
X620919Y123629D01*
X620757Y123472D01*
X620609Y123290D01*
X620477Y123086D01*
X620362Y122860D01*
X620265Y122612D01*
X620186Y122343D01*
X620124Y122053D01*
X620080Y121741D01*
X620053Y121407D01*
X620044Y121053D01*
X620044Y120159D01*
X618678Y120159D01*
X618678Y121018D01*
X618669Y121332D01*
X618643Y121629D01*
X618599Y121908D01*
X618537Y122168D01*
X618457Y122410D01*
X618360Y122634D01*
X618245Y122840D01*
X618113Y123028D01*
X617965Y123195D01*
X617804Y123340D01*
X617628Y123463D01*
X617440Y123563D01*
X617238Y123641D01*
X617022Y123697D01*
X616793Y123730D01*
X616550Y123741D01*
X616309Y123732D01*
X616081Y123705D01*
X615866Y123660D01*
X615664Y123596D01*
X615475Y123514D01*
X615299Y123414D01*
X615136Y123295D01*
X614986Y123159D01*
X614852Y123005D01*
X614735Y122832D01*
X614637Y122643D01*
X614556Y122435D01*
X614493Y122210D01*
X614448Y121968D01*
X614422Y121707D01*
X614413Y121429D01*
X614421Y121175D01*
X614446Y120933D01*
X614488Y120704D01*
X614546Y120487D01*
X614621Y120282D01*
X614713Y120090D01*
X614822Y119910D01*
X614947Y119743D01*
X615087Y119591D01*
X615241Y119455D01*
X615409Y119336D01*
X615591Y119234D01*
X615786Y119149D01*
X615995Y119081D01*
X616217Y119029D01*
X616453Y118994D01*
X616331Y117409D01*
X615962Y117467D01*
X615615Y117553D01*
X615288Y117668D01*
X614982Y117811D01*
X614697Y117982D01*
X614432Y118182D01*
X614189Y118410D01*
X613966Y118666D01*
X613767Y118946D01*
X613594Y119245D01*
X613448Y119564D01*
X613329Y119902D01*
X613236Y120259D01*
X613169Y120636D01*
X613130Y121032D01*
X613116Y121447D01*
X613130Y121898D01*
X613170Y122323D01*
X613238Y122723D01*
X613332Y123097D01*
X613453Y123444D01*
X613602Y123766D01*
X613777Y124062D01*
X613979Y124333D01*
X614205Y124574D01*
X614453Y124783D01*
X614722Y124960D01*
X615011Y125104D01*
X615323Y125217D01*
X615655Y125297D01*
X616008Y125346D01*
X616383Y125362D01*
X616672Y125351D01*
X616947Y125320D01*
X617208Y125269D01*
X617455Y125196D01*
X617688Y125103D01*
X617908Y124990D01*
X618114Y124855D01*
X618306Y124700D01*
X618483Y124526D01*
X618646Y124332D01*
X618794Y124120D01*
X618927Y123889D01*
X619044Y123640D01*
X619147Y123371D01*
X619235Y123084D01*
X619309Y122778D01*
X619344Y122778D01*
X619391Y123114D01*
X619457Y123432D01*
X619544Y123730D01*
X619650Y124009D01*
X619776Y124268D01*
X619922Y124509D01*
X620087Y124730D01*
X620272Y124933D01*
X620473Y125113D01*
X620687Y125270D01*
X620913Y125402D01*
X621152Y125511D01*
X621404Y125595D01*
X621668Y125655D01*
X621945Y125691D01*
X622234Y125703D01*
X622649Y125686D01*
X623040Y125635D01*
X623407Y125551D01*
X623749Y125432D01*
X624068Y125279D01*
X624362Y125092D01*
X624633Y124872D01*
X624879Y124617D01*
X625099Y124331D01*
X625289Y124016D01*
X625450Y123672D01*
X625582Y123299D01*
X625684Y122897D01*
X625758Y122466D01*
X625802Y122006D01*
X625816Y121517D01*
X625803Y121060D01*
X625763Y120627D01*
X625697Y120218D01*
X625605Y119832D01*
X625486Y119470D01*
X625341Y119131D01*
X625169Y118817D01*
X624971Y118526D01*
X624747Y118261D01*
X624498Y118024D01*
X624223Y117816D01*
X623923Y117636D01*
X623598Y117484D01*
X623247Y117361D01*
X622872Y117266D01*
X622470Y117199D01*
G37*
G36*
X588394Y-8879D02*
X588009Y-8867D01*
X587645Y-8832D01*
X587303Y-8773D01*
X586983Y-8691D01*
X586685Y-8586D01*
X586407Y-8457D01*
X586152Y-8305D01*
X585918Y-8129D01*
X585708Y-7932D01*
X585527Y-7715D01*
X585374Y-7479D01*
X585248Y-7222D01*
X585150Y-6946D01*
X585081Y-6651D01*
X585039Y-6335D01*
X585025Y-6000D01*
X585033Y-5763D01*
X585059Y-5536D01*
X585103Y-5319D01*
X585163Y-5111D01*
X585241Y-4912D01*
X585336Y-4724D01*
X585448Y-4545D01*
X585578Y-4375D01*
X585721Y-4219D01*
X585874Y-4079D01*
X586036Y-3954D01*
X586208Y-3847D01*
X586390Y-3755D01*
X586581Y-3679D01*
X586782Y-3620D01*
X586993Y-3577D01*
X586993Y-3549D01*
X586797Y-3495D01*
X586611Y-3427D01*
X586437Y-3345D01*
X586272Y-3249D01*
X586119Y-3140D01*
X585976Y-3017D01*
X585843Y-2880D01*
X585722Y-2729D01*
X585518Y-2401D01*
X585438Y-2226D01*
X585372Y-2045D01*
X585321Y-1857D01*
X585285Y-1662D01*
X585263Y-1460D01*
X585256Y-1252D01*
X585269Y-976D01*
X585309Y-715D01*
X585375Y-466D01*
X585467Y-231D01*
X585586Y-9D01*
X585731Y200D01*
X585902Y395D01*
X586100Y576D01*
X586320Y741D01*
X586558Y883D01*
X586814Y1003D01*
X587088Y1102D01*
X587381Y1178D01*
X587691Y1233D01*
X588019Y1266D01*
X588366Y1277D01*
X588720Y1266D01*
X589056Y1234D01*
X589372Y1180D01*
X589669Y1105D01*
X589947Y1009D01*
X590206Y891D01*
X590446Y751D01*
X590666Y590D01*
X590864Y411D01*
X591036Y217D01*
X591181Y8D01*
X591299Y-217D01*
X591392Y-456D01*
X591458Y-711D01*
X591497Y-981D01*
X591510Y-1266D01*
X591503Y-1474D01*
X591481Y-1676D01*
X591444Y-1871D01*
X591393Y-2059D01*
X591327Y-2240D01*
X591246Y-2415D01*
X591041Y-2743D01*
X590918Y-2894D01*
X590785Y-3029D01*
X590771Y-3041D01*
X590641Y-3150D01*
X590486Y-3256D01*
X590320Y-3348D01*
X590144Y-3425D01*
X589957Y-3487D01*
X589759Y-3535D01*
X589759Y-3563D01*
X589989Y-3609D01*
X590206Y-3671D01*
X590409Y-3748D01*
X590600Y-3840D01*
X590777Y-3948D01*
X590941Y-4072D01*
X591092Y-4211D01*
X591203Y-4335D01*
X591230Y-4365D01*
X591353Y-4532D01*
X591460Y-4709D01*
X591550Y-4896D01*
X591624Y-5094D01*
X591682Y-5302D01*
X591723Y-5520D01*
X591747Y-5748D01*
X591755Y-5986D01*
X591742Y-6318D01*
X591701Y-6631D01*
X591633Y-6926D01*
X591538Y-7201D01*
X591416Y-7458D01*
X591267Y-7696D01*
X591090Y-7915D01*
X590887Y-8115D01*
X590658Y-8294D01*
X590405Y-8449D01*
X590129Y-8581D01*
X589829Y-8688D01*
X589506Y-8771D01*
X589159Y-8831D01*
X588788Y-8867D01*
X588394Y-8879D01*
G37*
%LPC*%
G36*
X588408Y-7933D02*
X588657Y-7926D01*
X588890Y-7902D01*
X589106Y-7864D01*
X589306Y-7810D01*
X589489Y-7740D01*
X589656Y-7655D01*
X589807Y-7555D01*
X589941Y-7439D01*
X590060Y-7307D01*
X590162Y-7156D01*
X590249Y-6987D01*
X590320Y-6799D01*
X590375Y-6594D01*
X590414Y-6370D01*
X590438Y-6128D01*
X590446Y-5867D01*
X590437Y-5645D01*
X590412Y-5437D01*
X590369Y-5243D01*
X590309Y-5063D01*
X590232Y-4897D01*
X590138Y-4745D01*
X590027Y-4607D01*
X589899Y-4484D01*
X589756Y-4375D01*
X589599Y-4280D01*
X589428Y-4200D01*
X589243Y-4135D01*
X589044Y-4084D01*
X588832Y-4047D01*
X588606Y-4025D01*
X588366Y-4018D01*
X588132Y-4026D01*
X587912Y-4049D01*
X587705Y-4089D01*
X587511Y-4143D01*
X587330Y-4214D01*
X587163Y-4300D01*
X587008Y-4402D01*
X586867Y-4519D01*
X586740Y-4650D01*
X586631Y-4793D01*
X586538Y-4947D01*
X586462Y-5113D01*
X586403Y-5291D01*
X586361Y-5481D01*
X586336Y-5682D01*
X586327Y-5895D01*
X586336Y-6142D01*
X586360Y-6373D01*
X586401Y-6588D01*
X586457Y-6787D01*
X586531Y-6970D01*
X586620Y-7137D01*
X586726Y-7288D01*
X586848Y-7424D01*
X586986Y-7543D01*
X587140Y-7647D01*
X587311Y-7734D01*
X587498Y-7806D01*
X587701Y-7862D01*
X587920Y-7901D01*
X588156Y-7925D01*
X588408Y-7933D01*
G37*
G36*
X588380Y-3073D02*
X588595Y-3066D01*
X588798Y-3047D01*
X588987Y-3015D01*
X589163Y-2970D01*
X589326Y-2913D01*
X589475Y-2842D01*
X589612Y-2759D01*
X589735Y-2663D01*
X589844Y-2553D01*
X589939Y-2426D01*
X590019Y-2284D01*
X590084Y-2126D01*
X590135Y-1952D01*
X590171Y-1763D01*
X590193Y-1557D01*
X590201Y-1336D01*
X590193Y-1133D01*
X590172Y-943D01*
X590136Y-767D01*
X590086Y-603D01*
X590021Y-453D01*
X589943Y-316D01*
X589849Y-191D01*
X589742Y-80D01*
X589620Y18D01*
X589484Y103D01*
X589333Y175D01*
X589168Y234D01*
X588989Y279D01*
X588796Y312D01*
X588588Y332D01*
X588366Y338D01*
X588150Y332D01*
X587947Y312D01*
X587758Y279D01*
X587582Y233D01*
X587419Y174D01*
X587270Y102D01*
X587133Y17D01*
X587010Y-82D01*
X586901Y-193D01*
X586807Y-318D01*
X586727Y-455D01*
X586661Y-606D01*
X586610Y-769D01*
X586574Y-945D01*
X586552Y-1134D01*
X586545Y-1336D01*
X586552Y-1541D01*
X586575Y-1734D01*
X586612Y-1915D01*
X586665Y-2082D01*
X586732Y-2238D01*
X586814Y-2380D01*
X586912Y-2510D01*
X587024Y-2628D01*
X587150Y-2732D01*
X587289Y-2822D01*
X587440Y-2899D01*
X587603Y-2961D01*
X587779Y-3010D01*
X587967Y-3045D01*
X588167Y-3066D01*
X588380Y-3073D01*
G37*
%LPD*%
G36*
X576639Y-8739D02*
X575161Y-8739D01*
X578915Y-3612D01*
X575448Y1130D01*
X576926Y1130D01*
X579672Y-2743D01*
X582340Y1130D01*
X583818Y1130D01*
X580442Y-3563D01*
X584105Y-8739D01*
X582627Y-8739D01*
X579665Y-4424D01*
X576639Y-8739D01*
G37*
G36*
X717843Y-200805D02*
X716891Y-200805D01*
X716891Y-199019D01*
X713173Y-199019D01*
X713173Y-198235D01*
X716785Y-192915D01*
X717843Y-192915D01*
X717843Y-198223D01*
X718952Y-198223D01*
X718952Y-199019D01*
X717843Y-199019D01*
X717843Y-200805D01*
G37*
%LPC*%
G36*
X716891Y-198223D02*
X716891Y-194051D01*
X716734Y-194348D01*
X716516Y-194718D01*
X714494Y-197697D01*
X714192Y-198111D01*
X714102Y-198223D01*
X716891Y-198223D01*
G37*
%LPD*%
G36*
X708722Y-200917D02*
X708253Y-200895D01*
X707815Y-200829D01*
X707407Y-200718D01*
X707031Y-200564D01*
X706690Y-200368D01*
X706390Y-200132D01*
X706130Y-199855D01*
X705911Y-199539D01*
X705737Y-199187D01*
X705613Y-198803D01*
X705569Y-198599D01*
X705538Y-198386D01*
X705519Y-198166D01*
X705513Y-197938D01*
X705513Y-192915D01*
X706583Y-192915D01*
X706583Y-197848D01*
X706591Y-198110D01*
X706617Y-198356D01*
X706660Y-198585D01*
X706720Y-198799D01*
X706797Y-198996D01*
X706891Y-199176D01*
X707003Y-199341D01*
X707132Y-199489D01*
X707276Y-199620D01*
X707436Y-199734D01*
X707612Y-199830D01*
X707802Y-199909D01*
X708008Y-199970D01*
X708229Y-200014D01*
X708465Y-200040D01*
X708716Y-200049D01*
X708975Y-200040D01*
X709219Y-200013D01*
X709448Y-199967D01*
X709662Y-199904D01*
X709861Y-199823D01*
X710046Y-199723D01*
X710216Y-199605D01*
X710371Y-199469D01*
X710510Y-199316D01*
X710630Y-199146D01*
X710731Y-198959D01*
X710814Y-198756D01*
X710879Y-198536D01*
X710925Y-198299D01*
X710953Y-198046D01*
X710962Y-197775D01*
X710962Y-192915D01*
X712026Y-192915D01*
X712026Y-197837D01*
X712020Y-198072D01*
X712001Y-198299D01*
X711969Y-198518D01*
X711924Y-198729D01*
X711798Y-199125D01*
X711620Y-199489D01*
X711396Y-199816D01*
X711130Y-200101D01*
X710822Y-200346D01*
X710472Y-200550D01*
X710084Y-200711D01*
X709663Y-200825D01*
X709209Y-200894D01*
X708722Y-200917D01*
G37*
G36*
X689210Y-111115D02*
X676869Y-111115D01*
X676869Y-107033D01*
X676875Y-106647D01*
X676894Y-106272D01*
X676925Y-105908D01*
X676968Y-105555D01*
X677023Y-105213D01*
X677090Y-104883D01*
X677170Y-104564D01*
X677262Y-104256D01*
X677367Y-103959D01*
X677483Y-103673D01*
X677612Y-103399D01*
X677754Y-103136D01*
X677907Y-102883D01*
X678073Y-102643D01*
X678251Y-102413D01*
X678441Y-102194D01*
X678643Y-101988D01*
X678855Y-101795D01*
X679078Y-101615D01*
X679310Y-101449D01*
X679554Y-101296D01*
X679807Y-101156D01*
X680071Y-101030D01*
X680345Y-100917D01*
X680630Y-100817D01*
X680925Y-100730D01*
X681230Y-100657D01*
X681546Y-100597D01*
X681872Y-100551D01*
X682209Y-100517D01*
X682555Y-100497D01*
X682913Y-100491D01*
X683383Y-100502D01*
X683837Y-100537D01*
X684278Y-100595D01*
X684703Y-100677D01*
X685113Y-100782D01*
X685508Y-100909D01*
X685889Y-101061D01*
X686254Y-101235D01*
X686602Y-101431D01*
X686928Y-101646D01*
X687234Y-101881D01*
X687519Y-102135D01*
X687782Y-102409D01*
X688025Y-102702D01*
X688247Y-103014D01*
X688448Y-103346D01*
X688627Y-103694D01*
X688781Y-104055D01*
X688912Y-104430D01*
X689020Y-104817D01*
X689103Y-105218D01*
X689162Y-105632D01*
X689198Y-106059D01*
X689210Y-106499D01*
X689210Y-111115D01*
G37*
%LPC*%
G36*
X687870Y-109442D02*
X687870Y-106692D01*
X687861Y-106358D01*
X687833Y-106034D01*
X687786Y-105720D01*
X687721Y-105416D01*
X687637Y-105123D01*
X687535Y-104840D01*
X687414Y-104567D01*
X687274Y-104305D01*
X687117Y-104055D01*
X686944Y-103820D01*
X686754Y-103600D01*
X686547Y-103395D01*
X686325Y-103205D01*
X686085Y-103030D01*
X685830Y-102870D01*
X685558Y-102724D01*
X685271Y-102595D01*
X684972Y-102483D01*
X684660Y-102388D01*
X684336Y-102310D01*
X683999Y-102250D01*
X683649Y-102207D01*
X683287Y-102181D01*
X682913Y-102172D01*
X682356Y-102192D01*
X681833Y-102251D01*
X681345Y-102349D01*
X680891Y-102487D01*
X680470Y-102663D01*
X680084Y-102879D01*
X679732Y-103135D01*
X679414Y-103429D01*
X679131Y-103761D01*
X678887Y-104128D01*
X678680Y-104530D01*
X678510Y-104967D01*
X678379Y-105440D01*
X678285Y-105948D01*
X678228Y-106490D01*
X678209Y-107068D01*
X678209Y-109442D01*
X687870Y-109442D01*
G37*
%LPD*%
G36*
X686039Y-98934D02*
X685891Y-97305D01*
X686156Y-97258D01*
X686404Y-97194D01*
X686635Y-97115D01*
X686849Y-97019D01*
X687045Y-96907D01*
X687225Y-96779D01*
X687387Y-96635D01*
X687533Y-96475D01*
X687661Y-96299D01*
X687772Y-96107D01*
X687866Y-95899D01*
X687943Y-95675D01*
X688003Y-95434D01*
X688046Y-95178D01*
X688072Y-94905D01*
X688080Y-94616D01*
X688071Y-94327D01*
X688044Y-94053D01*
X687998Y-93795D01*
X687933Y-93553D01*
X687851Y-93328D01*
X687750Y-93118D01*
X687631Y-92924D01*
X687493Y-92746D01*
X687338Y-92587D01*
X687164Y-92449D01*
X686973Y-92333D01*
X686764Y-92237D01*
X686537Y-92163D01*
X686293Y-92110D01*
X686031Y-92078D01*
X685750Y-92068D01*
X685506Y-92080D01*
X685274Y-92116D01*
X685057Y-92177D01*
X684854Y-92261D01*
X684664Y-92370D01*
X684488Y-92504D01*
X684326Y-92661D01*
X684178Y-92843D01*
X684046Y-93047D01*
X683931Y-93273D01*
X683834Y-93521D01*
X683755Y-93790D01*
X683693Y-94080D01*
X683649Y-94392D01*
X683622Y-94726D01*
X683613Y-95081D01*
X683613Y-95974D01*
X682247Y-95974D01*
X682247Y-95116D01*
X682238Y-94801D01*
X682212Y-94504D01*
X682168Y-94225D01*
X682106Y-93965D01*
X682026Y-93723D01*
X681929Y-93499D01*
X681814Y-93293D01*
X681682Y-93106D01*
X681534Y-92938D01*
X681373Y-92793D01*
X681197Y-92671D01*
X681009Y-92570D01*
X680807Y-92492D01*
X680591Y-92436D01*
X680362Y-92403D01*
X680119Y-92392D01*
X679878Y-92401D01*
X679650Y-92428D01*
X679435Y-92474D01*
X679233Y-92537D01*
X679044Y-92619D01*
X678868Y-92719D01*
X678705Y-92838D01*
X678555Y-92974D01*
X678421Y-93129D01*
X678304Y-93301D01*
X678206Y-93490D01*
X678125Y-93698D01*
X678062Y-93923D01*
X678017Y-94166D01*
X677991Y-94426D01*
X677982Y-94704D01*
X677990Y-94958D01*
X678015Y-95200D01*
X678057Y-95430D01*
X678115Y-95647D01*
X678190Y-95851D01*
X678282Y-96043D01*
X678391Y-96223D01*
X678516Y-96390D01*
X678656Y-96543D01*
X678810Y-96678D01*
X678978Y-96797D01*
X679160Y-96899D01*
X679355Y-96984D01*
X679564Y-97053D01*
X679786Y-97104D01*
X680022Y-97139D01*
X679900Y-98724D01*
X679531Y-98666D01*
X679184Y-98580D01*
X678857Y-98465D01*
X678551Y-98322D01*
X678266Y-98151D01*
X678001Y-97951D01*
X677758Y-97724D01*
X677535Y-97467D01*
X677336Y-97187D01*
X677163Y-96888D01*
X677017Y-96569D01*
X676898Y-96231D01*
X676805Y-95874D01*
X676738Y-95497D01*
X676699Y-95102D01*
X676685Y-94686D01*
X676699Y-94235D01*
X676739Y-93810D01*
X676807Y-93410D01*
X676901Y-93037D01*
X677022Y-92689D01*
X677171Y-92367D01*
X677346Y-92071D01*
X677548Y-91801D01*
X677774Y-91559D01*
X678022Y-91350D01*
X678291Y-91173D01*
X678580Y-91029D01*
X678892Y-90916D01*
X679224Y-90836D01*
X679577Y-90787D01*
X679952Y-90771D01*
X680241Y-90782D01*
X680516Y-90813D01*
X680777Y-90864D01*
X681024Y-90937D01*
X681257Y-91030D01*
X681477Y-91143D01*
X681683Y-91278D01*
X681875Y-91433D01*
X682052Y-91607D01*
X682215Y-91801D01*
X682363Y-92013D01*
X682496Y-92244D01*
X682613Y-92494D01*
X682716Y-92762D01*
X682804Y-93049D01*
X682878Y-93355D01*
X682913Y-93355D01*
X682960Y-93019D01*
X683026Y-92702D01*
X683113Y-92404D01*
X683219Y-92125D01*
X683345Y-91865D01*
X683491Y-91624D01*
X683656Y-91403D01*
X683841Y-91201D01*
X684042Y-91020D01*
X684256Y-90863D01*
X684482Y-90731D01*
X684721Y-90623D01*
X684973Y-90538D01*
X685237Y-90478D01*
X685514Y-90442D01*
X685803Y-90430D01*
X686218Y-90447D01*
X686609Y-90498D01*
X686976Y-90583D01*
X687318Y-90701D01*
X687637Y-90854D01*
X687931Y-91041D01*
X688202Y-91261D01*
X688448Y-91516D01*
X688668Y-91802D01*
X688858Y-92117D01*
X689019Y-92461D01*
X689151Y-92834D01*
X689253Y-93236D01*
X689327Y-93667D01*
X689371Y-94127D01*
X689385Y-94616D01*
X689372Y-95073D01*
X689332Y-95506D01*
X689266Y-95916D01*
X689174Y-96301D01*
X689055Y-96663D01*
X688910Y-97002D01*
X688738Y-97316D01*
X688540Y-97607D01*
X688316Y-97872D01*
X688067Y-98109D01*
X687792Y-98318D01*
X687492Y-98498D01*
X687167Y-98649D01*
X686816Y-98773D01*
X686441Y-98868D01*
X686039Y-98934D01*
G37*
G36*
X686039Y-88966D02*
X685891Y-87337D01*
X686156Y-87289D01*
X686404Y-87226D01*
X686635Y-87146D01*
X686849Y-87050D01*
X687045Y-86938D01*
X687225Y-86811D01*
X687387Y-86667D01*
X687533Y-86507D01*
X687661Y-86331D01*
X687772Y-86138D01*
X687866Y-85930D01*
X687943Y-85706D01*
X688003Y-85465D01*
X688046Y-85209D01*
X688072Y-84936D01*
X688080Y-84648D01*
X688071Y-84358D01*
X688044Y-84084D01*
X687998Y-83826D01*
X687933Y-83585D01*
X687851Y-83359D01*
X687750Y-83149D01*
X687631Y-82955D01*
X687493Y-82778D01*
X687338Y-82619D01*
X687164Y-82481D01*
X686973Y-82364D01*
X686764Y-82269D01*
X686537Y-82194D01*
X686293Y-82141D01*
X686031Y-82110D01*
X685750Y-82099D01*
X685506Y-82111D01*
X685274Y-82147D01*
X685057Y-82208D01*
X684854Y-82293D01*
X684664Y-82402D01*
X684488Y-82535D01*
X684326Y-82692D01*
X684178Y-82874D01*
X684046Y-83079D01*
X683931Y-83305D01*
X683834Y-83552D01*
X683755Y-83821D01*
X683693Y-84112D01*
X683649Y-84423D01*
X683622Y-84757D01*
X683613Y-85112D01*
X683613Y-86005D01*
X682247Y-86005D01*
X682247Y-85147D01*
X682238Y-84832D01*
X682212Y-84535D01*
X682168Y-84257D01*
X682106Y-83996D01*
X682026Y-83754D01*
X681929Y-83530D01*
X681814Y-83324D01*
X681682Y-83137D01*
X681534Y-82970D01*
X681373Y-82825D01*
X681197Y-82702D01*
X681009Y-82601D01*
X680807Y-82523D01*
X680591Y-82468D01*
X680362Y-82434D01*
X680119Y-82423D01*
X679878Y-82432D01*
X679650Y-82459D01*
X679435Y-82505D01*
X679233Y-82569D01*
X679044Y-82650D01*
X678868Y-82751D01*
X678705Y-82869D01*
X678555Y-83005D01*
X678421Y-83160D01*
X678304Y-83332D01*
X678206Y-83522D01*
X678125Y-83729D01*
X678062Y-83954D01*
X678017Y-84197D01*
X677991Y-84457D01*
X677982Y-84735D01*
X677990Y-84990D01*
X678015Y-85231D01*
X678057Y-85461D01*
X678115Y-85678D01*
X678190Y-85882D01*
X678282Y-86074D01*
X678391Y-86254D01*
X678516Y-86421D01*
X678656Y-86574D01*
X678810Y-86709D01*
X678978Y-86828D01*
X679160Y-86930D01*
X679355Y-87016D01*
X679564Y-87084D01*
X679786Y-87135D01*
X680022Y-87170D01*
X679900Y-88755D01*
X679531Y-88697D01*
X679184Y-88611D01*
X678857Y-88497D01*
X678551Y-88354D01*
X678266Y-88182D01*
X678001Y-87983D01*
X677758Y-87755D01*
X677535Y-87499D01*
X677336Y-87218D01*
X677163Y-86919D01*
X677017Y-86600D01*
X676898Y-86263D01*
X676805Y-85905D01*
X676738Y-85529D01*
X676699Y-85133D01*
X676685Y-84718D01*
X676699Y-84266D01*
X676739Y-83841D01*
X676807Y-83442D01*
X676901Y-83068D01*
X677022Y-82720D01*
X677171Y-82398D01*
X677346Y-82102D01*
X677548Y-81832D01*
X677774Y-81591D01*
X678022Y-81382D01*
X678291Y-81205D01*
X678580Y-81060D01*
X678892Y-80947D01*
X679224Y-80867D01*
X679577Y-80819D01*
X679952Y-80803D01*
X680241Y-80813D01*
X680516Y-80844D01*
X680777Y-80896D01*
X681024Y-80968D01*
X681257Y-81061D01*
X681477Y-81175D01*
X681683Y-81309D01*
X681875Y-81464D01*
X682052Y-81639D01*
X682215Y-81832D01*
X682363Y-82044D01*
X682496Y-82275D01*
X682613Y-82525D01*
X682716Y-82793D01*
X682804Y-83080D01*
X682878Y-83386D01*
X682913Y-83386D01*
X682960Y-83050D01*
X683026Y-82733D01*
X683113Y-82435D01*
X683219Y-82156D01*
X683345Y-81896D01*
X683491Y-81656D01*
X683656Y-81434D01*
X683841Y-81232D01*
X684042Y-81051D01*
X684256Y-80895D01*
X684482Y-80762D01*
X684721Y-80654D01*
X684973Y-80569D01*
X685237Y-80509D01*
X685514Y-80473D01*
X685803Y-80461D01*
X686218Y-80478D01*
X686609Y-80529D01*
X686976Y-80614D01*
X687318Y-80733D01*
X687637Y-80885D01*
X687931Y-81072D01*
X688202Y-81293D01*
X688448Y-81547D01*
X688668Y-81833D01*
X688858Y-82148D01*
X689019Y-82492D01*
X689151Y-82865D01*
X689253Y-83267D01*
X689327Y-83698D01*
X689371Y-84159D01*
X689385Y-84648D01*
X689372Y-85104D01*
X689332Y-85537D01*
X689266Y-85947D01*
X689174Y-86333D01*
X689055Y-86695D01*
X688910Y-87033D01*
X688738Y-87348D01*
X688540Y-87639D01*
X688316Y-87904D01*
X688067Y-88140D01*
X687792Y-88349D01*
X687492Y-88529D01*
X687167Y-88680D01*
X686816Y-88804D01*
X686441Y-88899D01*
X686039Y-88966D01*
G37*
G36*
X564833Y-206849D02*
X563660Y-206455D01*
X564597Y-204116D01*
X561995Y-204221D01*
X561995Y-203030D01*
X564579Y-203144D01*
X563677Y-200832D01*
X564833Y-200437D01*
X565473Y-202907D01*
X567662Y-201287D01*
X568293Y-202329D01*
X566033Y-203643D01*
X568275Y-205009D01*
X567645Y-206052D01*
X565473Y-204396D01*
X564833Y-206849D01*
G37*
G36*
X599630Y-108675D02*
X598861Y-108659D01*
X598140Y-108610D01*
X597470Y-108529D01*
X596850Y-108416D01*
X596279Y-108270D01*
X595758Y-108092D01*
X595287Y-107881D01*
X594866Y-107637D01*
X594494Y-107359D01*
X594172Y-107043D01*
X593900Y-106690D01*
X593677Y-106298D01*
X593503Y-105870D01*
X593435Y-105641D01*
X593380Y-105403D01*
X593336Y-105156D01*
X593305Y-104899D01*
X593287Y-104633D01*
X593280Y-104357D01*
X593287Y-104089D01*
X593306Y-103830D01*
X593337Y-103580D01*
X593381Y-103338D01*
X593437Y-103106D01*
X593506Y-102882D01*
X593681Y-102462D01*
X593907Y-102078D01*
X594182Y-101729D01*
X594508Y-101416D01*
X594883Y-101139D01*
X595308Y-100895D01*
X595781Y-100685D01*
X596302Y-100506D01*
X596872Y-100360D01*
X597489Y-100247D01*
X598155Y-100166D01*
X598868Y-100117D01*
X599630Y-100101D01*
X600381Y-100118D01*
X601085Y-100169D01*
X601744Y-100254D01*
X602357Y-100373D01*
X602924Y-100527D01*
X603445Y-100714D01*
X603921Y-100936D01*
X604351Y-101191D01*
X604733Y-101480D01*
X605064Y-101801D01*
X605344Y-102155D01*
X605573Y-102541D01*
X605751Y-102960D01*
X605879Y-103411D01*
X605923Y-103648D01*
X605955Y-103894D01*
X605974Y-104148D01*
X605980Y-104410D01*
X605974Y-104672D01*
X605955Y-104925D01*
X605923Y-105171D01*
X605879Y-105408D01*
X605753Y-105857D01*
X605575Y-106273D01*
X605347Y-106656D01*
X605069Y-107006D01*
X604740Y-107323D01*
X604360Y-107607D01*
X603932Y-107857D01*
X603457Y-108074D01*
X602935Y-108258D01*
X602367Y-108408D01*
X601753Y-108525D01*
X601092Y-108609D01*
X600385Y-108659D01*
X599630Y-108675D01*
G37*
%LPC*%
G36*
X599630Y-107081D02*
X600265Y-107071D01*
X600856Y-107041D01*
X601403Y-106991D01*
X601905Y-106920D01*
X602364Y-106830D01*
X602779Y-106719D01*
X603149Y-106588D01*
X603475Y-106438D01*
X603761Y-106265D01*
X604008Y-106068D01*
X604217Y-105848D01*
X604389Y-105604D01*
X604522Y-105337D01*
X604617Y-105046D01*
X604674Y-104731D01*
X604693Y-104392D01*
X604673Y-104056D01*
X604615Y-103743D01*
X604518Y-103453D01*
X604382Y-103186D01*
X604207Y-102942D01*
X603993Y-102722D01*
X603741Y-102525D01*
X603449Y-102352D01*
X603117Y-102200D01*
X602744Y-102068D01*
X602329Y-101957D01*
X601873Y-101866D01*
X601374Y-101795D01*
X600835Y-101744D01*
X600253Y-101714D01*
X599630Y-101704D01*
X598986Y-101713D01*
X598387Y-101742D01*
X597834Y-101790D01*
X597327Y-101858D01*
X596866Y-101945D01*
X596451Y-102051D01*
X596082Y-102176D01*
X595759Y-102321D01*
X595478Y-102488D01*
X595234Y-102680D01*
X595028Y-102897D01*
X594859Y-103139D01*
X594728Y-103406D01*
X594634Y-103698D01*
X594578Y-104015D01*
X594559Y-104357D01*
X594578Y-104708D01*
X594633Y-105033D01*
X594726Y-105333D01*
X594855Y-105607D01*
X595021Y-105855D01*
X595224Y-106078D01*
X595465Y-106275D01*
X595742Y-106446D01*
X596061Y-106595D01*
X596428Y-106724D01*
X596843Y-106833D01*
X597305Y-106923D01*
X597815Y-106992D01*
X598372Y-107042D01*
X598978Y-107071D01*
X599630Y-107081D01*
G37*
%LPD*%
G36*
X599630Y52481D02*
X598861Y52497D01*
X598140Y52546D01*
X597470Y52627D01*
X596850Y52740D01*
X596279Y52886D01*
X595758Y53065D01*
X595287Y53276D01*
X594866Y53519D01*
X594494Y53797D01*
X594172Y54113D01*
X593900Y54467D01*
X593677Y54858D01*
X593503Y55287D01*
X593435Y55515D01*
X593380Y55753D01*
X593336Y56000D01*
X593305Y56257D01*
X593287Y56523D01*
X593280Y56799D01*
X593287Y57067D01*
X593306Y57326D01*
X593337Y57577D01*
X593381Y57818D01*
X593437Y58050D01*
X593506Y58274D01*
X593681Y58694D01*
X593907Y59079D01*
X594182Y59427D01*
X594508Y59740D01*
X594883Y60018D01*
X595308Y60261D01*
X595781Y60472D01*
X596302Y60650D01*
X596872Y60796D01*
X597489Y60910D01*
X598155Y60991D01*
X598868Y61039D01*
X599630Y61056D01*
X600381Y61039D01*
X601085Y60987D01*
X601744Y60902D01*
X602357Y60783D01*
X602924Y60630D01*
X603445Y60442D01*
X603921Y60221D01*
X604351Y59965D01*
X604733Y59676D01*
X605064Y59355D01*
X605344Y59001D01*
X605573Y58615D01*
X605751Y58197D01*
X605879Y57746D01*
X605923Y57508D01*
X605955Y57262D01*
X605974Y57008D01*
X605980Y56746D01*
X605974Y56484D01*
X605955Y56231D01*
X605923Y55985D01*
X605879Y55748D01*
X605753Y55299D01*
X605575Y54883D01*
X605347Y54500D01*
X605069Y54150D01*
X604740Y53833D01*
X604360Y53549D01*
X603932Y53299D01*
X603457Y53082D01*
X602935Y52898D01*
X602367Y52748D01*
X601753Y52631D01*
X601092Y52548D01*
X600385Y52498D01*
X599630Y52481D01*
G37*
%LPC*%
G36*
X599630Y54075D02*
X600265Y54085D01*
X600856Y54115D01*
X601403Y54166D01*
X601905Y54236D01*
X602364Y54326D01*
X602779Y54437D01*
X603149Y54568D01*
X603475Y54719D01*
X603761Y54892D01*
X604008Y55088D01*
X604217Y55308D01*
X604389Y55552D01*
X604522Y55819D01*
X604617Y56111D01*
X604674Y56425D01*
X604693Y56764D01*
X604673Y57100D01*
X604615Y57414D01*
X604518Y57704D01*
X604382Y57970D01*
X604207Y58214D01*
X603993Y58434D01*
X603741Y58631D01*
X603449Y58805D01*
X603117Y58957D01*
X602744Y59088D01*
X602329Y59200D01*
X601873Y59291D01*
X601374Y59362D01*
X600835Y59412D01*
X600253Y59443D01*
X599630Y59453D01*
X598986Y59443D01*
X598387Y59414D01*
X597834Y59366D01*
X597327Y59298D01*
X596866Y59212D01*
X596451Y59105D01*
X596082Y58980D01*
X595759Y58835D01*
X595478Y58668D01*
X595234Y58476D01*
X595028Y58259D01*
X594859Y58017D01*
X594728Y57750D01*
X594634Y57458D01*
X594578Y57141D01*
X594559Y56799D01*
X594578Y56448D01*
X594633Y56123D01*
X594726Y55824D01*
X594855Y55550D01*
X595021Y55301D01*
X595224Y55079D01*
X595465Y54882D01*
X595742Y54710D01*
X596061Y54561D01*
X596428Y54432D01*
X596843Y54323D01*
X597305Y54234D01*
X597815Y54164D01*
X598372Y54115D01*
X598978Y54085D01*
X599630Y54075D01*
G37*
%LPD*%
G36*
X599630Y62450D02*
X598861Y62466D01*
X598140Y62515D01*
X597470Y62596D01*
X596850Y62709D01*
X596279Y62855D01*
X595758Y63033D01*
X595287Y63244D01*
X594866Y63488D01*
X594494Y63766D01*
X594172Y64082D01*
X593900Y64435D01*
X593677Y64827D01*
X593503Y65255D01*
X593435Y65484D01*
X593380Y65722D01*
X593336Y65969D01*
X593305Y66226D01*
X593287Y66492D01*
X593280Y66768D01*
X593287Y67036D01*
X593306Y67295D01*
X593337Y67545D01*
X593381Y67787D01*
X593437Y68019D01*
X593506Y68243D01*
X593681Y68663D01*
X593907Y69047D01*
X594182Y69396D01*
X594508Y69709D01*
X594883Y69986D01*
X595308Y70230D01*
X595781Y70440D01*
X596302Y70619D01*
X596872Y70765D01*
X597489Y70878D01*
X598155Y70959D01*
X598868Y71008D01*
X599630Y71024D01*
X600381Y71007D01*
X601085Y70956D01*
X601744Y70871D01*
X602357Y70752D01*
X602924Y70598D01*
X603445Y70411D01*
X603921Y70189D01*
X604351Y69934D01*
X604733Y69645D01*
X605064Y69324D01*
X605344Y68970D01*
X605573Y68584D01*
X605751Y68165D01*
X605879Y67714D01*
X605923Y67477D01*
X605955Y67231D01*
X605974Y66977D01*
X605980Y66715D01*
X605974Y66453D01*
X605955Y66200D01*
X605923Y65954D01*
X605879Y65717D01*
X605753Y65268D01*
X605575Y64852D01*
X605347Y64469D01*
X605069Y64119D01*
X604740Y63802D01*
X604360Y63518D01*
X603932Y63268D01*
X603457Y63051D01*
X602935Y62867D01*
X602367Y62717D01*
X601753Y62600D01*
X601092Y62516D01*
X600385Y62466D01*
X599630Y62450D01*
G37*
%LPC*%
G36*
X599630Y64044D02*
X600265Y64054D01*
X600856Y64084D01*
X601403Y64134D01*
X601905Y64205D01*
X602364Y64295D01*
X602779Y64406D01*
X603149Y64537D01*
X603475Y64687D01*
X603761Y64860D01*
X604008Y65057D01*
X604217Y65277D01*
X604389Y65521D01*
X604522Y65788D01*
X604617Y66079D01*
X604674Y66394D01*
X604693Y66733D01*
X604673Y67069D01*
X604615Y67382D01*
X604518Y67672D01*
X604382Y67939D01*
X604207Y68183D01*
X603993Y68403D01*
X603741Y68600D01*
X603449Y68773D01*
X603117Y68925D01*
X602744Y69057D01*
X602329Y69168D01*
X601873Y69259D01*
X601374Y69330D01*
X600835Y69381D01*
X600253Y69411D01*
X599630Y69421D01*
X598986Y69412D01*
X598387Y69383D01*
X597834Y69335D01*
X597327Y69267D01*
X596866Y69180D01*
X596451Y69074D01*
X596082Y68949D01*
X595759Y68804D01*
X595478Y68637D01*
X595234Y68445D01*
X595028Y68228D01*
X594859Y67986D01*
X594728Y67719D01*
X594634Y67427D01*
X594578Y67110D01*
X594559Y66768D01*
X594578Y66417D01*
X594633Y66092D01*
X594726Y65792D01*
X594855Y65518D01*
X595021Y65270D01*
X595224Y65047D01*
X595465Y64850D01*
X595742Y64679D01*
X596061Y64530D01*
X596428Y64401D01*
X596843Y64292D01*
X597305Y64202D01*
X597815Y64133D01*
X598372Y64083D01*
X598978Y64054D01*
X599630Y64044D01*
G37*
%LPD*%
G36*
X599630Y72418D02*
X598861Y72435D01*
X598140Y72483D01*
X597470Y72564D01*
X596850Y72678D01*
X596279Y72824D01*
X595758Y73002D01*
X595287Y73213D01*
X594866Y73456D01*
X594494Y73735D01*
X594172Y74051D01*
X593900Y74404D01*
X593677Y74795D01*
X593503Y75224D01*
X593435Y75453D01*
X593380Y75691D01*
X593336Y75938D01*
X593305Y76195D01*
X593287Y76461D01*
X593280Y76736D01*
X593287Y77005D01*
X593306Y77264D01*
X593337Y77514D01*
X593381Y77755D01*
X593437Y77988D01*
X593506Y78211D01*
X593681Y78632D01*
X593907Y79016D01*
X594182Y79365D01*
X594508Y79678D01*
X594883Y79955D01*
X595308Y80198D01*
X595781Y80409D01*
X596302Y80588D01*
X596872Y80734D01*
X597489Y80847D01*
X598155Y80928D01*
X598868Y80977D01*
X599630Y80993D01*
X600381Y80976D01*
X601085Y80925D01*
X601744Y80840D01*
X602357Y80720D01*
X602924Y80567D01*
X603445Y80380D01*
X603921Y80158D01*
X604351Y79903D01*
X604733Y79614D01*
X605064Y79293D01*
X605344Y78939D01*
X605573Y78553D01*
X605751Y78134D01*
X605879Y77683D01*
X605923Y77445D01*
X605955Y77200D01*
X605974Y76946D01*
X605980Y76684D01*
X605974Y76422D01*
X605955Y76168D01*
X605923Y75923D01*
X605879Y75686D01*
X605753Y75237D01*
X605575Y74820D01*
X605347Y74437D01*
X605069Y74087D01*
X604740Y73771D01*
X604360Y73487D01*
X603932Y73237D01*
X603457Y73019D01*
X602935Y72836D01*
X602367Y72686D01*
X601753Y72569D01*
X601092Y72485D01*
X600385Y72435D01*
X599630Y72418D01*
G37*
%LPC*%
G36*
X599630Y74012D02*
X600265Y74023D01*
X600856Y74053D01*
X601403Y74103D01*
X601905Y74173D01*
X602364Y74264D01*
X602779Y74375D01*
X603149Y74505D01*
X603475Y74656D01*
X603761Y74829D01*
X604008Y75025D01*
X604217Y75246D01*
X604389Y75489D01*
X604522Y75757D01*
X604617Y76048D01*
X604674Y76363D01*
X604693Y76701D01*
X604673Y77038D01*
X604615Y77351D01*
X604518Y77641D01*
X604382Y77908D01*
X604207Y78151D01*
X603993Y78372D01*
X603741Y78568D01*
X603449Y78742D01*
X603117Y78894D01*
X602744Y79026D01*
X602329Y79137D01*
X601873Y79228D01*
X601374Y79299D01*
X600835Y79350D01*
X600253Y79380D01*
X599630Y79390D01*
X598986Y79381D01*
X598387Y79352D01*
X597834Y79303D01*
X597327Y79236D01*
X596866Y79149D01*
X596451Y79043D01*
X596082Y78917D01*
X595759Y78773D01*
X595478Y78606D01*
X595234Y78414D01*
X595028Y78197D01*
X594859Y77955D01*
X594728Y77688D01*
X594634Y77396D01*
X594578Y77079D01*
X594559Y76736D01*
X594578Y76386D01*
X594633Y76061D01*
X594726Y75761D01*
X594855Y75487D01*
X595021Y75239D01*
X595224Y75016D01*
X595465Y74819D01*
X595742Y74647D01*
X596061Y74499D01*
X596428Y74370D01*
X596843Y74261D01*
X597305Y74171D01*
X597815Y74102D01*
X598372Y74052D01*
X598978Y74022D01*
X599630Y74012D01*
G37*
%LPD*%
G36*
X605805Y16345D02*
X593464Y16345D01*
X593464Y22152D01*
X593479Y22659D01*
X593523Y23135D01*
X593596Y23582D01*
X593698Y23999D01*
X593829Y24387D01*
X593989Y24745D01*
X594179Y25073D01*
X594397Y25371D01*
X594642Y25637D01*
X594909Y25867D01*
X595200Y26062D01*
X595513Y26222D01*
X595849Y26346D01*
X596208Y26434D01*
X596590Y26488D01*
X596994Y26505D01*
X597331Y26493D01*
X597654Y26455D01*
X597964Y26393D01*
X598260Y26305D01*
X598542Y26192D01*
X598810Y26055D01*
X599065Y25892D01*
X599306Y25704D01*
X599530Y25494D01*
X599732Y25265D01*
X599912Y25017D01*
X599978Y24906D01*
X600071Y24750D01*
X600208Y24464D01*
X600323Y24159D01*
X600417Y23835D01*
X600489Y23492D01*
X602752Y24984D01*
X605805Y26996D01*
X605805Y25069D01*
X600681Y21863D01*
X600681Y18018D01*
X605805Y18018D01*
X605805Y16345D01*
G37*
%LPC*%
G36*
X599359Y18018D02*
X599359Y22056D01*
X599349Y22377D01*
X599320Y22680D01*
X599272Y22964D01*
X599205Y23229D01*
X599118Y23475D01*
X599012Y23702D01*
X598886Y23911D01*
X598741Y24101D01*
X598579Y24270D01*
X598402Y24417D01*
X598209Y24541D01*
X598000Y24643D01*
X597776Y24722D01*
X597537Y24779D01*
X597282Y24812D01*
X597012Y24824D01*
X596750Y24812D01*
X596505Y24778D01*
X596276Y24721D01*
X596062Y24641D01*
X595865Y24538D01*
X595684Y24412D01*
X595519Y24264D01*
X595369Y24092D01*
X595237Y23899D01*
X595122Y23686D01*
X595025Y23453D01*
X594946Y23200D01*
X594884Y22927D01*
X594840Y22633D01*
X594813Y22320D01*
X594804Y21986D01*
X594804Y18018D01*
X599359Y18018D01*
G37*
%LPD*%
G36*
X605805Y142970D02*
X593464Y142970D01*
X593464Y148777D01*
X593479Y149284D01*
X593523Y149760D01*
X593596Y150207D01*
X593698Y150624D01*
X593829Y151012D01*
X593989Y151370D01*
X594179Y151698D01*
X594397Y151996D01*
X594642Y152262D01*
X594909Y152492D01*
X595200Y152687D01*
X595513Y152847D01*
X595849Y152971D01*
X596208Y153059D01*
X596590Y153113D01*
X596994Y153130D01*
X597331Y153118D01*
X597654Y153080D01*
X597964Y153018D01*
X598260Y152930D01*
X598542Y152817D01*
X598810Y152680D01*
X599065Y152517D01*
X599306Y152329D01*
X599530Y152119D01*
X599732Y151890D01*
X599912Y151642D01*
X599978Y151531D01*
X600071Y151375D01*
X600208Y151089D01*
X600323Y150784D01*
X600417Y150460D01*
X600489Y150117D01*
X602752Y151609D01*
X605805Y153621D01*
X605805Y151694D01*
X600681Y148488D01*
X600681Y144643D01*
X605805Y144643D01*
X605805Y142970D01*
G37*
%LPC*%
G36*
X599359Y144643D02*
X599359Y148681D01*
X599349Y149002D01*
X599320Y149305D01*
X599272Y149589D01*
X599205Y149854D01*
X599118Y150100D01*
X599012Y150327D01*
X598886Y150536D01*
X598741Y150726D01*
X598579Y150895D01*
X598402Y151042D01*
X598209Y151166D01*
X598000Y151268D01*
X597776Y151347D01*
X597537Y151404D01*
X597282Y151437D01*
X597012Y151449D01*
X596750Y151437D01*
X596505Y151403D01*
X596276Y151346D01*
X596062Y151266D01*
X595865Y151163D01*
X595684Y151037D01*
X595519Y150889D01*
X595369Y150717D01*
X595237Y150524D01*
X595122Y150311D01*
X595025Y150078D01*
X594946Y149825D01*
X594884Y149552D01*
X594840Y149258D01*
X594813Y148945D01*
X594804Y148611D01*
X594804Y144643D01*
X599359Y144643D01*
G37*
%LPD*%
G36*
X605805Y-152780D02*
X593464Y-152780D01*
X593464Y-147586D01*
X593480Y-147081D01*
X593525Y-146606D01*
X593601Y-146161D01*
X593707Y-145744D01*
X593844Y-145357D01*
X594011Y-144999D01*
X594209Y-144671D01*
X594437Y-144371D01*
X594692Y-144105D01*
X594973Y-143873D01*
X595278Y-143678D01*
X595608Y-143517D01*
X595963Y-143393D01*
X596343Y-143304D01*
X596748Y-143251D01*
X597178Y-143233D01*
X597605Y-143251D01*
X598009Y-143304D01*
X598391Y-143394D01*
X598750Y-143519D01*
X599087Y-143679D01*
X599402Y-143876D01*
X599694Y-144108D01*
X599963Y-144376D01*
X600205Y-144674D01*
X600415Y-144998D01*
X600593Y-145348D01*
X600738Y-145723D01*
X600851Y-146124D01*
X600932Y-146551D01*
X600981Y-147003D01*
X600997Y-147481D01*
X600997Y-151107D01*
X605805Y-151107D01*
X605805Y-152780D01*
G37*
%LPC*%
G36*
X599674Y-151107D02*
X599674Y-147717D01*
X599665Y-147378D01*
X599636Y-147060D01*
X599587Y-146765D01*
X599519Y-146491D01*
X599432Y-146239D01*
X599326Y-146009D01*
X599200Y-145801D01*
X599055Y-145615D01*
X598890Y-145451D01*
X598706Y-145309D01*
X598503Y-145188D01*
X598280Y-145090D01*
X598038Y-145013D01*
X597777Y-144958D01*
X597496Y-144925D01*
X597196Y-144914D01*
X596906Y-144926D01*
X596635Y-144959D01*
X596383Y-145015D01*
X596149Y-145094D01*
X595935Y-145195D01*
X595739Y-145318D01*
X595561Y-145464D01*
X595402Y-145633D01*
X595262Y-145823D01*
X595141Y-146037D01*
X595038Y-146272D01*
X594954Y-146530D01*
X594889Y-146811D01*
X594842Y-147114D01*
X594814Y-147439D01*
X594804Y-147787D01*
X594804Y-151107D01*
X599674Y-151107D01*
G37*
%LPD*%
G36*
X605805Y4377D02*
X593464Y4377D01*
X593464Y9571D01*
X593480Y10075D01*
X593525Y10550D01*
X593601Y10996D01*
X593707Y11412D01*
X593844Y11799D01*
X594011Y12157D01*
X594209Y12486D01*
X594437Y12785D01*
X594692Y13052D01*
X594973Y13283D01*
X595278Y13479D01*
X595608Y13639D01*
X595963Y13763D01*
X596343Y13852D01*
X596748Y13906D01*
X597178Y13923D01*
X597605Y13906D01*
X598009Y13852D01*
X598391Y13763D01*
X598750Y13638D01*
X599087Y13477D01*
X599402Y13281D01*
X599694Y13048D01*
X599963Y12781D01*
X600205Y12482D01*
X600415Y12158D01*
X600593Y11808D01*
X600738Y11433D01*
X600851Y11032D01*
X600932Y10605D01*
X600981Y10153D01*
X600997Y9676D01*
X600997Y6050D01*
X605805Y6050D01*
X605805Y4377D01*
G37*
%LPC*%
G36*
X599674Y6050D02*
X599674Y9439D01*
X599665Y9779D01*
X599636Y10096D01*
X599587Y10392D01*
X599519Y10665D01*
X599432Y10917D01*
X599326Y11147D01*
X599200Y11355D01*
X599055Y11541D01*
X598890Y11705D01*
X598706Y11848D01*
X598503Y11968D01*
X598280Y12067D01*
X598038Y12143D01*
X597777Y12198D01*
X597496Y12231D01*
X597196Y12242D01*
X596906Y12231D01*
X596635Y12197D01*
X596383Y12141D01*
X596149Y12062D01*
X595935Y11961D01*
X595739Y11838D01*
X595561Y11692D01*
X595402Y11524D01*
X595262Y11333D01*
X595141Y11120D01*
X595038Y10884D01*
X594954Y10626D01*
X594889Y10345D01*
X594842Y10042D01*
X594814Y9717D01*
X594804Y9369D01*
X594804Y6050D01*
X599674Y6050D01*
G37*
%LPD*%
G36*
X599919Y-98496D02*
X599141Y-98478D01*
X598410Y-98425D01*
X597725Y-98335D01*
X597086Y-98210D01*
X596494Y-98048D01*
X595949Y-97851D01*
X595450Y-97618D01*
X594997Y-97349D01*
X594595Y-97047D01*
X594246Y-96715D01*
X593951Y-96352D01*
X593710Y-95959D01*
X593522Y-95535D01*
X593448Y-95312D01*
X593388Y-95081D01*
X593341Y-94843D01*
X593307Y-94597D01*
X593287Y-94343D01*
X593280Y-94082D01*
X593290Y-93741D01*
X593320Y-93416D01*
X593369Y-93107D01*
X593438Y-92814D01*
X593526Y-92538D01*
X593634Y-92277D01*
X593762Y-92033D01*
X593909Y-91805D01*
X594076Y-91593D01*
X594262Y-91397D01*
X594469Y-91217D01*
X594694Y-91054D01*
X594940Y-90906D01*
X595205Y-90775D01*
X595490Y-90660D01*
X595794Y-90561D01*
X596066Y-92068D01*
X595713Y-92201D01*
X595407Y-92369D01*
X595148Y-92571D01*
X594936Y-92808D01*
X594771Y-93079D01*
X594653Y-93385D01*
X594583Y-93725D01*
X594559Y-94100D01*
X594579Y-94427D01*
X594638Y-94736D01*
X594736Y-95026D01*
X594873Y-95296D01*
X595050Y-95548D01*
X595266Y-95780D01*
X595522Y-95994D01*
X595816Y-96189D01*
X596148Y-96362D01*
X596515Y-96512D01*
X596917Y-96640D01*
X597354Y-96744D01*
X597827Y-96825D01*
X598334Y-96882D01*
X598877Y-96917D01*
X599455Y-96929D01*
X599081Y-96692D01*
X598753Y-96412D01*
X598474Y-96088D01*
X598242Y-95720D01*
X598060Y-95316D01*
X597930Y-94883D01*
X597885Y-94657D01*
X597852Y-94423D01*
X597833Y-94181D01*
X597826Y-93933D01*
X597843Y-93517D01*
X597893Y-93123D01*
X597976Y-92751D01*
X598093Y-92402D01*
X598244Y-92074D01*
X598427Y-91768D01*
X598644Y-91484D01*
X598895Y-91222D01*
X599173Y-90987D01*
X599475Y-90784D01*
X599800Y-90611D01*
X600147Y-90470D01*
X600518Y-90361D01*
X600911Y-90282D01*
X601328Y-90235D01*
X601768Y-90220D01*
X602243Y-90236D01*
X602693Y-90286D01*
X603117Y-90369D01*
X603515Y-90485D01*
X603887Y-90634D01*
X604234Y-90816D01*
X604555Y-91031D01*
X604851Y-91279D01*
X605115Y-91557D01*
X605345Y-91860D01*
X605539Y-92188D01*
X605698Y-92541D01*
X605821Y-92919D01*
X605910Y-93322D01*
X605963Y-93751D01*
X605980Y-94205D01*
X605974Y-94461D01*
X605956Y-94711D01*
X605883Y-95186D01*
X605762Y-95630D01*
X605593Y-96044D01*
X605375Y-96427D01*
X605108Y-96780D01*
X604793Y-97102D01*
X604430Y-97393D01*
X604021Y-97651D01*
X603567Y-97876D01*
X603069Y-98065D01*
X602527Y-98220D01*
X601941Y-98341D01*
X601312Y-98427D01*
X600638Y-98479D01*
X599919Y-98496D01*
G37*
%LPC*%
G36*
X601461Y-96771D02*
X601810Y-96760D01*
X602143Y-96727D01*
X602459Y-96672D01*
X602759Y-96595D01*
X603044Y-96496D01*
X603312Y-96374D01*
X603564Y-96231D01*
X603800Y-96066D01*
X604013Y-95883D01*
X604198Y-95688D01*
X604355Y-95481D01*
X604483Y-95261D01*
X604582Y-95029D01*
X604653Y-94784D01*
X604696Y-94527D01*
X604710Y-94257D01*
X604698Y-93980D01*
X604663Y-93719D01*
X604603Y-93472D01*
X604519Y-93241D01*
X604411Y-93026D01*
X604279Y-92825D01*
X604124Y-92640D01*
X603944Y-92471D01*
X603743Y-92319D01*
X603525Y-92187D01*
X603289Y-92076D01*
X603034Y-91984D01*
X602762Y-91914D01*
X602472Y-91863D01*
X602164Y-91833D01*
X601838Y-91822D01*
X601512Y-91833D01*
X601206Y-91863D01*
X600919Y-91915D01*
X600651Y-91987D01*
X600402Y-92079D01*
X600172Y-92192D01*
X599962Y-92325D01*
X599771Y-92479D01*
X599600Y-92652D01*
X599453Y-92840D01*
X599328Y-93045D01*
X599225Y-93265D01*
X599146Y-93502D01*
X599089Y-93755D01*
X599055Y-94024D01*
X599044Y-94310D01*
X599054Y-94579D01*
X599084Y-94835D01*
X599134Y-95078D01*
X599205Y-95307D01*
X599295Y-95523D01*
X599406Y-95726D01*
X599536Y-95916D01*
X599687Y-96092D01*
X599856Y-96251D01*
X600040Y-96389D01*
X600239Y-96506D01*
X600453Y-96601D01*
X600682Y-96676D01*
X600926Y-96729D01*
X601186Y-96760D01*
X601461Y-96771D01*
G37*
%LPD*%
G36*
X605805Y-19653D02*
X593464Y-14617D01*
X593464Y-12717D01*
X605805Y-7759D01*
X605805Y-9467D01*
X602197Y-10877D01*
X602197Y-16500D01*
X605805Y-17919D01*
X605805Y-19653D01*
G37*
%LPC*%
G36*
X600892Y-15992D02*
X600892Y-11377D01*
X596819Y-12962D01*
X596175Y-13207D01*
X595453Y-13452D01*
X594726Y-13689D01*
X594971Y-13768D01*
X595801Y-14039D01*
X596836Y-14416D01*
X600892Y-15992D01*
G37*
%LPD*%
G36*
X605805Y119597D02*
X593464Y124633D01*
X593464Y126533D01*
X605805Y131491D01*
X605805Y129783D01*
X602197Y128373D01*
X602197Y122750D01*
X605805Y121331D01*
X605805Y119597D01*
G37*
%LPC*%
G36*
X600892Y123258D02*
X600892Y127873D01*
X596819Y126288D01*
X596175Y126043D01*
X595453Y125798D01*
X594726Y125561D01*
X594971Y125482D01*
X595801Y125211D01*
X596836Y124834D01*
X600892Y123258D01*
G37*
%LPD*%
G36*
X605805Y-165748D02*
X593464Y-165748D01*
X593464Y-163804D01*
X604045Y-157130D01*
X602565Y-157209D01*
X601557Y-157235D01*
X593464Y-157235D01*
X593464Y-155729D01*
X605805Y-155729D01*
X605805Y-157743D01*
X595295Y-164347D01*
X596145Y-164303D01*
X597607Y-164259D01*
X605805Y-164259D01*
X605805Y-165748D01*
G37*
G36*
X605805Y-120873D02*
X593464Y-120873D01*
X593464Y-118929D01*
X604045Y-112255D01*
X602565Y-112334D01*
X601557Y-112360D01*
X593464Y-112360D01*
X593464Y-110854D01*
X605805Y-110854D01*
X605805Y-112868D01*
X595295Y-119472D01*
X596145Y-119428D01*
X597607Y-119384D01*
X605805Y-119384D01*
X605805Y-120873D01*
G37*
G36*
X605805Y167908D02*
X593464Y167908D01*
X593464Y169852D01*
X604045Y176526D01*
X602565Y176448D01*
X601557Y176421D01*
X593464Y176421D01*
X593464Y177928D01*
X605805Y177928D01*
X605805Y175913D01*
X595295Y169309D01*
X596145Y169353D01*
X597607Y169397D01*
X605805Y169397D01*
X605805Y167908D01*
G37*
G36*
X599578Y-66599D02*
X599208Y-66593D01*
X598848Y-66574D01*
X598499Y-66542D01*
X598161Y-66498D01*
X597833Y-66442D01*
X597516Y-66372D01*
X597209Y-66290D01*
X596913Y-66196D01*
X596628Y-66089D01*
X596353Y-65969D01*
X596089Y-65837D01*
X595835Y-65692D01*
X595592Y-65535D01*
X595360Y-65365D01*
X594927Y-64987D01*
X594541Y-64564D01*
X594368Y-64337D01*
X594207Y-64100D01*
X594059Y-63853D01*
X593924Y-63595D01*
X593801Y-63327D01*
X593692Y-63050D01*
X593596Y-62761D01*
X593512Y-62463D01*
X593441Y-62155D01*
X593383Y-61836D01*
X593338Y-61507D01*
X593306Y-61168D01*
X593287Y-60819D01*
X593280Y-60459D01*
X593291Y-59959D01*
X593324Y-59483D01*
X593378Y-59030D01*
X593453Y-58602D01*
X593551Y-58198D01*
X593670Y-57818D01*
X593810Y-57463D01*
X593972Y-57131D01*
X594158Y-56820D01*
X594370Y-56528D01*
X594608Y-56254D01*
X594872Y-55999D01*
X595162Y-55762D01*
X595478Y-55543D01*
X595820Y-55342D01*
X596188Y-55160D01*
X596661Y-56754D01*
X596407Y-56892D01*
X596171Y-57042D01*
X595953Y-57204D01*
X595753Y-57379D01*
X595570Y-57567D01*
X595405Y-57767D01*
X595258Y-57979D01*
X595129Y-58204D01*
X595016Y-58442D01*
X594918Y-58694D01*
X594835Y-58960D01*
X594767Y-59241D01*
X594715Y-59535D01*
X594677Y-59844D01*
X594654Y-60166D01*
X594647Y-60503D01*
X594667Y-61021D01*
X594728Y-61509D01*
X594829Y-61964D01*
X594970Y-62388D01*
X595151Y-62781D01*
X595374Y-63142D01*
X595636Y-63472D01*
X595939Y-63770D01*
X596278Y-64035D01*
X596651Y-64264D01*
X597056Y-64458D01*
X597494Y-64617D01*
X597966Y-64741D01*
X598470Y-64829D01*
X599008Y-64882D01*
X599578Y-64900D01*
X600147Y-64881D01*
X600686Y-64825D01*
X601193Y-64731D01*
X601670Y-64600D01*
X602116Y-64431D01*
X602531Y-64225D01*
X602916Y-63981D01*
X603270Y-63700D01*
X603587Y-63385D01*
X603862Y-63042D01*
X604094Y-62671D01*
X604285Y-62270D01*
X604433Y-61841D01*
X604538Y-61383D01*
X604602Y-60896D01*
X604623Y-60380D01*
X604600Y-59786D01*
X604531Y-59212D01*
X604416Y-58658D01*
X604255Y-58125D01*
X604055Y-57627D01*
X603821Y-57178D01*
X603555Y-56779D01*
X603256Y-56430D01*
X601032Y-56430D01*
X601032Y-60118D01*
X599630Y-60118D01*
X599630Y-54889D01*
X603887Y-54889D01*
X604130Y-55141D01*
X604358Y-55407D01*
X604573Y-55687D01*
X604773Y-55980D01*
X604959Y-56288D01*
X605131Y-56609D01*
X605289Y-56944D01*
X605433Y-57293D01*
X605561Y-57653D01*
X605672Y-58020D01*
X605767Y-58394D01*
X605844Y-58776D01*
X605903Y-59166D01*
X605946Y-59563D01*
X605972Y-59968D01*
X605980Y-60380D01*
X605968Y-60856D01*
X605932Y-61315D01*
X605872Y-61757D01*
X605788Y-62182D01*
X605679Y-62591D01*
X605547Y-62983D01*
X605390Y-63359D01*
X605210Y-63717D01*
X605006Y-64057D01*
X604782Y-64377D01*
X604536Y-64675D01*
X604269Y-64953D01*
X603981Y-65211D01*
X603672Y-65447D01*
X603341Y-65663D01*
X602989Y-65859D01*
X602619Y-66032D01*
X602233Y-66183D01*
X601830Y-66310D01*
X601412Y-66414D01*
X600977Y-66495D01*
X600527Y-66553D01*
X600060Y-66587D01*
X599578Y-66599D01*
G37*
G36*
X603011Y82098D02*
X601785Y82098D01*
X593464Y87747D01*
X593464Y89403D01*
X601768Y89403D01*
X601768Y91137D01*
X603011Y91137D01*
X603011Y89403D01*
X605805Y89403D01*
X605805Y87914D01*
X603011Y87914D01*
X603011Y82098D01*
G37*
%LPC*%
G36*
X601768Y83552D02*
X601768Y87914D01*
X595242Y87914D01*
X595707Y87669D01*
X596285Y87327D01*
X600944Y84165D01*
X601592Y83692D01*
X601768Y83552D01*
G37*
%LPD*%
G36*
X605805Y-46123D02*
X593464Y-46123D01*
X593464Y-36760D01*
X594831Y-36760D01*
X594831Y-44450D01*
X598790Y-44450D01*
X598790Y-37286D01*
X600138Y-37286D01*
X600138Y-44450D01*
X604439Y-44450D01*
X604439Y-36401D01*
X605805Y-36401D01*
X605805Y-46123D01*
G37*
G36*
X605805Y155939D02*
X593464Y155939D01*
X593464Y165302D01*
X594831Y165302D01*
X594831Y157612D01*
X598790Y157612D01*
X598790Y164777D01*
X600138Y164777D01*
X600138Y157612D01*
X604439Y157612D01*
X604439Y165661D01*
X605805Y165661D01*
X605805Y155939D01*
G37*
G36*
X602845Y-88624D02*
X602521Y-87004D01*
X602790Y-86924D01*
X603040Y-86824D01*
X603272Y-86705D01*
X603485Y-86566D01*
X603680Y-86407D01*
X603857Y-86229D01*
X604015Y-86030D01*
X604154Y-85812D01*
X604276Y-85575D01*
X604382Y-85316D01*
X604472Y-85037D01*
X604545Y-84737D01*
X604602Y-84417D01*
X604643Y-84077D01*
X604667Y-83716D01*
X604675Y-83334D01*
X604667Y-82940D01*
X604641Y-82570D01*
X604597Y-82223D01*
X604536Y-81899D01*
X604458Y-81598D01*
X604363Y-81320D01*
X604250Y-81065D01*
X604119Y-80833D01*
X603972Y-80627D01*
X603809Y-80448D01*
X603629Y-80297D01*
X603433Y-80173D01*
X603220Y-80077D01*
X602992Y-80008D01*
X602747Y-79967D01*
X602486Y-79953D01*
X602198Y-79970D01*
X601938Y-80022D01*
X601707Y-80108D01*
X601505Y-80229D01*
X601325Y-80381D01*
X601161Y-80561D01*
X601014Y-80768D01*
X600883Y-81004D01*
X600765Y-81266D01*
X600657Y-81551D01*
X600559Y-81861D01*
X600471Y-82195D01*
X600112Y-83728D01*
X599950Y-84415D01*
X599788Y-85014D01*
X599626Y-85525D01*
X599464Y-85948D01*
X599297Y-86307D01*
X599121Y-86626D01*
X598936Y-86905D01*
X598741Y-87144D01*
X598534Y-87350D01*
X598309Y-87530D01*
X598067Y-87685D01*
X597809Y-87814D01*
X597532Y-87915D01*
X597235Y-87988D01*
X596919Y-88031D01*
X596582Y-88046D01*
X596198Y-88027D01*
X595835Y-87970D01*
X595496Y-87875D01*
X595179Y-87743D01*
X594885Y-87572D01*
X594613Y-87364D01*
X594365Y-87117D01*
X594139Y-86833D01*
X593938Y-86513D01*
X593763Y-86161D01*
X593616Y-85776D01*
X593495Y-85358D01*
X593401Y-84908D01*
X593334Y-84425D01*
X593294Y-83909D01*
X593280Y-83360D01*
X593291Y-82850D01*
X593321Y-82371D01*
X593371Y-81923D01*
X593441Y-81505D01*
X593532Y-81119D01*
X593643Y-80764D01*
X593773Y-80439D01*
X593924Y-80146D01*
X594099Y-79878D01*
X594303Y-79631D01*
X594535Y-79405D01*
X594795Y-79200D01*
X595083Y-79015D01*
X595400Y-78852D01*
X595745Y-78709D01*
X596118Y-78587D01*
X596407Y-80233D01*
X596170Y-80309D01*
X595950Y-80400D01*
X595747Y-80506D01*
X595561Y-80627D01*
X595392Y-80764D01*
X595239Y-80916D01*
X595103Y-81084D01*
X594984Y-81267D01*
X594880Y-81466D01*
X594791Y-81684D01*
X594715Y-81921D01*
X594652Y-82176D01*
X594604Y-82449D01*
X594569Y-82740D01*
X594549Y-83050D01*
X594542Y-83378D01*
X594549Y-83737D01*
X594572Y-84074D01*
X594611Y-84389D01*
X594664Y-84683D01*
X594733Y-84954D01*
X594818Y-85204D01*
X594917Y-85431D01*
X595032Y-85637D01*
X595162Y-85820D01*
X595308Y-85978D01*
X595468Y-86112D01*
X595643Y-86222D01*
X595833Y-86307D01*
X596039Y-86368D01*
X596259Y-86405D01*
X596495Y-86417D01*
X596767Y-86398D01*
X597015Y-86341D01*
X597238Y-86247D01*
X597436Y-86115D01*
X597615Y-85947D01*
X597780Y-85746D01*
X597931Y-85511D01*
X598067Y-85243D01*
X598204Y-84888D01*
X598355Y-84391D01*
X598521Y-83754D01*
X598702Y-82975D01*
X598969Y-81840D01*
X599118Y-81288D01*
X599293Y-80759D01*
X599498Y-80258D01*
X599736Y-79791D01*
X599870Y-79573D01*
X600018Y-79369D01*
X600181Y-79181D01*
X600357Y-79007D01*
X600550Y-78850D01*
X600758Y-78710D01*
X600983Y-78589D01*
X601224Y-78486D01*
X601485Y-78404D01*
X601768Y-78345D01*
X602072Y-78309D01*
X602398Y-78298D01*
X602813Y-78319D01*
X603204Y-78381D01*
X603571Y-78485D01*
X603913Y-78632D01*
X604232Y-78819D01*
X604526Y-79049D01*
X604797Y-79320D01*
X605043Y-79633D01*
X605263Y-79984D01*
X605453Y-80369D01*
X605614Y-80788D01*
X605746Y-81242D01*
X605849Y-81729D01*
X605922Y-82250D01*
X605966Y-82806D01*
X605980Y-83395D01*
X605968Y-83944D01*
X605931Y-84464D01*
X605870Y-84953D01*
X605784Y-85413D01*
X605674Y-85844D01*
X605539Y-86245D01*
X605380Y-86616D01*
X605196Y-86958D01*
X604988Y-87270D01*
X604756Y-87552D01*
X604498Y-87805D01*
X604217Y-88028D01*
X603910Y-88221D01*
X603580Y-88385D01*
X603225Y-88519D01*
X602845Y-88624D01*
G37*
G36*
X602845Y28657D02*
X602521Y30278D01*
X602790Y30358D01*
X603040Y30457D01*
X603272Y30577D01*
X603485Y30716D01*
X603680Y30874D01*
X603857Y31053D01*
X604015Y31251D01*
X604154Y31469D01*
X604276Y31707D01*
X604382Y31965D01*
X604472Y32244D01*
X604545Y32544D01*
X604602Y32864D01*
X604643Y33205D01*
X604667Y33566D01*
X604675Y33947D01*
X604667Y34341D01*
X604641Y34711D01*
X604597Y35059D01*
X604536Y35383D01*
X604458Y35684D01*
X604363Y35962D01*
X604250Y36216D01*
X604119Y36448D01*
X603972Y36654D01*
X603809Y36833D01*
X603629Y36984D01*
X603433Y37108D01*
X603220Y37204D01*
X602992Y37273D01*
X602747Y37315D01*
X602486Y37328D01*
X602198Y37311D01*
X601938Y37259D01*
X601707Y37173D01*
X601505Y37052D01*
X601325Y36900D01*
X601161Y36721D01*
X601014Y36513D01*
X600883Y36277D01*
X600765Y36016D01*
X600657Y35730D01*
X600559Y35420D01*
X600471Y35086D01*
X600112Y33553D01*
X599950Y32866D01*
X599788Y32267D01*
X599626Y31756D01*
X599464Y31333D01*
X599297Y30974D01*
X599121Y30655D01*
X598936Y30376D01*
X598741Y30137D01*
X598534Y29931D01*
X598309Y29751D01*
X598067Y29596D01*
X597809Y29467D01*
X597532Y29366D01*
X597235Y29293D01*
X596919Y29250D01*
X596582Y29235D01*
X596198Y29254D01*
X595835Y29311D01*
X595496Y29406D01*
X595179Y29539D01*
X594885Y29709D01*
X594613Y29918D01*
X594365Y30164D01*
X594139Y30448D01*
X593938Y30768D01*
X593763Y31120D01*
X593616Y31505D01*
X593495Y31923D01*
X593401Y32374D01*
X593334Y32857D01*
X593294Y33373D01*
X593280Y33921D01*
X593291Y34431D01*
X593321Y34910D01*
X593371Y35359D01*
X593441Y35776D01*
X593532Y36162D01*
X593643Y36518D01*
X593773Y36842D01*
X593924Y37136D01*
X594099Y37403D01*
X594303Y37650D01*
X594535Y37876D01*
X594795Y38081D01*
X595083Y38266D01*
X595400Y38430D01*
X595745Y38573D01*
X596118Y38695D01*
X596407Y37048D01*
X596170Y36972D01*
X595950Y36882D01*
X595747Y36775D01*
X595561Y36654D01*
X595392Y36517D01*
X595239Y36365D01*
X595103Y36197D01*
X594984Y36014D01*
X594880Y35815D01*
X594791Y35597D01*
X594715Y35360D01*
X594652Y35106D01*
X594604Y34833D01*
X594569Y34541D01*
X594549Y34232D01*
X594542Y33904D01*
X594549Y33545D01*
X594572Y33207D01*
X594611Y32892D01*
X594664Y32599D01*
X594733Y32327D01*
X594818Y32078D01*
X594917Y31850D01*
X595032Y31644D01*
X595162Y31461D01*
X595308Y31303D01*
X595468Y31169D01*
X595643Y31059D01*
X595833Y30974D01*
X596039Y30913D01*
X596259Y30877D01*
X596495Y30864D01*
X596767Y30883D01*
X597015Y30940D01*
X597238Y31034D01*
X597436Y31167D01*
X597615Y31334D01*
X597780Y31536D01*
X597931Y31770D01*
X598067Y32038D01*
X598204Y32393D01*
X598355Y32890D01*
X598521Y33528D01*
X598702Y34307D01*
X598969Y35441D01*
X599118Y35994D01*
X599293Y36522D01*
X599498Y37023D01*
X599736Y37490D01*
X599870Y37708D01*
X600018Y37912D01*
X600181Y38100D01*
X600357Y38274D01*
X600550Y38432D01*
X600758Y38571D01*
X600983Y38692D01*
X601224Y38795D01*
X601485Y38878D01*
X601768Y38937D01*
X602072Y38972D01*
X602398Y38984D01*
X602813Y38963D01*
X603204Y38900D01*
X603571Y38796D01*
X603913Y38650D01*
X604232Y38462D01*
X604526Y38232D01*
X604797Y37961D01*
X605043Y37648D01*
X605263Y37297D01*
X605453Y36912D01*
X605614Y36493D01*
X605746Y36040D01*
X605849Y35552D01*
X605922Y35031D01*
X605966Y34476D01*
X605980Y33886D01*
X605968Y33337D01*
X605931Y32818D01*
X605870Y32328D01*
X605784Y31868D01*
X605674Y31437D01*
X605539Y31036D01*
X605380Y30665D01*
X605196Y30324D01*
X604988Y30012D01*
X604756Y29729D01*
X604498Y29477D01*
X604217Y29253D01*
X603910Y29060D01*
X603580Y28896D01*
X603225Y28762D01*
X602845Y28657D01*
G37*
G36*
X602845Y40626D02*
X602521Y42246D01*
X602790Y42326D01*
X603040Y42426D01*
X603272Y42545D01*
X603485Y42684D01*
X603680Y42843D01*
X603857Y43022D01*
X604015Y43220D01*
X604154Y43438D01*
X604276Y43676D01*
X604382Y43934D01*
X604472Y44213D01*
X604545Y44513D01*
X604602Y44833D01*
X604643Y45173D01*
X604667Y45535D01*
X604675Y45916D01*
X604667Y46310D01*
X604641Y46680D01*
X604597Y47027D01*
X604536Y47352D01*
X604458Y47653D01*
X604363Y47930D01*
X604250Y48185D01*
X604119Y48417D01*
X603972Y48623D01*
X603809Y48802D01*
X603629Y48953D01*
X603433Y49077D01*
X603220Y49173D01*
X602992Y49242D01*
X602747Y49283D01*
X602486Y49297D01*
X602198Y49280D01*
X601938Y49228D01*
X601707Y49142D01*
X601505Y49021D01*
X601325Y48869D01*
X601161Y48689D01*
X601014Y48482D01*
X600883Y48246D01*
X600765Y47984D01*
X600657Y47699D01*
X600559Y47389D01*
X600471Y47055D01*
X600112Y45522D01*
X599950Y44835D01*
X599788Y44236D01*
X599626Y43725D01*
X599464Y43302D01*
X599297Y42943D01*
X599121Y42624D01*
X598936Y42345D01*
X598741Y42106D01*
X598534Y41900D01*
X598309Y41720D01*
X598067Y41565D01*
X597809Y41436D01*
X597532Y41335D01*
X597235Y41262D01*
X596919Y41219D01*
X596582Y41204D01*
X596198Y41223D01*
X595835Y41280D01*
X595496Y41375D01*
X595179Y41507D01*
X594885Y41678D01*
X594613Y41886D01*
X594365Y42133D01*
X594139Y42417D01*
X593938Y42737D01*
X593763Y43089D01*
X593616Y43474D01*
X593495Y43892D01*
X593401Y44342D01*
X593334Y44825D01*
X593294Y45341D01*
X593280Y45890D01*
X593291Y46400D01*
X593321Y46879D01*
X593371Y47327D01*
X593441Y47745D01*
X593532Y48131D01*
X593643Y48486D01*
X593773Y48811D01*
X593924Y49104D01*
X594099Y49372D01*
X594303Y49619D01*
X594535Y49845D01*
X594795Y50050D01*
X595083Y50235D01*
X595400Y50398D01*
X595745Y50541D01*
X596118Y50663D01*
X596407Y49017D01*
X596170Y48941D01*
X595950Y48850D01*
X595747Y48744D01*
X595561Y48623D01*
X595392Y48486D01*
X595239Y48334D01*
X595103Y48166D01*
X594984Y47983D01*
X594880Y47784D01*
X594791Y47566D01*
X594715Y47329D01*
X594652Y47075D01*
X594604Y46802D01*
X594569Y46510D01*
X594549Y46200D01*
X594542Y45872D01*
X594549Y45513D01*
X594572Y45176D01*
X594611Y44861D01*
X594664Y44567D01*
X594733Y44296D01*
X594818Y44046D01*
X594917Y43819D01*
X595032Y43613D01*
X595162Y43430D01*
X595308Y43272D01*
X595468Y43138D01*
X595643Y43028D01*
X595833Y42943D01*
X596039Y42882D01*
X596259Y42845D01*
X596495Y42833D01*
X596767Y42852D01*
X597015Y42909D01*
X597238Y43003D01*
X597436Y43135D01*
X597615Y43303D01*
X597780Y43504D01*
X597931Y43739D01*
X598067Y44007D01*
X598204Y44362D01*
X598355Y44859D01*
X598521Y45496D01*
X598702Y46275D01*
X598969Y47410D01*
X599118Y47962D01*
X599293Y48491D01*
X599498Y48992D01*
X599736Y49459D01*
X599870Y49677D01*
X600018Y49881D01*
X600181Y50069D01*
X600357Y50243D01*
X600550Y50400D01*
X600758Y50540D01*
X600983Y50661D01*
X601224Y50764D01*
X601485Y50846D01*
X601768Y50905D01*
X602072Y50941D01*
X602398Y50952D01*
X602813Y50931D01*
X603204Y50869D01*
X603571Y50765D01*
X603913Y50618D01*
X604232Y50431D01*
X604526Y50201D01*
X604797Y49930D01*
X605043Y49617D01*
X605263Y49266D01*
X605453Y48881D01*
X605614Y48462D01*
X605746Y48008D01*
X605849Y47521D01*
X605922Y47000D01*
X605966Y46444D01*
X605980Y45855D01*
X605968Y45306D01*
X605931Y44786D01*
X605870Y44297D01*
X605784Y43837D01*
X605674Y43406D01*
X605539Y43005D01*
X605380Y42634D01*
X605196Y42292D01*
X604988Y41980D01*
X604756Y41698D01*
X604498Y41445D01*
X604217Y41222D01*
X603910Y41029D01*
X603580Y40865D01*
X603225Y40731D01*
X602845Y40626D01*
G37*
G36*
X603046Y-141564D02*
X602862Y-139970D01*
X603084Y-139901D01*
X603291Y-139821D01*
X603484Y-139728D01*
X603663Y-139622D01*
X603828Y-139505D01*
X603978Y-139375D01*
X604114Y-139233D01*
X604235Y-139079D01*
X604343Y-138912D01*
X604435Y-138734D01*
X604514Y-138543D01*
X604578Y-138339D01*
X604629Y-138124D01*
X604664Y-137896D01*
X604686Y-137656D01*
X604693Y-137404D01*
X604681Y-137095D01*
X604645Y-136803D01*
X604585Y-136529D01*
X604501Y-136272D01*
X604394Y-136032D01*
X604262Y-135809D01*
X604106Y-135604D01*
X603927Y-135416D01*
X603726Y-135247D01*
X603507Y-135101D01*
X603271Y-134978D01*
X603017Y-134877D01*
X602744Y-134798D01*
X602454Y-134742D01*
X602146Y-134709D01*
X601820Y-134697D01*
X601536Y-134709D01*
X601266Y-134743D01*
X601009Y-134799D01*
X600767Y-134878D01*
X600538Y-134980D01*
X600324Y-135104D01*
X600124Y-135251D01*
X599937Y-135420D01*
X599769Y-135608D01*
X599623Y-135813D01*
X599499Y-136033D01*
X599398Y-136268D01*
X599320Y-136520D01*
X599264Y-136787D01*
X599230Y-137070D01*
X599219Y-137369D01*
X599231Y-137683D01*
X599269Y-137986D01*
X599332Y-138279D01*
X599420Y-138560D01*
X599538Y-138836D01*
X599692Y-139112D01*
X599880Y-139388D01*
X600103Y-139663D01*
X600103Y-141205D01*
X593464Y-140793D01*
X593464Y-133778D01*
X594804Y-133778D01*
X594804Y-139357D01*
X598720Y-139593D01*
X598535Y-139329D01*
X598375Y-139050D01*
X598239Y-138755D01*
X598128Y-138444D01*
X598042Y-138117D01*
X597981Y-137775D01*
X597944Y-137418D01*
X597931Y-137045D01*
X597948Y-136601D01*
X597998Y-136180D01*
X598082Y-135782D01*
X598198Y-135408D01*
X598349Y-135057D01*
X598532Y-134728D01*
X598749Y-134423D01*
X599000Y-134141D01*
X599277Y-133888D01*
X599575Y-133668D01*
X599892Y-133482D01*
X600230Y-133330D01*
X600589Y-133212D01*
X600967Y-133127D01*
X601366Y-133076D01*
X601785Y-133060D01*
X602260Y-133078D01*
X602710Y-133132D01*
X603133Y-133223D01*
X603530Y-133350D01*
X603901Y-133513D01*
X604247Y-133712D01*
X604566Y-133948D01*
X604859Y-134220D01*
X605122Y-134524D01*
X605350Y-134856D01*
X605542Y-135217D01*
X605700Y-135605D01*
X605823Y-136021D01*
X605910Y-136466D01*
X605963Y-136938D01*
X605980Y-137439D01*
X605969Y-137860D01*
X605933Y-138260D01*
X605874Y-138639D01*
X605792Y-138998D01*
X605686Y-139336D01*
X605557Y-139653D01*
X605404Y-139949D01*
X605227Y-140224D01*
X605028Y-140477D01*
X604808Y-140705D01*
X604567Y-140909D01*
X604305Y-141089D01*
X604022Y-141244D01*
X603718Y-141375D01*
X603393Y-141482D01*
X603046Y-141564D01*
G37*
G36*
X605805Y92225D02*
X604553Y92225D01*
X594831Y99739D01*
X594831Y92864D01*
X593464Y92864D01*
X593464Y101640D01*
X594682Y101640D01*
X604439Y94125D01*
X604439Y102052D01*
X605805Y102052D01*
X605805Y92225D01*
G37*
G36*
X593464Y102703D02*
X593464Y104463D01*
X602153Y107879D01*
X604334Y108615D01*
X602153Y109351D01*
X593464Y112749D01*
X593464Y114509D01*
X605805Y109473D01*
X605805Y107739D01*
X593464Y102703D01*
G37*
G36*
X605805Y-131411D02*
X604693Y-131411D01*
X604196Y-131176D01*
X603728Y-130915D01*
X603291Y-130631D01*
X602884Y-130321D01*
X602502Y-129995D01*
X602138Y-129661D01*
X601792Y-129318D01*
X601465Y-128968D01*
X600853Y-128262D01*
X600287Y-127562D01*
X599744Y-126900D01*
X599201Y-126305D01*
X598926Y-126038D01*
X598645Y-125798D01*
X598357Y-125585D01*
X598063Y-125399D01*
X597755Y-125247D01*
X597428Y-125139D01*
X597081Y-125074D01*
X596714Y-125053D01*
X596467Y-125062D01*
X596234Y-125090D01*
X596016Y-125136D01*
X595812Y-125202D01*
X595622Y-125285D01*
X595446Y-125388D01*
X595285Y-125509D01*
X595137Y-125648D01*
X595006Y-125804D01*
X594892Y-125975D01*
X594796Y-126160D01*
X594717Y-126360D01*
X594656Y-126574D01*
X594612Y-126803D01*
X594586Y-127046D01*
X594577Y-127304D01*
X594585Y-127550D01*
X594611Y-127785D01*
X594654Y-128009D01*
X594714Y-128222D01*
X594791Y-128424D01*
X594885Y-128615D01*
X594996Y-128795D01*
X595124Y-128963D01*
X595268Y-129118D01*
X595426Y-129256D01*
X595597Y-129377D01*
X595782Y-129481D01*
X595981Y-129569D01*
X596194Y-129639D01*
X596421Y-129693D01*
X596661Y-129730D01*
X596512Y-131341D01*
X596152Y-131283D01*
X595810Y-131197D01*
X595487Y-131082D01*
X595183Y-130940D01*
X594898Y-130768D01*
X594632Y-130569D01*
X594385Y-130341D01*
X594156Y-130084D01*
X593951Y-129804D01*
X593773Y-129505D01*
X593623Y-129186D01*
X593499Y-128848D01*
X593404Y-128491D01*
X593335Y-128115D01*
X593294Y-127719D01*
X593280Y-127304D01*
X593294Y-126851D01*
X593336Y-126425D01*
X593404Y-126026D01*
X593501Y-125654D01*
X593624Y-125309D01*
X593776Y-124991D01*
X593954Y-124699D01*
X594161Y-124435D01*
X594392Y-124200D01*
X594647Y-123996D01*
X594925Y-123824D01*
X595226Y-123683D01*
X595550Y-123573D01*
X595897Y-123495D01*
X596268Y-123448D01*
X596661Y-123432D01*
X597020Y-123453D01*
X597377Y-123514D01*
X597734Y-123617D01*
X598089Y-123761D01*
X598444Y-123945D01*
X598798Y-124169D01*
X599153Y-124433D01*
X599508Y-124737D01*
X599911Y-125135D01*
X600412Y-125681D01*
X601010Y-126375D01*
X601706Y-127216D01*
X602108Y-127694D01*
X602489Y-128120D01*
X602850Y-128495D01*
X603191Y-128819D01*
X603518Y-129096D01*
X603840Y-129331D01*
X604156Y-129525D01*
X604465Y-129677D01*
X604465Y-123240D01*
X605805Y-123240D01*
X605805Y-131411D01*
G37*
G36*
X593464Y-8669D02*
X593464Y-6830D01*
X599341Y-3073D01*
X593464Y667D01*
X593464Y2507D01*
X600690Y-2258D01*
X605805Y-2258D01*
X605805Y-3922D01*
X600690Y-3922D01*
X593464Y-8669D01*
G37*
G36*
X605805Y-34260D02*
X604465Y-34260D01*
X604465Y-31115D01*
X594971Y-31115D01*
X596959Y-33901D01*
X595470Y-33901D01*
X593464Y-30984D01*
X593464Y-29530D01*
X604465Y-29530D01*
X604465Y-26526D01*
X605805Y-26526D01*
X605805Y-34260D01*
G37*
G36*
X605805Y-75998D02*
X593464Y-75998D01*
X593464Y-74325D01*
X604439Y-74325D01*
X604439Y-68089D01*
X605805Y-68089D01*
X605805Y-75998D01*
G37*
G36*
X605805Y186845D02*
X593464Y186845D01*
X593464Y188518D01*
X604439Y188518D01*
X604439Y194754D01*
X605805Y194754D01*
X605805Y186845D01*
G37*
G36*
X609370Y131259D02*
X608231Y131259D01*
X608231Y141708D01*
X609370Y141708D01*
X609370Y131259D01*
G37*
G36*
X601741Y-52767D02*
X600340Y-52767D01*
X600340Y-48387D01*
X601741Y-48387D01*
X601741Y-52767D01*
G37*
G36*
X601741Y-24860D02*
X600340Y-24860D01*
X600340Y-20481D01*
X601741Y-20481D01*
X601741Y-24860D01*
G37*
G36*
X601741Y114390D02*
X600340Y114390D01*
X600340Y118769D01*
X601741Y118769D01*
X601741Y114390D01*
G37*
G36*
X601741Y180202D02*
X600340Y180202D01*
X600340Y184582D01*
X601741Y184582D01*
X601741Y180202D01*
G37*
G36*
X781676Y-277059D02*
X780003Y-277059D01*
X780003Y-264718D01*
X785810Y-264718D01*
X786316Y-264733D01*
X786792Y-264777D01*
X787239Y-264849D01*
X787657Y-264951D01*
X788044Y-265083D01*
X788402Y-265243D01*
X788730Y-265432D01*
X789028Y-265651D01*
X789294Y-265896D01*
X789525Y-266163D01*
X789720Y-266453D01*
X789879Y-266767D01*
X790003Y-267103D01*
X790092Y-267462D01*
X790145Y-267843D01*
X790163Y-268248D01*
X790150Y-268585D01*
X790113Y-268908D01*
X790050Y-269218D01*
X789962Y-269514D01*
X789850Y-269796D01*
X789712Y-270064D01*
X789549Y-270319D01*
X789361Y-270560D01*
X789151Y-270784D01*
X788922Y-270986D01*
X788675Y-271166D01*
X788564Y-271232D01*
X788408Y-271324D01*
X788122Y-271461D01*
X787817Y-271577D01*
X787493Y-271670D01*
X787150Y-271743D01*
X788641Y-274006D01*
X790653Y-277059D01*
X788726Y-277059D01*
X785521Y-271935D01*
X781676Y-271935D01*
X781676Y-277059D01*
G37*
%LPC*%
G36*
X785713Y-270613D02*
X786035Y-270603D01*
X786337Y-270574D01*
X786621Y-270526D01*
X786886Y-270458D01*
X787132Y-270372D01*
X787360Y-270265D01*
X787568Y-270140D01*
X787758Y-269995D01*
X787928Y-269833D01*
X788075Y-269656D01*
X788199Y-269463D01*
X788300Y-269254D01*
X788379Y-269030D01*
X788436Y-268791D01*
X788470Y-268536D01*
X788481Y-268265D01*
X788470Y-268004D01*
X788435Y-267759D01*
X788378Y-267530D01*
X788298Y-267316D01*
X788195Y-267119D01*
X788070Y-266938D01*
X787921Y-266772D01*
X787750Y-266623D01*
X787557Y-266491D01*
X787344Y-266376D01*
X787111Y-266279D01*
X786857Y-266200D01*
X786584Y-266138D01*
X786290Y-266094D01*
X785977Y-266067D01*
X785643Y-266058D01*
X781676Y-266058D01*
X781676Y-270613D01*
X785713Y-270613D01*
G37*
%LPD*%
G36*
X796343Y-277059D02*
X794697Y-277059D01*
X794713Y-276464D01*
X794760Y-275861D01*
X794838Y-275250D01*
X794948Y-274632D01*
X795089Y-274006D01*
X795261Y-273371D01*
X795465Y-272730D01*
X795700Y-272080D01*
X795971Y-271414D01*
X796285Y-270723D01*
X796641Y-270008D01*
X797039Y-269267D01*
X797478Y-268502D01*
X797960Y-267712D01*
X798484Y-266898D01*
X799050Y-266058D01*
X792420Y-266058D01*
X792420Y-264718D01*
X800574Y-264718D01*
X800574Y-265997D01*
X799697Y-267364D01*
X798960Y-268574D01*
X798362Y-269628D01*
X797902Y-270525D01*
X797537Y-271341D01*
X797220Y-272152D01*
X796952Y-272957D01*
X796733Y-273757D01*
X796563Y-274561D01*
X796441Y-275380D01*
X796368Y-276212D01*
X796350Y-276634D01*
X796343Y-277059D01*
G37*
G36*
X576710Y182999D02*
X575232Y182999D01*
X578986Y188126D01*
X575519Y192867D01*
X576997Y192867D01*
X579743Y188994D01*
X582411Y192867D01*
X583889Y192867D01*
X580513Y188175D01*
X584176Y182999D01*
X582698Y182999D01*
X579736Y187313D01*
X576710Y182999D01*
G37*
G36*
X588346Y182999D02*
X587029Y182999D01*
X587041Y183475D01*
X587079Y183957D01*
X587142Y184445D01*
X587229Y184940D01*
X587342Y185441D01*
X587480Y185948D01*
X587643Y186461D01*
X587831Y186981D01*
X588048Y187513D01*
X588299Y188066D01*
X588583Y188638D01*
X588901Y189230D01*
X589253Y189842D01*
X589638Y190473D01*
X590057Y191125D01*
X590510Y191796D01*
X585208Y191796D01*
X585208Y192867D01*
X591728Y192867D01*
X591728Y191845D01*
X591028Y190752D01*
X590438Y189784D01*
X589959Y188941D01*
X589592Y188224D01*
X589300Y187571D01*
X589047Y186923D01*
X588833Y186279D01*
X588657Y185639D01*
X588521Y184996D01*
X588423Y184342D01*
X588365Y183676D01*
X588346Y182999D01*
G37*
G36*
X588198Y92859D02*
X587917Y92867D01*
X587649Y92889D01*
X587396Y92927D01*
X587158Y92981D01*
X586933Y93049D01*
X586723Y93133D01*
X586527Y93232D01*
X586346Y93346D01*
X586178Y93477D01*
X586022Y93626D01*
X585879Y93795D01*
X585748Y93982D01*
X585629Y94188D01*
X585523Y94413D01*
X585429Y94656D01*
X585348Y94918D01*
X586553Y95107D01*
X586661Y94818D01*
X586799Y94568D01*
X586964Y94356D01*
X587158Y94183D01*
X587381Y94048D01*
X587632Y93952D01*
X587912Y93894D01*
X588219Y93874D01*
X588483Y93890D01*
X588732Y93938D01*
X588965Y94016D01*
X589182Y94127D01*
X589385Y94268D01*
X589572Y94442D01*
X589744Y94647D01*
X589900Y94883D01*
X590040Y95149D01*
X590163Y95441D01*
X590267Y95761D01*
X590354Y96107D01*
X590423Y96480D01*
X590474Y96880D01*
X590508Y97308D01*
X590524Y97762D01*
X590359Y97462D01*
X590144Y97193D01*
X589879Y96956D01*
X589564Y96750D01*
X589216Y96583D01*
X588852Y96463D01*
X588470Y96392D01*
X588072Y96368D01*
X587748Y96382D01*
X587440Y96425D01*
X587149Y96496D01*
X586875Y96595D01*
X586617Y96723D01*
X586376Y96880D01*
X586151Y97065D01*
X585943Y97278D01*
X585756Y97515D01*
X585594Y97771D01*
X585457Y98045D01*
X585344Y98338D01*
X585257Y98649D01*
X585195Y98979D01*
X585157Y99327D01*
X585145Y99695D01*
X585158Y100071D01*
X585199Y100427D01*
X585267Y100762D01*
X585362Y101077D01*
X585484Y101371D01*
X585633Y101644D01*
X585810Y101897D01*
X586013Y102128D01*
X586241Y102336D01*
X586490Y102516D01*
X586760Y102668D01*
X587052Y102793D01*
X587364Y102890D01*
X587698Y102959D01*
X588053Y103001D01*
X588430Y103014D01*
X588829Y102995D01*
X589203Y102938D01*
X589552Y102843D01*
X589876Y102710D01*
X590175Y102538D01*
X590449Y102329D01*
X590699Y102081D01*
X590923Y101796D01*
X591122Y101472D01*
X591294Y101110D01*
X591439Y100709D01*
X591559Y100271D01*
X591651Y99794D01*
X591717Y99278D01*
X591757Y98725D01*
X591770Y98133D01*
X591756Y97516D01*
X591712Y96935D01*
X591640Y96391D01*
X591538Y95885D01*
X591408Y95414D01*
X591248Y94981D01*
X591060Y94584D01*
X590842Y94225D01*
X590598Y93905D01*
X590329Y93627D01*
X590036Y93392D01*
X589717Y93200D01*
X589375Y93051D01*
X589007Y92944D01*
X588615Y92880D01*
X588198Y92859D01*
G37*
%LPC*%
G36*
X588374Y97362D02*
X588642Y97378D01*
X588901Y97425D01*
X589150Y97502D01*
X589389Y97611D01*
X589611Y97748D01*
X589808Y97911D01*
X589981Y98100D01*
X590128Y98315D01*
X590246Y98550D01*
X590330Y98802D01*
X590381Y99069D01*
X590398Y99351D01*
X590389Y99642D01*
X590363Y99918D01*
X590321Y100179D01*
X590261Y100426D01*
X590184Y100658D01*
X590090Y100875D01*
X589979Y101078D01*
X589851Y101267D01*
X589709Y101437D01*
X589555Y101584D01*
X589389Y101709D01*
X589212Y101811D01*
X589023Y101890D01*
X588823Y101947D01*
X588611Y101981D01*
X588388Y101992D01*
X588166Y101982D01*
X587956Y101953D01*
X587759Y101905D01*
X587573Y101837D01*
X587400Y101750D01*
X587238Y101643D01*
X587089Y101517D01*
X586952Y101372D01*
X586829Y101210D01*
X586722Y101035D01*
X586632Y100846D01*
X586558Y100643D01*
X586500Y100426D01*
X586459Y100196D01*
X586435Y99952D01*
X586426Y99695D01*
X586435Y99432D01*
X586459Y99184D01*
X586500Y98949D01*
X586558Y98729D01*
X586632Y98523D01*
X586722Y98331D01*
X586829Y98153D01*
X586952Y97989D01*
X587089Y97842D01*
X587238Y97715D01*
X587398Y97607D01*
X587570Y97519D01*
X587753Y97451D01*
X587949Y97402D01*
X588155Y97372D01*
X588374Y97362D01*
G37*
%LPD*%
G36*
X576710Y92999D02*
X575232Y92999D01*
X578986Y98126D01*
X575519Y102867D01*
X576997Y102867D01*
X579743Y98994D01*
X582411Y102867D01*
X583889Y102867D01*
X580513Y98175D01*
X584176Y92999D01*
X582698Y92999D01*
X579736Y97313D01*
X576710Y92999D01*
G37*
G36*
X715459Y276175D02*
X715001Y276187D01*
X714558Y276223D01*
X714131Y276284D01*
X713720Y276369D01*
X713324Y276478D01*
X712944Y276611D01*
X712580Y276768D01*
X712232Y276950D01*
X711901Y277154D01*
X711591Y277379D01*
X711301Y277625D01*
X711032Y277892D01*
X710782Y278179D01*
X710553Y278487D01*
X710345Y278816D01*
X710156Y279166D01*
X709989Y279534D01*
X709844Y279919D01*
X709721Y280321D01*
X709621Y280739D01*
X709543Y281174D01*
X709487Y281625D01*
X709453Y282093D01*
X709442Y282577D01*
X709448Y282941D01*
X709467Y283295D01*
X709498Y283639D01*
X709542Y283973D01*
X709598Y284297D01*
X709666Y284611D01*
X709747Y284915D01*
X709841Y285209D01*
X709947Y285493D01*
X710065Y285767D01*
X710339Y286285D01*
X710663Y286764D01*
X711036Y287202D01*
X711454Y287594D01*
X711910Y287934D01*
X712152Y288084D01*
X712404Y288221D01*
X712666Y288345D01*
X712937Y288456D01*
X713217Y288555D01*
X713508Y288639D01*
X713808Y288711D01*
X714117Y288770D01*
X714436Y288816D01*
X714765Y288849D01*
X715103Y288868D01*
X715451Y288875D01*
X715933Y288863D01*
X716395Y288827D01*
X716837Y288766D01*
X717259Y288682D01*
X717661Y288574D01*
X718042Y288441D01*
X718403Y288285D01*
X718744Y288104D01*
X719063Y287900D01*
X719361Y287672D01*
X719637Y287421D01*
X719891Y287147D01*
X720123Y286850D01*
X720333Y286529D01*
X720522Y286185D01*
X720688Y285818D01*
X719103Y285292D01*
X718987Y285554D01*
X718856Y285799D01*
X718708Y286029D01*
X718543Y286243D01*
X718363Y286441D01*
X718166Y286623D01*
X717953Y286789D01*
X717723Y286939D01*
X717480Y287073D01*
X717226Y287188D01*
X716961Y287286D01*
X716684Y287366D01*
X716397Y287428D01*
X716098Y287473D01*
X715789Y287499D01*
X715468Y287508D01*
X714970Y287488D01*
X714500Y287426D01*
X714059Y287323D01*
X713646Y287179D01*
X713262Y286993D01*
X712906Y286767D01*
X712579Y286499D01*
X712280Y286190D01*
X712013Y285845D01*
X711782Y285470D01*
X711586Y285064D01*
X711426Y284628D01*
X711301Y284161D01*
X711212Y283664D01*
X711159Y283136D01*
X711141Y282577D01*
X711160Y282024D01*
X711215Y281499D01*
X711308Y281001D01*
X711438Y280531D01*
X711605Y280089D01*
X711809Y279675D01*
X712050Y279288D01*
X712328Y278929D01*
X712638Y278606D01*
X712974Y278326D01*
X713336Y278089D01*
X713724Y277895D01*
X714138Y277744D01*
X714579Y277636D01*
X715045Y277571D01*
X715538Y277550D01*
X715857Y277560D01*
X716166Y277590D01*
X716465Y277640D01*
X716754Y277710D01*
X717033Y277801D01*
X717301Y277911D01*
X717560Y278041D01*
X717809Y278191D01*
X718047Y278362D01*
X718276Y278552D01*
X718494Y278763D01*
X718703Y278993D01*
X718901Y279244D01*
X719089Y279515D01*
X719267Y279805D01*
X719436Y280116D01*
X720802Y279433D01*
X720602Y279046D01*
X720382Y278684D01*
X720144Y278345D01*
X719886Y278029D01*
X719608Y277738D01*
X719312Y277471D01*
X718996Y277227D01*
X718661Y277007D01*
X718309Y276812D01*
X717943Y276643D01*
X717564Y276500D01*
X717170Y276383D01*
X716763Y276292D01*
X716343Y276227D01*
X715908Y276188D01*
X715459Y276175D01*
G37*
G36*
X730600Y276350D02*
X722866Y276350D01*
X722866Y277690D01*
X726011Y277690D01*
X726011Y287184D01*
X723225Y285196D01*
X723225Y286685D01*
X726142Y288691D01*
X727596Y288691D01*
X727596Y277690D01*
X730600Y277690D01*
X730600Y276350D01*
G37*
G36*
X761676Y-57059D02*
X760003Y-57059D01*
X760003Y-44718D01*
X765810Y-44718D01*
X766316Y-44733D01*
X766792Y-44777D01*
X767239Y-44849D01*
X767657Y-44951D01*
X768044Y-45083D01*
X768402Y-45243D01*
X768730Y-45432D01*
X769028Y-45651D01*
X769294Y-45896D01*
X769525Y-46163D01*
X769720Y-46453D01*
X769879Y-46767D01*
X770003Y-47103D01*
X770092Y-47462D01*
X770145Y-47843D01*
X770163Y-48248D01*
X770150Y-48585D01*
X770113Y-48908D01*
X770050Y-49218D01*
X769962Y-49514D01*
X769850Y-49796D01*
X769712Y-50064D01*
X769549Y-50319D01*
X769361Y-50560D01*
X769151Y-50784D01*
X768922Y-50986D01*
X768675Y-51166D01*
X768564Y-51232D01*
X768408Y-51324D01*
X768122Y-51461D01*
X767817Y-51577D01*
X767493Y-51670D01*
X767150Y-51743D01*
X768641Y-54006D01*
X770653Y-57059D01*
X768726Y-57059D01*
X765521Y-51935D01*
X761676Y-51935D01*
X761676Y-57059D01*
G37*
%LPC*%
G36*
X765713Y-50613D02*
X766035Y-50603D01*
X766337Y-50574D01*
X766621Y-50526D01*
X766886Y-50458D01*
X767132Y-50372D01*
X767360Y-50265D01*
X767568Y-50140D01*
X767758Y-49995D01*
X767928Y-49833D01*
X768075Y-49656D01*
X768199Y-49463D01*
X768300Y-49254D01*
X768379Y-49030D01*
X768436Y-48791D01*
X768470Y-48536D01*
X768481Y-48265D01*
X768470Y-48004D01*
X768435Y-47759D01*
X768378Y-47530D01*
X768298Y-47316D01*
X768195Y-47119D01*
X768070Y-46938D01*
X767921Y-46772D01*
X767750Y-46623D01*
X767557Y-46491D01*
X767344Y-46376D01*
X767111Y-46279D01*
X766857Y-46200D01*
X766584Y-46138D01*
X766290Y-46094D01*
X765977Y-46067D01*
X765643Y-46058D01*
X761676Y-46058D01*
X761676Y-50613D01*
X765713Y-50613D01*
G37*
%LPD*%
G36*
X780600Y-57059D02*
X772866Y-57059D01*
X772866Y-55719D01*
X776011Y-55719D01*
X776011Y-46225D01*
X773225Y-48213D01*
X773225Y-46724D01*
X776142Y-44718D01*
X777596Y-44718D01*
X777596Y-55719D01*
X780600Y-55719D01*
X780600Y-57059D01*
G37*
G36*
X761676Y-77059D02*
X760003Y-77059D01*
X760003Y-64718D01*
X765810Y-64718D01*
X766316Y-64733D01*
X766792Y-64777D01*
X767239Y-64849D01*
X767657Y-64951D01*
X768044Y-65083D01*
X768402Y-65243D01*
X768730Y-65432D01*
X769028Y-65651D01*
X769294Y-65896D01*
X769525Y-66163D01*
X769720Y-66453D01*
X769879Y-66767D01*
X770003Y-67103D01*
X770092Y-67462D01*
X770145Y-67843D01*
X770163Y-68248D01*
X770150Y-68585D01*
X770113Y-68908D01*
X770050Y-69218D01*
X769962Y-69514D01*
X769850Y-69796D01*
X769712Y-70064D01*
X769549Y-70319D01*
X769361Y-70560D01*
X769151Y-70784D01*
X768922Y-70986D01*
X768675Y-71166D01*
X768564Y-71232D01*
X768408Y-71324D01*
X768122Y-71461D01*
X767817Y-71577D01*
X767493Y-71670D01*
X767150Y-71743D01*
X768641Y-74006D01*
X770653Y-77059D01*
X768726Y-77059D01*
X765521Y-71935D01*
X761676Y-71935D01*
X761676Y-77059D01*
G37*
%LPC*%
G36*
X765713Y-70613D02*
X766035Y-70603D01*
X766337Y-70574D01*
X766621Y-70526D01*
X766886Y-70458D01*
X767132Y-70372D01*
X767360Y-70265D01*
X767568Y-70140D01*
X767758Y-69995D01*
X767928Y-69833D01*
X768075Y-69656D01*
X768199Y-69463D01*
X768300Y-69254D01*
X768379Y-69030D01*
X768436Y-68791D01*
X768470Y-68536D01*
X768481Y-68265D01*
X768470Y-68004D01*
X768435Y-67759D01*
X768378Y-67530D01*
X768298Y-67316D01*
X768195Y-67119D01*
X768070Y-66938D01*
X767921Y-66772D01*
X767750Y-66623D01*
X767557Y-66491D01*
X767344Y-66376D01*
X767111Y-66279D01*
X766857Y-66200D01*
X766584Y-66138D01*
X766290Y-66094D01*
X765977Y-66067D01*
X765643Y-66058D01*
X761676Y-66058D01*
X761676Y-70613D01*
X765713Y-70613D01*
G37*
%LPD*%
G36*
X780574Y-77059D02*
X772402Y-77059D01*
X772402Y-75947D01*
X772638Y-75449D01*
X772898Y-74982D01*
X773183Y-74545D01*
X773493Y-74138D01*
X773819Y-73755D01*
X774153Y-73391D01*
X774495Y-73046D01*
X774846Y-72719D01*
X775552Y-72107D01*
X776252Y-71541D01*
X776914Y-70998D01*
X777508Y-70455D01*
X777775Y-70180D01*
X778015Y-69899D01*
X778228Y-69611D01*
X778415Y-69316D01*
X778566Y-69009D01*
X778674Y-68681D01*
X778739Y-68334D01*
X778761Y-67968D01*
X778752Y-67721D01*
X778724Y-67488D01*
X778677Y-67270D01*
X778612Y-67066D01*
X778528Y-66876D01*
X778426Y-66700D01*
X778305Y-66538D01*
X778165Y-66391D01*
X778009Y-66260D01*
X777838Y-66146D01*
X777653Y-66050D01*
X777454Y-65971D01*
X777239Y-65909D01*
X777011Y-65866D01*
X776768Y-65839D01*
X776510Y-65831D01*
X776264Y-65839D01*
X776028Y-65865D01*
X775804Y-65908D01*
X775591Y-65967D01*
X775389Y-66044D01*
X775199Y-66138D01*
X775019Y-66250D01*
X774850Y-66378D01*
X774695Y-66522D01*
X774558Y-66679D01*
X774437Y-66851D01*
X774332Y-67036D01*
X774245Y-67235D01*
X774174Y-67448D01*
X774121Y-67675D01*
X774084Y-67915D01*
X772472Y-67766D01*
X772530Y-67406D01*
X772616Y-67064D01*
X772731Y-66741D01*
X772874Y-66437D01*
X773045Y-66152D01*
X773245Y-65886D01*
X773473Y-65639D01*
X773729Y-65410D01*
X774009Y-65205D01*
X774308Y-65027D01*
X774627Y-64876D01*
X774965Y-64753D01*
X775322Y-64657D01*
X775699Y-64589D01*
X776095Y-64548D01*
X776510Y-64534D01*
X776963Y-64548D01*
X777389Y-64589D01*
X777788Y-64658D01*
X778160Y-64754D01*
X778505Y-64878D01*
X778823Y-65029D01*
X779114Y-65208D01*
X779378Y-65415D01*
X779613Y-65646D01*
X779817Y-65901D01*
X779989Y-66179D01*
X780130Y-66480D01*
X780240Y-66804D01*
X780318Y-67151D01*
X780365Y-67522D01*
X780381Y-67915D01*
X780361Y-68274D01*
X780299Y-68631D01*
X780196Y-68987D01*
X780053Y-69343D01*
X779869Y-69697D01*
X779644Y-70052D01*
X779380Y-70407D01*
X779076Y-70762D01*
X778678Y-71165D01*
X778132Y-71666D01*
X777439Y-72264D01*
X776597Y-72960D01*
X776120Y-73362D01*
X775693Y-73743D01*
X775318Y-74104D01*
X774995Y-74445D01*
X774718Y-74772D01*
X774482Y-75094D01*
X774289Y-75409D01*
X774136Y-75719D01*
X780574Y-75719D01*
X780574Y-77059D01*
G37*
G36*
X761676Y-107059D02*
X760003Y-107059D01*
X760003Y-94718D01*
X765810Y-94718D01*
X766316Y-94733D01*
X766792Y-94777D01*
X767239Y-94849D01*
X767657Y-94951D01*
X768044Y-95083D01*
X768402Y-95243D01*
X768730Y-95432D01*
X769028Y-95651D01*
X769294Y-95896D01*
X769525Y-96163D01*
X769720Y-96453D01*
X769879Y-96767D01*
X770003Y-97103D01*
X770092Y-97462D01*
X770145Y-97843D01*
X770163Y-98248D01*
X770150Y-98585D01*
X770113Y-98908D01*
X770050Y-99218D01*
X769962Y-99514D01*
X769850Y-99796D01*
X769712Y-100064D01*
X769549Y-100319D01*
X769361Y-100560D01*
X769151Y-100784D01*
X768922Y-100986D01*
X768675Y-101166D01*
X768564Y-101232D01*
X768408Y-101324D01*
X768122Y-101461D01*
X767817Y-101577D01*
X767493Y-101670D01*
X767150Y-101743D01*
X768641Y-104006D01*
X770653Y-107059D01*
X768726Y-107059D01*
X765521Y-101935D01*
X761676Y-101935D01*
X761676Y-107059D01*
G37*
%LPC*%
G36*
X765713Y-100613D02*
X766035Y-100603D01*
X766337Y-100574D01*
X766621Y-100526D01*
X766886Y-100458D01*
X767132Y-100372D01*
X767360Y-100265D01*
X767568Y-100140D01*
X767758Y-99995D01*
X767928Y-99833D01*
X768075Y-99656D01*
X768199Y-99463D01*
X768300Y-99254D01*
X768379Y-99030D01*
X768436Y-98791D01*
X768470Y-98536D01*
X768481Y-98265D01*
X768470Y-98004D01*
X768435Y-97759D01*
X768378Y-97530D01*
X768298Y-97316D01*
X768195Y-97119D01*
X768070Y-96938D01*
X767921Y-96772D01*
X767750Y-96623D01*
X767557Y-96491D01*
X767344Y-96376D01*
X767111Y-96279D01*
X766857Y-96200D01*
X766584Y-96138D01*
X766290Y-96094D01*
X765977Y-96067D01*
X765643Y-96058D01*
X761676Y-96058D01*
X761676Y-100613D01*
X765713Y-100613D01*
G37*
%LPD*%
G36*
X776501Y-107234D02*
X776044Y-107221D01*
X775611Y-107181D01*
X775202Y-107115D01*
X774816Y-107023D01*
X774454Y-106904D01*
X774116Y-106759D01*
X773801Y-106587D01*
X773510Y-106389D01*
X773245Y-106165D01*
X773008Y-105916D01*
X772800Y-105641D01*
X772620Y-105341D01*
X772468Y-105016D01*
X772345Y-104665D01*
X772250Y-104290D01*
X772183Y-103888D01*
X773812Y-103740D01*
X773860Y-104005D01*
X773923Y-104253D01*
X774003Y-104484D01*
X774099Y-104698D01*
X774210Y-104894D01*
X774338Y-105074D01*
X774482Y-105236D01*
X774642Y-105382D01*
X774818Y-105510D01*
X775010Y-105621D01*
X775219Y-105715D01*
X775443Y-105792D01*
X775683Y-105852D01*
X775940Y-105895D01*
X776212Y-105921D01*
X776501Y-105929D01*
X776791Y-105920D01*
X777065Y-105893D01*
X777322Y-105847D01*
X777564Y-105782D01*
X777790Y-105700D01*
X778000Y-105599D01*
X778193Y-105480D01*
X778371Y-105342D01*
X778530Y-105187D01*
X778668Y-105013D01*
X778785Y-104822D01*
X778880Y-104613D01*
X778954Y-104386D01*
X779007Y-104142D01*
X779039Y-103880D01*
X779050Y-103599D01*
X779038Y-103355D01*
X779001Y-103123D01*
X778941Y-102906D01*
X778856Y-102703D01*
X778747Y-102513D01*
X778614Y-102337D01*
X778456Y-102175D01*
X778275Y-102027D01*
X778070Y-101895D01*
X777844Y-101780D01*
X777597Y-101683D01*
X777328Y-101604D01*
X777037Y-101542D01*
X776725Y-101498D01*
X776392Y-101471D01*
X776037Y-101462D01*
X775144Y-101462D01*
X775144Y-100096D01*
X776002Y-100096D01*
X776317Y-100087D01*
X776614Y-100061D01*
X776892Y-100017D01*
X777153Y-99955D01*
X777395Y-99875D01*
X777619Y-99778D01*
X777824Y-99663D01*
X778012Y-99531D01*
X778179Y-99383D01*
X778324Y-99222D01*
X778447Y-99046D01*
X778547Y-98858D01*
X778625Y-98656D01*
X778681Y-98440D01*
X778715Y-98211D01*
X778726Y-97968D01*
X778717Y-97727D01*
X778689Y-97499D01*
X778644Y-97284D01*
X778580Y-97082D01*
X778498Y-96893D01*
X778398Y-96717D01*
X778280Y-96554D01*
X778143Y-96404D01*
X777989Y-96270D01*
X777817Y-96153D01*
X777627Y-96055D01*
X777420Y-95974D01*
X777195Y-95911D01*
X776952Y-95866D01*
X776692Y-95840D01*
X776414Y-95831D01*
X776159Y-95839D01*
X775917Y-95864D01*
X775688Y-95906D01*
X775471Y-95964D01*
X775266Y-96039D01*
X775074Y-96131D01*
X774895Y-96240D01*
X774728Y-96365D01*
X774575Y-96505D01*
X774439Y-96659D01*
X774320Y-96827D01*
X774218Y-97009D01*
X774133Y-97204D01*
X774065Y-97413D01*
X774013Y-97635D01*
X773979Y-97871D01*
X772393Y-97749D01*
X772451Y-97380D01*
X772538Y-97033D01*
X772652Y-96706D01*
X772795Y-96400D01*
X772966Y-96115D01*
X773166Y-95850D01*
X773394Y-95607D01*
X773650Y-95384D01*
X773930Y-95185D01*
X774230Y-95012D01*
X774548Y-94866D01*
X774886Y-94747D01*
X775244Y-94654D01*
X775620Y-94587D01*
X776016Y-94548D01*
X776431Y-94534D01*
X776882Y-94548D01*
X777308Y-94588D01*
X777707Y-94656D01*
X778081Y-94750D01*
X778429Y-94871D01*
X778751Y-95020D01*
X779047Y-95195D01*
X779317Y-95397D01*
X779558Y-95623D01*
X779767Y-95871D01*
X779944Y-96140D01*
X780089Y-96429D01*
X780201Y-96741D01*
X780282Y-97073D01*
X780330Y-97426D01*
X780346Y-97801D01*
X780336Y-98090D01*
X780305Y-98365D01*
X780253Y-98626D01*
X780181Y-98873D01*
X780088Y-99106D01*
X779974Y-99326D01*
X779840Y-99532D01*
X779685Y-99724D01*
X779510Y-99901D01*
X779317Y-100064D01*
X779105Y-100212D01*
X778874Y-100345D01*
X778624Y-100462D01*
X778355Y-100565D01*
X778068Y-100653D01*
X777762Y-100727D01*
X777762Y-100762D01*
X778099Y-100809D01*
X778416Y-100875D01*
X778714Y-100962D01*
X778993Y-101068D01*
X779253Y-101194D01*
X779493Y-101340D01*
X779715Y-101505D01*
X779917Y-101690D01*
X780098Y-101891D01*
X780254Y-102105D01*
X780387Y-102331D01*
X780495Y-102570D01*
X780579Y-102822D01*
X780640Y-103086D01*
X780676Y-103363D01*
X780688Y-103652D01*
X780671Y-104067D01*
X780620Y-104458D01*
X780535Y-104825D01*
X780416Y-105167D01*
X780263Y-105486D01*
X780077Y-105780D01*
X779856Y-106051D01*
X779602Y-106297D01*
X779316Y-106517D01*
X779001Y-106707D01*
X778657Y-106868D01*
X778283Y-107000D01*
X777881Y-107102D01*
X777450Y-107176D01*
X776990Y-107220D01*
X776501Y-107234D01*
G37*
G36*
X761676Y-227059D02*
X760003Y-227059D01*
X760003Y-214718D01*
X765810Y-214718D01*
X766316Y-214733D01*
X766792Y-214777D01*
X767239Y-214849D01*
X767657Y-214951D01*
X768044Y-215083D01*
X768402Y-215243D01*
X768730Y-215432D01*
X769028Y-215651D01*
X769294Y-215896D01*
X769525Y-216163D01*
X769720Y-216453D01*
X769879Y-216767D01*
X770003Y-217103D01*
X770092Y-217462D01*
X770145Y-217843D01*
X770163Y-218248D01*
X770150Y-218585D01*
X770113Y-218908D01*
X770050Y-219218D01*
X769962Y-219514D01*
X769850Y-219796D01*
X769712Y-220064D01*
X769549Y-220319D01*
X769361Y-220560D01*
X769151Y-220784D01*
X768922Y-220986D01*
X768675Y-221166D01*
X768564Y-221232D01*
X768408Y-221324D01*
X768122Y-221461D01*
X767817Y-221577D01*
X767493Y-221670D01*
X767150Y-221743D01*
X768641Y-224006D01*
X770653Y-227059D01*
X768726Y-227059D01*
X765521Y-221935D01*
X761676Y-221935D01*
X761676Y-227059D01*
G37*
%LPC*%
G36*
X765713Y-220613D02*
X766035Y-220603D01*
X766337Y-220574D01*
X766621Y-220526D01*
X766886Y-220458D01*
X767132Y-220372D01*
X767360Y-220265D01*
X767568Y-220140D01*
X767758Y-219995D01*
X767928Y-219833D01*
X768075Y-219656D01*
X768199Y-219463D01*
X768300Y-219254D01*
X768379Y-219030D01*
X768436Y-218791D01*
X768470Y-218536D01*
X768481Y-218265D01*
X768470Y-218004D01*
X768435Y-217759D01*
X768378Y-217530D01*
X768298Y-217316D01*
X768195Y-217119D01*
X768070Y-216938D01*
X767921Y-216772D01*
X767750Y-216623D01*
X767557Y-216491D01*
X767344Y-216376D01*
X767111Y-216279D01*
X766857Y-216200D01*
X766584Y-216138D01*
X766290Y-216094D01*
X765977Y-216067D01*
X765643Y-216058D01*
X761676Y-216058D01*
X761676Y-220613D01*
X765713Y-220613D01*
G37*
%LPD*%
G36*
X779216Y-227059D02*
X777727Y-227059D01*
X777727Y-224265D01*
X771912Y-224265D01*
X771912Y-223039D01*
X777561Y-214718D01*
X779216Y-214718D01*
X779216Y-223021D01*
X780950Y-223021D01*
X780950Y-224265D01*
X779216Y-224265D01*
X779216Y-227059D01*
G37*
%LPC*%
G36*
X777727Y-223021D02*
X777727Y-216496D01*
X777482Y-216960D01*
X777141Y-217538D01*
X773979Y-222198D01*
X773506Y-222846D01*
X773366Y-223021D01*
X777727Y-223021D01*
G37*
%LPD*%
G36*
X761676Y-157059D02*
X760003Y-157059D01*
X760003Y-144718D01*
X765810Y-144718D01*
X766316Y-144733D01*
X766792Y-144777D01*
X767239Y-144849D01*
X767657Y-144951D01*
X768044Y-145083D01*
X768402Y-145243D01*
X768730Y-145432D01*
X769028Y-145651D01*
X769294Y-145896D01*
X769525Y-146163D01*
X769720Y-146453D01*
X769879Y-146767D01*
X770003Y-147103D01*
X770092Y-147462D01*
X770145Y-147843D01*
X770163Y-148248D01*
X770150Y-148585D01*
X770113Y-148908D01*
X770050Y-149218D01*
X769962Y-149514D01*
X769850Y-149796D01*
X769712Y-150064D01*
X769549Y-150319D01*
X769361Y-150560D01*
X769151Y-150784D01*
X768922Y-150986D01*
X768675Y-151166D01*
X768564Y-151232D01*
X768408Y-151324D01*
X768122Y-151461D01*
X767817Y-151577D01*
X767493Y-151670D01*
X767150Y-151743D01*
X768641Y-154006D01*
X770653Y-157059D01*
X768726Y-157059D01*
X765521Y-151935D01*
X761676Y-151935D01*
X761676Y-157059D01*
G37*
%LPC*%
G36*
X765713Y-150613D02*
X766035Y-150603D01*
X766337Y-150574D01*
X766621Y-150526D01*
X766886Y-150458D01*
X767132Y-150372D01*
X767360Y-150265D01*
X767568Y-150140D01*
X767758Y-149995D01*
X767928Y-149833D01*
X768075Y-149656D01*
X768199Y-149463D01*
X768300Y-149254D01*
X768379Y-149030D01*
X768436Y-148791D01*
X768470Y-148536D01*
X768481Y-148265D01*
X768470Y-148004D01*
X768435Y-147759D01*
X768378Y-147530D01*
X768298Y-147316D01*
X768195Y-147119D01*
X768070Y-146938D01*
X767921Y-146772D01*
X767750Y-146623D01*
X767557Y-146491D01*
X767344Y-146376D01*
X767111Y-146279D01*
X766857Y-146200D01*
X766584Y-146138D01*
X766290Y-146094D01*
X765977Y-146067D01*
X765643Y-146058D01*
X761676Y-146058D01*
X761676Y-150613D01*
X765713Y-150613D01*
G37*
%LPD*%
G36*
X776343Y-157234D02*
X775923Y-157222D01*
X775522Y-157187D01*
X775143Y-157128D01*
X774784Y-157046D01*
X774447Y-156940D01*
X774130Y-156811D01*
X773834Y-156658D01*
X773558Y-156481D01*
X773305Y-156282D01*
X773077Y-156062D01*
X772873Y-155821D01*
X772693Y-155559D01*
X772538Y-155276D01*
X772407Y-154972D01*
X772300Y-154646D01*
X772218Y-154300D01*
X773812Y-154116D01*
X773881Y-154338D01*
X773962Y-154545D01*
X774055Y-154738D01*
X774160Y-154917D01*
X774277Y-155081D01*
X774407Y-155232D01*
X774549Y-155368D01*
X774703Y-155489D01*
X774870Y-155596D01*
X775049Y-155689D01*
X775240Y-155768D01*
X775443Y-155832D01*
X775658Y-155882D01*
X775886Y-155918D01*
X776126Y-155940D01*
X776379Y-155947D01*
X776687Y-155935D01*
X776979Y-155899D01*
X777253Y-155839D01*
X777511Y-155755D01*
X777750Y-155647D01*
X777973Y-155516D01*
X778179Y-155360D01*
X778367Y-155180D01*
X778535Y-154980D01*
X778681Y-154761D01*
X778804Y-154525D01*
X778905Y-154271D01*
X778984Y-153998D01*
X779040Y-153708D01*
X779074Y-153400D01*
X779085Y-153074D01*
X779074Y-152790D01*
X779040Y-152519D01*
X778983Y-152263D01*
X778904Y-152021D01*
X778803Y-151792D01*
X778678Y-151578D01*
X778532Y-151377D01*
X778362Y-151191D01*
X778174Y-151022D01*
X777970Y-150877D01*
X777750Y-150753D01*
X777514Y-150652D01*
X777262Y-150574D01*
X776995Y-150517D01*
X776712Y-150484D01*
X776414Y-150473D01*
X776099Y-150485D01*
X775796Y-150523D01*
X775504Y-150586D01*
X775222Y-150674D01*
X774946Y-150792D01*
X774671Y-150946D01*
X774395Y-151134D01*
X774119Y-151357D01*
X772577Y-151357D01*
X772989Y-144718D01*
X780005Y-144718D01*
X780005Y-146058D01*
X774425Y-146058D01*
X774189Y-149973D01*
X774453Y-149789D01*
X774732Y-149629D01*
X775028Y-149493D01*
X775338Y-149382D01*
X775665Y-149296D01*
X776007Y-149234D01*
X776364Y-149197D01*
X776738Y-149185D01*
X777181Y-149202D01*
X777602Y-149252D01*
X778000Y-149335D01*
X778374Y-149452D01*
X778726Y-149602D01*
X779054Y-149786D01*
X779359Y-150003D01*
X779641Y-150254D01*
X779895Y-150531D01*
X780114Y-150828D01*
X780300Y-151146D01*
X780452Y-151484D01*
X780571Y-151842D01*
X780655Y-152221D01*
X780706Y-152620D01*
X780723Y-153039D01*
X780705Y-153514D01*
X780650Y-153963D01*
X780560Y-154387D01*
X780433Y-154784D01*
X780269Y-155155D01*
X780070Y-155501D01*
X779834Y-155820D01*
X779562Y-156113D01*
X779258Y-156376D01*
X778926Y-156604D01*
X778566Y-156796D01*
X778177Y-156954D01*
X777761Y-157077D01*
X777316Y-157164D01*
X776844Y-157217D01*
X776343Y-157234D01*
G37*
G36*
X761676Y-177059D02*
X760003Y-177059D01*
X760003Y-164718D01*
X765810Y-164718D01*
X766316Y-164733D01*
X766792Y-164777D01*
X767239Y-164849D01*
X767657Y-164951D01*
X768044Y-165083D01*
X768402Y-165243D01*
X768730Y-165432D01*
X769028Y-165651D01*
X769294Y-165896D01*
X769525Y-166163D01*
X769720Y-166453D01*
X769879Y-166767D01*
X770003Y-167103D01*
X770092Y-167462D01*
X770145Y-167843D01*
X770163Y-168248D01*
X770150Y-168585D01*
X770113Y-168908D01*
X770050Y-169218D01*
X769962Y-169514D01*
X769850Y-169796D01*
X769712Y-170064D01*
X769549Y-170319D01*
X769361Y-170560D01*
X769151Y-170784D01*
X768922Y-170986D01*
X768675Y-171166D01*
X768564Y-171232D01*
X768408Y-171324D01*
X768122Y-171461D01*
X767817Y-171577D01*
X767493Y-171670D01*
X767150Y-171743D01*
X768641Y-174006D01*
X770653Y-177059D01*
X768726Y-177059D01*
X765521Y-171935D01*
X761676Y-171935D01*
X761676Y-177059D01*
G37*
%LPC*%
G36*
X765713Y-170613D02*
X766035Y-170603D01*
X766337Y-170574D01*
X766621Y-170526D01*
X766886Y-170458D01*
X767132Y-170372D01*
X767360Y-170265D01*
X767568Y-170140D01*
X767758Y-169995D01*
X767928Y-169833D01*
X768075Y-169656D01*
X768199Y-169463D01*
X768300Y-169254D01*
X768379Y-169030D01*
X768436Y-168791D01*
X768470Y-168536D01*
X768481Y-168265D01*
X768470Y-168004D01*
X768435Y-167759D01*
X768378Y-167530D01*
X768298Y-167316D01*
X768195Y-167119D01*
X768070Y-166938D01*
X767921Y-166772D01*
X767750Y-166623D01*
X767557Y-166491D01*
X767344Y-166376D01*
X767111Y-166279D01*
X766857Y-166200D01*
X766584Y-166138D01*
X766290Y-166094D01*
X765977Y-166067D01*
X765643Y-166058D01*
X761676Y-166058D01*
X761676Y-170613D01*
X765713Y-170613D01*
G37*
%LPD*%
G36*
X776703Y-177234D02*
X776446Y-177228D01*
X776197Y-177210D01*
X775722Y-177137D01*
X775277Y-177016D01*
X774863Y-176847D01*
X774480Y-176629D01*
X774128Y-176362D01*
X773806Y-176047D01*
X773514Y-175684D01*
X773256Y-175274D01*
X773032Y-174821D01*
X772842Y-174323D01*
X772687Y-173781D01*
X772566Y-173195D01*
X772480Y-172565D01*
X772428Y-171891D01*
X772411Y-171173D01*
X772429Y-170395D01*
X772483Y-169664D01*
X772572Y-168978D01*
X772698Y-168340D01*
X772859Y-167748D01*
X773056Y-167202D01*
X773289Y-166703D01*
X773558Y-166251D01*
X773860Y-165849D01*
X774193Y-165500D01*
X774556Y-165205D01*
X774949Y-164963D01*
X775372Y-164776D01*
X775595Y-164702D01*
X775826Y-164642D01*
X776065Y-164595D01*
X776310Y-164561D01*
X776564Y-164541D01*
X776825Y-164534D01*
X777166Y-164544D01*
X777491Y-164574D01*
X777800Y-164623D01*
X778093Y-164691D01*
X778370Y-164780D01*
X778630Y-164888D01*
X778874Y-165015D01*
X779102Y-165163D01*
X779314Y-165330D01*
X779510Y-165516D01*
X779690Y-165722D01*
X779853Y-165948D01*
X780001Y-166194D01*
X780132Y-166459D01*
X780247Y-166744D01*
X780346Y-167048D01*
X778840Y-167320D01*
X778706Y-166966D01*
X778539Y-166660D01*
X778336Y-166402D01*
X778100Y-166190D01*
X777828Y-166025D01*
X777523Y-165907D01*
X777182Y-165837D01*
X776808Y-165813D01*
X776480Y-165833D01*
X776171Y-165892D01*
X775882Y-165990D01*
X775611Y-166127D01*
X775359Y-166304D01*
X775127Y-166520D01*
X774913Y-166775D01*
X774719Y-167070D01*
X774545Y-167402D01*
X774395Y-167769D01*
X774268Y-168171D01*
X774164Y-168608D01*
X774083Y-169081D01*
X774025Y-169588D01*
X773990Y-170131D01*
X773979Y-170709D01*
X774215Y-170334D01*
X774495Y-170007D01*
X774819Y-169728D01*
X775187Y-169496D01*
X775591Y-169314D01*
X776024Y-169184D01*
X776251Y-169139D01*
X776485Y-169106D01*
X776726Y-169086D01*
X776974Y-169080D01*
X777390Y-169097D01*
X777784Y-169147D01*
X778156Y-169230D01*
X778506Y-169347D01*
X778834Y-169497D01*
X779139Y-169681D01*
X779423Y-169898D01*
X779685Y-170149D01*
X779920Y-170427D01*
X780124Y-170729D01*
X780296Y-171053D01*
X780437Y-171401D01*
X780547Y-171772D01*
X780625Y-172165D01*
X780672Y-172582D01*
X780688Y-173021D01*
X780671Y-173497D01*
X780621Y-173946D01*
X780539Y-174370D01*
X780423Y-174769D01*
X780274Y-175141D01*
X780092Y-175488D01*
X779876Y-175809D01*
X779628Y-176104D01*
X779350Y-176369D01*
X779048Y-176599D01*
X778720Y-176793D01*
X778367Y-176952D01*
X777988Y-177075D01*
X777585Y-177164D01*
X777156Y-177217D01*
X776703Y-177234D01*
G37*
%LPC*%
G36*
X776650Y-175964D02*
X776927Y-175952D01*
X777189Y-175916D01*
X777435Y-175856D01*
X777666Y-175773D01*
X777882Y-175665D01*
X778082Y-175533D01*
X778267Y-175377D01*
X778437Y-175198D01*
X778589Y-174997D01*
X778720Y-174779D01*
X778832Y-174542D01*
X778923Y-174288D01*
X778994Y-174016D01*
X779044Y-173726D01*
X779075Y-173417D01*
X779085Y-173091D01*
X779075Y-172766D01*
X779044Y-172460D01*
X778993Y-172173D01*
X778921Y-171905D01*
X778828Y-171656D01*
X778715Y-171426D01*
X778582Y-171216D01*
X778428Y-171024D01*
X778256Y-170854D01*
X778067Y-170706D01*
X777863Y-170581D01*
X777642Y-170479D01*
X777405Y-170400D01*
X777152Y-170343D01*
X776883Y-170309D01*
X776597Y-170297D01*
X776328Y-170307D01*
X776072Y-170338D01*
X775830Y-170388D01*
X775600Y-170458D01*
X775384Y-170549D01*
X775181Y-170660D01*
X774991Y-170790D01*
X774815Y-170941D01*
X774656Y-171110D01*
X774518Y-171293D01*
X774401Y-171492D01*
X774306Y-171706D01*
X774232Y-171936D01*
X774179Y-172180D01*
X774147Y-172440D01*
X774136Y-172715D01*
X774147Y-173064D01*
X774180Y-173396D01*
X774235Y-173713D01*
X774313Y-174013D01*
X774412Y-174297D01*
X774533Y-174566D01*
X774676Y-174818D01*
X774841Y-175053D01*
X775024Y-175267D01*
X775219Y-175452D01*
X775426Y-175608D01*
X775646Y-175736D01*
X775878Y-175836D01*
X776123Y-175907D01*
X776380Y-175950D01*
X776650Y-175964D01*
G37*
%LPD*%
G36*
X633637Y219594D02*
X628020Y225449D01*
X628996Y225955D01*
X632512Y222209D01*
X633157Y221482D01*
X633798Y220723D01*
X633460Y222041D01*
X633076Y223803D01*
X632277Y227655D01*
X633174Y228120D01*
X636605Y224442D01*
X637355Y223596D01*
X637962Y222881D01*
X637917Y223076D01*
X637656Y224107D01*
X637303Y225734D01*
X636445Y229816D01*
X637421Y230322D01*
X638968Y222357D01*
X637849Y221778D01*
X634378Y225546D01*
X633935Y226046D01*
X633269Y226845D01*
X633547Y225781D01*
X633904Y224165D01*
X634755Y220174D01*
X633637Y219594D01*
G37*
G36*
X626328Y216107D02*
X626084Y216111D01*
X625848Y216137D01*
X625623Y216185D01*
X625407Y216256D01*
X625200Y216349D01*
X625003Y216464D01*
X624815Y216602D01*
X624637Y216762D01*
X624468Y216944D01*
X625281Y217596D01*
X625404Y217469D01*
X625533Y217357D01*
X625667Y217262D01*
X625806Y217183D01*
X625952Y217120D01*
X626103Y217073D01*
X626260Y217042D01*
X626422Y217027D01*
X626766Y217043D01*
X627138Y217120D01*
X627536Y217257D01*
X627961Y217455D01*
X628379Y217696D01*
X628725Y217949D01*
X628871Y218080D01*
X628998Y218214D01*
X629108Y218352D01*
X629200Y218492D01*
X629273Y218634D01*
X629326Y218777D01*
X629358Y218922D01*
X629370Y219068D01*
X629363Y219215D01*
X629335Y219363D01*
X629287Y219512D01*
X629219Y219662D01*
X629126Y219818D01*
X629021Y219948D01*
X628906Y220053D01*
X628780Y220131D01*
X628642Y220188D01*
X628494Y220227D01*
X628335Y220249D01*
X628165Y220254D01*
X627793Y220222D01*
X627379Y220139D01*
X626416Y219895D01*
X625602Y219703D01*
X625269Y219646D01*
X624985Y219614D01*
X624736Y219603D01*
X624506Y219609D01*
X624296Y219632D01*
X624106Y219671D01*
X623930Y219728D01*
X623764Y219801D01*
X623607Y219892D01*
X623460Y219999D01*
X623323Y220125D01*
X623196Y220270D01*
X623080Y220434D01*
X622974Y220618D01*
X622873Y220839D01*
X622800Y221059D01*
X622754Y221276D01*
X622737Y221492D01*
X622747Y221706D01*
X622785Y221919D01*
X622851Y222130D01*
X622944Y222339D01*
X623065Y222544D01*
X623211Y222744D01*
X623384Y222938D01*
X623583Y223127D01*
X623808Y223310D01*
X624059Y223488D01*
X624336Y223660D01*
X624640Y223827D01*
X624928Y223970D01*
X625205Y224092D01*
X625471Y224194D01*
X625725Y224275D01*
X625967Y224337D01*
X626198Y224378D01*
X626418Y224399D01*
X626626Y224400D01*
X626827Y224379D01*
X627024Y224337D01*
X627218Y224273D01*
X627408Y224187D01*
X627595Y224079D01*
X627779Y223949D01*
X627959Y223797D01*
X628136Y223624D01*
X627298Y222984D01*
X627072Y223191D01*
X626831Y223343D01*
X626576Y223440D01*
X626306Y223481D01*
X626016Y223468D01*
X625701Y223403D01*
X625361Y223285D01*
X624996Y223116D01*
X624615Y222897D01*
X624301Y222668D01*
X624053Y222431D01*
X623873Y222185D01*
X623808Y222060D01*
X623762Y221932D01*
X623733Y221804D01*
X623723Y221674D01*
X623730Y221542D01*
X623756Y221410D01*
X623799Y221276D01*
X623861Y221140D01*
X623951Y220993D01*
X624054Y220871D01*
X624172Y220773D01*
X624303Y220701D01*
X624449Y220649D01*
X624610Y220615D01*
X624785Y220599D01*
X624974Y220601D01*
X625213Y220627D01*
X625535Y220687D01*
X626429Y220903D01*
X627141Y221083D01*
X627494Y221160D01*
X627841Y221215D01*
X628181Y221246D01*
X628511Y221249D01*
X628829Y221213D01*
X629131Y221128D01*
X629413Y220990D01*
X629674Y220794D01*
X629796Y220672D01*
X629911Y220531D01*
X630019Y220371D01*
X630120Y220191D01*
X630229Y219953D01*
X630307Y219716D01*
X630355Y219480D01*
X630373Y219246D01*
X630360Y219013D01*
X630317Y218782D01*
X630244Y218551D01*
X630140Y218323D01*
X630007Y218098D01*
X629847Y217879D01*
X629659Y217668D01*
X629444Y217462D01*
X629200Y217264D01*
X628930Y217071D01*
X628632Y216885D01*
X628306Y216706D01*
X627995Y216554D01*
X627693Y216424D01*
X627401Y216316D01*
X627119Y216230D01*
X626846Y216167D01*
X626582Y216126D01*
X626328Y216107D01*
G37*
G36*
X641811Y223831D02*
X641422Y224581D01*
X643183Y225494D01*
X640427Y230810D01*
X639445Y228888D01*
X639013Y229722D01*
X640064Y231692D01*
X640878Y232113D01*
X644070Y225954D01*
X645752Y226826D01*
X646141Y226076D01*
X641811Y223831D01*
G37*
D10*
X796425Y-62000D02*
X853925Y-62000D01*
X853925Y62000D01*
X796425Y62000D01*
X796425Y-62000D01*
X797000Y38000D02*
X802000Y38000D01*
X802000Y-39000D02*
X797000Y-39000D01*
X796425Y78000D02*
X853925Y78000D01*
X853925Y202000D01*
X796425Y202000D01*
X796425Y78000D01*
X797000Y178000D02*
X802000Y178000D01*
X802000Y101000D02*
X797000Y101000D01*
X796425Y-202000D02*
X853925Y-202000D01*
X853925Y-78000D01*
X796425Y-78000D01*
X796425Y-202000D01*
X797000Y-102000D02*
X802000Y-102000D01*
X802000Y-179000D02*
X797000Y-179000D01*
D11*
X919228Y126820D02*
X932480Y129396D01*
X915422Y217153D02*
X902170Y214577D01*
X954687Y224786D02*
X971745Y137028D01*
X958493Y134452D01*
X941435Y222210D02*
X954687Y224786D01*
X941388Y-44700D02*
X927888Y-44700D01*
X927888Y44700D02*
X941388Y44700D01*
X981388Y44700D02*
X981388Y-44700D01*
X967888Y-44700D01*
X967888Y44700D02*
X981388Y44700D01*
X914605Y-222674D02*
X901354Y-220098D01*
X918412Y-132340D02*
X931664Y-134916D01*
X970929Y-142548D02*
X953871Y-230306D01*
X940619Y-227730D01*
X957677Y-139973D02*
X970929Y-142548D01*
D12*
X588500Y-241991D02*
X571500Y-241991D01*
X571500Y-258009D02*
X588500Y-258009D01*
X631991Y111500D02*
X631991Y128500D01*
X648009Y128500D02*
X648009Y111500D01*
D10*
X629164Y-88289D02*
X571664Y-88289D01*
X629164Y-88289D02*
X629164Y-14289D01*
X571664Y-14289D01*
X571664Y-88289D01*
D13*
X572239Y-38289D02*
X577239Y-38289D01*
X577239Y-64289D02*
X572239Y-64289D01*
X577239Y-64289D02*
X577239Y-38289D01*
D14*
X734816Y-205377D02*
X734974Y-205379D01*
X735133Y-205385D01*
X735291Y-205395D01*
X735448Y-205409D01*
X735606Y-205426D01*
X735762Y-205448D01*
X735919Y-205473D01*
X736074Y-205503D01*
X736229Y-205536D01*
X736383Y-205573D01*
X736536Y-205614D01*
X736688Y-205659D01*
X736838Y-205708D01*
X736988Y-205760D01*
X737136Y-205816D01*
X737283Y-205876D01*
X737428Y-205939D01*
X737571Y-206006D01*
X737713Y-206076D01*
X737853Y-206150D01*
X737991Y-206228D01*
X738127Y-206309D01*
X738261Y-206393D01*
X738393Y-206480D01*
X738523Y-206571D01*
X738650Y-206665D01*
X738775Y-206762D01*
X738898Y-206863D01*
X739018Y-206966D01*
X739135Y-207072D01*
X739250Y-207181D01*
X739362Y-207293D01*
X739471Y-207408D01*
X739577Y-207525D01*
X739680Y-207645D01*
X739781Y-207768D01*
X739878Y-207893D01*
X739972Y-208020D01*
X740063Y-208150D01*
X740150Y-208282D01*
X740234Y-208416D01*
X740315Y-208552D01*
X740393Y-208690D01*
X740467Y-208830D01*
X740537Y-208972D01*
X740604Y-209115D01*
X740667Y-209260D01*
X740727Y-209407D01*
X740783Y-209555D01*
X740835Y-209705D01*
X740884Y-209855D01*
X740929Y-210007D01*
X740970Y-210160D01*
X741007Y-210314D01*
X741040Y-210469D01*
X741070Y-210624D01*
X741095Y-210781D01*
X741117Y-210937D01*
X741134Y-211095D01*
X741148Y-211252D01*
X741158Y-211410D01*
X741164Y-211569D01*
X741166Y-211727D01*
X741166Y-249827D01*
X741164Y-249985D01*
X741158Y-250144D01*
X741148Y-250302D01*
X741134Y-250459D01*
X741117Y-250617D01*
X741095Y-250773D01*
X741070Y-250930D01*
X741040Y-251085D01*
X741007Y-251240D01*
X740970Y-251394D01*
X740929Y-251547D01*
X740884Y-251699D01*
X740835Y-251849D01*
X740783Y-251999D01*
X740727Y-252147D01*
X740667Y-252294D01*
X740604Y-252439D01*
X740537Y-252582D01*
X740467Y-252724D01*
X740393Y-252864D01*
X740315Y-253002D01*
X740234Y-253138D01*
X740150Y-253272D01*
X740063Y-253404D01*
X739972Y-253534D01*
X739878Y-253661D01*
X739781Y-253786D01*
X739680Y-253909D01*
X739577Y-254029D01*
X739471Y-254146D01*
X739362Y-254261D01*
X739250Y-254373D01*
X739135Y-254482D01*
X739018Y-254588D01*
X738898Y-254691D01*
X738775Y-254792D01*
X738650Y-254889D01*
X738523Y-254983D01*
X738393Y-255074D01*
X738261Y-255161D01*
X738127Y-255245D01*
X737991Y-255326D01*
X737853Y-255404D01*
X737713Y-255478D01*
X737571Y-255548D01*
X737428Y-255615D01*
X737283Y-255678D01*
X737136Y-255738D01*
X736988Y-255794D01*
X736838Y-255846D01*
X736688Y-255895D01*
X736536Y-255940D01*
X736383Y-255981D01*
X736229Y-256018D01*
X736074Y-256051D01*
X735919Y-256081D01*
X735762Y-256106D01*
X735606Y-256128D01*
X735448Y-256145D01*
X735291Y-256159D01*
X735133Y-256169D01*
X734974Y-256175D01*
X734816Y-256177D01*
X692906Y-256177D01*
X689096Y-256177D01*
X688938Y-256175D01*
X688779Y-256169D01*
X688621Y-256159D01*
X688464Y-256145D01*
X688306Y-256128D01*
X688150Y-256106D01*
X687993Y-256081D01*
X687838Y-256051D01*
X687683Y-256018D01*
X687529Y-255981D01*
X687376Y-255940D01*
X687224Y-255895D01*
X687074Y-255846D01*
X686924Y-255794D01*
X686776Y-255738D01*
X686629Y-255678D01*
X686484Y-255615D01*
X686341Y-255548D01*
X686199Y-255478D01*
X686059Y-255404D01*
X685921Y-255326D01*
X685785Y-255245D01*
X685651Y-255161D01*
X685519Y-255074D01*
X685389Y-254983D01*
X685262Y-254889D01*
X685137Y-254792D01*
X685014Y-254691D01*
X684894Y-254588D01*
X684777Y-254482D01*
X684662Y-254373D01*
X684550Y-254261D01*
X684441Y-254146D01*
X684335Y-254029D01*
X684232Y-253909D01*
X684131Y-253786D01*
X684034Y-253661D01*
X683940Y-253534D01*
X683849Y-253404D01*
X683762Y-253272D01*
X683678Y-253138D01*
X683597Y-253002D01*
X683519Y-252864D01*
X683445Y-252724D01*
X683375Y-252582D01*
X683308Y-252439D01*
X683245Y-252294D01*
X683185Y-252147D01*
X683129Y-251999D01*
X683077Y-251849D01*
X683028Y-251699D01*
X682983Y-251547D01*
X682942Y-251394D01*
X682905Y-251240D01*
X682872Y-251085D01*
X682842Y-250930D01*
X682817Y-250773D01*
X682795Y-250617D01*
X682778Y-250459D01*
X682764Y-250302D01*
X682754Y-250144D01*
X682748Y-249985D01*
X682746Y-249827D01*
X682746Y-211727D01*
X682748Y-211569D01*
X682754Y-211410D01*
X682764Y-211252D01*
X682778Y-211095D01*
X682795Y-210937D01*
X682817Y-210781D01*
X682842Y-210624D01*
X682872Y-210469D01*
X682905Y-210314D01*
X682942Y-210160D01*
X682983Y-210007D01*
X683028Y-209855D01*
X683077Y-209705D01*
X683129Y-209555D01*
X683185Y-209407D01*
X683245Y-209260D01*
X683308Y-209115D01*
X683375Y-208972D01*
X683445Y-208830D01*
X683519Y-208690D01*
X683597Y-208552D01*
X683678Y-208416D01*
X683762Y-208282D01*
X683849Y-208150D01*
X683940Y-208020D01*
X684034Y-207893D01*
X684131Y-207768D01*
X684232Y-207645D01*
X684335Y-207525D01*
X684441Y-207408D01*
X684550Y-207293D01*
X684662Y-207181D01*
X684777Y-207072D01*
X684894Y-206966D01*
X685014Y-206863D01*
X685137Y-206762D01*
X685262Y-206665D01*
X685389Y-206571D01*
X685519Y-206480D01*
X685651Y-206393D01*
X685785Y-206309D01*
X685921Y-206228D01*
X686059Y-206150D01*
X686199Y-206076D01*
X686341Y-206006D01*
X686484Y-205939D01*
X686629Y-205876D01*
X686776Y-205816D01*
X686924Y-205760D01*
X687074Y-205708D01*
X687224Y-205659D01*
X687376Y-205614D01*
X687529Y-205573D01*
X687683Y-205536D01*
X687838Y-205503D01*
X687993Y-205473D01*
X688150Y-205448D01*
X688306Y-205426D01*
X688464Y-205409D01*
X688621Y-205395D01*
X688779Y-205385D01*
X688938Y-205379D01*
X689096Y-205377D01*
X692906Y-205377D01*
X692906Y-256177D01*
X692906Y-205377D02*
X734816Y-205377D01*
X647300Y-120320D02*
X647300Y-79680D01*
X647300Y-120320D02*
X672700Y-120320D01*
X672700Y-79680D01*
X647300Y-79680D01*
X660000Y-93650D02*
X660000Y-100000D01*
X666350Y-110160D02*
X653650Y-110160D01*
X660000Y-100000D01*
X660000Y-115240D01*
X666350Y-110160D02*
X660000Y-100000D01*
X666350Y-100000D01*
X660000Y-100000D02*
X653650Y-100000D01*
D15*
X660000Y-86030D03*
D16*
X660000Y-129845D03*
X660000Y-70155D03*
D14*
X634253Y-117166D02*
X634253Y-182698D01*
X634253Y-117166D02*
X627401Y-117166D01*
X564657Y-117166D02*
X564657Y-182698D01*
X634253Y-182698D01*
X571509Y-117166D02*
X564657Y-117166D01*
D12*
X781500Y-258009D02*
X798500Y-258009D01*
X798500Y-241991D02*
X781500Y-241991D01*
D10*
X629235Y103449D02*
X571735Y103449D01*
X629235Y103449D02*
X629235Y177449D01*
X571735Y177449D01*
X571735Y103449D01*
D13*
X572310Y153449D02*
X577310Y153449D01*
X577310Y127449D02*
X572310Y127449D01*
X577310Y127449D02*
X577310Y153449D01*
D10*
X571735Y13449D02*
X629235Y13449D01*
X629235Y87449D01*
X571735Y87449D01*
X571735Y13449D01*
D13*
X572310Y63449D02*
X577310Y63449D01*
X577310Y37449D02*
X572310Y37449D01*
X577310Y37449D02*
X577310Y63449D01*
D17*
X660000Y210000D02*
X660018Y211472D01*
X660072Y212944D01*
X660163Y214414D01*
X660289Y215881D01*
X660451Y217345D01*
X660649Y218804D01*
X660883Y220258D01*
X661153Y221705D01*
X661458Y223146D01*
X661798Y224579D01*
X662173Y226003D01*
X662584Y227417D01*
X663028Y228821D01*
X663507Y230213D01*
X664020Y231594D01*
X664567Y232961D01*
X665147Y234314D01*
X665761Y235653D01*
X666407Y236977D01*
X667085Y238284D01*
X667795Y239574D01*
X668536Y240846D01*
X669309Y242100D01*
X670112Y243334D01*
X670945Y244548D01*
X671808Y245742D01*
X672699Y246914D01*
X673619Y248064D01*
X674567Y249190D01*
X675543Y250294D01*
X676545Y251372D01*
X677574Y252426D01*
X678628Y253455D01*
X679706Y254457D01*
X680810Y255433D01*
X681936Y256381D01*
X683086Y257301D01*
X684258Y258192D01*
X685452Y259055D01*
X686666Y259888D01*
X687900Y260691D01*
X689154Y261464D01*
X690426Y262205D01*
X691716Y262915D01*
X693023Y263593D01*
X694347Y264239D01*
X695686Y264853D01*
X697039Y265433D01*
X698406Y265980D01*
X699787Y266493D01*
X701179Y266972D01*
X702583Y267416D01*
X703997Y267827D01*
X705421Y268202D01*
X706854Y268542D01*
X708295Y268847D01*
X709742Y269117D01*
X711196Y269351D01*
X712655Y269549D01*
X714119Y269711D01*
X715586Y269837D01*
X717056Y269928D01*
X718528Y269982D01*
X720000Y270000D01*
X721472Y269982D01*
X722944Y269928D01*
X724414Y269837D01*
X725881Y269711D01*
X727345Y269549D01*
X728804Y269351D01*
X730258Y269117D01*
X731705Y268847D01*
X733146Y268542D01*
X734579Y268202D01*
X736003Y267827D01*
X737417Y267416D01*
X738821Y266972D01*
X740213Y266493D01*
X741594Y265980D01*
X742961Y265433D01*
X744314Y264853D01*
X745653Y264239D01*
X746977Y263593D01*
X748284Y262915D01*
X749574Y262205D01*
X750846Y261464D01*
X752100Y260691D01*
X753334Y259888D01*
X754548Y259055D01*
X755742Y258192D01*
X756914Y257301D01*
X758064Y256381D01*
X759190Y255433D01*
X760294Y254457D01*
X761372Y253455D01*
X762426Y252426D01*
X763455Y251372D01*
X764457Y250294D01*
X765433Y249190D01*
X766381Y248064D01*
X767301Y246914D01*
X768192Y245742D01*
X769055Y244548D01*
X769888Y243334D01*
X770691Y242100D01*
X771464Y240846D01*
X772205Y239574D01*
X772915Y238284D01*
X773593Y236977D01*
X774239Y235653D01*
X774853Y234314D01*
X775433Y232961D01*
X775980Y231594D01*
X776493Y230213D01*
X776972Y228821D01*
X777416Y227417D01*
X777827Y226003D01*
X778202Y224579D01*
X778542Y223146D01*
X778847Y221705D01*
X779117Y220258D01*
X779351Y218804D01*
X779549Y217345D01*
X779711Y215881D01*
X779837Y214414D01*
X779928Y212944D01*
X779982Y211472D01*
X780000Y210000D01*
X779982Y208528D01*
X779928Y207056D01*
X779837Y205586D01*
X779711Y204119D01*
X779549Y202655D01*
X779351Y201196D01*
X779117Y199742D01*
X778847Y198295D01*
X778542Y196854D01*
X778202Y195421D01*
X777827Y193997D01*
X777416Y192583D01*
X776972Y191179D01*
X776493Y189787D01*
X775980Y188406D01*
X775433Y187039D01*
X774853Y185686D01*
X774239Y184347D01*
X773593Y183023D01*
X772915Y181716D01*
X772205Y180426D01*
X771464Y179154D01*
X770691Y177900D01*
X769888Y176666D01*
X769055Y175452D01*
X768192Y174258D01*
X767301Y173086D01*
X766381Y171936D01*
X765433Y170810D01*
X764457Y169706D01*
X763455Y168628D01*
X762426Y167574D01*
X761372Y166545D01*
X760294Y165543D01*
X759190Y164567D01*
X758064Y163619D01*
X756914Y162699D01*
X755742Y161808D01*
X754548Y160945D01*
X753334Y160112D01*
X752100Y159309D01*
X750846Y158536D01*
X749574Y157795D01*
X748284Y157085D01*
X746977Y156407D01*
X745653Y155761D01*
X744314Y155147D01*
X742961Y154567D01*
X741594Y154020D01*
X740213Y153507D01*
X738821Y153028D01*
X737417Y152584D01*
X736003Y152173D01*
X734579Y151798D01*
X733146Y151458D01*
X731705Y151153D01*
X730258Y150883D01*
X728804Y150649D01*
X727345Y150451D01*
X725881Y150289D01*
X724414Y150163D01*
X722944Y150072D01*
X721472Y150018D01*
X720000Y150000D01*
X718528Y150018D01*
X717056Y150072D01*
X715586Y150163D01*
X714119Y150289D01*
X712655Y150451D01*
X711196Y150649D01*
X709742Y150883D01*
X708295Y151153D01*
X706854Y151458D01*
X705421Y151798D01*
X703997Y152173D01*
X702583Y152584D01*
X701179Y153028D01*
X699787Y153507D01*
X698406Y154020D01*
X697039Y154567D01*
X695686Y155147D01*
X694347Y155761D01*
X693023Y156407D01*
X691716Y157085D01*
X690426Y157795D01*
X689154Y158536D01*
X687900Y159309D01*
X686666Y160112D01*
X685452Y160945D01*
X684258Y161808D01*
X683086Y162699D01*
X681936Y163619D01*
X680810Y164567D01*
X679706Y165543D01*
X678628Y166545D01*
X677574Y167574D01*
X676545Y168628D01*
X675543Y169706D01*
X674567Y170810D01*
X673619Y171936D01*
X672699Y173086D01*
X671808Y174258D01*
X670945Y175452D01*
X670112Y176666D01*
X669309Y177900D01*
X668536Y179154D01*
X667795Y180426D01*
X667085Y181716D01*
X666407Y183023D01*
X665761Y184347D01*
X665147Y185686D01*
X664567Y187039D01*
X664020Y188406D01*
X663507Y189787D01*
X663028Y191179D01*
X662584Y192583D01*
X662173Y193997D01*
X661798Y195421D01*
X661458Y196854D01*
X661153Y198295D01*
X660883Y199742D01*
X660649Y201196D01*
X660451Y202655D01*
X660289Y204119D01*
X660163Y205586D01*
X660072Y207056D01*
X660018Y208528D01*
X660000Y210000D01*
X671603Y258397D02*
X679103Y258397D01*
X675353Y262147D02*
X675353Y254647D01*
D12*
X761500Y-38009D02*
X778500Y-38009D01*
X778500Y-21991D02*
X761500Y-21991D01*
X761500Y-58009D02*
X778500Y-58009D01*
X778500Y-41991D02*
X761500Y-41991D01*
X761500Y-88009D02*
X778500Y-88009D01*
X778500Y-71991D02*
X761500Y-71991D01*
X761500Y-108009D02*
X778500Y-108009D01*
X778500Y-91991D02*
X761500Y-91991D01*
X761500Y-138009D02*
X778500Y-138009D01*
X778500Y-121991D02*
X761500Y-121991D01*
X761500Y-158009D02*
X778500Y-158009D01*
X778500Y-141991D02*
X761500Y-141991D01*
X581698Y206749D02*
X621650Y227458D01*
X566993Y219908D02*
X556408Y240328D01*
X554132Y259929D02*
X594972Y281099D01*
X609633Y267917D02*
X620217Y247497D01*
X570785Y243924D02*
X570790Y244355D01*
X570806Y244785D01*
X570833Y245215D01*
X570870Y245644D01*
X570917Y246072D01*
X570975Y246499D01*
X571043Y246924D01*
X571122Y247348D01*
X571211Y247769D01*
X571311Y248188D01*
X571421Y248605D01*
X571541Y249018D01*
X571671Y249429D01*
X571811Y249836D01*
X571961Y250240D01*
X572121Y250640D01*
X572291Y251036D01*
X572470Y251428D01*
X572659Y251815D01*
X572857Y252197D01*
X573065Y252574D01*
X573282Y252947D01*
X573508Y253313D01*
X573743Y253674D01*
X573986Y254029D01*
X574239Y254379D01*
X574500Y254721D01*
X574769Y255058D01*
X575046Y255387D01*
X575331Y255710D01*
X575624Y256025D01*
X575925Y256334D01*
X576234Y256635D01*
X576549Y256928D01*
X576872Y257213D01*
X577201Y257490D01*
X577538Y257759D01*
X577880Y258020D01*
X578230Y258273D01*
X578585Y258516D01*
X578946Y258751D01*
X579312Y258977D01*
X579685Y259194D01*
X580062Y259402D01*
X580444Y259600D01*
X580831Y259789D01*
X581223Y259968D01*
X581619Y260138D01*
X582019Y260298D01*
X582423Y260448D01*
X582830Y260588D01*
X583241Y260718D01*
X583654Y260838D01*
X584071Y260948D01*
X584490Y261048D01*
X584911Y261137D01*
X585335Y261216D01*
X585760Y261284D01*
X586187Y261342D01*
X586615Y261389D01*
X587044Y261426D01*
X587474Y261453D01*
X587904Y261469D01*
X588335Y261474D01*
X588766Y261469D01*
X589196Y261453D01*
X589626Y261426D01*
X590055Y261389D01*
X590483Y261342D01*
X590910Y261284D01*
X591335Y261216D01*
X591759Y261137D01*
X592180Y261048D01*
X592599Y260948D01*
X593016Y260838D01*
X593429Y260718D01*
X593840Y260588D01*
X594247Y260448D01*
X594651Y260298D01*
X595051Y260138D01*
X595447Y259968D01*
X595839Y259789D01*
X596226Y259600D01*
X596608Y259402D01*
X596985Y259194D01*
X597358Y258977D01*
X597724Y258751D01*
X598085Y258516D01*
X598440Y258273D01*
X598790Y258020D01*
X599132Y257759D01*
X599469Y257490D01*
X599798Y257213D01*
X600121Y256928D01*
X600436Y256635D01*
X600745Y256334D01*
X601046Y256025D01*
X601339Y255710D01*
X601624Y255387D01*
X601901Y255058D01*
X602170Y254721D01*
X602431Y254379D01*
X602684Y254029D01*
X602927Y253674D01*
X603162Y253313D01*
X603388Y252947D01*
X603605Y252574D01*
X603813Y252197D01*
X604011Y251815D01*
X604200Y251428D01*
X604379Y251036D01*
X604549Y250640D01*
X604709Y250240D01*
X604859Y249836D01*
X604999Y249429D01*
X605129Y249018D01*
X605249Y248605D01*
X605359Y248188D01*
X605459Y247769D01*
X605548Y247348D01*
X605627Y246924D01*
X605695Y246499D01*
X605753Y246072D01*
X605800Y245644D01*
X605837Y245215D01*
X605864Y244785D01*
X605880Y244355D01*
X605885Y243924D01*
X605880Y243493D01*
X605864Y243063D01*
X605837Y242633D01*
X605800Y242204D01*
X605753Y241776D01*
X605695Y241349D01*
X605627Y240924D01*
X605548Y240500D01*
X605459Y240079D01*
X605359Y239660D01*
X605249Y239243D01*
X605129Y238830D01*
X604999Y238419D01*
X604859Y238012D01*
X604709Y237608D01*
X604549Y237208D01*
X604379Y236812D01*
X604200Y236420D01*
X604011Y236033D01*
X603813Y235651D01*
X603605Y235274D01*
X603388Y234901D01*
X603162Y234535D01*
X602927Y234174D01*
X602684Y233819D01*
X602431Y233469D01*
X602170Y233127D01*
X601901Y232790D01*
X601624Y232461D01*
X601339Y232138D01*
X601046Y231823D01*
X600745Y231514D01*
X600436Y231213D01*
X600121Y230920D01*
X599798Y230635D01*
X599469Y230358D01*
X599132Y230089D01*
X598790Y229828D01*
X598440Y229575D01*
X598085Y229332D01*
X597724Y229097D01*
X597358Y228871D01*
X596985Y228654D01*
X596608Y228446D01*
X596226Y228248D01*
X595839Y228059D01*
X595447Y227880D01*
X595051Y227710D01*
X594651Y227550D01*
X594247Y227400D01*
X593840Y227260D01*
X593429Y227130D01*
X593016Y227010D01*
X592599Y226900D01*
X592180Y226800D01*
X591759Y226711D01*
X591335Y226632D01*
X590910Y226564D01*
X590483Y226506D01*
X590055Y226459D01*
X589626Y226422D01*
X589196Y226395D01*
X588766Y226379D01*
X588335Y226374D01*
X587904Y226379D01*
X587474Y226395D01*
X587044Y226422D01*
X586615Y226459D01*
X586187Y226506D01*
X585760Y226564D01*
X585335Y226632D01*
X584911Y226711D01*
X584490Y226800D01*
X584071Y226900D01*
X583654Y227010D01*
X583241Y227130D01*
X582830Y227260D01*
X582423Y227400D01*
X582019Y227550D01*
X581619Y227710D01*
X581223Y227880D01*
X580831Y228059D01*
X580444Y228248D01*
X580062Y228446D01*
X579685Y228654D01*
X579312Y228871D01*
X578946Y229097D01*
X578585Y229332D01*
X578230Y229575D01*
X577880Y229828D01*
X577538Y230089D01*
X577201Y230358D01*
X576872Y230635D01*
X576549Y230920D01*
X576234Y231213D01*
X575925Y231514D01*
X575624Y231823D01*
X575331Y232138D01*
X575046Y232461D01*
X574769Y232790D01*
X574500Y233127D01*
X574239Y233469D01*
X573986Y233819D01*
X573743Y234174D01*
X573508Y234535D01*
X573282Y234901D01*
X573065Y235274D01*
X572857Y235651D01*
X572659Y236033D01*
X572470Y236420D01*
X572291Y236812D01*
X572121Y237208D01*
X571961Y237608D01*
X571811Y238012D01*
X571671Y238419D01*
X571541Y238830D01*
X571421Y239243D01*
X571311Y239660D01*
X571211Y240079D01*
X571122Y240500D01*
X571043Y240924D01*
X570975Y241349D01*
X570917Y241776D01*
X570870Y242204D01*
X570833Y242633D01*
X570806Y243063D01*
X570790Y243493D01*
X570785Y243924D01*
D13*
X558226Y203492D02*
X558228Y203555D01*
X558234Y203617D01*
X558244Y203679D01*
X558257Y203741D01*
X558275Y203801D01*
X558296Y203860D01*
X558321Y203918D01*
X558350Y203974D01*
X558382Y204028D01*
X558417Y204080D01*
X558455Y204129D01*
X558497Y204177D01*
X558541Y204221D01*
X558589Y204263D01*
X558638Y204301D01*
X558690Y204336D01*
X558744Y204368D01*
X558800Y204397D01*
X558858Y204422D01*
X558917Y204443D01*
X558977Y204461D01*
X559039Y204474D01*
X559101Y204484D01*
X559163Y204490D01*
X559226Y204492D01*
X559289Y204490D01*
X559351Y204484D01*
X559413Y204474D01*
X559475Y204461D01*
X559535Y204443D01*
X559594Y204422D01*
X559652Y204397D01*
X559708Y204368D01*
X559762Y204336D01*
X559814Y204301D01*
X559863Y204263D01*
X559911Y204221D01*
X559955Y204177D01*
X559997Y204129D01*
X560035Y204080D01*
X560070Y204028D01*
X560102Y203974D01*
X560131Y203918D01*
X560156Y203860D01*
X560177Y203801D01*
X560195Y203741D01*
X560208Y203679D01*
X560218Y203617D01*
X560224Y203555D01*
X560226Y203492D01*
X560224Y203429D01*
X560218Y203367D01*
X560208Y203305D01*
X560195Y203243D01*
X560177Y203183D01*
X560156Y203124D01*
X560131Y203066D01*
X560102Y203010D01*
X560070Y202956D01*
X560035Y202904D01*
X559997Y202855D01*
X559955Y202807D01*
X559911Y202763D01*
X559863Y202721D01*
X559814Y202683D01*
X559762Y202648D01*
X559708Y202616D01*
X559652Y202587D01*
X559594Y202562D01*
X559535Y202541D01*
X559475Y202523D01*
X559413Y202510D01*
X559351Y202500D01*
X559289Y202494D01*
X559226Y202492D01*
X559163Y202494D01*
X559101Y202500D01*
X559039Y202510D01*
X558977Y202523D01*
X558917Y202541D01*
X558858Y202562D01*
X558800Y202587D01*
X558744Y202616D01*
X558690Y202648D01*
X558638Y202683D01*
X558589Y202721D01*
X558541Y202763D01*
X558497Y202807D01*
X558455Y202855D01*
X558417Y202904D01*
X558382Y202956D01*
X558350Y203010D01*
X558321Y203066D01*
X558296Y203124D01*
X558275Y203183D01*
X558257Y203243D01*
X558244Y203305D01*
X558234Y203367D01*
X558228Y203429D01*
X558226Y203492D01*
M02*
