G04 EAGLE Gerber RS-274X export*
G75*
%MOMM*%
%FSLAX34Y34*%
%LPD*%
%INSolderpaste Top*%
%IPPOS*%
%AMOC8*
5,1,8,0,0,1.08239X$1,22.5*%
G01*
G04 Define Apertures*
%ADD10R,0.575000X1.150000*%
%ADD11R,0.275000X1.150000*%
%ADD12R,1.150000X0.575000*%
%ADD13R,1.150000X0.275000*%
%ADD14R,0.798700X0.973900*%
%ADD15R,0.973900X0.798700*%
%ADD16R,0.909000X0.908000*%
%ADD17R,4.923800X5.505400*%
G36*
X914985Y128811D02*
X915360Y127616D01*
X915464Y126311D01*
X915276Y125016D01*
X914803Y123795D01*
X914071Y122709D01*
X913116Y121814D01*
X911985Y121154D01*
X910777Y120774D01*
X901219Y118916D01*
X899956Y118815D01*
X898661Y119004D01*
X897440Y119476D01*
X896354Y120208D01*
X895459Y121164D01*
X894799Y122294D01*
X894407Y123544D01*
X894307Y124792D01*
X894487Y126031D01*
X894939Y127199D01*
X895639Y128238D01*
X896553Y129094D01*
X897635Y129726D01*
X898788Y130088D01*
X908846Y132043D01*
X910051Y132139D01*
X911291Y131959D01*
X912459Y131507D01*
X913497Y130807D01*
X914353Y129893D01*
X914985Y128811D01*
G37*
G36*
X898165Y-216662D02*
X898065Y-217910D01*
X897673Y-219159D01*
X897013Y-220290D01*
X896118Y-221245D01*
X895032Y-221977D01*
X893811Y-222449D01*
X892515Y-222638D01*
X891253Y-222537D01*
X881695Y-220679D01*
X880487Y-220300D01*
X879356Y-219640D01*
X878401Y-218744D01*
X877668Y-217659D01*
X877196Y-216438D01*
X877008Y-215142D01*
X877112Y-213837D01*
X877487Y-212642D01*
X878119Y-211561D01*
X878975Y-210647D01*
X880013Y-209947D01*
X881181Y-209495D01*
X882421Y-209314D01*
X883626Y-209411D01*
X893684Y-211366D01*
X894837Y-211728D01*
X895919Y-212360D01*
X896833Y-213216D01*
X897533Y-214254D01*
X897985Y-215422D01*
X898165Y-216662D01*
G37*
G36*
X939205Y-224510D02*
X939105Y-225758D01*
X938713Y-227007D01*
X938052Y-228138D01*
X937157Y-229093D01*
X936072Y-229825D01*
X934851Y-230297D01*
X933555Y-230486D01*
X932293Y-230385D01*
X922734Y-228527D01*
X921526Y-228148D01*
X920396Y-227488D01*
X919440Y-226592D01*
X918708Y-225507D01*
X918236Y-224286D01*
X918047Y-222990D01*
X918151Y-221685D01*
X918527Y-220490D01*
X919158Y-219409D01*
X920015Y-218495D01*
X921053Y-217794D01*
X922221Y-217343D01*
X923460Y-217162D01*
X924666Y-217259D01*
X934723Y-219214D01*
X935877Y-219576D01*
X936958Y-220207D01*
X937872Y-221064D01*
X938573Y-222102D01*
X939024Y-223270D01*
X939205Y-224510D01*
G37*
G36*
X955976Y136909D02*
X956351Y135714D01*
X956455Y134409D01*
X956267Y133113D01*
X955795Y131892D01*
X955062Y130806D01*
X954107Y129911D01*
X952976Y129251D01*
X951768Y128872D01*
X942210Y127014D01*
X940948Y126913D01*
X939652Y127101D01*
X938431Y127574D01*
X937345Y128306D01*
X936450Y129261D01*
X935790Y130392D01*
X935398Y131641D01*
X935298Y132889D01*
X935478Y134129D01*
X935930Y135297D01*
X936630Y136335D01*
X937544Y137191D01*
X938626Y137823D01*
X939779Y138185D01*
X949837Y140140D01*
X951042Y140236D01*
X952282Y140056D01*
X953450Y139604D01*
X954488Y138904D01*
X955344Y137990D01*
X955976Y136909D01*
G37*
G36*
X898358Y213685D02*
X898733Y212490D01*
X898837Y211185D01*
X898648Y209890D01*
X898176Y208668D01*
X897444Y207583D01*
X896489Y206688D01*
X895358Y206027D01*
X894150Y205648D01*
X884591Y203790D01*
X883329Y203689D01*
X882034Y203878D01*
X880813Y204350D01*
X879727Y205082D01*
X878832Y206038D01*
X878172Y207168D01*
X877779Y208417D01*
X877680Y209666D01*
X877860Y210905D01*
X878312Y212073D01*
X879012Y213111D01*
X879926Y213968D01*
X881007Y214599D01*
X882161Y214962D01*
X892219Y216917D01*
X893424Y217013D01*
X894663Y216832D01*
X895831Y216381D01*
X896870Y215680D01*
X897726Y214767D01*
X898358Y213685D01*
G37*
G36*
X923975Y44552D02*
X924116Y43307D01*
X923969Y42006D01*
X923537Y40770D01*
X922840Y39662D01*
X921914Y38736D01*
X920806Y38039D01*
X919570Y37607D01*
X918312Y37465D01*
X908574Y37465D01*
X907316Y37607D01*
X906080Y38039D01*
X904971Y38736D01*
X904046Y39662D01*
X903349Y40770D01*
X902917Y42006D01*
X902770Y43307D01*
X902910Y44552D01*
X903324Y45734D01*
X903990Y46794D01*
X904876Y47680D01*
X905936Y48346D01*
X907118Y48760D01*
X908320Y48895D01*
X918566Y48895D01*
X919767Y48760D01*
X920950Y48346D01*
X922010Y47680D01*
X922896Y46794D01*
X923562Y45734D01*
X923975Y44552D01*
G37*
G36*
X924102Y-41936D02*
X924243Y-43180D01*
X924096Y-44481D01*
X923664Y-45717D01*
X922967Y-46825D01*
X922041Y-47751D01*
X920933Y-48448D01*
X919697Y-48880D01*
X918439Y-49022D01*
X908701Y-49022D01*
X907443Y-48880D01*
X906207Y-48448D01*
X905098Y-47751D01*
X904173Y-46825D01*
X903476Y-45717D01*
X903044Y-44481D01*
X902897Y-43180D01*
X903037Y-41936D01*
X903451Y-40753D01*
X904117Y-39693D01*
X905003Y-38807D01*
X906063Y-38141D01*
X907245Y-37727D01*
X908447Y-37592D01*
X918693Y-37592D01*
X919894Y-37727D01*
X921077Y-38141D01*
X922137Y-38807D01*
X923023Y-39693D01*
X923689Y-40753D01*
X924102Y-41936D01*
G37*
G36*
X965885Y-41809D02*
X966026Y-43053D01*
X965879Y-44354D01*
X965447Y-45590D01*
X964750Y-46698D01*
X963824Y-47624D01*
X962716Y-48321D01*
X961480Y-48753D01*
X960222Y-48895D01*
X950484Y-48895D01*
X949226Y-48753D01*
X947990Y-48321D01*
X946881Y-47624D01*
X945956Y-46698D01*
X945259Y-45590D01*
X944827Y-44354D01*
X944680Y-43053D01*
X944820Y-41809D01*
X945234Y-40626D01*
X945900Y-39566D01*
X946786Y-38680D01*
X947846Y-38014D01*
X949028Y-37600D01*
X950230Y-37465D01*
X960476Y-37465D01*
X961677Y-37600D01*
X962860Y-38014D01*
X963920Y-38680D01*
X964806Y-39566D01*
X965472Y-40626D01*
X965885Y-41809D01*
G37*
G36*
X965885Y44552D02*
X966026Y43307D01*
X965879Y42006D01*
X965447Y40770D01*
X964750Y39662D01*
X963824Y38736D01*
X962716Y38039D01*
X961480Y37607D01*
X960222Y37465D01*
X950484Y37465D01*
X949226Y37607D01*
X947990Y38039D01*
X946881Y38736D01*
X945956Y39662D01*
X945259Y40770D01*
X944827Y42006D01*
X944680Y43307D01*
X944820Y44552D01*
X945234Y45734D01*
X945900Y46794D01*
X946786Y47680D01*
X947846Y48346D01*
X949028Y48760D01*
X950230Y48895D01*
X960476Y48895D01*
X961677Y48760D01*
X962860Y48346D01*
X963920Y47680D01*
X964806Y46794D01*
X965472Y45734D01*
X965885Y44552D01*
G37*
G36*
X939498Y221682D02*
X939873Y220487D01*
X939977Y219182D01*
X939788Y217886D01*
X939316Y216665D01*
X938584Y215580D01*
X937629Y214684D01*
X936498Y214024D01*
X935290Y213645D01*
X925731Y211787D01*
X924469Y211686D01*
X923174Y211875D01*
X921953Y212347D01*
X920867Y213079D01*
X919972Y214034D01*
X919312Y215165D01*
X918919Y216414D01*
X918820Y217662D01*
X919000Y218902D01*
X919452Y220070D01*
X920152Y221108D01*
X921066Y221965D01*
X922147Y222596D01*
X923301Y222958D01*
X933359Y224913D01*
X934564Y225010D01*
X935803Y224829D01*
X936971Y224378D01*
X938010Y223677D01*
X938866Y222763D01*
X939498Y221682D01*
G37*
G36*
X914543Y-131739D02*
X914443Y-132988D01*
X914051Y-134237D01*
X913391Y-135368D01*
X912495Y-136323D01*
X911410Y-137055D01*
X910189Y-137527D01*
X908893Y-137716D01*
X907631Y-137615D01*
X898072Y-135757D01*
X896864Y-135378D01*
X895734Y-134717D01*
X894778Y-133822D01*
X894046Y-132737D01*
X893574Y-131516D01*
X893385Y-130220D01*
X893490Y-128915D01*
X893865Y-127720D01*
X894496Y-126638D01*
X895353Y-125725D01*
X896391Y-125024D01*
X897559Y-124573D01*
X898799Y-124392D01*
X900004Y-124489D01*
X910061Y-126443D01*
X911215Y-126806D01*
X912297Y-127437D01*
X913210Y-128294D01*
X913911Y-129332D01*
X914363Y-130500D01*
X914543Y-131739D01*
G37*
G36*
X955683Y-139736D02*
X955583Y-140985D01*
X955191Y-142234D01*
X954531Y-143364D01*
X953635Y-144320D01*
X952550Y-145052D01*
X951329Y-145524D01*
X950033Y-145713D01*
X948771Y-145612D01*
X939212Y-143754D01*
X938004Y-143375D01*
X936874Y-142714D01*
X935918Y-141819D01*
X935186Y-140734D01*
X934714Y-139512D01*
X934525Y-138217D01*
X934630Y-136912D01*
X935005Y-135717D01*
X935636Y-134635D01*
X936493Y-133722D01*
X937531Y-133021D01*
X938699Y-132569D01*
X939939Y-132389D01*
X941144Y-132485D01*
X951201Y-134440D01*
X952355Y-134803D01*
X953437Y-135434D01*
X954350Y-136291D01*
X955051Y-137329D01*
X955502Y-138497D01*
X955683Y-139736D01*
G37*
D10*
G36*
X902218Y139380D02*
X903315Y133736D01*
X892028Y131542D01*
X890931Y137186D01*
X902218Y139380D01*
G37*
G36*
X900692Y147233D02*
X901789Y141589D01*
X890502Y139395D01*
X889405Y145039D01*
X900692Y147233D01*
G37*
D11*
G36*
X898784Y157049D02*
X899309Y154351D01*
X888022Y152157D01*
X887497Y154855D01*
X898784Y157049D01*
G37*
G36*
X896875Y166865D02*
X897400Y164167D01*
X886113Y161973D01*
X885588Y164671D01*
X896875Y166865D01*
G37*
G36*
X895921Y171773D02*
X896446Y169075D01*
X885159Y166881D01*
X884634Y169579D01*
X895921Y171773D01*
G37*
G36*
X894013Y181589D02*
X894538Y178891D01*
X883251Y176697D01*
X882726Y179395D01*
X894013Y181589D01*
G37*
D10*
G36*
X890007Y202204D02*
X891104Y196560D01*
X879817Y194366D01*
X878720Y200010D01*
X890007Y202204D01*
G37*
G36*
X891533Y194351D02*
X892630Y188707D01*
X881343Y186513D01*
X880246Y192157D01*
X891533Y194351D01*
G37*
D11*
G36*
X893059Y186497D02*
X893584Y183799D01*
X882297Y181605D01*
X881772Y184303D01*
X893059Y186497D01*
G37*
G36*
X894967Y176681D02*
X895492Y173983D01*
X884205Y171789D01*
X883680Y174487D01*
X894967Y176681D01*
G37*
G36*
X897830Y161957D02*
X898355Y159259D01*
X887068Y157065D01*
X886543Y159763D01*
X897830Y161957D01*
G37*
G36*
X899738Y152140D02*
X900263Y149442D01*
X888976Y147248D01*
X888451Y149946D01*
X899738Y152140D01*
G37*
D12*
X907838Y-32000D03*
X907838Y-24000D03*
D13*
X907838Y-12500D03*
X907838Y-2500D03*
X907838Y2500D03*
X907838Y12500D03*
D12*
X907838Y32000D03*
X907838Y24000D03*
D13*
X907838Y17500D03*
X907838Y7500D03*
X907838Y-7500D03*
X907838Y-17500D03*
D10*
G36*
X890287Y-202080D02*
X889190Y-207724D01*
X877903Y-205530D01*
X879000Y-199886D01*
X890287Y-202080D01*
G37*
G36*
X891814Y-194227D02*
X890717Y-199871D01*
X879430Y-197677D01*
X880527Y-192033D01*
X891814Y-194227D01*
G37*
D11*
G36*
X893722Y-184412D02*
X893197Y-187110D01*
X881910Y-184916D01*
X882435Y-182218D01*
X893722Y-184412D01*
G37*
G36*
X895630Y-174595D02*
X895105Y-177293D01*
X883818Y-175099D01*
X884343Y-172401D01*
X895630Y-174595D01*
G37*
G36*
X896584Y-169687D02*
X896059Y-172385D01*
X884772Y-170191D01*
X885297Y-167493D01*
X896584Y-169687D01*
G37*
G36*
X898492Y-159871D02*
X897967Y-162569D01*
X886680Y-160375D01*
X887205Y-157677D01*
X898492Y-159871D01*
G37*
D10*
G36*
X902499Y-139256D02*
X901402Y-144900D01*
X890115Y-142706D01*
X891212Y-137062D01*
X902499Y-139256D01*
G37*
G36*
X900972Y-147109D02*
X899875Y-152753D01*
X888588Y-150559D01*
X889685Y-144915D01*
X900972Y-147109D01*
G37*
D11*
G36*
X899446Y-154963D02*
X898921Y-157661D01*
X887634Y-155467D01*
X888159Y-152769D01*
X899446Y-154963D01*
G37*
G36*
X897538Y-164779D02*
X897013Y-167477D01*
X885726Y-165283D01*
X886251Y-162585D01*
X897538Y-164779D01*
G37*
G36*
X894676Y-179503D02*
X894151Y-182201D01*
X882864Y-180007D01*
X883389Y-177309D01*
X894676Y-179503D01*
G37*
G36*
X892768Y-189320D02*
X892243Y-192018D01*
X880956Y-189824D01*
X881481Y-187126D01*
X892768Y-189320D01*
G37*
D14*
X571848Y-250000D03*
X588152Y-250000D03*
D15*
X640000Y111848D03*
X640000Y128152D03*
D16*
X576341Y-198835D03*
X599455Y-198835D03*
X622569Y-198835D03*
D17*
X599455Y-124016D03*
D14*
X798152Y-250000D03*
X781848Y-250000D03*
X778152Y-30000D03*
X761848Y-30000D03*
X778152Y-50000D03*
X761848Y-50000D03*
X778152Y-80000D03*
X761848Y-80000D03*
X778152Y-100000D03*
X761848Y-100000D03*
X778152Y-130000D03*
X761848Y-130000D03*
X778152Y-150000D03*
X761848Y-150000D03*
M02*
