G04 EAGLE Gerber RS-274X export*
G75*
%MOMM*%
%FSLAX34Y34*%
%LPD*%
%IN*%
%IPPOS*%
%AMOC8*
5,1,8,0,0,1.08239X$1,22.5*%
G01*
G04 Define Apertures*
%ADD10C,0.254000*%
D10*
X-185000Y-120000D02*
X-184886Y-122615D01*
X-184544Y-125209D01*
X-183978Y-127765D01*
X-183191Y-130261D01*
X-182189Y-132679D01*
X-180981Y-135000D01*
X-179575Y-137207D01*
X-177981Y-139284D01*
X-176213Y-141213D01*
X-174284Y-142981D01*
X-172207Y-144575D01*
X-170000Y-145981D01*
X-167679Y-147189D01*
X-165261Y-148191D01*
X-162765Y-148978D01*
X-160209Y-149544D01*
X-157615Y-149886D01*
X-155000Y-150000D01*
X155000Y-150000D01*
X157615Y-149886D01*
X160209Y-149544D01*
X162765Y-148978D01*
X165261Y-148191D01*
X167679Y-147189D01*
X170000Y-145981D01*
X172207Y-144575D01*
X174284Y-142981D01*
X176213Y-141213D01*
X177981Y-139284D01*
X179575Y-137207D01*
X180981Y-135000D01*
X182189Y-132679D01*
X183191Y-130261D01*
X183978Y-127765D01*
X184544Y-125209D01*
X184886Y-122615D01*
X185000Y-120000D01*
X185000Y112574D01*
X184886Y115188D01*
X184544Y117783D01*
X183978Y120338D01*
X183191Y122834D01*
X182189Y125252D01*
X180981Y127574D01*
X179575Y129781D01*
X177981Y131857D01*
X176213Y133787D01*
X128787Y181213D01*
X126857Y182981D01*
X124781Y184575D01*
X122574Y185981D01*
X120252Y187189D01*
X117834Y188191D01*
X115338Y188978D01*
X112783Y189544D01*
X110188Y189886D01*
X107574Y190000D01*
X-107574Y190000D01*
X-110188Y189886D01*
X-112783Y189544D01*
X-115338Y188978D01*
X-117834Y188191D01*
X-120252Y187189D01*
X-122574Y185981D01*
X-124781Y184575D01*
X-126857Y182981D01*
X-128787Y181213D01*
X-176213Y133787D01*
X-177981Y131857D01*
X-179575Y129781D01*
X-180981Y127574D01*
X-182189Y125252D01*
X-183191Y122834D01*
X-183978Y120338D01*
X-184544Y117783D01*
X-184886Y115188D01*
X-185000Y112574D01*
X-185000Y-120000D01*
M02*
