G04 EAGLE Gerber RS-274X export*
G75*
%MOMM*%
%FSLAX34Y34*%
%LPD*%
%INSilkscreen Top*%
%IPPOS*%
%AMOC8*
5,1,8,0,0,1.08239X$1,22.5*%
G01*
G04 Define Apertures*
%ADD10C,0.127000*%
%ADD11C,0.152400*%
%ADD12C,0.254000*%
%ADD13C,0.200000*%
%ADD14C,0.120000*%
G36*
X34995Y-68475D02*
X33019Y-66499D01*
X35893Y-63626D01*
X37868Y-65601D01*
X34995Y-68475D01*
G37*
G36*
X39428Y-119910D02*
X36555Y-117036D01*
X38530Y-115061D01*
X41404Y-117934D01*
X39428Y-119910D01*
G37*
G36*
X-31281Y19727D02*
X-27217Y19727D01*
X-27217Y16933D01*
X-31281Y16933D01*
X-31281Y19727D01*
G37*
G36*
X27217Y-56933D02*
X31281Y-56933D01*
X31281Y-59727D01*
X27217Y-59727D01*
X27217Y-56933D01*
G37*
G36*
X87328Y-50797D02*
X84454Y-47924D01*
X86430Y-45948D01*
X89303Y-48822D01*
X87328Y-50797D01*
G37*
G36*
X89965Y-130517D02*
X87990Y-128541D01*
X90863Y-125667D01*
X92839Y-127643D01*
X89965Y-130517D01*
G37*
G36*
X92057Y110428D02*
X90883Y110822D01*
X91821Y113161D01*
X89219Y113056D01*
X89219Y114247D01*
X91803Y114133D01*
X90901Y116445D01*
X92057Y116840D01*
X92696Y114370D01*
X94886Y115990D01*
X95517Y114948D01*
X93257Y113634D01*
X95499Y112268D01*
X94869Y111225D01*
X92696Y112881D01*
X92057Y110428D01*
G37*
G36*
X26057Y110912D02*
X24883Y111306D01*
X25821Y113645D01*
X23219Y113540D01*
X23219Y114731D01*
X25803Y114617D01*
X24901Y116929D01*
X26057Y117324D01*
X26696Y114854D01*
X28886Y116474D01*
X29517Y115432D01*
X27257Y114118D01*
X29499Y112752D01*
X28869Y111709D01*
X26696Y113365D01*
X26057Y110912D01*
G37*
G36*
X-38943Y110428D02*
X-40117Y110822D01*
X-39180Y113161D01*
X-41781Y113056D01*
X-41781Y114247D01*
X-39197Y114133D01*
X-40099Y116445D01*
X-38943Y116840D01*
X-38304Y114370D01*
X-36114Y115990D01*
X-35483Y114948D01*
X-37743Y113634D01*
X-35501Y112268D01*
X-36132Y111225D01*
X-38304Y112881D01*
X-38943Y110428D01*
G37*
G36*
X-40530Y-56724D02*
X-41704Y-56330D01*
X-40767Y-53991D01*
X-43368Y-54096D01*
X-43368Y-52905D01*
X-40784Y-53019D01*
X-41686Y-50707D01*
X-40530Y-50313D01*
X-39891Y-52783D01*
X-37701Y-51162D01*
X-37070Y-52205D01*
X-39330Y-53518D01*
X-37088Y-54885D01*
X-37719Y-55927D01*
X-39891Y-54272D01*
X-40530Y-56724D01*
G37*
G36*
X121936Y-80007D02*
X121571Y-77301D01*
X119385Y-78583D01*
X118833Y-77474D01*
X121150Y-76483D01*
X119236Y-74718D01*
X120078Y-73876D01*
X121825Y-75784D01*
X122822Y-73511D01*
X123918Y-74049D01*
X122624Y-76248D01*
X125318Y-76651D01*
X125027Y-77833D01*
X122500Y-77165D01*
X123119Y-79716D01*
X121936Y-80007D01*
G37*
D10*
X-78750Y-37991D02*
X-61250Y-37991D01*
X-61250Y-22009D02*
X-78750Y-22009D01*
X-78750Y-42009D02*
X-61250Y-42009D01*
X-61250Y-57991D02*
X-78750Y-57991D01*
X-78750Y-62009D02*
X-61250Y-62009D01*
X-61250Y-77991D02*
X-78750Y-77991D01*
D11*
X39711Y61172D02*
X39711Y102828D01*
X92289Y102828D02*
X92289Y61172D01*
D10*
X-177218Y28500D02*
X-177218Y11500D01*
X-161200Y11500D02*
X-161200Y28500D01*
D11*
X-26289Y61656D02*
X-26289Y103312D01*
X26289Y103312D02*
X26289Y61656D01*
X-91289Y61172D02*
X-91289Y102828D01*
X-38711Y102828D02*
X-38711Y61172D01*
D10*
X141500Y61991D02*
X158500Y61991D01*
X158500Y78009D02*
X141500Y78009D01*
X128500Y78009D02*
X111500Y78009D01*
X111500Y61991D02*
X128500Y61991D01*
X-71991Y131500D02*
X-71991Y148500D01*
X-88009Y148500D02*
X-88009Y131500D01*
X141500Y41991D02*
X158500Y41991D01*
X158500Y58009D02*
X141500Y58009D01*
X128500Y58009D02*
X111500Y58009D01*
X111500Y41991D02*
X128500Y41991D01*
X-91991Y131500D02*
X-91991Y148500D01*
X-108009Y148500D02*
X-108009Y131500D01*
D11*
X34290Y3749D02*
X34290Y-43749D01*
X-34290Y-43749D02*
X-34290Y3749D01*
D12*
X-49500Y126075D02*
X-49500Y183575D01*
X-49500Y126075D02*
X49500Y126075D01*
X49500Y183575D01*
X-49500Y183575D01*
X26000Y183000D02*
X26000Y178000D01*
X-25000Y178000D02*
X-25000Y183000D01*
X-109913Y43000D02*
X-167413Y43000D01*
X-109913Y43000D02*
X-109913Y117000D01*
X-167413Y117000D01*
X-167413Y43000D01*
D13*
X-166838Y93000D02*
X-161838Y93000D01*
X-161838Y67000D02*
X-166838Y67000D01*
X-161838Y67000D02*
X-161838Y93000D01*
D11*
X143582Y-81933D02*
X149932Y-88283D01*
X143582Y-81933D02*
X143582Y-69233D01*
X149932Y-62883D01*
X162632Y-62883D01*
X168982Y-69233D01*
X168982Y-81933D01*
X162632Y-88283D01*
X143582Y-120033D02*
X143582Y-132733D01*
X143582Y-120033D02*
X149932Y-113683D01*
X162632Y-113683D01*
X168982Y-120033D01*
X149932Y-113683D02*
X143582Y-107333D01*
X143582Y-94633D01*
X149932Y-88283D01*
X162632Y-88283D01*
X168982Y-94633D01*
X168982Y-107333D01*
X162632Y-113683D01*
X162632Y-139083D02*
X149932Y-139083D01*
X143582Y-132733D01*
X162632Y-139083D02*
X168982Y-132733D01*
X168982Y-120033D01*
X143582Y-56533D02*
X143582Y-43833D01*
X149932Y-37483D01*
X162632Y-37483D01*
X168982Y-43833D01*
X149932Y-62883D02*
X143582Y-56533D01*
X162632Y-62883D02*
X168982Y-56533D01*
X168982Y-43833D01*
X70000Y-37915D02*
X66656Y-41258D01*
X17915Y-90000D02*
X21258Y-93344D01*
X70000Y-142085D02*
X73344Y-138742D01*
X122085Y-90000D02*
X118742Y-86656D01*
X73344Y-41258D02*
X70000Y-37915D01*
X21258Y-86656D02*
X17915Y-90000D01*
X66656Y-138742D02*
X70000Y-142085D01*
X118742Y-93344D02*
X122085Y-90000D01*
D10*
X-22009Y-91250D02*
X-22009Y-108750D01*
X-37991Y-108750D02*
X-37991Y-91250D01*
X11250Y-142218D02*
X28750Y-142218D01*
X28750Y-126236D02*
X11250Y-126236D01*
X-2009Y-108750D02*
X-2009Y-91250D01*
X-17991Y-91250D02*
X-17991Y-108750D01*
D14*
X-22000Y-126820D02*
X-43099Y-126820D01*
X-43099Y-142218D01*
X-22000Y-142218D01*
D10*
X-61500Y-126200D02*
X-78500Y-126200D01*
X-78500Y-142218D02*
X-61500Y-142218D01*
X111500Y-41991D02*
X128500Y-41991D01*
X128500Y-58009D02*
X111500Y-58009D01*
X138009Y-111500D02*
X138009Y-128500D01*
X121991Y-128500D02*
X121991Y-111500D01*
D11*
X-126467Y-100287D02*
X-133533Y-100287D01*
X-113236Y-100287D02*
X-113236Y-79713D01*
X-124033Y-79713D01*
X-146764Y-79713D02*
X-146764Y-100287D01*
X-146764Y-79713D02*
X-135967Y-79713D01*
X-156924Y-104986D02*
X-156926Y-105056D01*
X-156932Y-105126D01*
X-156941Y-105195D01*
X-156955Y-105264D01*
X-156972Y-105332D01*
X-156993Y-105398D01*
X-157017Y-105464D01*
X-157045Y-105528D01*
X-157077Y-105590D01*
X-157112Y-105651D01*
X-157150Y-105710D01*
X-157192Y-105766D01*
X-157236Y-105820D01*
X-157284Y-105872D01*
X-157334Y-105920D01*
X-157387Y-105966D01*
X-157442Y-106009D01*
X-157499Y-106049D01*
X-157559Y-106086D01*
X-157621Y-106119D01*
X-157684Y-106149D01*
X-157749Y-106175D01*
X-157815Y-106198D01*
X-157882Y-106217D01*
X-157951Y-106232D01*
X-158020Y-106244D01*
X-158089Y-106252D01*
X-158159Y-106256D01*
X-158229Y-106256D01*
X-158299Y-106252D01*
X-158368Y-106244D01*
X-158437Y-106232D01*
X-158506Y-106217D01*
X-158573Y-106198D01*
X-158639Y-106175D01*
X-158704Y-106149D01*
X-158767Y-106119D01*
X-158829Y-106086D01*
X-158889Y-106049D01*
X-158946Y-106009D01*
X-159001Y-105966D01*
X-159054Y-105920D01*
X-159104Y-105872D01*
X-159152Y-105820D01*
X-159196Y-105766D01*
X-159238Y-105710D01*
X-159276Y-105651D01*
X-159311Y-105590D01*
X-159343Y-105528D01*
X-159371Y-105464D01*
X-159395Y-105398D01*
X-159416Y-105332D01*
X-159433Y-105264D01*
X-159447Y-105195D01*
X-159456Y-105126D01*
X-159462Y-105056D01*
X-159464Y-104986D01*
X-159462Y-104916D01*
X-159456Y-104846D01*
X-159447Y-104777D01*
X-159433Y-104708D01*
X-159416Y-104640D01*
X-159395Y-104574D01*
X-159371Y-104508D01*
X-159343Y-104444D01*
X-159311Y-104382D01*
X-159276Y-104321D01*
X-159238Y-104262D01*
X-159196Y-104206D01*
X-159152Y-104152D01*
X-159104Y-104100D01*
X-159054Y-104052D01*
X-159001Y-104006D01*
X-158946Y-103963D01*
X-158889Y-103923D01*
X-158829Y-103886D01*
X-158767Y-103853D01*
X-158704Y-103823D01*
X-158639Y-103797D01*
X-158573Y-103774D01*
X-158506Y-103755D01*
X-158437Y-103740D01*
X-158368Y-103728D01*
X-158299Y-103720D01*
X-158229Y-103716D01*
X-158159Y-103716D01*
X-158089Y-103720D01*
X-158020Y-103728D01*
X-157951Y-103740D01*
X-157882Y-103755D01*
X-157815Y-103774D01*
X-157749Y-103797D01*
X-157684Y-103823D01*
X-157621Y-103853D01*
X-157559Y-103886D01*
X-157499Y-103923D01*
X-157442Y-103963D01*
X-157387Y-104006D01*
X-157334Y-104052D01*
X-157284Y-104100D01*
X-157236Y-104152D01*
X-157192Y-104206D01*
X-157150Y-104262D01*
X-157112Y-104321D01*
X-157077Y-104382D01*
X-157045Y-104444D01*
X-157017Y-104508D01*
X-156993Y-104574D01*
X-156972Y-104640D01*
X-156955Y-104708D01*
X-156941Y-104777D01*
X-156932Y-104846D01*
X-156926Y-104916D01*
X-156924Y-104986D01*
D10*
X-138750Y-122009D02*
X-121250Y-122009D01*
X-121250Y-137991D02*
X-138750Y-137991D01*
X-161236Y-98750D02*
X-161236Y-81250D01*
X-177218Y-81250D02*
X-177218Y-98750D01*
D12*
X81467Y142174D02*
X122125Y182833D01*
X81467Y142174D02*
X133792Y89848D01*
X174451Y130507D01*
X122125Y182833D01*
D13*
X157074Y147071D02*
X153538Y143536D01*
X135154Y161920D02*
X138689Y165456D01*
X135154Y161920D02*
X153538Y143536D01*
D10*
X61991Y158433D02*
X61991Y175433D01*
X78009Y175433D02*
X78009Y158433D01*
X-61500Y178009D02*
X-78500Y178009D01*
X-78500Y161991D02*
X-61500Y161991D01*
X-91500Y178009D02*
X-108500Y178009D01*
X-108500Y161991D02*
X-91500Y161991D01*
M02*
