G04 EAGLE Gerber RS-274X export*
G75*
%MOMM*%
%FSLAX34Y34*%
%LPD*%
%INSolderpaste Top*%
%IPPOS*%
%AMOC8*
5,1,8,0,0,1.08239X$1,22.5*%
G01*
G04 Define Apertures*
%ADD10R,0.920900X0.970200*%
%ADD11R,0.508000X1.238200*%
%ADD12R,0.973900X0.798700*%
%ADD13R,0.798700X0.973900*%
%ADD14R,0.304800X1.162000*%
%ADD15R,0.254800X0.708000*%
%ADD16R,0.970200X0.920900*%
%ADD17R,0.611800X0.911800*%
%ADD18R,0.528000X1.009600*%
G36*
X49884Y-108881D02*
X41061Y-100058D01*
X49884Y-91235D01*
X58708Y-100058D01*
X49884Y-108881D01*
G37*
G36*
X49884Y-88765D02*
X41061Y-79942D01*
X49884Y-71119D01*
X58708Y-79942D01*
X49884Y-88765D01*
G37*
G36*
X59942Y-118939D02*
X51119Y-110116D01*
X59942Y-101292D01*
X68765Y-110116D01*
X59942Y-118939D01*
G37*
G36*
X59942Y-78708D02*
X51119Y-69884D01*
X59942Y-61061D01*
X68765Y-69884D01*
X59942Y-78708D01*
G37*
G36*
X80058Y-118939D02*
X71235Y-110116D01*
X80058Y-101292D01*
X88881Y-110116D01*
X80058Y-118939D01*
G37*
G36*
X80058Y-78708D02*
X71235Y-69884D01*
X80058Y-61061D01*
X88881Y-69884D01*
X80058Y-78708D01*
G37*
G36*
X90116Y-108881D02*
X81292Y-100058D01*
X90116Y-91235D01*
X98939Y-100058D01*
X90116Y-108881D01*
G37*
G36*
X90116Y-88765D02*
X81292Y-79942D01*
X90116Y-71119D01*
X98939Y-79942D01*
X90116Y-88765D01*
G37*
G36*
X39826Y-98823D02*
X31003Y-90000D01*
X39826Y-81177D01*
X48650Y-90000D01*
X39826Y-98823D01*
G37*
G36*
X59942Y-98823D02*
X51119Y-90000D01*
X59942Y-81177D01*
X68765Y-90000D01*
X59942Y-98823D01*
G37*
G36*
X70000Y-128997D02*
X61177Y-120174D01*
X70000Y-111350D01*
X78823Y-120174D01*
X70000Y-128997D01*
G37*
G36*
X70000Y-108881D02*
X61177Y-100058D01*
X70000Y-91235D01*
X78823Y-100058D01*
X70000Y-108881D01*
G37*
G36*
X70000Y-88765D02*
X61177Y-79942D01*
X70000Y-71119D01*
X78823Y-79942D01*
X70000Y-88765D01*
G37*
G36*
X70000Y-68650D02*
X61177Y-59826D01*
X70000Y-51003D01*
X78823Y-59826D01*
X70000Y-68650D01*
G37*
G36*
X80058Y-98823D02*
X71235Y-90000D01*
X80058Y-81177D01*
X88881Y-90000D01*
X80058Y-98823D01*
G37*
G36*
X100174Y-98823D02*
X91350Y-90000D01*
X100174Y-81177D01*
X108997Y-90000D01*
X100174Y-98823D01*
G37*
D10*
X-62254Y-30000D03*
X-77746Y-30000D03*
X-77746Y-50000D03*
X-62254Y-50000D03*
X-77746Y-70000D03*
X-62254Y-70000D03*
D11*
X85050Y108805D03*
X72350Y108805D03*
X59650Y108805D03*
X46950Y108805D03*
X46950Y55195D03*
X59650Y55195D03*
X72350Y55195D03*
X85050Y55195D03*
D12*
X-169209Y11848D03*
X-169209Y28152D03*
D11*
X19050Y109289D03*
X6350Y109289D03*
X-6350Y109289D03*
X-19050Y109289D03*
X-19050Y55679D03*
X-6350Y55679D03*
X6350Y55679D03*
X19050Y55679D03*
X-45950Y108805D03*
X-58650Y108805D03*
X-71350Y108805D03*
X-84050Y108805D03*
X-84050Y55195D03*
X-71350Y55195D03*
X-58650Y55195D03*
X-45950Y55195D03*
D13*
X158152Y70000D03*
X141848Y70000D03*
X111848Y70000D03*
X128152Y70000D03*
D12*
X-80000Y148152D03*
X-80000Y131848D03*
D13*
X158152Y50000D03*
X141848Y50000D03*
X111848Y50000D03*
X128152Y50000D03*
D12*
X-100000Y148152D03*
X-100000Y131848D03*
D14*
X-29249Y-48710D03*
X-22750Y-48710D03*
X-16250Y-48710D03*
X-9750Y-48710D03*
X-3250Y-48710D03*
X3250Y-48710D03*
X9750Y-48710D03*
X16250Y-48710D03*
X22750Y-48710D03*
X29249Y-48710D03*
X29249Y8710D03*
X22750Y8710D03*
X16250Y8710D03*
X9750Y8710D03*
X3250Y8710D03*
X-3250Y8710D03*
X-9750Y8710D03*
X-16250Y8710D03*
X-22750Y8710D03*
X-29249Y8710D03*
D15*
G36*
X115103Y-81986D02*
X116905Y-83788D01*
X111899Y-88794D01*
X110097Y-86992D01*
X115103Y-81986D01*
G37*
G36*
X111568Y-78450D02*
X113370Y-80252D01*
X108364Y-85258D01*
X106562Y-83456D01*
X111568Y-78450D01*
G37*
G36*
X108032Y-74915D02*
X109834Y-76717D01*
X104828Y-81723D01*
X103026Y-79921D01*
X108032Y-74915D01*
G37*
G36*
X104497Y-71379D02*
X106299Y-73181D01*
X101293Y-78187D01*
X99491Y-76385D01*
X104497Y-71379D01*
G37*
G36*
X100961Y-67844D02*
X102763Y-69646D01*
X97757Y-74652D01*
X95955Y-72850D01*
X100961Y-67844D01*
G37*
G36*
X97426Y-64308D02*
X99228Y-66110D01*
X94222Y-71116D01*
X92420Y-69314D01*
X97426Y-64308D01*
G37*
G36*
X93890Y-60772D02*
X95692Y-62574D01*
X90686Y-67580D01*
X88884Y-65778D01*
X93890Y-60772D01*
G37*
G36*
X90354Y-57237D02*
X92156Y-59039D01*
X87150Y-64045D01*
X85348Y-62243D01*
X90354Y-57237D01*
G37*
G36*
X86819Y-53701D02*
X88621Y-55503D01*
X83615Y-60509D01*
X81813Y-58707D01*
X86819Y-53701D01*
G37*
G36*
X83283Y-50166D02*
X85085Y-51968D01*
X80079Y-56974D01*
X78277Y-55172D01*
X83283Y-50166D01*
G37*
G36*
X79748Y-46630D02*
X81550Y-48432D01*
X76544Y-53438D01*
X74742Y-51636D01*
X79748Y-46630D01*
G37*
G36*
X76212Y-43095D02*
X78014Y-44897D01*
X73008Y-49903D01*
X71206Y-48101D01*
X76212Y-43095D01*
G37*
G36*
X68794Y-48101D02*
X66992Y-49903D01*
X61986Y-44897D01*
X63788Y-43095D01*
X68794Y-48101D01*
G37*
G36*
X65258Y-51636D02*
X63456Y-53438D01*
X58450Y-48432D01*
X60252Y-46630D01*
X65258Y-51636D01*
G37*
G36*
X61723Y-55172D02*
X59921Y-56974D01*
X54915Y-51968D01*
X56717Y-50166D01*
X61723Y-55172D01*
G37*
G36*
X58187Y-58707D02*
X56385Y-60509D01*
X51379Y-55503D01*
X53181Y-53701D01*
X58187Y-58707D01*
G37*
G36*
X54652Y-62243D02*
X52850Y-64045D01*
X47844Y-59039D01*
X49646Y-57237D01*
X54652Y-62243D01*
G37*
G36*
X51116Y-65778D02*
X49314Y-67580D01*
X44308Y-62574D01*
X46110Y-60772D01*
X51116Y-65778D01*
G37*
G36*
X47580Y-69314D02*
X45778Y-71116D01*
X40772Y-66110D01*
X42574Y-64308D01*
X47580Y-69314D01*
G37*
G36*
X44045Y-72850D02*
X42243Y-74652D01*
X37237Y-69646D01*
X39039Y-67844D01*
X44045Y-72850D01*
G37*
G36*
X40509Y-76385D02*
X38707Y-78187D01*
X33701Y-73181D01*
X35503Y-71379D01*
X40509Y-76385D01*
G37*
G36*
X36974Y-79921D02*
X35172Y-81723D01*
X30166Y-76717D01*
X31968Y-74915D01*
X36974Y-79921D01*
G37*
G36*
X33438Y-83456D02*
X31636Y-85258D01*
X26630Y-80252D01*
X28432Y-78450D01*
X33438Y-83456D01*
G37*
G36*
X29903Y-86992D02*
X28101Y-88794D01*
X23095Y-83788D01*
X24897Y-81986D01*
X29903Y-86992D01*
G37*
G36*
X28101Y-91206D02*
X29903Y-93008D01*
X24897Y-98014D01*
X23095Y-96212D01*
X28101Y-91206D01*
G37*
G36*
X31636Y-94742D02*
X33438Y-96544D01*
X28432Y-101550D01*
X26630Y-99748D01*
X31636Y-94742D01*
G37*
G36*
X35172Y-98277D02*
X36974Y-100079D01*
X31968Y-105085D01*
X30166Y-103283D01*
X35172Y-98277D01*
G37*
G36*
X38707Y-101813D02*
X40509Y-103615D01*
X35503Y-108621D01*
X33701Y-106819D01*
X38707Y-101813D01*
G37*
G36*
X42243Y-105348D02*
X44045Y-107150D01*
X39039Y-112156D01*
X37237Y-110354D01*
X42243Y-105348D01*
G37*
G36*
X45778Y-108884D02*
X47580Y-110686D01*
X42574Y-115692D01*
X40772Y-113890D01*
X45778Y-108884D01*
G37*
G36*
X49314Y-112420D02*
X51116Y-114222D01*
X46110Y-119228D01*
X44308Y-117426D01*
X49314Y-112420D01*
G37*
G36*
X52850Y-115955D02*
X54652Y-117757D01*
X49646Y-122763D01*
X47844Y-120961D01*
X52850Y-115955D01*
G37*
G36*
X56385Y-119491D02*
X58187Y-121293D01*
X53181Y-126299D01*
X51379Y-124497D01*
X56385Y-119491D01*
G37*
G36*
X59921Y-123026D02*
X61723Y-124828D01*
X56717Y-129834D01*
X54915Y-128032D01*
X59921Y-123026D01*
G37*
G36*
X63456Y-126562D02*
X65258Y-128364D01*
X60252Y-133370D01*
X58450Y-131568D01*
X63456Y-126562D01*
G37*
G36*
X66992Y-130097D02*
X68794Y-131899D01*
X63788Y-136905D01*
X61986Y-135103D01*
X66992Y-130097D01*
G37*
G36*
X78014Y-135103D02*
X76212Y-136905D01*
X71206Y-131899D01*
X73008Y-130097D01*
X78014Y-135103D01*
G37*
G36*
X81550Y-131568D02*
X79748Y-133370D01*
X74742Y-128364D01*
X76544Y-126562D01*
X81550Y-131568D01*
G37*
G36*
X85085Y-128032D02*
X83283Y-129834D01*
X78277Y-124828D01*
X80079Y-123026D01*
X85085Y-128032D01*
G37*
G36*
X88621Y-124497D02*
X86819Y-126299D01*
X81813Y-121293D01*
X83615Y-119491D01*
X88621Y-124497D01*
G37*
G36*
X92156Y-120961D02*
X90354Y-122763D01*
X85348Y-117757D01*
X87150Y-115955D01*
X92156Y-120961D01*
G37*
G36*
X95692Y-117426D02*
X93890Y-119228D01*
X88884Y-114222D01*
X90686Y-112420D01*
X95692Y-117426D01*
G37*
G36*
X99228Y-113890D02*
X97426Y-115692D01*
X92420Y-110686D01*
X94222Y-108884D01*
X99228Y-113890D01*
G37*
G36*
X102763Y-110354D02*
X100961Y-112156D01*
X95955Y-107150D01*
X97757Y-105348D01*
X102763Y-110354D01*
G37*
G36*
X106299Y-106819D02*
X104497Y-108621D01*
X99491Y-103615D01*
X101293Y-101813D01*
X106299Y-106819D01*
G37*
G36*
X109834Y-103283D02*
X108032Y-105085D01*
X103026Y-100079D01*
X104828Y-98277D01*
X109834Y-103283D01*
G37*
G36*
X113370Y-99748D02*
X111568Y-101550D01*
X106562Y-96544D01*
X108364Y-94742D01*
X113370Y-99748D01*
G37*
G36*
X116905Y-96212D02*
X115103Y-98014D01*
X110097Y-93008D01*
X111899Y-91206D01*
X116905Y-96212D01*
G37*
D16*
X-30000Y-92254D03*
X-30000Y-107746D03*
D10*
X27746Y-134227D03*
X12254Y-134227D03*
D16*
X-10000Y-92254D03*
X-10000Y-107746D03*
D17*
X-37500Y-134519D03*
X-22500Y-134519D03*
D13*
X-78152Y-134209D03*
X-61848Y-134209D03*
X111848Y-50000D03*
X128152Y-50000D03*
D12*
X130000Y-111848D03*
X130000Y-128152D03*
D18*
X-139500Y-101438D03*
X-120500Y-101438D03*
X-130000Y-78562D03*
D10*
X-137746Y-130000D03*
X-122254Y-130000D03*
D16*
X-169227Y-82254D03*
X-169227Y-97746D03*
D12*
X70000Y158781D03*
X70000Y175085D03*
D13*
X-78152Y170000D03*
X-61848Y170000D03*
X-108152Y170000D03*
X-91848Y170000D03*
M02*
