G04 EAGLE Gerber RS-274X export*
G75*
%MOMM*%
%FSLAX34Y34*%
%LPD*%
%INSoldermask Bottom*%
%IPPOS*%
%AMOC8*
5,1,8,0,0,1.08239X$1,22.5*%
G01*
G04 Define Apertures*
%ADD10C,3.403200*%
%ADD11C,1.727200*%
%ADD12R,1.397400X0.711200*%
%ADD13R,1.001900X1.177100*%
%ADD14R,1.124100X1.173400*%
%ADD15R,1.177100X1.001900*%
%ADD16C,0.959600*%
%ADD17C,1.703200*%
D10*
X-125000Y0D03*
X125000Y0D03*
D11*
X-25400Y152380D02*
X-25400Y167620D01*
X0Y167620D02*
X0Y152380D01*
X25400Y152380D02*
X25400Y167620D01*
X-136218Y67300D02*
X-151458Y67300D01*
X-151458Y92700D02*
X-136218Y92700D01*
D12*
X25529Y19050D03*
X25529Y6350D03*
X25529Y-6350D03*
X25529Y-19050D03*
X-25529Y-19050D03*
X-25529Y-6350D03*
X-25529Y6350D03*
X-25529Y19050D03*
D13*
X-61848Y10000D03*
X-78152Y10000D03*
X-61848Y-10000D03*
X-78152Y-10000D03*
D14*
X52254Y20000D03*
X67746Y20000D03*
X52254Y0D03*
X67746Y0D03*
D11*
X148662Y-126383D02*
X163902Y-126383D01*
X163902Y-100983D02*
X148662Y-100983D01*
X148662Y-75583D02*
X163902Y-75583D01*
X163902Y-50183D02*
X148662Y-50183D01*
X117250Y143592D02*
X128026Y154368D01*
X145986Y136408D02*
X135210Y125632D01*
D13*
X11848Y130000D03*
X28152Y130000D03*
D15*
X90000Y175085D03*
X90000Y158781D03*
D13*
X-21848Y130000D03*
X-38152Y130000D03*
D16*
X46292Y-43768D03*
X-9144Y-64008D03*
X-15240Y-36576D03*
X-3048Y-36576D03*
X13812Y-93440D03*
X15240Y-33528D03*
X39127Y-54960D03*
X102108Y89916D03*
X-48768Y-15240D03*
X54864Y160020D03*
X-54864Y-39624D03*
X102108Y68580D03*
X35052Y68580D03*
X32004Y118872D03*
X-43576Y-26384D03*
X-59436Y128016D03*
X-32004Y108204D03*
X-36576Y67056D03*
X9144Y21336D03*
X-44196Y-70104D03*
X79248Y-19812D03*
X-92964Y48768D03*
X13716Y-3048D03*
X-111252Y62484D03*
X-1524Y-27432D03*
X111252Y33528D03*
X39794Y-37414D03*
D17*
X-80000Y90000D03*
X-10000Y90000D03*
X50000Y90000D03*
D16*
X91440Y135636D03*
X102108Y100584D03*
X27432Y-30480D03*
X3048Y-60960D03*
X-143684Y-76772D03*
X-100584Y-45720D03*
X45720Y120396D03*
X60960Y150876D03*
X128016Y83820D03*
X3048Y121920D03*
X141732Y39624D03*
X38100Y111252D03*
X-25908Y118872D03*
X118872Y59436D03*
X-30480Y59436D03*
X-89916Y7620D03*
X-70104Y-124968D03*
X106680Y-124968D03*
X20488Y-121191D03*
X-94488Y-24384D03*
X13716Y-15240D03*
X59979Y-13687D03*
X7744Y-82296D03*
X47244Y-10668D03*
X29576Y-117872D03*
X158496Y91440D03*
X42771Y-129200D03*
M02*
