G04 EAGLE Gerber RS-274X export*
G75*
%MOMM*%
%FSLAX34Y34*%
%LPD*%
%INTop Copper*%
%IPPOS*%
%AMOC8*
5,1,8,0,0,1.08239X$1,22.5*%
G01*
G04 Define Apertures*
%ADD10R,0.920900X0.970200*%
%ADD11R,0.508000X1.238200*%
%ADD12R,0.973900X0.798700*%
%ADD13R,0.798700X0.973900*%
%ADD14R,0.304800X1.162000*%
%ADD15C,1.524000*%
%ADD16R,0.254800X0.708000*%
%ADD17R,5.689600X5.689600*%
%ADD18R,0.970200X0.920900*%
%ADD19R,0.611800X0.911800*%
%ADD20R,0.528000X1.009600*%
%ADD21C,0.152400*%
%ADD22C,0.756400*%
%ADD23C,1.500000*%
%ADD24C,1.016000*%
%ADD25C,1.270000*%
%ADD26C,1.500000*%
%ADD27C,2.540000*%
D10*
X-62254Y-30000D03*
X-77746Y-30000D03*
X-77746Y-50000D03*
X-62254Y-50000D03*
X-77746Y-70000D03*
X-62254Y-70000D03*
D11*
X85050Y108805D03*
X72350Y108805D03*
X59650Y108805D03*
X46950Y108805D03*
X46950Y55195D03*
X59650Y55195D03*
X72350Y55195D03*
X85050Y55195D03*
D12*
X-169209Y11848D03*
X-169209Y28152D03*
D11*
X19050Y109289D03*
X6350Y109289D03*
X-6350Y109289D03*
X-19050Y109289D03*
X-19050Y55679D03*
X-6350Y55679D03*
X6350Y55679D03*
X19050Y55679D03*
X-45950Y108805D03*
X-58650Y108805D03*
X-71350Y108805D03*
X-84050Y108805D03*
X-84050Y55195D03*
X-71350Y55195D03*
X-58650Y55195D03*
X-45950Y55195D03*
D13*
X158152Y70000D03*
X141848Y70000D03*
X111848Y70000D03*
X128152Y70000D03*
D12*
X-80000Y148152D03*
X-80000Y131848D03*
D13*
X158152Y50000D03*
X141848Y50000D03*
X111848Y50000D03*
X128152Y50000D03*
D12*
X-100000Y148152D03*
X-100000Y131848D03*
D14*
X-29249Y-48710D03*
X-22750Y-48710D03*
X-16250Y-48710D03*
X-9750Y-48710D03*
X-3250Y-48710D03*
X3250Y-48710D03*
X9750Y-48710D03*
X16250Y-48710D03*
X22750Y-48710D03*
X29249Y-48710D03*
X29249Y8710D03*
X22750Y8710D03*
X16250Y8710D03*
X9750Y8710D03*
X3250Y8710D03*
X-3250Y8710D03*
X-9750Y8710D03*
X-16250Y8710D03*
X-22750Y8710D03*
X-29249Y8710D03*
D15*
X-25400Y152380D02*
X-25400Y167620D01*
X0Y167620D02*
X0Y152380D01*
X25400Y152380D02*
X25400Y167620D01*
X-136218Y67300D02*
X-151458Y67300D01*
X-151458Y92700D02*
X-136218Y92700D01*
X148662Y-126383D02*
X163902Y-126383D01*
X163902Y-100983D02*
X148662Y-100983D01*
X148662Y-75583D02*
X163902Y-75583D01*
X163902Y-50183D02*
X148662Y-50183D01*
D16*
G36*
X115103Y-81986D02*
X116905Y-83788D01*
X111899Y-88794D01*
X110097Y-86992D01*
X115103Y-81986D01*
G37*
G36*
X111568Y-78450D02*
X113370Y-80252D01*
X108364Y-85258D01*
X106562Y-83456D01*
X111568Y-78450D01*
G37*
G36*
X108032Y-74915D02*
X109834Y-76717D01*
X104828Y-81723D01*
X103026Y-79921D01*
X108032Y-74915D01*
G37*
G36*
X104497Y-71379D02*
X106299Y-73181D01*
X101293Y-78187D01*
X99491Y-76385D01*
X104497Y-71379D01*
G37*
G36*
X100961Y-67844D02*
X102763Y-69646D01*
X97757Y-74652D01*
X95955Y-72850D01*
X100961Y-67844D01*
G37*
G36*
X97426Y-64308D02*
X99228Y-66110D01*
X94222Y-71116D01*
X92420Y-69314D01*
X97426Y-64308D01*
G37*
G36*
X93890Y-60772D02*
X95692Y-62574D01*
X90686Y-67580D01*
X88884Y-65778D01*
X93890Y-60772D01*
G37*
G36*
X90354Y-57237D02*
X92156Y-59039D01*
X87150Y-64045D01*
X85348Y-62243D01*
X90354Y-57237D01*
G37*
G36*
X86819Y-53701D02*
X88621Y-55503D01*
X83615Y-60509D01*
X81813Y-58707D01*
X86819Y-53701D01*
G37*
G36*
X83283Y-50166D02*
X85085Y-51968D01*
X80079Y-56974D01*
X78277Y-55172D01*
X83283Y-50166D01*
G37*
G36*
X79748Y-46630D02*
X81550Y-48432D01*
X76544Y-53438D01*
X74742Y-51636D01*
X79748Y-46630D01*
G37*
G36*
X76212Y-43095D02*
X78014Y-44897D01*
X73008Y-49903D01*
X71206Y-48101D01*
X76212Y-43095D01*
G37*
G36*
X68794Y-48101D02*
X66992Y-49903D01*
X61986Y-44897D01*
X63788Y-43095D01*
X68794Y-48101D01*
G37*
G36*
X65258Y-51636D02*
X63456Y-53438D01*
X58450Y-48432D01*
X60252Y-46630D01*
X65258Y-51636D01*
G37*
G36*
X61723Y-55172D02*
X59921Y-56974D01*
X54915Y-51968D01*
X56717Y-50166D01*
X61723Y-55172D01*
G37*
G36*
X58187Y-58707D02*
X56385Y-60509D01*
X51379Y-55503D01*
X53181Y-53701D01*
X58187Y-58707D01*
G37*
G36*
X54652Y-62243D02*
X52850Y-64045D01*
X47844Y-59039D01*
X49646Y-57237D01*
X54652Y-62243D01*
G37*
G36*
X51116Y-65778D02*
X49314Y-67580D01*
X44308Y-62574D01*
X46110Y-60772D01*
X51116Y-65778D01*
G37*
G36*
X47580Y-69314D02*
X45778Y-71116D01*
X40772Y-66110D01*
X42574Y-64308D01*
X47580Y-69314D01*
G37*
G36*
X44045Y-72850D02*
X42243Y-74652D01*
X37237Y-69646D01*
X39039Y-67844D01*
X44045Y-72850D01*
G37*
G36*
X40509Y-76385D02*
X38707Y-78187D01*
X33701Y-73181D01*
X35503Y-71379D01*
X40509Y-76385D01*
G37*
G36*
X36974Y-79921D02*
X35172Y-81723D01*
X30166Y-76717D01*
X31968Y-74915D01*
X36974Y-79921D01*
G37*
G36*
X33438Y-83456D02*
X31636Y-85258D01*
X26630Y-80252D01*
X28432Y-78450D01*
X33438Y-83456D01*
G37*
G36*
X29903Y-86992D02*
X28101Y-88794D01*
X23095Y-83788D01*
X24897Y-81986D01*
X29903Y-86992D01*
G37*
G36*
X28101Y-91206D02*
X29903Y-93008D01*
X24897Y-98014D01*
X23095Y-96212D01*
X28101Y-91206D01*
G37*
G36*
X31636Y-94742D02*
X33438Y-96544D01*
X28432Y-101550D01*
X26630Y-99748D01*
X31636Y-94742D01*
G37*
G36*
X35172Y-98277D02*
X36974Y-100079D01*
X31968Y-105085D01*
X30166Y-103283D01*
X35172Y-98277D01*
G37*
G36*
X38707Y-101813D02*
X40509Y-103615D01*
X35503Y-108621D01*
X33701Y-106819D01*
X38707Y-101813D01*
G37*
G36*
X42243Y-105348D02*
X44045Y-107150D01*
X39039Y-112156D01*
X37237Y-110354D01*
X42243Y-105348D01*
G37*
G36*
X45778Y-108884D02*
X47580Y-110686D01*
X42574Y-115692D01*
X40772Y-113890D01*
X45778Y-108884D01*
G37*
G36*
X49314Y-112420D02*
X51116Y-114222D01*
X46110Y-119228D01*
X44308Y-117426D01*
X49314Y-112420D01*
G37*
G36*
X52850Y-115955D02*
X54652Y-117757D01*
X49646Y-122763D01*
X47844Y-120961D01*
X52850Y-115955D01*
G37*
G36*
X56385Y-119491D02*
X58187Y-121293D01*
X53181Y-126299D01*
X51379Y-124497D01*
X56385Y-119491D01*
G37*
G36*
X59921Y-123026D02*
X61723Y-124828D01*
X56717Y-129834D01*
X54915Y-128032D01*
X59921Y-123026D01*
G37*
G36*
X63456Y-126562D02*
X65258Y-128364D01*
X60252Y-133370D01*
X58450Y-131568D01*
X63456Y-126562D01*
G37*
G36*
X66992Y-130097D02*
X68794Y-131899D01*
X63788Y-136905D01*
X61986Y-135103D01*
X66992Y-130097D01*
G37*
G36*
X78014Y-135103D02*
X76212Y-136905D01*
X71206Y-131899D01*
X73008Y-130097D01*
X78014Y-135103D01*
G37*
G36*
X81550Y-131568D02*
X79748Y-133370D01*
X74742Y-128364D01*
X76544Y-126562D01*
X81550Y-131568D01*
G37*
G36*
X85085Y-128032D02*
X83283Y-129834D01*
X78277Y-124828D01*
X80079Y-123026D01*
X85085Y-128032D01*
G37*
G36*
X88621Y-124497D02*
X86819Y-126299D01*
X81813Y-121293D01*
X83615Y-119491D01*
X88621Y-124497D01*
G37*
G36*
X92156Y-120961D02*
X90354Y-122763D01*
X85348Y-117757D01*
X87150Y-115955D01*
X92156Y-120961D01*
G37*
G36*
X95692Y-117426D02*
X93890Y-119228D01*
X88884Y-114222D01*
X90686Y-112420D01*
X95692Y-117426D01*
G37*
G36*
X99228Y-113890D02*
X97426Y-115692D01*
X92420Y-110686D01*
X94222Y-108884D01*
X99228Y-113890D01*
G37*
G36*
X102763Y-110354D02*
X100961Y-112156D01*
X95955Y-107150D01*
X97757Y-105348D01*
X102763Y-110354D01*
G37*
G36*
X106299Y-106819D02*
X104497Y-108621D01*
X99491Y-103615D01*
X101293Y-101813D01*
X106299Y-106819D01*
G37*
G36*
X109834Y-103283D02*
X108032Y-105085D01*
X103026Y-100079D01*
X104828Y-98277D01*
X109834Y-103283D01*
G37*
G36*
X113370Y-99748D02*
X111568Y-101550D01*
X106562Y-96544D01*
X108364Y-94742D01*
X113370Y-99748D01*
G37*
G36*
X116905Y-96212D02*
X115103Y-98014D01*
X110097Y-93008D01*
X111899Y-91206D01*
X116905Y-96212D01*
G37*
D17*
G36*
X29769Y-90000D02*
X70000Y-49769D01*
X110231Y-90000D01*
X70000Y-130231D01*
X29769Y-90000D01*
G37*
D18*
X-30000Y-92254D03*
X-30000Y-107746D03*
D10*
X27746Y-134227D03*
X12254Y-134227D03*
D18*
X-10000Y-92254D03*
X-10000Y-107746D03*
D19*
X-37500Y-134519D03*
X-22500Y-134519D03*
D13*
X-78152Y-134209D03*
X-61848Y-134209D03*
X111848Y-50000D03*
X128152Y-50000D03*
D12*
X130000Y-111848D03*
X130000Y-128152D03*
D20*
X-139500Y-101438D03*
X-120500Y-101438D03*
X-130000Y-78562D03*
D10*
X-137746Y-130000D03*
X-122254Y-130000D03*
D18*
X-169227Y-82254D03*
X-169227Y-97746D03*
D15*
X117250Y143592D02*
X128026Y154368D01*
X145986Y136408D02*
X135210Y125632D01*
D12*
X70000Y158781D03*
X70000Y175085D03*
D13*
X-78152Y170000D03*
X-61848Y170000D03*
X-108152Y170000D03*
X-91848Y170000D03*
D21*
X-9144Y-48768D02*
X-9144Y-64008D01*
X-9144Y-48768D02*
X-9750Y-48710D01*
X-28956Y-47244D02*
X-28956Y-41148D01*
X-18288Y-30480D01*
X-12192Y-30480D01*
X-9144Y-33528D01*
X-9144Y-47244D01*
X-28956Y-47244D02*
X-29249Y-48710D01*
X-9750Y-48710D02*
X-9144Y-47244D01*
D22*
X46292Y-43768D03*
X-9144Y-64008D03*
D21*
X46292Y-48614D02*
X46292Y-43768D01*
X46292Y-48614D02*
X54783Y-57105D01*
X-1524Y-65532D02*
X-3048Y-64008D01*
X-1524Y-65532D02*
X0Y-67056D01*
X-3048Y-64008D02*
X-3048Y-48768D01*
X50292Y-59436D02*
X51248Y-60641D01*
X-3048Y-48768D02*
X-3250Y-48710D01*
X-21336Y-48768D02*
X-21336Y-60960D01*
X-12192Y-70104D01*
X-6096Y-70104D01*
X-1524Y-65532D01*
X-21336Y-48768D02*
X-22750Y-48710D01*
X41641Y-48892D02*
X45195Y-52447D01*
X45195Y-54339D01*
X50292Y-59436D01*
X21470Y-67056D02*
X0Y-67056D01*
X33059Y-55467D02*
X33059Y-52447D01*
X36614Y-48892D01*
X41641Y-48892D01*
X33059Y-55467D02*
X21470Y-67056D01*
X-15240Y-47244D02*
X-15240Y-36576D01*
X-3048Y-36576D02*
X3048Y-42672D01*
X3048Y-47244D01*
X-15240Y-47244D02*
X-16250Y-48710D01*
X3048Y-47244D02*
X3250Y-48710D01*
X38100Y-109728D02*
X39624Y-109728D01*
X38100Y-109728D02*
X36576Y-111252D01*
X33528Y-111252D01*
X15716Y-93440D01*
X13812Y-93440D01*
X39624Y-109728D02*
X40641Y-108752D01*
X47712Y-64176D02*
X47244Y-64008D01*
X12192Y-33528D02*
X3048Y-42672D01*
X12192Y-33528D02*
X15240Y-33528D01*
D22*
X-15240Y-36576D03*
X-3048Y-36576D03*
X13812Y-93440D03*
X15240Y-33528D03*
X39127Y-54960D03*
D21*
X39127Y-55891D02*
X47244Y-64008D01*
X39127Y-55891D02*
X39127Y-54960D01*
X-60960Y-28956D02*
X-60960Y-18288D01*
X-35052Y7620D01*
X-30480Y7620D01*
X-60960Y-28956D02*
X-62254Y-30000D01*
X-30480Y7620D02*
X-29249Y8710D01*
X153924Y70104D02*
X156972Y70104D01*
X153924Y70104D02*
X134112Y89916D01*
X102108Y89916D01*
X-41148Y-15240D02*
X-48768Y-15240D01*
X-41148Y-15240D02*
X-22860Y3048D01*
X-22860Y7620D01*
X156972Y70104D02*
X158152Y70000D01*
X-22750Y8710D02*
X-22860Y7620D01*
D22*
X102108Y89916D03*
X-48768Y-15240D03*
D23*
X55400Y130000D02*
X25400Y160000D01*
X55400Y130000D02*
X72648Y130000D01*
X85050Y117598D01*
X85050Y108805D01*
X85050Y85460D01*
X70000Y70410D01*
X66072Y70410D01*
X65662Y70000D01*
X50000Y70000D01*
D24*
X59650Y63988D02*
X59650Y55195D01*
X59650Y63988D02*
X65662Y70000D01*
X46950Y66950D02*
X46950Y55195D01*
X46950Y66950D02*
X50000Y70000D01*
X46950Y55195D02*
X59650Y55195D01*
D21*
X54864Y160020D02*
X68580Y173736D01*
X70000Y175085D01*
X-30480Y18288D02*
X-77724Y-28956D01*
X-30480Y18288D02*
X-21336Y18288D01*
X-16764Y13716D01*
X-16764Y9144D01*
X-77724Y-28956D02*
X-77746Y-30000D01*
X-16764Y9144D02*
X-16250Y8710D01*
X-54864Y-39624D02*
X-68580Y-39624D01*
X-77724Y-30480D01*
X-77746Y-30000D01*
D22*
X54864Y160020D03*
X-54864Y-39624D03*
D21*
X-79248Y-42672D02*
X-79248Y-48768D01*
X-79248Y-42672D02*
X-85344Y-36576D01*
X-85344Y-24384D01*
X-39624Y21336D01*
X-18288Y21336D01*
X-10668Y13716D01*
X-10668Y9144D01*
X-77746Y-50000D02*
X-79248Y-48768D01*
X-10668Y9144D02*
X-9750Y8710D01*
X102108Y68580D02*
X111252Y68580D01*
X35052Y68580D02*
X35052Y105156D01*
X32004Y108204D01*
X32004Y118872D01*
X-34004Y-26384D02*
X-43576Y-26384D01*
X-34004Y-26384D02*
X-4572Y3048D01*
X-4572Y7620D01*
X111252Y68580D02*
X111848Y70000D01*
X-3250Y8710D02*
X-4572Y7620D01*
D22*
X102108Y68580D03*
X35052Y68580D03*
X32004Y118872D03*
X-43576Y-26384D03*
D23*
X19050Y109289D02*
X19050Y130950D01*
X0Y150000D01*
X0Y160000D01*
X19050Y109289D02*
X19050Y89872D01*
X-822Y70000D01*
X-10000Y70000D01*
D24*
X-19050Y60950D02*
X-19050Y55679D01*
X-19050Y60950D02*
X-10000Y70000D01*
X-6350Y64472D02*
X-6350Y55679D01*
X-6350Y64472D02*
X-822Y70000D01*
X-6350Y55679D02*
X-19050Y55679D01*
D21*
X-62484Y-50292D02*
X-70104Y-57912D01*
X-83820Y-57912D01*
X-88392Y-53340D01*
X-88392Y-22860D01*
X-41148Y24384D01*
X-7620Y24384D01*
X-3048Y19812D02*
X3048Y13716D01*
X-3048Y19812D02*
X-7620Y24384D01*
X3048Y13716D02*
X3048Y9144D01*
X-62254Y-50000D02*
X-62484Y-50292D01*
X3250Y8710D02*
X3048Y9144D01*
X6096Y163068D02*
X21336Y178308D01*
X28956Y178308D01*
X48768Y158496D01*
X48768Y153924D01*
X62484Y140208D01*
X77724Y140208D01*
X96012Y121920D01*
X96012Y41148D01*
X82296Y27432D01*
X4572Y27432D01*
X-3048Y19812D01*
X0Y160000D02*
X6096Y163068D01*
X-74676Y-68580D02*
X-77724Y-68580D01*
X-74676Y-68580D02*
X-64008Y-57912D01*
X-54864Y-57912D01*
X3048Y0D01*
X6096Y0D01*
X9144Y3048D01*
X9144Y7620D01*
X-77724Y-68580D02*
X-77746Y-70000D01*
X9144Y7620D02*
X9750Y8710D01*
X-59436Y128016D02*
X-79248Y147828D01*
X-32004Y108204D02*
X-32004Y100584D01*
X-35052Y97536D01*
X-35052Y68580D01*
X-36576Y67056D01*
X9144Y21336D02*
X15240Y15240D01*
X15240Y9144D01*
X-79248Y147828D02*
X-80000Y148152D01*
X15240Y9144D02*
X16250Y8710D01*
D22*
X-59436Y128016D03*
X-32004Y108204D03*
X-36576Y67056D03*
X9144Y21336D03*
D23*
X-45950Y108805D02*
X-45950Y139450D01*
X-38598Y146802D01*
X-25400Y160000D01*
X-45950Y108805D02*
X-45950Y84460D01*
X-60000Y70410D01*
X-64928Y70410D01*
X-65338Y70000D01*
X-80000Y70000D01*
D24*
X-80000Y59245D02*
X-84050Y55195D01*
X-80000Y59245D02*
X-80000Y70000D01*
X-71350Y63988D02*
X-71350Y55195D01*
X-71350Y63988D02*
X-65338Y70000D01*
X-71350Y55195D02*
X-84050Y55195D01*
D21*
X-38598Y146802D02*
X-60960Y169164D01*
X-61848Y170000D01*
X-60960Y-70104D02*
X-44196Y-70104D01*
X59436Y0D02*
X79248Y-19812D01*
X59436Y0D02*
X25908Y0D01*
X22860Y3048D01*
X22860Y7620D01*
X-60960Y-70104D02*
X-62254Y-70000D01*
X22860Y7620D02*
X22750Y8710D01*
X-88392Y53340D02*
X-92964Y48768D01*
X13716Y-3048D02*
X16764Y-3048D01*
X22860Y3048D01*
X-84050Y55195D02*
X-88392Y53340D01*
X22750Y8710D02*
X22860Y3048D01*
D22*
X-44196Y-70104D03*
X79248Y-19812D03*
X-92964Y48768D03*
X13716Y-3048D03*
D21*
X156972Y45720D02*
X156972Y48768D01*
X156972Y45720D02*
X138684Y27432D01*
X86868Y27432D01*
X68580Y9144D01*
X30480Y9144D01*
X156972Y48768D02*
X158152Y50000D01*
X30480Y9144D02*
X29249Y8710D01*
X-100584Y144780D02*
X-100584Y147828D01*
X-100584Y144780D02*
X-111252Y134112D01*
X-111252Y62484D01*
X-1524Y-27432D02*
X21336Y-27432D01*
X24384Y-24384D01*
X30480Y-24384D01*
X33528Y-27432D01*
X33528Y-33528D01*
X22860Y-44196D01*
X22860Y-47244D01*
X-100000Y148152D02*
X-100584Y147828D01*
X22860Y-47244D02*
X22750Y-48710D01*
D22*
X-111252Y62484D03*
X-1524Y-27432D03*
D21*
X111252Y33528D02*
X111252Y48768D01*
X111848Y50000D01*
D22*
X111252Y33528D03*
X39794Y-37414D03*
D21*
X39794Y-38165D01*
X29249Y-48710D01*
D25*
X-71350Y98650D02*
X-71350Y108805D01*
X-71350Y98650D02*
X-80000Y90000D01*
D26*
X-80000Y90000D03*
D25*
X-6350Y93650D02*
X-6350Y109289D01*
X-6350Y93650D02*
X-10000Y90000D01*
D26*
X-10000Y90000D03*
D25*
X59650Y99650D02*
X59650Y108805D01*
X59650Y99650D02*
X50000Y90000D01*
D26*
X50000Y90000D03*
D21*
X-169164Y67056D02*
X-169164Y28956D01*
X-169164Y67056D02*
X-144780Y91440D01*
X-169164Y28956D02*
X-169209Y28152D01*
X-144780Y91440D02*
X-143838Y92700D01*
X-91440Y170688D02*
X-83820Y178308D01*
X-21336Y178308D01*
X-10668Y167640D01*
X-10668Y112776D01*
X-91848Y170000D02*
X-91440Y170688D01*
X-10668Y112776D02*
X-6350Y109289D01*
X91440Y131064D02*
X91440Y135636D01*
X91440Y131064D02*
X102108Y120396D01*
X102108Y100584D01*
X16764Y-41148D02*
X16764Y-47244D01*
X16764Y-41148D02*
X27432Y-30480D01*
X16764Y-47244D02*
X16250Y-48710D01*
D22*
X91440Y135636D03*
X102108Y100584D03*
X27432Y-30480D03*
D27*
X-115398Y38860D02*
X-143838Y67300D01*
X-115398Y38860D02*
X-108904Y38860D01*
X-100044Y30000D01*
X-83820Y30000D01*
X-60000Y30000D01*
D23*
X-50000Y30000D01*
X-40000Y40000D01*
X0Y40000D01*
X10000Y40000D01*
X20000Y40000D01*
X40652Y40000D01*
X40672Y39980D01*
X65928Y39980D02*
X65948Y40000D01*
X80000Y40000D01*
X65928Y39980D02*
X40672Y39980D01*
D24*
X80000Y40000D02*
X85050Y45050D01*
X85050Y55195D01*
X72350Y55195D02*
X72350Y46402D01*
X65948Y40000D01*
X72350Y55195D02*
X85050Y55195D01*
X6350Y55679D02*
X6350Y46350D01*
X0Y40000D01*
X10000Y46629D02*
X19050Y55679D01*
X10000Y46629D02*
X10000Y40000D01*
X6350Y55679D02*
X19050Y55679D01*
X20000Y54729D01*
X20000Y40000D01*
X-45950Y34050D02*
X-45950Y55195D01*
X-45950Y34050D02*
X-50000Y30000D01*
X-58650Y31350D02*
X-58650Y55195D01*
X-58650Y31350D02*
X-60000Y30000D01*
X-58650Y55195D02*
X-45950Y55195D01*
D21*
X-131790Y-76772D02*
X-130000Y-78562D01*
X-131790Y-76772D02*
X-143684Y-76772D01*
X-168994Y-76772D01*
X-169227Y-82254D01*
X9144Y-54864D02*
X9144Y-48768D01*
X9144Y-54864D02*
X3048Y-60960D01*
X9144Y-48768D02*
X9750Y-48710D01*
X-100584Y-45720D02*
X-100584Y-18288D01*
X-83820Y-1524D01*
X-83820Y30000D01*
D22*
X3048Y-60960D03*
X-143684Y-76772D03*
X-100584Y-45720D03*
D21*
X70104Y158496D02*
X82296Y158496D01*
X164592Y76200D01*
X164592Y64008D01*
X163068Y62484D01*
X149352Y62484D01*
X143256Y68580D01*
X70104Y158496D02*
X70000Y158781D01*
X141848Y70000D02*
X143256Y68580D01*
X71628Y109728D02*
X62484Y118872D01*
X47244Y118872D01*
X45720Y120396D01*
X60960Y150876D02*
X68580Y158496D01*
X71628Y109728D02*
X72350Y108805D01*
X68580Y158496D02*
X70000Y158781D01*
D22*
X45720Y120396D03*
X60960Y150876D03*
D21*
X128016Y83820D02*
X128016Y70104D01*
X128152Y70000D01*
X6096Y109728D02*
X6096Y118872D01*
X3048Y121920D01*
X6096Y109728D02*
X6350Y109289D01*
D22*
X128016Y83820D03*
X3048Y121920D03*
D21*
X-57912Y109728D02*
X-79248Y131064D01*
X-80000Y131848D01*
X-57912Y109728D02*
X-58650Y108805D01*
X-79248Y161544D02*
X-79248Y169164D01*
X-79248Y161544D02*
X-88392Y152400D01*
X-88392Y140208D01*
X-80772Y132588D01*
X-79248Y169164D02*
X-78152Y170000D01*
X-80772Y132588D02*
X-80000Y131848D01*
X141732Y48768D02*
X141732Y39624D01*
X141732Y48768D02*
X141848Y50000D01*
X45720Y109728D02*
X39624Y109728D01*
X38100Y111252D01*
X45720Y109728D02*
X46950Y108805D01*
D22*
X141732Y39624D03*
X38100Y111252D03*
D21*
X-25908Y115824D02*
X-25908Y118872D01*
X-25908Y115824D02*
X-19812Y109728D01*
X-19050Y109289D01*
X118872Y59436D02*
X128016Y50292D01*
X-30480Y59436D02*
X-30480Y97536D01*
X-19812Y108204D01*
X128016Y50292D02*
X128152Y50000D01*
X-19050Y109289D02*
X-19812Y108204D01*
D22*
X-25908Y118872D03*
X118872Y59436D03*
X-30480Y59436D03*
D21*
X-91440Y153924D02*
X-106680Y169164D01*
X-91440Y153924D02*
X-91440Y140208D01*
X-99060Y132588D01*
X-106680Y169164D02*
X-108152Y170000D01*
X-99060Y132588D02*
X-100000Y131848D01*
X-85344Y117348D02*
X-85344Y109728D01*
X-85344Y117348D02*
X-99060Y131064D01*
X-85344Y109728D02*
X-84050Y108805D01*
X-99060Y131064D02*
X-100000Y131848D01*
X111252Y-99060D02*
X123444Y-111252D01*
X129540Y-111252D01*
X111252Y-99060D02*
X109966Y-98146D01*
X129540Y-111252D02*
X130000Y-111848D01*
X131064Y-112776D02*
X143256Y-112776D01*
X155448Y-124968D01*
X131064Y-112776D02*
X130000Y-111848D01*
X155448Y-124968D02*
X156282Y-126383D01*
X-10668Y-108204D02*
X-18288Y-108204D01*
X-28956Y-108204D01*
X-30000Y-107746D01*
X-10668Y-108204D02*
X-10000Y-107746D01*
X12192Y-129540D02*
X12192Y-134112D01*
X12192Y-129540D02*
X-9144Y-108204D01*
X12192Y-134112D02*
X12254Y-134227D01*
X-9144Y-108204D02*
X-10000Y-107746D01*
X89916Y-59436D02*
X99060Y-50292D01*
X111252Y-50292D01*
X89916Y-59436D02*
X88752Y-60641D01*
X111252Y-50292D02*
X111848Y-50000D01*
X38100Y-89916D02*
X30480Y-82296D01*
X38100Y-89916D02*
X68580Y-89916D01*
X30480Y-82296D02*
X30034Y-81854D01*
X68580Y-89916D02*
X70000Y-90000D01*
X68580Y-123444D02*
X62484Y-129540D01*
X68580Y-123444D02*
X68580Y-91440D01*
X62484Y-129540D02*
X61854Y-129966D01*
X68580Y-91440D02*
X70000Y-90000D01*
X70104Y-79248D02*
X80772Y-68580D01*
X88392Y-60960D01*
X70104Y-79248D02*
X70104Y-89916D01*
X88392Y-60960D02*
X88752Y-60641D01*
X70104Y-89916D02*
X70000Y-90000D01*
X-18288Y-86868D02*
X-18288Y-108204D01*
X-18288Y-86868D02*
X-7620Y-76200D01*
X24384Y-76200D01*
X28956Y-80772D01*
X30034Y-81854D01*
X80772Y-68580D02*
X109728Y-97536D01*
X109966Y-98146D01*
X70000Y-90000D02*
X80772Y-68580D01*
X-138684Y-102108D02*
X-138684Y-129540D01*
X-137746Y-130000D01*
X-138684Y-102108D02*
X-139500Y-101438D01*
X-141732Y-99060D02*
X-169164Y-99060D01*
X-141732Y-99060D02*
X-140208Y-100584D01*
X-169164Y-99060D02*
X-169227Y-97746D01*
X-140208Y-100584D02*
X-139500Y-101438D01*
X-114300Y-135636D02*
X-79248Y-135636D01*
X-114300Y-135636D02*
X-115824Y-137160D01*
X-131064Y-137160D01*
X-137160Y-131064D01*
X-79248Y-135636D02*
X-78152Y-134209D01*
X-137160Y-131064D02*
X-137746Y-130000D01*
X-169164Y-27432D02*
X-169164Y10668D01*
X-141732Y-54864D02*
X-124968Y-71628D01*
X-141732Y-54864D02*
X-169164Y-27432D01*
X-124968Y-71628D02*
X-124968Y-86868D01*
X-138684Y-100584D01*
X-169164Y10668D02*
X-169209Y11848D01*
X-138684Y-100584D02*
X-139500Y-101438D01*
X-89916Y-3048D02*
X-89916Y7620D01*
X-89916Y-3048D02*
X-141732Y-54864D01*
X-70104Y-124968D02*
X-79248Y-134112D01*
X-78152Y-134209D01*
D22*
X-89916Y7620D03*
X-70104Y-124968D03*
D21*
X74676Y-134112D02*
X77724Y-137160D01*
X94488Y-137160D01*
X106680Y-124968D01*
X74610Y-133501D02*
X74676Y-134112D01*
D22*
X106680Y-124968D03*
D21*
X58319Y-126430D02*
X57912Y-126492D01*
D22*
X20488Y-121191D03*
D21*
X23237Y-123940D01*
X30147Y-123940D01*
X36703Y-130496D01*
X36703Y-131714D01*
X40258Y-135268D01*
X49136Y-135268D01*
X57912Y-126492D01*
X112776Y-94488D02*
X112776Y-86868D01*
X112776Y-94488D02*
X113501Y-94610D01*
X112776Y-86868D02*
X113501Y-85390D01*
X96012Y-45720D02*
X99060Y-42672D01*
X96012Y-45720D02*
X85344Y-56388D01*
X135636Y-42672D02*
X149352Y-42672D01*
X135636Y-42672D02*
X99060Y-42672D01*
X149352Y-42672D02*
X155448Y-48768D01*
X85344Y-56388D02*
X85217Y-57105D01*
X155448Y-48768D02*
X156282Y-50183D01*
X135636Y-64008D02*
X114300Y-85344D01*
X135636Y-64008D02*
X135636Y-42672D01*
X114300Y-85344D02*
X113501Y-85390D01*
X96012Y-45720D02*
X60960Y-10668D01*
X65390Y-133501D02*
X64008Y-134112D01*
X28956Y-135636D02*
X27746Y-134227D01*
X9144Y-85344D02*
X-3048Y-85344D01*
X9144Y-85344D02*
X13716Y-85344D01*
X25908Y-85344D01*
X-3048Y-85344D02*
X-9144Y-91440D01*
X25908Y-85344D02*
X26499Y-85390D01*
X-9144Y-91440D02*
X-10000Y-92254D01*
X-121920Y-102108D02*
X-121920Y-129540D01*
X-122254Y-130000D01*
X-121920Y-102108D02*
X-120500Y-101438D01*
X-94488Y-74676D02*
X-94488Y-24384D01*
X-94488Y-74676D02*
X-120396Y-100584D01*
X-120500Y-101438D01*
X56388Y-10668D02*
X56960Y-10668D01*
X60960Y-10668D01*
X56388Y-10668D02*
X50292Y-4572D01*
X24384Y-4572D01*
X13716Y-15240D01*
D22*
X-94488Y-24384D03*
X13716Y-15240D03*
X59979Y-13687D03*
D21*
X56960Y-10668D01*
X11299Y-87372D02*
X7744Y-90927D01*
D22*
X7744Y-82296D03*
D21*
X9144Y-83696D01*
X9144Y-85344D01*
X11688Y-87372D02*
X13716Y-85344D01*
X11688Y-87372D02*
X11299Y-87372D01*
X7744Y-90927D02*
X7744Y-117029D01*
X24942Y-134227D01*
X27746Y-134227D01*
X28956Y-135636D02*
X31636Y-138316D01*
X59804Y-138316D01*
X64008Y-134112D01*
X79248Y-48768D02*
X79248Y-47244D01*
X80772Y-45720D01*
X80772Y-44196D01*
X47244Y-10668D01*
X79248Y-48768D02*
X78146Y-50034D01*
D22*
X47244Y-10668D03*
D21*
X28956Y-73152D02*
X33528Y-77724D01*
X28956Y-73152D02*
X-10668Y-73152D01*
X-28956Y-91440D01*
X33570Y-78319D02*
X33528Y-77724D01*
X-28956Y-91440D02*
X-30000Y-92254D01*
X33528Y-21336D02*
X60960Y-48768D01*
X33528Y-21336D02*
X-13716Y-21336D01*
X-38100Y-45720D01*
X-38100Y-118872D01*
X-22860Y-134112D01*
X61854Y-50034D02*
X60960Y-48768D01*
X-22860Y-134112D02*
X-22500Y-134519D01*
X29576Y-117872D02*
X30831Y-116617D01*
X44176Y-112288D01*
D22*
X29576Y-117872D03*
D21*
X153924Y91440D02*
X158496Y91440D01*
X153924Y91440D02*
X123444Y121920D01*
X123444Y147828D01*
X122638Y148980D01*
D22*
X158496Y91440D03*
D21*
X47712Y-115824D02*
X45558Y-117978D01*
D22*
X42771Y-129200D03*
D21*
X45558Y-126414D02*
X45558Y-117978D01*
X45558Y-126414D02*
X42771Y-129200D01*
X92964Y-64008D02*
X99060Y-57912D01*
X120396Y-57912D01*
X128016Y-50292D01*
X92964Y-64008D02*
X92288Y-64176D01*
X128016Y-50292D02*
X128152Y-50000D01*
X100584Y-109728D02*
X118872Y-128016D01*
X129540Y-128016D01*
X100584Y-109728D02*
X99359Y-108752D01*
X129540Y-128016D02*
X130000Y-128152D01*
X-38100Y-134112D02*
X-60960Y-134112D01*
X-38100Y-134112D02*
X-37500Y-134519D01*
X-60960Y-134112D02*
X-61848Y-134209D01*
M02*
