G04 EAGLE Gerber RS-274X export*
G75*
%MOMM*%
%FSLAX34Y34*%
%LPD*%
%INVias*%
%IPPOS*%
%AMOC8*
5,1,8,0,0,1.08239X$1,22.5*%
G01*
G04 Define Apertures*
%ADD10C,0.756400*%
%ADD11C,1.500000*%
D10*
X46292Y-43768D03*
X-9144Y-64008D03*
X-15240Y-36576D03*
X-3048Y-36576D03*
X13812Y-93440D03*
X15240Y-33528D03*
X39127Y-54960D03*
X102108Y89916D03*
X-48768Y-15240D03*
X54864Y160020D03*
X-54864Y-39624D03*
X102108Y68580D03*
X35052Y68580D03*
X32004Y118872D03*
X-43576Y-26384D03*
X-59436Y128016D03*
X-32004Y108204D03*
X-36576Y67056D03*
X9144Y21336D03*
X-44196Y-70104D03*
X79248Y-19812D03*
X-92964Y48768D03*
X13716Y-3048D03*
X-111252Y62484D03*
X-1524Y-27432D03*
X111252Y33528D03*
X39794Y-37414D03*
D11*
X-80000Y90000D03*
X-10000Y90000D03*
X50000Y90000D03*
D10*
X91440Y135636D03*
X102108Y100584D03*
X27432Y-30480D03*
X3048Y-60960D03*
X-143684Y-76772D03*
X-100584Y-45720D03*
X45720Y120396D03*
X60960Y150876D03*
X128016Y83820D03*
X3048Y121920D03*
X141732Y39624D03*
X38100Y111252D03*
X-25908Y118872D03*
X118872Y59436D03*
X-30480Y59436D03*
X-89916Y7620D03*
X-70104Y-124968D03*
X106680Y-124968D03*
X20488Y-121191D03*
X-94488Y-24384D03*
X13716Y-15240D03*
X59979Y-13687D03*
X7744Y-82296D03*
X47244Y-10668D03*
X29576Y-117872D03*
X158496Y91440D03*
X42771Y-129200D03*
M02*
