G04 EAGLE Gerber RS-274X export*
G75*
%MOMM*%
%FSLAX34Y34*%
%LPD*%
%INTop Copper*%
%IPPOS*%
%AMOC8*
5,1,8,0,0,1.08239X$1,22.5*%
G01*
G04 Define Apertures*
%ADD10R,0.970200X0.920900*%
%ADD11P,3.4091X8X112.5*%
%ADD12C,3.149600*%
%ADD13C,1.676400*%
%ADD14C,2.000000*%
%ADD15R,1.000000X1.100000*%
%ADD16R,1.100000X1.000000*%
%ADD17R,0.798700X0.973900*%
%ADD18C,1.507100*%
%ADD19C,0.450000*%
%ADD20C,1.508000*%
%ADD21R,1.320800X1.320800*%
%ADD22C,1.320800*%
%ADD23R,1.990600X0.939000*%
%ADD24R,6.121400X5.511800*%
%ADD25C,1.778000*%
%ADD26C,1.524000*%
%ADD27C,1.524000*%
%ADD28R,0.973900X0.798700*%
%ADD29R,0.908000X0.909000*%
%ADD30R,5.505400X4.923800*%
%ADD31R,3.500000X1.600000*%
%ADD32R,9.750000X12.200000*%
%ADD33C,0.152400*%
%ADD34C,0.756400*%
%ADD35C,2.000000*%
%ADD36C,2.850000*%
G36*
X18322Y-585178D02*
X17828Y-585286D01*
X17331Y-585193D01*
X16910Y-584914D01*
X16063Y-584067D01*
X10097Y-580623D01*
X3444Y-578840D01*
X-3444Y-578840D01*
X-10097Y-580623D01*
X-16063Y-584067D01*
X-16910Y-584914D01*
X-17276Y-585169D01*
X-17768Y-585285D01*
X-18266Y-585201D01*
X-18692Y-584928D01*
X-18977Y-584511D01*
X-19078Y-584016D01*
X-19078Y-574535D01*
X-19076Y-574469D01*
X-18980Y-572617D01*
X-19005Y-572545D01*
X-19078Y-572121D01*
X-19078Y-572044D01*
X-19788Y-570331D01*
X-19811Y-570270D01*
X-20431Y-568522D01*
X-20482Y-568465D01*
X-20712Y-568101D01*
X-20741Y-568030D01*
X-22052Y-566719D01*
X-22098Y-566671D01*
X-23339Y-565293D01*
X-23408Y-565260D01*
X-23759Y-565012D01*
X-23813Y-564958D01*
X-25526Y-564248D01*
X-25587Y-564221D01*
X-27261Y-563423D01*
X-27337Y-563419D01*
X-27757Y-563324D01*
X-27827Y-563295D01*
X-29542Y-563295D01*
X-29660Y-563289D01*
X-75121Y-559052D01*
X-75224Y-559039D01*
X-120366Y-551085D01*
X-120467Y-551063D01*
X-164812Y-539462D01*
X-164911Y-539432D01*
X-208165Y-524261D01*
X-208262Y-524223D01*
X-229619Y-514716D01*
X-229957Y-514496D01*
X-230256Y-514088D01*
X-230372Y-513596D01*
X-230287Y-513098D01*
X-230015Y-512672D01*
X-229598Y-512387D01*
X-229103Y-512286D01*
X-225303Y-512286D01*
X-215686Y-502669D01*
X-215293Y-502402D01*
X-214798Y-502297D01*
X-214302Y-502394D01*
X-212622Y-503090D01*
X-209018Y-503090D01*
X-205688Y-501710D01*
X-203140Y-499162D01*
X-201761Y-495832D01*
X-201761Y-492228D01*
X-203140Y-488898D01*
X-205688Y-486350D01*
X-209018Y-484971D01*
X-212622Y-484971D01*
X-215952Y-486350D01*
X-218500Y-488898D01*
X-219880Y-492228D01*
X-219880Y-495832D01*
X-218867Y-498276D01*
X-218771Y-498741D01*
X-218863Y-499238D01*
X-219143Y-499660D01*
X-226825Y-507342D01*
X-227228Y-507613D01*
X-227723Y-507714D01*
X-236027Y-507714D01*
X-236504Y-507621D01*
X-236925Y-507342D01*
X-239010Y-505258D01*
X-239265Y-504892D01*
X-239381Y-504400D01*
X-239296Y-503902D01*
X-239024Y-503476D01*
X-238607Y-503190D01*
X-238112Y-503090D01*
X-234418Y-503090D01*
X-231088Y-501710D01*
X-228540Y-499162D01*
X-227161Y-495832D01*
X-227161Y-492228D01*
X-228540Y-488898D01*
X-231088Y-486350D01*
X-231930Y-486001D01*
X-232328Y-485740D01*
X-232613Y-485323D01*
X-232714Y-484828D01*
X-232714Y-481473D01*
X-232621Y-480996D01*
X-232342Y-480575D01*
X-216363Y-464596D01*
X-215960Y-464325D01*
X-215465Y-464224D01*
X-206069Y-464224D01*
X-205176Y-463331D01*
X-205176Y-451069D01*
X-206069Y-450176D01*
X-217331Y-450176D01*
X-218224Y-451069D01*
X-218224Y-459465D01*
X-218317Y-459942D01*
X-218596Y-460363D01*
X-232852Y-474619D01*
X-233236Y-474882D01*
X-233730Y-474991D01*
X-234227Y-474898D01*
X-234648Y-474619D01*
X-260996Y-448271D01*
X-261255Y-447896D01*
X-261368Y-447403D01*
X-261279Y-446906D01*
X-261003Y-446482D01*
X-260584Y-446200D01*
X-259494Y-445748D01*
X-258002Y-444256D01*
X-257194Y-442306D01*
X-257194Y-440130D01*
X-257264Y-439793D01*
X-257171Y-439296D01*
X-256892Y-438875D01*
X-236464Y-418447D01*
X-236464Y-249321D01*
X-236386Y-248882D01*
X-236120Y-248452D01*
X-235708Y-248159D01*
X-235214Y-248051D01*
X-234717Y-248143D01*
X-234296Y-248422D01*
X-233734Y-248984D01*
X-230403Y-250364D01*
X-226797Y-250364D01*
X-223466Y-248984D01*
X-220916Y-246434D01*
X-219536Y-243103D01*
X-219536Y-239497D01*
X-220916Y-236166D01*
X-223466Y-233616D01*
X-226797Y-232236D01*
X-230403Y-232236D01*
X-233734Y-233616D01*
X-234296Y-234178D01*
X-234662Y-234433D01*
X-235154Y-234549D01*
X-235652Y-234464D01*
X-236078Y-234192D01*
X-236363Y-233775D01*
X-236464Y-233280D01*
X-236464Y-227723D01*
X-236371Y-227246D01*
X-236092Y-226825D01*
X-233710Y-224443D01*
X-233317Y-224175D01*
X-232822Y-224071D01*
X-232326Y-224168D01*
X-230403Y-224964D01*
X-226797Y-224964D01*
X-223466Y-223584D01*
X-220916Y-221034D01*
X-219536Y-217703D01*
X-219536Y-214097D01*
X-220916Y-210766D01*
X-222228Y-209454D01*
X-222483Y-209088D01*
X-222599Y-208596D01*
X-222514Y-208098D01*
X-222242Y-207672D01*
X-221825Y-207387D01*
X-221330Y-207286D01*
X-191056Y-207286D01*
X-190598Y-207371D01*
X-190172Y-207644D01*
X-189887Y-208061D01*
X-189786Y-208556D01*
X-189786Y-407197D01*
X-116996Y-479987D01*
X-116725Y-480390D01*
X-116624Y-480885D01*
X-116624Y-485365D01*
X-116717Y-485842D01*
X-116996Y-486263D01*
X-122286Y-491553D01*
X-122286Y-520883D01*
X-122375Y-521350D01*
X-122651Y-521774D01*
X-123070Y-522056D01*
X-125782Y-523180D01*
X-128330Y-525728D01*
X-129710Y-529058D01*
X-129710Y-532662D01*
X-128330Y-535992D01*
X-125782Y-538540D01*
X-122452Y-539920D01*
X-118848Y-539920D01*
X-115518Y-538540D01*
X-112970Y-535992D01*
X-111591Y-532662D01*
X-111591Y-529058D01*
X-112970Y-525728D01*
X-115518Y-523180D01*
X-116930Y-522595D01*
X-117328Y-522334D01*
X-117613Y-521917D01*
X-117714Y-521422D01*
X-117714Y-493973D01*
X-117621Y-493496D01*
X-117342Y-493075D01*
X-114263Y-489996D01*
X-113860Y-489725D01*
X-113365Y-489624D01*
X-104469Y-489624D01*
X-103576Y-488731D01*
X-103576Y-476469D01*
X-104469Y-475576D01*
X-114415Y-475576D01*
X-114892Y-475483D01*
X-115313Y-475204D01*
X-184842Y-405675D01*
X-185113Y-405272D01*
X-185214Y-404777D01*
X-185214Y-251898D01*
X-185136Y-251460D01*
X-184870Y-251029D01*
X-184458Y-250737D01*
X-183964Y-250629D01*
X-183467Y-250721D01*
X-183046Y-251000D01*
X-177803Y-256243D01*
X-170761Y-259160D01*
X-163139Y-259160D01*
X-156097Y-256243D01*
X-150707Y-250853D01*
X-150527Y-250419D01*
X-150266Y-250021D01*
X-149849Y-249736D01*
X-149354Y-249635D01*
X-130046Y-249635D01*
X-129579Y-249724D01*
X-129155Y-250000D01*
X-128873Y-250419D01*
X-128693Y-250853D01*
X-123303Y-256243D01*
X-116261Y-259160D01*
X-108639Y-259160D01*
X-101597Y-256243D01*
X-96954Y-251600D01*
X-96588Y-251345D01*
X-96096Y-251229D01*
X-95598Y-251314D01*
X-95172Y-251586D01*
X-94887Y-252003D01*
X-94863Y-252120D01*
X-93447Y-253536D01*
X-45303Y-253536D01*
X-37714Y-245947D01*
X-37714Y-225303D01*
X-42184Y-220833D01*
X-42451Y-220440D01*
X-42556Y-219945D01*
X-42459Y-219449D01*
X-41736Y-217703D01*
X-41736Y-214097D01*
X-43116Y-210766D01*
X-45666Y-208216D01*
X-48997Y-206836D01*
X-52603Y-206836D01*
X-55934Y-208216D01*
X-58484Y-210766D01*
X-59864Y-214097D01*
X-59864Y-217703D01*
X-58484Y-221034D01*
X-55934Y-223584D01*
X-52603Y-224964D01*
X-48997Y-224964D01*
X-46615Y-223977D01*
X-46149Y-223881D01*
X-45652Y-223973D01*
X-45230Y-224252D01*
X-42658Y-226825D01*
X-42387Y-227228D01*
X-42286Y-227723D01*
X-42286Y-233930D01*
X-42364Y-234368D01*
X-42630Y-234798D01*
X-43042Y-235091D01*
X-43536Y-235199D01*
X-44033Y-235107D01*
X-44454Y-234828D01*
X-45666Y-233616D01*
X-48997Y-232236D01*
X-52603Y-232236D01*
X-54950Y-233208D01*
X-55416Y-233305D01*
X-55913Y-233212D01*
X-56334Y-232933D01*
X-96092Y-193175D01*
X-96363Y-192772D01*
X-96464Y-192277D01*
X-96464Y49623D01*
X-96389Y50053D01*
X-96127Y50485D01*
X-95717Y50781D01*
X-95224Y50893D01*
X-94727Y50804D01*
X-94303Y50528D01*
X-94021Y50109D01*
X-93248Y48244D01*
X-91756Y46752D01*
X-89806Y45944D01*
X-87695Y45944D01*
X-85744Y46752D01*
X-84252Y48244D01*
X-83444Y50195D01*
X-83444Y52306D01*
X-84252Y54256D01*
X-85744Y55748D01*
X-86930Y56239D01*
X-87328Y56500D01*
X-87613Y56917D01*
X-87714Y57413D01*
X-87714Y293447D01*
X-102995Y308728D01*
X-103250Y309094D01*
X-103366Y309586D01*
X-103282Y310084D01*
X-103009Y310510D01*
X-102592Y310795D01*
X-102097Y310896D01*
X-99528Y310896D01*
X-95701Y312481D01*
X-92771Y315411D01*
X-91186Y319238D01*
X-91186Y341162D01*
X-92771Y344989D01*
X-95701Y347919D01*
X-98180Y348945D01*
X-98578Y349207D01*
X-98863Y349623D01*
X-98964Y350119D01*
X-98964Y485990D01*
X-98879Y486448D01*
X-98606Y486874D01*
X-98189Y487159D01*
X-98100Y487178D01*
X-98100Y503416D01*
X-98152Y503425D01*
X-98578Y503698D01*
X-98863Y504115D01*
X-98964Y504610D01*
X-98964Y520531D01*
X-98879Y520988D01*
X-98606Y521414D01*
X-98189Y521700D01*
X-97694Y521801D01*
X-95988Y521801D01*
X-92658Y523180D01*
X-90110Y525728D01*
X-88731Y529058D01*
X-88731Y532662D01*
X-90110Y535992D01*
X-92658Y538540D01*
X-95988Y539920D01*
X-99592Y539920D01*
X-102922Y538540D01*
X-105470Y535992D01*
X-106850Y532662D01*
X-106850Y529058D01*
X-105470Y525728D01*
X-103908Y524166D01*
X-103637Y523763D01*
X-103536Y523268D01*
X-103536Y503594D01*
X-103621Y503136D01*
X-103894Y502710D01*
X-104311Y502425D01*
X-104806Y502324D01*
X-106444Y502324D01*
X-106902Y502409D01*
X-107328Y502682D01*
X-107613Y503099D01*
X-107714Y503594D01*
X-107714Y518447D01*
X-114759Y525492D01*
X-115026Y525885D01*
X-115131Y526380D01*
X-115034Y526876D01*
X-114131Y529058D01*
X-114131Y532662D01*
X-115510Y535992D01*
X-118058Y538540D01*
X-121388Y539920D01*
X-124992Y539920D01*
X-128322Y538540D01*
X-130870Y535992D01*
X-132250Y532662D01*
X-132250Y529798D01*
X-132328Y529360D01*
X-132593Y528930D01*
X-133006Y528637D01*
X-133499Y528529D01*
X-133996Y528621D01*
X-134418Y528900D01*
X-135642Y530125D01*
X-135909Y530518D01*
X-136014Y531013D01*
X-135944Y531372D01*
X-135944Y533556D01*
X-136752Y535506D01*
X-138244Y536998D01*
X-140195Y537806D01*
X-142306Y537806D01*
X-144256Y536998D01*
X-145748Y535506D01*
X-146556Y533556D01*
X-146556Y531445D01*
X-145748Y529494D01*
X-144256Y528002D01*
X-142306Y527194D01*
X-140130Y527194D01*
X-139793Y527264D01*
X-139296Y527171D01*
X-138875Y526892D01*
X-121858Y509875D01*
X-121591Y509482D01*
X-121486Y508987D01*
X-121556Y508628D01*
X-121556Y506445D01*
X-120748Y504494D01*
X-119256Y503002D01*
X-117408Y502237D01*
X-117010Y501975D01*
X-116725Y501559D01*
X-116624Y501063D01*
X-116624Y493385D01*
X-116717Y492908D01*
X-116996Y492487D01*
X-120125Y489358D01*
X-120518Y489091D01*
X-121013Y488986D01*
X-121372Y489056D01*
X-123556Y489056D01*
X-125506Y488248D01*
X-126998Y486756D01*
X-127806Y484806D01*
X-127806Y482695D01*
X-126998Y480744D01*
X-125506Y479252D01*
X-123556Y478444D01*
X-121445Y478444D01*
X-119494Y479252D01*
X-118002Y480744D01*
X-117194Y482695D01*
X-117194Y484870D01*
X-117264Y485207D01*
X-117171Y485704D01*
X-116892Y486125D01*
X-115113Y487904D01*
X-114710Y488175D01*
X-114215Y488276D01*
X-104806Y488276D01*
X-104348Y488191D01*
X-103922Y487918D01*
X-103637Y487501D01*
X-103536Y487006D01*
X-103536Y350409D01*
X-103625Y349941D01*
X-103901Y349518D01*
X-104320Y349235D01*
X-107499Y347919D01*
X-110429Y344989D01*
X-112014Y341162D01*
X-112014Y320813D01*
X-112092Y320374D01*
X-112358Y319944D01*
X-112770Y319652D01*
X-113264Y319543D01*
X-113761Y319636D01*
X-114182Y319915D01*
X-152735Y358468D01*
X-152994Y358842D01*
X-153106Y359335D01*
X-153018Y359833D01*
X-152742Y360256D01*
X-152323Y360539D01*
X-152300Y360548D01*
X-149728Y363120D01*
X-148336Y366481D01*
X-148336Y370119D01*
X-149728Y373480D01*
X-152300Y376052D01*
X-155661Y377444D01*
X-174539Y377444D01*
X-177900Y376052D01*
X-180472Y373480D01*
X-181864Y370119D01*
X-181864Y366481D01*
X-180472Y363120D01*
X-177900Y360548D01*
X-174539Y359156D01*
X-160415Y359156D01*
X-159938Y359063D01*
X-159517Y358784D01*
X-154945Y354212D01*
X-154690Y353846D01*
X-154574Y353354D01*
X-154658Y352856D01*
X-154931Y352430D01*
X-155348Y352145D01*
X-155843Y352044D01*
X-174539Y352044D01*
X-177900Y350652D01*
X-180472Y348080D01*
X-181864Y344719D01*
X-181864Y341081D01*
X-180472Y337720D01*
X-177900Y335148D01*
X-174539Y333756D01*
X-160015Y333756D01*
X-159538Y333663D01*
X-159117Y333384D01*
X-155561Y329828D01*
X-155306Y329462D01*
X-155190Y328970D01*
X-155274Y328472D01*
X-155547Y328046D01*
X-155964Y327761D01*
X-156459Y327660D01*
X-174741Y327660D01*
X-178475Y326113D01*
X-179468Y325120D01*
X-157480Y325120D01*
X-157480Y307340D01*
X-155459Y307340D01*
X-151725Y308887D01*
X-148867Y311745D01*
X-147320Y315479D01*
X-147320Y318521D01*
X-147242Y318960D01*
X-146976Y319390D01*
X-146564Y319682D01*
X-146070Y319791D01*
X-145573Y319698D01*
X-145152Y319419D01*
X-131408Y305675D01*
X-131137Y305272D01*
X-131036Y304777D01*
X-131036Y246221D01*
X-131114Y245782D01*
X-131380Y245352D01*
X-131792Y245059D01*
X-132286Y244951D01*
X-132783Y245043D01*
X-133204Y245322D01*
X-134566Y246684D01*
X-137897Y248064D01*
X-141503Y248064D01*
X-144834Y246684D01*
X-147384Y244134D01*
X-148764Y240803D01*
X-148764Y237197D01*
X-147384Y233866D01*
X-144834Y231316D01*
X-141503Y229936D01*
X-137897Y229936D01*
X-134566Y231316D01*
X-133204Y232678D01*
X-132838Y232933D01*
X-132346Y233049D01*
X-131848Y232964D01*
X-131422Y232692D01*
X-131137Y232275D01*
X-131036Y231780D01*
X-131036Y89835D01*
X-131114Y89396D01*
X-131380Y88966D01*
X-131792Y88674D01*
X-132286Y88565D01*
X-132783Y88658D01*
X-133204Y88937D01*
X-191092Y146825D01*
X-191363Y147228D01*
X-191464Y147723D01*
X-191464Y226855D01*
X-191375Y227322D01*
X-191099Y227746D01*
X-190796Y227951D01*
X-189252Y229494D01*
X-188444Y231445D01*
X-188444Y233556D01*
X-189252Y235506D01*
X-190744Y236998D01*
X-192695Y237806D01*
X-194805Y237806D01*
X-195958Y237329D01*
X-196404Y237233D01*
X-196902Y237317D01*
X-197328Y237590D01*
X-197613Y238007D01*
X-197714Y238502D01*
X-197714Y448906D01*
X-197629Y449364D01*
X-197356Y449790D01*
X-196939Y450075D01*
X-196444Y450176D01*
X-193369Y450176D01*
X-192476Y451069D01*
X-192476Y463331D01*
X-193369Y464224D01*
X-202965Y464224D01*
X-203442Y464317D01*
X-203863Y464596D01*
X-224842Y485575D01*
X-225113Y485978D01*
X-225214Y486473D01*
X-225214Y487318D01*
X-225125Y487785D01*
X-224849Y488209D01*
X-224430Y488491D01*
X-223468Y488890D01*
X-220920Y491438D01*
X-219541Y494768D01*
X-219541Y498372D01*
X-220920Y501702D01*
X-222264Y503046D01*
X-222519Y503412D01*
X-222635Y503904D01*
X-222551Y504402D01*
X-222278Y504828D01*
X-221861Y505113D01*
X-221366Y505214D01*
X-210434Y505214D01*
X-209995Y505136D01*
X-209565Y504870D01*
X-209273Y504458D01*
X-209164Y503964D01*
X-209257Y503467D01*
X-209536Y503046D01*
X-210880Y501702D01*
X-212260Y498372D01*
X-212260Y494768D01*
X-210880Y491438D01*
X-208332Y488890D01*
X-205002Y487511D01*
X-201398Y487511D01*
X-198068Y488890D01*
X-195520Y491438D01*
X-194141Y494768D01*
X-194141Y498372D01*
X-195520Y501702D01*
X-198068Y504250D01*
X-200680Y505332D01*
X-201078Y505593D01*
X-201363Y506010D01*
X-201464Y506505D01*
X-201464Y508447D01*
X-202803Y509786D01*
X-233447Y509786D01*
X-241036Y502197D01*
X-241036Y401056D01*
X-241121Y400598D01*
X-241394Y400172D01*
X-241811Y399887D01*
X-242306Y399786D01*
X-262090Y399786D01*
X-262548Y399871D01*
X-262974Y400144D01*
X-263259Y400561D01*
X-263360Y401056D01*
X-263360Y401400D01*
X-275900Y401400D01*
X-275900Y414440D01*
X-276952Y414440D01*
X-278440Y412952D01*
X-278440Y401056D01*
X-278525Y400598D01*
X-278798Y400172D01*
X-279215Y399887D01*
X-279710Y399786D01*
X-280106Y399786D01*
X-280564Y399871D01*
X-280990Y400144D01*
X-281275Y400561D01*
X-281376Y401056D01*
X-281376Y412531D01*
X-282269Y413424D01*
X-285194Y413424D01*
X-285652Y413509D01*
X-286078Y413782D01*
X-286363Y414199D01*
X-286464Y414694D01*
X-286464Y445947D01*
X-295303Y454786D01*
X-325947Y454786D01*
X-327286Y453447D01*
X-327286Y451717D01*
X-327375Y451250D01*
X-327651Y450827D01*
X-328070Y450544D01*
X-330252Y449640D01*
X-332800Y447092D01*
X-334180Y443762D01*
X-334180Y440158D01*
X-332800Y436828D01*
X-330252Y434280D01*
X-329320Y433894D01*
X-328922Y433633D01*
X-328637Y433216D01*
X-328536Y432720D01*
X-328536Y351473D01*
X-328629Y350996D01*
X-328908Y350575D01*
X-337392Y342091D01*
X-337758Y341836D01*
X-338250Y341720D01*
X-338748Y341804D01*
X-339174Y342077D01*
X-339459Y342494D01*
X-339560Y342989D01*
X-339560Y349452D01*
X-341048Y350940D01*
X-342100Y350940D01*
X-342100Y337900D01*
X-352100Y337900D01*
X-352100Y350940D01*
X-353152Y350940D01*
X-354640Y349452D01*
X-354640Y339689D01*
X-354718Y339250D01*
X-354984Y338820D01*
X-355396Y338528D01*
X-355890Y338419D01*
X-356387Y338512D01*
X-356808Y338791D01*
X-357204Y339187D01*
X-357475Y339590D01*
X-357576Y340085D01*
X-357576Y349031D01*
X-358469Y349924D01*
X-369731Y349924D01*
X-370624Y349031D01*
X-370624Y347306D01*
X-370709Y346848D01*
X-370982Y346422D01*
X-371399Y346137D01*
X-371894Y346036D01*
X-403944Y346036D01*
X-404402Y346121D01*
X-404828Y346394D01*
X-405113Y346811D01*
X-405214Y347306D01*
X-405214Y359933D01*
X-405125Y360400D01*
X-404849Y360824D01*
X-404430Y361106D01*
X-402538Y361890D01*
X-399990Y364438D01*
X-398611Y367768D01*
X-398611Y371372D01*
X-399990Y374702D01*
X-402538Y377250D01*
X-405868Y378630D01*
X-409472Y378630D01*
X-412802Y377250D01*
X-415350Y374702D01*
X-416730Y371372D01*
X-416730Y367768D01*
X-415350Y364438D01*
X-412802Y361890D01*
X-410570Y360965D01*
X-410172Y360704D01*
X-409887Y360287D01*
X-409786Y359792D01*
X-409786Y342803D01*
X-408447Y341464D01*
X-371894Y341464D01*
X-371436Y341379D01*
X-371010Y341106D01*
X-370725Y340689D01*
X-370624Y340194D01*
X-370624Y336769D01*
X-369731Y335876D01*
X-360885Y335876D01*
X-360408Y335783D01*
X-359987Y335504D01*
X-347658Y323175D01*
X-347387Y322772D01*
X-347286Y322277D01*
X-347286Y134684D01*
X-347364Y134245D01*
X-347630Y133815D01*
X-348042Y133522D01*
X-348536Y133414D01*
X-349033Y133506D01*
X-349454Y133786D01*
X-350420Y134752D01*
X-353781Y136144D01*
X-357419Y136144D01*
X-360780Y134752D01*
X-363352Y132180D01*
X-364744Y128819D01*
X-364744Y125181D01*
X-363841Y123001D01*
X-363744Y122535D01*
X-363837Y122038D01*
X-364116Y121617D01*
X-388046Y97687D01*
X-388412Y97432D01*
X-388904Y97316D01*
X-389402Y97400D01*
X-389828Y97673D01*
X-390113Y98090D01*
X-390214Y98585D01*
X-390214Y113527D01*
X-390121Y114004D01*
X-389842Y114425D01*
X-385959Y118308D01*
X-385566Y118576D01*
X-385071Y118680D01*
X-384575Y118583D01*
X-382819Y117856D01*
X-379181Y117856D01*
X-375820Y119248D01*
X-373248Y121820D01*
X-371856Y125181D01*
X-371856Y128819D01*
X-373248Y132180D01*
X-375820Y134752D01*
X-379181Y136144D01*
X-382819Y136144D01*
X-386180Y134752D01*
X-388752Y132180D01*
X-390144Y128819D01*
X-390144Y125181D01*
X-389124Y122718D01*
X-389027Y122252D01*
X-389120Y121755D01*
X-389399Y121334D01*
X-394786Y115947D01*
X-394786Y-39355D01*
X-394875Y-39822D01*
X-395151Y-40246D01*
X-395454Y-40451D01*
X-396998Y-41994D01*
X-397806Y-43945D01*
X-397806Y-46056D01*
X-396998Y-48006D01*
X-395506Y-49498D01*
X-393556Y-50306D01*
X-391445Y-50306D01*
X-389494Y-49498D01*
X-388002Y-48006D01*
X-387194Y-46056D01*
X-387194Y-44076D01*
X-387109Y-43618D01*
X-386836Y-43192D01*
X-386419Y-42907D01*
X-385924Y-42806D01*
X-385195Y-42806D01*
X-384180Y-42386D01*
X-383734Y-42290D01*
X-383236Y-42374D01*
X-382810Y-42647D01*
X-382525Y-43064D01*
X-382424Y-43559D01*
X-382424Y-45813D01*
X-380383Y-47854D01*
X-380120Y-48238D01*
X-380011Y-48732D01*
X-380104Y-49229D01*
X-380383Y-49650D01*
X-412625Y-81892D01*
X-413018Y-82159D01*
X-413513Y-82264D01*
X-413872Y-82194D01*
X-416056Y-82194D01*
X-418006Y-83002D01*
X-419498Y-84494D01*
X-420306Y-86445D01*
X-420306Y-88556D01*
X-419498Y-90506D01*
X-418006Y-91998D01*
X-416056Y-92806D01*
X-413945Y-92806D01*
X-411994Y-91998D01*
X-410502Y-90506D01*
X-409694Y-88556D01*
X-409694Y-86380D01*
X-409764Y-86043D01*
X-409671Y-85546D01*
X-409392Y-85125D01*
X-372663Y-48396D01*
X-372260Y-48125D01*
X-371765Y-48024D01*
X-371056Y-48024D01*
X-370598Y-48109D01*
X-370172Y-48382D01*
X-369887Y-48799D01*
X-369786Y-49294D01*
X-369786Y-78527D01*
X-369879Y-79004D01*
X-370158Y-79425D01*
X-435125Y-144392D01*
X-435518Y-144659D01*
X-436013Y-144764D01*
X-436372Y-144694D01*
X-438556Y-144694D01*
X-440506Y-145502D01*
X-441998Y-146994D01*
X-442806Y-148945D01*
X-442806Y-151056D01*
X-441998Y-153006D01*
X-440506Y-154498D01*
X-438556Y-155306D01*
X-436445Y-155306D01*
X-434494Y-154498D01*
X-432896Y-152900D01*
X-432822Y-152785D01*
X-432410Y-152493D01*
X-431916Y-152384D01*
X-431419Y-152477D01*
X-430998Y-152756D01*
X-430506Y-153248D01*
X-428556Y-154056D01*
X-426445Y-154056D01*
X-424494Y-153248D01*
X-423002Y-151756D01*
X-422194Y-149806D01*
X-422194Y-147630D01*
X-422264Y-147293D01*
X-422171Y-146796D01*
X-421892Y-146375D01*
X-413648Y-138131D01*
X-413282Y-137876D01*
X-412790Y-137760D01*
X-412292Y-137844D01*
X-411866Y-138117D01*
X-411581Y-138534D01*
X-411480Y-139029D01*
X-411480Y-141721D01*
X-409933Y-145455D01*
X-407075Y-148313D01*
X-403341Y-149860D01*
X-384059Y-149860D01*
X-380325Y-148313D01*
X-379454Y-147442D01*
X-379088Y-147187D01*
X-378596Y-147071D01*
X-378098Y-147156D01*
X-377672Y-147428D01*
X-377387Y-147845D01*
X-377286Y-148340D01*
X-377286Y-157896D01*
X-377364Y-158335D01*
X-377630Y-158765D01*
X-378042Y-159058D01*
X-378536Y-159166D01*
X-379033Y-159074D01*
X-379454Y-158794D01*
X-380900Y-157348D01*
X-384261Y-155956D01*
X-403139Y-155956D01*
X-406500Y-157348D01*
X-409072Y-159920D01*
X-410464Y-163281D01*
X-410464Y-166919D01*
X-409072Y-170280D01*
X-406500Y-172852D01*
X-403139Y-174244D01*
X-384261Y-174244D01*
X-382846Y-173658D01*
X-382421Y-173563D01*
X-381921Y-173639D01*
X-381491Y-173905D01*
X-381199Y-174317D01*
X-381090Y-174811D01*
X-381183Y-175308D01*
X-381462Y-175729D01*
X-386717Y-180984D01*
X-387120Y-181255D01*
X-387615Y-181356D01*
X-403139Y-181356D01*
X-406500Y-182748D01*
X-409072Y-185320D01*
X-410464Y-188681D01*
X-410464Y-192319D01*
X-409072Y-195680D01*
X-406500Y-198252D01*
X-403139Y-199644D01*
X-384261Y-199644D01*
X-380900Y-198252D01*
X-378328Y-195680D01*
X-376936Y-192319D01*
X-376936Y-188681D01*
X-378328Y-185320D01*
X-380560Y-183089D01*
X-380823Y-182705D01*
X-380932Y-182211D01*
X-380839Y-181714D01*
X-380560Y-181293D01*
X-372714Y-173447D01*
X-372714Y-133973D01*
X-372621Y-133496D01*
X-372342Y-133075D01*
X-367375Y-128108D01*
X-366982Y-127841D01*
X-366487Y-127736D01*
X-366128Y-127806D01*
X-363945Y-127806D01*
X-362792Y-127329D01*
X-362346Y-127233D01*
X-361848Y-127317D01*
X-361422Y-127590D01*
X-361137Y-128007D01*
X-361036Y-128502D01*
X-361036Y-318447D01*
X-359491Y-319992D01*
X-359236Y-320358D01*
X-359120Y-320850D01*
X-359204Y-321348D01*
X-359477Y-321774D01*
X-359894Y-322059D01*
X-360389Y-322160D01*
X-365852Y-322160D01*
X-367340Y-323648D01*
X-367340Y-336752D01*
X-365852Y-338240D01*
X-359539Y-338240D01*
X-359100Y-338318D01*
X-358670Y-338584D01*
X-358378Y-338996D01*
X-358269Y-339490D01*
X-358362Y-339987D01*
X-358641Y-340408D01*
X-373046Y-354813D01*
X-373412Y-355068D01*
X-373904Y-355184D01*
X-374402Y-355100D01*
X-374828Y-354827D01*
X-375113Y-354410D01*
X-375214Y-353915D01*
X-375214Y-338494D01*
X-375129Y-338036D01*
X-374856Y-337610D01*
X-374439Y-337325D01*
X-373944Y-337224D01*
X-371169Y-337224D01*
X-370276Y-336331D01*
X-370276Y-324069D01*
X-371169Y-323176D01*
X-382431Y-323176D01*
X-383324Y-324069D01*
X-383324Y-336331D01*
X-382431Y-337224D01*
X-381056Y-337224D01*
X-380598Y-337309D01*
X-380172Y-337582D01*
X-379887Y-337999D01*
X-379786Y-338494D01*
X-379786Y-351415D01*
X-379864Y-351854D01*
X-380130Y-352284D01*
X-380542Y-352576D01*
X-381036Y-352685D01*
X-381533Y-352592D01*
X-381954Y-352313D01*
X-391892Y-342375D01*
X-392159Y-341982D01*
X-392264Y-341487D01*
X-392194Y-341128D01*
X-392194Y-338945D01*
X-393002Y-336994D01*
X-394494Y-335502D01*
X-396445Y-334694D01*
X-398556Y-334694D01*
X-400506Y-335502D01*
X-401998Y-336994D01*
X-402806Y-338945D01*
X-402806Y-341056D01*
X-402311Y-342251D01*
X-402216Y-342676D01*
X-402292Y-343176D01*
X-402558Y-343606D01*
X-402970Y-343898D01*
X-403464Y-344007D01*
X-403961Y-343914D01*
X-404382Y-343635D01*
X-440609Y-307409D01*
X-440872Y-307024D01*
X-440980Y-306531D01*
X-440888Y-306034D01*
X-440609Y-305612D01*
X-439252Y-304256D01*
X-438444Y-302306D01*
X-438444Y-300195D01*
X-438867Y-299173D01*
X-438964Y-298687D01*
X-438964Y-249835D01*
X-438886Y-249396D01*
X-438620Y-248966D01*
X-438208Y-248674D01*
X-437714Y-248565D01*
X-437217Y-248658D01*
X-436796Y-248937D01*
X-434496Y-251237D01*
X-434225Y-251640D01*
X-434124Y-252135D01*
X-434124Y-260131D01*
X-433231Y-261024D01*
X-421969Y-261024D01*
X-421076Y-260131D01*
X-421076Y-247869D01*
X-421969Y-246976D01*
X-431444Y-246976D01*
X-431902Y-246891D01*
X-432328Y-246618D01*
X-432613Y-246201D01*
X-432714Y-245706D01*
X-432714Y-234053D01*
X-434619Y-232148D01*
X-434882Y-231764D01*
X-434991Y-231270D01*
X-434898Y-230773D01*
X-434619Y-230352D01*
X-429875Y-225608D01*
X-429482Y-225341D01*
X-428987Y-225236D01*
X-428628Y-225306D01*
X-426445Y-225306D01*
X-424494Y-224498D01*
X-423002Y-223006D01*
X-422194Y-221056D01*
X-422194Y-218945D01*
X-423002Y-216994D01*
X-424494Y-215502D01*
X-426445Y-214694D01*
X-428556Y-214694D01*
X-430506Y-215502D01*
X-431998Y-216994D01*
X-432806Y-218945D01*
X-432806Y-221120D01*
X-432736Y-221457D01*
X-432829Y-221954D01*
X-433108Y-222375D01*
X-439325Y-228592D01*
X-439728Y-228863D01*
X-440223Y-228964D01*
X-478447Y-228964D01*
X-479786Y-230303D01*
X-479786Y-269684D01*
X-479875Y-270151D01*
X-480151Y-270575D01*
X-480570Y-270857D01*
X-482652Y-271720D01*
X-485200Y-274268D01*
X-486580Y-277598D01*
X-486580Y-279939D01*
X-486615Y-280238D01*
X-486829Y-280695D01*
X-487205Y-281033D01*
X-487683Y-281198D01*
X-488187Y-281163D01*
X-488638Y-280935D01*
X-488964Y-280548D01*
X-505537Y-250230D01*
X-505583Y-250138D01*
X-516072Y-226572D01*
X-516182Y-226096D01*
X-516097Y-225598D01*
X-515824Y-225172D01*
X-515408Y-224887D01*
X-514912Y-224786D01*
X-501553Y-224786D01*
X-476464Y-199697D01*
X-476464Y-192723D01*
X-476371Y-192246D01*
X-476092Y-191825D01*
X-469463Y-185196D01*
X-469060Y-184925D01*
X-468565Y-184824D01*
X-460069Y-184824D01*
X-459176Y-183931D01*
X-459176Y-175435D01*
X-459083Y-174958D01*
X-458804Y-174537D01*
X-458408Y-174141D01*
X-458042Y-173886D01*
X-457550Y-173770D01*
X-457052Y-173854D01*
X-456626Y-174127D01*
X-456341Y-174544D01*
X-456240Y-175039D01*
X-456240Y-184352D01*
X-454752Y-185840D01*
X-453700Y-185840D01*
X-453700Y-172800D01*
X-441160Y-172800D01*
X-441160Y-171248D01*
X-442648Y-169760D01*
X-447560Y-169760D01*
X-448008Y-169678D01*
X-448436Y-169409D01*
X-448725Y-168995D01*
X-448830Y-168500D01*
X-448733Y-168004D01*
X-448444Y-167305D01*
X-448444Y-165195D01*
X-449252Y-163244D01*
X-450744Y-161752D01*
X-452695Y-160944D01*
X-454806Y-160944D01*
X-456756Y-161752D01*
X-458248Y-163244D01*
X-459056Y-165195D01*
X-459056Y-167370D01*
X-458986Y-167707D01*
X-459079Y-168204D01*
X-459358Y-168625D01*
X-461137Y-170404D01*
X-461540Y-170675D01*
X-462035Y-170776D01*
X-471331Y-170776D01*
X-472224Y-171669D01*
X-472224Y-180965D01*
X-472317Y-181442D01*
X-472596Y-181863D01*
X-478046Y-187313D01*
X-478412Y-187568D01*
X-478904Y-187684D01*
X-479402Y-187600D01*
X-479828Y-187327D01*
X-480113Y-186910D01*
X-480214Y-186415D01*
X-480214Y-170645D01*
X-480125Y-170178D01*
X-479849Y-169754D01*
X-479546Y-169550D01*
X-478002Y-168006D01*
X-477194Y-166056D01*
X-477194Y-163945D01*
X-478002Y-161994D01*
X-479494Y-160502D01*
X-481445Y-159694D01*
X-483556Y-159694D01*
X-485506Y-160502D01*
X-486998Y-161994D01*
X-487806Y-163945D01*
X-487806Y-166056D01*
X-486998Y-168006D01*
X-485460Y-169544D01*
X-485172Y-169733D01*
X-484887Y-170150D01*
X-484786Y-170645D01*
X-484786Y-183866D01*
X-484864Y-184305D01*
X-485130Y-184735D01*
X-485542Y-185027D01*
X-486036Y-185136D01*
X-486533Y-185043D01*
X-486954Y-184764D01*
X-488898Y-182820D01*
X-492228Y-181441D01*
X-495832Y-181441D01*
X-498226Y-182432D01*
X-498692Y-182529D01*
X-499189Y-182436D01*
X-499610Y-182157D01*
X-517342Y-164425D01*
X-517613Y-164022D01*
X-517714Y-163527D01*
X-517714Y-107208D01*
X-517625Y-106740D01*
X-517349Y-106317D01*
X-516930Y-106034D01*
X-515568Y-105470D01*
X-513020Y-102922D01*
X-511641Y-99592D01*
X-511641Y-95988D01*
X-513020Y-92658D01*
X-515568Y-90110D01*
X-518898Y-88731D01*
X-522502Y-88731D01*
X-523458Y-89126D01*
X-523904Y-89222D01*
X-524402Y-89138D01*
X-524828Y-88865D01*
X-525113Y-88448D01*
X-525214Y-87953D01*
X-525214Y-15356D01*
X-525136Y-14917D01*
X-524870Y-14487D01*
X-524458Y-14195D01*
X-523964Y-14086D01*
X-523467Y-14179D01*
X-523046Y-14458D01*
X-523006Y-14498D01*
X-521056Y-15306D01*
X-518945Y-15306D01*
X-516994Y-14498D01*
X-515502Y-13006D01*
X-514694Y-11056D01*
X-514694Y-8880D01*
X-514764Y-8543D01*
X-514671Y-8046D01*
X-514392Y-7625D01*
X-512492Y-5725D01*
X-512126Y-5470D01*
X-511634Y-5354D01*
X-511136Y-5438D01*
X-510710Y-5711D01*
X-510636Y-5819D01*
X-509431Y-7024D01*
X-498169Y-7024D01*
X-497276Y-6131D01*
X-497276Y6131D01*
X-498169Y7024D01*
X-499107Y7024D01*
X-499555Y7106D01*
X-499983Y7375D01*
X-500272Y7789D01*
X-500377Y8284D01*
X-500280Y8780D01*
X-499694Y10195D01*
X-499694Y12306D01*
X-500502Y14256D01*
X-501994Y15748D01*
X-503945Y16556D01*
X-506055Y16556D01*
X-507208Y16079D01*
X-507654Y15983D01*
X-508152Y16067D01*
X-508578Y16340D01*
X-508863Y16757D01*
X-508964Y17252D01*
X-508964Y20605D01*
X-508875Y21072D01*
X-508599Y21496D01*
X-508296Y21701D01*
X-506752Y23244D01*
X-505944Y25195D01*
X-505944Y27306D01*
X-506752Y29256D01*
X-508244Y30748D01*
X-510195Y31556D01*
X-512306Y31556D01*
X-514256Y30748D01*
X-515748Y29256D01*
X-516556Y27306D01*
X-516556Y25195D01*
X-515748Y23244D01*
X-514210Y21706D01*
X-513922Y21517D01*
X-513637Y21100D01*
X-513536Y20605D01*
X-513536Y223D01*
X-513629Y-254D01*
X-513908Y-675D01*
X-517625Y-4392D01*
X-518018Y-4659D01*
X-518513Y-4764D01*
X-519009Y-4667D01*
X-519063Y-4645D01*
X-519454Y-4391D01*
X-519743Y-3976D01*
X-519847Y-3482D01*
X-519751Y-2985D01*
X-519261Y-1802D01*
X-519261Y1802D01*
X-520640Y5132D01*
X-523188Y7680D01*
X-524430Y8195D01*
X-524828Y8456D01*
X-525113Y8873D01*
X-525214Y9368D01*
X-525214Y91027D01*
X-525121Y91504D01*
X-524842Y91925D01*
X-523250Y93517D01*
X-522857Y93784D01*
X-522362Y93889D01*
X-521866Y93792D01*
X-520217Y93109D01*
X-516613Y93109D01*
X-513283Y94488D01*
X-510734Y97036D01*
X-509729Y99463D01*
X-509496Y99831D01*
X-509088Y100130D01*
X-508596Y100246D01*
X-508098Y100161D01*
X-507672Y99889D01*
X-507387Y99472D01*
X-507286Y98977D01*
X-507286Y82723D01*
X-507379Y82246D01*
X-507658Y81825D01*
X-513875Y75608D01*
X-514268Y75341D01*
X-514763Y75236D01*
X-515122Y75306D01*
X-517306Y75306D01*
X-519256Y74498D01*
X-520748Y73006D01*
X-521556Y71056D01*
X-521556Y68945D01*
X-520748Y66994D01*
X-519256Y65502D01*
X-517306Y64694D01*
X-515195Y64694D01*
X-513244Y65502D01*
X-511752Y66994D01*
X-510944Y68945D01*
X-510944Y71120D01*
X-511014Y71457D01*
X-510921Y71954D01*
X-510642Y72375D01*
X-502714Y80303D01*
X-502714Y100605D01*
X-502625Y101072D01*
X-502349Y101496D01*
X-502046Y101701D01*
X-500502Y103244D01*
X-500067Y104293D01*
X-499834Y104661D01*
X-499426Y104960D01*
X-498934Y105077D01*
X-498436Y104992D01*
X-498010Y104719D01*
X-497725Y104303D01*
X-497624Y103807D01*
X-497624Y95469D01*
X-496731Y94576D01*
X-485469Y94576D01*
X-484576Y95469D01*
X-484576Y107731D01*
X-485469Y108624D01*
X-493615Y108624D01*
X-494092Y108717D01*
X-494513Y108996D01*
X-500303Y114786D01*
X-544697Y114786D01*
X-546036Y113447D01*
X-546036Y111903D01*
X-546125Y111435D01*
X-546401Y111012D01*
X-546820Y110729D01*
X-548946Y109849D01*
X-550944Y107850D01*
X-551518Y107520D01*
X-552023Y107491D01*
X-552499Y107661D01*
X-552871Y108003D01*
X-553080Y108463D01*
X-553093Y108969D01*
X-551085Y120366D01*
X-551063Y120467D01*
X-539462Y164812D01*
X-539432Y164911D01*
X-528116Y197175D01*
X-527858Y197608D01*
X-527450Y197907D01*
X-526958Y198024D01*
X-526460Y197939D01*
X-526034Y197666D01*
X-525748Y197250D01*
X-525706Y197040D01*
X-524269Y193570D01*
X-521720Y191021D01*
X-519320Y190027D01*
X-518922Y189766D01*
X-518637Y189349D01*
X-518536Y188854D01*
X-518536Y187803D01*
X-517197Y186464D01*
X-485303Y186464D01*
X-484425Y187342D01*
X-484022Y187613D01*
X-483527Y187714D01*
X-473494Y187714D01*
X-473036Y187629D01*
X-472610Y187356D01*
X-472325Y186939D01*
X-472224Y186444D01*
X-472224Y184369D01*
X-471331Y183476D01*
X-464735Y183476D01*
X-464258Y183383D01*
X-463837Y183104D01*
X-463108Y182375D01*
X-462841Y181982D01*
X-462736Y181487D01*
X-462806Y181128D01*
X-462806Y178945D01*
X-461998Y176994D01*
X-460506Y175502D01*
X-458556Y174694D01*
X-456445Y174694D01*
X-454494Y175502D01*
X-453002Y176994D01*
X-452194Y178945D01*
X-452194Y181190D01*
X-452109Y181648D01*
X-451836Y182074D01*
X-451419Y182359D01*
X-450924Y182460D01*
X-442648Y182460D01*
X-441160Y183948D01*
X-441160Y185500D01*
X-453700Y185500D01*
X-453700Y198540D01*
X-454752Y198540D01*
X-456240Y197052D01*
X-456240Y186576D01*
X-456325Y186118D01*
X-456598Y185692D01*
X-457015Y185407D01*
X-457510Y185306D01*
X-457906Y185306D01*
X-458364Y185391D01*
X-458790Y185664D01*
X-459075Y186081D01*
X-459176Y186576D01*
X-459176Y196631D01*
X-460069Y197524D01*
X-471331Y197524D01*
X-472224Y196631D01*
X-472224Y193556D01*
X-472309Y193098D01*
X-472582Y192672D01*
X-472999Y192387D01*
X-473494Y192286D01*
X-482139Y192286D01*
X-482588Y192368D01*
X-483016Y192637D01*
X-483305Y193051D01*
X-483409Y193546D01*
X-483313Y194042D01*
X-482129Y196900D01*
X-482129Y200504D01*
X-482649Y201759D01*
X-482746Y202225D01*
X-482653Y202722D01*
X-482374Y203143D01*
X-443964Y241553D01*
X-443964Y279654D01*
X-443875Y280121D01*
X-443599Y280544D01*
X-443180Y280827D01*
X-440638Y281880D01*
X-439454Y283064D01*
X-439088Y283319D01*
X-438596Y283435D01*
X-438098Y283351D01*
X-437672Y283078D01*
X-437387Y282661D01*
X-437286Y282166D01*
X-437286Y272803D01*
X-434496Y270013D01*
X-434225Y269610D01*
X-434124Y269115D01*
X-434124Y260569D01*
X-433231Y259676D01*
X-431056Y259676D01*
X-430598Y259591D01*
X-430172Y259318D01*
X-429887Y258901D01*
X-429786Y258406D01*
X-429786Y164395D01*
X-429875Y163928D01*
X-430151Y163504D01*
X-430454Y163300D01*
X-431998Y161756D01*
X-432806Y159806D01*
X-432806Y157695D01*
X-431998Y155744D01*
X-430506Y154252D01*
X-428556Y153444D01*
X-426445Y153444D01*
X-424494Y154252D01*
X-423002Y155744D01*
X-422194Y157695D01*
X-422194Y159806D01*
X-423002Y161756D01*
X-424540Y163294D01*
X-424828Y163483D01*
X-425113Y163900D01*
X-425214Y164395D01*
X-425214Y258406D01*
X-425129Y258864D01*
X-424856Y259290D01*
X-424439Y259575D01*
X-423944Y259676D01*
X-421969Y259676D01*
X-421076Y260569D01*
X-421076Y272831D01*
X-421969Y273724D01*
X-431215Y273724D01*
X-431692Y273817D01*
X-432113Y274096D01*
X-432342Y274325D01*
X-432613Y274728D01*
X-432714Y275223D01*
X-432714Y294697D01*
X-440303Y302286D01*
X-470947Y302286D01*
X-472286Y300947D01*
X-472286Y299752D01*
X-472375Y299285D01*
X-472651Y298861D01*
X-473070Y298579D01*
X-476317Y297234D01*
X-476992Y297151D01*
X-477467Y297325D01*
X-477836Y297669D01*
X-478043Y298131D01*
X-478052Y298636D01*
X-477864Y299105D01*
X-458311Y328837D01*
X-458251Y328921D01*
X-430031Y365042D01*
X-429964Y365121D01*
X-398899Y398826D01*
X-398826Y398899D01*
X-365121Y429964D01*
X-365042Y430031D01*
X-328921Y458251D01*
X-328837Y458311D01*
X-290539Y483497D01*
X-290451Y483551D01*
X-250230Y505537D01*
X-250138Y505583D01*
X-208262Y524223D01*
X-208165Y524261D01*
X-164911Y539432D01*
X-164812Y539462D01*
X-120467Y551063D01*
X-120366Y551085D01*
X-75224Y559039D01*
X-75121Y559052D01*
X-29660Y563289D01*
X-29542Y563295D01*
X-27827Y563295D01*
X-27757Y563324D01*
X-27337Y563419D01*
X-27261Y563423D01*
X-25587Y564221D01*
X-25526Y564248D01*
X-23813Y564958D01*
X-23759Y565012D01*
X-23408Y565260D01*
X-23339Y565293D01*
X-22098Y566671D01*
X-22052Y566719D01*
X-20741Y568030D01*
X-20712Y568101D01*
X-20482Y568465D01*
X-20431Y568522D01*
X-19811Y570270D01*
X-19788Y570331D01*
X-19078Y572044D01*
X-19078Y572121D01*
X-19005Y572545D01*
X-18980Y572617D01*
X-19076Y574469D01*
X-19078Y574535D01*
X-19078Y584016D01*
X-19000Y584455D01*
X-18734Y584885D01*
X-18322Y585178D01*
X-17828Y585286D01*
X-17331Y585193D01*
X-16910Y584914D01*
X-16063Y584067D01*
X-10097Y580623D01*
X-3444Y578840D01*
X3444Y578840D01*
X10097Y580623D01*
X16063Y584067D01*
X16910Y584914D01*
X17276Y585169D01*
X17768Y585285D01*
X18266Y585201D01*
X18692Y584928D01*
X18977Y584511D01*
X19078Y584016D01*
X19078Y574535D01*
X19076Y574469D01*
X18980Y572617D01*
X19005Y572545D01*
X19078Y572121D01*
X19078Y572044D01*
X19788Y570331D01*
X19811Y570270D01*
X20431Y568522D01*
X20482Y568465D01*
X20712Y568101D01*
X20741Y568030D01*
X22052Y566719D01*
X22098Y566671D01*
X23339Y565293D01*
X23408Y565260D01*
X23759Y565012D01*
X23813Y564958D01*
X25526Y564248D01*
X25587Y564221D01*
X27261Y563423D01*
X27337Y563419D01*
X27757Y563324D01*
X27827Y563295D01*
X29542Y563295D01*
X29660Y563289D01*
X75121Y559052D01*
X75224Y559039D01*
X120366Y551085D01*
X120467Y551063D01*
X164812Y539462D01*
X164911Y539432D01*
X192504Y529754D01*
X192938Y529496D01*
X193237Y529088D01*
X193353Y528596D01*
X193268Y528098D01*
X192996Y527672D01*
X192579Y527387D01*
X192084Y527286D01*
X137226Y527286D01*
X136778Y527368D01*
X136350Y527637D01*
X136061Y528051D01*
X135956Y528546D01*
X136053Y529042D01*
X136060Y529058D01*
X136060Y532662D01*
X134680Y535992D01*
X132132Y538540D01*
X128802Y539920D01*
X125198Y539920D01*
X121868Y538540D01*
X119320Y535992D01*
X117941Y532662D01*
X117941Y529058D01*
X119320Y525728D01*
X121868Y523180D01*
X125198Y521801D01*
X128802Y521801D01*
X130774Y522617D01*
X131260Y522714D01*
X202277Y522714D01*
X202754Y522621D01*
X203175Y522342D01*
X226402Y499115D01*
X226669Y498722D01*
X226774Y498227D01*
X226677Y497731D01*
X225891Y495832D01*
X225891Y492228D01*
X227270Y488898D01*
X229818Y486350D01*
X233148Y484971D01*
X236752Y484971D01*
X240082Y486350D01*
X242630Y488898D01*
X243368Y490680D01*
X243629Y491078D01*
X244046Y491363D01*
X244542Y491464D01*
X268527Y491464D01*
X269004Y491371D01*
X269425Y491092D01*
X315176Y445341D01*
X315427Y444984D01*
X315547Y444493D01*
X315467Y443994D01*
X315198Y443566D01*
X314783Y443277D01*
X314289Y443173D01*
X313792Y443269D01*
X310412Y444670D01*
X306808Y444670D01*
X303478Y443290D01*
X300930Y440742D01*
X299551Y437412D01*
X299551Y433808D01*
X300930Y430478D01*
X303478Y427930D01*
X304430Y427536D01*
X304828Y427274D01*
X305113Y426858D01*
X305214Y426362D01*
X305214Y419127D01*
X305139Y418697D01*
X304877Y418265D01*
X304467Y417970D01*
X303974Y417857D01*
X303477Y417946D01*
X303053Y418222D01*
X302771Y418641D01*
X301998Y420506D01*
X300506Y421998D01*
X298556Y422806D01*
X296380Y422806D01*
X296043Y422736D01*
X295546Y422829D01*
X295125Y423108D01*
X293908Y424325D01*
X293637Y424728D01*
X293536Y425223D01*
X293536Y444355D01*
X293625Y444822D01*
X293901Y445246D01*
X294204Y445451D01*
X295748Y446994D01*
X296556Y448945D01*
X296556Y451056D01*
X295748Y453006D01*
X294256Y454498D01*
X292306Y455306D01*
X290195Y455306D01*
X288244Y454498D01*
X286752Y453006D01*
X285944Y451056D01*
X285944Y448945D01*
X286752Y446994D01*
X288290Y445456D01*
X288578Y445267D01*
X288863Y444850D01*
X288964Y444355D01*
X288964Y422803D01*
X291892Y419875D01*
X292159Y419482D01*
X292264Y418987D01*
X292194Y418628D01*
X292194Y416445D01*
X293002Y414494D01*
X294494Y413002D01*
X296468Y412184D01*
X296851Y411937D01*
X297143Y411525D01*
X297252Y411031D01*
X297159Y410534D01*
X296880Y410113D01*
X295863Y409096D01*
X295460Y408825D01*
X294965Y408724D01*
X285969Y408724D01*
X285076Y407831D01*
X285076Y396569D01*
X285969Y395676D01*
X298231Y395676D01*
X299124Y396569D01*
X299124Y405365D01*
X299217Y405842D01*
X299496Y406263D01*
X309786Y416553D01*
X309786Y425443D01*
X309875Y425910D01*
X310151Y426333D01*
X310570Y426616D01*
X313742Y427930D01*
X316290Y430478D01*
X317670Y433808D01*
X317670Y437412D01*
X316269Y440792D01*
X316174Y441218D01*
X316251Y441717D01*
X316516Y442147D01*
X316929Y442440D01*
X317422Y442548D01*
X317919Y442456D01*
X318341Y442176D01*
X324579Y435939D01*
X324850Y435536D01*
X324951Y435041D01*
X324951Y433808D01*
X326330Y430478D01*
X328878Y427930D01*
X332208Y426551D01*
X335812Y426551D01*
X339142Y427930D01*
X341690Y430478D01*
X342292Y431930D01*
X342553Y432328D01*
X342970Y432613D01*
X343465Y432714D01*
X354777Y432714D01*
X355254Y432621D01*
X355675Y432342D01*
X416092Y371925D01*
X416363Y371522D01*
X416464Y371027D01*
X416464Y367703D01*
X416375Y367235D01*
X416099Y366812D01*
X415680Y366529D01*
X413968Y365820D01*
X411420Y363272D01*
X410041Y359942D01*
X410041Y356338D01*
X411420Y353008D01*
X413968Y350460D01*
X417298Y349081D01*
X420902Y349081D01*
X423148Y350011D01*
X423613Y350107D01*
X424110Y350015D01*
X424532Y349735D01*
X471092Y303175D01*
X471363Y302772D01*
X471464Y302277D01*
X471464Y287952D01*
X471371Y287476D01*
X471092Y287054D01*
X468570Y284532D01*
X467191Y281202D01*
X467191Y277598D01*
X468570Y274268D01*
X471118Y271720D01*
X474448Y270341D01*
X478052Y270341D01*
X479654Y271004D01*
X480120Y271101D01*
X480617Y271008D01*
X481038Y270729D01*
X501092Y250675D01*
X501363Y250272D01*
X501464Y249777D01*
X501464Y226085D01*
X501386Y225646D01*
X501120Y225216D01*
X500708Y224924D01*
X500214Y224815D01*
X499717Y224908D01*
X499296Y225187D01*
X486891Y237592D01*
X486628Y237976D01*
X486520Y238469D01*
X486612Y238966D01*
X486891Y239388D01*
X486998Y239494D01*
X487806Y241445D01*
X487806Y243556D01*
X486998Y245506D01*
X485506Y246998D01*
X483556Y247806D01*
X481445Y247806D01*
X479494Y246998D01*
X478002Y245506D01*
X477194Y243556D01*
X477194Y241445D01*
X478002Y239494D01*
X479494Y238002D01*
X480150Y237730D01*
X480562Y237455D01*
X502342Y215675D01*
X502613Y215272D01*
X502714Y214777D01*
X502714Y197694D01*
X502636Y197255D01*
X502370Y196825D01*
X501958Y196533D01*
X501464Y196424D01*
X500967Y196517D01*
X500546Y196796D01*
X499162Y198180D01*
X495832Y199560D01*
X492228Y199560D01*
X488898Y198180D01*
X486350Y195632D01*
X485806Y194320D01*
X485545Y193922D01*
X485128Y193637D01*
X484633Y193536D01*
X466473Y193536D01*
X465996Y193629D01*
X465575Y193908D01*
X409096Y250387D01*
X408825Y250790D01*
X408724Y251285D01*
X408724Y260131D01*
X407831Y261024D01*
X396569Y261024D01*
X395676Y260131D01*
X395676Y247869D01*
X396569Y246976D01*
X405515Y246976D01*
X405992Y246883D01*
X406413Y246604D01*
X464053Y188964D01*
X484012Y188964D01*
X484479Y188875D01*
X484903Y188599D01*
X485185Y188180D01*
X486350Y185368D01*
X488898Y182820D01*
X492228Y181441D01*
X495832Y181441D01*
X499162Y182820D01*
X500546Y184204D01*
X500912Y184459D01*
X501404Y184575D01*
X501902Y184491D01*
X502328Y184218D01*
X502613Y183801D01*
X502714Y183306D01*
X502714Y162803D01*
X523142Y142375D01*
X523409Y141982D01*
X523514Y141487D01*
X523444Y141128D01*
X523444Y138945D01*
X524252Y136994D01*
X525744Y135502D01*
X527695Y134694D01*
X528152Y134609D01*
X528578Y134336D01*
X528863Y133919D01*
X528964Y133424D01*
X528964Y105404D01*
X528886Y104965D01*
X528620Y104535D01*
X528208Y104243D01*
X527714Y104134D01*
X527217Y104227D01*
X526796Y104506D01*
X525832Y105470D01*
X522502Y106850D01*
X518898Y106850D01*
X515568Y105470D01*
X513020Y102922D01*
X511641Y99592D01*
X511641Y95988D01*
X513020Y92658D01*
X515568Y90110D01*
X516930Y89546D01*
X517328Y89285D01*
X517613Y88868D01*
X517714Y88372D01*
X517714Y79806D01*
X517629Y79348D01*
X517356Y78922D01*
X516939Y78637D01*
X516444Y78536D01*
X473494Y78536D01*
X473036Y78621D01*
X472610Y78894D01*
X472325Y79311D01*
X472224Y79806D01*
X472224Y82331D01*
X471331Y83224D01*
X460069Y83224D01*
X459176Y82331D01*
X459176Y70069D01*
X460069Y69176D01*
X471331Y69176D01*
X472224Y70069D01*
X472224Y72694D01*
X472309Y73152D01*
X472582Y73578D01*
X472999Y73863D01*
X473494Y73964D01*
X520947Y73964D01*
X522286Y75303D01*
X522286Y87792D01*
X522375Y88260D01*
X522651Y88683D01*
X523070Y88966D01*
X525832Y90110D01*
X526796Y91074D01*
X527162Y91329D01*
X527654Y91445D01*
X528152Y91361D01*
X528578Y91088D01*
X528863Y90671D01*
X528964Y90176D01*
X528964Y86895D01*
X528875Y86428D01*
X528599Y86004D01*
X528296Y85800D01*
X526752Y84256D01*
X525944Y82306D01*
X525944Y80195D01*
X526752Y78244D01*
X528244Y76752D01*
X530195Y75944D01*
X532370Y75944D01*
X532707Y76014D01*
X533204Y75921D01*
X533625Y75642D01*
X537342Y71925D01*
X537613Y71522D01*
X537714Y71027D01*
X537714Y7754D01*
X537636Y7315D01*
X537370Y6885D01*
X536958Y6593D01*
X536464Y6484D01*
X535967Y6577D01*
X535546Y6856D01*
X534722Y7680D01*
X531392Y9060D01*
X527788Y9060D01*
X524458Y7680D01*
X521910Y5132D01*
X520531Y1802D01*
X520531Y-1802D01*
X521910Y-5132D01*
X524458Y-7680D01*
X525680Y-8186D01*
X526078Y-8447D01*
X526363Y-8864D01*
X526464Y-9360D01*
X526464Y-11027D01*
X526371Y-11504D01*
X526092Y-11925D01*
X498990Y-39027D01*
X498561Y-39309D01*
X498064Y-39398D01*
X497571Y-39287D01*
X497160Y-38991D01*
X496898Y-38560D01*
X496830Y-38100D01*
X496824Y-38100D01*
X496824Y25346D01*
X496798Y25656D01*
X496733Y25905D01*
X496628Y26139D01*
X496473Y26368D01*
X496353Y26502D01*
X483716Y39140D01*
X483478Y39340D01*
X483257Y39470D01*
X483016Y39561D01*
X482745Y39614D01*
X482566Y39624D01*
X419194Y39624D01*
X418736Y39709D01*
X418310Y39982D01*
X418025Y40399D01*
X417924Y40894D01*
X417924Y141992D01*
X416170Y146228D01*
X385944Y176453D01*
X385673Y176856D01*
X385572Y177351D01*
X385572Y184954D01*
X380196Y190330D01*
X379925Y190733D01*
X379824Y191228D01*
X379824Y230892D01*
X378070Y235128D01*
X313908Y299289D01*
X313637Y299692D01*
X313536Y300187D01*
X313536Y314777D01*
X313629Y315254D01*
X313908Y315675D01*
X321667Y323435D01*
X322070Y323706D01*
X322565Y323807D01*
X330277Y323807D01*
X331170Y324699D01*
X331170Y335701D01*
X330277Y336594D01*
X321027Y336594D01*
X320135Y335701D01*
X320135Y328893D01*
X320042Y328417D01*
X319763Y327995D01*
X317034Y325266D01*
X316668Y325011D01*
X316176Y324895D01*
X315678Y324980D01*
X315252Y325252D01*
X314966Y325669D01*
X314866Y326164D01*
X314866Y335701D01*
X313973Y336594D01*
X304723Y336594D01*
X303831Y335701D01*
X303831Y333556D01*
X303745Y333098D01*
X303473Y332672D01*
X303056Y332387D01*
X302561Y332286D01*
X287923Y332286D01*
X287456Y332375D01*
X287032Y332651D01*
X286749Y333070D01*
X286291Y334178D01*
X284004Y336464D01*
X281017Y337702D01*
X277783Y337702D01*
X274796Y336464D01*
X272509Y334178D01*
X271272Y331190D01*
X271272Y327957D01*
X272509Y324969D01*
X274842Y322637D01*
X275113Y322234D01*
X275214Y321739D01*
X275214Y255303D01*
X283767Y246750D01*
X284038Y246347D01*
X284139Y245852D01*
X284139Y239806D01*
X284054Y239348D01*
X283781Y238922D01*
X283364Y238637D01*
X282869Y238536D01*
X244587Y238536D01*
X244148Y238614D01*
X243718Y238880D01*
X243426Y239292D01*
X243317Y239786D01*
X243410Y240283D01*
X243689Y240704D01*
X244435Y241450D01*
X244435Y291950D01*
X243542Y292843D01*
X187226Y292843D01*
X186333Y291950D01*
X186333Y279494D01*
X186248Y279036D01*
X185975Y278610D01*
X185558Y278325D01*
X185063Y278224D01*
X157699Y278224D01*
X157223Y278317D01*
X156801Y278596D01*
X146228Y289170D01*
X141992Y290924D01*
X137408Y290924D01*
X133172Y289170D01*
X129930Y285928D01*
X128176Y281692D01*
X128176Y277108D01*
X129930Y272872D01*
X145872Y256930D01*
X150108Y255176D01*
X185063Y255176D01*
X185521Y255091D01*
X185947Y254818D01*
X186232Y254401D01*
X186333Y253906D01*
X186333Y241450D01*
X187226Y240557D01*
X212520Y240557D01*
X212996Y240464D01*
X213418Y240185D01*
X216196Y237407D01*
X216467Y237004D01*
X216568Y236509D01*
X216568Y190959D01*
X216493Y190529D01*
X216231Y190097D01*
X215821Y189802D01*
X215328Y189689D01*
X214831Y189778D01*
X214407Y190054D01*
X214125Y190473D01*
X212462Y194488D01*
X212208Y194741D01*
X211937Y195144D01*
X211836Y195639D01*
X211836Y197399D01*
X210444Y200760D01*
X207872Y203332D01*
X204511Y204724D01*
X200873Y204724D01*
X197512Y203332D01*
X194940Y200760D01*
X193548Y197399D01*
X193548Y195639D01*
X193455Y195163D01*
X193176Y194741D01*
X188131Y189696D01*
X187728Y189425D01*
X187233Y189324D01*
X137408Y189324D01*
X133172Y187570D01*
X129930Y184328D01*
X128893Y181823D01*
X128646Y181440D01*
X128234Y181148D01*
X127740Y181039D01*
X127243Y181132D01*
X126822Y181411D01*
X121858Y186375D01*
X121591Y186768D01*
X121486Y187263D01*
X121556Y187622D01*
X121556Y189806D01*
X120748Y191756D01*
X119256Y193248D01*
X117306Y194056D01*
X115195Y194056D01*
X114042Y193579D01*
X113596Y193483D01*
X113098Y193567D01*
X112672Y193840D01*
X112387Y194257D01*
X112286Y194752D01*
X112286Y483447D01*
X108996Y486737D01*
X108725Y487140D01*
X108624Y487635D01*
X108624Y496731D01*
X107731Y497624D01*
X104806Y497624D01*
X104348Y497709D01*
X103922Y497982D01*
X103637Y498399D01*
X103536Y498894D01*
X103536Y521007D01*
X103625Y521475D01*
X103901Y521898D01*
X104320Y522181D01*
X106732Y523180D01*
X109280Y525728D01*
X110660Y529058D01*
X110660Y532662D01*
X109280Y535992D01*
X106732Y538540D01*
X103402Y539920D01*
X99798Y539920D01*
X96468Y538540D01*
X93920Y535992D01*
X92541Y532662D01*
X92541Y529058D01*
X93920Y525728D01*
X96468Y523180D01*
X98180Y522471D01*
X98578Y522210D01*
X98863Y521793D01*
X98964Y521297D01*
X98964Y519752D01*
X98882Y519304D01*
X98613Y518876D01*
X98199Y518587D01*
X97704Y518482D01*
X97208Y518579D01*
X96055Y519056D01*
X93880Y519056D01*
X93543Y518986D01*
X93046Y519079D01*
X92625Y519358D01*
X88908Y523075D01*
X88637Y523478D01*
X88536Y523973D01*
X88536Y539355D01*
X88625Y539822D01*
X88901Y540246D01*
X89204Y540451D01*
X90748Y541994D01*
X91556Y543945D01*
X91556Y546056D01*
X90748Y548006D01*
X89256Y549498D01*
X87306Y550306D01*
X85195Y550306D01*
X83244Y549498D01*
X81752Y548006D01*
X80944Y546056D01*
X80944Y543945D01*
X81752Y541994D01*
X83290Y540456D01*
X83578Y540267D01*
X83863Y539850D01*
X83964Y539355D01*
X83964Y521553D01*
X89392Y516125D01*
X89659Y515732D01*
X89764Y515237D01*
X89694Y514878D01*
X89694Y512695D01*
X90502Y510744D01*
X91994Y509252D01*
X93945Y508444D01*
X96055Y508444D01*
X97208Y508921D01*
X97654Y509017D01*
X98152Y508933D01*
X98578Y508660D01*
X98863Y508243D01*
X98964Y507748D01*
X98964Y498894D01*
X98879Y498436D01*
X98606Y498010D01*
X98189Y497725D01*
X97694Y497624D01*
X95469Y497624D01*
X94576Y496731D01*
X94576Y485469D01*
X95469Y484576D01*
X104165Y484576D01*
X104642Y484483D01*
X105063Y484204D01*
X105459Y483808D01*
X105714Y483442D01*
X105830Y482950D01*
X105746Y482452D01*
X105473Y482026D01*
X105056Y481741D01*
X104561Y481640D01*
X95048Y481640D01*
X93560Y480152D01*
X93560Y479100D01*
X106600Y479100D01*
X106600Y466531D01*
X106902Y466475D01*
X107328Y466202D01*
X107613Y465785D01*
X107714Y465290D01*
X107714Y168145D01*
X107625Y167678D01*
X107349Y167254D01*
X107046Y167050D01*
X105502Y165506D01*
X104694Y163556D01*
X104694Y161445D01*
X105502Y159494D01*
X105542Y159454D01*
X105797Y159088D01*
X105913Y158596D01*
X105829Y158098D01*
X105556Y157672D01*
X105139Y157387D01*
X104644Y157286D01*
X100223Y157286D01*
X99746Y157379D01*
X99325Y157658D01*
X71972Y185011D01*
X71705Y185404D01*
X71600Y185899D01*
X71697Y186395D01*
X72644Y188681D01*
X72644Y192319D01*
X71252Y195680D01*
X68680Y198252D01*
X65319Y199644D01*
X61681Y199644D01*
X58320Y198252D01*
X55748Y195680D01*
X54356Y192319D01*
X54356Y188681D01*
X55748Y185320D01*
X58320Y182748D01*
X61681Y181356D01*
X65319Y181356D01*
X67252Y182157D01*
X67718Y182253D01*
X68214Y182160D01*
X68636Y181881D01*
X97803Y152714D01*
X117694Y152714D01*
X118152Y152629D01*
X118578Y152356D01*
X118863Y151939D01*
X118964Y151444D01*
X118964Y116085D01*
X118886Y115646D01*
X118620Y115216D01*
X118208Y114924D01*
X117714Y114815D01*
X117217Y114908D01*
X116796Y115187D01*
X46689Y185294D01*
X46422Y185687D01*
X46317Y186181D01*
X46414Y186678D01*
X47244Y188681D01*
X47244Y192319D01*
X45852Y195680D01*
X43280Y198252D01*
X39919Y199644D01*
X36281Y199644D01*
X32920Y198252D01*
X31954Y197286D01*
X31588Y197031D01*
X31096Y196914D01*
X30598Y196999D01*
X30172Y197271D01*
X29887Y197688D01*
X29786Y198184D01*
X29786Y303447D01*
X24505Y308728D01*
X24250Y309094D01*
X24134Y309586D01*
X24218Y310084D01*
X24491Y310510D01*
X24908Y310795D01*
X25403Y310896D01*
X27472Y310896D01*
X31299Y312481D01*
X34229Y315411D01*
X35814Y319238D01*
X35814Y341162D01*
X34229Y344989D01*
X31299Y347919D01*
X27472Y349504D01*
X23328Y349504D01*
X19501Y347919D01*
X18204Y346622D01*
X17838Y346367D01*
X17346Y346250D01*
X16848Y346335D01*
X16422Y346607D01*
X16137Y347024D01*
X16036Y347520D01*
X16036Y493527D01*
X16129Y494004D01*
X16408Y494425D01*
X18536Y496553D01*
X18536Y503447D01*
X-9741Y531724D01*
X-10000Y532099D01*
X-10113Y532592D01*
X-10024Y533089D01*
X-9748Y533513D01*
X-9329Y533795D01*
X-7568Y534525D01*
X-5020Y537073D01*
X-3641Y540403D01*
X-3641Y544007D01*
X-5020Y547337D01*
X-7568Y549885D01*
X-10898Y551265D01*
X-14502Y551265D01*
X-17832Y549885D01*
X-20380Y547337D01*
X-21760Y544007D01*
X-21760Y540403D01*
X-20380Y537073D01*
X-17832Y534525D01*
X-15570Y533588D01*
X-15172Y533327D01*
X-14887Y532910D01*
X-14786Y532415D01*
X-14786Y511594D01*
X-14871Y511136D01*
X-15144Y510710D01*
X-15561Y510425D01*
X-16056Y510324D01*
X-18831Y510324D01*
X-19724Y509431D01*
X-19724Y498169D01*
X-18831Y497276D01*
X-6569Y497276D01*
X-5676Y498169D01*
X-5676Y509431D01*
X-6569Y510324D01*
X-8944Y510324D01*
X-9402Y510409D01*
X-9828Y510682D01*
X-10113Y511099D01*
X-10214Y511594D01*
X-10214Y522665D01*
X-10136Y523104D01*
X-9870Y523534D01*
X-9458Y523826D01*
X-8964Y523935D01*
X-8467Y523842D01*
X-8046Y523563D01*
X8496Y507021D01*
X8755Y506646D01*
X8868Y506153D01*
X8779Y505656D01*
X8503Y505232D01*
X8084Y504950D01*
X6994Y504498D01*
X5502Y503006D01*
X4694Y501056D01*
X4694Y498880D01*
X4764Y498543D01*
X4671Y498046D01*
X4392Y497625D01*
X-2492Y490741D01*
X-2858Y490486D01*
X-3350Y490370D01*
X-3848Y490454D01*
X-4274Y490727D01*
X-4559Y491144D01*
X-4660Y491639D01*
X-4660Y492852D01*
X-6148Y494340D01*
X-19252Y494340D01*
X-20740Y492852D01*
X-20740Y491800D01*
X-7700Y491800D01*
X-7700Y479260D01*
X-7306Y479260D01*
X-6848Y479175D01*
X-6422Y478902D01*
X-6137Y478485D01*
X-6036Y477990D01*
X-6036Y403973D01*
X-6129Y403496D01*
X-6408Y403075D01*
X-64407Y345076D01*
X-64782Y344817D01*
X-65275Y344704D01*
X-65772Y344793D01*
X-66196Y345069D01*
X-66478Y345488D01*
X-66510Y345565D01*
X-67310Y346364D01*
X-67310Y314036D01*
X-66954Y314392D01*
X-66588Y314647D01*
X-66096Y314763D01*
X-65598Y314678D01*
X-65172Y314406D01*
X-64887Y313989D01*
X-64786Y313494D01*
X-64786Y252803D01*
X-59065Y247082D01*
X-58797Y246688D01*
X-58693Y246194D01*
X-58789Y245698D01*
X-59864Y243103D01*
X-59864Y239497D01*
X-58484Y236166D01*
X-55934Y233616D01*
X-52603Y232236D01*
X-48997Y232236D01*
X-45666Y233616D01*
X-44454Y234828D01*
X-44088Y235083D01*
X-43596Y235199D01*
X-43098Y235114D01*
X-42672Y234842D01*
X-42387Y234425D01*
X-42286Y233930D01*
X-42286Y223271D01*
X-42364Y222832D01*
X-42630Y222402D01*
X-43042Y222109D01*
X-43536Y222001D01*
X-44033Y222093D01*
X-44454Y222372D01*
X-45666Y223584D01*
X-48997Y224964D01*
X-52603Y224964D01*
X-55934Y223584D01*
X-58484Y221034D01*
X-59864Y217703D01*
X-59864Y214097D01*
X-58484Y210766D01*
X-55934Y208216D01*
X-52603Y206836D01*
X-48997Y206836D01*
X-45666Y208216D01*
X-44454Y209428D01*
X-44088Y209683D01*
X-43596Y209799D01*
X-43098Y209714D01*
X-42672Y209442D01*
X-42387Y209025D01*
X-42286Y208530D01*
X-42286Y199307D01*
X-42364Y198868D01*
X-42630Y198438D01*
X-43042Y198146D01*
X-43524Y198040D01*
X-43260Y198040D01*
X-43260Y182960D01*
X-43585Y182960D01*
X-43098Y182877D01*
X-42672Y182605D01*
X-42387Y182188D01*
X-42286Y181693D01*
X-42286Y172471D01*
X-42364Y172032D01*
X-42630Y171602D01*
X-43042Y171309D01*
X-43536Y171201D01*
X-44033Y171293D01*
X-44454Y171572D01*
X-45666Y172784D01*
X-48997Y174164D01*
X-52603Y174164D01*
X-55934Y172784D01*
X-58484Y170234D01*
X-59864Y166903D01*
X-59864Y163297D01*
X-58484Y159966D01*
X-55934Y157416D01*
X-52603Y156036D01*
X-48997Y156036D01*
X-45666Y157416D01*
X-44454Y158628D01*
X-44088Y158883D01*
X-43596Y158999D01*
X-43098Y158914D01*
X-42672Y158642D01*
X-42387Y158225D01*
X-42286Y157730D01*
X-42286Y147071D01*
X-42364Y146632D01*
X-42630Y146202D01*
X-43042Y145909D01*
X-43536Y145801D01*
X-44033Y145893D01*
X-44454Y146172D01*
X-45666Y147384D01*
X-48997Y148764D01*
X-52603Y148764D01*
X-55934Y147384D01*
X-58484Y144834D01*
X-59864Y141503D01*
X-59864Y137897D01*
X-58484Y134566D01*
X-55934Y132016D01*
X-52603Y130636D01*
X-48997Y130636D01*
X-45666Y132016D01*
X-44454Y133228D01*
X-44088Y133483D01*
X-43596Y133599D01*
X-43098Y133514D01*
X-42672Y133242D01*
X-42387Y132825D01*
X-42286Y132330D01*
X-42286Y121671D01*
X-42364Y121232D01*
X-42630Y120802D01*
X-43042Y120509D01*
X-43536Y120401D01*
X-44033Y120493D01*
X-44454Y120772D01*
X-45666Y121984D01*
X-48997Y123364D01*
X-52603Y123364D01*
X-55934Y121984D01*
X-58484Y119434D01*
X-59864Y116103D01*
X-59864Y112497D01*
X-58484Y109166D01*
X-55934Y106616D01*
X-52603Y105236D01*
X-48997Y105236D01*
X-45666Y106616D01*
X-44454Y107828D01*
X-44088Y108083D01*
X-43596Y108199D01*
X-43098Y108114D01*
X-42672Y107842D01*
X-42387Y107425D01*
X-42286Y106930D01*
X-42286Y96271D01*
X-42364Y95832D01*
X-42630Y95402D01*
X-43042Y95109D01*
X-43536Y95001D01*
X-44033Y95093D01*
X-44454Y95372D01*
X-45666Y96584D01*
X-48997Y97964D01*
X-52603Y97964D01*
X-55934Y96584D01*
X-58484Y94034D01*
X-59864Y90703D01*
X-59864Y87097D01*
X-58484Y83766D01*
X-55934Y81216D01*
X-52603Y79836D01*
X-48997Y79836D01*
X-45666Y81216D01*
X-44454Y82428D01*
X-44088Y82683D01*
X-43596Y82799D01*
X-43098Y82714D01*
X-42672Y82442D01*
X-42387Y82025D01*
X-42286Y81530D01*
X-42286Y72307D01*
X-42364Y71868D01*
X-42630Y71438D01*
X-43042Y71146D01*
X-43524Y71040D01*
X-43260Y71040D01*
X-43260Y55960D01*
X-43585Y55960D01*
X-43098Y55877D01*
X-42672Y55605D01*
X-42387Y55188D01*
X-42286Y54693D01*
X-42286Y45471D01*
X-42364Y45032D01*
X-42630Y44602D01*
X-43042Y44309D01*
X-43536Y44201D01*
X-44033Y44293D01*
X-44454Y44572D01*
X-45666Y45784D01*
X-48997Y47164D01*
X-52603Y47164D01*
X-55934Y45784D01*
X-58484Y43234D01*
X-59864Y39903D01*
X-59864Y36297D01*
X-58484Y32966D01*
X-55934Y30416D01*
X-52603Y29036D01*
X-48997Y29036D01*
X-45666Y30416D01*
X-44454Y31628D01*
X-44088Y31883D01*
X-43596Y31999D01*
X-43098Y31914D01*
X-42672Y31642D01*
X-42387Y31225D01*
X-42286Y30730D01*
X-42286Y20071D01*
X-42364Y19632D01*
X-42630Y19202D01*
X-43042Y18909D01*
X-43536Y18801D01*
X-44033Y18893D01*
X-44454Y19172D01*
X-45666Y20384D01*
X-48997Y21764D01*
X-52603Y21764D01*
X-55934Y20384D01*
X-58484Y17834D01*
X-59864Y14503D01*
X-59864Y10897D01*
X-58484Y7566D01*
X-55934Y5016D01*
X-52603Y3636D01*
X-48997Y3636D01*
X-45666Y5016D01*
X-44454Y6228D01*
X-44088Y6483D01*
X-43596Y6599D01*
X-43098Y6514D01*
X-42672Y6242D01*
X-42387Y5825D01*
X-42286Y5330D01*
X-42286Y-5330D01*
X-42364Y-5768D01*
X-42630Y-6198D01*
X-43042Y-6491D01*
X-43536Y-6599D01*
X-44033Y-6507D01*
X-44454Y-6228D01*
X-45666Y-5016D01*
X-48997Y-3636D01*
X-52603Y-3636D01*
X-55934Y-5016D01*
X-58484Y-7566D01*
X-59864Y-10897D01*
X-59864Y-14503D01*
X-58484Y-17834D01*
X-55934Y-20384D01*
X-52603Y-21764D01*
X-48997Y-21764D01*
X-45666Y-20384D01*
X-44454Y-19172D01*
X-44088Y-18917D01*
X-43596Y-18801D01*
X-43098Y-18886D01*
X-42672Y-19158D01*
X-42387Y-19575D01*
X-42286Y-20071D01*
X-42286Y-30730D01*
X-42364Y-31168D01*
X-42630Y-31598D01*
X-43042Y-31891D01*
X-43536Y-31999D01*
X-44033Y-31907D01*
X-44454Y-31628D01*
X-45666Y-30416D01*
X-48997Y-29036D01*
X-52603Y-29036D01*
X-55934Y-30416D01*
X-58484Y-32966D01*
X-59864Y-36297D01*
X-59864Y-39903D01*
X-58484Y-43234D01*
X-55934Y-45784D01*
X-52603Y-47164D01*
X-48997Y-47164D01*
X-45666Y-45784D01*
X-44454Y-44572D01*
X-44088Y-44317D01*
X-43596Y-44201D01*
X-43098Y-44286D01*
X-42672Y-44558D01*
X-42387Y-44975D01*
X-42286Y-45471D01*
X-42286Y-54693D01*
X-42364Y-55132D01*
X-42630Y-55562D01*
X-43042Y-55854D01*
X-43524Y-55960D01*
X-43260Y-55960D01*
X-43260Y-71040D01*
X-43585Y-71040D01*
X-43098Y-71123D01*
X-42672Y-71395D01*
X-42387Y-71812D01*
X-42286Y-72307D01*
X-42286Y-77277D01*
X-42379Y-77754D01*
X-42658Y-78175D01*
X-45089Y-80606D01*
X-45482Y-80874D01*
X-45977Y-80978D01*
X-46473Y-80881D01*
X-48997Y-79836D01*
X-52603Y-79836D01*
X-55934Y-81216D01*
X-58484Y-83766D01*
X-59864Y-87097D01*
X-59864Y-90703D01*
X-58819Y-93227D01*
X-58722Y-93693D01*
X-58815Y-94190D01*
X-59094Y-94611D01*
X-63536Y-99053D01*
X-63536Y-145924D01*
X-63621Y-146382D01*
X-63894Y-146808D01*
X-64311Y-147093D01*
X-64805Y-147194D01*
X-66756Y-148002D01*
X-68248Y-149494D01*
X-69056Y-151445D01*
X-69056Y-153556D01*
X-68248Y-155506D01*
X-66756Y-156998D01*
X-64806Y-157806D01*
X-62695Y-157806D01*
X-60744Y-156998D01*
X-59252Y-155506D01*
X-58444Y-153556D01*
X-58444Y-151445D01*
X-58867Y-150423D01*
X-58964Y-149937D01*
X-58964Y-147421D01*
X-58886Y-146982D01*
X-58620Y-146552D01*
X-58208Y-146259D01*
X-57714Y-146151D01*
X-57217Y-146243D01*
X-56796Y-146522D01*
X-55934Y-147384D01*
X-52603Y-148764D01*
X-48997Y-148764D01*
X-45666Y-147384D01*
X-44454Y-146172D01*
X-44088Y-145917D01*
X-43596Y-145801D01*
X-43098Y-145886D01*
X-42672Y-146158D01*
X-42387Y-146575D01*
X-42286Y-147071D01*
X-42286Y-153527D01*
X-42379Y-154004D01*
X-42658Y-154425D01*
X-45054Y-156821D01*
X-45447Y-157088D01*
X-45942Y-157193D01*
X-46438Y-157096D01*
X-48997Y-156036D01*
X-52603Y-156036D01*
X-55934Y-157416D01*
X-58484Y-159966D01*
X-59864Y-163297D01*
X-59864Y-166903D01*
X-58484Y-170234D01*
X-55934Y-172784D01*
X-52603Y-174164D01*
X-48997Y-174164D01*
X-45666Y-172784D01*
X-43116Y-170234D01*
X-41736Y-166903D01*
X-41736Y-163297D01*
X-42386Y-161728D01*
X-42483Y-161262D01*
X-42390Y-160765D01*
X-42111Y-160344D01*
X-37714Y-155947D01*
X-37714Y-139806D01*
X-37629Y-139348D01*
X-37356Y-138922D01*
X-36939Y-138637D01*
X-36444Y-138536D01*
X-8899Y-138536D01*
X-8461Y-138614D01*
X-8031Y-138880D01*
X-7738Y-139292D01*
X-7630Y-139786D01*
X-7722Y-140283D01*
X-8001Y-140704D01*
X-9770Y-142472D01*
X-11524Y-146708D01*
X-11524Y-151292D01*
X-9770Y-155528D01*
X-6528Y-158770D01*
X-2286Y-160527D01*
X-1910Y-160767D01*
X-1615Y-161177D01*
X-1502Y-161670D01*
X-1591Y-162167D01*
X-1867Y-162591D01*
X-2286Y-162873D01*
X-6528Y-164630D01*
X-9770Y-167872D01*
X-11524Y-172108D01*
X-11524Y-176692D01*
X-9770Y-180928D01*
X-6528Y-184170D01*
X-3613Y-185377D01*
X-3238Y-185617D01*
X-2942Y-186027D01*
X-2830Y-186520D01*
X-2918Y-187017D01*
X-3194Y-187441D01*
X-3613Y-187724D01*
X-7103Y-189169D01*
X-8844Y-190910D01*
X8844Y-190910D01*
X7103Y-189169D01*
X3613Y-187724D01*
X3238Y-187483D01*
X2942Y-187073D01*
X2830Y-186581D01*
X2918Y-186083D01*
X3194Y-185659D01*
X3613Y-185377D01*
X6528Y-184170D01*
X9770Y-180928D01*
X11524Y-176692D01*
X11524Y-172108D01*
X9770Y-167872D01*
X6528Y-164630D01*
X2286Y-162873D01*
X1910Y-162633D01*
X1615Y-162223D01*
X1502Y-161730D01*
X1591Y-161233D01*
X1867Y-160809D01*
X2286Y-160527D01*
X6528Y-158770D01*
X9770Y-155528D01*
X11524Y-151292D01*
X11524Y-146708D01*
X9770Y-142472D01*
X6788Y-139491D01*
X6525Y-139107D01*
X6416Y-138613D01*
X6509Y-138116D01*
X6788Y-137695D01*
X14786Y-129697D01*
X14786Y-71085D01*
X14864Y-70646D01*
X15130Y-70216D01*
X15542Y-69924D01*
X16036Y-69815D01*
X16533Y-69908D01*
X16954Y-70187D01*
X46092Y-99325D01*
X46363Y-99728D01*
X46464Y-100223D01*
X46464Y-134355D01*
X46375Y-134822D01*
X46099Y-135246D01*
X45796Y-135451D01*
X44252Y-136994D01*
X43444Y-138945D01*
X43444Y-141056D01*
X44252Y-143006D01*
X45744Y-144498D01*
X47695Y-145306D01*
X49805Y-145306D01*
X50958Y-144829D01*
X51404Y-144733D01*
X51902Y-144817D01*
X52328Y-145090D01*
X52613Y-145507D01*
X52714Y-146002D01*
X52714Y-312277D01*
X52621Y-312754D01*
X52342Y-313175D01*
X50214Y-315303D01*
X50214Y-425947D01*
X96659Y-472392D01*
X96914Y-472758D01*
X97030Y-473250D01*
X96946Y-473748D01*
X96673Y-474174D01*
X96256Y-474459D01*
X95761Y-474560D01*
X87048Y-474560D01*
X85560Y-476048D01*
X85560Y-477600D01*
X98100Y-477600D01*
X98100Y-487600D01*
X85560Y-487600D01*
X85560Y-489152D01*
X87048Y-490640D01*
X96811Y-490640D01*
X97250Y-490718D01*
X97680Y-490984D01*
X97972Y-491396D01*
X98081Y-491890D01*
X97988Y-492387D01*
X97709Y-492808D01*
X91464Y-499053D01*
X91464Y-520722D01*
X91375Y-521189D01*
X91099Y-521612D01*
X90680Y-521895D01*
X87578Y-523180D01*
X85030Y-525728D01*
X83651Y-529058D01*
X83651Y-532662D01*
X85030Y-535992D01*
X87578Y-538540D01*
X90908Y-539920D01*
X94512Y-539920D01*
X97842Y-538540D01*
X100390Y-535992D01*
X101770Y-532662D01*
X101770Y-529058D01*
X100390Y-525728D01*
X97842Y-523180D01*
X96820Y-522757D01*
X96422Y-522495D01*
X96137Y-522079D01*
X96036Y-521583D01*
X96036Y-501473D01*
X96129Y-500996D01*
X96408Y-500575D01*
X106987Y-489996D01*
X107390Y-489725D01*
X107885Y-489624D01*
X115731Y-489624D01*
X116624Y-488731D01*
X116624Y-481673D01*
X116702Y-481234D01*
X116968Y-480804D01*
X117380Y-480512D01*
X117874Y-480403D01*
X118371Y-480496D01*
X118792Y-480775D01*
X119842Y-481825D01*
X120113Y-482228D01*
X120214Y-482723D01*
X120214Y-501855D01*
X120125Y-502322D01*
X119849Y-502746D01*
X119546Y-502951D01*
X118002Y-504494D01*
X117194Y-506445D01*
X117194Y-508556D01*
X118002Y-510506D01*
X119494Y-511998D01*
X121445Y-512806D01*
X123556Y-512806D01*
X125506Y-511998D01*
X126998Y-510506D01*
X127806Y-508556D01*
X127806Y-506445D01*
X126998Y-504494D01*
X125460Y-502956D01*
X125172Y-502767D01*
X124887Y-502350D01*
X124786Y-501855D01*
X124786Y-480303D01*
X61408Y-416925D01*
X61137Y-416522D01*
X61036Y-416027D01*
X61036Y-198585D01*
X61114Y-198146D01*
X61380Y-197716D01*
X61792Y-197424D01*
X62286Y-197315D01*
X62783Y-197408D01*
X63204Y-197687D01*
X170642Y-305125D01*
X170909Y-305518D01*
X171014Y-306013D01*
X170944Y-306372D01*
X170944Y-308556D01*
X171752Y-310506D01*
X173244Y-311998D01*
X175195Y-312806D01*
X177306Y-312806D01*
X179256Y-311998D01*
X180748Y-310506D01*
X181556Y-308556D01*
X181556Y-306445D01*
X180748Y-304494D01*
X179256Y-303002D01*
X177306Y-302194D01*
X175130Y-302194D01*
X174793Y-302264D01*
X174296Y-302171D01*
X173875Y-301892D01*
X65158Y-193175D01*
X64887Y-192772D01*
X64786Y-192277D01*
X64786Y-179106D01*
X64864Y-178667D01*
X65130Y-178237D01*
X65542Y-177945D01*
X66036Y-177836D01*
X66533Y-177929D01*
X66954Y-178208D01*
X66994Y-178248D01*
X68945Y-179056D01*
X71056Y-179056D01*
X73006Y-178248D01*
X74498Y-176756D01*
X75306Y-174806D01*
X75306Y-172630D01*
X75236Y-172293D01*
X75329Y-171796D01*
X75608Y-171375D01*
X102286Y-144697D01*
X102286Y3723D01*
X102379Y4199D01*
X102658Y4621D01*
X103024Y4987D01*
X103024Y22113D01*
X100813Y24324D01*
X97687Y24324D01*
X96898Y23535D01*
X96514Y23272D01*
X96020Y23163D01*
X95523Y23256D01*
X95102Y23535D01*
X94313Y24324D01*
X91187Y24324D01*
X90398Y23535D01*
X90014Y23272D01*
X89520Y23163D01*
X89023Y23256D01*
X88602Y23535D01*
X87813Y24324D01*
X84687Y24324D01*
X83898Y23535D01*
X83514Y23272D01*
X83020Y23163D01*
X82523Y23256D01*
X82102Y23535D01*
X81313Y24324D01*
X78187Y24324D01*
X77398Y23535D01*
X77014Y23272D01*
X76520Y23163D01*
X76023Y23256D01*
X75602Y23535D01*
X74813Y24324D01*
X71687Y24324D01*
X70898Y23535D01*
X70514Y23272D01*
X70020Y23163D01*
X69523Y23256D01*
X69102Y23535D01*
X68313Y24324D01*
X65187Y24324D01*
X64398Y23535D01*
X64014Y23272D01*
X63520Y23163D01*
X63023Y23256D01*
X62602Y23535D01*
X61813Y24324D01*
X58687Y24324D01*
X57898Y23535D01*
X57514Y23272D01*
X57020Y23163D01*
X56523Y23256D01*
X56102Y23535D01*
X55313Y24324D01*
X53311Y24324D01*
X52862Y24406D01*
X52434Y24675D01*
X52145Y25089D01*
X52041Y25584D01*
X52137Y26080D01*
X52806Y27695D01*
X52806Y29870D01*
X52736Y30207D01*
X52829Y30704D01*
X53108Y31125D01*
X98887Y76904D01*
X99290Y77175D01*
X99785Y77276D01*
X100813Y77276D01*
X103024Y79487D01*
X103024Y96613D01*
X101083Y98554D01*
X100820Y98938D01*
X100711Y99432D01*
X100804Y99929D01*
X101083Y100350D01*
X106375Y105642D01*
X106768Y105909D01*
X107263Y106014D01*
X107622Y105944D01*
X109806Y105944D01*
X111756Y106752D01*
X113046Y108042D01*
X113412Y108297D01*
X113904Y108413D01*
X114402Y108329D01*
X114828Y108056D01*
X115113Y107639D01*
X115214Y107144D01*
X115214Y-165947D01*
X142004Y-192737D01*
X142271Y-193130D01*
X142376Y-193624D01*
X142279Y-194121D01*
X140876Y-197508D01*
X140876Y-202092D01*
X142630Y-206328D01*
X145872Y-209570D01*
X150114Y-211327D01*
X150490Y-211567D01*
X150785Y-211977D01*
X150898Y-212470D01*
X150809Y-212967D01*
X150533Y-213391D01*
X150114Y-213673D01*
X145872Y-215430D01*
X142630Y-218672D01*
X140876Y-222908D01*
X140876Y-227492D01*
X142630Y-231728D01*
X145872Y-234970D01*
X150108Y-236724D01*
X154692Y-236724D01*
X158928Y-234970D01*
X162170Y-231728D01*
X163924Y-227492D01*
X163924Y-222908D01*
X162170Y-218672D01*
X158928Y-215430D01*
X154686Y-213673D01*
X154310Y-213433D01*
X154015Y-213023D01*
X153902Y-212530D01*
X153991Y-212033D01*
X154267Y-211609D01*
X154686Y-211327D01*
X158928Y-209570D01*
X162170Y-206328D01*
X163924Y-202092D01*
X163924Y-197508D01*
X162170Y-193272D01*
X158928Y-190030D01*
X154686Y-188273D01*
X154310Y-188033D01*
X154015Y-187623D01*
X153902Y-187130D01*
X153991Y-186633D01*
X154267Y-186209D01*
X154686Y-185927D01*
X158928Y-184170D01*
X162170Y-180928D01*
X163924Y-176692D01*
X163924Y-172108D01*
X162170Y-167872D01*
X158928Y-164630D01*
X154686Y-162873D01*
X154310Y-162633D01*
X154015Y-162223D01*
X153902Y-161730D01*
X153991Y-161233D01*
X154267Y-160809D01*
X154686Y-160527D01*
X158928Y-158770D01*
X162170Y-155528D01*
X163924Y-151292D01*
X163924Y-146708D01*
X162170Y-142472D01*
X158928Y-139230D01*
X154686Y-137473D01*
X154310Y-137233D01*
X154015Y-136823D01*
X153902Y-136330D01*
X153991Y-135833D01*
X154267Y-135409D01*
X154686Y-135127D01*
X158928Y-133370D01*
X162170Y-130128D01*
X163924Y-125892D01*
X163924Y-121308D01*
X162170Y-117072D01*
X158928Y-113830D01*
X154686Y-112073D01*
X154310Y-111833D01*
X154015Y-111423D01*
X153902Y-110930D01*
X153991Y-110433D01*
X154267Y-110009D01*
X154686Y-109727D01*
X158928Y-107970D01*
X162170Y-104728D01*
X163924Y-100492D01*
X163924Y-95908D01*
X162170Y-91672D01*
X158928Y-88430D01*
X154686Y-86673D01*
X154310Y-86433D01*
X154015Y-86023D01*
X153902Y-85530D01*
X153991Y-85033D01*
X154267Y-84609D01*
X154686Y-84327D01*
X158928Y-82570D01*
X162170Y-79328D01*
X163924Y-75092D01*
X163924Y-70508D01*
X163124Y-68577D01*
X163029Y-68152D01*
X163106Y-67652D01*
X163371Y-67222D01*
X163784Y-66930D01*
X164277Y-66821D01*
X164774Y-66914D01*
X165196Y-67193D01*
X183753Y-85750D01*
X184024Y-86153D01*
X184059Y-86324D01*
X185069Y-87333D01*
X185324Y-87699D01*
X185440Y-88191D01*
X185355Y-88689D01*
X185083Y-89115D01*
X184766Y-89332D01*
X183109Y-90989D01*
X183109Y-92042D01*
X197891Y-92042D01*
X197891Y-90989D01*
X196794Y-89892D01*
X196539Y-89526D01*
X196422Y-89034D01*
X196507Y-88536D01*
X196779Y-88110D01*
X197196Y-87825D01*
X197692Y-87724D01*
X208909Y-87724D01*
X209348Y-87802D01*
X209778Y-88068D01*
X210070Y-88480D01*
X210179Y-88974D01*
X210086Y-89471D01*
X209807Y-89892D01*
X209507Y-90192D01*
X209507Y-99442D01*
X210399Y-100335D01*
X212694Y-100335D01*
X213152Y-100420D01*
X213578Y-100692D01*
X213863Y-101109D01*
X213964Y-101605D01*
X213964Y-112061D01*
X213879Y-112518D01*
X213606Y-112944D01*
X213189Y-113230D01*
X212694Y-113331D01*
X210399Y-113331D01*
X209507Y-114223D01*
X209507Y-123473D01*
X210399Y-124366D01*
X221401Y-124366D01*
X222294Y-123473D01*
X222294Y-114223D01*
X221401Y-113331D01*
X219806Y-113331D01*
X219348Y-113245D01*
X218922Y-112973D01*
X218637Y-112556D01*
X218536Y-112061D01*
X218536Y-101605D01*
X218621Y-101147D01*
X218894Y-100721D01*
X219311Y-100435D01*
X219806Y-100335D01*
X221401Y-100335D01*
X222294Y-99442D01*
X222294Y-90192D01*
X221993Y-89892D01*
X221738Y-89526D01*
X221622Y-89034D01*
X221707Y-88536D01*
X221979Y-88110D01*
X222396Y-87825D01*
X222891Y-87724D01*
X229270Y-87724D01*
X229747Y-87817D01*
X230168Y-88096D01*
X240374Y-98301D01*
X240645Y-98704D01*
X240746Y-99199D01*
X240746Y-110031D01*
X241638Y-110924D01*
X252470Y-110924D01*
X252947Y-111017D01*
X253070Y-111098D01*
X257477Y-112924D01*
X262062Y-112924D01*
X266456Y-111104D01*
X266574Y-111025D01*
X267069Y-110924D01*
X277901Y-110924D01*
X278794Y-110031D01*
X278794Y-92769D01*
X277901Y-91876D01*
X267069Y-91876D01*
X266592Y-91783D01*
X266171Y-91504D01*
X241859Y-67192D01*
X241604Y-66826D01*
X241488Y-66334D01*
X241572Y-65836D01*
X241845Y-65410D01*
X242262Y-65125D01*
X242757Y-65024D01*
X278243Y-65024D01*
X278719Y-65117D01*
X279141Y-65396D01*
X290204Y-76459D01*
X290475Y-76862D01*
X290576Y-77357D01*
X290576Y-123944D01*
X290491Y-124402D01*
X290218Y-124828D01*
X289801Y-125113D01*
X289306Y-125214D01*
X254053Y-125214D01*
X236464Y-142803D01*
X236464Y-198527D01*
X236371Y-199004D01*
X236092Y-199425D01*
X224443Y-211074D01*
X224077Y-211329D01*
X223585Y-211445D01*
X223087Y-211361D01*
X222661Y-211088D01*
X222376Y-210671D01*
X222275Y-210176D01*
X222275Y-202918D01*
X221382Y-202026D01*
X219806Y-202026D01*
X219348Y-201940D01*
X218922Y-201668D01*
X218637Y-201251D01*
X218536Y-200756D01*
X218536Y-192945D01*
X218621Y-192487D01*
X218894Y-192061D01*
X219311Y-191775D01*
X219806Y-191675D01*
X221382Y-191675D01*
X222275Y-190782D01*
X222275Y-180310D01*
X221331Y-179367D01*
X221076Y-179001D01*
X220960Y-178509D01*
X221045Y-178011D01*
X221317Y-177585D01*
X221634Y-177368D01*
X223291Y-175711D01*
X223291Y-174659D01*
X208509Y-174659D01*
X208509Y-175711D01*
X210181Y-177383D01*
X210440Y-177542D01*
X210732Y-177955D01*
X210841Y-178448D01*
X210748Y-178945D01*
X210469Y-179367D01*
X209525Y-180310D01*
X209525Y-190782D01*
X210418Y-191675D01*
X212694Y-191675D01*
X213152Y-191760D01*
X213578Y-192032D01*
X213863Y-192449D01*
X213964Y-192945D01*
X213964Y-200756D01*
X213879Y-201213D01*
X213606Y-201639D01*
X213189Y-201925D01*
X212694Y-202026D01*
X210418Y-202026D01*
X209525Y-202918D01*
X209525Y-210466D01*
X209432Y-210943D01*
X209153Y-211364D01*
X206464Y-214053D01*
X206464Y-448943D01*
X206386Y-449382D01*
X206120Y-449812D01*
X205708Y-450104D01*
X205214Y-450213D01*
X205018Y-450176D01*
X193369Y-450176D01*
X192476Y-451069D01*
X192476Y-463396D01*
X192613Y-463600D01*
X192714Y-464095D01*
X192714Y-490387D01*
X192625Y-490854D01*
X192349Y-491277D01*
X191930Y-491560D01*
X189178Y-492700D01*
X186630Y-495248D01*
X185251Y-498578D01*
X185251Y-502182D01*
X186630Y-505512D01*
X189178Y-508060D01*
X192508Y-509440D01*
X196112Y-509440D01*
X199442Y-508060D01*
X201990Y-505512D01*
X203370Y-502182D01*
X203370Y-498578D01*
X201990Y-495248D01*
X199442Y-492700D01*
X198070Y-492132D01*
X197672Y-491870D01*
X197387Y-491454D01*
X197286Y-490958D01*
X197286Y-465494D01*
X197371Y-465036D01*
X197644Y-464610D01*
X198061Y-464325D01*
X198556Y-464224D01*
X204631Y-464224D01*
X205524Y-463331D01*
X205524Y-460573D01*
X205602Y-460134D01*
X205868Y-459704D01*
X206280Y-459412D01*
X206774Y-459303D01*
X207271Y-459396D01*
X207692Y-459675D01*
X214392Y-466375D01*
X214659Y-466768D01*
X214764Y-467263D01*
X214694Y-467622D01*
X214694Y-469806D01*
X215502Y-471756D01*
X216994Y-473248D01*
X218945Y-474056D01*
X221055Y-474056D01*
X222208Y-473579D01*
X222654Y-473483D01*
X223152Y-473567D01*
X223578Y-473840D01*
X223863Y-474257D01*
X223964Y-474752D01*
X223964Y-490435D01*
X223882Y-490884D01*
X223613Y-491312D01*
X223199Y-491601D01*
X222704Y-491705D01*
X222208Y-491609D01*
X221512Y-491321D01*
X217908Y-491321D01*
X214578Y-492700D01*
X212030Y-495248D01*
X210651Y-498578D01*
X210651Y-502182D01*
X212030Y-505512D01*
X214578Y-508060D01*
X217908Y-509440D01*
X221512Y-509440D01*
X224842Y-508060D01*
X227390Y-505512D01*
X228770Y-502182D01*
X228770Y-498578D01*
X227889Y-496453D01*
X227793Y-495987D01*
X227885Y-495490D01*
X228164Y-495068D01*
X228536Y-494697D01*
X228536Y-425223D01*
X228629Y-424746D01*
X228908Y-424325D01*
X248492Y-404741D01*
X248858Y-404486D01*
X249350Y-404370D01*
X249848Y-404454D01*
X250274Y-404727D01*
X250559Y-405144D01*
X250660Y-405639D01*
X250660Y-412952D01*
X252148Y-414440D01*
X253200Y-414440D01*
X253200Y-401400D01*
X263200Y-401400D01*
X263200Y-414440D01*
X264252Y-414440D01*
X265740Y-412952D01*
X265740Y-403289D01*
X265818Y-402850D01*
X266084Y-402420D01*
X266496Y-402128D01*
X266990Y-402019D01*
X267487Y-402112D01*
X267908Y-402391D01*
X268304Y-402787D01*
X268575Y-403190D01*
X268676Y-403685D01*
X268676Y-412531D01*
X269569Y-413424D01*
X278415Y-413424D01*
X278892Y-413517D01*
X279313Y-413796D01*
X284842Y-419325D01*
X285113Y-419728D01*
X285214Y-420223D01*
X285214Y-441470D01*
X285125Y-441937D01*
X284849Y-442360D01*
X284430Y-442643D01*
X283158Y-443170D01*
X280610Y-445718D01*
X279231Y-449048D01*
X279231Y-452652D01*
X280610Y-455982D01*
X283158Y-458530D01*
X286488Y-459910D01*
X290092Y-459910D01*
X293422Y-458530D01*
X295970Y-455982D01*
X297350Y-452652D01*
X297350Y-449048D01*
X295970Y-445718D01*
X293422Y-443170D01*
X290570Y-441989D01*
X290172Y-441727D01*
X289887Y-441311D01*
X289786Y-440815D01*
X289786Y-417803D01*
X282096Y-410113D01*
X281825Y-409710D01*
X281724Y-409215D01*
X281724Y-400269D01*
X280831Y-399376D01*
X271885Y-399376D01*
X271408Y-399283D01*
X270987Y-399004D01*
X269358Y-397375D01*
X269091Y-396982D01*
X268986Y-396487D01*
X269056Y-396128D01*
X269056Y-393945D01*
X268579Y-392792D01*
X268483Y-392346D01*
X268567Y-391848D01*
X268840Y-391422D01*
X269257Y-391137D01*
X269752Y-391036D01*
X316444Y-391036D01*
X316902Y-391121D01*
X317328Y-391394D01*
X317613Y-391811D01*
X317714Y-392306D01*
X317714Y-440810D01*
X317632Y-441259D01*
X317363Y-441687D01*
X316949Y-441976D01*
X316454Y-442080D01*
X315958Y-441984D01*
X315492Y-441791D01*
X311888Y-441791D01*
X308558Y-443170D01*
X306010Y-445718D01*
X304631Y-449048D01*
X304631Y-452652D01*
X306010Y-455982D01*
X308558Y-458530D01*
X311888Y-459910D01*
X315492Y-459910D01*
X318822Y-458530D01*
X321370Y-455982D01*
X322750Y-452652D01*
X322750Y-449048D01*
X321664Y-446428D01*
X321568Y-445962D01*
X321660Y-445465D01*
X321939Y-445044D01*
X371825Y-395158D01*
X372228Y-394887D01*
X372723Y-394786D01*
X394697Y-394786D01*
X396036Y-393447D01*
X396036Y-392483D01*
X396125Y-392016D01*
X396401Y-391592D01*
X396820Y-391310D01*
X400102Y-389950D01*
X402650Y-387402D01*
X404030Y-384072D01*
X404030Y-380468D01*
X402650Y-377138D01*
X400102Y-374590D01*
X398070Y-373748D01*
X397672Y-373487D01*
X397387Y-373070D01*
X397286Y-372575D01*
X397286Y-371473D01*
X397379Y-370996D01*
X397658Y-370575D01*
X458999Y-309234D01*
X459393Y-308966D01*
X459887Y-308862D01*
X460383Y-308958D01*
X463018Y-310050D01*
X466622Y-310050D01*
X468363Y-309328D01*
X469038Y-309246D01*
X469513Y-309419D01*
X469883Y-309763D01*
X470089Y-310225D01*
X470099Y-310730D01*
X469910Y-311199D01*
X458311Y-328837D01*
X458251Y-328921D01*
X430031Y-365042D01*
X429964Y-365121D01*
X398899Y-398826D01*
X398826Y-398899D01*
X365121Y-429964D01*
X365042Y-430031D01*
X328921Y-458251D01*
X328837Y-458311D01*
X290539Y-483497D01*
X290451Y-483551D01*
X250230Y-505537D01*
X250138Y-505583D01*
X208262Y-524223D01*
X208165Y-524261D01*
X164911Y-539432D01*
X164812Y-539462D01*
X120467Y-551063D01*
X120366Y-551085D01*
X75224Y-559039D01*
X75121Y-559052D01*
X29660Y-563289D01*
X29542Y-563295D01*
X27827Y-563295D01*
X27757Y-563324D01*
X27337Y-563419D01*
X27261Y-563423D01*
X25587Y-564221D01*
X25526Y-564248D01*
X23813Y-564958D01*
X23759Y-565012D01*
X23408Y-565260D01*
X23339Y-565293D01*
X22098Y-566671D01*
X22052Y-566719D01*
X20741Y-568030D01*
X20712Y-568101D01*
X20482Y-568465D01*
X20431Y-568522D01*
X19811Y-570270D01*
X19788Y-570331D01*
X19078Y-572044D01*
X19078Y-572121D01*
X19005Y-572545D01*
X18980Y-572617D01*
X19076Y-574469D01*
X19078Y-574535D01*
X19078Y-584016D01*
X19000Y-584455D01*
X18734Y-584885D01*
X18322Y-585178D01*
G37*
%LPC*%
G36*
X10898Y533146D02*
X14502Y533146D01*
X17832Y534525D01*
X20380Y537073D01*
X21760Y540403D01*
X21760Y544007D01*
X20380Y547337D01*
X17832Y549885D01*
X14502Y551265D01*
X10898Y551265D01*
X7568Y549885D01*
X5020Y547337D01*
X3641Y544007D01*
X3641Y540403D01*
X5020Y537073D01*
X7568Y534525D01*
X10898Y533146D01*
G37*
G36*
X-88100Y500300D02*
X-85560Y500300D01*
X-85560Y501852D01*
X-87048Y503340D01*
X-88100Y503340D01*
X-88100Y500300D01*
G37*
G36*
X150195Y403444D02*
X152306Y403444D01*
X154256Y404252D01*
X155748Y405744D01*
X156556Y407695D01*
X156556Y409870D01*
X156486Y410207D01*
X156579Y410704D01*
X156858Y411125D01*
X192992Y447259D01*
X193358Y447514D01*
X193850Y447630D01*
X194348Y447546D01*
X194774Y447273D01*
X195059Y446856D01*
X195160Y446361D01*
X195160Y442648D01*
X196648Y441160D01*
X198200Y441160D01*
X198200Y453700D01*
X211240Y453700D01*
X211240Y454752D01*
X209752Y456240D01*
X200039Y456240D01*
X199600Y456318D01*
X199170Y456584D01*
X198878Y456996D01*
X198769Y457490D01*
X198862Y457987D01*
X199141Y458408D01*
X199537Y458804D01*
X199940Y459075D01*
X200435Y459176D01*
X209331Y459176D01*
X210224Y460069D01*
X210224Y468965D01*
X210317Y469442D01*
X210596Y469863D01*
X211036Y470303D01*
X211036Y483991D01*
X211125Y484458D01*
X211401Y484882D01*
X211820Y485164D01*
X214682Y486350D01*
X217230Y488898D01*
X218610Y492228D01*
X218610Y495832D01*
X217230Y499162D01*
X214682Y501710D01*
X211352Y503090D01*
X207748Y503090D01*
X204418Y501710D01*
X201870Y499162D01*
X200491Y495832D01*
X200491Y492228D01*
X201870Y488898D01*
X204418Y486350D01*
X205680Y485827D01*
X206078Y485566D01*
X206363Y485149D01*
X206464Y484654D01*
X206464Y473494D01*
X206379Y473036D01*
X206106Y472610D01*
X205689Y472325D01*
X205194Y472224D01*
X197069Y472224D01*
X196176Y471331D01*
X196176Y462435D01*
X196083Y461958D01*
X195804Y461537D01*
X192714Y458447D01*
X192714Y453973D01*
X192621Y453496D01*
X192342Y453075D01*
X153625Y414358D01*
X153232Y414091D01*
X152737Y413986D01*
X152378Y414056D01*
X150195Y414056D01*
X148244Y413248D01*
X146752Y411756D01*
X145944Y409806D01*
X145944Y407695D01*
X146752Y405744D01*
X148244Y404252D01*
X150195Y403444D01*
G37*
G36*
X-88100Y487260D02*
X-87048Y487260D01*
X-85560Y488748D01*
X-85560Y490300D01*
X-88100Y490300D01*
X-88100Y487260D01*
G37*
G36*
X-19252Y479260D02*
X-17700Y479260D01*
X-17700Y481800D01*
X-20740Y481800D01*
X-20740Y480748D01*
X-19252Y479260D01*
G37*
G36*
X95048Y466560D02*
X96600Y466560D01*
X96600Y469100D01*
X93560Y469100D01*
X93560Y468048D01*
X95048Y466560D01*
G37*
G36*
X-174539Y384556D02*
X-155661Y384556D01*
X-152300Y385948D01*
X-149728Y388520D01*
X-148336Y391881D01*
X-148336Y395519D01*
X-149728Y398880D01*
X-152300Y401452D01*
X-155661Y402844D01*
X-161444Y402844D01*
X-161902Y402929D01*
X-162328Y403202D01*
X-162613Y403619D01*
X-162714Y404114D01*
X-162714Y455605D01*
X-162625Y456072D01*
X-162349Y456496D01*
X-162046Y456701D01*
X-160502Y458244D01*
X-159694Y460195D01*
X-159694Y462306D01*
X-160502Y464256D01*
X-161994Y465748D01*
X-163945Y466556D01*
X-166056Y466556D01*
X-168006Y465748D01*
X-169498Y464256D01*
X-170306Y462306D01*
X-170306Y460195D01*
X-169498Y458244D01*
X-167960Y456706D01*
X-167672Y456517D01*
X-167387Y456100D01*
X-167286Y455605D01*
X-167286Y404114D01*
X-167371Y403656D01*
X-167644Y403230D01*
X-168061Y402945D01*
X-168556Y402844D01*
X-174539Y402844D01*
X-177900Y401452D01*
X-180472Y398880D01*
X-181864Y395519D01*
X-181864Y391881D01*
X-180472Y388520D01*
X-177900Y385948D01*
X-174539Y384556D01*
G37*
G36*
X-188052Y449160D02*
X-187000Y449160D01*
X-187000Y465240D01*
X-188052Y465240D01*
X-189540Y463752D01*
X-189540Y450648D01*
X-188052Y449160D01*
G37*
G36*
X-177000Y462200D02*
X-174460Y462200D01*
X-174460Y463752D01*
X-175948Y465240D01*
X-177000Y465240D01*
X-177000Y462200D01*
G37*
G36*
X-177000Y449160D02*
X-175948Y449160D01*
X-174460Y450648D01*
X-174460Y452200D01*
X-177000Y452200D01*
X-177000Y449160D01*
G37*
G36*
X208200Y441160D02*
X209752Y441160D01*
X211240Y442648D01*
X211240Y443700D01*
X208200Y443700D01*
X208200Y441160D01*
G37*
G36*
X-265900Y411400D02*
X-263360Y411400D01*
X-263360Y412952D01*
X-264848Y414440D01*
X-265900Y414440D01*
X-265900Y411400D01*
G37*
G36*
X284060Y390200D02*
X300140Y390200D01*
X300140Y391252D01*
X298652Y392740D01*
X285548Y392740D01*
X284060Y391252D01*
X284060Y390200D01*
G37*
G36*
X362169Y332176D02*
X374431Y332176D01*
X375324Y333069D01*
X375324Y333944D01*
X375409Y334402D01*
X375682Y334828D01*
X376099Y335113D01*
X376594Y335214D01*
X389777Y335214D01*
X390254Y335121D01*
X390675Y334842D01*
X392803Y332714D01*
X403447Y332714D01*
X404786Y334053D01*
X404786Y349697D01*
X402008Y352475D01*
X401741Y352868D01*
X401636Y353363D01*
X401733Y353859D01*
X402760Y356338D01*
X402760Y359942D01*
X401380Y363272D01*
X398832Y365820D01*
X395502Y367200D01*
X391898Y367200D01*
X388568Y365820D01*
X388204Y365456D01*
X387838Y365201D01*
X387346Y365085D01*
X386848Y365170D01*
X386422Y365442D01*
X386137Y365859D01*
X386036Y366354D01*
X386036Y376855D01*
X386125Y377322D01*
X386401Y377746D01*
X386704Y377951D01*
X388248Y379494D01*
X389056Y381445D01*
X389056Y383556D01*
X388248Y385506D01*
X386756Y386998D01*
X384806Y387806D01*
X382695Y387806D01*
X380744Y386998D01*
X379252Y385506D01*
X378444Y383556D01*
X378444Y381445D01*
X379252Y379494D01*
X380790Y377956D01*
X381078Y377767D01*
X381363Y377350D01*
X381464Y376855D01*
X381464Y352803D01*
X390642Y343625D01*
X390909Y343232D01*
X391014Y342737D01*
X390944Y342378D01*
X390944Y341056D01*
X390859Y340598D01*
X390586Y340172D01*
X390169Y339887D01*
X389674Y339786D01*
X376594Y339786D01*
X376136Y339871D01*
X375710Y340144D01*
X375425Y340561D01*
X375324Y341056D01*
X375324Y344331D01*
X374431Y345224D01*
X362169Y345224D01*
X361276Y344331D01*
X361276Y333069D01*
X362169Y332176D01*
G37*
G36*
X297100Y377660D02*
X298652Y377660D01*
X300140Y379148D01*
X300140Y380200D01*
X297100Y380200D01*
X297100Y377660D01*
G37*
G36*
X285548Y377660D02*
X287100Y377660D01*
X287100Y380200D01*
X284060Y380200D01*
X284060Y379148D01*
X285548Y377660D01*
G37*
G36*
X-343556Y354694D02*
X-341445Y354694D01*
X-339494Y355502D01*
X-338002Y356994D01*
X-337194Y358945D01*
X-337194Y361056D01*
X-338002Y363006D01*
X-339540Y364544D01*
X-339828Y364733D01*
X-340113Y365150D01*
X-340214Y365645D01*
X-340214Y369697D01*
X-341553Y371036D01*
X-372223Y371036D01*
X-372690Y371125D01*
X-373114Y371401D01*
X-373396Y371820D01*
X-374590Y374702D01*
X-377138Y377250D01*
X-380468Y378630D01*
X-384072Y378630D01*
X-387402Y377250D01*
X-389950Y374702D01*
X-391330Y371372D01*
X-391330Y367768D01*
X-389950Y364438D01*
X-387402Y361890D01*
X-384072Y360511D01*
X-380468Y360511D01*
X-377138Y361890D01*
X-374590Y364438D01*
X-374075Y365680D01*
X-373814Y366078D01*
X-373397Y366363D01*
X-372902Y366464D01*
X-346606Y366464D01*
X-346167Y366386D01*
X-345737Y366120D01*
X-345445Y365708D01*
X-345336Y365214D01*
X-345429Y364717D01*
X-345708Y364296D01*
X-346998Y363006D01*
X-347806Y361056D01*
X-347806Y358945D01*
X-346998Y356994D01*
X-345506Y355502D01*
X-343556Y354694D01*
G37*
G36*
X277783Y346846D02*
X281017Y346846D01*
X284004Y348083D01*
X286291Y350369D01*
X287528Y353357D01*
X287528Y356590D01*
X286291Y359578D01*
X284004Y361864D01*
X281017Y363102D01*
X277783Y363102D01*
X274796Y361864D01*
X272509Y359578D01*
X271272Y356590D01*
X271272Y353357D01*
X272509Y350369D01*
X274796Y348083D01*
X277783Y346846D01*
G37*
G36*
X195965Y346846D02*
X210435Y346846D01*
X211328Y347738D01*
X211328Y362209D01*
X210435Y363102D01*
X195965Y363102D01*
X195072Y362209D01*
X195072Y358556D01*
X194987Y358098D01*
X194714Y357672D01*
X194297Y357387D01*
X193802Y357286D01*
X180040Y357286D01*
X179582Y357371D01*
X179156Y357644D01*
X178870Y358061D01*
X178770Y358556D01*
X178770Y361101D01*
X177877Y361994D01*
X168627Y361994D01*
X167735Y361101D01*
X167735Y350099D01*
X168627Y349207D01*
X177877Y349207D01*
X178770Y350099D01*
X178770Y351444D01*
X178855Y351902D01*
X179127Y352328D01*
X179544Y352613D01*
X180040Y352714D01*
X193802Y352714D01*
X194260Y352629D01*
X194686Y352356D01*
X194971Y351939D01*
X195072Y351444D01*
X195072Y347738D01*
X195965Y346846D01*
G37*
G36*
X152323Y349207D02*
X161573Y349207D01*
X162466Y350099D01*
X162466Y361101D01*
X161573Y361994D01*
X152323Y361994D01*
X151431Y361101D01*
X151431Y358556D01*
X151345Y358098D01*
X151073Y357672D01*
X150656Y357387D01*
X150161Y357286D01*
X131895Y357286D01*
X131428Y357375D01*
X131004Y357651D01*
X130800Y357954D01*
X129256Y359498D01*
X127306Y360306D01*
X125195Y360306D01*
X123244Y359498D01*
X121752Y358006D01*
X120944Y356056D01*
X120944Y353945D01*
X121752Y351994D01*
X123244Y350502D01*
X125195Y349694D01*
X127306Y349694D01*
X129256Y350502D01*
X130794Y352040D01*
X130983Y352328D01*
X131400Y352613D01*
X131895Y352714D01*
X150161Y352714D01*
X150618Y352629D01*
X151044Y352356D01*
X151330Y351939D01*
X151431Y351444D01*
X151431Y350099D01*
X152323Y349207D01*
G37*
G36*
X48728Y310896D02*
X52872Y310896D01*
X56699Y312481D01*
X59629Y315411D01*
X61214Y319238D01*
X61214Y341162D01*
X59629Y344989D01*
X56699Y347919D01*
X52872Y349504D01*
X48728Y349504D01*
X44901Y347919D01*
X41971Y344989D01*
X40386Y341162D01*
X40386Y319238D01*
X41971Y315411D01*
X44901Y312481D01*
X48728Y310896D01*
G37*
G36*
X74128Y310896D02*
X78272Y310896D01*
X82099Y312481D01*
X85029Y315411D01*
X86614Y319238D01*
X86614Y341162D01*
X85029Y344989D01*
X82099Y347919D01*
X78272Y349504D01*
X74128Y349504D01*
X70301Y347919D01*
X67371Y344989D01*
X65786Y341162D01*
X65786Y319238D01*
X67371Y315411D01*
X70301Y312481D01*
X74128Y310896D01*
G37*
G36*
X-85890Y314835D02*
X-85090Y314036D01*
X-85090Y346364D01*
X-85890Y345565D01*
X-87630Y341364D01*
X-87630Y319036D01*
X-85890Y314835D01*
G37*
G36*
X360260Y326700D02*
X376340Y326700D01*
X376340Y327752D01*
X374852Y329240D01*
X361748Y329240D01*
X360260Y327752D01*
X360260Y326700D01*
G37*
G36*
X361748Y314160D02*
X363300Y314160D01*
X363300Y316700D01*
X360260Y316700D01*
X360260Y315648D01*
X361748Y314160D01*
G37*
G36*
X373300Y314160D02*
X374852Y314160D01*
X376340Y315648D01*
X376340Y316700D01*
X373300Y316700D01*
X373300Y314160D01*
G37*
G36*
X-174741Y307340D02*
X-172720Y307340D01*
X-172720Y309880D01*
X-179468Y309880D01*
X-178475Y308887D01*
X-174741Y307340D01*
G37*
G36*
X449048Y270341D02*
X452652Y270341D01*
X455982Y271720D01*
X458530Y274268D01*
X459910Y277598D01*
X459910Y281202D01*
X458530Y284532D01*
X455982Y287080D01*
X452652Y288460D01*
X449048Y288460D01*
X445718Y287080D01*
X443170Y284532D01*
X442564Y283070D01*
X442303Y282672D01*
X441886Y282387D01*
X441391Y282286D01*
X384594Y282286D01*
X384136Y282371D01*
X383710Y282644D01*
X383425Y283061D01*
X383324Y283556D01*
X383324Y285531D01*
X382431Y286424D01*
X371169Y286424D01*
X370276Y285531D01*
X370276Y273269D01*
X371169Y272376D01*
X382431Y272376D01*
X383324Y273269D01*
X383324Y276444D01*
X383409Y276902D01*
X383682Y277328D01*
X384099Y277613D01*
X384594Y277714D01*
X440894Y277714D01*
X441361Y277625D01*
X441785Y277349D01*
X442067Y276930D01*
X443170Y274268D01*
X445718Y271720D01*
X449048Y270341D01*
G37*
G36*
X364800Y271360D02*
X365852Y271360D01*
X367340Y272848D01*
X367340Y285952D01*
X365852Y287440D01*
X364800Y287440D01*
X364800Y271360D01*
G37*
G36*
X352260Y284400D02*
X354800Y284400D01*
X354800Y287440D01*
X353748Y287440D01*
X352260Y285952D01*
X352260Y284400D01*
G37*
G36*
X-405600Y271700D02*
X-403060Y271700D01*
X-403060Y273252D01*
X-404548Y274740D01*
X-405600Y274740D01*
X-405600Y271700D01*
G37*
G36*
X-416652Y258660D02*
X-415600Y258660D01*
X-415600Y274740D01*
X-416652Y274740D01*
X-418140Y273252D01*
X-418140Y260148D01*
X-416652Y258660D01*
G37*
G36*
X353748Y271360D02*
X354800Y271360D01*
X354800Y274400D01*
X352260Y274400D01*
X352260Y272848D01*
X353748Y271360D01*
G37*
G36*
X390200Y245960D02*
X391252Y245960D01*
X392740Y247448D01*
X392740Y260552D01*
X391252Y262040D01*
X390200Y262040D01*
X390200Y245960D01*
G37*
G36*
X377660Y259000D02*
X380200Y259000D01*
X380200Y262040D01*
X379148Y262040D01*
X377660Y260552D01*
X377660Y259000D01*
G37*
G36*
X-405600Y258660D02*
X-404548Y258660D01*
X-403060Y260148D01*
X-403060Y261700D01*
X-405600Y261700D01*
X-405600Y258660D01*
G37*
G36*
X379148Y245960D02*
X380200Y245960D01*
X380200Y249000D01*
X377660Y249000D01*
X377660Y247448D01*
X379148Y245960D01*
G37*
G36*
X-166903Y229936D02*
X-163297Y229936D01*
X-159966Y231316D01*
X-157416Y233866D01*
X-156036Y237197D01*
X-156036Y240803D01*
X-157416Y244134D01*
X-159966Y246684D01*
X-163297Y248064D01*
X-166903Y248064D01*
X-170234Y246684D01*
X-172784Y244134D01*
X-174164Y240803D01*
X-174164Y237197D01*
X-172784Y233866D01*
X-170234Y231316D01*
X-166903Y229936D01*
G37*
G36*
X-57515Y198040D02*
X-43549Y198040D01*
X-44033Y198130D01*
X-44454Y198409D01*
X-45090Y199045D01*
X-48795Y200580D01*
X-52805Y200580D01*
X-56510Y199045D01*
X-57515Y198040D01*
G37*
G36*
X87081Y181356D02*
X90719Y181356D01*
X94080Y182748D01*
X96652Y185320D01*
X98044Y188681D01*
X98044Y192319D01*
X96652Y195680D01*
X94080Y198252D01*
X90719Y199644D01*
X87081Y199644D01*
X83720Y198252D01*
X81148Y195680D01*
X79756Y192319D01*
X79756Y188681D01*
X81148Y185320D01*
X83720Y182748D01*
X87081Y181356D01*
G37*
G36*
X-443700Y195500D02*
X-441160Y195500D01*
X-441160Y197052D01*
X-442648Y198540D01*
X-443700Y198540D01*
X-443700Y195500D01*
G37*
G36*
X-52805Y180420D02*
X-48795Y180420D01*
X-45090Y181955D01*
X-44454Y182591D01*
X-44088Y182846D01*
X-43605Y182960D01*
X-57515Y182960D01*
X-56510Y181955D01*
X-52805Y180420D01*
G37*
G36*
X-480152Y93560D02*
X-479100Y93560D01*
X-479100Y109640D01*
X-480152Y109640D01*
X-481640Y108152D01*
X-481640Y95048D01*
X-480152Y93560D01*
G37*
G36*
X-469100Y106600D02*
X-466560Y106600D01*
X-466560Y108152D01*
X-468048Y109640D01*
X-469100Y109640D01*
X-469100Y106600D01*
G37*
G36*
X-469100Y93560D02*
X-468048Y93560D01*
X-466560Y95048D01*
X-466560Y96600D01*
X-469100Y96600D01*
X-469100Y93560D01*
G37*
G36*
X441160Y81200D02*
X443700Y81200D01*
X443700Y84240D01*
X442648Y84240D01*
X441160Y82752D01*
X441160Y81200D01*
G37*
G36*
X453700Y68160D02*
X454752Y68160D01*
X456240Y69648D01*
X456240Y82752D01*
X454752Y84240D01*
X453700Y84240D01*
X453700Y68160D01*
G37*
G36*
X-458868Y71120D02*
X-452120Y71120D01*
X-452120Y73660D01*
X-454141Y73660D01*
X-457875Y72113D01*
X-458868Y71120D01*
G37*
G36*
X-436880Y71120D02*
X-430132Y71120D01*
X-431125Y72113D01*
X-434859Y73660D01*
X-436880Y73660D01*
X-436880Y71120D01*
G37*
G36*
X-57515Y71040D02*
X-43549Y71040D01*
X-44033Y71130D01*
X-44454Y71409D01*
X-45090Y72045D01*
X-48795Y73580D01*
X-52805Y73580D01*
X-56510Y72045D01*
X-57515Y71040D01*
G37*
G36*
X442648Y68160D02*
X443700Y68160D01*
X443700Y71200D01*
X441160Y71200D01*
X441160Y69648D01*
X442648Y68160D01*
G37*
G36*
X-52805Y53420D02*
X-48795Y53420D01*
X-45090Y54955D01*
X-44454Y55591D01*
X-44088Y55846D01*
X-43605Y55960D01*
X-57515Y55960D01*
X-56510Y54955D01*
X-52805Y53420D01*
G37*
G36*
X-454141Y53340D02*
X-434859Y53340D01*
X-431125Y54887D01*
X-430132Y55880D01*
X-458868Y55880D01*
X-457875Y54887D01*
X-454141Y53340D01*
G37*
G36*
X-453939Y28956D02*
X-435061Y28956D01*
X-431700Y30348D01*
X-429128Y32920D01*
X-427736Y36281D01*
X-427736Y39919D01*
X-429128Y43280D01*
X-431700Y45852D01*
X-435061Y47244D01*
X-453939Y47244D01*
X-457300Y45852D01*
X-459872Y43280D01*
X-461264Y39919D01*
X-461264Y36281D01*
X-459872Y32920D01*
X-457300Y30348D01*
X-453939Y28956D01*
G37*
G36*
X-453939Y3556D02*
X-435061Y3556D01*
X-431700Y4948D01*
X-429128Y7520D01*
X-427736Y10881D01*
X-427736Y14519D01*
X-429128Y17880D01*
X-431700Y20452D01*
X-435061Y21844D01*
X-453939Y21844D01*
X-457300Y20452D01*
X-459872Y17880D01*
X-461264Y14519D01*
X-461264Y10881D01*
X-459872Y7520D01*
X-457300Y4948D01*
X-453939Y3556D01*
G37*
G36*
X-481800Y5000D02*
X-479260Y5000D01*
X-479260Y6552D01*
X-480748Y8040D01*
X-481800Y8040D01*
X-481800Y5000D01*
G37*
G36*
X-492852Y-8040D02*
X-491800Y-8040D01*
X-491800Y8040D01*
X-492852Y8040D01*
X-494340Y6552D01*
X-494340Y-6552D01*
X-492852Y-8040D01*
G37*
G36*
X-453939Y-21844D02*
X-435061Y-21844D01*
X-431700Y-20452D01*
X-429128Y-17880D01*
X-427736Y-14519D01*
X-427736Y-10881D01*
X-429128Y-7520D01*
X-431700Y-4948D01*
X-435061Y-3556D01*
X-453939Y-3556D01*
X-457300Y-4948D01*
X-459872Y-7520D01*
X-461264Y-10881D01*
X-461264Y-14519D01*
X-459872Y-17880D01*
X-457300Y-20452D01*
X-453939Y-21844D01*
G37*
G36*
X-481800Y-8040D02*
X-480748Y-8040D01*
X-479260Y-6552D01*
X-479260Y-5000D01*
X-481800Y-5000D01*
X-481800Y-8040D01*
G37*
G36*
X-453939Y-47244D02*
X-435061Y-47244D01*
X-431700Y-45852D01*
X-429128Y-43280D01*
X-427736Y-39919D01*
X-427736Y-36281D01*
X-429128Y-32920D01*
X-431700Y-30348D01*
X-435061Y-28956D01*
X-453939Y-28956D01*
X-457300Y-30348D01*
X-459872Y-32920D01*
X-461264Y-36281D01*
X-461264Y-39919D01*
X-459872Y-43280D01*
X-457300Y-45852D01*
X-453939Y-47244D01*
G37*
G36*
X-57515Y-55960D02*
X-43549Y-55960D01*
X-44033Y-55870D01*
X-44454Y-55591D01*
X-45090Y-54955D01*
X-48795Y-53420D01*
X-52805Y-53420D01*
X-56510Y-54955D01*
X-57515Y-55960D01*
G37*
G36*
X-453939Y-72644D02*
X-435061Y-72644D01*
X-431700Y-71252D01*
X-429128Y-68680D01*
X-427736Y-65319D01*
X-427736Y-61681D01*
X-429128Y-58320D01*
X-431700Y-55748D01*
X-435061Y-54356D01*
X-453939Y-54356D01*
X-457300Y-55748D01*
X-459872Y-58320D01*
X-461264Y-61681D01*
X-461264Y-65319D01*
X-459872Y-68680D01*
X-457300Y-71252D01*
X-453939Y-72644D01*
G37*
G36*
X-52805Y-73580D02*
X-48795Y-73580D01*
X-45090Y-72045D01*
X-44454Y-71409D01*
X-44088Y-71154D01*
X-43605Y-71040D01*
X-57515Y-71040D01*
X-56510Y-72045D01*
X-52805Y-73580D01*
G37*
G36*
X-484031Y-108624D02*
X-472769Y-108624D01*
X-471876Y-107731D01*
X-471876Y-95469D01*
X-472769Y-94576D01*
X-481665Y-94576D01*
X-482142Y-94483D01*
X-482563Y-94204D01*
X-486892Y-89875D01*
X-487159Y-89482D01*
X-487264Y-88987D01*
X-487194Y-88628D01*
X-487194Y-86445D01*
X-488002Y-84494D01*
X-489494Y-83002D01*
X-491445Y-82194D01*
X-493556Y-82194D01*
X-495506Y-83002D01*
X-496998Y-84494D01*
X-497806Y-86445D01*
X-497806Y-88556D01*
X-496998Y-90506D01*
X-495506Y-91998D01*
X-493556Y-92806D01*
X-491380Y-92806D01*
X-491043Y-92736D01*
X-490546Y-92829D01*
X-490125Y-93108D01*
X-485296Y-97937D01*
X-485025Y-98340D01*
X-484924Y-98835D01*
X-484924Y-107731D01*
X-484031Y-108624D01*
G37*
G36*
X-456400Y-96600D02*
X-453860Y-96600D01*
X-453860Y-95048D01*
X-455348Y-93560D01*
X-456400Y-93560D01*
X-456400Y-96600D01*
G37*
G36*
X-467452Y-109640D02*
X-466400Y-109640D01*
X-466400Y-93560D01*
X-467452Y-93560D01*
X-468940Y-95048D01*
X-468940Y-108152D01*
X-467452Y-109640D01*
G37*
G36*
X184597Y-103791D02*
X185896Y-103791D01*
X185896Y-101251D01*
X183109Y-101251D01*
X183109Y-102303D01*
X184597Y-103791D01*
G37*
G36*
X195105Y-103791D02*
X196403Y-103791D01*
X197891Y-102303D01*
X197891Y-101251D01*
X195105Y-101251D01*
X195105Y-103791D01*
G37*
G36*
X-456400Y-109640D02*
X-455348Y-109640D01*
X-453860Y-108152D01*
X-453860Y-106600D01*
X-456400Y-106600D01*
X-456400Y-109640D01*
G37*
G36*
X196445Y-141556D02*
X198556Y-141556D01*
X200506Y-140748D01*
X202044Y-139210D01*
X202233Y-138922D01*
X202650Y-138637D01*
X203145Y-138536D01*
X208237Y-138536D01*
X208694Y-138621D01*
X209120Y-138894D01*
X209406Y-139311D01*
X209499Y-139769D01*
X210399Y-140670D01*
X221401Y-140670D01*
X222294Y-139777D01*
X222294Y-130527D01*
X221401Y-129635D01*
X210399Y-129635D01*
X209507Y-130527D01*
X209507Y-132694D01*
X209421Y-133152D01*
X209149Y-133578D01*
X208732Y-133863D01*
X208237Y-133964D01*
X203145Y-133964D01*
X202678Y-133875D01*
X202254Y-133599D01*
X202050Y-133296D01*
X200506Y-131752D01*
X198556Y-130944D01*
X196445Y-130944D01*
X194494Y-131752D01*
X193002Y-133244D01*
X192194Y-135195D01*
X192194Y-137306D01*
X193002Y-139256D01*
X194494Y-140748D01*
X196445Y-141556D01*
G37*
G36*
X220505Y-165450D02*
X223291Y-165450D01*
X223291Y-164397D01*
X221803Y-162910D01*
X220505Y-162910D01*
X220505Y-165450D01*
G37*
G36*
X208509Y-165450D02*
X211296Y-165450D01*
X211296Y-162910D01*
X209997Y-162910D01*
X208509Y-164397D01*
X208509Y-165450D01*
G37*
G36*
X-57515Y-182960D02*
X-44085Y-182960D01*
X-45090Y-181955D01*
X-48795Y-180420D01*
X-52805Y-180420D01*
X-56510Y-181955D01*
X-57515Y-182960D01*
G37*
G36*
X-443700Y-185840D02*
X-442648Y-185840D01*
X-441160Y-184352D01*
X-441160Y-182800D01*
X-443700Y-182800D01*
X-443700Y-185840D01*
G37*
G36*
X-52805Y-200580D02*
X-48795Y-200580D01*
X-45090Y-199045D01*
X-44085Y-198040D01*
X-57515Y-198040D01*
X-56510Y-199045D01*
X-52805Y-200580D01*
G37*
G36*
X-403139Y-225044D02*
X-384261Y-225044D01*
X-380900Y-223652D01*
X-378328Y-221080D01*
X-376936Y-217719D01*
X-376936Y-214081D01*
X-378328Y-210720D01*
X-380900Y-208148D01*
X-384261Y-206756D01*
X-403139Y-206756D01*
X-406500Y-208148D01*
X-409072Y-210720D01*
X-410464Y-214081D01*
X-410464Y-217719D01*
X-409072Y-221080D01*
X-406500Y-223652D01*
X-403139Y-225044D01*
G37*
G36*
X-2292Y-236724D02*
X2292Y-236724D01*
X6528Y-234970D01*
X9770Y-231728D01*
X11524Y-227492D01*
X11524Y-222908D01*
X9770Y-218672D01*
X6528Y-215430D01*
X3613Y-214223D01*
X3238Y-213983D01*
X2942Y-213573D01*
X2830Y-213080D01*
X2918Y-212583D01*
X3194Y-212159D01*
X3613Y-211877D01*
X7103Y-210431D01*
X8844Y-208690D01*
X-8844Y-208690D01*
X-7103Y-210431D01*
X-3613Y-211877D01*
X-3238Y-212117D01*
X-2942Y-212527D01*
X-2830Y-213019D01*
X-2918Y-213517D01*
X-3194Y-213941D01*
X-3613Y-214223D01*
X-6528Y-215430D01*
X-9770Y-218672D01*
X-11524Y-222908D01*
X-11524Y-227492D01*
X-9770Y-231728D01*
X-6528Y-234970D01*
X-2292Y-236724D01*
G37*
G36*
X-405600Y-249000D02*
X-403060Y-249000D01*
X-403060Y-247448D01*
X-404548Y-245960D01*
X-405600Y-245960D01*
X-405600Y-249000D01*
G37*
G36*
X-416652Y-262040D02*
X-415600Y-262040D01*
X-415600Y-245960D01*
X-416652Y-245960D01*
X-418140Y-247448D01*
X-418140Y-260552D01*
X-416652Y-262040D01*
G37*
G36*
X-405600Y-262040D02*
X-404548Y-262040D01*
X-403060Y-260552D01*
X-403060Y-259000D01*
X-405600Y-259000D01*
X-405600Y-262040D01*
G37*
G36*
X187000Y-465240D02*
X188052Y-465240D01*
X189540Y-463752D01*
X189540Y-450648D01*
X188052Y-449160D01*
X187000Y-449160D01*
X187000Y-465240D01*
G37*
G36*
X-200752Y-465240D02*
X-199700Y-465240D01*
X-199700Y-449160D01*
X-200752Y-449160D01*
X-202240Y-450648D01*
X-202240Y-463752D01*
X-200752Y-465240D01*
G37*
G36*
X174460Y-452200D02*
X177000Y-452200D01*
X177000Y-449160D01*
X175948Y-449160D01*
X174460Y-450648D01*
X174460Y-452200D01*
G37*
G36*
X-189700Y-452200D02*
X-187160Y-452200D01*
X-187160Y-450648D01*
X-188648Y-449160D01*
X-189700Y-449160D01*
X-189700Y-452200D01*
G37*
G36*
X175948Y-465240D02*
X177000Y-465240D01*
X177000Y-462200D01*
X174460Y-462200D01*
X174460Y-463752D01*
X175948Y-465240D01*
G37*
G36*
X-189700Y-465240D02*
X-188648Y-465240D01*
X-187160Y-463752D01*
X-187160Y-462200D01*
X-189700Y-462200D01*
X-189700Y-465240D01*
G37*
G36*
X-99152Y-490640D02*
X-98100Y-490640D01*
X-98100Y-474560D01*
X-99152Y-474560D01*
X-100640Y-476048D01*
X-100640Y-489152D01*
X-99152Y-490640D01*
G37*
G36*
X-88100Y-477600D02*
X-85560Y-477600D01*
X-85560Y-476048D01*
X-87048Y-474560D01*
X-88100Y-474560D01*
X-88100Y-477600D01*
G37*
G36*
X-14502Y-550080D02*
X-10898Y-550080D01*
X-7568Y-548700D01*
X-5020Y-546152D01*
X-3641Y-542822D01*
X-3641Y-539218D01*
X-5020Y-535888D01*
X-7568Y-533340D01*
X-9430Y-532569D01*
X-9828Y-532307D01*
X-10113Y-531891D01*
X-10214Y-531395D01*
X-10214Y-503594D01*
X-10129Y-503136D01*
X-9856Y-502710D01*
X-9439Y-502425D01*
X-8944Y-502324D01*
X-2869Y-502324D01*
X-1976Y-501431D01*
X-1976Y-489169D01*
X-2869Y-488276D01*
X-5465Y-488276D01*
X-5942Y-488183D01*
X-6363Y-487904D01*
X-8142Y-486125D01*
X-8409Y-485732D01*
X-8514Y-485237D01*
X-8444Y-484878D01*
X-8444Y-482695D01*
X-9252Y-480744D01*
X-10744Y-479252D01*
X-12695Y-478444D01*
X-14806Y-478444D01*
X-16756Y-479252D01*
X-18248Y-480744D01*
X-19056Y-482695D01*
X-19056Y-484806D01*
X-18248Y-486756D01*
X-16756Y-488248D01*
X-15808Y-488641D01*
X-15410Y-488902D01*
X-15125Y-489319D01*
X-15024Y-489814D01*
X-15024Y-501496D01*
X-14887Y-501700D01*
X-14786Y-502195D01*
X-14786Y-531230D01*
X-14875Y-531697D01*
X-15151Y-532120D01*
X-15570Y-532403D01*
X-17832Y-533340D01*
X-20380Y-535888D01*
X-21760Y-539218D01*
X-21760Y-542822D01*
X-20380Y-546152D01*
X-17832Y-548700D01*
X-14502Y-550080D01*
G37*
G36*
X2448Y-503340D02*
X3500Y-503340D01*
X3500Y-487260D01*
X2448Y-487260D01*
X960Y-488748D01*
X960Y-501852D01*
X2448Y-503340D01*
G37*
G36*
X13500Y-490300D02*
X16040Y-490300D01*
X16040Y-488748D01*
X14552Y-487260D01*
X13500Y-487260D01*
X13500Y-490300D01*
G37*
G36*
X-88100Y-490640D02*
X-87048Y-490640D01*
X-85560Y-489152D01*
X-85560Y-487600D01*
X-88100Y-487600D01*
X-88100Y-490640D01*
G37*
G36*
X-192306Y-519056D02*
X-190195Y-519056D01*
X-188244Y-518248D01*
X-186752Y-516756D01*
X-185944Y-514806D01*
X-185944Y-512695D01*
X-186752Y-510744D01*
X-188290Y-509206D01*
X-188578Y-509017D01*
X-188863Y-508600D01*
X-188964Y-508105D01*
X-188964Y-499395D01*
X-188875Y-498928D01*
X-188599Y-498504D01*
X-188296Y-498300D01*
X-186752Y-496756D01*
X-185944Y-494806D01*
X-185944Y-492695D01*
X-186752Y-490744D01*
X-188244Y-489252D01*
X-190195Y-488444D01*
X-192306Y-488444D01*
X-194256Y-489252D01*
X-195748Y-490744D01*
X-196556Y-492695D01*
X-196556Y-494806D01*
X-195748Y-496756D01*
X-194210Y-498294D01*
X-193922Y-498483D01*
X-193637Y-498900D01*
X-193536Y-499395D01*
X-193536Y-508105D01*
X-193625Y-508572D01*
X-193901Y-508996D01*
X-194204Y-509201D01*
X-195748Y-510744D01*
X-196556Y-512695D01*
X-196556Y-514806D01*
X-195748Y-516756D01*
X-194256Y-518248D01*
X-192306Y-519056D01*
G37*
G36*
X13500Y-503340D02*
X14552Y-503340D01*
X16040Y-501852D01*
X16040Y-500300D01*
X13500Y-500300D01*
X13500Y-503340D01*
G37*
G36*
X-81056Y-551556D02*
X-78945Y-551556D01*
X-76994Y-550748D01*
X-75502Y-549256D01*
X-74694Y-547306D01*
X-74694Y-545195D01*
X-75502Y-543244D01*
X-76994Y-541752D01*
X-78945Y-540944D01*
X-81145Y-540944D01*
X-81404Y-541000D01*
X-81902Y-540915D01*
X-82328Y-540643D01*
X-82613Y-540226D01*
X-82714Y-539730D01*
X-82714Y-528145D01*
X-82625Y-527678D01*
X-82349Y-527254D01*
X-82046Y-527050D01*
X-80502Y-525506D01*
X-79694Y-523556D01*
X-79694Y-521445D01*
X-80502Y-519494D01*
X-81994Y-518002D01*
X-83945Y-517194D01*
X-86056Y-517194D01*
X-88006Y-518002D01*
X-89498Y-519494D01*
X-90385Y-521636D01*
X-90388Y-521650D01*
X-90397Y-521664D01*
X-90403Y-521678D01*
X-90405Y-521677D01*
X-90657Y-522078D01*
X-91071Y-522367D01*
X-91566Y-522471D01*
X-92062Y-522375D01*
X-93448Y-521801D01*
X-97052Y-521801D01*
X-100382Y-523180D01*
X-102930Y-525728D01*
X-104310Y-529058D01*
X-104310Y-532662D01*
X-102930Y-535992D01*
X-100382Y-538540D01*
X-97052Y-539920D01*
X-93448Y-539920D01*
X-90118Y-538540D01*
X-89454Y-537876D01*
X-89088Y-537621D01*
X-88596Y-537505D01*
X-88098Y-537590D01*
X-87672Y-537862D01*
X-87387Y-538279D01*
X-87286Y-538774D01*
X-87286Y-542197D01*
X-85608Y-543875D01*
X-85341Y-544268D01*
X-85236Y-544763D01*
X-85306Y-545122D01*
X-85306Y-547306D01*
X-84498Y-549256D01*
X-83006Y-550748D01*
X-81056Y-551556D01*
G37*
G36*
X116308Y-539920D02*
X119912Y-539920D01*
X123242Y-538540D01*
X125790Y-535992D01*
X127170Y-532662D01*
X127170Y-529058D01*
X125790Y-525728D01*
X123242Y-523180D01*
X119912Y-521801D01*
X116308Y-521801D01*
X112978Y-523180D01*
X110430Y-525728D01*
X109051Y-529058D01*
X109051Y-532662D01*
X110430Y-535992D01*
X112978Y-538540D01*
X116308Y-539920D01*
G37*
G36*
X10898Y-550080D02*
X14502Y-550080D01*
X17832Y-548700D01*
X20380Y-546152D01*
X20652Y-545497D01*
X20892Y-545121D01*
X21302Y-544826D01*
X21795Y-544713D01*
X22292Y-544802D01*
X22716Y-545078D01*
X22998Y-545497D01*
X23002Y-545506D01*
X24494Y-546998D01*
X26445Y-547806D01*
X28556Y-547806D01*
X30506Y-546998D01*
X31998Y-545506D01*
X32806Y-543556D01*
X32806Y-541445D01*
X31998Y-539494D01*
X30506Y-538002D01*
X28556Y-537194D01*
X27306Y-537194D01*
X26848Y-537109D01*
X26422Y-536836D01*
X26137Y-536419D01*
X26036Y-535924D01*
X26036Y-535645D01*
X26125Y-535178D01*
X26401Y-534754D01*
X26704Y-534550D01*
X28248Y-533006D01*
X29056Y-531056D01*
X29056Y-528945D01*
X28248Y-526994D01*
X26756Y-525502D01*
X24806Y-524694D01*
X22695Y-524694D01*
X20744Y-525502D01*
X19252Y-526994D01*
X18444Y-528945D01*
X18444Y-531055D01*
X18540Y-531286D01*
X18635Y-531722D01*
X18555Y-532221D01*
X18286Y-532649D01*
X17871Y-532938D01*
X17376Y-533042D01*
X16880Y-532946D01*
X14502Y-531961D01*
X10898Y-531961D01*
X7568Y-533340D01*
X5020Y-535888D01*
X3641Y-539218D01*
X3641Y-542822D01*
X5020Y-546152D01*
X7568Y-548700D01*
X10898Y-550080D01*
G37*
%LPD*%
G36*
X-254311Y-72613D02*
X-254806Y-72714D01*
X-270721Y-72714D01*
X-271178Y-72629D01*
X-271604Y-72356D01*
X-271820Y-72042D01*
X-283394Y-72042D01*
X-283394Y-61515D01*
X-285322Y-61515D01*
X-286810Y-63002D01*
X-286810Y-66892D01*
X-286888Y-67330D01*
X-287153Y-67761D01*
X-287566Y-68053D01*
X-288059Y-68161D01*
X-288556Y-68069D01*
X-288978Y-67790D01*
X-305559Y-51208D01*
X-305814Y-50842D01*
X-305930Y-50350D01*
X-305846Y-49852D01*
X-305573Y-49426D01*
X-305507Y-49381D01*
X-302360Y-46234D01*
X-302360Y-39500D01*
X-309400Y-39500D01*
X-309400Y-25726D01*
X-310220Y-26546D01*
X-310605Y-26810D01*
X-311098Y-26918D01*
X-311595Y-26825D01*
X-312017Y-26546D01*
X-312087Y-26476D01*
X-315213Y-26476D01*
X-316002Y-27265D01*
X-316386Y-27528D01*
X-316880Y-27637D01*
X-317377Y-27544D01*
X-317798Y-27265D01*
X-318587Y-26476D01*
X-321713Y-26476D01*
X-322502Y-27265D01*
X-322886Y-27528D01*
X-323380Y-27637D01*
X-323877Y-27544D01*
X-324298Y-27265D01*
X-325087Y-26476D01*
X-328213Y-26476D01*
X-329002Y-27265D01*
X-329386Y-27528D01*
X-329880Y-27637D01*
X-330377Y-27544D01*
X-330798Y-27265D01*
X-331587Y-26476D01*
X-334713Y-26476D01*
X-335502Y-27265D01*
X-335886Y-27528D01*
X-336380Y-27637D01*
X-336877Y-27544D01*
X-337298Y-27265D01*
X-338087Y-26476D01*
X-341213Y-26476D01*
X-342002Y-27265D01*
X-342386Y-27528D01*
X-342880Y-27637D01*
X-343377Y-27544D01*
X-343798Y-27265D01*
X-344587Y-26476D01*
X-347713Y-26476D01*
X-348502Y-27265D01*
X-348886Y-27528D01*
X-349380Y-27637D01*
X-349877Y-27544D01*
X-350298Y-27265D01*
X-351087Y-26476D01*
X-354213Y-26476D01*
X-355002Y-27265D01*
X-355386Y-27528D01*
X-355880Y-27637D01*
X-356377Y-27544D01*
X-356798Y-27265D01*
X-357587Y-26476D01*
X-360713Y-26476D01*
X-361502Y-27265D01*
X-361886Y-27528D01*
X-362380Y-27637D01*
X-362877Y-27544D01*
X-363298Y-27265D01*
X-364087Y-26476D01*
X-367213Y-26476D01*
X-368002Y-27265D01*
X-368386Y-27528D01*
X-368880Y-27637D01*
X-369377Y-27544D01*
X-369798Y-27265D01*
X-370587Y-26476D01*
X-373713Y-26476D01*
X-374502Y-27265D01*
X-374886Y-27528D01*
X-375380Y-27637D01*
X-375877Y-27544D01*
X-376298Y-27265D01*
X-377087Y-26476D01*
X-380253Y-26476D01*
X-380701Y-26394D01*
X-381129Y-26125D01*
X-381418Y-25711D01*
X-381523Y-25216D01*
X-381426Y-24720D01*
X-380944Y-23555D01*
X-380944Y-21445D01*
X-381752Y-19494D01*
X-383290Y-17956D01*
X-383578Y-17767D01*
X-383863Y-17350D01*
X-383964Y-16855D01*
X-383964Y1498D01*
X-383882Y1946D01*
X-383613Y2374D01*
X-383199Y2664D01*
X-382704Y2768D01*
X-382208Y2671D01*
X-381055Y2194D01*
X-378945Y2194D01*
X-376994Y3002D01*
X-375502Y4494D01*
X-374694Y6445D01*
X-374694Y8556D01*
X-375502Y10506D01*
X-377040Y12044D01*
X-377328Y12233D01*
X-377613Y12650D01*
X-377714Y13145D01*
X-377714Y16498D01*
X-377632Y16946D01*
X-377363Y17374D01*
X-376949Y17664D01*
X-376454Y17768D01*
X-375958Y17671D01*
X-374805Y17194D01*
X-372695Y17194D01*
X-370744Y18002D01*
X-369252Y19494D01*
X-368444Y21445D01*
X-368444Y23556D01*
X-368936Y24744D01*
X-369031Y25169D01*
X-368955Y25668D01*
X-368689Y26098D01*
X-368277Y26391D01*
X-367783Y26499D01*
X-367658Y26476D01*
X-364087Y26476D01*
X-363298Y27265D01*
X-362914Y27528D01*
X-362420Y27637D01*
X-361923Y27544D01*
X-361502Y27265D01*
X-360713Y26476D01*
X-357587Y26476D01*
X-356798Y27265D01*
X-356414Y27528D01*
X-355920Y27637D01*
X-355423Y27544D01*
X-355002Y27265D01*
X-354213Y26476D01*
X-351087Y26476D01*
X-350298Y27265D01*
X-349914Y27528D01*
X-349420Y27637D01*
X-348923Y27544D01*
X-348502Y27265D01*
X-347713Y26476D01*
X-344587Y26476D01*
X-343798Y27265D01*
X-343414Y27528D01*
X-342920Y27637D01*
X-342423Y27544D01*
X-342002Y27265D01*
X-341213Y26476D01*
X-338087Y26476D01*
X-337298Y27265D01*
X-336914Y27528D01*
X-336420Y27637D01*
X-335923Y27544D01*
X-335502Y27265D01*
X-334713Y26476D01*
X-331587Y26476D01*
X-330798Y27265D01*
X-330414Y27528D01*
X-329920Y27637D01*
X-329423Y27544D01*
X-329002Y27265D01*
X-328213Y26476D01*
X-325087Y26476D01*
X-325017Y26546D01*
X-324632Y26810D01*
X-324139Y26918D01*
X-323642Y26825D01*
X-323220Y26546D01*
X-322400Y25726D01*
X-322400Y49503D01*
X-322613Y49815D01*
X-322714Y50310D01*
X-322714Y116027D01*
X-322621Y116504D01*
X-322342Y116925D01*
X-315330Y123938D01*
X-314955Y124197D01*
X-314462Y124309D01*
X-313964Y124220D01*
X-313541Y123945D01*
X-313258Y123526D01*
X-312552Y121820D01*
X-309980Y119248D01*
X-306619Y117856D01*
X-302981Y117856D01*
X-299620Y119248D01*
X-297048Y121820D01*
X-295656Y125181D01*
X-295656Y128819D01*
X-297048Y132180D01*
X-299620Y134752D01*
X-302981Y136144D01*
X-306619Y136144D01*
X-309980Y134752D01*
X-310546Y134186D01*
X-310912Y133931D01*
X-311404Y133814D01*
X-311902Y133899D01*
X-312328Y134171D01*
X-312613Y134588D01*
X-312714Y135084D01*
X-312714Y302277D01*
X-312621Y302754D01*
X-312342Y303175D01*
X-298332Y317185D01*
X-297966Y317440D01*
X-297474Y317556D01*
X-296976Y317472D01*
X-296550Y317199D01*
X-296265Y316782D01*
X-296164Y316287D01*
X-296164Y315681D01*
X-294772Y312320D01*
X-292200Y309748D01*
X-288839Y308356D01*
X-269961Y308356D01*
X-266600Y309748D01*
X-264028Y312320D01*
X-262636Y315681D01*
X-262636Y319319D01*
X-264028Y322680D01*
X-266600Y325252D01*
X-269961Y326644D01*
X-285807Y326644D01*
X-286246Y326722D01*
X-286676Y326988D01*
X-286968Y327400D01*
X-287077Y327894D01*
X-286984Y328391D01*
X-286705Y328812D01*
X-285675Y329842D01*
X-285272Y330113D01*
X-284777Y330214D01*
X-254053Y330214D01*
X-252714Y331553D01*
X-252714Y345605D01*
X-252625Y346072D01*
X-252349Y346496D01*
X-252046Y346701D01*
X-250502Y348244D01*
X-249694Y350195D01*
X-249694Y352306D01*
X-250502Y354256D01*
X-251994Y355748D01*
X-253945Y356556D01*
X-256056Y356556D01*
X-258006Y355748D01*
X-259498Y354256D01*
X-260306Y352306D01*
X-260306Y350195D01*
X-259498Y348244D01*
X-257960Y346706D01*
X-257672Y346517D01*
X-257387Y346100D01*
X-257286Y345605D01*
X-257286Y336056D01*
X-257371Y335598D01*
X-257644Y335172D01*
X-258061Y334887D01*
X-258556Y334786D01*
X-263896Y334786D01*
X-264335Y334864D01*
X-264765Y335130D01*
X-265058Y335542D01*
X-265166Y336036D01*
X-265074Y336533D01*
X-264794Y336954D01*
X-264028Y337720D01*
X-262636Y341081D01*
X-262636Y344719D01*
X-264028Y348080D01*
X-266600Y350652D01*
X-269961Y352044D01*
X-284535Y352044D01*
X-285012Y352137D01*
X-285433Y352416D01*
X-293592Y360575D01*
X-293863Y360978D01*
X-293964Y361473D01*
X-293964Y393944D01*
X-293879Y394402D01*
X-293606Y394828D01*
X-293189Y395113D01*
X-292694Y395214D01*
X-237803Y395214D01*
X-236464Y396553D01*
X-236464Y488556D01*
X-236386Y488995D01*
X-236120Y489425D01*
X-235708Y489717D01*
X-235214Y489826D01*
X-234717Y489733D01*
X-234296Y489454D01*
X-233732Y488890D01*
X-230570Y487580D01*
X-230172Y487319D01*
X-229887Y486902D01*
X-229786Y486407D01*
X-229786Y484053D01*
X-205896Y460163D01*
X-205625Y459760D01*
X-205524Y459265D01*
X-205524Y451069D01*
X-204631Y450176D01*
X-203556Y450176D01*
X-203098Y450091D01*
X-202672Y449818D01*
X-202387Y449401D01*
X-202286Y448906D01*
X-202286Y205223D01*
X-202379Y204746D01*
X-202658Y204325D01*
X-206375Y200608D01*
X-206768Y200341D01*
X-207263Y200236D01*
X-207622Y200306D01*
X-209805Y200306D01*
X-210958Y199829D01*
X-211404Y199733D01*
X-211902Y199817D01*
X-212328Y200090D01*
X-212613Y200507D01*
X-212714Y201002D01*
X-212714Y243447D01*
X-262264Y292997D01*
X-262535Y293400D01*
X-262636Y293895D01*
X-262636Y293919D01*
X-264028Y297280D01*
X-266600Y299852D01*
X-269961Y301244D01*
X-288839Y301244D01*
X-292200Y299852D01*
X-294772Y297280D01*
X-296164Y293919D01*
X-296164Y290281D01*
X-294772Y286920D01*
X-292200Y284348D01*
X-288839Y282956D01*
X-269961Y282956D01*
X-266600Y284348D01*
X-264239Y286710D01*
X-263855Y286973D01*
X-263361Y287082D01*
X-262864Y286989D01*
X-262443Y286710D01*
X-228265Y252532D01*
X-228010Y252166D01*
X-227894Y251674D01*
X-227978Y251176D01*
X-228251Y250750D01*
X-228668Y250465D01*
X-229163Y250364D01*
X-230403Y250364D01*
X-233734Y248984D01*
X-236284Y246434D01*
X-237664Y243103D01*
X-237664Y239497D01*
X-236284Y236166D01*
X-233734Y233616D01*
X-230403Y232236D01*
X-226797Y232236D01*
X-223466Y233616D01*
X-220916Y236166D01*
X-219729Y239030D01*
X-219496Y239398D01*
X-219088Y239697D01*
X-218596Y239814D01*
X-218098Y239729D01*
X-217672Y239457D01*
X-217387Y239040D01*
X-217286Y238544D01*
X-217286Y218656D01*
X-217361Y218226D01*
X-217623Y217794D01*
X-218033Y217498D01*
X-218526Y217386D01*
X-219023Y217475D01*
X-219447Y217751D01*
X-219729Y218170D01*
X-220916Y221034D01*
X-223466Y223584D01*
X-226797Y224964D01*
X-230403Y224964D01*
X-233734Y223584D01*
X-236284Y221034D01*
X-237664Y217703D01*
X-237664Y214097D01*
X-236284Y210766D01*
X-233734Y208216D01*
X-230403Y206836D01*
X-226797Y206836D01*
X-223466Y208216D01*
X-220916Y210766D01*
X-219729Y213630D01*
X-219496Y213998D01*
X-219088Y214297D01*
X-218596Y214414D01*
X-218098Y214329D01*
X-217672Y214057D01*
X-217387Y213640D01*
X-217286Y213144D01*
X-217286Y195911D01*
X-217361Y195481D01*
X-217623Y195049D01*
X-218033Y194753D01*
X-218526Y194641D01*
X-219023Y194730D01*
X-219447Y195005D01*
X-219729Y195425D01*
X-220055Y196210D01*
X-221060Y197215D01*
X-221060Y183785D01*
X-220055Y184790D01*
X-219729Y185575D01*
X-219496Y185943D01*
X-219088Y186242D01*
X-218596Y186359D01*
X-218098Y186274D01*
X-217672Y186002D01*
X-217387Y185585D01*
X-217286Y185089D01*
X-217286Y167856D01*
X-217361Y167426D01*
X-217623Y166994D01*
X-218033Y166698D01*
X-218526Y166586D01*
X-219023Y166675D01*
X-219447Y166951D01*
X-219729Y167370D01*
X-220916Y170234D01*
X-223466Y172784D01*
X-226797Y174164D01*
X-230403Y174164D01*
X-233734Y172784D01*
X-236284Y170234D01*
X-237664Y166903D01*
X-237664Y163297D01*
X-236824Y161268D01*
X-236727Y160802D01*
X-236820Y160305D01*
X-237099Y159884D01*
X-259798Y137185D01*
X-259868Y136804D01*
X-260137Y136376D01*
X-260551Y136087D01*
X-261046Y135982D01*
X-261542Y136079D01*
X-262695Y136556D01*
X-263424Y136556D01*
X-263882Y136641D01*
X-264308Y136914D01*
X-264593Y137331D01*
X-264694Y137826D01*
X-264694Y139806D01*
X-265502Y141756D01*
X-266994Y143248D01*
X-268945Y144056D01*
X-271056Y144056D01*
X-273006Y143248D01*
X-274498Y141756D01*
X-275306Y139806D01*
X-275306Y137695D01*
X-274498Y135744D01*
X-272960Y134206D01*
X-272672Y134017D01*
X-272387Y133600D01*
X-272286Y133105D01*
X-272286Y112723D01*
X-272379Y112246D01*
X-272658Y111825D01*
X-314786Y69697D01*
X-314786Y48977D01*
X-314879Y48501D01*
X-315158Y48079D01*
X-315284Y47954D01*
X-315668Y47690D01*
X-316161Y47582D01*
X-316658Y47675D01*
X-317080Y47954D01*
X-317900Y48774D01*
X-317900Y25726D01*
X-317080Y26546D01*
X-316696Y26810D01*
X-316202Y26918D01*
X-315705Y26825D01*
X-315284Y26546D01*
X-315213Y26476D01*
X-312087Y26476D01*
X-311298Y27265D01*
X-310914Y27528D01*
X-310420Y27637D01*
X-309923Y27544D01*
X-309502Y27265D01*
X-308713Y26476D01*
X-306073Y26476D01*
X-305634Y26398D01*
X-305204Y26132D01*
X-304912Y25720D01*
X-304803Y25226D01*
X-304896Y24729D01*
X-305175Y24308D01*
X-310125Y19358D01*
X-310518Y19091D01*
X-311013Y18986D01*
X-311372Y19056D01*
X-313556Y19056D01*
X-315506Y18248D01*
X-316998Y16756D01*
X-317806Y14806D01*
X-317806Y12695D01*
X-316998Y10744D01*
X-315506Y9252D01*
X-313556Y8444D01*
X-311445Y8444D01*
X-309494Y9252D01*
X-307896Y10850D01*
X-307822Y10965D01*
X-307410Y11257D01*
X-306916Y11366D01*
X-306419Y11273D01*
X-305998Y10994D01*
X-305506Y10502D01*
X-303556Y9694D01*
X-301445Y9694D01*
X-299494Y10502D01*
X-298002Y11994D01*
X-297194Y13945D01*
X-297194Y16120D01*
X-297264Y16457D01*
X-297171Y16954D01*
X-296892Y17375D01*
X-258724Y55543D01*
X-258358Y55798D01*
X-257866Y55914D01*
X-257368Y55830D01*
X-256942Y55557D01*
X-256657Y55140D01*
X-256556Y54645D01*
X-256556Y53945D01*
X-255748Y51994D01*
X-254210Y50456D01*
X-253922Y50267D01*
X-253637Y49850D01*
X-253536Y49355D01*
X-253536Y-71444D01*
X-253621Y-71902D01*
X-253894Y-72328D01*
X-254311Y-72613D01*
G37*
%LPC*%
G36*
X-293768Y274320D02*
X-265032Y274320D01*
X-266025Y275313D01*
X-269759Y276860D01*
X-289041Y276860D01*
X-292775Y275313D01*
X-293768Y274320D01*
G37*
G36*
X-271780Y256540D02*
X-269759Y256540D01*
X-266025Y258087D01*
X-265032Y259080D01*
X-271780Y259080D01*
X-271780Y256540D01*
G37*
G36*
X-289041Y256540D02*
X-287020Y256540D01*
X-287020Y259080D01*
X-293768Y259080D01*
X-292775Y258087D01*
X-289041Y256540D01*
G37*
G36*
X-235315Y198040D02*
X-221885Y198040D01*
X-222890Y199045D01*
X-226595Y200580D01*
X-230605Y200580D01*
X-234310Y199045D01*
X-235315Y198040D01*
G37*
G36*
X-230605Y180420D02*
X-226595Y180420D01*
X-222890Y181955D01*
X-221885Y182960D01*
X-235315Y182960D01*
X-234310Y181955D01*
X-230605Y180420D01*
G37*
G36*
X-304900Y-35000D02*
X-302360Y-35000D01*
X-302360Y-28266D01*
X-304900Y-25726D01*
X-304900Y-35000D01*
G37*
G36*
X-275407Y-64055D02*
X-271991Y-64055D01*
X-271991Y-63002D01*
X-273478Y-61515D01*
X-275407Y-61515D01*
X-275407Y-64055D01*
G37*
%LPD*%
G36*
X23220Y16683D02*
X22726Y16574D01*
X22229Y16667D01*
X21808Y16946D01*
X21756Y16998D01*
X19806Y17806D01*
X17695Y17806D01*
X16542Y17329D01*
X16096Y17233D01*
X15598Y17317D01*
X15172Y17590D01*
X14887Y18007D01*
X14786Y18502D01*
X14786Y180618D01*
X14875Y181085D01*
X15151Y181509D01*
X15570Y181791D01*
X17880Y182748D01*
X19426Y184295D01*
X19810Y184558D01*
X20304Y184667D01*
X20801Y184574D01*
X21222Y184295D01*
X37342Y168175D01*
X37613Y167772D01*
X37714Y167277D01*
X37714Y99989D01*
X37636Y99550D01*
X37370Y99120D01*
X36958Y98828D01*
X36464Y98719D01*
X35967Y98812D01*
X35949Y98824D01*
X32687Y98824D01*
X32616Y98754D01*
X32232Y98490D01*
X31739Y98382D01*
X31242Y98475D01*
X30820Y98754D01*
X30000Y99574D01*
X30000Y75135D01*
X29433Y75135D01*
X29460Y75010D01*
X29367Y74513D01*
X29088Y74092D01*
X28002Y73006D01*
X27194Y71056D01*
X27194Y68945D01*
X28002Y66994D01*
X29494Y65502D01*
X31445Y64694D01*
X33556Y64694D01*
X35506Y65502D01*
X36998Y66994D01*
X37806Y68945D01*
X37806Y71056D01*
X36998Y73006D01*
X35460Y74544D01*
X35172Y74733D01*
X34887Y75150D01*
X34786Y75645D01*
X34786Y76006D01*
X34871Y76464D01*
X35144Y76890D01*
X35561Y77175D01*
X35751Y77214D01*
X36602Y78065D01*
X36986Y78328D01*
X37480Y78437D01*
X37977Y78344D01*
X38398Y78065D01*
X39187Y77276D01*
X42313Y77276D01*
X43102Y78065D01*
X43486Y78328D01*
X43980Y78437D01*
X44477Y78344D01*
X44898Y78065D01*
X45687Y77276D01*
X48813Y77276D01*
X49602Y78065D01*
X49986Y78328D01*
X50480Y78437D01*
X50977Y78344D01*
X51398Y78065D01*
X52187Y77276D01*
X55313Y77276D01*
X56102Y78065D01*
X56486Y78328D01*
X56980Y78437D01*
X57477Y78344D01*
X57898Y78065D01*
X58687Y77276D01*
X61813Y77276D01*
X62602Y78065D01*
X62986Y78328D01*
X63480Y78437D01*
X63977Y78344D01*
X64398Y78065D01*
X65187Y77276D01*
X68313Y77276D01*
X69102Y78065D01*
X69486Y78328D01*
X69980Y78437D01*
X70477Y78344D01*
X70898Y78065D01*
X71687Y77276D01*
X74813Y77276D01*
X75602Y78065D01*
X75986Y78328D01*
X76480Y78437D01*
X76977Y78344D01*
X77398Y78065D01*
X78187Y77276D01*
X81313Y77276D01*
X82102Y78065D01*
X82486Y78328D01*
X82980Y78437D01*
X83477Y78344D01*
X83898Y78065D01*
X84687Y77276D01*
X87813Y77276D01*
X88602Y78065D01*
X88986Y78328D01*
X89480Y78437D01*
X89977Y78344D01*
X90398Y78065D01*
X91092Y77371D01*
X91355Y76987D01*
X91464Y76493D01*
X91371Y75996D01*
X91092Y75575D01*
X49875Y34358D01*
X49482Y34091D01*
X48987Y33986D01*
X48628Y34056D01*
X46445Y34056D01*
X44494Y33248D01*
X43002Y31756D01*
X42194Y29806D01*
X42194Y27695D01*
X42442Y27096D01*
X42538Y26650D01*
X42453Y26152D01*
X42181Y25726D01*
X41764Y25441D01*
X41269Y25340D01*
X38766Y25340D01*
X37680Y24254D01*
X37296Y23990D01*
X36802Y23882D01*
X36305Y23975D01*
X35884Y24254D01*
X35813Y24324D01*
X32687Y24324D01*
X31898Y23535D01*
X31514Y23272D01*
X31020Y23163D01*
X30523Y23256D01*
X30102Y23535D01*
X29313Y24324D01*
X26187Y24324D01*
X23976Y22113D01*
X23976Y17844D01*
X23898Y17405D01*
X23632Y16975D01*
X23220Y16683D01*
G37*
%LPC*%
G36*
X22960Y90300D02*
X25500Y90300D01*
X25500Y99574D01*
X22960Y97034D01*
X22960Y90300D01*
G37*
G36*
X22960Y79066D02*
X25500Y76526D01*
X25500Y85800D01*
X22960Y85800D01*
X22960Y79066D01*
G37*
%LPD*%
G36*
X146014Y-139172D02*
X145548Y-139268D01*
X145051Y-139176D01*
X144629Y-138897D01*
X127658Y-121925D01*
X127387Y-121522D01*
X127286Y-121027D01*
X127286Y-21380D01*
X127371Y-20922D01*
X127555Y-20635D01*
X127555Y-4761D01*
X127387Y-4516D01*
X127286Y-4021D01*
X127286Y171272D01*
X127361Y171701D01*
X127623Y172133D01*
X128033Y172429D01*
X128526Y172541D01*
X129023Y172453D01*
X129447Y172177D01*
X129729Y171758D01*
X129930Y171272D01*
X133172Y168030D01*
X137408Y166276D01*
X189898Y166276D01*
X190356Y166191D01*
X190782Y165918D01*
X191067Y165501D01*
X191168Y165006D01*
X191168Y106523D01*
X192922Y102287D01*
X193684Y101526D01*
X193955Y101123D01*
X194056Y100628D01*
X194056Y98868D01*
X195448Y95507D01*
X198020Y92935D01*
X201381Y91543D01*
X205019Y91543D01*
X208380Y92935D01*
X210952Y95507D01*
X212344Y98868D01*
X212344Y100628D01*
X212437Y101104D01*
X212716Y101526D01*
X212970Y101779D01*
X214727Y106021D01*
X214967Y106397D01*
X215377Y106692D01*
X215870Y106805D01*
X216367Y106716D01*
X216791Y106440D01*
X217073Y106021D01*
X218830Y101779D01*
X219084Y101526D01*
X219355Y101123D01*
X219456Y100628D01*
X219456Y98868D01*
X220848Y95507D01*
X223420Y92935D01*
X226781Y91543D01*
X228506Y91543D01*
X228964Y91458D01*
X229390Y91185D01*
X229675Y90768D01*
X229776Y90273D01*
X229776Y40894D01*
X229691Y40436D01*
X229418Y40010D01*
X229001Y39725D01*
X228506Y39624D01*
X190554Y39624D01*
X190244Y39598D01*
X189995Y39533D01*
X189761Y39428D01*
X189532Y39273D01*
X189398Y39153D01*
X177903Y27658D01*
X177500Y27387D01*
X177005Y27286D01*
X171553Y27286D01*
X150214Y5947D01*
X150214Y-5037D01*
X150129Y-5494D01*
X149856Y-5920D01*
X149439Y-6206D01*
X148944Y-6307D01*
X143227Y-6307D01*
X142335Y-7199D01*
X142335Y-18201D01*
X143227Y-19094D01*
X152306Y-19094D01*
X152764Y-19179D01*
X153190Y-19451D01*
X153475Y-19868D01*
X153576Y-20364D01*
X153576Y-53092D01*
X155330Y-57328D01*
X158007Y-60004D01*
X158258Y-60361D01*
X158378Y-60852D01*
X158297Y-61351D01*
X158028Y-61779D01*
X157614Y-62068D01*
X157119Y-62172D01*
X156623Y-62076D01*
X154692Y-61276D01*
X150108Y-61276D01*
X145872Y-63030D01*
X142630Y-66272D01*
X140876Y-70508D01*
X140876Y-75092D01*
X142630Y-79328D01*
X145872Y-82570D01*
X150114Y-84327D01*
X150490Y-84567D01*
X150785Y-84977D01*
X150898Y-85470D01*
X150809Y-85967D01*
X150533Y-86391D01*
X150114Y-86673D01*
X145872Y-88430D01*
X142630Y-91672D01*
X140876Y-95908D01*
X140876Y-100492D01*
X142630Y-104728D01*
X145872Y-107970D01*
X150114Y-109727D01*
X150490Y-109967D01*
X150785Y-110377D01*
X150898Y-110870D01*
X150809Y-111367D01*
X150533Y-111791D01*
X150114Y-112073D01*
X145872Y-113830D01*
X142630Y-117072D01*
X140876Y-121308D01*
X140876Y-125892D01*
X142630Y-130128D01*
X145872Y-133370D01*
X150114Y-135127D01*
X150490Y-135367D01*
X150785Y-135777D01*
X150898Y-136270D01*
X150809Y-136767D01*
X150533Y-137191D01*
X150114Y-137473D01*
X146014Y-139172D01*
G37*
%LPC*%
G36*
X135542Y-8707D02*
X138082Y-8707D01*
X138082Y-6778D01*
X136594Y-5291D01*
X135542Y-5291D01*
X135542Y-8707D01*
G37*
G36*
X135542Y-20110D02*
X136594Y-20110D01*
X138082Y-18622D01*
X138082Y-16694D01*
X135542Y-16694D01*
X135542Y-20110D01*
G37*
%LPD*%
G36*
X-253412Y117432D02*
X-253904Y117316D01*
X-254402Y117400D01*
X-254828Y117673D01*
X-255113Y118090D01*
X-255214Y118585D01*
X-255214Y134777D01*
X-255121Y135254D01*
X-254842Y135675D01*
X-233887Y156630D01*
X-233493Y156898D01*
X-232999Y157002D01*
X-232503Y156906D01*
X-230403Y156036D01*
X-226797Y156036D01*
X-223466Y157416D01*
X-220916Y159966D01*
X-219729Y162830D01*
X-219496Y163198D01*
X-219088Y163497D01*
X-218596Y163614D01*
X-218098Y163529D01*
X-217672Y163257D01*
X-217387Y162840D01*
X-217286Y162344D01*
X-217286Y142456D01*
X-217361Y142026D01*
X-217623Y141594D01*
X-218033Y141298D01*
X-218526Y141186D01*
X-219023Y141275D01*
X-219447Y141551D01*
X-219729Y141970D01*
X-220916Y144834D01*
X-223466Y147384D01*
X-226797Y148764D01*
X-230403Y148764D01*
X-233734Y147384D01*
X-236284Y144834D01*
X-237664Y141503D01*
X-237664Y137897D01*
X-236575Y135267D01*
X-236478Y134801D01*
X-236571Y134304D01*
X-236850Y133883D01*
X-253046Y117687D01*
X-253412Y117432D01*
G37*
G36*
X-247162Y98682D02*
X-247654Y98566D01*
X-248152Y98650D01*
X-248578Y98923D01*
X-248863Y99340D01*
X-248964Y99835D01*
X-248964Y114777D01*
X-248871Y115254D01*
X-248592Y115675D01*
X-233286Y130981D01*
X-232892Y131249D01*
X-232398Y131353D01*
X-231902Y131257D01*
X-230403Y130636D01*
X-226797Y130636D01*
X-223466Y132016D01*
X-220916Y134566D01*
X-219729Y137430D01*
X-219496Y137798D01*
X-219088Y138097D01*
X-218596Y138214D01*
X-218098Y138129D01*
X-217672Y137857D01*
X-217387Y137440D01*
X-217286Y136944D01*
X-217286Y117056D01*
X-217361Y116626D01*
X-217623Y116194D01*
X-218033Y115898D01*
X-218526Y115786D01*
X-219023Y115875D01*
X-219447Y116151D01*
X-219729Y116570D01*
X-220916Y119434D01*
X-223466Y121984D01*
X-226797Y123364D01*
X-230403Y123364D01*
X-233734Y121984D01*
X-236284Y119434D01*
X-237664Y116103D01*
X-237664Y112497D01*
X-236692Y110150D01*
X-236595Y109684D01*
X-236688Y109187D01*
X-236967Y108766D01*
X-246796Y98937D01*
X-247162Y98682D01*
G37*
G36*
X-201811Y-198863D02*
X-202306Y-198964D01*
X-219743Y-198964D01*
X-220182Y-198886D01*
X-220612Y-198620D01*
X-220904Y-198208D01*
X-220941Y-198040D01*
X-236140Y-198040D01*
X-236140Y-183785D01*
X-237145Y-184790D01*
X-238680Y-188495D01*
X-238680Y-188771D01*
X-238758Y-189210D01*
X-239024Y-189640D01*
X-239436Y-189932D01*
X-239930Y-190041D01*
X-240427Y-189948D01*
X-240848Y-189669D01*
X-316092Y-114425D01*
X-316363Y-114022D01*
X-316464Y-113527D01*
X-316464Y-49835D01*
X-316386Y-49396D01*
X-316120Y-48966D01*
X-315708Y-48674D01*
X-315214Y-48565D01*
X-314717Y-48658D01*
X-314296Y-48937D01*
X-285690Y-77543D01*
X-285549Y-77630D01*
X-285257Y-78042D01*
X-285148Y-78536D01*
X-285241Y-79033D01*
X-285520Y-79454D01*
X-285794Y-79727D01*
X-285794Y-88977D01*
X-284901Y-89870D01*
X-282306Y-89870D01*
X-281848Y-89955D01*
X-281422Y-90227D01*
X-281137Y-90644D01*
X-281036Y-91140D01*
X-281036Y-99361D01*
X-281121Y-99818D01*
X-281394Y-100244D01*
X-281811Y-100530D01*
X-282306Y-100631D01*
X-284901Y-100631D01*
X-285794Y-101523D01*
X-285794Y-110773D01*
X-284901Y-111666D01*
X-273899Y-111666D01*
X-273007Y-110773D01*
X-273007Y-101523D01*
X-273899Y-100631D01*
X-275194Y-100631D01*
X-275652Y-100545D01*
X-276078Y-100273D01*
X-276363Y-99856D01*
X-276464Y-99361D01*
X-276464Y-93556D01*
X-276379Y-93098D01*
X-276106Y-92672D01*
X-275689Y-92387D01*
X-275194Y-92286D01*
X-237857Y-92286D01*
X-237390Y-92375D01*
X-236966Y-92651D01*
X-236684Y-93070D01*
X-236284Y-94034D01*
X-233734Y-96584D01*
X-230403Y-97964D01*
X-226797Y-97964D01*
X-223466Y-96584D01*
X-220916Y-94034D01*
X-219536Y-90703D01*
X-219536Y-87097D01*
X-220916Y-83766D01*
X-223466Y-81216D01*
X-226797Y-79836D01*
X-230403Y-79836D01*
X-233734Y-81216D01*
X-236284Y-83766D01*
X-237595Y-86930D01*
X-237856Y-87328D01*
X-238273Y-87613D01*
X-238768Y-87714D01*
X-271737Y-87714D01*
X-272194Y-87629D01*
X-272620Y-87356D01*
X-272906Y-86939D01*
X-273007Y-86444D01*
X-273007Y-79727D01*
X-273280Y-79454D01*
X-273535Y-79088D01*
X-273651Y-78596D01*
X-273566Y-78098D01*
X-273294Y-77672D01*
X-272877Y-77387D01*
X-272382Y-77286D01*
X-250303Y-77286D01*
X-248964Y-75947D01*
X-248964Y49355D01*
X-248875Y49822D01*
X-248599Y50246D01*
X-248296Y50451D01*
X-246752Y51994D01*
X-245944Y53945D01*
X-245944Y56056D01*
X-246752Y58006D01*
X-248244Y59498D01*
X-250195Y60306D01*
X-250895Y60306D01*
X-251334Y60384D01*
X-251764Y60650D01*
X-252056Y61062D01*
X-252165Y61556D01*
X-252072Y62053D01*
X-251793Y62474D01*
X-233851Y80416D01*
X-233458Y80683D01*
X-232963Y80788D01*
X-232467Y80691D01*
X-230403Y79836D01*
X-226797Y79836D01*
X-223466Y81216D01*
X-220916Y83766D01*
X-219536Y87097D01*
X-219536Y90703D01*
X-220916Y94034D01*
X-223466Y96584D01*
X-226797Y97964D01*
X-230403Y97964D01*
X-233734Y96584D01*
X-236284Y94034D01*
X-237664Y90703D01*
X-237664Y87097D01*
X-236809Y85033D01*
X-236712Y84567D01*
X-236805Y84070D01*
X-237084Y83649D01*
X-243046Y77687D01*
X-243412Y77432D01*
X-243904Y77316D01*
X-244402Y77400D01*
X-244828Y77673D01*
X-245113Y78090D01*
X-245214Y78585D01*
X-245214Y93527D01*
X-245121Y94004D01*
X-244842Y94425D01*
X-233569Y105699D01*
X-233175Y105966D01*
X-232681Y106071D01*
X-232184Y105974D01*
X-230403Y105236D01*
X-226797Y105236D01*
X-223466Y106616D01*
X-220916Y109166D01*
X-219729Y112030D01*
X-219496Y112398D01*
X-219088Y112697D01*
X-218596Y112814D01*
X-218098Y112729D01*
X-217672Y112457D01*
X-217387Y112040D01*
X-217286Y111544D01*
X-217286Y94053D01*
X-200254Y77021D01*
X-199995Y76646D01*
X-199882Y76153D01*
X-199971Y75656D01*
X-200247Y75232D01*
X-200666Y74950D01*
X-201756Y74498D01*
X-203248Y73006D01*
X-204056Y71056D01*
X-204056Y68945D01*
X-203248Y66994D01*
X-201710Y65456D01*
X-201422Y65267D01*
X-201137Y64850D01*
X-201036Y64355D01*
X-201036Y-197694D01*
X-201121Y-198152D01*
X-201394Y-198578D01*
X-201811Y-198863D01*
G37*
%LPC*%
G36*
X-235315Y71040D02*
X-221885Y71040D01*
X-222890Y72045D01*
X-226595Y73580D01*
X-230605Y73580D01*
X-234310Y72045D01*
X-235315Y71040D01*
G37*
G36*
X-230605Y53420D02*
X-226595Y53420D01*
X-222890Y54955D01*
X-221885Y55960D01*
X-235315Y55960D01*
X-234310Y54955D01*
X-230605Y53420D01*
G37*
G36*
X-230403Y29036D02*
X-226797Y29036D01*
X-223466Y30416D01*
X-220916Y32966D01*
X-219536Y36297D01*
X-219536Y39903D01*
X-220916Y43234D01*
X-223466Y45784D01*
X-226797Y47164D01*
X-230403Y47164D01*
X-233734Y45784D01*
X-236284Y43234D01*
X-237664Y39903D01*
X-237664Y36297D01*
X-236284Y32966D01*
X-233734Y30416D01*
X-230403Y29036D01*
G37*
G36*
X-230403Y3636D02*
X-226797Y3636D01*
X-223466Y5016D01*
X-220916Y7566D01*
X-219536Y10897D01*
X-219536Y14503D01*
X-220916Y17834D01*
X-223466Y20384D01*
X-226797Y21764D01*
X-230403Y21764D01*
X-233734Y20384D01*
X-236284Y17834D01*
X-237664Y14503D01*
X-237664Y10897D01*
X-236284Y7566D01*
X-233734Y5016D01*
X-230403Y3636D01*
G37*
G36*
X-230403Y-21764D02*
X-226797Y-21764D01*
X-223466Y-20384D01*
X-220916Y-17834D01*
X-219536Y-14503D01*
X-219536Y-10897D01*
X-220916Y-7566D01*
X-223466Y-5016D01*
X-226797Y-3636D01*
X-230403Y-3636D01*
X-233734Y-5016D01*
X-236284Y-7566D01*
X-237664Y-10897D01*
X-237664Y-14503D01*
X-236284Y-17834D01*
X-233734Y-20384D01*
X-230403Y-21764D01*
G37*
G36*
X-230403Y-47164D02*
X-226797Y-47164D01*
X-223466Y-45784D01*
X-220916Y-43234D01*
X-219536Y-39903D01*
X-219536Y-36297D01*
X-220916Y-32966D01*
X-223466Y-30416D01*
X-226797Y-29036D01*
X-230403Y-29036D01*
X-233734Y-30416D01*
X-236284Y-32966D01*
X-237664Y-36297D01*
X-237664Y-39903D01*
X-236284Y-43234D01*
X-233734Y-45784D01*
X-230403Y-47164D01*
G37*
G36*
X-235315Y-55960D02*
X-221885Y-55960D01*
X-222890Y-54955D01*
X-226595Y-53420D01*
X-230605Y-53420D01*
X-234310Y-54955D01*
X-235315Y-55960D01*
G37*
G36*
X-230605Y-73580D02*
X-226595Y-73580D01*
X-222890Y-72045D01*
X-221885Y-71040D01*
X-235315Y-71040D01*
X-234310Y-72045D01*
X-230605Y-73580D01*
G37*
G36*
X-230403Y-123364D02*
X-226797Y-123364D01*
X-223466Y-121984D01*
X-220916Y-119434D01*
X-219536Y-116103D01*
X-219536Y-112497D01*
X-220916Y-109166D01*
X-223466Y-106616D01*
X-226797Y-105236D01*
X-230403Y-105236D01*
X-233734Y-106616D01*
X-236284Y-109166D01*
X-237664Y-112497D01*
X-237664Y-116103D01*
X-236284Y-119434D01*
X-233734Y-121984D01*
X-230403Y-123364D01*
G37*
G36*
X-269806Y-134056D02*
X-267695Y-134056D01*
X-265744Y-133248D01*
X-264252Y-131756D01*
X-263444Y-129806D01*
X-263444Y-127695D01*
X-264252Y-125744D01*
X-265744Y-124252D01*
X-267695Y-123444D01*
X-269805Y-123444D01*
X-271251Y-124043D01*
X-271696Y-124139D01*
X-272194Y-124054D01*
X-272620Y-123781D01*
X-272906Y-123365D01*
X-273007Y-122869D01*
X-273007Y-117827D01*
X-273899Y-116935D01*
X-284901Y-116935D01*
X-285794Y-117827D01*
X-285794Y-127077D01*
X-284901Y-127970D01*
X-282306Y-127970D01*
X-281848Y-128055D01*
X-281422Y-128327D01*
X-281137Y-128744D01*
X-281036Y-129240D01*
X-281036Y-129697D01*
X-279697Y-131036D01*
X-274395Y-131036D01*
X-273928Y-131125D01*
X-273504Y-131401D01*
X-273300Y-131704D01*
X-271756Y-133248D01*
X-269806Y-134056D01*
G37*
G36*
X-230403Y-148764D02*
X-226797Y-148764D01*
X-223466Y-147384D01*
X-220916Y-144834D01*
X-219536Y-141503D01*
X-219536Y-137897D01*
X-220916Y-134566D01*
X-223466Y-132016D01*
X-226797Y-130636D01*
X-230403Y-130636D01*
X-233734Y-132016D01*
X-236284Y-134566D01*
X-237664Y-137897D01*
X-237664Y-141503D01*
X-236284Y-144834D01*
X-233734Y-147384D01*
X-230403Y-148764D01*
G37*
G36*
X-230403Y-174164D02*
X-226797Y-174164D01*
X-223466Y-172784D01*
X-220916Y-170234D01*
X-219536Y-166903D01*
X-219536Y-163297D01*
X-220916Y-159966D01*
X-223466Y-157416D01*
X-226797Y-156036D01*
X-230403Y-156036D01*
X-233734Y-157416D01*
X-236284Y-159966D01*
X-237664Y-163297D01*
X-237664Y-166903D01*
X-236284Y-170234D01*
X-233734Y-172784D01*
X-230403Y-174164D01*
G37*
G36*
X-235315Y-182960D02*
X-221885Y-182960D01*
X-222890Y-181955D01*
X-226595Y-180420D01*
X-230605Y-180420D01*
X-234310Y-181955D01*
X-235315Y-182960D01*
G37*
%LPD*%
G36*
X45708Y-91326D02*
X45214Y-91435D01*
X44717Y-91342D01*
X44296Y-91063D01*
X15158Y-61925D01*
X14887Y-61522D01*
X14786Y-61027D01*
X14786Y6498D01*
X14868Y6946D01*
X15137Y7374D01*
X15551Y7664D01*
X16046Y7768D01*
X16542Y7671D01*
X17695Y7194D01*
X19806Y7194D01*
X21756Y8002D01*
X21808Y8054D01*
X22174Y8309D01*
X22666Y8425D01*
X23164Y8341D01*
X23590Y8068D01*
X23875Y7651D01*
X23976Y7156D01*
X23976Y4987D01*
X26187Y2776D01*
X26524Y2776D01*
X26972Y2694D01*
X27400Y2425D01*
X27689Y2011D01*
X27794Y1516D01*
X27697Y1020D01*
X27194Y-195D01*
X27194Y-2306D01*
X28002Y-4256D01*
X29494Y-5748D01*
X31445Y-6556D01*
X33556Y-6556D01*
X35506Y-5748D01*
X36998Y-4256D01*
X37806Y-2306D01*
X37806Y-195D01*
X37724Y4D01*
X37628Y450D01*
X37712Y948D01*
X37985Y1374D01*
X38402Y1659D01*
X38500Y1679D01*
X38500Y15800D01*
X43000Y15800D01*
X43000Y2026D01*
X43820Y2846D01*
X44205Y3110D01*
X44698Y3218D01*
X45195Y3125D01*
X45617Y2846D01*
X45986Y2477D01*
X46078Y2418D01*
X46363Y2001D01*
X46464Y1506D01*
X46464Y-90165D01*
X46386Y-90604D01*
X46120Y-91034D01*
X45708Y-91326D01*
G37*
G36*
X324088Y-436318D02*
X323596Y-436434D01*
X323098Y-436350D01*
X322672Y-436077D01*
X322387Y-435660D01*
X322286Y-435165D01*
X322286Y-392252D01*
X322368Y-391804D01*
X322637Y-391376D01*
X323051Y-391087D01*
X323546Y-390982D01*
X324042Y-391079D01*
X325195Y-391556D01*
X327306Y-391556D01*
X329256Y-390748D01*
X330748Y-389256D01*
X331556Y-387306D01*
X331556Y-385195D01*
X330748Y-383244D01*
X329210Y-381706D01*
X328922Y-381517D01*
X328637Y-381100D01*
X328536Y-380605D01*
X328536Y-352210D01*
X328621Y-351752D01*
X328894Y-351326D01*
X329311Y-351041D01*
X329400Y-351022D01*
X329400Y-334860D01*
X328348Y-334860D01*
X326860Y-336348D01*
X326860Y-340561D01*
X326782Y-341000D01*
X326516Y-341430D01*
X326104Y-341722D01*
X325610Y-341831D01*
X325113Y-341738D01*
X324692Y-341459D01*
X291408Y-308175D01*
X291137Y-307772D01*
X291036Y-307277D01*
X291036Y-296257D01*
X291114Y-295818D01*
X291380Y-295388D01*
X291792Y-295096D01*
X292286Y-294987D01*
X292783Y-295080D01*
X293204Y-295359D01*
X303684Y-305840D01*
X303922Y-306040D01*
X304143Y-306170D01*
X304384Y-306261D01*
X304655Y-306314D01*
X304834Y-306324D01*
X355546Y-306324D01*
X355856Y-306298D01*
X356105Y-306233D01*
X356339Y-306128D01*
X356568Y-305973D01*
X356702Y-305853D01*
X369340Y-293216D01*
X369540Y-292978D01*
X369670Y-292757D01*
X369761Y-292516D01*
X369814Y-292245D01*
X369824Y-292066D01*
X369824Y-217057D01*
X369917Y-216581D01*
X370196Y-216159D01*
X381259Y-205096D01*
X381662Y-204825D01*
X382157Y-204724D01*
X419046Y-204724D01*
X419356Y-204698D01*
X419605Y-204633D01*
X419839Y-204528D01*
X420068Y-204373D01*
X420202Y-204253D01*
X432840Y-191616D01*
X433040Y-191378D01*
X433170Y-191157D01*
X433261Y-190916D01*
X433314Y-190645D01*
X433324Y-190466D01*
X433324Y-64657D01*
X433417Y-64181D01*
X433696Y-63759D01*
X444759Y-52696D01*
X445162Y-52425D01*
X445657Y-52324D01*
X460924Y-52324D01*
X461382Y-52409D01*
X461808Y-52682D01*
X462093Y-53099D01*
X462179Y-53518D01*
X462256Y-53704D01*
X462352Y-54150D01*
X462267Y-54648D01*
X461994Y-55074D01*
X461578Y-55359D01*
X461082Y-55460D01*
X455348Y-55460D01*
X453860Y-56948D01*
X453860Y-58500D01*
X466400Y-58500D01*
X466400Y-71540D01*
X467452Y-71540D01*
X468940Y-70052D01*
X468940Y-60239D01*
X469018Y-59800D01*
X469284Y-59370D01*
X469696Y-59078D01*
X470190Y-58969D01*
X470687Y-59062D01*
X471108Y-59341D01*
X471504Y-59737D01*
X471775Y-60140D01*
X471876Y-60635D01*
X471876Y-69631D01*
X472769Y-70524D01*
X484031Y-70524D01*
X484924Y-69631D01*
X484924Y-60085D01*
X485017Y-59608D01*
X485296Y-59187D01*
X528046Y-16437D01*
X528412Y-16182D01*
X528904Y-16066D01*
X529402Y-16150D01*
X529828Y-16423D01*
X530113Y-16840D01*
X530214Y-17335D01*
X530214Y-110506D01*
X530121Y-110983D01*
X529842Y-111404D01*
X529252Y-111994D01*
X528444Y-113945D01*
X528444Y-116056D01*
X529252Y-118006D01*
X530744Y-119498D01*
X531834Y-119950D01*
X532217Y-120197D01*
X532510Y-120609D01*
X532618Y-121103D01*
X532525Y-121600D01*
X532246Y-122021D01*
X526464Y-127803D01*
X526464Y-189777D01*
X526371Y-190254D01*
X526092Y-190675D01*
X518264Y-198503D01*
X517871Y-198770D01*
X517376Y-198875D01*
X516880Y-198778D01*
X514882Y-197951D01*
X511278Y-197951D01*
X507948Y-199330D01*
X505400Y-201878D01*
X504021Y-205208D01*
X504021Y-208812D01*
X504848Y-210810D01*
X504945Y-211276D01*
X504852Y-211773D01*
X504573Y-212194D01*
X462714Y-254053D01*
X462714Y-291208D01*
X462625Y-291675D01*
X462349Y-292099D01*
X461930Y-292381D01*
X459688Y-293310D01*
X457140Y-295858D01*
X455761Y-299188D01*
X455761Y-302792D01*
X456377Y-304281D01*
X456474Y-304747D01*
X456381Y-305244D01*
X456102Y-305665D01*
X392714Y-369053D01*
X392714Y-372550D01*
X392625Y-373017D01*
X392349Y-373441D01*
X391930Y-373723D01*
X389838Y-374590D01*
X387290Y-377138D01*
X385911Y-380468D01*
X385911Y-384072D01*
X387290Y-387402D01*
X387934Y-388046D01*
X388189Y-388412D01*
X388305Y-388904D01*
X388221Y-389402D01*
X387948Y-389828D01*
X387531Y-390113D01*
X387036Y-390214D01*
X377504Y-390214D01*
X377065Y-390136D01*
X376635Y-389870D01*
X376343Y-389458D01*
X376234Y-388964D01*
X376327Y-388467D01*
X376606Y-388046D01*
X377250Y-387402D01*
X378630Y-384072D01*
X378630Y-380468D01*
X377250Y-377138D01*
X374702Y-374590D01*
X371820Y-373396D01*
X371422Y-373135D01*
X371137Y-372718D01*
X371036Y-372223D01*
X371036Y-359053D01*
X358296Y-346313D01*
X358025Y-345910D01*
X357924Y-345415D01*
X357924Y-336769D01*
X357031Y-335876D01*
X354635Y-335876D01*
X354158Y-335783D01*
X353737Y-335504D01*
X351858Y-333625D01*
X351591Y-333232D01*
X351486Y-332737D01*
X351556Y-332378D01*
X351556Y-330195D01*
X350748Y-328244D01*
X349256Y-326752D01*
X347306Y-325944D01*
X345195Y-325944D01*
X343244Y-326752D01*
X341752Y-328244D01*
X340944Y-330195D01*
X340944Y-332305D01*
X341275Y-333104D01*
X341371Y-333550D01*
X341286Y-334048D01*
X341014Y-334474D01*
X340597Y-334759D01*
X340101Y-334860D01*
X339400Y-334860D01*
X339400Y-350940D01*
X340452Y-350940D01*
X341940Y-349452D01*
X341940Y-337109D01*
X342022Y-336660D01*
X342291Y-336232D01*
X342705Y-335943D01*
X343200Y-335839D01*
X343696Y-335935D01*
X344092Y-336099D01*
X344490Y-336360D01*
X344775Y-336777D01*
X344876Y-337273D01*
X344876Y-349031D01*
X345769Y-349924D01*
X354915Y-349924D01*
X355392Y-350017D01*
X355813Y-350296D01*
X366092Y-360575D01*
X366363Y-360978D01*
X366464Y-361473D01*
X366464Y-372902D01*
X366375Y-373369D01*
X366099Y-373793D01*
X365680Y-374075D01*
X364438Y-374590D01*
X361890Y-377138D01*
X360511Y-380468D01*
X360511Y-384072D01*
X361890Y-387402D01*
X364438Y-389950D01*
X367016Y-391018D01*
X367399Y-391265D01*
X367691Y-391677D01*
X367800Y-392171D01*
X367707Y-392668D01*
X367428Y-393089D01*
X324454Y-436063D01*
X324088Y-436318D01*
G37*
%LPC*%
G36*
X455348Y-71540D02*
X456400Y-71540D01*
X456400Y-68500D01*
X453860Y-68500D01*
X453860Y-70052D01*
X455348Y-71540D01*
G37*
G36*
X516358Y-114470D02*
X519962Y-114470D01*
X523292Y-113090D01*
X525840Y-110542D01*
X527220Y-107212D01*
X527220Y-103608D01*
X525840Y-100278D01*
X523292Y-97730D01*
X520570Y-96602D01*
X520172Y-96341D01*
X519887Y-95924D01*
X519786Y-95429D01*
X519786Y-92803D01*
X518447Y-91464D01*
X478194Y-91464D01*
X477736Y-91379D01*
X477310Y-91106D01*
X477025Y-90689D01*
X476924Y-90194D01*
X476924Y-87469D01*
X476031Y-86576D01*
X463769Y-86576D01*
X462876Y-87469D01*
X462876Y-98731D01*
X463769Y-99624D01*
X476031Y-99624D01*
X476924Y-98731D01*
X476924Y-97306D01*
X477009Y-96848D01*
X477282Y-96422D01*
X477699Y-96137D01*
X478194Y-96036D01*
X511656Y-96036D01*
X512095Y-96114D01*
X512525Y-96380D01*
X512817Y-96792D01*
X512926Y-97286D01*
X512833Y-97783D01*
X512554Y-98204D01*
X510480Y-100278D01*
X509101Y-103608D01*
X509101Y-107212D01*
X510480Y-110542D01*
X513028Y-113090D01*
X516358Y-114470D01*
G37*
G36*
X461860Y-105100D02*
X477940Y-105100D01*
X477940Y-104048D01*
X476452Y-102560D01*
X463348Y-102560D01*
X461860Y-104048D01*
X461860Y-105100D01*
G37*
G36*
X463348Y-117640D02*
X464900Y-117640D01*
X464900Y-115100D01*
X461860Y-115100D01*
X461860Y-116152D01*
X463348Y-117640D01*
G37*
G36*
X474900Y-117640D02*
X476452Y-117640D01*
X477940Y-116152D01*
X477940Y-115100D01*
X474900Y-115100D01*
X474900Y-117640D01*
G37*
G36*
X485878Y-216070D02*
X489482Y-216070D01*
X492812Y-214690D01*
X495360Y-212142D01*
X496740Y-208812D01*
X496740Y-205208D01*
X495360Y-201878D01*
X492812Y-199330D01*
X490570Y-198401D01*
X490172Y-198140D01*
X489887Y-197723D01*
X489786Y-197228D01*
X489786Y-181553D01*
X488447Y-180214D01*
X465494Y-180214D01*
X465036Y-180129D01*
X464610Y-179856D01*
X464325Y-179439D01*
X464224Y-178944D01*
X464224Y-176369D01*
X463331Y-175476D01*
X459806Y-175476D01*
X459348Y-175391D01*
X458922Y-175118D01*
X458637Y-174701D01*
X458536Y-174206D01*
X458536Y-155063D01*
X458633Y-154577D01*
X459056Y-153555D01*
X459056Y-151445D01*
X458248Y-149494D01*
X456756Y-148002D01*
X454806Y-147194D01*
X452695Y-147194D01*
X450744Y-148002D01*
X449252Y-149494D01*
X448444Y-151445D01*
X448444Y-153556D01*
X449252Y-155506D01*
X450744Y-156998D01*
X452695Y-157806D01*
X453152Y-157891D01*
X453578Y-158164D01*
X453863Y-158581D01*
X453964Y-159076D01*
X453964Y-174206D01*
X453879Y-174664D01*
X453606Y-175090D01*
X453189Y-175375D01*
X452694Y-175476D01*
X451069Y-175476D01*
X450176Y-176369D01*
X450176Y-187631D01*
X451069Y-188524D01*
X463331Y-188524D01*
X464224Y-187631D01*
X464224Y-186056D01*
X464309Y-185598D01*
X464582Y-185172D01*
X464999Y-184887D01*
X465494Y-184786D01*
X483944Y-184786D01*
X484402Y-184871D01*
X484828Y-185144D01*
X485113Y-185561D01*
X485214Y-186056D01*
X485214Y-197377D01*
X485125Y-197844D01*
X484849Y-198268D01*
X484430Y-198550D01*
X482548Y-199330D01*
X480000Y-201878D01*
X478621Y-205208D01*
X478621Y-208812D01*
X480000Y-212142D01*
X482548Y-214690D01*
X485878Y-216070D01*
G37*
G36*
X449160Y-194000D02*
X465240Y-194000D01*
X465240Y-192948D01*
X463752Y-191460D01*
X450648Y-191460D01*
X449160Y-192948D01*
X449160Y-194000D01*
G37*
G36*
X462200Y-206540D02*
X463752Y-206540D01*
X465240Y-205052D01*
X465240Y-204000D01*
X462200Y-204000D01*
X462200Y-206540D01*
G37*
G36*
X450648Y-206540D02*
X452200Y-206540D01*
X452200Y-204000D01*
X449160Y-204000D01*
X449160Y-205052D01*
X450648Y-206540D01*
G37*
G36*
X437618Y-310050D02*
X441222Y-310050D01*
X444552Y-308670D01*
X447100Y-306122D01*
X448480Y-302792D01*
X448480Y-299188D01*
X447100Y-295858D01*
X444552Y-293310D01*
X441222Y-291931D01*
X437618Y-291931D01*
X434288Y-293310D01*
X433813Y-293785D01*
X433429Y-294048D01*
X432936Y-294156D01*
X432439Y-294064D01*
X432017Y-293785D01*
X409096Y-270863D01*
X408825Y-270460D01*
X408724Y-269965D01*
X408724Y-260569D01*
X407831Y-259676D01*
X404806Y-259676D01*
X404348Y-259591D01*
X403922Y-259318D01*
X403637Y-258901D01*
X403536Y-258406D01*
X403536Y-257563D01*
X403633Y-257077D01*
X404056Y-256055D01*
X404056Y-253945D01*
X403248Y-251994D01*
X401756Y-250502D01*
X399806Y-249694D01*
X397695Y-249694D01*
X395744Y-250502D01*
X394252Y-251994D01*
X393444Y-253945D01*
X393444Y-256056D01*
X394252Y-258006D01*
X395347Y-259101D01*
X395611Y-259485D01*
X395719Y-259979D01*
X395676Y-260211D01*
X395676Y-272831D01*
X396569Y-273724D01*
X404965Y-273724D01*
X405442Y-273817D01*
X405863Y-274096D01*
X429989Y-298221D01*
X430260Y-298624D01*
X430361Y-299119D01*
X430361Y-302792D01*
X431740Y-306122D01*
X434288Y-308670D01*
X437618Y-310050D01*
G37*
G36*
X377660Y-261700D02*
X380200Y-261700D01*
X380200Y-258660D01*
X379148Y-258660D01*
X377660Y-260148D01*
X377660Y-261700D01*
G37*
G36*
X390200Y-274740D02*
X391252Y-274740D01*
X392740Y-273252D01*
X392740Y-260148D01*
X391252Y-258660D01*
X390200Y-258660D01*
X390200Y-274740D01*
G37*
G36*
X379148Y-274740D02*
X380200Y-274740D01*
X380200Y-271700D01*
X377660Y-271700D01*
X377660Y-273252D01*
X379148Y-274740D01*
G37*
%LPD*%
G36*
X-246417Y-506816D02*
X-246914Y-506908D01*
X-247408Y-506798D01*
X-250138Y-505583D01*
X-250230Y-505537D01*
X-290451Y-483551D01*
X-290539Y-483497D01*
X-328837Y-458311D01*
X-328921Y-458251D01*
X-365042Y-430031D01*
X-365121Y-429964D01*
X-398826Y-398899D01*
X-398899Y-398826D01*
X-399507Y-398167D01*
X-399726Y-397838D01*
X-399842Y-397346D01*
X-399758Y-396848D01*
X-399485Y-396422D01*
X-399068Y-396137D01*
X-398573Y-396036D01*
X-380303Y-396036D01*
X-375214Y-390947D01*
X-375214Y-363973D01*
X-375121Y-363496D01*
X-374842Y-363075D01*
X-353204Y-341437D01*
X-352838Y-341182D01*
X-352346Y-341066D01*
X-351848Y-341150D01*
X-351422Y-341423D01*
X-351137Y-341840D01*
X-351036Y-342335D01*
X-351036Y-397197D01*
X-340158Y-408075D01*
X-339887Y-408478D01*
X-339786Y-408973D01*
X-339786Y-425770D01*
X-339875Y-426237D01*
X-340151Y-426661D01*
X-340570Y-426943D01*
X-342952Y-427930D01*
X-345500Y-430478D01*
X-346880Y-433808D01*
X-346880Y-437412D01*
X-345500Y-440742D01*
X-342952Y-443290D01*
X-339622Y-444670D01*
X-336018Y-444670D01*
X-332688Y-443290D01*
X-330140Y-440742D01*
X-328761Y-437412D01*
X-328761Y-433808D01*
X-330140Y-430478D01*
X-332688Y-427930D01*
X-334430Y-427208D01*
X-334828Y-426947D01*
X-335113Y-426530D01*
X-335214Y-426035D01*
X-335214Y-411056D01*
X-335129Y-410598D01*
X-334856Y-410172D01*
X-334439Y-409887D01*
X-333944Y-409786D01*
X-308394Y-409786D01*
X-307936Y-409871D01*
X-307510Y-410144D01*
X-307225Y-410561D01*
X-307124Y-411056D01*
X-307124Y-412531D01*
X-306231Y-413424D01*
X-294969Y-413424D01*
X-294076Y-412531D01*
X-294076Y-400269D01*
X-294969Y-399376D01*
X-306231Y-399376D01*
X-307124Y-400269D01*
X-307124Y-403944D01*
X-307209Y-404402D01*
X-307482Y-404828D01*
X-307899Y-405113D01*
X-308394Y-405214D01*
X-336027Y-405214D01*
X-336504Y-405121D01*
X-336925Y-404842D01*
X-346092Y-395675D01*
X-346363Y-395272D01*
X-346464Y-394777D01*
X-346464Y-321553D01*
X-352342Y-315675D01*
X-352613Y-315272D01*
X-352714Y-314777D01*
X-352714Y-57723D01*
X-352621Y-57246D01*
X-352342Y-56825D01*
X-345214Y-49697D01*
X-345214Y-49177D01*
X-345121Y-48701D01*
X-344842Y-48279D01*
X-343798Y-47235D01*
X-343414Y-46972D01*
X-342920Y-46863D01*
X-342423Y-46956D01*
X-342002Y-47235D01*
X-341408Y-47829D01*
X-341137Y-48232D01*
X-341036Y-48727D01*
X-341036Y-338447D01*
X-283291Y-396192D01*
X-283036Y-396558D01*
X-282920Y-397050D01*
X-283004Y-397548D01*
X-283277Y-397974D01*
X-283694Y-398259D01*
X-284189Y-398360D01*
X-289652Y-398360D01*
X-291140Y-399848D01*
X-291140Y-412952D01*
X-289652Y-414440D01*
X-288600Y-414440D01*
X-288600Y-401400D01*
X-278600Y-401400D01*
X-278600Y-414440D01*
X-277548Y-414440D01*
X-276060Y-412952D01*
X-276060Y-406489D01*
X-275982Y-406050D01*
X-275716Y-405620D01*
X-275304Y-405328D01*
X-274810Y-405219D01*
X-274313Y-405312D01*
X-273892Y-405591D01*
X-271408Y-408075D01*
X-271137Y-408478D01*
X-271036Y-408973D01*
X-271036Y-444697D01*
X-237658Y-478075D01*
X-237387Y-478478D01*
X-237286Y-478973D01*
X-237286Y-483817D01*
X-237375Y-484284D01*
X-237651Y-484708D01*
X-238070Y-484990D01*
X-241352Y-486350D01*
X-243900Y-488898D01*
X-245280Y-492228D01*
X-245280Y-495922D01*
X-245358Y-496360D01*
X-245623Y-496791D01*
X-246036Y-497083D01*
X-246529Y-497191D01*
X-247026Y-497099D01*
X-247448Y-496820D01*
X-303784Y-440483D01*
X-304051Y-440090D01*
X-304156Y-439595D01*
X-304059Y-439099D01*
X-303361Y-437412D01*
X-303361Y-433808D01*
X-304740Y-430478D01*
X-307288Y-427930D01*
X-310618Y-426551D01*
X-314222Y-426551D01*
X-317552Y-427930D01*
X-320100Y-430478D01*
X-321480Y-433808D01*
X-321480Y-437412D01*
X-320100Y-440742D01*
X-317552Y-443290D01*
X-314222Y-444670D01*
X-310618Y-444670D01*
X-308181Y-443660D01*
X-307716Y-443564D01*
X-307219Y-443656D01*
X-306797Y-443936D01*
X-245993Y-504740D01*
X-245729Y-505127D01*
X-245621Y-505620D01*
X-245715Y-506117D01*
X-245995Y-506538D01*
X-246417Y-506816D01*
G37*
G36*
X355582Y-304740D02*
X355284Y-304800D01*
X305116Y-304800D01*
X304830Y-304744D01*
X304577Y-304577D01*
X292323Y-292323D01*
X292160Y-292082D01*
X292100Y-291784D01*
X292100Y-76288D01*
X292075Y-76183D01*
X292056Y-76156D01*
X279462Y-63562D01*
X279370Y-63505D01*
X279338Y-63500D01*
X194413Y-63500D01*
X194127Y-63444D01*
X193874Y-63277D01*
X178023Y-47426D01*
X177860Y-47184D01*
X177800Y-46887D01*
X177800Y-3913D01*
X177856Y-3627D01*
X178023Y-3374D01*
X182350Y953D01*
X182592Y1116D01*
X182889Y1176D01*
X205492Y1176D01*
X209728Y2930D01*
X210130Y3333D01*
X210372Y3496D01*
X210669Y3556D01*
X212639Y3556D01*
X216000Y4948D01*
X218572Y7520D01*
X219964Y10881D01*
X219964Y14519D01*
X218572Y17880D01*
X216000Y20452D01*
X212639Y21844D01*
X210669Y21844D01*
X210383Y21900D01*
X210130Y22067D01*
X209728Y22470D01*
X205492Y24224D01*
X178562Y24224D01*
X178287Y24275D01*
X178032Y24439D01*
X177860Y24689D01*
X177800Y24986D01*
X177800Y25084D01*
X177856Y25370D01*
X178023Y25623D01*
X190277Y37877D01*
X190518Y38040D01*
X190816Y38100D01*
X356853Y38100D01*
X357116Y38053D01*
X357374Y37894D01*
X357549Y37646D01*
X357614Y37350D01*
X357559Y37052D01*
X357391Y36799D01*
X354927Y34335D01*
X352526Y28538D01*
X352526Y22262D01*
X354927Y16465D01*
X359365Y12027D01*
X365162Y9626D01*
X371438Y9626D01*
X377235Y12027D01*
X381673Y16465D01*
X384074Y22262D01*
X384074Y28538D01*
X381673Y34335D01*
X379209Y36799D01*
X379056Y37019D01*
X378986Y37314D01*
X379037Y37613D01*
X379200Y37868D01*
X379450Y38040D01*
X379747Y38100D01*
X482284Y38100D01*
X482570Y38044D01*
X482823Y37877D01*
X495077Y25623D01*
X495240Y25382D01*
X495300Y25084D01*
X495300Y-37784D01*
X495244Y-38070D01*
X495077Y-38323D01*
X482823Y-50577D01*
X482582Y-50740D01*
X482284Y-50800D01*
X473568Y-50800D01*
X473293Y-50749D01*
X473038Y-50585D01*
X472926Y-50422D01*
X469698Y-47194D01*
X465302Y-47194D01*
X462070Y-50426D01*
X461979Y-50568D01*
X461729Y-50740D01*
X461432Y-50800D01*
X444588Y-50800D01*
X444483Y-50825D01*
X444456Y-50844D01*
X431862Y-63438D01*
X431805Y-63530D01*
X431800Y-63562D01*
X431800Y-190184D01*
X431744Y-190470D01*
X431577Y-190723D01*
X419323Y-202977D01*
X419082Y-203140D01*
X418784Y-203200D01*
X381088Y-203200D01*
X380983Y-203225D01*
X380956Y-203244D01*
X368362Y-215838D01*
X368305Y-215930D01*
X368300Y-215962D01*
X368300Y-224819D01*
X368253Y-225083D01*
X368094Y-225341D01*
X367846Y-225516D01*
X367550Y-225581D01*
X367252Y-225526D01*
X366999Y-225358D01*
X365542Y-223901D01*
X342773Y-223901D01*
X342773Y-284099D01*
X365542Y-284099D01*
X366999Y-282642D01*
X367219Y-282489D01*
X367514Y-282419D01*
X367813Y-282470D01*
X368068Y-282633D01*
X368240Y-282884D01*
X368300Y-283181D01*
X368300Y-291784D01*
X368244Y-292070D01*
X368077Y-292323D01*
X355823Y-304577D01*
X355582Y-304740D01*
G37*
%LPC*%
G36*
X447761Y3556D02*
X466639Y3556D01*
X470000Y4948D01*
X472572Y7520D01*
X473964Y10881D01*
X473964Y14519D01*
X472572Y17880D01*
X470000Y20452D01*
X466639Y21844D01*
X447761Y21844D01*
X444400Y20452D01*
X441828Y17880D01*
X440436Y14519D01*
X440436Y10881D01*
X441828Y7520D01*
X444400Y4948D01*
X447761Y3556D01*
G37*
G36*
X269961Y3556D02*
X288839Y3556D01*
X292200Y4948D01*
X294772Y7520D01*
X296164Y10881D01*
X296164Y14519D01*
X294772Y17880D01*
X292200Y20452D01*
X288839Y21844D01*
X269961Y21844D01*
X266600Y20452D01*
X264028Y17880D01*
X262636Y14519D01*
X262636Y10881D01*
X264028Y7520D01*
X266600Y4948D01*
X269961Y3556D01*
G37*
G36*
X442832Y-5080D02*
X471568Y-5080D01*
X470575Y-4087D01*
X466841Y-2540D01*
X447559Y-2540D01*
X443825Y-4087D01*
X442832Y-5080D01*
G37*
G36*
X265032Y-5080D02*
X293768Y-5080D01*
X292775Y-4087D01*
X289041Y-2540D01*
X269759Y-2540D01*
X266025Y-4087D01*
X265032Y-5080D01*
G37*
G36*
X188832Y-5080D02*
X217568Y-5080D01*
X216575Y-4087D01*
X212841Y-2540D01*
X193559Y-2540D01*
X189825Y-4087D01*
X188832Y-5080D01*
G37*
G36*
X464820Y-22860D02*
X466841Y-22860D01*
X470575Y-21313D01*
X471568Y-20320D01*
X464820Y-20320D01*
X464820Y-22860D01*
G37*
G36*
X447559Y-22860D02*
X449580Y-22860D01*
X449580Y-20320D01*
X442832Y-20320D01*
X443825Y-21313D01*
X447559Y-22860D01*
G37*
G36*
X287020Y-22860D02*
X289041Y-22860D01*
X292775Y-21313D01*
X293768Y-20320D01*
X287020Y-20320D01*
X287020Y-22860D01*
G37*
G36*
X269759Y-22860D02*
X271780Y-22860D01*
X271780Y-20320D01*
X265032Y-20320D01*
X266025Y-21313D01*
X269759Y-22860D01*
G37*
G36*
X210820Y-22860D02*
X212841Y-22860D01*
X216575Y-21313D01*
X217568Y-20320D01*
X210820Y-20320D01*
X210820Y-22860D01*
G37*
G36*
X193559Y-22860D02*
X195580Y-22860D01*
X195580Y-20320D01*
X188832Y-20320D01*
X189825Y-21313D01*
X193559Y-22860D01*
G37*
G36*
X311230Y-117910D02*
X353630Y-117910D01*
X353630Y-63260D01*
X312717Y-63260D01*
X311230Y-64748D01*
X311230Y-117910D01*
G37*
G36*
X371410Y-117910D02*
X413810Y-117910D01*
X413810Y-64748D01*
X412322Y-63260D01*
X371410Y-63260D01*
X371410Y-117910D01*
G37*
G36*
X371410Y-190340D02*
X412322Y-190340D01*
X413810Y-188852D01*
X413810Y-135690D01*
X371410Y-135690D01*
X371410Y-190340D01*
G37*
G36*
X312717Y-190340D02*
X353630Y-190340D01*
X353630Y-135690D01*
X311230Y-135690D01*
X311230Y-188852D01*
X312717Y-190340D01*
G37*
G36*
X302224Y-284099D02*
X324993Y-284099D01*
X324993Y-223901D01*
X302224Y-223901D01*
X300736Y-225389D01*
X300736Y-282611D01*
X302224Y-284099D01*
G37*
%LPD*%
D10*
X215900Y-208154D03*
X215900Y-223646D03*
X215900Y-261746D03*
X215900Y-246254D03*
D11*
X368300Y177800D03*
D12*
X368300Y101600D03*
D13*
X139700Y279400D03*
X139700Y177800D03*
D14*
X152400Y-225200D03*
X152400Y-199800D03*
X152400Y-174400D03*
X152400Y-149000D03*
X152400Y-123600D03*
X152400Y-98200D03*
X152400Y-72800D03*
X0Y-72800D03*
X0Y-98200D03*
X0Y-123600D03*
X0Y-149000D03*
X0Y-174400D03*
X0Y-199800D03*
X0Y-225200D03*
D15*
X-503800Y0D03*
X-486800Y0D03*
X-110100Y-482600D03*
X-93100Y-482600D03*
X-211700Y-457200D03*
X-194700Y-457200D03*
X-300600Y-406400D03*
X-283600Y-406400D03*
X-376800Y-330200D03*
X-359800Y-330200D03*
X-427600Y-254000D03*
X-410600Y-254000D03*
X-465700Y-177800D03*
X-448700Y-177800D03*
X-478400Y-101600D03*
X-461400Y-101600D03*
X478400Y-63500D03*
X461400Y-63500D03*
D16*
X469900Y-93100D03*
X469900Y-110100D03*
X457200Y-182000D03*
X457200Y-199000D03*
D15*
X-491100Y101600D03*
X-474100Y101600D03*
X402200Y-266700D03*
X385200Y-266700D03*
X351400Y-342900D03*
X334400Y-342900D03*
X275200Y-406400D03*
X258200Y-406400D03*
X199000Y-457200D03*
X182000Y-457200D03*
X110100Y-482600D03*
X93100Y-482600D03*
D16*
X-12700Y503800D03*
X-12700Y486800D03*
X101600Y491100D03*
X101600Y474100D03*
X203200Y465700D03*
X203200Y448700D03*
X292100Y402200D03*
X292100Y385200D03*
X368300Y338700D03*
X368300Y321700D03*
D15*
X-465700Y190500D03*
X-448700Y190500D03*
X376800Y279400D03*
X359800Y279400D03*
X402200Y254000D03*
X385200Y254000D03*
X465700Y76200D03*
X448700Y76200D03*
D17*
X173252Y355600D03*
X156948Y355600D03*
X309348Y330200D03*
X325652Y330200D03*
D15*
X-427600Y266700D03*
X-410600Y266700D03*
X-364100Y342900D03*
X-347100Y342900D03*
X-287900Y406400D03*
X-270900Y406400D03*
X-199000Y457200D03*
X-182000Y457200D03*
X-110100Y495300D03*
X-93100Y495300D03*
X-8500Y-495300D03*
X8500Y-495300D03*
D18*
X-528320Y0D03*
X-553720Y0D03*
X-95250Y-530860D03*
X-120650Y-530860D03*
X-210820Y-494030D03*
X-236220Y-494030D03*
X-312420Y-435610D03*
X-337820Y-435610D03*
X-393700Y-358140D03*
X-419100Y-358140D03*
X-452120Y-279400D03*
X-477520Y-279400D03*
X-494030Y-190500D03*
X-519430Y-190500D03*
X-520700Y-97790D03*
X-546100Y-97790D03*
X554990Y0D03*
X529590Y0D03*
X543560Y-105410D03*
X518160Y-105410D03*
X513080Y-207010D03*
X487680Y-207010D03*
X-518415Y102168D03*
X-543815Y102168D03*
X464820Y-300990D03*
X439420Y-300990D03*
X394970Y-382270D03*
X369570Y-382270D03*
X313690Y-450850D03*
X288290Y-450850D03*
X219710Y-500380D03*
X194310Y-500380D03*
X118110Y-530860D03*
X92710Y-530860D03*
X12700Y542205D03*
X-12700Y542205D03*
X127000Y530860D03*
X101600Y530860D03*
X234950Y494030D03*
X209550Y494030D03*
X334010Y435610D03*
X308610Y435610D03*
X419100Y358140D03*
X393700Y358140D03*
X-491188Y198702D03*
X-516588Y198702D03*
X476250Y279400D03*
X450850Y279400D03*
X519430Y190500D03*
X494030Y190500D03*
X546100Y97790D03*
X520700Y97790D03*
X-445770Y289560D03*
X-471170Y289560D03*
X-382270Y369570D03*
X-407670Y369570D03*
X-299720Y441960D03*
X-325120Y441960D03*
X-203200Y496570D03*
X-228600Y496570D03*
X-97790Y530860D03*
X-123190Y530860D03*
X12700Y-541020D03*
X-12700Y-541020D03*
D19*
X99250Y81050D02*
X99250Y95050D01*
X92750Y95050D02*
X92750Y81050D01*
X86250Y81050D02*
X86250Y95050D01*
X79750Y95050D02*
X79750Y81050D01*
X73250Y81050D02*
X73250Y95050D01*
X66750Y95050D02*
X66750Y81050D01*
X60250Y81050D02*
X60250Y95050D01*
X53750Y95050D02*
X53750Y81050D01*
X47250Y81050D02*
X47250Y95050D01*
X40750Y95050D02*
X40750Y81050D01*
X34250Y81050D02*
X34250Y95050D01*
X27750Y95050D02*
X27750Y81050D01*
X27750Y20550D02*
X27750Y6550D01*
X34250Y6550D02*
X34250Y20550D01*
X40750Y20550D02*
X40750Y6550D01*
X47250Y6550D02*
X47250Y20550D01*
X53750Y20550D02*
X53750Y6550D01*
X60250Y6550D02*
X60250Y20550D01*
X66750Y20550D02*
X66750Y6550D01*
X73250Y6550D02*
X73250Y20550D01*
X79750Y20550D02*
X79750Y6550D01*
X86250Y6550D02*
X86250Y20550D01*
X92750Y20550D02*
X92750Y6550D01*
X99250Y6550D02*
X99250Y20550D01*
X-378650Y-30250D02*
X-378650Y-44250D01*
X-372150Y-44250D02*
X-372150Y-30250D01*
X-365650Y-30250D02*
X-365650Y-44250D01*
X-359150Y-44250D02*
X-359150Y-30250D01*
X-352650Y-30250D02*
X-352650Y-44250D01*
X-346150Y-44250D02*
X-346150Y-30250D01*
X-339650Y-30250D02*
X-339650Y-44250D01*
X-333150Y-44250D02*
X-333150Y-30250D01*
X-326650Y-30250D02*
X-326650Y-44250D01*
X-320150Y-44250D02*
X-320150Y-30250D01*
X-313650Y-30250D02*
X-313650Y-44250D01*
X-307150Y-44250D02*
X-307150Y-30250D01*
X-307150Y30250D02*
X-307150Y44250D01*
X-313650Y44250D02*
X-313650Y30250D01*
X-320150Y30250D02*
X-320150Y44250D01*
X-326650Y44250D02*
X-326650Y30250D01*
X-333150Y30250D02*
X-333150Y44250D01*
X-339650Y44250D02*
X-339650Y30250D01*
X-346150Y30250D02*
X-346150Y44250D01*
X-352650Y44250D02*
X-352650Y30250D01*
X-359150Y30250D02*
X-359150Y44250D01*
X-365650Y44250D02*
X-365650Y30250D01*
X-372150Y30250D02*
X-372150Y44250D01*
X-378650Y44250D02*
X-378650Y30250D01*
D20*
X-50800Y-241300D03*
X-50800Y-215900D03*
X-50800Y-88900D03*
X-50800Y-63500D03*
X-50800Y-190500D03*
X-50800Y-165100D03*
X-50800Y-114300D03*
X-50800Y-139700D03*
X-50800Y-38100D03*
X-50800Y-12700D03*
X-50800Y12700D03*
X-50800Y38100D03*
X-50800Y63500D03*
X-50800Y88900D03*
X-50800Y114300D03*
X-50800Y139700D03*
X-50800Y165100D03*
X-50800Y190500D03*
X-50800Y215900D03*
X-50800Y241300D03*
X-228600Y241300D03*
X-228600Y215900D03*
X-228600Y190500D03*
X-228600Y165100D03*
X-228600Y139700D03*
X-228600Y114300D03*
X-228600Y88900D03*
X-228600Y63500D03*
X-228600Y38100D03*
X-228600Y12700D03*
X-228600Y-12700D03*
X-228600Y-38100D03*
X-228600Y-63500D03*
X-228600Y-88900D03*
X-228600Y-114300D03*
X-228600Y-139700D03*
X-228600Y-165100D03*
X-228600Y-190500D03*
X-228600Y-215900D03*
X-228600Y-241300D03*
X-114300Y239000D03*
X-139700Y239000D03*
X-165100Y239000D03*
D21*
X203200Y354974D03*
D22*
X203200Y329574D03*
X279400Y329574D03*
X279400Y354974D03*
D23*
X251849Y-231500D03*
X251849Y-276500D03*
D24*
X333883Y-254000D03*
D25*
X-25400Y321310D02*
X-25400Y339090D01*
X0Y339090D02*
X0Y321310D01*
X-50800Y321310D02*
X-50800Y339090D01*
X-76200Y339090D02*
X-76200Y321310D01*
X-101600Y321310D02*
X-101600Y339090D01*
X25400Y339090D02*
X25400Y321310D01*
X50800Y321310D02*
X50800Y339090D01*
X76200Y339090D02*
X76200Y321310D01*
D26*
X449580Y12700D02*
X464820Y12700D01*
X464820Y-12700D02*
X449580Y-12700D01*
X210820Y12700D02*
X195580Y12700D01*
X195580Y-12700D02*
X210820Y-12700D01*
X271780Y12700D02*
X287020Y12700D01*
X287020Y-12700D02*
X271780Y-12700D01*
X-271780Y317500D02*
X-287020Y317500D01*
X-287020Y292100D02*
X-271780Y292100D01*
X-271780Y266700D02*
X-287020Y266700D01*
X-287020Y342900D02*
X-271780Y342900D01*
X-172720Y368300D02*
X-157480Y368300D01*
X-157480Y342900D02*
X-172720Y342900D01*
X-172720Y317500D02*
X-157480Y317500D01*
X-157480Y393700D02*
X-172720Y393700D01*
X202692Y195580D02*
X202692Y180340D01*
X228092Y180340D02*
X228092Y195580D01*
X203200Y115927D02*
X203200Y100687D01*
X228600Y100687D02*
X228600Y115927D01*
D27*
X63500Y190500D03*
X38100Y190500D03*
X12700Y190500D03*
X88900Y190500D03*
X-330200Y127000D03*
X-355600Y127000D03*
X-381000Y127000D03*
X-304800Y127000D03*
D17*
X131548Y-12700D03*
X147852Y-12700D03*
D28*
X-279400Y-84352D03*
X-279400Y-68048D03*
X-279400Y-122452D03*
X-279400Y-106148D03*
X215900Y-118848D03*
X215900Y-135152D03*
X215900Y-78513D03*
X215900Y-94817D03*
D29*
X290203Y243586D03*
X290203Y266700D03*
X290203Y289814D03*
D30*
X215384Y266700D03*
D26*
X-436880Y12700D02*
X-452120Y12700D01*
X-452120Y38100D02*
X-436880Y38100D01*
X-436880Y63500D02*
X-452120Y63500D01*
X-452120Y-12700D02*
X-436880Y-12700D01*
X-436880Y-38100D02*
X-452120Y-38100D01*
X-452120Y-63500D02*
X-436880Y-63500D01*
X-401320Y-190500D02*
X-386080Y-190500D01*
X-386080Y-165100D02*
X-401320Y-165100D01*
X-401320Y-139700D02*
X-386080Y-139700D01*
X-386080Y-215900D02*
X-401320Y-215900D01*
D10*
X190500Y-81154D03*
X190500Y-96646D03*
X215900Y-170054D03*
X215900Y-185546D03*
D31*
X259770Y-101400D03*
X259770Y-152200D03*
D32*
X362520Y-126800D03*
D33*
X100000Y-143750D02*
X100000Y12500D01*
X100000Y-143750D02*
X70000Y-173750D01*
X100000Y12500D02*
X99250Y13550D01*
X-393750Y-357500D02*
X-443750Y-307500D01*
X-451250Y-307500D01*
X-451250Y-280000D01*
X-393750Y-357500D02*
X-393700Y-358140D01*
X-451250Y-280000D02*
X-452120Y-279400D01*
X-490000Y198750D02*
X-446250Y242500D01*
X-446250Y288750D01*
X-490000Y198750D02*
X-491188Y198702D01*
X-446250Y288750D02*
X-445770Y289560D01*
X-378750Y36250D02*
X-380000Y35000D01*
X-380000Y7500D01*
X-378750Y36250D02*
X-378650Y37250D01*
X-521250Y-97500D02*
X-527500Y-91250D01*
X-527500Y0D01*
X-521250Y-97500D02*
X-520700Y-97790D01*
X-520000Y-165000D02*
X-495000Y-190000D01*
X-520000Y-165000D02*
X-520000Y-98750D01*
X-495000Y-190000D02*
X-494030Y-190500D01*
X-520000Y-98750D02*
X-520700Y-97790D01*
X-527500Y92500D02*
X-518750Y101250D01*
X-527500Y92500D02*
X-527500Y0D01*
X-518750Y101250D02*
X-518415Y102168D01*
X-527500Y0D02*
X-528320Y0D01*
X-211250Y-495000D02*
X-226250Y-510000D01*
X-237500Y-510000D01*
X-311250Y-436250D01*
X-210820Y-494030D02*
X-211250Y-495000D01*
X-311250Y-436250D02*
X-312420Y-435610D01*
X-342500Y368750D02*
X-381250Y368750D01*
X-342500Y368750D02*
X-342500Y360000D01*
X-381250Y368750D02*
X-382270Y369570D01*
X-298750Y441250D02*
X-296250Y438750D01*
X-296250Y397500D02*
X-296250Y360000D01*
X-296250Y397500D02*
X-296250Y438750D01*
X-296250Y360000D02*
X-280000Y343750D01*
X-298750Y441250D02*
X-299720Y441960D01*
X-280000Y343750D02*
X-279400Y342900D01*
X203750Y525000D02*
X233750Y495000D01*
X203750Y525000D02*
X127500Y525000D01*
X127500Y530000D01*
X233750Y495000D02*
X234950Y494030D01*
X127500Y530000D02*
X127000Y530860D01*
X-101250Y527500D02*
X-101250Y331250D01*
X-101250Y527500D02*
X-98750Y530000D01*
X-101250Y331250D02*
X-101600Y330200D01*
X-98750Y530000D02*
X-97790Y530860D01*
X-238750Y397500D02*
X-296250Y397500D01*
X-238750Y397500D02*
X-238750Y501250D01*
X-232500Y507500D01*
X-203750Y507500D01*
X-203750Y497500D01*
X-203200Y496570D01*
X216250Y-262500D02*
X251250Y-262500D01*
X251250Y-276250D01*
X216250Y-262500D02*
X215900Y-261746D01*
X251250Y-276250D02*
X251849Y-276500D01*
X371250Y-392500D02*
X320000Y-443750D01*
X313750Y-450000D01*
X371250Y-392500D02*
X393750Y-392500D01*
X393750Y-382500D01*
X313750Y-450000D02*
X313690Y-450850D01*
X393750Y-382500D02*
X394970Y-382270D01*
X395000Y-370000D02*
X463750Y-301250D01*
X395000Y-370000D02*
X395000Y-381250D01*
X463750Y-301250D02*
X464820Y-300990D01*
X395000Y-381250D02*
X394970Y-382270D01*
X465000Y-255000D02*
X512500Y-207500D01*
X465000Y-255000D02*
X465000Y-300000D01*
X512500Y-207500D02*
X513080Y-207010D01*
X465000Y-300000D02*
X464820Y-300990D01*
X320000Y-345000D02*
X252500Y-277500D01*
X320000Y-388750D02*
X320000Y-443750D01*
X320000Y-388750D02*
X320000Y-345000D01*
X252500Y-277500D02*
X251849Y-276500D01*
X473750Y303750D02*
X420000Y357500D01*
X473750Y303750D02*
X473750Y282500D01*
X476250Y280000D01*
X420000Y357500D02*
X419100Y358140D01*
X476250Y280000D02*
X476250Y279400D01*
X356250Y435000D02*
X335000Y435000D01*
X356250Y435000D02*
X418750Y372500D01*
X418750Y358750D01*
X335000Y435000D02*
X334010Y435610D01*
X418750Y358750D02*
X419100Y358140D01*
X553750Y-95000D02*
X543750Y-105000D01*
X553750Y-95000D02*
X553750Y0D01*
X543750Y-105000D02*
X543560Y-105410D01*
X535000Y175000D02*
X520000Y190000D01*
X535000Y175000D02*
X535000Y108750D01*
X545000Y98750D01*
X520000Y190000D02*
X519430Y190500D01*
X545000Y98750D02*
X546100Y97790D01*
X546250Y7500D02*
X553750Y0D01*
X546250Y7500D02*
X546250Y97500D01*
X553750Y0D02*
X554990Y0D01*
X546250Y97500D02*
X546100Y97790D01*
X503750Y251250D02*
X476250Y278750D01*
X503750Y251250D02*
X503750Y222500D01*
X518750Y207500D01*
X518750Y191250D01*
X476250Y278750D02*
X476250Y279400D01*
X518750Y191250D02*
X519430Y190500D01*
X528750Y-191250D02*
X513750Y-206250D01*
X528750Y-191250D02*
X528750Y-128750D01*
X542500Y-115000D01*
X542500Y-106250D01*
X513750Y-206250D02*
X513080Y-207010D01*
X542500Y-106250D02*
X543560Y-105410D01*
X270000Y493750D02*
X235000Y493750D01*
X270000Y493750D02*
X327500Y436250D01*
X333750Y436250D01*
X235000Y493750D02*
X234950Y494030D01*
X333750Y436250D02*
X334010Y435610D01*
X226250Y-493750D02*
X220000Y-500000D01*
X226250Y-493750D02*
X226250Y-423750D01*
X261250Y-388750D01*
X320000Y-388750D01*
X220000Y-500000D02*
X219710Y-500380D01*
D34*
X70000Y-173750D03*
X-380000Y7500D03*
X-342500Y360000D03*
D33*
X-12500Y531250D02*
X-12500Y541250D01*
X-12500Y531250D02*
X-12500Y505000D01*
X-12700Y503800D01*
X-12500Y541250D02*
X-12700Y542205D01*
X46250Y167500D02*
X46250Y88750D01*
X46250Y167500D02*
X27500Y186250D01*
X27500Y302500D01*
X13750Y316250D01*
X13750Y495000D01*
X16250Y497500D01*
X16250Y502500D01*
X-12500Y531250D01*
X46250Y88750D02*
X47250Y88050D01*
X101250Y491250D02*
X101250Y530000D01*
X101250Y491250D02*
X101600Y491100D01*
X101250Y530000D02*
X101600Y530860D01*
X55000Y90000D02*
X53750Y88750D01*
X55000Y90000D02*
X55000Y107500D01*
X110000Y162500D02*
X110000Y482500D01*
X102500Y490000D01*
X53750Y88750D02*
X53750Y88050D01*
X102500Y490000D02*
X101600Y491100D01*
D34*
X55000Y107500D03*
X110000Y162500D03*
D33*
X203200Y465700D02*
X208750Y471250D01*
X208750Y493750D01*
X209550Y494030D01*
X61250Y136250D02*
X61250Y88750D01*
X151250Y408750D02*
X195000Y452500D01*
X195000Y457500D01*
X203200Y465700D01*
X61250Y88750D02*
X60250Y88050D01*
D34*
X61250Y136250D03*
X151250Y408750D03*
D33*
X292500Y402500D02*
X307500Y417500D01*
X307500Y435000D01*
X292500Y402500D02*
X292100Y402200D01*
X307500Y435000D02*
X308610Y435610D01*
X67500Y128750D02*
X67500Y88750D01*
X66750Y88050D01*
D34*
X67500Y128750D03*
D33*
X368750Y337500D02*
X391250Y337500D01*
X393750Y335000D01*
X402500Y335000D01*
X402500Y348750D01*
X393750Y357500D01*
X368300Y338700D02*
X368750Y337500D01*
X393750Y357500D02*
X393700Y358140D01*
X75000Y90000D02*
X73750Y88750D01*
X75000Y90000D02*
X75000Y111250D01*
X73750Y88750D02*
X73250Y88050D01*
D34*
X75000Y111250D03*
D33*
X377500Y280000D02*
X450000Y280000D01*
X377500Y280000D02*
X376800Y279400D01*
X450000Y280000D02*
X450850Y279400D01*
X81250Y90000D02*
X80000Y88750D01*
X81250Y90000D02*
X81250Y103750D01*
X80000Y88750D02*
X79750Y88050D01*
D34*
X81250Y103750D03*
D33*
X402500Y253750D02*
X465000Y191250D01*
X493750Y191250D01*
X402500Y253750D02*
X402200Y254000D01*
X493750Y191250D02*
X494030Y190500D01*
X87500Y90000D02*
X86250Y88750D01*
X87500Y90000D02*
X87500Y98750D01*
X98750Y110000D01*
X86250Y88750D02*
X86250Y88050D01*
D34*
X98750Y110000D03*
D33*
X466250Y76250D02*
X520000Y76250D01*
X520000Y97500D01*
X466250Y76250D02*
X465700Y76200D01*
X520000Y97500D02*
X520700Y97790D01*
X93750Y96250D02*
X93750Y88750D01*
X93750Y96250D02*
X108750Y111250D01*
X93750Y88750D02*
X92750Y88050D01*
D34*
X108750Y111250D03*
D33*
X478750Y-62500D02*
X528750Y-12500D01*
X528750Y0D01*
X478750Y-62500D02*
X478400Y-63500D01*
X528750Y0D02*
X529590Y0D01*
X93750Y12500D02*
X93750Y-17500D01*
X467500Y-52500D02*
X477500Y-62500D01*
X93750Y12500D02*
X92750Y13550D01*
X477500Y-62500D02*
X478400Y-63500D01*
D34*
X93750Y-17500D03*
X467500Y-52500D03*
D33*
X470000Y-93750D02*
X517500Y-93750D01*
X517500Y-105000D01*
X470000Y-93750D02*
X469900Y-93100D01*
X517500Y-105000D02*
X518160Y-105410D01*
X86250Y-1250D02*
X86250Y13550D01*
D34*
X86250Y-1250D03*
D33*
X457500Y-182500D02*
X487500Y-182500D01*
X487500Y-206250D01*
X457500Y-182500D02*
X457200Y-182000D01*
X487500Y-206250D02*
X487680Y-207010D01*
X78750Y-12500D02*
X78750Y12500D01*
X78750Y-12500D02*
X93750Y-27500D01*
X453750Y-152500D02*
X456250Y-155000D01*
X456250Y-181250D01*
X79750Y13550D02*
X78750Y12500D01*
X456250Y-181250D02*
X457200Y-182000D01*
D34*
X93750Y-27500D03*
X453750Y-152500D03*
D33*
X402500Y-267500D02*
X435000Y-300000D01*
X438750Y-300000D01*
X402500Y-267500D02*
X402200Y-266700D01*
X438750Y-300000D02*
X439420Y-300990D01*
X75000Y11250D02*
X73750Y12500D01*
X75000Y11250D02*
X75000Y-58750D01*
X398750Y-255000D02*
X401250Y-257500D01*
X401250Y-266250D01*
X73750Y12500D02*
X73250Y13550D01*
X401250Y-266250D02*
X402200Y-266700D01*
D34*
X75000Y-58750D03*
X398750Y-255000D03*
D33*
X352500Y-343750D02*
X368750Y-360000D01*
X368750Y-381250D01*
X352500Y-343750D02*
X351400Y-342900D01*
X368750Y-381250D02*
X369570Y-382270D01*
X67500Y-132500D02*
X67500Y12500D01*
X67500Y-132500D02*
X85000Y-150000D01*
X346250Y-331250D02*
X351250Y-336250D01*
X351250Y-342500D01*
X67500Y12500D02*
X66750Y13550D01*
X351250Y-342500D02*
X351400Y-342900D01*
D34*
X85000Y-150000D03*
X346250Y-331250D03*
D33*
X276250Y-407500D02*
X287500Y-418750D01*
X287500Y-450000D01*
X276250Y-407500D02*
X275200Y-406400D01*
X287500Y-450000D02*
X288290Y-450850D01*
X61250Y-96250D02*
X61250Y12500D01*
X61250Y-96250D02*
X62500Y-97500D01*
X62500Y-193750D01*
X176250Y-307500D01*
X263750Y-395000D02*
X275000Y-406250D01*
X61250Y12500D02*
X60250Y13550D01*
X275000Y-406250D02*
X275200Y-406400D01*
D34*
X176250Y-307500D03*
X263750Y-395000D03*
D33*
X198750Y-457500D02*
X195000Y-461250D01*
X195000Y-500000D01*
X198750Y-457500D02*
X199000Y-457200D01*
X195000Y-500000D02*
X194310Y-500380D01*
X55000Y11250D02*
X53750Y12500D01*
X55000Y11250D02*
X55000Y-95000D01*
X58750Y-98750D01*
X58750Y-417500D01*
X122500Y-481250D01*
X122500Y-507500D01*
X53750Y12500D02*
X53750Y13550D01*
D34*
X122500Y-507500D03*
D33*
X110000Y-483750D02*
X93750Y-500000D01*
X93750Y-530000D01*
X110000Y-483750D02*
X110100Y-482600D01*
X93750Y-530000D02*
X92710Y-530860D01*
X48750Y11250D02*
X47500Y12500D01*
X48750Y11250D02*
X48750Y-93750D01*
X55000Y-100000D01*
X55000Y-313750D01*
X52500Y-316250D01*
X52500Y-425000D01*
X110100Y-482600D01*
X47500Y12500D02*
X47250Y13550D01*
X-8750Y-496250D02*
X-12500Y-500000D01*
X-12500Y-540000D01*
X-8750Y-496250D02*
X-8500Y-495300D01*
X-12500Y-540000D02*
X-12700Y-541020D01*
X-325000Y-38750D02*
X-326250Y-37500D01*
X-325000Y-38750D02*
X-325000Y-172500D01*
X-267500Y-230000D01*
X-13750Y-483750D02*
X-8750Y-488750D01*
X-8750Y-495000D01*
X-326250Y-37500D02*
X-326650Y-37250D01*
X-8750Y-495000D02*
X-8500Y-495300D01*
D34*
X-267500Y-230000D03*
X-13750Y-483750D03*
D33*
X-110100Y-482600D02*
X-120000Y-492500D01*
X-120000Y-530000D01*
X-120650Y-530860D01*
X-331250Y-38750D02*
X-332500Y-37500D01*
X-331250Y-38750D02*
X-331250Y-175000D01*
X-270000Y-236250D01*
X-242500Y-236250D01*
X-242500Y-215000D01*
X-232500Y-205000D01*
X-187500Y-205000D01*
X-187500Y-406250D01*
X-111250Y-482500D01*
X-332500Y-37500D02*
X-333150Y-37250D01*
X-111250Y-482500D02*
X-110100Y-482600D01*
X-233750Y-478750D02*
X-235000Y-480000D01*
X-233750Y-478750D02*
X-212500Y-457500D01*
X-235000Y-480000D02*
X-235000Y-493750D01*
X-212500Y-457500D02*
X-211700Y-457200D01*
X-235000Y-493750D02*
X-236220Y-494030D01*
X-338750Y-337500D02*
X-338750Y-37500D01*
X-338750Y-337500D02*
X-268750Y-407500D01*
X-268750Y-443750D01*
X-233750Y-478750D01*
X-338750Y-37500D02*
X-339650Y-37250D01*
X-337500Y-407500D02*
X-301250Y-407500D01*
X-337500Y-407500D02*
X-337500Y-435000D01*
X-301250Y-407500D02*
X-300600Y-406400D01*
X-337500Y-435000D02*
X-337820Y-435610D01*
X-347500Y-38750D02*
X-346250Y-37500D01*
X-347500Y-38750D02*
X-347500Y-48750D01*
X-355000Y-56250D01*
X-355000Y-316250D01*
X-348750Y-322500D01*
X-348750Y-396250D01*
X-337500Y-407500D01*
X-346250Y-37500D02*
X-346150Y-37250D01*
X-377500Y-362500D02*
X-377500Y-390000D01*
X-377500Y-362500D02*
X-377500Y-331250D01*
X-377500Y-390000D02*
X-381250Y-393750D01*
X-402500Y-393750D01*
X-402500Y-375000D01*
X-418750Y-358750D01*
X-377500Y-331250D02*
X-376800Y-330200D01*
X-419100Y-358140D02*
X-418750Y-358750D01*
X-353750Y-48750D02*
X-353750Y-37500D01*
X-353750Y-48750D02*
X-358750Y-53750D01*
X-358750Y-317500D01*
X-352500Y-323750D01*
X-352500Y-337500D01*
X-377500Y-362500D01*
X-353750Y-37500D02*
X-352650Y-37250D01*
X-435000Y-247500D02*
X-428750Y-253750D01*
X-435000Y-247500D02*
X-435000Y-235000D01*
X-438750Y-231250D01*
X-477500Y-231250D01*
X-477500Y-278750D01*
X-428750Y-253750D02*
X-427600Y-254000D01*
X-477500Y-278750D02*
X-477520Y-279400D01*
X-360000Y-48750D02*
X-360000Y-37500D01*
X-360000Y-48750D02*
X-363750Y-52500D01*
X-363750Y-85000D01*
X-427500Y-148750D01*
X-427500Y-220000D02*
X-438750Y-231250D01*
X-360000Y-37500D02*
X-359150Y-37250D01*
D34*
X-427500Y-148750D03*
X-427500Y-220000D03*
D33*
X-466250Y-178750D02*
X-478750Y-191250D01*
X-478750Y-198750D01*
X-502500Y-222500D01*
X-516250Y-222500D01*
X-516250Y-193750D01*
X-518750Y-191250D01*
X-466250Y-178750D02*
X-465700Y-177800D01*
X-518750Y-191250D02*
X-519430Y-190500D01*
X-367500Y-38750D02*
X-366250Y-37500D01*
X-367500Y-38750D02*
X-367500Y-80000D01*
X-437500Y-150000D01*
X-453750Y-166250D02*
X-465000Y-177500D01*
X-366250Y-37500D02*
X-365650Y-37250D01*
X-465000Y-177500D02*
X-465700Y-177800D01*
D34*
X-437500Y-150000D03*
X-453750Y-166250D03*
D33*
X-478400Y-101600D02*
X-492500Y-87500D01*
X-373750Y-38750D02*
X-372500Y-37500D01*
X-373750Y-38750D02*
X-373750Y-46250D01*
X-415000Y-87500D01*
X-372500Y-37500D02*
X-372150Y-37250D01*
D34*
X-492500Y-87500D03*
X-415000Y-87500D03*
D33*
X-505000Y0D02*
X-505000Y11250D01*
X-505000Y0D02*
X-503800Y0D01*
X-373750Y35000D02*
X-372500Y36250D01*
X-373750Y35000D02*
X-373750Y22500D01*
X-372500Y36250D02*
X-372150Y37250D01*
D34*
X-505000Y11250D03*
X-373750Y22500D03*
D33*
X-491250Y102500D02*
X-501250Y112500D01*
X-543750Y112500D01*
X-543750Y102500D01*
X-491250Y102500D02*
X-491100Y101600D01*
X-543750Y102500D02*
X-543815Y102168D01*
X-367500Y38750D02*
X-366250Y37500D01*
X-367500Y38750D02*
X-367500Y65000D01*
X-380000Y77500D01*
X-366250Y37500D02*
X-365650Y37250D01*
D34*
X-380000Y77500D03*
D33*
X-466250Y190000D02*
X-485000Y190000D01*
X-486250Y188750D01*
X-516250Y188750D01*
X-516250Y197500D01*
X-466250Y190000D02*
X-465700Y190500D01*
X-516250Y197500D02*
X-516588Y198702D01*
X-360000Y93750D02*
X-360000Y37500D01*
X-457500Y180000D02*
X-465000Y187500D01*
X-465000Y190000D01*
X-360000Y37500D02*
X-359150Y37250D01*
X-465000Y190000D02*
X-465700Y190500D01*
D34*
X-360000Y93750D03*
X-457500Y180000D03*
D33*
X-428750Y267500D02*
X-435000Y273750D01*
X-435000Y293750D01*
X-441250Y300000D01*
X-470000Y300000D01*
X-470000Y290000D01*
X-428750Y267500D02*
X-427600Y266700D01*
X-470000Y290000D02*
X-471170Y289560D01*
X-353750Y101250D02*
X-353750Y37500D01*
X-427500Y158750D02*
X-427500Y266250D01*
X-353750Y37500D02*
X-352650Y37250D01*
X-427500Y266250D02*
X-427600Y266700D01*
D34*
X-353750Y101250D03*
X-427500Y158750D03*
D33*
X-407500Y343750D02*
X-365000Y343750D01*
X-407500Y343750D02*
X-407500Y368750D01*
X-365000Y343750D02*
X-364100Y342900D01*
X-407500Y368750D02*
X-407670Y369570D01*
X-345000Y323750D02*
X-345000Y37500D01*
X-345000Y323750D02*
X-363750Y342500D01*
X-345000Y37500D02*
X-346150Y37250D01*
X-363750Y342500D02*
X-364100Y342900D01*
X-227500Y485000D02*
X-200000Y457500D01*
X-227500Y485000D02*
X-227500Y496250D01*
X-200000Y457500D02*
X-199000Y457200D01*
X-227500Y496250D02*
X-228600Y496570D01*
X-331250Y38750D02*
X-332500Y37500D01*
X-331250Y38750D02*
X-331250Y111250D01*
X-208750Y195000D02*
X-200000Y203750D01*
X-200000Y456250D01*
X-332500Y37500D02*
X-333150Y37250D01*
X-200000Y456250D02*
X-199000Y457200D01*
D34*
X-331250Y111250D03*
X-208750Y195000D03*
D33*
X-110000Y496250D02*
X-110000Y517500D01*
X-122500Y530000D01*
X-110000Y496250D02*
X-110100Y495300D01*
X-122500Y530000D02*
X-123190Y530860D01*
X-325000Y38750D02*
X-326250Y37500D01*
X-325000Y38750D02*
X-325000Y117500D01*
X-315000Y127500D01*
X-315000Y303750D01*
X-286250Y332500D01*
X-255000Y332500D01*
X-255000Y351250D01*
X-122500Y483750D02*
X-111250Y495000D01*
X-326250Y37500D02*
X-326650Y37250D01*
X-111250Y495000D02*
X-110100Y495300D01*
D34*
X-255000Y351250D03*
X-122500Y483750D03*
D33*
X-288750Y445000D02*
X-288750Y407500D01*
X-288750Y445000D02*
X-296250Y452500D01*
X-325000Y452500D01*
X-325000Y442500D01*
X-288750Y407500D02*
X-287900Y406400D01*
X-325120Y441960D02*
X-325000Y442500D01*
X-341250Y38750D02*
X-340000Y37500D01*
X-341250Y38750D02*
X-341250Y335000D01*
X-326250Y350000D01*
X-326250Y441250D01*
X-340000Y37500D02*
X-339650Y37250D01*
X-326250Y441250D02*
X-325120Y441960D01*
X40000Y168750D02*
X40000Y88750D01*
X40000Y168750D02*
X23750Y185000D01*
X23750Y193750D01*
X16250Y201250D01*
X2500Y201250D01*
X2500Y160000D01*
X8750Y153750D01*
X8750Y-63750D01*
X12500Y-67500D01*
X12500Y-128750D01*
X5000Y-136250D01*
X-40000Y-136250D01*
X-40000Y-155000D01*
X-50000Y-165000D01*
X40750Y88050D02*
X40000Y88750D01*
X-50000Y-165000D02*
X-50800Y-165100D01*
X32500Y86250D02*
X33750Y87500D01*
X32500Y86250D02*
X32500Y70000D01*
X-33750Y5000D02*
X-36250Y2500D01*
X-36250Y-125000D01*
X-50000Y-138750D01*
X33750Y87500D02*
X34250Y88050D01*
X-50000Y-138750D02*
X-50800Y-139700D01*
D34*
X32500Y70000D03*
X-33750Y5000D03*
D33*
X32500Y11250D02*
X33750Y12500D01*
X32500Y11250D02*
X32500Y-1250D01*
X33750Y12500D02*
X34250Y13550D01*
D34*
X32500Y-1250D03*
D33*
X27500Y12500D02*
X18750Y12500D01*
X27500Y12500D02*
X27750Y13550D01*
D34*
X18750Y12500D03*
D33*
X-318750Y-38750D02*
X-320000Y-37500D01*
X-318750Y-38750D02*
X-318750Y-115000D01*
X-232500Y-201250D01*
X-198750Y-201250D01*
X-198750Y70000D01*
X-320150Y-37250D02*
X-320000Y-37500D01*
D34*
X-198750Y70000D03*
D33*
X-312500Y-37500D02*
X-312500Y-47500D01*
X-285000Y-75000D01*
X-251250Y-75000D01*
X-251250Y55000D01*
X-312500Y-37500D02*
X-313650Y-37250D01*
D34*
X-251250Y55000D03*
D33*
X-312500Y68750D02*
X-312500Y37500D01*
X-312500Y68750D02*
X-270000Y111250D01*
X-270000Y138750D01*
X-312500Y37500D02*
X-313650Y37250D01*
D34*
X-270000Y138750D03*
D33*
X-263750Y80000D02*
X-306250Y37500D01*
X-263750Y80000D02*
X-263750Y131250D01*
X-306250Y37500D02*
X-307150Y37250D01*
D34*
X-263750Y131250D03*
D33*
X97500Y86250D02*
X98750Y87500D01*
X97500Y86250D02*
X97500Y78750D01*
X47500Y28750D01*
X98750Y87500D02*
X99250Y88050D01*
D34*
X47500Y28750D03*
D33*
X-378750Y-37500D02*
X-386250Y-37500D01*
X-378750Y-37500D02*
X-378650Y-37250D01*
D34*
X-386250Y-37500D03*
D33*
X95000Y513750D02*
X86250Y522500D01*
X86250Y545000D01*
D34*
X95000Y513750D03*
X86250Y545000D03*
D33*
X291250Y423750D02*
X297500Y417500D01*
X291250Y423750D02*
X291250Y450000D01*
D34*
X297500Y417500D03*
X291250Y450000D03*
D33*
X-85000Y-541250D02*
X-80000Y-546250D01*
X-85000Y-541250D02*
X-85000Y-522500D01*
D34*
X-80000Y-546250D03*
X-85000Y-522500D03*
D33*
X-191250Y-513750D02*
X-191250Y-493750D01*
D34*
X-191250Y-493750D03*
X-191250Y-513750D03*
D33*
X-441250Y-298750D02*
X-443750Y-301250D01*
X-441250Y-298750D02*
X-441250Y-237500D01*
D34*
X-443750Y-301250D03*
X-441250Y-237500D03*
D33*
X-482500Y-193750D02*
X-505000Y-216250D01*
X-482500Y-193750D02*
X-482500Y-165000D01*
D34*
X-505000Y-216250D03*
X-482500Y-165000D03*
D33*
X-116250Y507500D02*
X-141250Y532500D01*
D34*
X-141250Y532500D03*
X-116250Y507500D03*
D33*
X383750Y353750D02*
X396250Y341250D01*
X383750Y353750D02*
X383750Y382500D01*
D34*
X396250Y341250D03*
X383750Y382500D03*
D33*
X-383750Y-353750D02*
X-397500Y-340000D01*
X-383750Y-353750D02*
X-383750Y-387500D01*
D34*
X-397500Y-340000D03*
X-383750Y-387500D03*
D33*
X-520000Y-10000D02*
X-511250Y-1250D01*
X-511250Y26250D01*
D34*
X-520000Y-10000D03*
X-511250Y26250D03*
D33*
X23750Y-538750D02*
X27500Y-542500D01*
X23750Y-538750D02*
X23750Y-530000D01*
D34*
X27500Y-542500D03*
X23750Y-530000D03*
D33*
X-375000Y-132500D02*
X-365000Y-122500D01*
X-375000Y-132500D02*
X-375000Y-172500D01*
X-392500Y-190000D01*
X-393700Y-190500D01*
X-27500Y328750D02*
X-26250Y330000D01*
X-27500Y328750D02*
X-27500Y2500D01*
X-30000Y0D01*
X-30000Y-110000D01*
X-26250Y330000D02*
X-25400Y330200D01*
D34*
X-365000Y-122500D03*
X-30000Y-110000D03*
D33*
X-50000Y-88750D02*
X-40000Y-78750D01*
X-40000Y320000D01*
X-50000Y330000D01*
X-50000Y-88750D02*
X-50800Y-88900D01*
X-50000Y330000D02*
X-50800Y330200D01*
X-61250Y-150000D02*
X-63750Y-152500D01*
X-61250Y-150000D02*
X-61250Y-100000D01*
X-51250Y-90000D01*
X-50800Y-88900D01*
D34*
X-63750Y-152500D03*
D33*
X0Y-72800D02*
X0Y153750D01*
D34*
X0Y153750D03*
D35*
X202692Y108815D02*
X203200Y108307D01*
X202692Y108815D02*
X202692Y152400D01*
X202692Y187960D01*
X279400Y101600D02*
X368300Y101600D01*
X279400Y101600D02*
X241300Y139700D01*
X215392Y139700D01*
X202692Y152400D01*
X192532Y177800D02*
X139700Y177800D01*
X192532Y177800D02*
X202692Y187960D01*
D33*
X156250Y355000D02*
X126250Y355000D01*
X156250Y355000D02*
X156948Y355600D01*
D34*
X126250Y355000D03*
D33*
X173750Y355000D02*
X202500Y355000D01*
X173750Y355000D02*
X173252Y355600D01*
X202500Y355000D02*
X203200Y354974D01*
X-98750Y-193750D02*
X-51250Y-241250D01*
X-98750Y-193750D02*
X-98750Y51250D01*
X-193750Y146250D01*
X-193750Y232500D01*
X-51250Y-241250D02*
X-50800Y-241300D01*
D34*
X-193750Y232500D03*
D33*
X-50000Y-216250D02*
X-40000Y-226250D01*
X-40000Y-245000D01*
X-46250Y-251250D01*
X-92500Y-251250D01*
X-92500Y-205000D01*
X-102500Y-195000D01*
X-102500Y-17500D01*
X-215000Y95000D01*
X-215000Y242500D01*
X-263750Y291250D01*
X-278750Y291250D01*
X-50800Y-215900D02*
X-50000Y-216250D01*
X-278750Y291250D02*
X-279400Y292100D01*
X-128750Y90000D02*
X-96250Y57500D01*
X-128750Y90000D02*
X-128750Y306250D01*
X-165000Y342500D01*
X-165100Y342900D01*
D34*
X-96250Y57500D03*
D33*
X-90000Y52500D02*
X-88750Y51250D01*
X-90000Y52500D02*
X-90000Y292500D01*
X-165000Y367500D01*
X-165100Y368300D01*
D34*
X-88750Y51250D03*
D33*
X12500Y-62500D02*
X12500Y190000D01*
X12500Y-62500D02*
X48750Y-98750D01*
X48750Y-140000D01*
X12500Y190000D02*
X12700Y190500D01*
D34*
X48750Y-140000D03*
D33*
X117500Y111250D02*
X38750Y190000D01*
X117500Y111250D02*
X117500Y-165000D01*
X151250Y-198750D01*
X38750Y190000D02*
X38100Y190500D01*
X151250Y-198750D02*
X152400Y-199800D01*
X98750Y155000D02*
X63750Y190000D01*
X98750Y155000D02*
X121250Y155000D01*
X121250Y-143750D01*
X151250Y-173750D01*
X63750Y190000D02*
X63500Y190500D01*
X151250Y-173750D02*
X152400Y-174400D01*
X125000Y180000D02*
X116250Y188750D01*
X125000Y180000D02*
X125000Y-122500D01*
X151250Y-148750D01*
X152400Y-149000D01*
D34*
X116250Y188750D03*
D33*
X-381250Y126250D02*
X-392500Y115000D01*
X-392500Y-45000D01*
X-381250Y126250D02*
X-381000Y127000D01*
D34*
X-392500Y-45000D03*
D33*
X-386250Y96250D02*
X-356250Y126250D01*
X-386250Y96250D02*
X-386250Y-22500D01*
X-356250Y126250D02*
X-355600Y127000D01*
D34*
X-386250Y-22500D03*
D33*
X-20000Y122500D02*
X-17500Y125000D01*
X-20000Y122500D02*
X-20000Y5000D01*
X-25000Y0D01*
X-25000Y-97500D01*
X0Y-122500D01*
X0Y-123600D01*
D34*
X-17500Y125000D03*
D33*
X-18750Y-2500D02*
X-12500Y-8750D01*
X-12500Y-85000D01*
X0Y-97500D01*
X0Y-98200D01*
D34*
X-18750Y-2500D03*
D33*
X-278750Y-85000D02*
X-278750Y-90000D01*
X-278750Y-105000D01*
X-279400Y-106148D01*
X-278750Y-85000D02*
X-279400Y-84352D01*
X-278750Y-90000D02*
X-228750Y-90000D01*
X-228600Y-88900D01*
X-3750Y486250D02*
X10000Y500000D01*
X-3750Y486250D02*
X-3750Y402500D01*
X-62500Y343750D01*
X-62500Y253750D01*
X-51250Y242500D01*
X-50800Y241300D01*
D34*
X10000Y500000D03*
D33*
X197500Y-136250D02*
X215000Y-136250D01*
X-268750Y-128750D02*
X-278750Y-128750D01*
X-278750Y-122500D01*
X215000Y-136250D02*
X215900Y-135152D01*
X-278750Y-122500D02*
X-279400Y-122452D01*
D34*
X197500Y-136250D03*
X-268750Y-128750D03*
D33*
X216250Y-118750D02*
X216250Y-95000D01*
X216250Y-118750D02*
X215900Y-118848D01*
X216250Y-95000D02*
X215900Y-94817D01*
X290000Y243750D02*
X277500Y256250D01*
X277500Y327500D01*
X278750Y328750D01*
X290000Y243750D02*
X290203Y243586D01*
X278750Y328750D02*
X279400Y329574D01*
X280000Y330000D02*
X308750Y330000D01*
X309348Y330200D01*
X280000Y330000D02*
X279400Y329574D01*
D35*
X228092Y236250D02*
X228092Y187960D01*
X228092Y236250D02*
X228092Y241808D01*
X203200Y266700D01*
X215384Y266700D01*
X152400Y266700D01*
X139700Y279400D01*
D33*
X291250Y266250D02*
X297500Y260000D01*
X297500Y237500D01*
X296250Y236250D01*
X228092Y236250D01*
X290203Y266700D02*
X291250Y266250D01*
X-228600Y88900D02*
X-302500Y15000D01*
D34*
X-302500Y15000D03*
D33*
X-247500Y95000D02*
X-228750Y113750D01*
X-247500Y95000D02*
X-247500Y78750D01*
X-312500Y13750D01*
X-228750Y113750D02*
X-228600Y114300D01*
D34*
X-312500Y13750D03*
D33*
X-251250Y116250D02*
X-228750Y138750D01*
X-251250Y116250D02*
X-251250Y83750D01*
X-298750Y36250D01*
X-228750Y138750D02*
X-228600Y139700D01*
D34*
X-298750Y36250D03*
D33*
X-257500Y136250D02*
X-228750Y165000D01*
X-257500Y136250D02*
X-257500Y107500D01*
X-228750Y165000D02*
X-228600Y165100D01*
D34*
X-257500Y107500D03*
D35*
X251849Y-160121D02*
X259770Y-152200D01*
X251849Y-160121D02*
X251849Y-231500D01*
D33*
X-238750Y-417500D02*
X-262500Y-441250D01*
X-238750Y-417500D02*
X-238750Y-226250D01*
X-228750Y-216250D01*
X-228600Y-215900D01*
X-165000Y393750D02*
X-165000Y461250D01*
X-165000Y393750D02*
X-165100Y393700D01*
X216250Y-186250D02*
X216250Y-207500D01*
X215900Y-208154D01*
X216250Y-186250D02*
X215900Y-185546D01*
X208750Y-457500D02*
X220000Y-468750D01*
X208750Y-253750D02*
X208750Y-215000D01*
X208750Y-253750D02*
X208750Y-457500D01*
X208750Y-215000D02*
X215000Y-208750D01*
X215900Y-208154D01*
X242500Y-235000D02*
X223750Y-253750D01*
X208750Y-253750D01*
X242500Y-235000D02*
X251849Y-231500D01*
X253750Y-241250D02*
X288750Y-276250D01*
X288750Y-308750D01*
X326250Y-346250D01*
X326250Y-386250D01*
X253750Y-241250D02*
X251849Y-231500D01*
X531250Y137500D02*
X528750Y140000D01*
X531250Y137500D02*
X531250Y81250D01*
X528750Y140000D02*
X505000Y163750D01*
X505000Y216250D01*
X482500Y238750D01*
X482500Y242500D01*
X532500Y-113750D02*
X533750Y-115000D01*
X532500Y-113750D02*
X532500Y-11250D01*
X540000Y-3750D01*
X540000Y72500D01*
X531250Y81250D01*
X-505000Y81250D02*
X-516250Y70000D01*
X-505000Y81250D02*
X-505000Y106250D01*
D34*
X-262500Y-441250D03*
X-165000Y461250D03*
X220000Y-468750D03*
X326250Y-386250D03*
X528750Y140000D03*
X531250Y81250D03*
X482500Y242500D03*
X533750Y-115000D03*
X-516250Y70000D03*
X-505000Y106250D03*
D36*
X368300Y-25400D03*
D35*
X241300Y95607D02*
X228600Y108307D01*
X241300Y95607D02*
X241300Y25000D01*
X241300Y12700D01*
X215900Y-12700D01*
X203200Y-12700D01*
X450944Y-6444D02*
X457200Y-12700D01*
X450944Y-6444D02*
X441650Y-6444D01*
X406400Y28806D01*
X406400Y139700D01*
X368300Y177800D01*
X307086Y289814D02*
X290203Y289814D01*
X307086Y289814D02*
X368300Y228600D01*
X368300Y177800D01*
D33*
X216250Y-223750D02*
X216250Y-246250D01*
X215900Y-246254D01*
X216250Y-223750D02*
X215900Y-223646D01*
X148750Y-12500D02*
X152500Y-8750D01*
X152500Y5000D01*
X172500Y25000D01*
X241300Y25000D01*
X148750Y-12500D02*
X147852Y-12700D01*
X311250Y316250D02*
X325000Y330000D01*
X311250Y316250D02*
X311250Y298750D01*
X325000Y330000D02*
X325652Y330200D01*
X311250Y298750D02*
X307086Y289814D01*
X238750Y-200000D02*
X216250Y-222500D01*
X238750Y-200000D02*
X238750Y-143750D01*
X255000Y-127500D01*
X362500Y-127500D01*
X216250Y-222500D02*
X215900Y-223646D01*
X362500Y-127500D02*
X362520Y-126800D01*
X215000Y-170000D02*
X191250Y-146250D01*
X191250Y-111250D02*
X191250Y-97500D01*
X191250Y-111250D02*
X191250Y-146250D01*
X215000Y-170000D02*
X215900Y-170054D01*
X191250Y-97500D02*
X190500Y-96646D01*
X140000Y-21250D02*
X132500Y-13750D01*
X140000Y-21250D02*
X140000Y-103750D01*
X147500Y-111250D01*
X191250Y-111250D01*
X132500Y-13750D02*
X131548Y-12700D01*
X-193750Y-457500D02*
X-131250Y-520000D01*
X-131250Y-535000D01*
X-125000Y-541250D01*
X-106250Y-541250D01*
X-106250Y-496250D01*
X-93750Y-483750D01*
X-193750Y-457500D02*
X-194700Y-457200D01*
X-93750Y-483750D02*
X-93100Y-482600D01*
X82500Y-495000D02*
X92500Y-495000D01*
X82500Y-495000D02*
X8750Y-495000D01*
X92500Y-495000D02*
X92500Y-483750D01*
X8750Y-495000D02*
X8500Y-495300D01*
X92500Y-483750D02*
X93100Y-482600D01*
X118750Y-520000D02*
X181250Y-457500D01*
X118750Y-520000D02*
X103750Y-520000D01*
X103750Y-533750D01*
X96250Y-541250D01*
X82500Y-541250D01*
X82500Y-495000D01*
X181250Y-457500D02*
X182000Y-457200D01*
X230000Y-435000D02*
X257500Y-407500D01*
X230000Y-436250D02*
X230000Y-505000D01*
X230000Y-436250D02*
X230000Y-435000D01*
X230000Y-505000D02*
X223750Y-511250D01*
X182500Y-511250D01*
X182500Y-457500D01*
X257500Y-407500D02*
X258200Y-406400D01*
X182500Y-457500D02*
X182000Y-457200D01*
X-20000Y-482500D02*
X-92500Y-482500D01*
X-20000Y-482500D02*
X-20000Y-481250D01*
X-16250Y-477500D01*
X7500Y-477500D01*
X7500Y-495000D01*
X-92500Y-482500D02*
X-93100Y-482600D01*
X7500Y-495000D02*
X8500Y-495300D01*
X182500Y-203750D02*
X215000Y-171250D01*
X182500Y-203750D02*
X182500Y-456250D01*
X215000Y-171250D02*
X215900Y-170054D01*
X182500Y-456250D02*
X182000Y-457200D01*
X335000Y-342500D02*
X340000Y-337500D01*
X340000Y-323750D01*
X385000Y-278750D01*
X385000Y-267500D01*
X335000Y-342500D02*
X334400Y-342900D01*
X385000Y-267500D02*
X385200Y-266700D01*
X451250Y-193750D02*
X447500Y-190000D01*
X451250Y-193750D02*
X456250Y-198750D01*
X447500Y-190000D02*
X447500Y-132500D01*
X461250Y-118750D02*
X469900Y-110100D01*
X461250Y-118750D02*
X447500Y-132500D01*
X456250Y-198750D02*
X457200Y-199000D01*
X461250Y-118750D02*
X461250Y-63750D01*
X461400Y-63500D01*
X392500Y-260000D02*
X386250Y-266250D01*
X392500Y-260000D02*
X392500Y-252500D01*
X437500Y-207500D02*
X451250Y-193750D01*
X437500Y-207500D02*
X392500Y-252500D01*
X386250Y-266250D02*
X385200Y-266700D01*
X-276250Y-413750D02*
X-283600Y-406400D01*
X-276250Y-413750D02*
X-276250Y-421250D01*
X230000Y-436250D02*
X232500Y-436250D01*
X-410000Y-140000D02*
X-421250Y-151250D01*
X-443750Y-173750D01*
X-447500Y-177500D01*
X-410000Y-140000D02*
X-393750Y-140000D01*
X-447500Y-177500D02*
X-448700Y-177800D01*
X-393750Y-140000D02*
X-393700Y-139700D01*
X-443750Y-120000D02*
X-461250Y-102500D01*
X-443750Y-120000D02*
X-443750Y-173750D01*
X-461250Y-102500D02*
X-461400Y-101600D01*
X-443750Y-173750D02*
X-448700Y-177800D01*
X-421250Y-243750D02*
X-411250Y-253750D01*
X-421250Y-243750D02*
X-421250Y-151250D01*
X-411250Y-253750D02*
X-410600Y-254000D01*
X-410000Y-280000D02*
X-391250Y-298750D01*
X-359800Y-330200D01*
X-410000Y-280000D02*
X-410000Y-255000D01*
X-410600Y-254000D01*
X-486250Y0D02*
X-462500Y23750D01*
X-462500Y45000D01*
X-445000Y62500D01*
X-486250Y0D02*
X-486800Y0D01*
X-445000Y62500D02*
X-444500Y63500D01*
X-445000Y72500D02*
X-451250Y78750D01*
X-474100Y101600D01*
X-445000Y72500D02*
X-445000Y63750D01*
X-444500Y63500D01*
X-451250Y187500D02*
X-448750Y190000D01*
X-451250Y126250D02*
X-451250Y78750D01*
X-451250Y126250D02*
X-451250Y187500D01*
X-448750Y190000D02*
X-448700Y190500D01*
X-421250Y256250D02*
X-411250Y266250D01*
X-421250Y243750D02*
X-421250Y156250D01*
X-421250Y243750D02*
X-421250Y256250D01*
X-421250Y156250D02*
X-451250Y126250D01*
X-411250Y266250D02*
X-410600Y266700D01*
X-487500Y0D02*
X-501250Y-13750D01*
X-487500Y0D02*
X-486800Y0D01*
X-501250Y-62500D02*
X-462500Y-101250D01*
X-501250Y-62500D02*
X-501250Y-13750D01*
X-462500Y-101250D02*
X-461400Y-101600D01*
X-227500Y-190000D02*
X-218750Y-181250D01*
X-218750Y-72500D01*
X-227500Y-63750D01*
X-227500Y-190000D02*
X-228600Y-190500D01*
X-227500Y-63750D02*
X-228600Y-63500D01*
X-218750Y53750D02*
X-227500Y62500D01*
X-218750Y53750D02*
X-218750Y-72500D01*
X-227500Y62500D02*
X-228600Y63500D01*
X-306250Y-41250D02*
X-280000Y-67500D01*
X-306250Y-41250D02*
X-306250Y-37500D01*
X-280000Y-67500D02*
X-279400Y-68048D01*
X-306250Y-37500D02*
X-307150Y-37250D01*
X-318750Y35000D02*
X-320000Y36250D01*
X-318750Y35000D02*
X-318750Y-13750D01*
X-307500Y-25000D01*
X-307500Y-36250D01*
X-320000Y36250D02*
X-320150Y37250D01*
X-307500Y-36250D02*
X-307150Y-37250D01*
X-228750Y191250D02*
X-278750Y241250D01*
X-278750Y266250D01*
X-228750Y191250D02*
X-228600Y190500D01*
X-278750Y266250D02*
X-279400Y266700D01*
X-318750Y38750D02*
X-320000Y37500D01*
X-318750Y38750D02*
X-318750Y67500D01*
X-276250Y110000D01*
X-276250Y142500D01*
X-233750Y185000D02*
X-228750Y190000D01*
X-233750Y185000D02*
X-276250Y142500D01*
X-320000Y37500D02*
X-320150Y37250D01*
X-228750Y190000D02*
X-228600Y190500D01*
X-218750Y72500D02*
X-227500Y63750D01*
X-218750Y72500D02*
X-218750Y170000D01*
X-233750Y185000D01*
X-227500Y63750D02*
X-228600Y63500D01*
X-233750Y185000D02*
X-228600Y190500D01*
X360000Y278750D02*
X385000Y253750D01*
X360000Y278750D02*
X359800Y279400D01*
X385200Y254000D02*
X385000Y253750D01*
X360000Y313750D02*
X361250Y315000D01*
X367500Y321250D01*
X360000Y313750D02*
X360000Y280000D01*
X367500Y321250D02*
X368300Y321700D01*
X360000Y280000D02*
X359800Y279400D01*
X418750Y105000D02*
X447500Y76250D01*
X418750Y203750D02*
X418750Y221250D01*
X418750Y203750D02*
X418750Y105000D01*
X418750Y221250D02*
X386250Y253750D01*
X447500Y76250D02*
X448700Y76200D01*
X386250Y253750D02*
X385200Y254000D01*
X361250Y316250D02*
X292500Y385000D01*
X361250Y316250D02*
X361250Y315000D01*
X292500Y385000D02*
X292100Y385200D01*
X265000Y386250D02*
X262500Y388750D01*
X216250Y435000D01*
X203750Y447500D01*
X265000Y386250D02*
X291250Y386250D01*
X203750Y447500D02*
X203200Y448700D01*
X291250Y386250D02*
X292100Y385200D01*
X418750Y203750D02*
X435000Y203750D01*
X262500Y388750D02*
X203750Y330000D01*
X203200Y329574D01*
X448750Y75000D02*
X457500Y66250D01*
X448750Y75000D02*
X448700Y76200D01*
X40000Y51250D02*
X40000Y13750D01*
X40000Y51250D02*
X26250Y65000D01*
X26250Y86250D01*
X27500Y87500D01*
X40000Y13750D02*
X40750Y13550D01*
X27500Y87500D02*
X27750Y88050D01*
X-61250Y-52500D02*
X-51250Y-62500D01*
X-61250Y-52500D02*
X-61250Y52500D01*
X-51250Y62500D01*
X-51250Y-62500D02*
X-50800Y-63500D01*
X-51250Y62500D02*
X-50800Y63500D01*
X-61250Y180000D02*
X-51250Y190000D01*
X-61250Y180000D02*
X-61250Y52500D01*
X-51250Y190000D02*
X-50800Y190500D01*
X18750Y65000D02*
X26250Y65000D01*
X-70000Y-171250D02*
X-51250Y-190000D01*
X-70000Y-171250D02*
X-70000Y-82500D01*
X-51250Y-63750D01*
X-51250Y-190000D02*
X-50800Y-190500D01*
X-51250Y-63750D02*
X-50800Y-63500D01*
X-23750Y495000D02*
X-13750Y495000D01*
X-23750Y495000D02*
X-75000Y495000D01*
X-92500Y495000D01*
X-13750Y495000D02*
X-13750Y487500D01*
X-92500Y495000D02*
X-93100Y495300D01*
X-13750Y487500D02*
X-12700Y486800D01*
X23750Y552500D02*
X101250Y475000D01*
X23750Y552500D02*
X-23750Y552500D01*
X-23750Y495000D01*
X101250Y475000D02*
X101600Y474100D01*
X-335000Y355000D02*
X-347100Y342900D01*
X-335000Y355000D02*
X-335000Y447500D01*
X-326250Y456250D01*
X-271250Y456250D01*
X-271250Y420000D02*
X-271250Y407500D01*
X-271250Y420000D02*
X-271250Y456250D01*
X-271250Y407500D02*
X-270900Y406400D01*
X-183750Y455000D02*
X-182500Y456250D01*
X-183750Y455000D02*
X-183750Y335000D01*
X-166250Y317500D01*
X-182500Y456250D02*
X-182000Y457200D01*
X-166250Y317500D02*
X-165100Y317500D01*
X-271250Y456250D02*
X-242500Y485000D01*
X-242500Y502500D01*
X-233750Y511250D01*
X-182500Y511250D01*
X-182500Y457500D01*
X-182000Y457200D01*
X-75000Y495000D02*
X-75000Y331250D01*
X-76200Y330200D01*
X-75000Y215000D02*
X-51250Y191250D01*
X-75000Y215000D02*
X-75000Y330000D01*
X-51250Y191250D02*
X-50800Y190500D01*
X-75000Y330000D02*
X-76200Y330200D01*
D34*
X-276250Y-421250D03*
X437500Y-207500D03*
X232500Y-436250D03*
X-501250Y-13750D03*
X-421250Y243750D03*
X435000Y203750D03*
X457500Y66250D03*
X18750Y65000D03*
X-271250Y420000D03*
X216250Y435000D03*
X-391250Y-298750D03*
D36*
X368300Y25400D03*
D35*
X259770Y-101400D02*
X234570Y-76200D01*
X215000Y-76200D01*
X190500Y-76200D01*
X165100Y-50800D01*
X165100Y0D01*
X177800Y12700D01*
X203200Y12700D01*
D33*
X191250Y-80000D02*
X190500Y-81154D01*
X191250Y-80000D02*
X190500Y-76200D01*
X215000Y-76200D02*
X215000Y-77500D01*
X215900Y-78513D01*
M02*
