G04 EAGLE Gerber RS-274X export*
G75*
%MOMM*%
%FSLAX34Y34*%
%LPD*%
%IN*%
%IPPOS*%
%AMOC8*
5,1,8,0,0,1.08239X$1,22.5*%
G01*
G04 Define Apertures*
%ADD10C,0.254000*%
D10*
X-605000Y-30000D02*
X-574217Y-30000D01*
X-569417Y-79932D01*
X-560284Y-129256D01*
X-546886Y-177596D01*
X-529327Y-224585D01*
X-507739Y-269864D01*
X-482286Y-313089D01*
X-453164Y-353932D01*
X-420592Y-392081D01*
X-384819Y-427246D01*
X-346118Y-459159D01*
X-304783Y-487578D01*
X-261128Y-512286D01*
X-215485Y-533096D01*
X-168203Y-549848D01*
X-119641Y-562416D01*
X-70168Y-570703D01*
X-30000Y-574217D01*
X-30000Y-605000D01*
X-29886Y-607615D01*
X-29544Y-610209D01*
X-28978Y-612765D01*
X-28191Y-615261D01*
X-27189Y-617679D01*
X-25981Y-620000D01*
X-24575Y-622207D01*
X-22981Y-624284D01*
X-21213Y-626213D01*
X-19284Y-627981D01*
X-17207Y-629575D01*
X-15000Y-630981D01*
X-12679Y-632189D01*
X-10261Y-633191D01*
X-7765Y-633978D01*
X-5209Y-634544D01*
X-2615Y-634886D01*
X0Y-635000D01*
X2615Y-634886D01*
X5209Y-634544D01*
X7765Y-633978D01*
X10261Y-633191D01*
X12679Y-632189D01*
X15000Y-630981D01*
X17207Y-629575D01*
X19284Y-627981D01*
X21213Y-626213D01*
X22981Y-624284D01*
X24575Y-622207D01*
X25981Y-620000D01*
X27189Y-617679D01*
X28191Y-615261D01*
X28978Y-612765D01*
X29544Y-610209D01*
X29886Y-607615D01*
X30000Y-605000D01*
X30000Y-574217D01*
X79932Y-569417D01*
X129256Y-560284D01*
X177596Y-546886D01*
X224585Y-529327D01*
X269864Y-507739D01*
X313089Y-482286D01*
X353932Y-453164D01*
X392081Y-420592D01*
X427246Y-384819D01*
X459159Y-346118D01*
X487578Y-304783D01*
X512286Y-261128D01*
X533096Y-215485D01*
X549848Y-168203D01*
X562416Y-119641D01*
X570703Y-70168D01*
X574217Y-30000D01*
X605000Y-30000D01*
X607615Y-29886D01*
X610209Y-29544D01*
X612765Y-28978D01*
X615261Y-28191D01*
X617679Y-27189D01*
X620000Y-25981D01*
X622207Y-24575D01*
X624284Y-22981D01*
X626213Y-21213D01*
X627981Y-19284D01*
X629575Y-17207D01*
X630981Y-15000D01*
X632189Y-12679D01*
X633191Y-10261D01*
X633978Y-7765D01*
X634544Y-5209D01*
X634886Y-2615D01*
X635000Y0D01*
X634886Y2615D01*
X634544Y5209D01*
X633978Y7765D01*
X633191Y10261D01*
X632189Y12679D01*
X630981Y15000D01*
X629575Y17207D01*
X627981Y19284D01*
X626213Y21213D01*
X624284Y22981D01*
X622207Y24575D01*
X620000Y25981D01*
X617679Y27189D01*
X615261Y28191D01*
X612765Y28978D01*
X610209Y29544D01*
X607615Y29886D01*
X605000Y30000D01*
X574217Y30000D01*
X569417Y79932D01*
X560284Y129256D01*
X546886Y177596D01*
X529327Y224585D01*
X507739Y269864D01*
X482286Y313089D01*
X453164Y353932D01*
X420592Y392081D01*
X384819Y427246D01*
X346118Y459159D01*
X304783Y487578D01*
X261128Y512286D01*
X215485Y533096D01*
X168203Y549848D01*
X119641Y562416D01*
X70168Y570703D01*
X30000Y574217D01*
X30000Y605000D01*
X29886Y607615D01*
X29544Y610209D01*
X28978Y612765D01*
X28191Y615261D01*
X27189Y617679D01*
X25981Y620000D01*
X24575Y622207D01*
X22981Y624284D01*
X21213Y626213D01*
X19284Y627981D01*
X17207Y629575D01*
X15000Y630981D01*
X12679Y632189D01*
X10261Y633191D01*
X7765Y633978D01*
X5209Y634544D01*
X2615Y634886D01*
X0Y635000D01*
X-2615Y634886D01*
X-5209Y634544D01*
X-7765Y633978D01*
X-10261Y633191D01*
X-12679Y632189D01*
X-15000Y630981D01*
X-17207Y629575D01*
X-19284Y627981D01*
X-21213Y626213D01*
X-22981Y624284D01*
X-24575Y622207D01*
X-25981Y620000D01*
X-27189Y617679D01*
X-28191Y615261D01*
X-28978Y612765D01*
X-29544Y610209D01*
X-29886Y607615D01*
X-30000Y605000D01*
X-30000Y574217D01*
X-79932Y569417D01*
X-129256Y560284D01*
X-177596Y546886D01*
X-224585Y529327D01*
X-269864Y507739D01*
X-313089Y482286D01*
X-353932Y453164D01*
X-392081Y420592D01*
X-427246Y384819D01*
X-459159Y346118D01*
X-487578Y304783D01*
X-512286Y261128D01*
X-533096Y215485D01*
X-549848Y168203D01*
X-562416Y119641D01*
X-570703Y70168D01*
X-574217Y30000D01*
X-605000Y30000D01*
X-607615Y29886D01*
X-610209Y29544D01*
X-612765Y28978D01*
X-615261Y28191D01*
X-617679Y27189D01*
X-620000Y25981D01*
X-622207Y24575D01*
X-624284Y22981D01*
X-626213Y21213D01*
X-627981Y19284D01*
X-629575Y17207D01*
X-630981Y15000D01*
X-632189Y12679D01*
X-633191Y10261D01*
X-633978Y7765D01*
X-634544Y5209D01*
X-634886Y2615D01*
X-635000Y0D01*
X-634886Y-2615D01*
X-634544Y-5209D01*
X-633978Y-7765D01*
X-633191Y-10261D01*
X-632189Y-12679D01*
X-630981Y-15000D01*
X-629575Y-17207D01*
X-627981Y-19284D01*
X-626213Y-21213D01*
X-624284Y-22981D01*
X-622207Y-24575D01*
X-620000Y-25981D01*
X-617679Y-27189D01*
X-615261Y-28191D01*
X-612765Y-28978D01*
X-610209Y-29544D01*
X-607615Y-29886D01*
X-605000Y-30000D01*
M02*
