G04 EAGLE Gerber RS-274X export*
G75*
%MOMM*%
%FSLAX34Y34*%
%LPD*%
%INSoldermask Bottom*%
%IPPOS*%
%AMOC8*
5,1,8,0,0,1.08239X$1,22.5*%
G01*
G04 Define Apertures*
%ADD10C,3.403200*%
%ADD11P,3.62904X8X112.5*%
%ADD12C,3.352800*%
%ADD13R,1.703200X1.103200*%
%ADD14R,1.103200X1.703200*%
%ADD15C,1.879600*%
%ADD16C,2.203200*%
%ADD17C,1.710300*%
%ADD18C,1.711200*%
%ADD19C,2.003200*%
%ADD20C,1.703200*%
%ADD21R,1.524000X1.524000*%
%ADD22C,1.524000*%
%ADD23C,1.981200*%
%ADD24C,1.727200*%
%ADD25C,1.727200*%
%ADD26C,0.959600*%
%ADD27C,3.053200*%
D10*
X605000Y0D03*
X0Y-605000D03*
X-605000Y0D03*
X0Y605000D03*
D11*
X368300Y177800D03*
D12*
X368300Y101600D03*
D13*
G36*
X74008Y506241D02*
X70671Y489540D01*
X59854Y491701D01*
X63191Y508402D01*
X74008Y506241D01*
G37*
G36*
X41648Y512707D02*
X38311Y496006D01*
X27494Y498167D01*
X30831Y514868D01*
X41648Y512707D01*
G37*
G36*
X83609Y554291D02*
X80272Y537590D01*
X69455Y539751D01*
X72792Y556452D01*
X83609Y554291D01*
G37*
G36*
X51249Y560757D02*
X47912Y544056D01*
X37095Y546217D01*
X40432Y562918D01*
X51249Y560757D01*
G37*
G36*
X481163Y-166745D02*
X465691Y-159628D01*
X470301Y-149607D01*
X485773Y-156724D01*
X481163Y-166745D01*
G37*
G36*
X494952Y-136764D02*
X479480Y-129647D01*
X484090Y-119626D01*
X499562Y-126743D01*
X494952Y-136764D01*
G37*
G36*
X525679Y-187220D02*
X510207Y-180103D01*
X514817Y-170082D01*
X530289Y-177199D01*
X525679Y-187220D01*
G37*
G36*
X539469Y-157239D02*
X523997Y-150122D01*
X528607Y-140101D01*
X544079Y-147218D01*
X539469Y-157239D01*
G37*
G36*
X441161Y-260221D02*
X426578Y-251424D01*
X432277Y-241979D01*
X446860Y-250776D01*
X441161Y-260221D01*
G37*
G36*
X458207Y-231964D02*
X443624Y-223167D01*
X449323Y-213722D01*
X463906Y-222519D01*
X458207Y-231964D01*
G37*
G36*
X483119Y-285531D02*
X468536Y-276734D01*
X474235Y-267289D01*
X488818Y-276086D01*
X483119Y-285531D01*
G37*
G36*
X500164Y-257274D02*
X485581Y-248477D01*
X491280Y-239032D01*
X505863Y-247829D01*
X500164Y-257274D01*
G37*
G36*
X379530Y-337005D02*
X367487Y-324962D01*
X375288Y-317161D01*
X387331Y-329204D01*
X379530Y-337005D01*
G37*
G36*
X402864Y-313671D02*
X390821Y-301628D01*
X398622Y-293827D01*
X410665Y-305870D01*
X402864Y-313671D01*
G37*
G36*
X414178Y-371653D02*
X402135Y-359610D01*
X409936Y-351809D01*
X421979Y-363852D01*
X414178Y-371653D01*
G37*
G36*
X437512Y-348319D02*
X425469Y-336276D01*
X433270Y-328475D01*
X445313Y-340518D01*
X437512Y-348319D01*
G37*
G36*
X310074Y-410953D02*
X298612Y-398356D01*
X306772Y-390931D01*
X318234Y-403528D01*
X310074Y-410953D01*
G37*
G36*
X334482Y-388744D02*
X323020Y-376147D01*
X331180Y-368722D01*
X342642Y-381319D01*
X334482Y-388744D01*
G37*
G36*
X343051Y-447195D02*
X331589Y-434598D01*
X339749Y-427173D01*
X351211Y-439770D01*
X343051Y-447195D01*
G37*
G36*
X367459Y-424986D02*
X355997Y-412389D01*
X364157Y-404964D01*
X375619Y-417561D01*
X367459Y-424986D01*
G37*
G36*
X221068Y-464931D02*
X211619Y-450762D01*
X220798Y-444641D01*
X230247Y-458810D01*
X221068Y-464931D01*
G37*
G36*
X248523Y-446621D02*
X239074Y-432452D01*
X248253Y-426331D01*
X257702Y-440500D01*
X248523Y-446621D01*
G37*
G36*
X248255Y-505697D02*
X238806Y-491528D01*
X247985Y-485407D01*
X257434Y-499576D01*
X248255Y-505697D01*
G37*
G36*
X275710Y-487387D02*
X266261Y-473218D01*
X275440Y-467097D01*
X284889Y-481266D01*
X275710Y-487387D01*
G37*
G36*
X127750Y-499383D02*
X120390Y-484024D01*
X130338Y-479257D01*
X137698Y-494616D01*
X127750Y-499383D01*
G37*
G36*
X157510Y-485124D02*
X150150Y-469765D01*
X160098Y-464998D01*
X167458Y-480357D01*
X157510Y-485124D01*
G37*
G36*
X148922Y-543573D02*
X141562Y-528214D01*
X151510Y-523447D01*
X158870Y-538806D01*
X148922Y-543573D01*
G37*
G36*
X178682Y-529314D02*
X171322Y-513955D01*
X181270Y-509188D01*
X188630Y-524547D01*
X178682Y-529314D01*
G37*
D14*
X37349Y-500702D03*
X70349Y-500702D03*
X37349Y-549702D03*
X70349Y-549702D03*
X-69678Y-500793D03*
X-36678Y-500793D03*
X-69678Y-549793D03*
X-36678Y-549793D03*
D13*
G36*
X-171997Y-480774D02*
X-165369Y-465085D01*
X-155207Y-469378D01*
X-161835Y-485067D01*
X-171997Y-480774D01*
G37*
G36*
X-141598Y-493615D02*
X-134970Y-477926D01*
X-124808Y-482219D01*
X-131436Y-497908D01*
X-141598Y-493615D01*
G37*
G36*
X-191064Y-525912D02*
X-184436Y-510223D01*
X-174274Y-514516D01*
X-180902Y-530205D01*
X-191064Y-525912D01*
G37*
G36*
X-160665Y-538754D02*
X-154037Y-523065D01*
X-143875Y-527358D01*
X-150503Y-543047D01*
X-160665Y-538754D01*
G37*
G36*
X-277044Y-434703D02*
X-268865Y-419765D01*
X-259190Y-425063D01*
X-267369Y-440001D01*
X-277044Y-434703D01*
G37*
G36*
X-248099Y-450550D02*
X-239920Y-435612D01*
X-230245Y-440910D01*
X-238424Y-455848D01*
X-248099Y-450550D01*
G37*
G36*
X-300575Y-477683D02*
X-292396Y-462745D01*
X-282721Y-468043D01*
X-290900Y-482981D01*
X-300575Y-477683D01*
G37*
G36*
X-271630Y-493530D02*
X-263451Y-478592D01*
X-253776Y-483890D01*
X-261955Y-498828D01*
X-271630Y-493530D01*
G37*
G36*
X179978Y480186D02*
X174069Y464213D01*
X163724Y468040D01*
X169633Y484013D01*
X179978Y480186D01*
G37*
G36*
X149028Y491635D02*
X143119Y475662D01*
X132774Y479489D01*
X138683Y495462D01*
X149028Y491635D01*
G37*
G36*
X196978Y526143D02*
X191069Y510170D01*
X180724Y513997D01*
X186633Y529970D01*
X196978Y526143D01*
G37*
G36*
X166028Y537592D02*
X160119Y521619D01*
X149774Y525446D01*
X155683Y541419D01*
X166028Y537592D01*
G37*
G36*
X-359921Y-367671D02*
X-348951Y-354643D01*
X-340513Y-361749D01*
X-351483Y-374777D01*
X-359921Y-367671D01*
G37*
G36*
X-334678Y-388927D02*
X-323708Y-375899D01*
X-315270Y-383005D01*
X-326240Y-396033D01*
X-334678Y-388927D01*
G37*
G36*
X-391483Y-405152D02*
X-380513Y-392124D01*
X-372075Y-399230D01*
X-383045Y-412258D01*
X-391483Y-405152D01*
G37*
G36*
X-366240Y-426408D02*
X-355270Y-413380D01*
X-346832Y-420486D01*
X-357802Y-433514D01*
X-366240Y-426408D01*
G37*
G36*
X-427615Y-285794D02*
X-413837Y-275783D01*
X-407353Y-284708D01*
X-421131Y-294719D01*
X-427615Y-285794D01*
G37*
G36*
X-408218Y-312492D02*
X-394440Y-302481D01*
X-387956Y-311406D01*
X-401734Y-321417D01*
X-408218Y-312492D01*
G37*
G36*
X-467257Y-314596D02*
X-453479Y-304585D01*
X-446995Y-313510D01*
X-460773Y-323521D01*
X-467257Y-314596D01*
G37*
G36*
X-447860Y-341294D02*
X-434082Y-331283D01*
X-427598Y-340208D01*
X-441376Y-350219D01*
X-447860Y-341294D01*
G37*
G36*
X-474737Y-201253D02*
X-460568Y-191804D01*
X-454447Y-200983D01*
X-468616Y-210432D01*
X-474737Y-201253D01*
G37*
G36*
X-456427Y-228708D02*
X-442258Y-219259D01*
X-436137Y-228438D01*
X-450306Y-237887D01*
X-456427Y-228708D01*
G37*
G36*
X-515502Y-228441D02*
X-501333Y-218992D01*
X-495212Y-228171D01*
X-509381Y-237620D01*
X-515502Y-228441D01*
G37*
G36*
X-497193Y-255895D02*
X-483024Y-246446D01*
X-476903Y-255625D01*
X-491072Y-265074D01*
X-497193Y-255895D01*
G37*
G36*
X-496468Y-118218D02*
X-479696Y-115261D01*
X-477780Y-126124D01*
X-494552Y-129081D01*
X-496468Y-118218D01*
G37*
G36*
X-490738Y-150717D02*
X-473966Y-147760D01*
X-472050Y-158623D01*
X-488822Y-161580D01*
X-490738Y-150717D01*
G37*
G36*
X-544724Y-126727D02*
X-527952Y-123770D01*
X-526036Y-134633D01*
X-542808Y-137590D01*
X-544724Y-126727D01*
G37*
G36*
X-538994Y-159226D02*
X-522222Y-156269D01*
X-520306Y-167132D01*
X-537078Y-170089D01*
X-538994Y-159226D01*
G37*
X-501486Y-31521D03*
X-501486Y-64521D03*
X-550486Y-31521D03*
X-550486Y-64521D03*
X-500848Y69270D03*
X-500848Y36270D03*
X-549848Y69270D03*
X-549848Y36270D03*
G36*
X-487161Y167225D02*
X-470364Y164414D01*
X-472185Y153535D01*
X-488982Y156346D01*
X-487161Y167225D01*
G37*
G36*
X-492608Y134678D02*
X-475811Y131867D01*
X-477632Y120988D01*
X-494429Y123799D01*
X-492608Y134678D01*
G37*
G36*
X-535489Y175312D02*
X-518692Y172501D01*
X-520513Y161622D01*
X-537310Y164433D01*
X-535489Y175312D01*
G37*
G36*
X-540936Y142765D02*
X-524139Y139954D01*
X-525960Y129075D01*
X-542757Y131886D01*
X-540936Y142765D01*
G37*
G36*
X-448050Y252200D02*
X-432929Y244362D01*
X-438006Y234568D01*
X-453127Y242406D01*
X-448050Y252200D01*
G37*
G36*
X-463237Y222902D02*
X-448116Y215064D01*
X-453193Y205270D01*
X-468314Y213108D01*
X-463237Y222902D01*
G37*
G36*
X-491553Y274750D02*
X-476432Y266912D01*
X-481509Y257118D01*
X-496630Y264956D01*
X-491553Y274750D01*
G37*
G36*
X-506740Y245452D02*
X-491619Y237614D01*
X-496696Y227820D01*
X-511817Y235658D01*
X-506740Y245452D01*
G37*
G36*
X-392439Y332800D02*
X-378927Y322432D01*
X-385643Y313680D01*
X-399155Y324048D01*
X-392439Y332800D01*
G37*
G36*
X-412528Y306619D02*
X-399016Y296251D01*
X-405732Y287499D01*
X-419244Y297867D01*
X-412528Y306619D01*
G37*
G36*
X-431313Y362629D02*
X-417801Y352261D01*
X-424517Y343509D01*
X-438029Y353877D01*
X-431313Y362629D01*
G37*
G36*
X-451402Y336448D02*
X-437890Y326080D01*
X-444606Y317328D01*
X-458118Y327696D01*
X-451402Y336448D01*
G37*
G36*
X-318780Y405150D02*
X-306737Y393107D01*
X-314538Y385306D01*
X-326581Y397349D01*
X-318780Y405150D01*
G37*
G36*
X-342115Y381816D02*
X-330072Y369773D01*
X-337873Y361972D01*
X-349916Y374015D01*
X-342115Y381816D01*
G37*
G36*
X-353429Y439798D02*
X-341386Y427755D01*
X-349187Y419954D01*
X-361230Y431997D01*
X-353429Y439798D01*
G37*
G36*
X-376763Y416464D02*
X-364720Y404421D01*
X-372521Y396620D01*
X-384564Y408663D01*
X-376763Y416464D01*
G37*
G36*
X273670Y429710D02*
X263185Y416290D01*
X254492Y423082D01*
X264977Y436502D01*
X273670Y429710D01*
G37*
G36*
X247666Y450027D02*
X237181Y436607D01*
X228488Y443399D01*
X238973Y456819D01*
X247666Y450027D01*
G37*
G36*
X303838Y468323D02*
X293353Y454903D01*
X284660Y461695D01*
X295145Y475115D01*
X303838Y468323D01*
G37*
G36*
X277833Y488639D02*
X267348Y475219D01*
X258655Y482011D01*
X269140Y495431D01*
X277833Y488639D01*
G37*
G36*
X-231259Y459888D02*
X-221810Y445719D01*
X-230989Y439598D01*
X-240438Y453767D01*
X-231259Y459888D01*
G37*
G36*
X-258714Y441578D02*
X-249265Y427409D01*
X-258444Y421288D01*
X-267893Y435457D01*
X-258714Y441578D01*
G37*
G36*
X-258447Y500654D02*
X-248998Y486485D01*
X-258177Y480364D01*
X-267626Y494533D01*
X-258447Y500654D01*
G37*
G36*
X-285901Y482344D02*
X-276452Y468175D01*
X-285631Y462054D01*
X-295080Y476223D01*
X-285901Y482344D01*
G37*
G36*
X-133983Y497020D02*
X-127657Y481207D01*
X-137899Y477110D01*
X-144225Y492923D01*
X-133983Y497020D01*
G37*
G36*
X-164623Y484765D02*
X-158297Y468952D01*
X-168539Y464855D01*
X-174865Y480668D01*
X-164623Y484765D01*
G37*
G36*
X-152180Y542515D02*
X-145854Y526702D01*
X-156096Y522605D01*
X-162422Y538418D01*
X-152180Y542515D01*
G37*
G36*
X-182820Y530260D02*
X-176494Y514447D01*
X-186736Y510350D01*
X-193062Y526163D01*
X-182820Y530260D01*
G37*
D14*
X-38502Y500547D03*
X-71502Y500547D03*
X-38502Y549547D03*
X-71502Y549547D03*
D15*
X139700Y279400D03*
X139700Y177800D03*
D13*
G36*
X359810Y365125D02*
X347314Y353554D01*
X339818Y361649D01*
X352314Y373220D01*
X359810Y365125D01*
G37*
G36*
X337389Y389338D02*
X324893Y377767D01*
X317397Y385862D01*
X329893Y397433D01*
X337389Y389338D01*
G37*
G36*
X395763Y398418D02*
X383267Y386847D01*
X375771Y394942D01*
X388267Y406513D01*
X395763Y398418D01*
G37*
G36*
X373341Y422631D02*
X360845Y411060D01*
X353349Y419155D01*
X365845Y430726D01*
X373341Y422631D01*
G37*
G36*
X426492Y285214D02*
X412627Y275325D01*
X406220Y284306D01*
X420085Y294195D01*
X426492Y285214D01*
G37*
G36*
X407329Y312080D02*
X393464Y302191D01*
X387057Y311172D01*
X400922Y321061D01*
X407329Y312080D01*
G37*
G36*
X466383Y313668D02*
X452518Y303779D01*
X446111Y312760D01*
X459976Y322649D01*
X466383Y313668D01*
G37*
G36*
X447220Y340534D02*
X433355Y330645D01*
X426948Y339626D01*
X440813Y349515D01*
X447220Y340534D01*
G37*
G36*
X472281Y202135D02*
X457343Y193956D01*
X452045Y203631D01*
X466983Y211810D01*
X472281Y202135D01*
G37*
G36*
X456433Y231080D02*
X441495Y222901D01*
X436197Y232576D01*
X451135Y240755D01*
X456433Y231080D01*
G37*
G36*
X515261Y225666D02*
X500323Y217487D01*
X495025Y227162D01*
X509963Y235341D01*
X515261Y225666D01*
G37*
G36*
X499413Y254611D02*
X484475Y246432D01*
X479177Y256107D01*
X494115Y264286D01*
X499413Y254611D01*
G37*
G36*
X502678Y114750D02*
X486527Y109345D01*
X483026Y119806D01*
X499177Y125211D01*
X502678Y114750D01*
G37*
G36*
X492207Y146045D02*
X476056Y140640D01*
X472555Y151101D01*
X488706Y156506D01*
X492207Y146045D01*
G37*
G36*
X549145Y130298D02*
X532994Y124893D01*
X529493Y135354D01*
X545644Y140759D01*
X549145Y130298D01*
G37*
G36*
X538674Y161593D02*
X522523Y156188D01*
X519022Y166649D01*
X535173Y172054D01*
X538674Y161593D01*
G37*
G36*
X511574Y22056D02*
X494550Y21581D01*
X494242Y32608D01*
X511266Y33083D01*
X511574Y22056D01*
G37*
G36*
X510653Y55043D02*
X493629Y54568D01*
X493321Y65595D01*
X510345Y66070D01*
X510653Y55043D01*
G37*
G36*
X560555Y23424D02*
X543531Y22949D01*
X543223Y33976D01*
X560247Y34451D01*
X560555Y23424D01*
G37*
G36*
X559634Y56411D02*
X542610Y55936D01*
X542302Y66963D01*
X559326Y67438D01*
X559634Y56411D01*
G37*
X500938Y-68599D03*
X500938Y-35599D03*
X549938Y-68599D03*
X549938Y-35599D03*
D16*
X152400Y-225200D03*
X152400Y-199800D03*
X152400Y-174400D03*
X152400Y-149000D03*
X152400Y-123600D03*
X152400Y-98200D03*
X152400Y-72800D03*
X0Y-72800D03*
X0Y-98200D03*
X0Y-123600D03*
X0Y-149000D03*
X0Y-174400D03*
X0Y-199800D03*
X0Y-225200D03*
D17*
X-528320Y0D03*
X-553720Y0D03*
X-95250Y-530860D03*
X-120650Y-530860D03*
X-210820Y-494030D03*
X-236220Y-494030D03*
X-312420Y-435610D03*
X-337820Y-435610D03*
X-393700Y-358140D03*
X-419100Y-358140D03*
X-452120Y-279400D03*
X-477520Y-279400D03*
X-494030Y-190500D03*
X-519430Y-190500D03*
X-520700Y-97790D03*
X-546100Y-97790D03*
X554990Y0D03*
X529590Y0D03*
X543560Y-105410D03*
X518160Y-105410D03*
X513080Y-207010D03*
X487680Y-207010D03*
X-518415Y102168D03*
X-543815Y102168D03*
X464820Y-300990D03*
X439420Y-300990D03*
X394970Y-382270D03*
X369570Y-382270D03*
X313690Y-450850D03*
X288290Y-450850D03*
X219710Y-500380D03*
X194310Y-500380D03*
X118110Y-530860D03*
X92710Y-530860D03*
X12700Y542205D03*
X-12700Y542205D03*
X127000Y530860D03*
X101600Y530860D03*
X234950Y494030D03*
X209550Y494030D03*
X334010Y435610D03*
X308610Y435610D03*
X419100Y358140D03*
X393700Y358140D03*
X-491188Y198702D03*
X-516588Y198702D03*
X476250Y279400D03*
X450850Y279400D03*
X519430Y190500D03*
X494030Y190500D03*
X546100Y97790D03*
X520700Y97790D03*
X-445770Y289560D03*
X-471170Y289560D03*
X-382270Y369570D03*
X-407670Y369570D03*
X-299720Y441960D03*
X-325120Y441960D03*
X-203200Y496570D03*
X-228600Y496570D03*
X-97790Y530860D03*
X-123190Y530860D03*
X12700Y-541020D03*
X-12700Y-541020D03*
D18*
X-50800Y-241300D03*
X-50800Y-215900D03*
X-50800Y-88900D03*
X-50800Y-63500D03*
X-50800Y-190500D03*
X-50800Y-165100D03*
X-50800Y-114300D03*
X-50800Y-139700D03*
X-50800Y-38100D03*
X-50800Y-12700D03*
X-50800Y12700D03*
X-50800Y38100D03*
X-50800Y63500D03*
X-50800Y88900D03*
X-50800Y114300D03*
X-50800Y139700D03*
X-50800Y165100D03*
X-50800Y190500D03*
X-50800Y215900D03*
X-50800Y241300D03*
X-228600Y241300D03*
X-228600Y215900D03*
X-228600Y190500D03*
X-228600Y165100D03*
X-228600Y139700D03*
X-228600Y114300D03*
X-228600Y88900D03*
X-228600Y63500D03*
X-228600Y38100D03*
X-228600Y12700D03*
X-228600Y-12700D03*
X-228600Y-38100D03*
X-228600Y-63500D03*
X-228600Y-88900D03*
X-228600Y-114300D03*
X-228600Y-139700D03*
X-228600Y-165100D03*
X-228600Y-190500D03*
X-228600Y-215900D03*
X-228600Y-241300D03*
D19*
X-112450Y-240000D03*
X-166950Y-240000D03*
D20*
X-115450Y-209700D03*
X-163950Y-209700D03*
D18*
X-114300Y239000D03*
X-139700Y239000D03*
X-165100Y239000D03*
D21*
X203200Y354974D03*
D22*
X203200Y329574D03*
X279400Y329574D03*
X279400Y354974D03*
D23*
X-25400Y339090D02*
X-25400Y321310D01*
X0Y321310D02*
X0Y339090D01*
X-50800Y339090D02*
X-50800Y321310D01*
X-76200Y321310D02*
X-76200Y339090D01*
X-101600Y339090D02*
X-101600Y321310D01*
X25400Y321310D02*
X25400Y339090D01*
X50800Y339090D02*
X50800Y321310D01*
X76200Y321310D02*
X76200Y339090D01*
D24*
X449580Y12700D02*
X464820Y12700D01*
X464820Y-12700D02*
X449580Y-12700D01*
X210820Y12700D02*
X195580Y12700D01*
X195580Y-12700D02*
X210820Y-12700D01*
X271780Y12700D02*
X287020Y12700D01*
X287020Y-12700D02*
X271780Y-12700D01*
X-271780Y317500D02*
X-287020Y317500D01*
X-287020Y292100D02*
X-271780Y292100D01*
X-271780Y266700D02*
X-287020Y266700D01*
X-287020Y342900D02*
X-271780Y342900D01*
X-172720Y368300D02*
X-157480Y368300D01*
X-157480Y342900D02*
X-172720Y342900D01*
X-172720Y317500D02*
X-157480Y317500D01*
X-157480Y393700D02*
X-172720Y393700D01*
X202692Y195580D02*
X202692Y180340D01*
X228092Y180340D02*
X228092Y195580D01*
X203200Y115927D02*
X203200Y100687D01*
X228600Y100687D02*
X228600Y115927D01*
D25*
X63500Y190500D03*
X38100Y190500D03*
X12700Y190500D03*
X88900Y190500D03*
X-330200Y127000D03*
X-355600Y127000D03*
X-381000Y127000D03*
X-304800Y127000D03*
D24*
X-436880Y12700D02*
X-452120Y12700D01*
X-452120Y38100D02*
X-436880Y38100D01*
X-436880Y63500D02*
X-452120Y63500D01*
X-452120Y-12700D02*
X-436880Y-12700D01*
X-436880Y-38100D02*
X-452120Y-38100D01*
X-452120Y-63500D02*
X-436880Y-63500D01*
X-401320Y-190500D02*
X-386080Y-190500D01*
X-386080Y-165100D02*
X-401320Y-165100D01*
X-401320Y-139700D02*
X-386080Y-139700D01*
X-386080Y-215900D02*
X-401320Y-215900D01*
D26*
X70000Y-173750D03*
X-380000Y7500D03*
X-342500Y360000D03*
X55000Y107500D03*
X110000Y162500D03*
X61250Y136250D03*
X151250Y408750D03*
X67500Y128750D03*
X75000Y111250D03*
X81250Y103750D03*
X98750Y110000D03*
X108750Y111250D03*
X93750Y-17500D03*
X467500Y-52500D03*
X86250Y-1250D03*
X93750Y-27500D03*
X453750Y-152500D03*
X75000Y-58750D03*
X398750Y-255000D03*
X85000Y-150000D03*
X346250Y-331250D03*
X176250Y-307500D03*
X263750Y-395000D03*
X122500Y-507500D03*
X-267500Y-230000D03*
X-13750Y-483750D03*
X-427500Y-148750D03*
X-427500Y-220000D03*
X-437500Y-150000D03*
X-453750Y-166250D03*
X-492500Y-87500D03*
X-415000Y-87500D03*
X-505000Y11250D03*
X-373750Y22500D03*
X-380000Y77500D03*
X-360000Y93750D03*
X-457500Y180000D03*
X-353750Y101250D03*
X-427500Y158750D03*
X-331250Y111250D03*
X-208750Y195000D03*
X-255000Y351250D03*
X-122500Y483750D03*
X32500Y70000D03*
X-33750Y5000D03*
X32500Y-1250D03*
X18750Y12500D03*
X-198750Y70000D03*
X-251250Y55000D03*
X-270000Y138750D03*
X-263750Y131250D03*
X47500Y28750D03*
X-386250Y-37500D03*
X95000Y513750D03*
X86250Y545000D03*
X297500Y417500D03*
X291250Y450000D03*
X-80000Y-546250D03*
X-85000Y-522500D03*
X-191250Y-493750D03*
X-191250Y-513750D03*
X-443750Y-301250D03*
X-441250Y-237500D03*
X-505000Y-216250D03*
X-482500Y-165000D03*
X-141250Y532500D03*
X-116250Y507500D03*
X396250Y341250D03*
X383750Y382500D03*
X-397500Y-340000D03*
X-383750Y-387500D03*
X-520000Y-10000D03*
X-511250Y26250D03*
X27500Y-542500D03*
X23750Y-530000D03*
X-365000Y-122500D03*
X-30000Y-110000D03*
X-63750Y-152500D03*
X0Y153750D03*
X126250Y355000D03*
X-193750Y232500D03*
X-96250Y57500D03*
X-88750Y51250D03*
X48750Y-140000D03*
X116250Y188750D03*
X-392500Y-45000D03*
X-386250Y-22500D03*
X-17500Y125000D03*
X-18750Y-2500D03*
X10000Y500000D03*
X197500Y-136250D03*
X-268750Y-128750D03*
X-302500Y15000D03*
X-312500Y13750D03*
X-298750Y36250D03*
X-257500Y107500D03*
X-262500Y-441250D03*
X-165000Y461250D03*
X220000Y-468750D03*
X326250Y-386250D03*
X528750Y140000D03*
X531250Y81250D03*
X482500Y242500D03*
X533750Y-115000D03*
X-516250Y70000D03*
X-505000Y106250D03*
D27*
X368300Y-25400D03*
D26*
X-276250Y-421250D03*
X437500Y-207500D03*
X232500Y-436250D03*
X-501250Y-13750D03*
X-421250Y243750D03*
X435000Y203750D03*
X457500Y66250D03*
X18750Y65000D03*
X-271250Y420000D03*
X216250Y435000D03*
X-391250Y-298750D03*
D27*
X368300Y25400D03*
M02*
