G04 EAGLE Gerber RS-274X export*
G75*
%MOMM*%
%FSLAX34Y34*%
%LPD*%
%INSolderpaste Top*%
%IPPOS*%
%AMOC8*
5,1,8,0,0,1.08239X$1,22.5*%
G01*
G04 Define Apertures*
%ADD10R,0.970200X0.920900*%
%ADD11R,1.000000X1.100000*%
%ADD12R,1.100000X1.000000*%
%ADD13R,0.798700X0.973900*%
%ADD14C,0.450000*%
%ADD15R,1.990600X0.939000*%
%ADD16R,6.121400X5.511800*%
%ADD17R,0.973900X0.798700*%
%ADD18R,0.908000X0.909000*%
%ADD19R,5.505400X4.923800*%
%ADD20R,3.500000X1.600000*%
%ADD21R,9.750000X12.200000*%
D10*
X215900Y-208154D03*
X215900Y-223646D03*
X215900Y-261746D03*
X215900Y-246254D03*
D11*
X-503800Y0D03*
X-486800Y0D03*
X-110100Y-482600D03*
X-93100Y-482600D03*
X-211700Y-457200D03*
X-194700Y-457200D03*
X-300600Y-406400D03*
X-283600Y-406400D03*
X-376800Y-330200D03*
X-359800Y-330200D03*
X-427600Y-254000D03*
X-410600Y-254000D03*
X-465700Y-177800D03*
X-448700Y-177800D03*
X-478400Y-101600D03*
X-461400Y-101600D03*
X478400Y-63500D03*
X461400Y-63500D03*
D12*
X469900Y-93100D03*
X469900Y-110100D03*
X457200Y-182000D03*
X457200Y-199000D03*
D11*
X-491100Y101600D03*
X-474100Y101600D03*
X402200Y-266700D03*
X385200Y-266700D03*
X351400Y-342900D03*
X334400Y-342900D03*
X275200Y-406400D03*
X258200Y-406400D03*
X199000Y-457200D03*
X182000Y-457200D03*
X110100Y-482600D03*
X93100Y-482600D03*
D12*
X-12700Y503800D03*
X-12700Y486800D03*
X101600Y491100D03*
X101600Y474100D03*
X203200Y465700D03*
X203200Y448700D03*
X292100Y402200D03*
X292100Y385200D03*
X368300Y338700D03*
X368300Y321700D03*
D11*
X-465700Y190500D03*
X-448700Y190500D03*
X376800Y279400D03*
X359800Y279400D03*
X402200Y254000D03*
X385200Y254000D03*
X465700Y76200D03*
X448700Y76200D03*
D13*
X173252Y355600D03*
X156948Y355600D03*
X309348Y330200D03*
X325652Y330200D03*
D11*
X-427600Y266700D03*
X-410600Y266700D03*
X-364100Y342900D03*
X-347100Y342900D03*
X-287900Y406400D03*
X-270900Y406400D03*
X-199000Y457200D03*
X-182000Y457200D03*
X-110100Y495300D03*
X-93100Y495300D03*
X-8500Y-495300D03*
X8500Y-495300D03*
D14*
X99250Y81050D02*
X99250Y95050D01*
X92750Y95050D02*
X92750Y81050D01*
X86250Y81050D02*
X86250Y95050D01*
X79750Y95050D02*
X79750Y81050D01*
X73250Y81050D02*
X73250Y95050D01*
X66750Y95050D02*
X66750Y81050D01*
X60250Y81050D02*
X60250Y95050D01*
X53750Y95050D02*
X53750Y81050D01*
X47250Y81050D02*
X47250Y95050D01*
X40750Y95050D02*
X40750Y81050D01*
X34250Y81050D02*
X34250Y95050D01*
X27750Y95050D02*
X27750Y81050D01*
X27750Y20550D02*
X27750Y6550D01*
X34250Y6550D02*
X34250Y20550D01*
X40750Y20550D02*
X40750Y6550D01*
X47250Y6550D02*
X47250Y20550D01*
X53750Y20550D02*
X53750Y6550D01*
X60250Y6550D02*
X60250Y20550D01*
X66750Y20550D02*
X66750Y6550D01*
X73250Y6550D02*
X73250Y20550D01*
X79750Y20550D02*
X79750Y6550D01*
X86250Y6550D02*
X86250Y20550D01*
X92750Y20550D02*
X92750Y6550D01*
X99250Y6550D02*
X99250Y20550D01*
X-378650Y-30250D02*
X-378650Y-44250D01*
X-372150Y-44250D02*
X-372150Y-30250D01*
X-365650Y-30250D02*
X-365650Y-44250D01*
X-359150Y-44250D02*
X-359150Y-30250D01*
X-352650Y-30250D02*
X-352650Y-44250D01*
X-346150Y-44250D02*
X-346150Y-30250D01*
X-339650Y-30250D02*
X-339650Y-44250D01*
X-333150Y-44250D02*
X-333150Y-30250D01*
X-326650Y-30250D02*
X-326650Y-44250D01*
X-320150Y-44250D02*
X-320150Y-30250D01*
X-313650Y-30250D02*
X-313650Y-44250D01*
X-307150Y-44250D02*
X-307150Y-30250D01*
X-307150Y30250D02*
X-307150Y44250D01*
X-313650Y44250D02*
X-313650Y30250D01*
X-320150Y30250D02*
X-320150Y44250D01*
X-326650Y44250D02*
X-326650Y30250D01*
X-333150Y30250D02*
X-333150Y44250D01*
X-339650Y44250D02*
X-339650Y30250D01*
X-346150Y30250D02*
X-346150Y44250D01*
X-352650Y44250D02*
X-352650Y30250D01*
X-359150Y30250D02*
X-359150Y44250D01*
X-365650Y44250D02*
X-365650Y30250D01*
X-372150Y30250D02*
X-372150Y44250D01*
X-378650Y44250D02*
X-378650Y30250D01*
D15*
X251849Y-231500D03*
X251849Y-276500D03*
D16*
X333883Y-254000D03*
D13*
X131548Y-12700D03*
X147852Y-12700D03*
D17*
X-279400Y-84352D03*
X-279400Y-68048D03*
X-279400Y-122452D03*
X-279400Y-106148D03*
X215900Y-118848D03*
X215900Y-135152D03*
X215900Y-78513D03*
X215900Y-94817D03*
D18*
X290203Y243586D03*
X290203Y266700D03*
X290203Y289814D03*
D19*
X215384Y266700D03*
D10*
X190500Y-81154D03*
X190500Y-96646D03*
X215900Y-170054D03*
X215900Y-185546D03*
D20*
X259770Y-101400D03*
X259770Y-152200D03*
D21*
X362520Y-126800D03*
M02*
