M48
;GenerationSoftware,Autodesk,EAGLE,9.7.0*%
;CreationDate,2022-11-11T06:53:07Z*%
FMAT,2
ICI,OFF
METRIC,TZ,000.000
T11C0.350
T10C0.800
T9C0.813
T8C0.907
T7C1.000
T6C1.016
T5C1.118
T4C1.500
T3C1.800
T2C1.900
T1C3.200
%
G90
M71
T1
X60500Y0
X0Y-60500
X-60500Y0
X0Y60500
T2
X36830Y2540
X36830Y-2540
T3
X-16695Y-24000
X-11245Y-24000
T4
X-11545Y-20970
X-16395Y-20970
T5
X13970Y27940
X13970Y17780
T6
X-44450Y3810
X-44450Y1270
X-30480Y12700
X-38100Y12700
X-33020Y12700
X8890Y19050
X1270Y19050
X-39370Y-13970
X-35560Y12700
X3810Y19050
X36830Y17780
X36830Y10160
X-39370Y-16510
X-39370Y-19050
X-44450Y-6350
X-44450Y-3810
X-44450Y-1270
X6350Y19050
X22860Y10831
X20320Y10831
X22809Y18796
X20269Y18796
X-16510Y39370
X-16510Y31750
X-16510Y34290
X-16510Y36830
X-27940Y34290
X-27940Y26670
X-27940Y29210
X-27940Y31750
X27940Y-1270
X27940Y1270
X20320Y-1270
X20320Y1270
X45720Y-1270
X45720Y1270
X-44450Y6350
X-39370Y-21590
T7
X0Y-17440
X0Y-19980
X-5080Y16510
X-5080Y-1270
X-5080Y-3810
X-5080Y-13970
X-5080Y-11430
X-5080Y-16510
X-5080Y-19050
X0Y-22520
X-5080Y-6350
X-5080Y-8890
X-5080Y-21590
X-5080Y-24130
X15240Y-22520
X15240Y-19980
X15240Y-17440
X15240Y-14900
X15240Y-12360
X15240Y-9820
X15240Y-7280
X0Y-7280
X0Y-9820
X-16510Y23900
X-13970Y23900
X-11430Y23900
X-22860Y-24130
X-22860Y-21590
X-22860Y-19050
X-22860Y-16510
X0Y-12360
X-22860Y-11430
X-22860Y-8890
X-22860Y-6350
X-22860Y-3810
X-22860Y-1270
X-22860Y1270
X-22860Y3810
X-22860Y6350
X-22860Y8890
X-22860Y11430
X-22860Y13970
X-22860Y16510
X-22860Y-13970
X-22860Y21590
X-22860Y24130
X-5080Y24130
X-5080Y21590
X-5080Y19050
X0Y-14900
X-5080Y13970
X-5080Y11430
X-5080Y8890
X-5080Y6350
X-5080Y3810
X-5080Y1270
X-22860Y19050
T8
X39497Y-38227
X36957Y-38227
X31369Y-45085
X28829Y-45085
X21971Y-50038
X19431Y-50038
X11811Y-53086
X9271Y-53086
X1270Y54220
X-1270Y54220
X12700Y53086
X10160Y53086
X23495Y49403
X20955Y49403
X33401Y43561
X30861Y43561
X39370Y35814
X-49119Y19870
X-51659Y19870
X47625Y27940
X45085Y27940
X51943Y19050
X49403Y19050
X54610Y9779
X52070Y9779
X-44577Y28956
X-47117Y28956
X-38227Y36957
X-40767Y36957
X-29972Y44196
X-32512Y44196
X-20320Y49657
X-22860Y49657
X-9779Y53086
X-12319Y53086
X1270Y-54102
X-1270Y-54102
X-23622Y-49403
X-52832Y0
X-55372Y0
X-9525Y-53086
X-12065Y-53086
X-21082Y-49403
X41910Y35814
X-31242Y-43561
X-33782Y-43561
X-39370Y-35814
X-41910Y-35814
X-45212Y-27940
X-47752Y-27940
X-49403Y-19050
X-51943Y-19050
X-52070Y-9779
X-54610Y-9779
X55499Y0
X52959Y0
X54356Y-10541
X51816Y-10541
X51308Y-20701
X48768Y-20701
X-51841Y10217
X-54381Y10217
X46482Y-30099
X43942Y-30099
T9
X20320Y35497
X20320Y32957
X27940Y32957
X27940Y35497
T10
X-2540Y33020
X0Y33020
X-5080Y33020
X-7620Y33020
X-10160Y33020
X2540Y33020
X7620Y33020
X5080Y33020
T11
X9375Y-1750
X46750Y-5250
X8625Y-125
X9375Y-2750
X45375Y-15250
X7500Y-5875
X39875Y-25500
X8500Y-15000
X34625Y-33125
X17625Y-30750
X26375Y-39500
X12250Y-50750
X-26750Y-23000
X-1375Y-48375
X-42750Y-14875
X-42750Y-22000
X-43750Y-15000
X-45375Y-16625
X-49250Y-8750
X-41500Y-8750
X-50500Y1125
X-37375Y2250
X-38000Y7750
X-36000Y9375
X-45750Y18000
X45750Y6625
X-39125Y-29875
X21625Y43500
X-27125Y42000
X1875Y6500
X43500Y20375
X-42125Y24375
X-50125Y-1375
X23250Y-43625
X43750Y-20750
X-27625Y-42125
X-50500Y10625
X-51625Y7000
X53375Y-11500
X48250Y24250
X53125Y8125
X52875Y14000
X32625Y-38625
X22000Y-46875
X-16500Y46125
X-26250Y-44125
X-25750Y10750
X-29875Y3625
X-31250Y1375
X-30250Y1500
X-26875Y-12875
X19750Y-13625
X1000Y50000
X-1875Y-250
X-1750Y12500
X-38625Y-2250
X-39250Y-4500
X11625Y18875
X4875Y-14000
X-8875Y5125
X-9625Y5750
X-19375Y23250
X12625Y35500
X0Y15375
X-6375Y-15250
X-3000Y-11000
X-36500Y-12250
X2375Y-53000
X2750Y-54250
X7000Y-17375
X-38000Y750
X-34250Y36000
X5500Y10750
X11000Y16250
X6125Y13625
X15125Y40875
X6750Y12875
X7500Y11125
X8125Y10375
X-35375Y10125
X9875Y11000
X-51125Y2625
X-52000Y-1000
X-38375Y-38750
X10875Y11125
X38375Y38250
X39625Y34125
X-11625Y50750
X-14125Y53250
X-48250Y-16500
X-50500Y-21625
X-44125Y-23750
X-44375Y-30125
X-19125Y-51375
X-19125Y-49375
X-8500Y-52250
X-8000Y-54625
X29125Y45000
X29750Y41750
X8625Y54500
X-39750Y-34000
X-38625Y-3750
X4750Y2875
X-26375Y13125
X-27000Y13875
X-25125Y5500
X-19875Y7000
X1875Y1250
X3250Y-125
X-3375Y500
X3250Y7000
X-12250Y48375
X-25500Y35125
X-20875Y19500
X-33125Y11125
X-42750Y15875
X9500Y51375
M30