M48
;GenerationSoftware,Autodesk,EAGLE,9.7.0*%
;CreationDate,2023-02-17T09:32:41Z*%
FMAT,2
ICI,OFF
METRIC,TZ,000.000
T9C0.350
T8C0.600
T7C0.650
T6C0.800
T5C0.813
T4C0.990
T3C1.016
T2C1.118
T1C3.200
%
G90
M71
T1
X71771Y-31577
X90040Y31577
X71771Y31577
X90040Y-31577
T2
X66000Y-4920
X66000Y-15080
T3
X82000Y3810
X82000Y-3810
X82000Y12730
X82000Y15270
X82000Y17810
X82000Y10190
X82000Y-15270
X82000Y-12730
X82000Y-10190
X59531Y15315
X82000Y-17810
X59524Y-6399
X59524Y-3859
X59531Y12775
X59531Y3775
X59531Y6315
X82000Y-1270
X82000Y1270
T4
X56984Y20899
X54913Y24894
X62754Y23890
X60683Y27886
T5
X75006Y-21808
X75006Y-24348
X67386Y-24348
X67386Y-21808
T6
X74750Y21000
X69250Y21000
T7
X89606Y19729
X90708Y14056
X91859Y2890
X91859Y-2890
X90627Y-14608
X89524Y-20281
T8
X90490Y12556
X88842Y21038
X90409Y-13108
X88760Y-21590
X95539Y4320
X95539Y-4320
X94512Y-13906
X94594Y13354
X92945Y21835
X91359Y-4320
X91359Y4320
X92863Y-22387
T9
X84430Y15392
X87554Y-2438
X91897Y533
X89611Y229
X77876Y-1829
X77876Y11278
X80086Y9449
X85420Y-14630
X69000Y12000
X88163Y-15850
X86258Y-15850
X79629Y-3200
M30