M48
;GenerationSoftware,Autodesk,EAGLE,9.7.0*%
;CreationDate,2023-02-13T06:21:33Z*%
FMAT,2
ICI,OFF
METRIC,TZ,000.000
T4C0.350
T3C1.000
T2C1.016
T1C3.200
%
G90
M71
T1
X-12500Y0
X12500Y0
T2
X14060Y13102
X2540Y16000
X-2540Y16000
X0Y16000
X-14384Y6730
X-14384Y9270
X15628Y-12638
X15628Y-10098
X15628Y-7558
X15628Y-5018
X12264Y14898
T3
X-8000Y9000
X-1000Y9000
X5000Y9000
T4
X3200Y11887
X-4358Y-2638
X-5944Y12802
X-3200Y10820
X-3658Y6706
X914Y2134
X-4420Y-7010
X7925Y-1981
X-9296Y4877
X1372Y-305
X-11125Y6248
X-152Y-2743
X11125Y3353
X3979Y-3741
X9144Y13564
X10211Y10058
X2743Y-3048
X305Y-6096
X-14368Y-7677
X-4877Y-1524
X4572Y12040
X6096Y15088
X12802Y8382
X305Y12192
X14173Y3962
X3810Y11125
X-2591Y11887
X11887Y5944
X-3048Y5944
X-8992Y762
X-7010Y-12497
X10668Y-12497
X2049Y-12119
X-9449Y-2438
X1372Y-1524
X5998Y-1369
X774Y-8230
X4629Y-4377
X2958Y-11787
X15850Y9144
X4277Y-12920
X-914Y-6401
X-1524Y-3658
X-305Y-3658
X1381Y-9344
X-10058Y-4572
X1524Y-3353
X3913Y-5496
X10211Y8992
X5486Y16002
X-5486Y-3962
X10211Y6858
X3505Y6858
X4724Y-1067
M30